<svg id="Layer_1" data-name="Layer 1" xmlns="http://www.w3.org/2000/svg" viewBox="0 0 804.9 525.67"><title>bedroomsicon</title><path d="M3.23,319.31l-.07,50.35q0,25.27.5,50.53c.22,8.41.35,16.84.84,25.19.19,4.2.61,8.24,1.06,12.5s.8,8.42,1.15,12.63c1.38,16.84,2.44,33.67,3.33,50.54L8,518.37a37.08,37.08,0,0,0,6,1.21,9.8,9.8,0,0,0,2.42,0c.11,0,.26-.05.19-.06h0a.64.64,0,0,0-.25.18,1.76,1.76,0,0,1-.24.3.84.84,0,0,0-.14.4l.05-.59c0-.32.09-.9.12-1.45l.12-1.63.2-3.3.34-6.65q.63-13.33,1-26.69c.46-17.78,1-35.65.89-53.24l-.05-3.28-.16-3.18-.45-6.7-.7-13.4c-.44-8.92-.77-17.84-1.06-26.76-.56-17.84-1-35.68-1-53.54l.19.58a5.48,5.48,0,0,0-2.31-1.72,9,9,0,0,0-3.21-.61,15.18,15.18,0,0,0-3.43.27l-1.7.4C4.29,319.06,3.79,319.18,3.23,319.31Zm-.63-.43c.57-.29,1.19-.6,1.83-.88l1.75-.64a16.61,16.61,0,0,1,3.7-.73,10.86,10.86,0,0,1,3.89.38,7.39,7.39,0,0,1,3.58,2.29l.15.18v.4c1.87,17.76,3.36,35.54,4.84,53.31l2.18,26.64,1.11,13.3.57,6.64.24,3.5.11,3.41c.21,9.06,0,18-.33,26.94s-.74,17.87-1.28,26.78-1.09,17.84-1.72,26.76l-.51,6.7-.26,3.37-.17,1.7c-.05.56-.09,1.11-.21,1.88l-.17,1.07A4.85,4.85,0,0,1,20.67,524a6.1,6.1,0,0,1-.89.72,5.56,5.56,0,0,1-.78.37,5.73,5.73,0,0,1-1.41.42,14.28,14.28,0,0,1-4.23,0,41.73,41.73,0,0,1-7.07-1.57l-2-.6-.06-2.07C3.69,504.45,3,487.62,2,470.83q-.39-6.29-.88-12.56c-.34-4.13-.7-8.49-.8-12.71C0,437.08,0,428.64,0,420.2c.13-16.87.5-33.73.93-50.59l.73-25.27.41-12.64.22-6.32.11-3.15.06-1.58A9.14,9.14,0,0,1,2.6,318.88Z"/><path d="M800.67,318.88c.1.54.18,1.29.23,1.78l.16,1.58.3,3.16.55,6.31c.3,4.21.66,8.42.9,12.63.55,8.42,1,16.84,1.3,25.27s.58,16.86.66,25.3.18,16.88,0,25.32-.62,16.89-1.4,25.36c-.34,4.22-.93,8.56-1.51,12.67s-1.07,8.34-1.41,12.57c-1.67,16.75-2.45,33.6-2.6,50.44v1.14l-1.16.38a40.9,40.9,0,0,1-6.82,1.67,13.48,13.48,0,0,1-3.91.06,5,5,0,0,1-1.21-.33c-.22-.09-.44-.18-.66-.29a5.45,5.45,0,0,1-.7-.57,3.82,3.82,0,0,1-1-1.64l-.17-1c-.37-2.49-.58-4.57-.83-6.85l-.68-6.68c-.89-8.9-1.56-17.81-2.13-26.72s-1-17.85-1.37-26.78-.77-17.88-.57-27l.07-3.41.21-3.51.52-6.64,1-13.3,2.1-26.65c1.51-17.77,3.08-35.55,5.06-53.3l0-.45.16-.2a7.5,7.5,0,0,1,3.66-2.3,10.87,10.87,0,0,1,3.93-.36,16.11,16.11,0,0,1,3.7.76l1.75.66C799.45,318.27,800.11,318.58,800.67,318.88Zm-.63.43c-.56-.13-1.07-.24-1.56-.37l-1.7-.38a17,17,0,0,0-3.42-.25,8.84,8.84,0,0,0-3.17.65,5.31,5.31,0,0,0-2.23,1.69l.21-.65c.11,17.87-.26,35.72-.79,53.56-.33,8.92-.6,17.84-1.1,26.76l-.75,13.4c-.11,2.21-.38,4.55-.51,6.7l-.2,3.16-.08,3.28c-.28,17.58.07,35.47.56,53.25l.59,26.71.16,6.67c.07,2.17.14,4.55.27,6.49v.67c.07-.1-.17-.21-.14-.24a0,0,0,0,0-.07,0l.11.05a4.06,4.06,0,0,0,.39.13,10.14,10.14,0,0,0,2.75.11,37.87,37.87,0,0,0,6.25-1.1l-1.16,1.5q2-25.28,3-50.52c.28-8.42,1-17,.93-25.22s-.24-16.78-.31-25.18-.06-16.82,0-25.24l.23-25.26c.15-8.42.29-16.85.56-25.28.09-4.21.3-8.43.43-12.64l.3-6.33.17-3.16.09-1.58a9.16,9.16,0,0,1,.19-1.38Z"/><path d="M23.12,422.18l189.33-1.7,189.33-1.23,94.67-.8,47.33-.18,47.34.24,47.33.61c15.78.3,31.56.51,47.33.91q47.34,1,94.67,3v1q-47.34,1.89-94.67,2.77c-15.78.37-31.56.54-47.34.81l-47.33.51-47.33.13-47.33-.34-94.66-1-189.34-1.65L23.12,423.13Z"/><path d="M141.84,12.63c.69,4.14,5.91,150.77,6.84,206.27H134.45C134.87,161.11,136,13.76,136,11.73"/><path d="M660.45,13.47l2.25,201.85H676C673,155.51,665.5,13.47,665.5,13.47"/><path d="M122.45,0s.86,11.83,10.13,11.83S367.48,16,396.11,16s263.53-.84,269.42-2.52S679,11.83,679.84,1.73c0,0-219.75,3.37-266.89,2.53S133.45,2.52,122.45,0Z"/><path d="M782.91,347l-47.08.61-47.27.51-95.1.62-95.57.16c-31.9,0-63.87-.07-95.92-.41-64.12-.7-128.32-2.17-192.19-3.11s-127.55-1-191.36-.53H16.36l-.12-2.12-2-36.19-.15-2.68h2.75q96.24-1.28,192.49-1.74c64.17-.23,128.33-.68,192.49-.56l96.25.38,96.24.87,48.12.46,48.13.7,48.12.71,48.12.94h1.42l-.16,1.37C786.45,320.55,784.57,333.92,782.91,347Zm-.64-.71,3.24-39.55,1.26,1.39-48.12.89-48.13.66-48.12.65-48.12.4-96.25.77-96.24.27c-64.17,0-128.33-.46-192.49-.77S81,310,16.81,309l2.6-2.72,1.22,36.22-2.18-2.1c63.55,1.13,127.24,1.63,190.72,1.47s126.65-1.06,189.88-1.06c31.64,0,63.35.25,95.13.59l95.46,1.16,96,1.62,48.24,1Z"/><path d="M785.39,306.2c-9.44-7.11-18.72-14.43-28.07-21.65s-18.58-14.6-27.83-21.94q-27.71-22.1-55.13-44.52l2.14.76c-22.59.33-45.18.53-67.78.37l-67.79-.9c-45.19-.63-90.37.11-135.55,1.39s-90.35,2.16-135.54,2.81L236,223l-33.89.3c-22.59,0-45.19.14-67.78,0l2.11-.71q-29.19,21.22-58.63,42.13c-9.82,7-19.59,14-29.46,20.86s-19.7,13.82-29.65,20.61l-.45-.61c9.36-7.57,18.84-15,28.26-22.47s19-14.8,28.46-22.21q28.46-22.23,57.19-44.05l.9-.68h1.21c22.59-.48,45.18-.73,67.78-1l33.88-.23h33.89c45.19-.05,90.38,0,135.57.7s90.38.62,135.56-.71L608.67,213c22.59-.52,45.19-.67,67.78-.69h1.23l.91.76q27.18,22.73,54,45.85c8.94,7.72,17.89,15.43,26.74,23.25s17.77,15.58,26.52,23.53Z"/><path d="M157.6,12.61,163.31,64l5.52,51.41c1.85,17.13,3.93,34.25,5.33,51.43s2.67,34.36,3.23,51.62H177c-2.74-17.05-4.66-34.18-6.66-51.3s-3.12-34.32-4.57-51.5l-4.33-51.48-4.19-51.54Z"/><path d="M193.62,219.32q-.37-25.81,0-51.61c.18-17.2.59-34.39,1-51.58s1.1-34.37,1.9-51.56,1.73-34.35,3-51.52q.38,25.82,0,51.61c-.19,17.2-.6,34.39-1.06,51.58s-1.1,34.38-1.89,51.56S194.85,202.16,193.62,219.32Z"/><path d="M212.33,13.45,218,64.74l5.52,51.3c1.85,17.1,3.92,34.18,5.32,51.32s2.68,34.3,3.24,51.53h-.38c-2.74-17-4.67-34.11-6.66-51.19s-3.13-34.26-4.57-51.4l-4.37-51.41L212,13.46Z"/><path d="M248.15,218.48l1.13-51.18,1.32-51.17C251,99.07,251.24,82,252.12,65s1.88-34.08,3.61-51.09h.38c.47,17.09.11,34.15-.17,51.21s-1.44,34.09-2.28,51.13l-2.47,51.13-2.65,51.12Z"/><path d="M267.71,14.31q3.63,25.3,6.53,50.69c2,16.91,3.75,33.85,5.47,50.79s3.26,33.9,4.64,50.87,2.62,34,3.57,51q-3.65-25.31-6.54-50.68c-2-16.92-3.75-33.85-5.47-50.8s-3.25-33.9-4.63-50.87S268.66,31.33,267.71,14.31Z"/><path d="M302.45,217.21l1.23-50.33,1.43-50.33c.46-16.78.7-33.57,1.62-50.33s2-33.51,3.72-50.23h.38c.43,16.81,0,33.59-.28,50.38S309,99.9,308.17,116.66l-2.58,50.28-2.76,50.28Z"/><path d="M323.89,16l5.29,50.34,5.09,50.36c1.72,16.79,3.65,33.55,4.91,50.38s2.39,33.66,2.81,50.56h-.38c-2.6-16.71-4.38-33.49-6.24-50.26s-2.84-33.62-4.14-50.45l-4-50.46L323.47,16Z"/><path d="M358.22,217.64q-.06-25.3.62-50.58c.4-16.85,1-33.69,1.68-50.53S362,82.85,363,66s2.15-33.65,3.6-50.46q.06,25.31-.62,50.58c-.39,16.85-1,33.7-1.68,50.54s-1.52,33.67-2.53,50.5S359.66,200.83,358.22,217.64Z"/><path d="M379.88,16.4,385,66.64l4.88,50.26c1.65,16.75,3.51,33.48,4.7,50.27s2.25,33.59,2.6,50.45h-.38c-2.53-16.68-4.25-33.42-6-50.16s-2.7-33.55-3.94-50.34l-3.77-50.29L379.5,16.46Z"/><path d="M412.33,217.63l1.34-50.34L415.21,117c.49-16.77.77-33.56,1.72-50.32s2-33.51,3.82-50.23h.38c.4,16.82,0,33.6-.38,50.38s-1.58,33.53-2.49,50.29l-2.68,50.28-2.86,50.28Z"/><path d="M434.18,16l5.19,50.13,5,50.15c1.68,16.72,3.58,33.41,4.8,50.17s2.28,33.52,2.7,50.4h-.39c-2.56-16.64-4.31-33.35-6.13-50.05s-2.77-33.49-4-50.24l-3.9-50.26L433.79,16Z"/><path d="M467.9,217.21,469,166.77l1.32-50.43c.43-16.81.63-33.63,1.52-50.43s1.88-33.58,3.61-50.34h.38c.47,16.85.11,33.66-.17,50.48s-1.44,33.6-2.28,50.39l-2.47,50.39-2.66,50.39Z"/><path d="M489.56,16q3.27,25,5.8,50.08c1.74,16.71,3.26,33.43,4.74,50.16s2.76,33.48,3.89,50.24,2.13,33.53,2.83,50.33q-3.27-25-5.8-50.07c-1.74-16.71-3.26-33.44-4.73-50.17s-2.76-33.48-3.89-50.24S490.27,32.83,489.56,16Z"/><path d="M521.79,216.37l1.66-50.24,1.85-50.23c.6-16.74,1-33.5,2-50.22s2.24-33.44,4.14-50.12h.38c.29,16.79-.24,33.54-.7,50.29s-1.79,33.46-2.8,50.18l-3,50.17-3.18,50.17Z"/><path d="M545.74,15.56l4.87,50,4.68,50.05c1.57,16.68,3.36,33.35,4.48,50.06s2.11,33.45,2.39,50.24h-.38c-2.46-16.61-4.1-33.28-5.82-49.95s-2.56-33.41-3.72-50.13L548.7,65.69l-3.34-50.16Z"/><path d="M576.93,216.37l1.66-50.24,1.86-50.23c.6-16.74,1-33.5,2-50.22s2.24-33.44,4.14-50.12H587c.29,16.79-.24,33.54-.7,50.29s-1.79,33.46-2.81,50.18l-3,50.17-3.18,50.17Z"/><path d="M600.89,15.14l4.66,50L610,115.2c1.51,16.68,3.23,33.34,4.28,50.06s2,33.45,2.18,50.23h-.38c-2.39-16.61-4-33.29-5.61-50s-2.42-33.41-3.52-50.13l-3.32-50.14-3.13-50.15Z"/><path d="M632.5,216l1.66-50.24L636,115.48c.6-16.74,1-33.5,2-50.22s2.23-33.44,4.14-50.12h.38c.28,16.79-.25,33.53-.7,50.29S640,98.88,639,115.61l-3,50.17L632.83,216Z"/><line x1="135.94" y1="11.73" x2="141.84" y2="12.63" style="fill:none;stroke:#000;stroke-miterlimit:10"/></svg>