<svg xmlns="http://www.w3.org/2000/svg" viewBox="0 0 926.03 668.24"><path d="M564.6,630.1c-3.7,2.8-7.3,5.8-11,8.7-.9.7-1.8,2-3.4.4,2-3,4-6.1,6.2-9,2-2.7,2.7-5.7,1.3-8.8a12.43,12.43,0,0,0-3.5-4.4c-4-3.2-5.6-7.3-5.8-12.2-.1-2.8-.4-5.6-.4-8.4,0-9.4-.1-18.8,0-28.1.4-43.4-1-86.8.5-130.3q2.25-68.4,9.4-136.5a84,84,0,0,0,.5-11.2c0-12.5-.1-25-.4-37.5a80.33,80.33,0,0,0-1.5-12c-.1-.8-1.4-1.5-2.5-2.5-2.3,5.4-2.5,10.4-2.6,15.4-.1,10.9-.1,21.9-.4,32.8a130,130,0,0,1-1.3,14c-2.2,17-4.8,34-6.5,51.1-2,20.2-3.5,40.5-4.7,60.7-1.2,19.3-2.2,38.7-2.4,58.1-.5,38.4-.3,76.9-.5,115.3v19.7c-2.3,1.1-5.2,1.6-6.6,3.3-4,4.9-9.3,5.8-15,6.3-5,.4-9.8,1.5-13.5,5.5-2.2,2.4-5.4,3-8.6,2.9-7.2-.1-14.4,0-21.6-.1a17,17,0,0,1-5.5-.7c-6.6-2.8-13.4-2.7-20.3-2.4-11,.4-21.8-.8-32.2-4.6-.9-.3-2.1.2-4.7.6,2.7,2.1,4.2,3.7,6.1,4.6,2.2,1.1,4.8,1.5,7,2.6,1.8,1,3.3,2.6,5,3.8a4,4,0,0,0,1.9.2,72.6,72.6,0,0,0,9.3-.6c9-1.5,18-2,26.8,1.4a9.37,9.37,0,0,0,3.7.7c12-.8,24.4,2.7,36-2.9a3.92,3.92,0,0,1,1.8-.4c5.8.4,10.3-2.8,14.5-5.8a32.12,32.12,0,0,1,13.5-5.6l2.4,3.3,4.8-3.3c.9,2,1.2,3.6,2.2,4.7,1.2,1.4,3,2.2,4.3,3.4,2.6,2.3,3,4.9.6,7.3-2.8,2.9-5.8,5.9-9.2,7.8a84.61,84.61,0,0,1-28.8,10.1c-1.8.3-3.5,1.3-5.3,1.7-7.5,1.9-15,4.4-22.7,5.5-17,2.3-33.4-3.1-50.2-4a2.92,2.92,0,0,1-.9-.2c-8.1-3.1-16.9-3.9-24.9-7.3-6-2.6-12.5-4.8-17.4-8.9-7.5-6.2-9.8-8.3.8-15.7-1-3.7.9-6.7,3.7-9.5a11,11,0,0,0,2.8-7.7v-7.5c-.1-35.6-.2-71.3-.3-106.9,0-10.6-.1-21.2-.5-31.9-.8-19-2-38.1-2.8-57.1-1.1-25-3.9-49.8-7.1-74.6-2-15.8-5.4-31.4-4.9-47.5.2-7.5.1-15-.1-22.5-.1-4-.8-8-1.3-12.1-.2-1.2-.6-2.4-3-2.2a36.44,36.44,0,0,0-2.2,13.1c-.1,13.1-.3,26.2-.4,39.4a78.72,78.72,0,0,0,.4,8.4q2.85,31.35,5.7,62.5c3.4,37.4,4.2,74.9,4.6,112.4.5,46.5-.4,93-.6,138.9-4.3,4.3-8,8.1-13.6,8.8a20.28,20.28,0,0,1-2.3-1.8c-5.8-6.7-11.6-13.1-20.8-15-6.9-5.9-15.4-8-23.8-10.3-2.4-.7-4.7-1.8-7-2.6-15-5.2-29.9-10.9-45.1-15.6a211.11,211.11,0,0,0-29.2-6.3c-7.4-1.2-14.8-2.5-21.8-5.1a84.06,84.06,0,0,0-21-4.7c-11.5-1.1-23-2.2-34.4-4.1a199.1,199.1,0,0,0-33.6-2.3c-6.6,0-13.1.2-19.7.2-3.1,0-6.3.5-9.3-1.9-.4-6.2-1.6-12.6.8-19.1a16.93,16.93,0,0,0,.8-7.4c-1.5-12.7-2-25.5-2.5-38.2a27.41,27.41,0,0,0-.5-2.8,602.1,602.1,0,0,1-6.7-64.2c-.8-17.5-1.8-34.9-5.1-52.2-3.8-19.9-7.2-39.9-9-60.2a114.08,114.08,0,0,0-3-16.5c-2.2-9.1-4.8-18.1-7.2-27.1-7.8-28.9-14.5-58.2-28-85.3-.7-1.4-1.3-2.8-1.9-4.3-2.1-5.2-4.1-10.5-6.1-15.7-1.8-4.6-3.4-9.4-5.6-13.9-3.8-7.6-5.7-15.8-8.1-24.3,4-1.5,7.7-2.9,11.6-4.1,2.7-.8,4.3-2.2,4.9-5a16,16,0,0,1,1.3-3,34,34,0,0,1,4.2-.2c20.6.5,41.2,1,61.9,1.7,3.1.1,6.2.6,9.3.9l42.8,4.8c21.7,2.4,43.5,3.8,65.1,7.5,17.6,3,34.8,7.6,51.9,12.5a45.93,45.93,0,0,1,7,2.7c15.9,7.4,31.8,14.5,47.5,22.2,11.2,5.5,22.4,11.1,32.1,19.2,5,4.2,10.1,8.4,14.9,12.9a44.62,44.62,0,0,0,14.1,9,3.93,3.93,0,0,0,3.3-.9c1.4-1.1,1.2-2.9.2-4.2a20.75,20.75,0,0,0-3.4-3.2c-2.6-2.2-5.3-4.4-7.8-6.7-6.5-5.8-12.9-11.8-19.5-17.5-3.2-2.8-6.9-5-10.5-7.5a4.41,4.41,0,0,1,5.5.8c5.5,5.3,12.5,8.1,18.7,12.2,3.9,2.5,8.6,4.8,11,8.5,4.6,6.9,10.5,12.3,16,18.3,3.6,3.9,7,7.9,8.8,14.4-7.1-3.7-7,4.6-11.6,6l-7.9-2.7c-.8-5.7,2.2-9.5,4.6-13.6-1.2-.8-2.1-1.8-2.7-1.6-7.3,2.5-11.5,8-13.8,15.1a6.69,6.69,0,0,0,1.5,6.2c1.8,2.3,3.9,4.4,6.9,4.4,4.6,0,8.5,2,12.3,4.1a22.36,22.36,0,0,0,9.8,2.6c3.4.4,6.8.9,10.1,1.6,3.1.5,6.1,1.2,9.1,1.7,1.8.3,3.9,0,5.5.7,6.5,2.9,13.4,2.6,20.3,2.6,8.4,0,16.9-.1,25.3,0,6,.1,11.8-.1,17.5-2.4a17.13,17.13,0,0,1,5.5-.9c8.4-.3,16.3-4.4,24.8-3.9a4.07,4.07,0,0,0,1.8-.5c5.3-2.5,10.5-5,16.6-6,6.6-1,8.8-8,5.8-14a26.75,26.75,0,0,0-11-11.1c-1.4-.8-3-.4-3.8,2.3,2.2,3.7,5.3,7.8,4.2,13.2-1.8.5-3.3.8-4.8,1.2s-2.9.7-4.4,1c-1.5-2.1-2.5-4.2-4.2-5.5s-3.8-1.3-5.9-1.9c1.4-2.8,2.5-5.4,3.9-7.8a26,26,0,0,1,3.2-3.5c6-6.7,13-12.5,17.6-20.5a8.42,8.42,0,0,1,2.8-2.5c4.9-3.3,9.8-6.7,14.9-9.6,3.8-2.2,7.6-4,10.7-7.3,1.5-1.6,3.9-3,6.5-1.9-6.2,4.9-12.5,9.5-18.4,14.6-7.4,6.3-14.5,12.9-21.7,19.3a3.27,3.27,0,0,0-1.1,1.5c-.2,1.2-.5,2.6,0,3.5a4.1,4.1,0,0,0,3.1,1.4,8.3,8.3,0,0,0,3.4-1.3,52.69,52.69,0,0,0,12.8-9.2A149.7,149.7,0,0,1,590,169.6c17.8-9.9,36.5-17.8,54.8-26.4a23.11,23.11,0,0,1,6.2-1.8c13.3-1.9,26.6-3.8,39.9-5.5,24.8-3.1,49.2-8.4,73.4-14.7,5.4-1.4,10.8-3.1,16.3-4.1,8.9-1.5,17.9-2.5,26.9-3.6,7.4-.9,14.9-2,22.4-2.4,14.4-.7,28.7-1,43.1-1.3,9.3-.2,18.7-.3,28-.5l2.7-5.3H912c1.9,0,3.8.2,5.5-.4a5.67,5.67,0,0,0,2.8-3.1c.3-.8-.9-2.1-1.5-3.1a3.19,3.19,0,0,0-1.6-.9c-7.7-2.5-15.4-4.9-23.1-7.4-1.7-.5-3.3-1.2-4.8-1.7-.2-4,0-7.5-.6-10.8-.8-4.5-5.3-4.6-8.7-5.7a28.15,28.15,0,0,0,.2-4.1c-.7-6.1-2.7-7.8-8.7-8.9s-12.1-2.8-18.2-4.2c-2.1-.5-4.3-1.4-6.3-1.1-4.8.7-9.3-.3-13.9-1a14.15,14.15,0,0,0-2.9.2L825.4,56c-6.4.4-12.6.6-18.8,1-11.2.8-22.4,1.8-33.2,5.4-7.1,2.4-14.5,3.4-22,4.2a208.64,208.64,0,0,0-22.1,3.9c-8.5,1.9-17,4.3-25.4,6.5L664.3,87.2c0,.1,0,.2-.1.2l-.5-.1-3.8,1.1c-.1.2-.2.2-.3.4l-.8.3-.6.6c-.1.1-.4-.1-.6-.1l1.1-.4.5-.5.5-.1c.8-1.6,2.3-1.5,3.8-1.1l.3-.1.3-.1c.3-.8.4-1.7.9-2,15.5-7.4,30.5-15.9,47.9-18.2a26.51,26.51,0,0,0,13-4.9,18.46,18.46,0,0,1,9.6-3.3c6.2-.6,12.4-1.3,18.6-2.3a79.07,79.07,0,0,0,13.6-3.2,172,172,0,0,1,31.8-7.9c7.1-1.1,14.1-2.6,21.2-4.1,1.5-.3,3-1,1.7-3.7-16.2.2-32.4,2.9-49.3,6,.7-1.7,1.5-3.4,2.3-5,1.3-2.1,2.9-4.1,4.3-6.1a6.94,6.94,0,0,0,.5-7.9c-1.4-2.6-3.7-2.9-6.3-2.9-5.6-.1-11.2-.4-16.8-.7-10.3-.4-20.4-1.7-30.8-.6-9.3,1-18.7.3-27.8,3.2-4.1,1.3-8.7,2.6-12.8,2-5.6-.8-8.4,3.6-12.7,4.9-3.3,1-6.6,1.8-9.8,3-6.4,2.4-13.2,4.2-19,7.6C630.9,48.8,617,55.8,603,62.8c-15.8,7.8-30.3,17.4-42.3,30.5-6.3,6.9-13.3,13.3-19.6,20.2-11.2,12.2-22.3,24.5-27.8,40.7a10.61,10.61,0,0,1-1.6,3.4c-3.2,4.2-6.5,8.3-9.8,12.4-5.3,1-6.7,5.2-7.2,9.6a23.59,23.59,0,0,1-3.7,9.5c-.7,1.2-1.2,3-3.7,1.9,0-1.4.1-3,0-4.5-.6-8,.7-15.5,5.7-22.2a29.26,29.26,0,0,0,3.1-5.8c7.4-15.3,16.9-29.1,27.6-42.3a130.76,130.76,0,0,0,8.4-11.2c5.9-9.2,12.3-18.1,20.6-25.4a37,37,0,0,0,3.7-4.2c4.9-5.3,9.5-10.8,14.7-15.7,7.7-7.4,15.6-14.4,23.6-21.4a44.61,44.61,0,0,1,9.2-6.4,42.22,42.22,0,0,0,15.4-13.4,5.56,5.56,0,0,0,.4-2.3c-1-.1-1.8-.4-2.1-.1-3,2.9-6.7,4.4-10.6,5.8a66.69,66.69,0,0,0-24,14.3,25.07,25.07,0,0,1-4.4,3.5c-11.1,6.9-19.7,16.2-27.5,26.5a47.76,47.76,0,0,1-5.4,6.5c-8.9,8-15.9,17.6-22.2,27.7a62.53,62.53,0,0,1-4.4,6.1,280.7,280.7,0,0,0-21.3,29.6,44.52,44.52,0,0,1-3.8,4.8,21,21,0,0,1,1.3-9.3,129.9,129.9,0,0,0,7-28.1,25.71,25.71,0,0,1,1.2-5.5c5.6-13.9,10.8-28,17.2-41.5,3.7-7.9,8.5-15.2,10.8-23.7a9.62,9.62,0,0,1,2-4.2c3.1-3.2,2.7-7.3,2.7-10.5,2.7-3.4,6.8-4.2,9.2-8.8-2.2.6-3.5.7-4.4,1.3-3.5,2.5-6.7,5.8-10.5,7.7-6,3.1-9,8.4-11.5,14.2a34.36,34.36,0,0,1-4.3,8.3c-8.4,11-14.1,23.6-19.8,36a538,538,0,0,0-20.6,53.3,182.57,182.57,0,0,0-7.4,30c-.6,3.7-1.3,7.4-2.1,11-.2,1,.2,2.7-2.3,2.4a31.64,31.64,0,0,1-3.7-11.1,180.73,180.73,0,0,0-17.4-52.1,3,3,0,0,1-.4-.8c-6.5-19.1-16.5-36.4-27.8-52.9a70.08,70.08,0,0,0-7.7-9.4c-8.7-8.6-17.6-16.9-26.3-25.4a54.34,54.34,0,0,1-6.8-7.6,14.88,14.88,0,0,0-7.9-6.1A52.7,52.7,0,0,1,348.8.2a11.15,11.15,0,0,0-2,1.1c6.3,7.4,12.8,14.5,19.5,21.4q16.8,17,33.4,34.2a15.41,15.41,0,0,1,2.3,2.9c7.4,12,15.3,23.6,21,36.5,6,13.7,11.8,27.5,17.7,41.3a38.14,38.14,0,0,1,3,14.9c-2.2-3-3.5-4.7-4.7-6.4-5.6-8.3-11-16.7-16.8-24.8-6.7-9.4-13.6-18.7-20.5-28a68.82,68.82,0,0,0-5.8-7.3c-21.8-22.9-45.6-43.6-69.2-64.5-4.4-3.9-9.3-5.6-16-4.9,1.9,2.4,3.2,4.4,4.9,6.2,15.9,16.8,31.8,33.5,47.8,50.3,3.4,3.6,6.8,7.4,10.1,11.1,11.9,13.3,21.6,28.3,32.2,42.6a309.17,309.17,0,0,1,21.7,33.9c4,7.2,4.1,7.2,3.5,18.3a37.47,37.47,0,0,1-10.8-16.5,24.86,24.86,0,0,0-6.2-10.2c-5.6-5.9-11-12-14.6-19.4-6.2-13-14.6-24.7-23.3-36.2-7.8-11.1-18-20-27.2-29.7-11.3-11.9-24.3-21.5-37.5-31a51.91,51.91,0,0,0-6.5-3.7c-5.5-2.9-11-6-16.6-8.6-5.1-2.4-10.4-4.3-15.6-6.2a7.79,7.79,0,0,0-3.7-.3,4.47,4.47,0,0,0-2.9,1.7c-.3.7.6,2.3,1.5,2.9C273.7,26,280,30,286.3,34c2.3,1.6,4.7,3.1,7.1,4.5A101.71,101.71,0,0,1,313.6,52q11.85,9.9,23.4,20.1c.6.5,2.3,1.4.5,3.1-2-1.4-3.9-2.8-5.9-4.3-4.5-3.3-8.6-7.5-13.6-9.9-11-5.4-21.1-12.2-31.2-19a58.24,58.24,0,0,0-19.4-9,48,48,0,0,1-15.5-6.4c-1.2-.8-3-1.7-4.2-1.4-3,.8-5.5-.3-8.2-.9-11.6-2.4-23.1-4.7-35.2-4.1-9.6.5-19.3.8-28.9-1.1-3.3-.7-6.9-.2-10.3,0-3.6.2-4.8,2-4.1,5.6.3,1.5,3,2.9-.2,4.8-2.4-2.2-1.6-7.8-6.9-7.3-1.6,3.2,3.3,6.2.3,9.4-3.1.5-6.2.7-9.1,1.6-4.1,1.3-7.7,1.3-11.6-.9-4.4-2.5-8.9-2.4-12.9,1.5-2.5,2.5-5.4,4-9.3,3.4a4.75,4.75,0,0,0-3.9,1.7c-1.8,2.6-4.2,2.5-6.7,2-3.9-.7-7.8-1.9-11.7-2.5-5.1-.9-8.4,2.5-7.6,7.7A31.27,31.27,0,0,0,83,51.3a27.65,27.65,0,0,0-4.7,2,25.16,25.16,0,0,1-16.8,4.4c-2.4-.2-5-.2-7.2,2.2-1.6,5-2.1,10.1,2.4,14.4L49.4,85.4c-3.4.4-6.7.1-9.5,1.2-7.1,3-14.1,6.3-20.9,10-2.6,1.4-4.7,4-6.8,6.4-1.9,2.1-1.7,4.4.3,6.7a18.31,18.31,0,0,0,3.1,2.4c-.7,2.6-1.3,5.3-2,8,.4,3.6,4.1,6.5,2.4,11.2-1.3-1.7-2.4-3-3.5-4.3-1.1-1.5-2.2-3-3.4-4.4-2.1-2.2-6-2.7-7.7-1.2-1.9,1.7-1.6,3.9-1,6.1A23.17,23.17,0,0,0,2,131.9c2.6,5.7,5,11.5,7.9,17,2.8,5.3,5.6,10.4,7.2,16.2a67.1,67.1,0,0,0,3.2,7.8q8.85,21.15,17.7,42.4a57.42,57.42,0,0,1,2.6,8c6.3,24.8,12.6,49.6,18.7,74.5a119.29,119.29,0,0,1,2.5,15.7c1.6,15.2,2.1,30.5,5.4,45.5a191.86,191.86,0,0,1,3.7,21.2c2.1,19.9,3.7,39.8,5.9,59.7,1.8,16.5,3.8,32.9,6.2,49.3,1.6,11.1.7,22.4,3.5,33.4a26.1,26.1,0,0,1,.1,5.6c0,2.8.1,5.6.1,8.4,0,3.5.2,6.8,2.4,9.8,1.8,2.5,2.1,5.1.1,8.3-3.4.4-7,.8-10.7,1.2-1.6.2-3,.9-2.8,3.4l6.5,2.4c-.2,1.5-.4,2.9-.6,4.5a40.87,40.87,0,0,0,4.1,1.2c4.9.8,10,.5,14.5,3a6.55,6.55,0,0,0,2.8.3c10.3.5,20.6,1.3,30.9,1.5,17.2.3,34.4.2,51.6.5a82.65,82.65,0,0,1,12.1,1.2c16,2.9,32,5.9,47.9,9,4.9,1,9.7,2.2,14.5,3.6,29.1,8.6,56.5,21.7,84.4,33.4,7.5,3.1,14.8,6.2,23.2,6.2,0,2.2-.1,4,0,5.8.5,8.5,3.3,16.1,10.6,20.9a39,39,0,0,0,16.5,5.9c2.5.3,4.9.9,7.3,1.4,4.3.9,8.5,2.1,12.8,2.7,13.9,1.9,27.8,3.6,41.8,5.4a37,37,0,0,0,4.7.2c13.8,0,27.5.1,41.2-.1a59.55,59.55,0,0,0,10.2-1.4c5.8-1.1,11.3-3.9,17.4-2a3.59,3.59,0,0,0,1.8-.2c6.5-2.2,13-4.2,19.5-6.6,2.7-1,4.4-3.2,6-5.7,2.8-4.5,6.1-8.7,9.2-12.9,1.1-1.5,2.4-2.9,3.4-4.4a3.85,3.85,0,0,0-.9-5A3.48,3.48,0,0,0,564.6,630.1Zm29-474.5v-.7l.8.3Zm11.6-5.6a2.2,2.2,0,0,1-.8-.1c.1-.2.1-.6.2-.6a1.88,1.88,0,0,1,.8.2c0,.1,0,.4-.2.5ZM873.4,91.7c.7.1.9,2,1.7,3.9-3.1.2-5.5.6-7.8.6A91.36,91.36,0,0,0,847.8,98c-25.5,4.7-51.1,8.4-77,9.9-10.3.6-20.5,1.8-30.8,2.7a37.85,37.85,0,0,1-12.1-.4c1.2-.3,2.5-1,3.7-.8a26.59,26.59,0,0,0,12.8-2,30,30,0,0,1,7.2-1.6c7.7-.9,15.5-1.3,23.2-2.4a94,94,0,0,0,12.7-3.1,120.44,120.44,0,0,1,23.8-4.5c9.2-.6,18.6-1.7,27.3-5.8,4.2-1.9,8.9-2.6,13.5-3.7,3.3-.8,6.7-1.4,11.1-2.4,2.8,3.4,5.7,6.7,10.2,7.8ZM559.7,115.1C574,99.3,589.9,85.4,609.4,76c14-6.8,28.2-13.3,41.4-21.7a26.62,26.62,0,0,1,8.7-3.1,122.7,122.7,0,0,0,18.8-5.5,132.64,132.64,0,0,1,15.2-4.5c5.1-1.3,10.3-2.5,15.5-3.5a57.11,57.11,0,0,1,10.1-1.4,38.14,38.14,0,0,0,14.6-2.6,28.53,28.53,0,0,1,6.3-1.4c4.9-.7,9.9-1.1,14.8-1.9,4.7-.8,9.1-.2,14,.6-1.4,5.6-2.7,10.6-4,15.7-1.5.4-2.7,1.1-3.8.9-5.1-.9-9.8.4-14.8,1.2-9.5,1.7-19.1,2.9-28.6,4.4A105.38,105.38,0,0,0,703,56.3c-13.5,4-26.9,8-40.2,12.4-8.3,2.8-16.2,6.4-24.3,9.7-3.8,1.5-7.4,3.3-11.2,4.7A145.08,145.08,0,0,0,597,99.4a125.19,125.19,0,0,1-17.2,9.5,53.79,53.79,0,0,0-14.6,9.9A52.78,52.78,0,0,1,550.7,129c-.7.4-1.7.3-3.6.6C551.8,124.3,555.6,119.6,559.7,115.1Zm92.7-23.6c-.3.4-.5.9-.8,1.3h0c0,.1-.1.1-.1.2h-.2a.37.37,0,0,1-.3.1,1.42,1.42,0,0,1-.6-.2l.9.1c.1,0,.2-.1.3-.1s.2-.3.3-.5a4.05,4.05,0,0,1,.5-.9ZM545.3,148.2a32.69,32.69,0,0,1,3.5-3c6.9-5.6,14.1-10.5,22.7-13.2,0-.1.1-.2.2-.3h.2c.9-2.6,3.1-2.6,5.2-2.9-1.4,1.6-2.7,3.5-5.2,2.9,0,.1-.1.1-.1.2s-.2.1-.3.1a5.67,5.67,0,0,1-1.2,1.8c-8.1,5.6-16.3,11.2-24.4,16.8-.8.5-1.7.8-2.5,1.2C542.7,149.6,544.4,149.1,545.3,148.2Zm-30.6,41.6c.8-1.4,1.8-2.6,3.7-2.1-.2-2.2-1.2-4.6,1.3-6.1,0-.2.1-.3.1-.5s.2-.4.2-.5v-1.2c.2.1.4.3.4.4a3.55,3.55,0,0,1-.4.9c-.2.3,0,.5,0,.8l-.4.2c-.4,2-.8,4-1.3,6,0,1.2-.1,2.3-.1,3.5,1.2-.1,2.8.3,3.3-.3a30.2,30.2,0,0,0,4.9-6.8,38.52,38.52,0,0,1,12.4-13.9c12.9-9.3,26.2-18.2,39.5-26.9a100.62,100.62,0,0,1,15.1-7.4c23.5-10.2,48.2-17,72.6-24.8,12.2-3.9,24.3-8.1,36.6-11.4A290.46,290.46,0,0,1,744,91.9c8-.9,15.8-3.6,23.7-5.3,4.5-1,9.2-2.1,13.8-2.1,15.7-.1,31-3.2,46.5-5.3.5-.1,1-.6,2.1-1.4-1.1-.8-1.9-1.9-2.8-1.9q-8.4,0-16.8.3c-9.7.4-19.3,1-29,1.2-5,.1-10,.2-14.8,1.9-11.6,4.1-23.7,5.3-35.8,7a262.94,262.94,0,0,0-46.4,10.9c-19,6.3-38.1,12-57.1,18.2-8.9,2.9-17.5,6.5-26.3,9.8-1.4.5-2.8.9-4.2,1.3v.1l-1.5.5,1.3-.6.2-.1c.1-2.7,2.6-3.1,4.3-4,7.8-4,15.5-8,23.5-11.6,12-5.4,23.9-10.9,36.2-15.4,10.8-4,22-7,33.1-10.1,12.3-3.4,24.8-6.5,37.2-9.2a181.11,181.11,0,0,1,23-3.9,103.77,103.77,0,0,0,22-4.6,105,105,0,0,1,20-4.4c7.8-.9,15.5-1.9,23.3-2.6,3.4-.3,6.8-.5,9.7,2.1a7.26,7.26,0,0,0,3.4,1.4c8.2,1.6,16.5,3,24.8,4.5,1.5,2.8-1.3,4.5-1.7,6.8-.4,2.1-.4,4.2-.6,6.5a129.81,129.81,0,0,0-22.8,6c-7,2.4-14.7,3.2-22.1,3.6a78.49,78.49,0,0,0-22,4.1c-11.1,3.7-22.6,4.6-34,5.8-4,.4-8,1.2-11.9,1.9-1.8.3-3.7,1-5.5.9-6.4-.4-12.3,1.6-18.2,3.7-19.8,6.9-39.7,13-60,18.3a65.1,65.1,0,0,0-8.8,3c-7.2,3-14.3,6.2-21.5,9.2a13.75,13.75,0,0,1-4.5,1.3c-13.2.5-24.5,6.2-35.5,13-2.1,1.3-4.1,3-6.4,3.8a59.1,59.1,0,0,0-14.5,8.1c-5.8,4.1-11.9,7.8-18,11.4-4.6,2.7-7.5,6.3-10.1,10.8-8.4-.5-12.5,6.1-17.8,10.7a31,31,0,0,0-10.3,18.2c-2.3,1.4-4.2-.2-6.1-.5-1.8-4.1-1.5-7.2,1.1-10.7C509.5,199.9,511.9,194.7,514.7,189.8Zm-14.3,1.4c2.6-2.5,4.3-5.9,7-9.7.7,4.7-1.3,7.7-3.2,10.2a39.89,39.89,0,0,0-8.4,21.1c-.1.7-1,1.3-2.2,2.8C492.8,206,493.6,197.9,500.4,191.2Zm-8.3,27.9.5.8c-.2.5-.4,1.1-.6,1.6-.2-.3-.5-.5-.4-.8a9.83,9.83,0,0,1,.5-1.6ZM469,210.4c2.5-6.9,2.4-14,2.3-21.2v-5.9c1.3,19.6,1.2,21.9-2.2,38.2C468.1,217.7,467.7,213.8,469,210.4Zm-21-7.1a40.89,40.89,0,0,1,5.6,13.7c.5,2.8-1.2,3.9-4.8,3.8-1.2-6.5.9-13.4-4.3-18.7C447,201,447.4,202.3,448,203.3ZM327,150.1c-.1-.3-.3-.6-.4-.9l.8.3A2.09,2.09,0,0,0,327,150.1Zm10.6,5.4.1-.6.7.4Zm102.1,63.7c.2.5.3,1,.5,1.4l-.8.6c-.1-.5-.1-1-.2-1.5C439.2,219.5,439.5,219.3,439.7,219.2Zm-4.5-23c3.4,5.6,3.9,12,2.7,20-1.2-2.2-2.1-3.1-2.2-4.1a37.12,37.12,0,0,0-7.7-19.4,16.34,16.34,0,0,1-4-10.9C428.2,187.1,432.2,191.3,435.2,196.2ZM174.8,26.9c14,4.9,28.2,6.8,42,10.2a38.31,38.31,0,0,0,8.3.8c.6,0,1.5-1.1,1.7-1.9a2.88,2.88,0,0,0-.7-2.5,28.81,28.81,0,0,0-5.9-2.7c-5-1.6-10-2.9-14.9-5,7-.8,13.9-1.8,20.8.7,3.2,1.1,6.7,1.2,10,1.8a59.26,59.26,0,0,1,7.3,1.6c8.8,2.9,17.6,5.8,26.1,9.4a78.4,78.4,0,0,1,10.8,5.5c11.5,7.4,22.4,15.9,35,21.7,2.5,1.2,4.6,3.2,6.8,4.9,5.7,4.3,11.7,8.4,17.1,13,12,10.3,25.6,18.9,34.5,32.6,2.2,3.4,5.3,6.1,8.1,9.1a19.57,19.57,0,0,1,5.8,11.5c-8.3-7.4-15.1-13.3-21.8-19.4a46.72,46.72,0,0,0-13.1-8.9c-8.9-3.9-17-9.1-25.1-14.5a130.81,130.81,0,0,0-14.7-8.1c-26-12.3-53.2-21.5-80.7-29.8-11.8-3.6-23.9-4.2-36-5.9-6.5-.9-13-1.5-19.5-2.3a13.59,13.59,0,0,1-2.8-1.1c0-4.9,1.1-9.8-1.2-14.6C172.3,31.7,174,29.2,174.8,26.9ZM154.9,39.2c3.1.2,6.1.6,9.4.9.6,1.5,1.1,2.8,1.7,4.1-.8.5-1.3,1.1-1.8,1.1a25.31,25.31,0,0,1-11.7-3.8C152.4,39.3,153.8,39.2,154.9,39.2ZM98.4,49.4c2.3,0,4.7-.2,7.1,0,5.5.5,10.6-.3,15.1-3.6,2.5-1.8,5-1.9,7.9-1.4,12.3,2.3,24.5,4.6,36.2,9a63.6,63.6,0,0,0,13.6,3c11.7,1.6,23.5,2.9,35.3,4.5a123.09,123.09,0,0,1,14.6,3.3Q247,69.9,265.7,75.9c4.1,1.3,8.2,2.9,12.2,4.6,8.9,3.7,17.7,7.8,26.7,11.3a130.12,130.12,0,0,1,23,12.3c6.8,4.4,14,8.2,21.1,12a54.45,54.45,0,0,1,11.6,8c6.7,6.1,13.5,12,20.3,18,3,2.7,5.9,5.6,8.8,8.4l-1.3,1.3c-2.5-1.7-5.1-3.4-7.6-5.1-19.7-13.8-40.1-26.6-61.8-36.9C302.1,101.9,285.2,94.5,268,88c-11.9-4.5-24.5-7.1-36.9-10.4-9.3-2.5-18.7-5-28.1-7-7.9-1.7-15.9-2.9-23.9-4.3-6.7-1.2-13.6-1.9-20.1-3.9-12.1-3.6-24.4-4.8-36.9-5.7-7.1-.5-14.2-1.6-21.3-2.6-2.2-.3-3.1-1.8-2.4-4.7ZM32.2,101.7c2.3-1,4.9-1.6,6.6-3.1,3-2.7,6.3-4.2,10.2-3.8,5.9.5,9.7-3.6,14.4-5.7a7,7,0,0,0,3.8-7c-.2-4.3-.4-8.6-.7-13.6,3.1-.1,6.4,0,9.8-.3a18.66,18.66,0,0,0,6.2-1.4c1.6-.7,2-2.3.7-3.9-.7-.8-1.2-1.7-2.1-2.9,3.5-1.2,5.5.7,7.5,1.7,1.1.6,1.5,2.5,2.6,4.6,4.8,0,10.1.2,15.4,0a31.94,31.94,0,0,1,13.7,2.3,44.72,44.72,0,0,0,19.1,3.5c6.7-.3,12.9,2.2,19.1,4.1.5.2.6,1.6,1,2.5h0c2.9-1.3,6-1,9.1-.7,7.7.8,15.5,1.2,23.3,1.8.9-1.8,1.6-3,2.5-4.7a31.07,31.07,0,0,1,4.4.7q31.65,8.25,63.2,16.5a25.49,25.49,0,0,1,5.3,1.8c19.4,8.4,39.2,16,58,25.8,2.8,1.5,5.5,3,8.1,4.7.5.3.5,1.3.7,2.1l.4.1.8-.1h.6l-1.7.1-.1-.2c-22-9.5-45.3-15.1-67.8-22.9-4.4-1.5-8.9-2.9-13.3-4.4a282.48,282.48,0,0,0-65.5-14.7c-6.1-.7-12.2-2.6-18.2-3.9-3.3-.7-6.6-1.3-9.9-2h-.1c-5.9-2.6-11.3-1.6-16.5,2.1-11.3-4.8-23.1-4.9-35-5-2,0-4.4-.7-5.9,1.5-.2,2,1.4,1.9,2.4,2,16.1,2.1,32,5.3,48.4,5.1a32.33,32.33,0,0,1,9.2,1.6,206.07,206.07,0,0,0,33.9,7,265.87,265.87,0,0,1,48.3,10.9c19,6.2,38.1,11.8,57,18.2q22.2,7.5,43.7,16.6c7.1,3,13.5,7.7,20,12,7.6,5,14.8,10.5,22.3,15.5s14.4,10.9,18.6,19.3a29.1,29.1,0,0,0,3.2,4.6c1.8,2.2,3.2,1.7,5.3-1.6a4.35,4.35,0,0,1,.6-.7c4,6.3,8.2,12.5,11.7,19a8.8,8.8,0,0,1-.2,7.1c-.7,1.4-3.6,1.8-5.7,2.7-.4-1-.8-2-1.1-3-2.5-12-11.8-18.7-20.6-25.6-1.8-1.4-4.7-1.3-7.3-1.9a25.07,25.07,0,0,0-10-10.4c-5.9-3.5-11.1-7.9-17.4-10.7-7.5-7.9-18.7-9.5-27.2-16-6.2-4.7-14.2-6.1-21.5-8.9a2.92,2.92,0,0,0-.9-.2c-11.5.7-20.5-6.5-30.8-9.8-4.1-1.4-8.1-3.2-12.3-4.4-20.5-5.4-40.8-11.8-60.8-18.7-5.1-1.7-10.1-3.4-15.5-3a6.08,6.08,0,0,1-1.9-.1c-11.1-3.7-22.9-2.5-34.2-4.9-7.6-1.6-15.1-3.8-22.7-5.5a127.18,127.18,0,0,0-13.8-1.9c-9.9-1.1-19.7-2-29.2-5.8-6.2-2.5-12.9-4.8-21-2.4,1.5,1.1,2.3,2,3.1,2.2,7.4,1.2,14.4,3.6,21.5,6.1a88.84,88.84,0,0,0,23,4.1,84.31,84.31,0,0,1,21.1,3.8,131.17,131.17,0,0,0,36.8,6,11.53,11.53,0,0,1,3.7.2,100.36,100.36,0,0,0,21.7,4.9,27.37,27.37,0,0,1-5,.4c-18.1-1.5-36.1-3-54.1-4.6-14-1.2-28-3-42-3.8-9.3-.5-18.7.3-28.1.5l-33.7.6c-2.5,0-5-.2-7.5-.1-2.3.2-4.6.8-7.2.4a59.86,59.86,0,0,0,6.5-2.4Z" transform="translate(0.06 -0.19)" style="fill:#fff;fill-rule:evenodd"/><path d="M921.9,119.8c-2.3-.4-4.7-.5-7.3-.8-3.8,8.7-7.7,17.2-11.4,25.7a46.77,46.77,0,0,0-1.7,5.3c-.2.6-.3,1.2-.5,1.8a116.05,116.05,0,0,1-9,23.6,69.32,69.32,0,0,0-5,13.1c-2.4,8.4-3.9,17.1-6.8,25.3-7.6,21.5-13.1,43.6-19.1,65.6-3.5,13-6.9,26-9.4,39.1-3.2,16.5-5.5,33.2-8.2,49.9-1.3,7.7-3.1,15.3-3.7,23.1-1.1,13.7-1.4,27.5-2.1,41.2-.8,15.6-1.7,31.2-2.6,46.8-1.1,17.8-2.9,35.5-2.3,53.3.1,2.5.4,5.1-.3,7.4-1,3.5-1.7,6.6.9,9.7.5.5.3,1.8.2,2.7-.5,2.7-1.2,5.4-2,8.5-9.7,0-19.3-.1-29,0-4.3.1-8.7.6-13,1-4.7.4-9.3,1.2-13.9,1.3-6.9.2-13.8.1-20.6-.1a136.67,136.67,0,0,0-32.5,3c-16.8,3.3-33.8,5.8-50.8,8.7a101.81,101.81,0,0,0-14.5,3.4c-15.3,5.2-30.5,10.9-45.8,16.2-3.5,1.2-7.2,2.2-10.8,3.1a27.49,27.49,0,0,0-10.2,4.5,30,30,0,0,1-12.7,5.8c-1.8.4-4,.9-5,2.2-3.5,4.2-6.6,8.7-9.8,13,2.4,3.3,4.9,3.8,7.7,1.9,2.6-1.8,5-3.8,8-6,8.4,1.5,16.8-.6,25.2-3.3a54.93,54.93,0,0,1,16.6-2.2,41.09,41.09,0,0,0,11-1.5c13.8-4,27.4-8.4,41.2-12.4,12-3.5,24-7,36.2-9.6,8.6-1.8,17.1-3.6,25.5-5.9a103.08,103.08,0,0,1,14.7-2.8c10.2-1.2,20.7-1.2,30.7-3.1,14.9-2.8,29.8-3.3,44.8-3.1h.9c12-.3,12.5-4.4,12.3-12.2a25.87,25.87,0,0,1,4.5-15.9,15.15,15.15,0,0,0,2.8-9.7v-2.8c.3-5.9.5-11.7,6.7-15.3,1.5-.8,2.2-3.8,2.4-5.8,1.9-14.8,4.6-29.6,4.5-44.7-.2-26.3,2.8-52.3,6.7-78.3q6-39.9,12.1-79.6c1.9-12,3.4-24.1,6-36,5.5-25,11.9-49.8,17.6-74.7a110.83,110.83,0,0,1,9.1-25.5,51,51,0,0,0,4.6-13.1,93.4,93.4,0,0,1,6.3-20.5,99.09,99.09,0,0,0,4.7-16.1C926.5,121.8,925.1,120.2,921.9,119.8Z" transform="translate(0.06 -0.19)" style="fill:#fff;fill-rule:evenodd"/><path d="M839.2,157.2a69.6,69.6,0,0,1,23.1-3c5.8.1,11-1.6,17.4-5.5-2.4-.7-3.4-1.4-4-1.1-5.7,2.1-11.6,2-17.6,1.5a47,47,0,0,0-16.7,1.5c-4.6,1.4-9.2,1.4-13.9,1.2-10.3-.4-20.6-.6-30.9-.8a58.59,58.59,0,0,0-10.2.9,105.81,105.81,0,0,1-25.1,2.4,40.61,40.61,0,0,0-9.2,1.1c-15.9,3.3-31.7,6.8-47.6,10-19.3,3.9-38.3,8.9-55.6,18.7-9.3,5.3-20,6.7-29.5,11.5-5.6.3-9.8,3.6-14.3,6.4-2.7,1.7-5.2,3.4-8.5,3.4-4.3,0-7.4,3-10.9,4.8-2.2,1.1-1.8,5.4.6,6.2s5.1,1.4,7.2.7c5-1.7,10.1-3.6,14.4-6.5,7.3-5,15.8-7.3,23.8-10.2a194.78,194.78,0,0,0,24-10.3,146.26,146.26,0,0,1,36.8-13.4c19.5-4.5,39-8.6,58.5-12.9a86.89,86.89,0,0,1,17.6-1.8,109.09,109.09,0,0,0,13.9-1.4c5.3-.6,10.5-1.6,15.8-1.8,10.9-.5,21.8-.5,32.8-.8A25.09,25.09,0,0,0,839.2,157.2Z" transform="translate(0.06 -0.19)" style="fill:#fff;fill-rule:evenodd"/><path d="M176.8,163.1c17.7,3.8,35.3,7.7,53.1,11.4,17.2,3.6,33.8,8.7,49.3,17.2,6.6,3.6,13.2,7.1,20.7,8.4,1.8.3,3.4,1.5,5.1,2.3s3.3,2,5.1,2.1c4,.2,7,2.6,10.3,4.1,5.6,2.6,11.1,5.6,16.6,8.2a9.56,9.56,0,0,0,8.1,0c2.8-1.3,3.4-5.6.6-6.8-3.6-1.6-6.6-4.6-11-4.6a9.84,9.84,0,0,1-6-2c-7.1-6-16-8.2-24.5-10.9a153.73,153.73,0,0,1-24.2-9.9,156.05,156.05,0,0,0-36.8-13.4c-19.8-4.5-39.6-8.6-59.4-12.9a87.72,87.72,0,0,0-20.4-2,36.49,36.49,0,0,1-9.3-.7c-10.1-2.6-20.4-2.7-30.7-2.4-6.2.2-12.5.2-18.7.7a47,47,0,0,1-15.8-1.5A40.57,40.57,0,0,0,75,149.2c-6.9.5-13.7.7-22.3-2.8,1.3,2.7,1.5,3.8,2,4a30,30,0,0,0,15.2,3.9,66.76,66.76,0,0,1,22.2,2.8,29.07,29.07,0,0,0,10.2,1c23.5-1.2,46.6,3.6,69.9,4.1A18.73,18.73,0,0,1,176.8,163.1Z" transform="translate(0.06 -0.19)" style="fill:#fff;fill-rule:evenodd"/><path d="M150.3,542.4c15.9.3,31.9.1,47.8.2a59.35,59.35,0,0,1,10.3.6c27,5.1,54,10.2,79.9,19.7,15.2,5.6,30.4,11.3,44,20.4a30.8,30.8,0,0,0,7.5,3.7,13.4,13.4,0,0,0,6.3-.2c.8-.2,1.6-1.7,1.9-2.8a3,3,0,0,0-1.4-2.2c-6.5-3.6-13-7.3-19.7-10.7-26.3-13.4-54.1-22.5-83-28.4-4-.8-8-1.6-11.9-2.6-13.4-3.3-26.9-5.3-40.7-5-24.7.5-49.4-.1-74,1.8-2.7.2-5.5-.4-9.1,2.5a22.38,22.38,0,0,0,3.7,1C124.8,541.2,137.6,542.1,150.3,542.4Z" transform="translate(0.06 -0.19)" style="fill:#fff;fill-rule:evenodd"/><path d="M730.5,535.3a48.84,48.84,0,0,0-9.3.9c-10.4,2-20.8,4.3-31.2,6.2a311.66,311.66,0,0,0-67.9,20.8c-12.9,5.5-25.1,12.5-37.5,19-1.8.9-1.4,3.6.4,4.5a7.9,7.9,0,0,0,8-.2c4.9-2.8,9.6-5.7,14.6-8.2,25.7-13.2,52.9-22.2,81.1-28.1l13.7-3c12.2-2.7,24.4-5,37-4.7,14,.3,28.1.2,42.2-.1,12.5-.3,25-1.1,37.4-1.8a27.44,27.44,0,0,0,3.9-.9c-1.4-1.1-2-2-2.7-2.1a63.16,63.16,0,0,0-7.5-.6C785.5,534.9,758,535.5,730.5,535.3Z" transform="translate(0.06 -0.19)" style="fill:#fff;fill-rule:evenodd"/><path d="M536.3,296.1c.4-.5.8-1.3.6-1.7-.3-.7-1.1-1.9-1.6-1.8A8.06,8.06,0,0,0,532,294c-8.7,5.3-18.5,7.5-28.4,8.5-5.5.5-11,.1-16.5,1.9-3.4,1.1-7.4.9-11.1.9-5.3,0-10.6-.4-15.9-.5-8.4-.3-16.8.3-25.1-2.2-1.7-.5-3.7,0-5.6-.1-2.2-.1-4.5.2-6.5-.4-8.9-2.6-18.4-3.6-27.5-11.4-.2,3-.7,4.5-.2,5a24.77,24.77,0,0,0,6.4,5.2c5.3,2.6,10.8,4.7,16.2,7.1a33.87,33.87,0,0,0,11.8,2.7c24,1,48,1.2,72-.1,11.8-.6,22-6.2,32.1-11.9A10.7,10.7,0,0,0,536.3,296.1Z" transform="translate(0.06 -0.19)" style="fill:#fff;fill-rule:evenodd"/></svg>