<svg id="Layer_1" data-name="Layer 1" xmlns="http://www.w3.org/2000/svg" viewBox="0 0 234.69 223.64"><title>bookviewingicon</title><path d="M439.72,404.81H269.83a31.4,31.4,0,0,1-31.36-31.36V229.7a31.4,31.4,0,0,1,31.36-31.37h20.26a5.23,5.23,0,0,1,0,10.46H269.83a20.93,20.93,0,0,0-20.91,20.91V373.45a20.93,20.93,0,0,0,20.91,20.91H439.72a20.93,20.93,0,0,0,20.91-20.91V229.7a20.93,20.93,0,0,0-20.91-20.91H417.5a5.23,5.23,0,0,1,0-10.46h22.22a31.4,31.4,0,0,1,31.36,31.37V373.45A31.4,31.4,0,0,1,439.72,404.81Z" transform="translate(-237.31 -181.92)"/><path d="M439.72,404.94l-170.11.62a32.25,32.25,0,0,1-31.38-25.47,51.17,51.17,0,0,1-.74-10.78l0-10.63-.09-21.26c-.15-28.35.09-56.7.12-85.05l.05-21.27A35.56,35.56,0,0,1,239,220.34a33,33,0,0,1,4.92-9.7,32,32,0,0,1,17.71-12,36.7,36.7,0,0,1,10.75-1.07l10.63,0,5.31,0a20.61,20.61,0,0,1,2.78.09,5.89,5.89,0,0,1,2.73,1.22,5.93,5.93,0,0,1-1.22,10,6.33,6.33,0,0,1-2.87.55H287l-5.31,0-10.64,0a20.46,20.46,0,0,0-21.53,18.15c-.24,3.42-.08,7.05-.14,10.57-.15,28.35-.06,56.7,0,85.05l.11,42.53V371a34.5,34.5,0,0,0,.23,5.22,19.83,19.83,0,0,0,3.92,9.39,20.38,20.38,0,0,0,8,6.31,22.54,22.54,0,0,0,10.1,1.7l170-.58A19.84,19.84,0,0,0,457.45,382a20.37,20.37,0,0,0,2-9.79V361.57l0-42.52,0-85.06c0-3.61.15-7-.9-10.15a19.79,19.79,0,0,0-5.25-8.36,19.28,19.28,0,0,0-8.63-4.77,20.46,20.46,0,0,0-4.94-.63H418.37a8.22,8.22,0,0,1-3.06-.38,6.51,6.51,0,0,1,.55-12.44,6.87,6.87,0,0,1,1.63-.21h4l5.32,0,10.63,0c1.75,0,3.58.06,5.42.18a35.26,35.26,0,0,1,5.4,1,32.33,32.33,0,0,1,17.67,12.36,33,33,0,0,1,4.79,9.8A35,35,0,0,1,472,231.32l-.1,21.26-.36,85.06-.08,21.26,0,10.63a48.82,48.82,0,0,1-.78,10.64,31.65,31.65,0,0,1-30.92,24.77Zm0-.26a31.23,31.23,0,0,0,30.35-24.63,48,48,0,0,0,.68-10.52l0-10.63-.08-21.26-.36-85.06-.11-21.26a30.86,30.86,0,0,0-5.89-19.39,30.13,30.13,0,0,0-16.61-11.38,31.79,31.79,0,0,0-5-.92c-1.7-.09-3.4-.17-5.2-.13l-10.63.06-5.32,0h-4a4.16,4.16,0,0,0-1,.14,3.94,3.94,0,0,0-1.94,6.4,3.83,3.83,0,0,0,1.63,1.11,5.46,5.46,0,0,0,2.18.23h21.26a23.33,23.33,0,0,1,5.58.72,21.9,21.9,0,0,1,9.76,5.4,21.69,21.69,0,0,1,6.88,15c.11,1.89,0,3.57,0,5.37l0,85.06,0,42.52V372.2a28.4,28.4,0,0,1-.43,5.53,22.27,22.27,0,0,1-19.4,17.7c-28.59.26-56.76,0-85.17-.07l-85-.29a24,24,0,0,1-10.66-1.87,21.6,21.6,0,0,1-8.49-6.77,21.11,21.11,0,0,1-4.13-10,36.52,36.52,0,0,1-.22-5.4l0-5.31.1-42.53c.08-28.35.16-56.7,0-85.05,0-3.57-.15-7,.08-10.68a21.61,21.61,0,0,1,22.58-19.29l10.64,0,5.31,0h2.66a4.79,4.79,0,0,0,2.29-.44,4.51,4.51,0,0,0,.9-7.63,4.3,4.3,0,0,0-2.07-.91,20.66,20.66,0,0,0-2.54-.06H283l-10.63,0A35.19,35.19,0,0,0,262,200.2a30.26,30.26,0,0,0-16.72,11.48,31.35,31.35,0,0,0-4.61,9.19,33.72,33.72,0,0,0-1.28,10.23l.06,21.27c0,28.35.27,56.7.11,85.05l-.08,21.26-.05,10.63a49.61,49.61,0,0,0,.62,10.4A30.55,30.55,0,0,0,269.62,404l85.05.43Z" transform="translate(-237.31 -181.92)"/><path d="M385.16,208.79H324.39a5.23,5.23,0,1,1,0-10.46h60.77a5.23,5.23,0,0,1,0,10.46Z" transform="translate(-237.31 -181.92)"/><path d="M385.16,208.92c-6.43,0-12.87.38-19.3.69s-12.86.42-19.29.26-12.87-.56-19.3-.66l-2.41,0a6.71,6.71,0,0,1-2.52-.39,5.66,5.66,0,0,1-3.42-3.7,5.86,5.86,0,0,1,5.47-7.48c12.86-.5,25.73-.68,38.59-.68,6.43.05,12.87.17,19.3.53l2.41.13a6.89,6.89,0,0,1,2.59.53,5.72,5.72,0,0,1,3.25,3.91,5.64,5.64,0,0,1-1,4.79A5.46,5.46,0,0,1,385.16,208.92Zm0-.26a5.07,5.07,0,0,0,4-2.07,4.78,4.78,0,0,0-2.33-7.34,5.25,5.25,0,0,0-2.15-.19l-2.41.13c-6.43.36-12.87.48-19.3.54-12.86,0-25.73-.19-38.59-.68a4.61,4.61,0,0,0-3.72,1.7,4.54,4.54,0,0,0-.86,4.1,4.81,4.81,0,0,0,2.83,3.2c1.35.57,3,.24,4.63.31,6.43-.09,12.86-.47,19.3-.66s12.86-.1,19.29.27S378.73,208.7,385.16,208.66Z" transform="translate(-237.31 -181.92)"/><path d="M306.42,223.81a5.23,5.23,0,0,1-5.23-5.22V187.88a5.23,5.23,0,1,1,10.46,0v30.71A5.23,5.23,0,0,1,306.42,223.81Z" transform="translate(-237.31 -181.92)"/><path d="M306.42,224a5.8,5.8,0,0,1-5-3,6.25,6.25,0,0,1-.78-3l-.25-3a89.08,89.08,0,0,1-.26-11.78c.18-3.93.56-7.85.66-11.78,0-1,.05-2,0-2.95a6.22,6.22,0,0,1,.5-3.06,6,6,0,0,1,10.78-.25,7,7,0,0,1,.73,3.31l.08,2.95c.09,3.93.2,7.85.16,11.78s-.13,7.86-.53,11.78l-.26,3a6.53,6.53,0,0,1-.78,3A5.81,5.81,0,0,1,306.42,224Zm0-.27a4.73,4.73,0,0,0,4.39-3,5.47,5.47,0,0,0,.24-2.71l-.26-3c-.4-3.92-.48-7.85-.54-11.78s.08-7.85.17-11.78l.08-2.95a4.92,4.92,0,0,0-.3-2.42,4.44,4.44,0,0,0-8.08-.25c-.82,1.58-.44,3.68-.5,5.62.09,3.93.47,7.85.66,11.78A87.41,87.41,0,0,1,302,215l-.24,3a5.51,5.51,0,0,0,.24,2.72A4.73,4.73,0,0,0,306.42,223.68Z" transform="translate(-237.31 -181.92)"/><path d="M400.51,223.81a5.22,5.22,0,0,1-5.22-5.22V187.88a5.23,5.23,0,1,1,10.45,0v30.71A5.23,5.23,0,0,1,400.51,223.81Z" transform="translate(-237.31 -181.92)"/><path d="M400.51,224a5.81,5.81,0,0,1-5-3,6.25,6.25,0,0,1-.78-3l-.24-3a87.41,87.41,0,0,1-.27-11.78c.19-3.93.57-7.85.66-11.78,0-1,.05-2,0-2.95a6.34,6.34,0,0,1,.5-3.06,6,6,0,0,1,10.79-.25,7.15,7.15,0,0,1,.72,3.31l.08,2.95c.09,3.93.2,7.85.16,11.78s-.13,7.86-.53,11.78l-.26,3a6.41,6.41,0,0,1-.78,3A5.81,5.81,0,0,1,400.51,224Zm0-.27a4.73,4.73,0,0,0,4.39-3,5.47,5.47,0,0,0,.24-2.71l-.26-3c-.4-3.92-.48-7.85-.53-11.78s.07-7.85.16-11.78l.08-2.95a4.92,4.92,0,0,0-.3-2.42,4.44,4.44,0,0,0-8.08-.25c-.82,1.58-.44,3.68-.5,5.62.1,3.93.48,7.85.66,11.78a89.08,89.08,0,0,1-.26,11.78l-.25,3a5.51,5.51,0,0,0,.24,2.72A4.74,4.74,0,0,0,400.51,223.68Z" transform="translate(-237.31 -181.92)"/><path d="M461.93,259.75H248.27a5.23,5.23,0,1,1,0-10.45H461.93a5.23,5.23,0,1,1,0,10.45Z" transform="translate(-237.31 -181.92)"/><path d="M461.93,259.88l-28.76.21-28.76.48c-19.17.35-38.34.39-57.52.27s-38.34-.6-57.52-.64c-9.59-.08-19.17,0-28.76,0l-7.19,0-3.59,0a9.35,9.35,0,0,1-3.76-.4,5.87,5.87,0,0,1-3.56-6.49,5.94,5.94,0,0,1,5.76-4.81c38.34-.4,76.69-.76,115-.63,19.17,0,38.35.12,57.52.49l28.76.49,7.19.09,3.6,0a8.93,8.93,0,0,1,3.63.43,5.4,5.4,0,0,1-2.08,10.4Zm0-.26a5.11,5.11,0,0,0,5-4.12,5.06,5.06,0,0,0-3.06-5.6,8.58,8.58,0,0,0-3.45-.35l-3.6,0-7.19.09-28.76.5c-19.17.36-38.35.49-57.52.49-38.35.13-76.7-.24-115-.64a4.57,4.57,0,0,0-4.5,3.63,4.64,4.64,0,0,0,2.73,5.2,8.24,8.24,0,0,0,3.33.39l3.59,0,7.19,0c9.59,0,19.17.1,28.76,0,19.18,0,38.35-.47,57.52-.63s38.35-.08,57.52.26l28.76.48Z" transform="translate(-237.31 -181.92)"/></svg>