<svg xmlns="http://www.w3.org/2000/svg" viewBox="0 0 234.69 223.64"><path d="M202.41,222.89H32.52A31.4,31.4,0,0,1,1.16,191.53V47.78A31.41,31.41,0,0,1,32.52,16.41H52.78a5.23,5.23,0,0,1,0,10.46H32.52A20.93,20.93,0,0,0,11.61,47.78V191.53a20.93,20.93,0,0,0,20.91,20.91H202.41a20.93,20.93,0,0,0,20.91-20.91V47.78a20.93,20.93,0,0,0-20.91-20.91H180.19a5.23,5.23,0,1,1,0-10.46h22.22a31.41,31.41,0,0,1,31.36,31.37V191.53A31.4,31.4,0,0,1,202.41,222.89Z" style="fill:#c6b78b"/><path d="M202.41,223l-170.11.62A32.25,32.25,0,0,1,.92,198.17a51.24,51.24,0,0,1-.74-10.78V176.76L.09,155.5c-.15-28.35.09-56.7.12-85L.26,49.18A35.58,35.58,0,0,1,1.69,38.42a32.88,32.88,0,0,1,4.92-9.7,32,32,0,0,1,17.71-12,36.37,36.37,0,0,1,10.75-1.07H51a21.47,21.47,0,0,1,2.78.09A6,6,0,0,1,56.52,17a5.93,5.93,0,0,1,.9,8.34A5.83,5.83,0,0,1,55.3,27a6.42,6.42,0,0,1-2.87.55H33.74A20.46,20.46,0,0,0,12.21,45.66c-.24,3.42-.08,7.05-.14,10.57-.15,28.35-.06,56.7,0,85.05l.11,42.53v5.27a33.73,33.73,0,0,0,.23,5.22,19.87,19.87,0,0,0,3.92,9.39,20.32,20.32,0,0,0,8,6.31,22.54,22.54,0,0,0,10.1,1.7l170-.58a19.83,19.83,0,0,0,15.71-11,20.32,20.32,0,0,0,2-9.79V52.07c0-3.61.15-7-.9-10.15A19.79,19.79,0,0,0,216,33.56a19.32,19.32,0,0,0-8.63-4.77,20.52,20.52,0,0,0-4.94-.63H181.06a8.16,8.16,0,0,1-3.06-.38,6.51,6.51,0,0,1,.55-12.44,6.87,6.87,0,0,1,1.63-.21h19.95c1.75,0,3.58.06,5.42.18a35.4,35.4,0,0,1,5.4,1,32.35,32.35,0,0,1,17.67,12.36,33,33,0,0,1,4.79,9.8,35.06,35.06,0,0,1,1.28,10.93l-.1,21.26-.36,85.06L234.15,177v10.63a48.69,48.69,0,0,1-.78,10.64A31.66,31.66,0,0,1,202.45,223Zm0-.26a31.22,31.22,0,0,0,30.35-24.63,48.15,48.15,0,0,0,.68-10.52V177l-.08-21.26L233,70.66l-.11-21.26A30.84,30.84,0,0,0,227,30a30.13,30.13,0,0,0-16.61-11.38,31.43,31.43,0,0,0-5-.92c-1.7-.09-3.4-.17-5.2-.13l-10.63.06h-9.32a4.23,4.23,0,0,0-1,.14,3.94,3.94,0,0,0-1.94,6.4,3.8,3.8,0,0,0,1.63,1.11,5.55,5.55,0,0,0,2.18.23h21.26a23.33,23.33,0,0,1,5.58.72,22,22,0,0,1,9.76,5.4,21.71,21.71,0,0,1,6.88,15c.11,1.89,0,3.57,0,5.37V190.28a28.46,28.46,0,0,1-.43,5.53,22.26,22.26,0,0,1-19.4,17.7c-28.59.26-56.76,0-85.17-.07l-85-.29a23.89,23.89,0,0,1-10.66-1.87,21.67,21.67,0,0,1-8.49-6.77,21.07,21.07,0,0,1-4.13-10,36.09,36.09,0,0,1-.22-5.4V183.8l.1-42.53c.08-28.35.16-56.7,0-85.05,0-3.57-.15-7,.08-10.68A21.62,21.62,0,0,1,33.85,26.25H52.46a4.88,4.88,0,0,0,2.29-.44,4.52,4.52,0,0,0,2.2-6,4.62,4.62,0,0,0-1.3-1.64,4.3,4.3,0,0,0-2.07-.91A21.49,21.49,0,0,0,51,17.21h-16a35.17,35.17,0,0,0-10.37,1.07A30.25,30.25,0,0,0,8,29.76,31.35,31.35,0,0,0,3.36,39,33.65,33.65,0,0,0,2.08,49.18l.06,21.27c0,28.35.27,56.7.11,85.05l-.08,21.26,0,10.63a49.63,49.63,0,0,0,.62,10.4,30.56,30.56,0,0,0,29.57,24.29l85.05.43Z" style="fill:#c6b78b"/><path d="M147.85,26.87H87.08a5.23,5.23,0,0,1,0-10.46h60.77a5.23,5.23,0,1,1,0,10.46Z" style="fill:#c6b78b"/><path d="M147.85,27c-6.43,0-12.87.38-19.3.69s-12.86.42-19.29.26-12.87-.56-19.3-.66H87.55A6.75,6.75,0,0,1,85,26.9a5.66,5.66,0,0,1-3.42-3.7,5.85,5.85,0,0,1,4-7.25,5.56,5.56,0,0,1,1.46-.23c12.86-.5,25.73-.68,38.59-.68,6.43.05,12.87.17,19.3.53l2.41.13a7,7,0,0,1,2.59.53,5.74,5.74,0,0,1,2.25,8.7A5.47,5.47,0,0,1,147.85,27Zm0-.26a5.08,5.08,0,0,0,4-2.07,4.79,4.79,0,0,0-1-6.68,4.71,4.71,0,0,0-1.28-.66,5.22,5.22,0,0,0-2.15-.19l-2.41.13c-6.43.36-12.87.48-19.3.54-12.86,0-25.73-.19-38.59-.68a4.61,4.61,0,0,0-3.72,1.7,4.52,4.52,0,0,0-.86,4.1,4.82,4.82,0,0,0,2.83,3.2c1.35.57,3,.24,4.63.31,6.43-.09,12.86-.47,19.3-.66s12.86-.1,19.29.27S141.42,26.78,147.85,26.74Z" style="fill:#c6b78b"/><path d="M69.11,41.89a5.24,5.24,0,0,1-5.23-5.22V6A5.23,5.23,0,1,1,74.34,6h0V36.67A5.24,5.24,0,0,1,69.11,41.89Z" style="fill:#c6b78b"/><path d="M69.11,42.08a5.8,5.8,0,0,1-5-3,6.18,6.18,0,0,1-.78-3l-.25-3a89.08,89.08,0,0,1-.26-11.78c.18-3.93.56-7.85.66-11.78,0-1,.05-2,0-2.95A6.29,6.29,0,0,1,64,3.51a6,6,0,0,1,10.78-.25,7,7,0,0,1,.73,3.31l.08,2.95c.09,3.93.2,7.85.16,11.78s-.13,7.86-.53,11.78l-.26,3a6.53,6.53,0,0,1-.78,3A5.81,5.81,0,0,1,69.11,42.08Zm0-.27a4.73,4.73,0,0,0,4.39-3,5.43,5.43,0,0,0,.24-2.71l-.26-3c-.4-3.92-.48-7.85-.54-11.78s.08-7.85.17-11.78l.08-2.95a5,5,0,0,0-.3-2.42,4.44,4.44,0,0,0-8.08-.25c-.82,1.58-.44,3.68-.5,5.62.09,3.93.47,7.85.66,11.78a87.11,87.11,0,0,1-.28,11.76l-.24,3a5.47,5.47,0,0,0,.24,2.72,4.74,4.74,0,0,0,4.42,3Z" style="fill:#c6b78b"/><path d="M163.2,41.89A5.22,5.22,0,0,1,158,36.67h0V6a5.23,5.23,0,0,1,10.45-.46,3.53,3.53,0,0,1,0,.46V36.67A5.24,5.24,0,0,1,163.2,41.89Z" style="fill:#c6b78b"/><path d="M163.2,42.08a5.83,5.83,0,0,1-5-3,6.18,6.18,0,0,1-.78-3l-.24-3a87.41,87.41,0,0,1-.27-11.78c.19-3.93.57-7.85.66-11.78,0-1,.05-2,0-2.95a6.29,6.29,0,0,1,.5-3.06,6,6,0,0,1,10.79-.25,7.14,7.14,0,0,1,.72,3.31l.08,2.95c.09,3.93.2,7.85.16,11.78s-.13,7.86-.53,11.78l-.26,3a6.41,6.41,0,0,1-.78,3A5.81,5.81,0,0,1,163.2,42.08Zm0-.27a4.73,4.73,0,0,0,4.39-3,5.43,5.43,0,0,0,.24-2.71l-.26-3c-.4-3.92-.48-7.85-.53-11.78s.07-7.85.16-11.78l.08-2.95a5,5,0,0,0-.3-2.42,4.44,4.44,0,0,0-8.08-.25c-.82,1.58-.44,3.68-.5,5.62.1,3.93.48,7.85.66,11.78a89.08,89.08,0,0,1-.26,11.78l-.25,3a5.47,5.47,0,0,0,.24,2.72,4.73,4.73,0,0,0,4.41,2.94Z" style="fill:#c6b78b"/><path d="M224.62,77.83H11a5.23,5.23,0,0,1-.46-10.45H224.62a5.23,5.23,0,0,1,.46,10.45A3.53,3.53,0,0,1,224.62,77.83Z" style="fill:#c6b78b"/><path d="M224.62,78l-28.76.21-28.76.48c-19.17.35-38.34.39-57.52.27s-38.34-.6-57.52-.64c-9.59-.08-19.17,0-28.76,0H12.52a9.38,9.38,0,0,1-3.76-.4A5.88,5.88,0,0,1,5.2,71.39,5.93,5.93,0,0,1,11,66.58c38.34-.4,76.69-.76,115-.63,19.17,0,38.35.12,57.52.49l28.76.49,7.19.09H223a8.94,8.94,0,0,1,3.63.43,5.4,5.4,0,0,1-2.08,10.4Zm0-.26A5,5,0,0,0,226.56,68a8.57,8.57,0,0,0-3.45-.35h-3.6l-7.19.09-28.76.5c-19.17.36-38.35.49-57.52.49-38.35.13-76.7-.24-115-.64a4.57,4.57,0,0,0-4.5,3.63,4.64,4.64,0,0,0,2.73,5.2,8.16,8.16,0,0,0,3.33.39H23.38c9.59,0,19.17.1,28.76,0,19.18,0,38.35-.47,57.52-.63s38.35-.08,57.52.26l28.76.48Z" style="fill:#c6b78b"/></svg>