<?xml version="1.0" encoding="utf-8"?>
<!-- Generator: Adobe Illustrator 24.0.3, SVG Export Plug-In . SVG Version: 6.00 Build 0)  -->
<svg version="1.1" id="Layer_1" xmlns="http://www.w3.org/2000/svg" xmlns:xlink="http://www.w3.org/1999/xlink" x="0px" y="0px"
	 viewBox="0 0 642 831" style="enable-background:new 0 0 642 831;" xml:space="preserve">
<style type="text/css">
	.st0{fill-rule:evenodd;clip-rule:evenodd;fill:#FBF9F4;}
</style>
<title>book1</title>
<path class="st0" d="M634.2,775.9c9.2,6.3,8.1,15.6,7.1,24.5c-0.6,5.6-7.3,11.1-12.9,11.3c-4.2,0.2-8.5-0.6-13.9-1.1
	c-2.2,1.1-5.5,3.4-9.2,4.4c-3.4,0.9-7.1,0.7-10.7,0.7c-23.8,0-47.5,0-71.3,0c-4.3,0-8.6-0.1-12.7,1.7c-2.4,0.8-4.9,1.2-7.4,1.1
	c-5.1,0.1-10,0.4-14.8,2.5c-2.5,1.1-5.6,1.2-8.4,1.2c-26.3,0.1-52.6,0.1-78.9,0c-2.9,0.1-5.8-0.3-8.5-1c-7-2.2-14.2-2.2-21.4-2.2
	c-54-0.2-108.1-0.3-162.1-0.4c-7.9,0-15.8-0.2-23.8-0.3c-4.7-0.1-9.2-0.5-13.6-2.7c-2.6-1.2-5.5-1.8-8.4-1.7
	c-15.8-0.3-31.6-0.4-47.4-0.7c-4.6-0.1-8.6,1-11.8,4.2c-7.2,7.1-16.4,10.8-25.8,12.8c-7.5,1.6-15.7,0.6-23.6,0.1
	c-2.1-0.1-4.5-2.3-6-4.1c-7-8.7-15.1-16.2-23.4-23.6c-5.9-5.3-6-6.2-7.7-18.3c-0.7-0.5-2.2-1.6-3.5-2.8c-3.4-3.1-4.7-7.1-4.6-11.7
	c0.1-6.8-0.2-13.7-0.1-20.5c0.8-34.9,0.5-69.8-1.6-104.8c-1.8-28.7-3.1-57.5-4.6-86.3c-0.2-3.6-0.3-7.2-0.2-10.8
	c0.1-27.7-0.1-55.5,0.4-83.2c0.5-26.7-2-53.2-3.1-79.9c-0.1-3.2-0.3-6.5-0.3-9.7C0.3,269.2,0.6,163.6,0.9,58.1
	c0-9.7,0.5-19.4,1.3-29.1C3,19.8,6.8,16.1,15.9,15.4c5.7-0.5,11.2-1.6,16.7-3.2c6.3-1.8,13.6-1.1,20.4-0.7c4.7,0.3,9.2,1.3,13.5,3.2
	c9.4,4.3,19.2,1.9,28.8,2.1c1.5,0,3.4-1.3,4.6-2.4c5.8-5.7,12.5-9.5,20.9-9.7c14.6-5.5,29.8-4.1,44.9-4.2
	c46.1-0.3,92.2-0.3,138.3-0.5c6.1-0.2,12.2,0.6,18.1,2.1c4.7,1.4,10,1.2,15,1.2c6.1-0.1,12.2,0.7,18.1,2.3c4.2,1,8.5,1.5,12.8,1.4
	C435.8,7.1,503.9,7,572,7c3.2,0,6.5-0.1,9.7,0.1c2.1,0.1,4.8,0.1,6.2,1.4c4.6,4.2,10,3.6,15.3,3.3c12.9-0.7,14.6,3.9,15,14.3
	c0.2,3.2,0,6.5,0.2,9.7c0.1,1.8-0.1,4,0.9,5.2c3.1,3.8,2.7,8.1,2.6,12.3c-0.2,22.3,0,44.7,3.2,66.8c0.7,6.1,1,12.2,0.9,18.4
	c0.1,17.6,0.3,35.3,0,53c-0.2,17.3,1.3,34.5,2.8,51.7c0.6,7.5,1,15.1,1,22.6c-0.1,20.9,0.3,41.7,2.3,62.6c1.1,11.4,1.3,23,1.5,34.5
	c0.2,15.5,0.3,31,0.1,46.5c-0.6,40.4,0.9,80.7,3,120.9c0.2,4.3,0.4,8.6,0.4,13c0.2,32.4,0.4,64.8,0.7,97.2
	c0.1,15.8,0.3,31.7,0.7,47.5c0.1,7.6,0,15.3-4,21.9c-1.6,2.6-2.7,4.8-2.4,7.8c0.2,2.2-0.2,4.4,0.3,6.5c3.3,13.5,1.5,27.2,1.9,40.8
	C634.3,768.3,634.2,771.5,634.2,775.9z M537.2,796.9l34.5-1.6c8.6-7.6,5.8-6.8,17-5.7c4.3,0.4,8.7,0.9,12.9,0.2
	c3.2-0.6,6.1-2.1,8.3-4.4c2-2.1,1.4-5.4-0.2-8.1c-2.2-1.2-4.2-2.8-6.5-3.7c-5.8-2.1-7.1-6.6-7-12c0-4,1.8-7.8,4.9-10.4
	c1.7-1.4,3.5-2.8,5.5-4.4c-3.6-2.5-6.6-4.4-9.4-6.5c-3.3-2.6-5.5-6-4.7-10.3c0.6-3.3,2-6.5,3.1-10.1c-1.6-0.3-3.2-0.6-4.8-0.7
	c-30.3-0.1-60.5-0.1-90.8-0.1c-2.5,0-5.2,0-7.4,1c-5.8,2.8-11.8,2.7-18,2.7c-28.1-0.1-56.2-0.1-84.3-0.2c-3.2,0-6.8-0.5-9.6,0.8
	c-6.9,3.2-14,2.9-21.2,2.9c-8.3,0-16.6-0.2-24.8,0c-4.7,0-9.4,0.4-13.9,1.3c-7,1.5-14.2,2.2-21.4,2c-26.3-0.1-52.6-0.1-78.9-0.1
	c-4.3,0-8.7-0.6-12.7,1.5c-4.3,2.4-9,2.2-13.7,2.2c-18.4-0.1-36.7-0.1-55.1-0.1c-3.2,0-6.8-0.4-9.6,0.8c-9.8,3.8-19.9,2.7-29.9,2.9
	c-5.6,0.1-10.5-1.2-14.7-5.4c-2.2-2.2-5.5-3.3-8.1-5.2c-3.4-2.5-6.5-2.5-9.8,0.1c-2.6,1.8-5.4,3.5-8.2,5.1
	c-12.4,7.1-19.9,17.1-19.1,32.1c0.1,2.5,0.1,5,0,7.6c-0.1,3.6,1.2,7.2,3.7,9.8c3.5,4.1,7,8.2,10.9,12.8c4.9,0,10.3,0,15.7,0
	c2.6,0,5-0.5,6.9-2.5c4.3-4.7,10-5.3,15.9-5.1c5,0.2,10-0.3,14.9-1.5c7.2-1.8,14.9-2.8,22.4-0.5c7.8,2.4,15.3,5.9,23.8,5.8
	c1.4,0.1,2.8,0.5,4.1,1.1c5.4,2.1,11.1,3,16.9,2.8c5.1-0.1,10.8,0,14.5,3.3c4.8,4.2,9.8,3.8,15.1,3.8s11-0.7,16.1,0.5
	c5.3,1.1,10.6,1.5,16,1.4c79.6-0.1,159.2-0.2,238.8-0.3c4.7,0,9.1-0.2,13.6-2.5c3-1.6,6.9-1.7,10.5-1.7c10.8-0.2,21.6,0,32.4,0
	c2.1,0,4.4,0.6,5.9-1.6L537.2,796.9z M36,715.6c8.3,0.2,16,1.5,23.6-1.9c6.8-3,14.5-3,21.2-1.4c5.9,1.5,12.9,2.3,17.5,7.5
	c0.8,0.7,1.8,1.1,2.9,1.2c5.4,0.1,10.8,0.2,16.2-0.2c1.7-0.3,3.3-1.3,4.4-2.8c3.5-4.7,7.8-5,12.3-2.3c3.4,2,6.8,2,10.4,2
	c15.5-0.1,31,0,46.5-0.2c3.5-0.1,7.4-0.2,10.5-1.5c4.9-2.1,9.8-2.2,14.8-2.2c27.7-0.1,55.5-0.1,83.2-0.2c4.3,0.1,8.6-0.2,12.8-1
	c10.6-2.3,21.4-3.3,32.2-2.9c6.8,0.2,13.7,0.1,20.5-0.1c2.5-0.1,5.2,0,7.4-1.1c5.8-2.8,11.8-2.9,17.9-2.9c27.7,0,55.5-0.1,83.2-0.2
	c3.5,0,7.4,0.1,10.6-1.2c5.5-2.2,11.1-2.6,16.9-2.6c33.1,0,66.3,0,99.4-0.1c3.9,0,7.9,0.9,12.3-1.5c0.3-6.1,1-12.5,1-18.9
	c0.2-44.3,0.4-88.6,0.4-132.9c0-7.2-0.6-14.4-0.8-21.6c-1-25.9-2.5-51.8-2.9-77.7c-0.5-32.8-0.1-65.5-0.1-98.3
	c0.1-5.8-0.1-11.5-0.7-17.3c-2.5-21.1-3.5-42.3-3.2-63.6c0.1-10.8-0.8-21.6-1.4-32.4c-0.6-12.2-1.7-24.4-1.9-36.7
	c-0.3-18-0.3-36,0-54c0.2-13.7-1.5-27.3-2.4-41c-0.7-10-0.9-20.1-1.1-30.2c0-2.1,0.2-4.5,1.2-6.2c2.9-4.6,2.7-9.6,2.7-14.6
	c0-7.6,0.1-15.1,0-22.7c-0.2-2.3-0.4-4.5-0.8-6.8c-6-0.1-11.3-0.2-16.6-0.4c-6.8-0.3-13.7-0.6-20.5-1c-4.3-0.3-8.5-1.2-12.8-1.2
	c-26.6,0-53.3,0.3-79.9,0.2c-13.3,0-26.7-0.4-40-1c-10.8-0.4-21.5-1.4-32.3-2.1c-6.8-0.5-13.7-0.9-20.5-1.4
	c-10-0.7-20.1-1.8-30.2-2.2c-14.7-0.6-29.5-0.8-44.2-1c-18-0.2-36-0.2-54,0c-4,0-8.8-1.7-11.3,3.8c-0.4,0.8-2.7,0.9-4.1,0.9
	c-4.3,0.1-8.7,0.2-13,0.1c-12.6-0.2-25.2-0.5-37.8-0.7c-4.7-0.1-9.4,0.1-14-0.2c-1.8-0.1-3.6-1.3-7.7-2.9l10.4-1.2
	c-6.1-0.6-12.3-0.9-18.4-0.8c-2.1,0-4.6-0.6-6.4,0.3c-5.2,2.4-10.6,1.6-16,1.9s-10.8,0-16.2,0.4c-4.3,0.3-8.5,0.8-12.1,3.8
	c-8.2,6.6-18.2,9.8-28,13.5c-4.1,1.5-8.6,1.5-12.7-0.2c-4.6-1.9-9.4-3.5-13.8-5.9c-4.1-2.2-8.4-2.2-12.6-1.6
	c-5.5,0.9-10.9,2.9-16.5,4.4c-0.1,1.5-0.3,2.9-0.3,4.4C21.6,47,22,58.8,22.1,70.7C22.4,170.9,22.7,271,23,371.1
	c0,5,0.4,10.1,0.7,15.1c1,19.4,2.6,38.8,3,58.3c0.6,31.3,0.3,62.7,0.5,94c0.1,8.6,0.6,17.3,1.2,25.9c0.7,9.7,2,19.4,2.4,29.1
	c1.7,37.8,3.1,75.5,4.6,113.3C35.5,709.5,35.7,712.3,36,715.6z M616.1,762.2c-0.1-0.3-0.2-0.6-0.4-0.9c-0.2,0.2-0.5,0.4-0.6,0.7
	s0.2,0.5,0.3,0.8C615.7,762.5,615.9,762.4,616.1,762.2L616.1,762.2z"/>
<path class="st0" d="M90.6,424.5c-2.5,0.5-3.6-0.8-3.9-2.7c-1.3-8.9-3.3-17.7-3.6-26.7c-1.2-34.9-1.8-69.8-2.8-104.7
	c-0.3-10.4-1.2-20.8-1.8-31.3c-2.6-50-1.2-100.1-0.6-150.1c0.2-18.7,0.6-37.4,1-56.2c0-2.5,0.3-5,0.8-7.4c0.4-1,1.2-1.7,2.3-1.9
	c1,0.1,1.9,0.8,2.4,1.7c0.4,2.5,0.6,5,0.6,7.5c0.7,30.9,1.4,61.9,1.9,92.9c0.3,20.1,0.4,40.3,0,60.5c-0.5,32.1,2.2,64,3.1,96.1
	c0.4,13.3,0.2,26.6,0,39.9c-0.2,16.2-0.8,32.4-1.2,48.6c-0.3,7.9,0.3,15.9,1.9,23.6C91.5,417.5,93,421.2,90.6,424.5z"/>
<path class="st0" d="M86.4,444.4c1,2.6,2.1,4.1,2.2,5.7c0.3,3.2,0.4,6.5,0.3,9.7c0,22.3,0,44.6,0,66.9c0,4.3-0.3,8.5,1.9,12.6
	c1.2,2.3,1,5.6,1,8.4c0.5,26.2,0.8,52.5,1.6,78.7c0.3,8.2,2.2,16.3,2.9,24.6c0.3,6.1,0.3,12.2-0.1,18.2c-0.1,1.6-1.3,3.1-1.8,4.2
	c-2.7,0.6-3.3-0.9-3.7-2.2c-0.8-2-1.2-4.1-1.3-6.3c0.2-8.7-1.4-17.2-2.5-25.7c-0.8-6.1-1.1-12.1-1.1-18.2
	c0.1-17.3,0.6-34.5,0.9-51.8c0.1-3.9,0.2-7.6-2.2-11.3c-1.6-2.4-1.5-6.2-1.5-9.3c-0.2-31.3-0.3-62.6-0.3-93.9
	c-0.1-2.2,0.1-4.3,0.5-6.4C83.7,447.2,85,446.3,86.4,444.4z"/>
<path class="st0" d="M88,700.2c-1.5-3.8-1.8-7.9-1-11.8c0.2-0.8,1.5-2,2.1-2c1.2,0.2,3,1,3.3,1.9c1,3.9,1,7.8-1.4,11.3
	C90.6,700.2,89.1,700,88,700.2z"/>
<path class="st0" d="M480.9,26c-2,0.1-4.1,0.3-6.2,0.3c-1.9-0.2-3.9-0.4-5.8-0.8C474.2,23.2,477.6,23.6,480.9,26z"/>
<path class="st0" d="M128,748c2.8-1.5,4.1-2.7,5.6-2.9c3.6-0.4,7.2-0.5,10.8-0.5c9.4,0,18.6-0.6,27.8-3.2c3.7-1.1,7.8-1,11.8-1
	c90.8-0.3,181.5-0.5,272.2-0.7c38.9-0.1,77.8-0.2,116.7-0.2c3.6,0,7.2,0.3,10.7,1c1.2,0.3,2.5,2.4,2.8,3.8c0.2,0.8-1.3,2.7-2.4,3
	c-2.4,0.8-4.9,1.2-7.4,1.2c-7.2,0.2-14.4,0.1-21.6,0.1c-122.1-0.4-244.1-0.7-366.2-1.1c-7.9,0-15.8,0-23.5,2.5
	c-2.1,0.6-4.2,0.9-6.4,0.8c-8.3,0-16.6-0.2-24.8-0.5C132.5,750.2,131,749.2,128,748z"/>
<path class="st0" d="M574.8,771.3c-2.3,0.8-4.5,2.1-6.8,2.4c-3.9,0.4-7.9,0.6-11.9,0.5c-51.1,0.1-102.3,0.2-153.4,0.2
	c-4.7,0-9.3-0.5-13.8-1.6c-7-1.7-14.2-2.5-21.4-2.3c-8.3,0.3-16.5,0-24.6-2.3c-4.1-1.2-8.5-1.1-12.8-1.1c-67-0.4-134-0.8-201-1.1
	c-11.2-0.1-22.3-0.5-33.5-0.8c-2.4-0.1-5.1,0.2-6.9-3.2c2.2-0.7,4.1-1.7,6.1-1.7c9-0.4,18-0.8,27-0.8c68.8-0.4,137.6-0.7,206.4-1.1
	c7.2,0,14.4,0.8,21.4,2.3c5.5,1.2,11.4,1.2,17.2,1.1c8.3-0.2,16.5,0.8,24.6,2.7c4.6,1,9.2,1.4,13.9,1.2
	c50.8,0.2,101.6,0.3,152.4,0.4c3.6-0.1,7.2,0,10.8,0.3c2.3,0.3,4.4,1.7,6.6,2.6C574.8,769.7,574.8,770.5,574.8,771.3z"/>
<path class="st0" d="M537.5,796.7c-17.3-0.1-34.5-0.2-51.8-0.2c-2.2-0.1-4.3,0.4-6.2,1.3c-5,2.7-10.3,2.7-15.8,2.6
	c-7.6-0.1-15.1-0.2-22.7-0.1c-10.1,0.4-20.2-0.4-30-2.3c-1.4-0.4-2.8-0.6-4.3-0.7c-19.8,0-39.2-4.8-59-5c-49-0.4-98-0.4-147-0.5
	c-4.3,0.1-8.6-0.1-13-0.5c-3.4-0.4-5.9-2.4-5.8-6.7c0.9-0.3,1.9-0.4,2.9-0.4c3.9,0.3,7.8,1.2,11.7,1.1c51.9-0.1,103.7-0.2,155.6-0.5
	c6.8-0.1,13.7,0.5,20.4,1.9c5.3,1,10.7,1.4,16.1,1.3c8.3-0.1,16.6,0.2,24.7,1.9s16.4,2.1,24.7,2c7.2-0.1,14.4,0,21.6,0
	c6.4,0,12.8,0.3,19-2.7c2.7-1.3,6.3-1,9.5-1c12.6-0.1,25.2,0,37.8,0c5,0,10.1,0.4,14.8-2.2c0.3-0.2,0.7-0.3,1-0.3
	c10.4-0.8,20.7-1.6,31.1-2.4c0.5,0,1,0.8,2,1.8c-0.9,0.9-1.7,2.2-2.8,2.6c-6,2.4-12.1,4.7-18.8,4.3c-5.8-0.3-11.5,1.4-16.2,4.9
	L537.5,796.7z"/>
<path class="st0" d="M60.6,764c3.2,4.3,5.8,7.7,8.4,11.1c1.3,1.7,0.9,4.1-0.8,5.3c-0.4,0.3-0.9,0.5-1.4,0.7
	c-1.4,0.4-2.8,0.6-4.2,0.5c-1.8-0.2-3.5-1-5.3-1.1c-4-0.2-8.7-0.1-10.3-4.4c-2.1-5.8-2.4-11.9,0.7-17.7c0.6-0.9,1.3-1.8,2.1-2.5
	c5.5-6,11.1-12,16.4-17.7c2.9,0.8,3.8,2.5,3,4.3C66.1,750.1,65.9,758.8,60.6,764z"/>
</svg>
