<?xml version="1.0" encoding="utf-8"?>
<!-- Generator: Adobe Illustrator 24.0.3, SVG Export Plug-In . SVG Version: 6.00 Build 0)  -->
<svg version="1.1" id="Layer_1" xmlns="http://www.w3.org/2000/svg" xmlns:xlink="http://www.w3.org/1999/xlink" x="0px" y="0px"
	 viewBox="0 0 926 668.5" style="enable-background:new 0 0 926 668.5;" xml:space="preserve">
<style type="text/css">
	.st0{fill-rule:evenodd;clip-rule:evenodd;fill:#FBF9F4;}
</style>
<title>book2</title>
<path class="st0" d="M598.9,538c-4.7,3.8-10.6,4.2-16.2,4.9c-4.5,0.6-8.6,1.7-12.8,3.4c-3.8,1.6-8,2.1-12.1,3
	c-3.1,0.6-6.2,0.9-9.3,1.4c-1.3,0.2-2.8,0.2-3.7,1c-4.2,3.2-9.1,3.6-14.1,4.3c-8.3,1.2-16.6,2.5-24.8,3.6c-6.8,1-9.6-0.4-12.8-6.3
	c-0.9-1.6-1.3-3.4-2.1-5.5c-4.2-2.1-8.6-2.6-13.2-0.2c-0.9,0.5-1.9,1.1-2.8,1c-9.1-0.5-18.2-1-27.3-1.6c-5.7-0.4-11.5-0.5-17.1-1.5
	c-5-0.9-9.9-0.8-14.8-0.1c-5.9,0.8-11.9,1.9-17.8,2.9c-7,1.2-13.9,2.5-20.9,3.5c-2.3,0.3-4.7-0.1-7-0.2c-3.9-0.2-7.9-0.9-11.7-0.5
	c-6.3,0.6-12.5-0.6-18.7,0.1c-6.8,0.8-13.5,0-20.3-0.2c-9.7-0.3-19.3-0.1-29-0.3c-8.4-0.1-16.7-0.4-25.1-0.6
	c-11.5-0.3-23-0.7-34.5-0.6c-6.8,0-13.6,1.2-19.8,4.1c-7,3.2-13.9,2.1-20.6-0.3c-4.8-1.7-8.2-5.8-9.8-10.6
	c-2.8-8.9-7.1-16.8-12.9-24c-2.4-3-4.6-6.4-6.3-9.9c-5.6-11-10.9-22-16.3-33.1c-4.3-8.7-8.4-17.4-12.9-26
	c-5.3-10.2-11-20.2-16.2-30.5c-7.9-15.4-17-30.1-27.1-44.1c-13.5-19-26.4-38.4-38.4-58.4c-3-4.9-5.9-9.9-9.2-14.6
	c-5.4-7.8-10.4-15.7-14.3-24.3c-1.2-2.6-2.9-5-4.3-7.4c-1.9-3.2-3.9-6.2-5.6-9.5c-1.6-3-2.8-6.3-6.1-7.1c0-3.6-0.1-6.4,0-9.3
	c0.1-2.5,1.1-4.5,4.1-4.8c2.2-0.2,2.9-2.1,3-4c0.1-2.1-0.2-4.3,1.5-5.9c2.4-2.1,5-3.7,8.3-4.2c4.1-0.5,4.5-0.7,9.3,0.5
	c1.6-7.7,4.8-14.6,9.9-20.6c0.5-0.6,1.1-1.2,1.3-1.9c0.4-1.2,0.5-2.6,1-3.7c0.4-0.8,1.4-1.6,2.2-2c1.1-0.6,2.4-0.9,3.7-1.4
	c0.4-7.5,3.2-13.6,8.8-18.6c-0.1-1.5-0.3-3-0.4-4.7c0.6-0.3,1.2-0.7,1.9-0.8c1.8-0.4,3.6-0.6,5.3-1c0.4-0.1,0.7-0.7,1.4-1.4
	c-0.2-1.2-0.3-2.7-0.7-4.2c-1-3.4,0-6.3,2.3-8.7c7.2-7.3,14.3-14.6,22.9-20.3c1.9-1.3,4.2-2.1,6.4-2.8c16.3-5,32.4-10.2,48.8-14.7
	c8.5-2.3,17.4-3.8,26.2-4.6c12-1.1,24.1-1.9,36-1.4c20.9,0.8,41.8,2.8,62.7,4.2c6.3,0.4,12.5,1.3,18.5,3.1
	c14.3,4.2,28.8,7.9,42.9,12.6c18.1,6,33.1,16.5,43.5,33c4.2,6.6,8.6,13.1,12.8,19.7c1.7,2.7,3.7,4.3,7.5,3.1
	c0.9-1.7,2.2-3.7,2.9-5.9c3.1-9.2,9.2-16.4,15.5-23.3c6.4-6.9,13.3-13.3,19.9-20.1c2.8-2.8,5.8-5.2,9.1-7.3
	c16-10,32.8-18.4,49.8-26.7c2.1-1,4.4-1.7,6.5-2.6c5.5-2.4,11-4.8,16.5-7.1c4.8-2.1,9.5-4.3,14.4-6.1c11-4.1,22.2-7.9,33.2-11.9
	c6.4-2.3,12.8-4.6,19.6-5.5c2.8-0.4,5.6-1.4,8.2-2.5c3.9-1.7,8-2.3,12.2-2.3c6,0.1,12-0.2,18-0.2c2.6,0,5.3,0,7.8,0.6
	c6.6,1.5,13.2,2.2,20,0.8c1.6-0.3,3.7,0.1,5.2,0.8c3.2,1.5,6.4,1.6,9.8,2c5.1,0.5,10.1,2.1,15.1,3.7c1.6,0.5,2.7,2.3,4,3.6
	c1.7,1.7,3.1,3.5,4.9,5c1.1,0.9,2.7,1.3,4.2,1.7c0.5,0.2,1.1-0.1,1.6,0c6,0.9,11.5,2.4,14.9,8.5c1.8,3.2,3.4,7.2,8,8.2
	c1.2-1.1,2.4-2.5,3.9-3.2c1.3-0.6,3.1-0.6,4.6-0.7c1.8-0.1,3.6,0,5,0c0.5,0.5,0.8,0.6,0.9,0.9c3,9.9,9.9,17.7,15.2,26.2
	c2.5,4,4.9,8,7,12.2c5,10.4,10.4,20.5,15.6,30.8c13.9,27.3,28.9,54,46,79.4c0.4,0.7,1,1.3,1.2,2c3.2,8.1,8.8,14.8,12.9,22.3
	c0.2,0.5,0.4,1,0.8,1.3c5,4.5,6.6,11,10.1,16.5c0.8,1.3,1.5,2.9,2.6,3.9c4.5,4.3,6.6,9.8,8.7,15.5c1.1,3.2,2.8,6.2,4.5,9.1
	c2.4,4,4.8,7.9,6.2,12.6c1.1,3.9,3.5,7.6,5.9,11c6.9,9.8,12.4,20.5,19.2,30.4c6.4,9.3,10.5,19.8,16.4,29.3c1,1.6,1.1,4,1.3,6
	c0.2,1.5,0,3.1,0,5.6c-3.5,7.2-10.4,10.4-18.8,11.7c-6.9,1.1-13.9,2.5-20.8,3.8c-1.5,0.3-3.3,0.5-4.4,1.4c-2.6,2-5.6,2.6-8.7,3
	c-2,0.3-3.8,1.6-5.7,2.2c-4.4,1.5-8.4,3.9-12.7,5.7c-10.6,4.4-21.7,7-32.7,10.3c-10.8,3.2-21.6,6.1-32.5,9
	c-21.6,5.7-42.3,13.7-63,21.8c-5.1,2-10.3,3.7-15.3,6c-5.1,2.3-10.3,3.6-15.8,4.1c-13.9,1.2-27.4,4.1-40.2,9.7
	c-6.5,2.8-13,5.4-19.6,8c-3.9,1.5-6.3,4.5-8.4,7.9c-1.7,2.8-2.6,5.8-1.2,8.9c2,4.4-0.5,7.6-3.2,10.5c-0.9,1-2.8,1.4-4.3,1.5
	C602.6,539.1,600.8,538.4,598.9,538z M795.5,258.2c-0.1-0.6-0.1-1.2-0.2-1.7C795.4,257,795.4,257.6,795.5,258.2
	c0.4,1.1,0.9,2.2,1.4,3.3c0.5,0.9,1,1.8,1.5,2.8c2.3,5.8,5.3,11.5,6.7,17.5c0.9,4.3,2.7,7.8,5,11.2c1.7,2.4,3.2,4.8,4.9,7.1
	c3.4,4.7,6.4,9.5,8.5,15c0.9,2.4,2.6,4.5,4.2,6.5c5.2,6.8,9.2,14.5,14.8,21.1c0.7,0.8,0.9,1.9,1.4,2.8c4.9,7.7,9.2,15.7,15.1,22.8
	c2.3,2.8,5.5,5.4,6.5,8.7c1,3.4,4,5.5,4.4,8.9c0.4,3.6,2.2,6.3,4.2,9c0.9,1.3-0.7,3.7,2.1,5c0.5-1.7,0.7-3.5,1.5-4.9
	c0.8-1.5,2.2-2.6,3.4-4c-2-3.4-4-6.5-5.8-9.7c-9.6-17.7-20.9-34.4-33.4-50.2c-2.4-3-4.4-6.4-6.4-9.8c-2.4-4.1-4.2-8.4-6.7-12.4
	c-8-12.9-16.3-25.6-24.4-38.4c-1.3-2-2.5-4-3.9-5.8c-0.3-0.4-1.4-0.1-2.1-0.1c0.9-1.6,0.1-2.4-1.4-2.8
	C797.1,260.2,796.9,259,795.5,258.2z M731.8,139.3c-0.2-0.4-0.5-0.9-0.7-1.3c-0.1,0.3-0.3,0.6-0.4,0.9c0.5,0.1,0.9,0.1,1.4,0.2
	c-0.4,1.4-0.5,2.8,1.2,3.5c0,1.3-0.2,2.7,1.6,3c-0.6,2.6,1.1,4.5,2.4,6.4c2.6,3.9,5.3,7.7,8.1,11.5c0.6,0.9,0.8,2.6,2.7,1.9
	c-0.5-1.3-0.8-2.6-1.5-3.6c-3.4-5.2-7-10.4-10.5-15.5c-0.2-0.3-0.9-0.3-1.3-0.5c0.3-1.4,0.3-2.7-1.6-3
	C732.6,141.6,732.2,140.4,731.8,139.3z M878.3,374.2c0.1,0.3,0.2,0.7,0.4,1c-0.3-0.1-0.7-0.2-1-0.2c0.3-0.2,0.6-0.5,0.9-0.7
	c-1.7-0.7-1.8-2.1-1.7-3.6c-3.5-5.8-7-11.5-10.4-17.3c-3.4-5.7-4.9-12.5-10.2-17.8c0.3,6.2,2.3,11,5.6,15.4
	c3.4,4.6,6.2,9.6,9.3,14.4c1.1,1.7,2.2,3.5,3.5,5.1c0.3,0.4,1.3,0.1,2.1,0.1C877.3,371.8,877.8,373,878.3,374.2z M571.9,496.4
	c-0.9,0.4-2.1,0.7-1,2.2c0.3-0.9,0.5-1.6,0.7-2.4c0.2-0.4,0.5-0.7,0.7-1.1c0,0-0.3-0.2-0.4-0.4C571.9,495.3,571.9,495.9,571.9,496.4
	z M796.8,445.1c-1.9,0.7-3.8,1.4-5.7,2.1c-5.2-0.2-10,1.6-14.8,3.4c-0.6,0.2-0.9,1.5-1.4,2.3c-1.2-0.5-2.4-1.3-4.2,0.3
	c1.9-0.1,3-0.2,4.2-0.3c4.7-1.3,9.4-2.6,14-4.1c0.8-0.2,1.4-1.2,2.1-1.8C794.8,447.6,795.2,447.5,796.8,445.1
	c1.1,0.1,2.2,0.3,3.3,0.5c0-0.3,0-0.7,0-1C799,444.7,797.9,444.9,796.8,445.1z M867.1,417.7c3-0.1,3-0.2,5.1-1.8
	c-3.6-0.8-3.6-0.8-4.9,1.9c-1.1,0-2.2,0-3.8,0C865.2,419.4,866.1,418.5,867.1,417.7z M804.8,240.4c0.2-0.4,0.5-0.8,0.5-1.2
	c0-0.2-0.5-0.5-0.8-0.7c-0.1,0.2-0.3,0.4-0.2,0.6c0.2,0.4,0.4,0.8,0.6,1.2c3.4,6.3,3.4,6.3,6.7,7.9c-1.6-2.8-2.8-5.8-5.5-7.8
	C805.9,240.2,805.3,240.4,804.8,240.4z M245.6,457.5c-0.3-1.5-0.2-3.2-0.9-4.4c-1.9-3.7-4.1-7.2-6.2-10.8c-4.8-9-9.4-18.1-14.3-27
	c-14-25.4-27.1-51.3-42.5-76c-6.5-10.4-12.4-21.2-18.6-31.9c-8.9-15.4-17.6-30.9-26.7-46.2c-7.3-12.1-15.1-23.9-22.7-35.8
	c-1.2-1.9-2.6-3.6-3.9-5.4c1.7,6.5,4.6,12.3,7.8,17.9c5.8,10.2,11.8,20.4,17.3,30.8c6.6,12.5,13.4,24.9,20.8,36.9
	c3.9,6.2,8,12.3,11.1,18.9c5.1,11,11.8,21,18.6,30.8c7.8,11.2,14.7,22.8,20.9,35c2.3,4.7,5.2,9,8,13.5c2.6,4.2,5.2,8.4,6.4,13.4
	c0.5,2.2,2,4.2,3.2,6.2c2.9,4.6,6.6,8.7,8.5,14c0.7,1.8,2.5,3.3,4,4.7c0.4,0.3,1.4,0,2.1,0c-1.2,6.7,2.7,11.1,7,15.2
	c0.2,1.3,0.2,2.6,0.6,3.8c1.6,4.5,4.5,8.5,5.4,13.5c0.2,1.4,2.4,2.8,4.7,0.9c-2.6-6.1-5.6-12-9.4-17.5
	C246.8,457.7,246.1,457.7,245.6,457.5z M722.8,114.7c0.6,2.1-0.4,4.8,2.6,5.8c0.2,1,0.2,2.1,0.7,2.9c6.4,10.2,12.9,20.3,19.2,30.5
	c2.6,4.2,5.1,8.5,7.4,12.9c4,7.6,7.5,15.5,11.8,23c18.6,33.1,35.9,66.8,56.3,98.9c7.2,11.2,15.3,21.9,20.7,34.2
	c1.8,4,3.6,5.3,6.6,7.1c-4.1-8.6-8.4-17.5-12.7-26.4c-0.8-1.6-1.7-3.2-2.7-4.8c-14.5-23.9-27.5-48.7-40.5-73.5
	c-14.1-26.8-27.6-53.9-46-78.2c-2.4-3.2-3.7-6.8-6.2-9.8c-4-4.9-7.8-9.8-11.8-14.7c-0.7-0.9-2-1.3-3.1-1.9c-0.3-0.9-0.7-1.8-1-2.6
	C723.8,116.9,723.3,115.8,722.8,114.7c-0.5-0.1-1.2-0.1-1.4-0.4c-4.8-6.8-9.5-13.6-14.2-20.4c-3,0.1-5.2-3-8.7-1.1
	c0.8,1.4,1.4,2.8,2.4,3.9c4,4.8,7.4,10,10.6,15.4c3.9,6.5,8.8,12.3,13.4,18.3c0.4,0.6,1.8,0.5,2.6,0.7c-0.1,0.6-0.2,1.2-0.3,1.7
	c0.2,0,0.4,0.1,0.6,0.1c-0.2-0.6-0.3-1.1-0.5-1.7c-2.7-4.9-5.4-9.7-8.3-14.9C720.5,115.6,721.7,115.2,722.8,114.7z M528.4,536.1
	c6.4-1.1,12.9-1.9,18.9-4.5c1.2-0.5,2.5-0.6,3.8-0.8c9-1.5,18-3.1,27-4.5c4.9-0.7,9.8-1.7,14.7,0c0.5,0.2,1.3-0.4,1.9-0.6
	c-0.2-2.2-0.7-4.2-0.5-6.2c0.2-1.9,1.3-3.7,2-5.8c-7.6,0.6-7.6,0.6-12,6.1c-5,0.4-9.9,0.7-14.8,1.2c-2.6,0.2-5.1,0-6.9-2.2
	c-2,1.5-3.5,3.2-5.4,3.8c-1.8,0.5-3.9-0.3-6.1-0.5c-4.3,2.7-8.2,7.7-14.3,3.4C533.4,528.8,529.6,531.3,528.4,536.1
	c-1-0.2-2.1-0.4-3.2-0.6c0,0.2-0.1,0.5-0.1,0.7C526.2,536.2,527.3,536.1,528.4,536.1z M713,130.8c0.4-0.3,0.9-0.6,1.1-1
	c0.1-0.2-0.3-0.6-0.5-1c-0.1,0.2-0.1,0.4-0.2,0.6C713.3,129.9,713.2,130.3,713,130.8c1.6,2.7,3.1,5.3,4.7,8
	c13.7,23.7,27.2,47.5,41,71.2c6.4,11,13.2,21.8,19,33.3c3,6,7.5,11.3,11.2,16.9c0.9,1.4,2.1,1.2,3.4,0.7c-0.2,0.4-0.6,0.8-0.6,1.3
	c0,0.2,0.3,0.5,0.5,0.8c0-0.2-0.1-0.5-0.1-0.7c0-0.4,0.2-0.9,0.2-1.3c-1.1-1.4-2.4-2.6-3.3-4.1c-4-7-7.9-14.1-12-21.1
	c-4.5-7.7-8.4-15.6-11.6-23.9c-1.2-3.2-2.4-6.4-4.2-9.3c-7.9-12.9-15.8-25.8-24-38.5c-4.4-6.8-8.9-13.5-12.3-20.8
	c-2.3-5.1-5.8-9.2-9.7-13C714.5,130.4,713.7,130.6,713,130.8z M244.3,505.2c-3.6,0-7.3-0.4-10.6,1.4c-0.4,2.5-0.9,4.8,1,7.1
	c3.3-0.4,6.7-0.9,10-1.3c9.6-1.1,19-3.9,28.8-2c1.5,0.3,3.1-0.3,4.7-0.2c2.9,0,5.7,0.2,8.6,0.3c2.6,0.1,5.2,0.3,7.8,0
	c10.4-1.5,20.8-2.5,31.3-1.9c2.8,0.2,5.7-0.3,8.6-0.7c9.6-1.3,19.2-2.6,28.7-4c15.5-2.3,31-4.5,46.5-6.9c2.6-0.4,5.1-0.7,7.7,0
	c3.6,1,7.2,0.8,10.8-0.3c2.2-0.6,4.8-0.7,6.9,0c3.7,1.2,7.1,1,10.7-0.4c1.4-0.6,3-0.6,6-1.1c-3.3-0.2-5.3,0.1-6.9-0.5
	c-3.9-1.4-7.7-0.8-11.6-0.3c-2.5,0.3-5.4,0.6-7.7-0.2c-2.7-0.9-5-0.7-7.6-0.4c-2.8,0.4-6,1.1-8.5,0.2c-3.2-1.1-6.1-0.9-9.2-0.5
	c-5.7,0.8-11.4,1.8-17.1,2.5c-2.3,0.3-4.8,0.4-6.9-0.4c-2.4-0.9-4.5-0.7-6.9-0.4c-15.8,2.3-31.6,4.6-47.4,6.8
	c-3.4,0.5-6.7,0.7-10.1-0.3c-1.7-0.5-3.6-0.5-5.4-0.2c-8,1.1-16,2.5-24.1,3.4c-5.9,0.7-11.8,2.4-17.8,0.3c-1.4-0.5-3.1-0.1-4.7,0.1
	c-3.1,0.4-6.2,0.8-9.3,1.3c-2.4,0.3-4.7,0.3-6.6-1.5c1.2-0.5,2.4-1,3.6-1.5c3.7,1.1,7.2,0,10.8-0.6c3.1-0.5,6.1-0.7,9.3,0.1
	c2.4,0.7,5.2,0.5,7.7,0.1c8.6-1.2,17-2.7,25.6-3.9c3.3-0.5,6.9-1.3,10.1-0.5c5.1,1.1,9.9,0.5,14.8-0.2c15-2.1,30-4.4,45-6.5
	c1.5-0.2,3.4-0.6,4.6,0.1c3.1,1.7,6.1,1,9.2,0.6c5.7-0.7,11.4-1.7,17.1-2.4c2-0.3,4.5-0.9,6.1-0.1c3.7,1.7,7.2,0.8,10.8,0.5
	c2-0.2,4.3-0.6,6.1,0c2.6,1,5.1,0.9,7.7,0.6c2.9-0.3,5.9-1.1,8.6-0.4c5.6,1.5,10.9,0.3,16.3-0.3c2-0.2,4.3-0.8,6.1-0.2
	c4.2,1.3,8.3,0.7,12.4,0.2c1.8-0.2,4.1-1,5.3-0.2c2.6,1.7,5,1,7.6,0.9c1.8-0.1,3.6,0.3,5.3,0.5c1.8,0.2,3.6,0.5,5.3,0.6
	c1.6,0.1,3.2-0.4,4.6,0c7.8,2.2,15.5,4.8,21.6,10.4c3.7,3.3,7.1,6.9,7.5,12.3c0.1,1.2,0.2,2.4,0.4,4.6c3.9-3.5,8.7,0.6,12.1-3
	c-2.3-4.6-5.1-8.8-6.4-13.4c-1.9-6.4-7.1-9.2-12-11.5c-6.1-2.8-13-3.8-19.6-5.3c-3.8-0.9-7.7-1.1-11.5-1.8c-6.2-1.2-12.3-2-18.6-0.3
	c-1.9,0.5-4.1,0.1-6.1,0.1c2.2-1.1,4.4-1.5,6.6-2c5.2-1,10.2-1.6,15.5,0c3.4,1.1,7.2,1.5,10.8,1.7c6.6,0.3,12.7,3.2,19.1,4.2
	c7,1.2,11.4,6,16.8,9.5c0.4,0.3,0.9,0.4,1.4,0.6c0.1,0.5,0.1,1,0.2,1.5c0.1,0.2,0.4,0.4,0.6,0.6c0-0.3,0-0.5-0.1-0.7
	c-0.2-0.4-0.6-0.8-0.8-1.3c1.6-4-2-6.2-3.4-9.1c-1.1-2.2-3.7-3-6-3.2c-5.1-0.4-9.7-2.1-14.2-4.2c-5.9-2.8-11.9-3.7-18.2-2.6
	c-3.6,0.6-7.2,0.9-10.8-0.4c-1.6-0.6-3.6-0.4-5.4-0.2c-4.7,0.6-9.3,1.5-14,2.1c-4.4,0.5-8.9,1.6-13.2,1c-5.8-0.7-11.4-0.5-17.1,0.5
	c-4.1,0.8-8.3,1.3-12.4,1.8c-5.7,0.7-11.3,1.7-17.2,0.6c-2.5-0.5-5.2,0.1-7.8,0.5c-13.2,2.1-26.4,3.9-39.8,3.7
	c-2.6-0.1-5.3,0-7.8,0.4c-12.4,1.7-24.8,3.8-37.3,5.4c-7.2,0.9-14.4,3.2-21.8,2.2c-6.6-0.9-13,0-19.5,0.7c-1.8,0.2-3.6,0.5-5.4,0.4
	c-0.6,0-1.3-1-2.1-1.8c1.2-0.7,1.9-1.2,2.6-1.4c3.8-0.8,7.7-2.1,11.6-2c4.3,0,7-3.2,10.8-3.8c3.1-0.5,6.2-1.1,9.3-1.6
	c12.7-1.9,25.4-3.5,37.1-9.2c6-2.9,12.4-4,18.9-4.9c9.8-1.3,19.7-2.4,29-6.3c2.1-0.9,4.5-1.2,6.8-1.6c13.2-2,26.4-4.1,39.6-5.8
	c12.4-1.6,24.7-4.8,37.4-3.3c1.3,0.2,2.6-0.1,3.9-0.3c8.4-1,16.7-0.4,25.1,0.3c2.1,0.2,4.2,0.3,6.2,0.4c2.8,0.2,5.7,0.1,8.5,0.6
	c10.7,2,21.4,4.1,32.3,6.3c-1.6-7.5-1.5-7.5-6.3-11c-5.5-3.9-11.9-5.3-18.3-5.9c-7.8-0.7-15.2-2.8-22.9-3.9
	c-2.3-0.3-4.6-0.8-6.9-0.4c-24.1,3.5-48.1,7-72.2,10.5c-2.6,0.4-5.2,0.9-7.5,1.9c-5.8,2.7-12,3.7-18.2,4.4
	c-14.1,1.6-27.8,5.1-41.2,9.6c-6.7,2.2-13.5,3.9-20.6,4.7c-4.9,0.6-10,1.2-14.6,2.8c-5.7,2.1-11.4,4-17.4,4.1
	c-8.6,0.2-17.3,5-26,0.2c-2.5,0.9-5.6-0.3-7.3,3.3c-0.9,1.8-4.7,2.3-5.4,4c-1.2,3.3-4.2,2.5-6,3.7c-0.2,0.5-0.4,0.7-0.4,0.9
	c0.1,4-0.7,7.2-5.5,7.9c-1,0.1-1.7,1.7-2.6,2.6C246.7,504.3,245.5,504.7,244.3,505.2z M649.8,475.5c3.2,0.6,5.4-1.7,7.7-3.1
	c18.3-10.9,37.6-19.5,57.8-26c14.2-4.5,28.6-8.5,42.6-13.4c16.4-5.7,33.1-9.8,50.2-12.1c3.9-0.5,7.7-1.3,11.6-1.7
	c3.7-0.4,7.4-0.6,11.3,2.6c-5,0.8-9.2,1.4-13.3,2c-9.5,1.6-19.1,3.1-28.6,4.8c-1.4,0.3-3.4,1-3.9,2c-1.2,2.6-3.4,3-5.7,3.6
	c-10.6,2.8-21.3,5.4-31.8,8.4c-20.4,5.7-40.7,11.8-60,20.6c-16,7.2-31,16.4-46.2,25.1c-4.1,2.3-8.1,4.9-12,7.4
	c-0.7,0.4-0.8,1.6-1.2,2.4c-0.6,0-1.2,0-1.8,0c0.1,0.2,0.3,0.5,0.4,0.4c0.4-0.2,0.9-0.4,1.3-0.6c16.6-6.4,33.2-12.6,49.7-19.2
	c20.9-8.3,42.2-15.5,62.7-24.9c18.3-8.4,37.2-15.4,57.2-18.9c13.2-2.3,26-5.9,38.8-9.7c4.2-1.3,8.4-2.7,13-2.5
	c2.5,0.1,5.2-0.8,7.7-1.5c2.8-0.7,3.2-1.9,2.3-6.3c-2.8,0.1-5.7,0.9-8.4,0.3c-6-1.4-11.9-0.4-17.8-0.9c-0.9,1.2-1.7,2.2-2.5,3.4
	c-5.7-0.8-11.4-0.5-17,0.9c-2,0.5-4.3,0.6-6.2,0.1c-5-1.3-9.8-0.4-14.7-0.1c-5.6,0.4-10.7,2.2-16,3.6c-18.6,5.2-37.3,10.3-55.9,15.7
	c-13.1,3.8-26,7.9-38.1,14.3c-11.4,6-21.5,13.9-31.9,21.4c-0.5,0.4-0.8,1.2-1.1,1.9c-1.7-0.2-2.8,0.4-3.2,2.3
	C648.3,477.7,649.9,477.6,649.8,475.5z M356.3,518.6c-3.5,1.8-7.1,1.5-10.7,0.5c-2.6-0.7-5.1-0.7-7.7-0.2c-3.6,0.7-7.2,1.1-10.9,1.6
	c-1.3,0.2-2.7,0.4-3.9,0c-5.2-1.9-10.3-0.7-15.5,0c-4.4,0.6-8.8,1.9-13.2,0.7c-2.9-0.8-5.6-0.7-8.5-0.3c-14.2,2-28.5,3.8-42.8,5.7
	c-3.1,0.4-6.2,1-10.2,0.4c1.5-0.6,2.2-1,2.8-1.2c16.5-2.6,33.1-5.2,49.6-7.8c3.4-0.5,6.7-0.6,10.1,0.4c1.4,0.4,3.1,0.3,4.6,0.1
	c3.9-0.5,7.8-1.2,11.7-1.6c2.6-0.3,5.4-1,7.8-0.3c4.2,1.3,8.2,0.8,12.4,0.1c3.9-0.6,8-1.7,11.6-1c5.6,1.2,10.9,0.4,16.3-0.3
	c3.9-0.5,7.9-1.3,11.7-0.9c6.6,0.8,13,0.2,19.5-0.9c6.4-1.2,12.9-2.2,19.4-3c2.6-0.3,5.4-0.7,7.7,0.1c3.5,1,6.7,0.6,10,0.2
	c5.7-0.8,11.2-1.8,17.1-0.6c4.7,0.9,9.8-0.4,14.6,1.4c0.7,0.3,1.6,0,2.3-0.2c3.1-0.4,6.1-1.1,9.2,0.7c1,0.6,2.5,0.2,3.8,0
	c2.1-0.3,4.1-0.4,6.1,0.6c1.3,0.6,3.1,0.8,4.6,0.5c4.2-0.7,8.1,0.5,11.2,2.6c5.8,4.1,12.9,5.5,18.2,10.2c1.4-1.4,2.6-2.6,3.8-3.8
	c2.1,1.8,3.7,3.3,5.7,5c1-1.5,1.8-2.5,2.6-3.7c-2.8-3.5-6.6-5.4-9.7-8.1c-3.6-3.2-7.8-5.3-12.4-6.4c-6.8-1.6-13.5-3.8-20.6-4.3
	c-4.9-0.3-9.7-1.7-14.7-1.1c-0.7,0.1-1.6-0.1-2.3-0.5c-2.2-1.3-4.5-1-6.9-0.8c-1.3,0.1-2.8,0.2-3.9-0.3c-3-1.7-6.1-0.8-9.2-0.5
	c-3.6,0.3-7.5,1.1-10.9,0.1c-4.9-1.5-9.4,0.3-14,0c-4.7-0.3-9.2-1.6-14-0.8c-23.5,3.5-47.1,6.9-70.6,10.3c-4.6,0.7-9.4,1.3-14,1.2
	c-8.7-0.4-17.2,0.5-25.8,1.8c-3.8,0.6-7.9,0.9-11.7,0.4c-7.3-0.8-14.6,1.1-21.8-1c-0.7-0.2-1.5,0.1-2.3,0.2c-7,0.9-14,1.8-21,2.9
	c-3.3,0.5-6.6,1.2-9.5,1.7c-1.7,5.2-3.2,9.9-4.8,14.9c1.8,0.2,3.1,0.5,4.3,0.4c7.8-0.7,15.7-1,23.4-2.2c7-1.1,14-1.5,21.1-1.6
	c8.1-0.1,16.2-0.8,24.3-1.4c0.7,0,1.9-0.2,2.1-0.7c0.8-2.1,2.5-1.7,3.9-1.7c16.3,0.1,32.2-3.5,48.2-5.6
	C355.1,520.6,355.6,519.3,356.3,518.6c3.4,0.3,6.7,0.9,10.1,0.9c9.4,0.1,18.8,0.1,28.2,0c8.1-0.1,16.1,1,24.1,2.4
	c8.2,1.4,16.5,2.4,24.9,1c4.6-0.8,9.4-0.4,14.1-0.6c4.2-0.2,8.4-0.2,12.5-0.7c3.7-0.4,7.2-0.4,10.9,0.3c4.4,0.9,8.8,1.3,13.2,1.7
	c1.7,0.2,3.7,0.7,5.2-1.8c-1.3-0.5-2.5-0.7-3.4-1.4c-3.7-2.7-7.4-4.8-12.3-3.2c-0.9,0.3-2.1-0.1-3-0.5c-2-1-4-0.8-6.1-0.9
	c-5.9-0.2-11.7-1.9-17.7-0.8c-0.5,0.1-1-0.2-1.5-0.5c-1.9-1.2-3.9-1.1-6.1-0.7c-1.5,0.3-3.3,0.6-4.6,0.1c-4.7-1.8-9.3-0.9-13.9-0.1
	c-4.7,0.7-9.2,1.6-14,0c-1.6-0.5-3.6-0.2-5.4,0.1c-9.1,1.2-18.1,2.6-27.2,3.7c-3.1,0.4-6.3,0.5-9.3,0.1c-3.7-0.5-7.3-0.5-10.9,0
	C361.5,518.3,358.9,518.4,356.3,518.6z M78.7,199.6c1.1-0.4,2.3-0.7,3.6-1.2c-1.3-2.7-2.5-5.3-3.8-7.8c-1.3-2.5-2-5.4-4.2-7
	c-3.1,0.8-5.9,1.5-8.7,2.3c-0.4,0.6-1,1.1-1.3,1.8c-1.6,3.9-3,7.6-7.3,9.6c-2,1-1.9,3.7-0.2,5.4c1.8,1.8,4.5,3.2,5.6,5.4
	c2.6,5.3,6.9,9.2,10.2,13.8c10.2,13.9,21.4,27.2,29.9,42.3c2.8,5,5.7,10,8.1,15.2c2.9,6.2,5.9,12.2,9.5,18.1
	c5.7,9.1,11,18.4,16.5,27.6c0.7,1.2,2.1,2.4,1.2,4.1c-1.4,0.2-1.6-1.1-2.2-1.9c-6.3-9.7-12.4-19.4-18.8-29c-3.4-5-6.3-10.2-8.7-15.8
	c-6.3-14.8-15.6-27.8-24.9-40.7c-6.1-8.5-12.8-16.6-19.2-24.9c-1.1-1.4-2-3.1-2.7-4.7c-1.8-4.3-5.2-6.8-9-9
	c-1.7,2.2-3.3,3.9-4.5,5.9c-2.3,3.8-4.5,7.6-6.5,11.6c-0.7,1.3-1.2,3.2-0.8,4.5c1.3,4.4,1.7,9.2,5.3,12.8c3.7,3.7,6.4,8.2,9.1,12.7
	c2.1,3.6,4.5,7.1,7.2,10.2c4.3,5,7.7,10.5,10.7,16.4c7.2,14.3,15,28.1,24.5,41c2.8,3.8,5.1,7.9,7.2,12.1
	c8.8,17.9,18.7,35.1,29.4,51.9c5,8,9.8,16.1,13.7,24.7c3.1,7,7.1,13.4,12,19.2c6,7,10.3,15.1,14.7,23.1c0.6,1.1,1.4,2.3-0.1,4
	c-1.3-1.7-2.7-3.1-3.7-4.8c-5.3-8.4-11.3-16.4-17.4-24.2c-2.6-3.3-4.8-6.9-6.7-10.5c-4.9-9.3-9.5-18.7-15.2-27.5
	c-11.5-17.8-22-36.2-31.3-55.3c-1.6-3.3-3.4-6.5-5.5-9.5c-10.2-14-18.5-29.2-25.9-44.8c-2.2-4.5-4.9-8.6-8-12.5
	c-3.3-4.4-6.4-8.9-9.2-13.6c-3.1-5.2-6.5-10.1-10.7-14.8c-3.3-0.1-6.4-0.8-9.1-3.2c-2.3-2.1-4.8-1.2-7.1,1.2c2,2.4,5.3,3.8,5.3,7.4
	c0.1,4.4,2.7,7.8,5.1,11.3c4.2,6.3,8.6,12.5,12.3,19.2c6.1,11,12.1,22,19.2,32.4c12.5,18.4,25.4,36.5,36,56.2
	c8,14.7,16,29.5,23.9,44.2c4.8,9,9.6,18,13.4,27.5c1.2,2.9,2.8,5.6,4.3,8.4c12.2,23.4,24.6,46.8,36.6,70.4c3.3,6.6,7.3,12.6,10.9,19
	c1.1,2,2.8,3.7,4.2,5.4c5.5-0.7,10.5-1,15-4.6c2.4-2,5.9-3.5,9.3-1.9c3.8-4.1,3.6-9.3,5.1-14c1.9-6.2,0.4-11.8-2.9-17.1
	c-1.9-3-4.4-6-5.3-9.3c-1.4-5.1-4.3-9.3-6.7-13.8c-2-3.6-4.9-6.6-5.6-11c-0.3-1.9-2.2-3.5-3.4-5.1c-4.6-6.6-8.6-13.6-14.2-19.5
	c-0.5-0.6-0.7-1.4-1.1-2.1c-5.3-8.7-9.9-17.8-16-26.1c-4.2-5.7-8-11.7-11.8-17.6c-9.3-14.5-17.4-29.8-28.7-43
	c-0.9-1-1.5-2.1-2.2-3.2c-8.5-13.5-17.2-26.9-25.6-40.5c-5.1-8.2-10.2-16.5-14.8-25c-3.7-6.9-7.8-13.6-11.9-20.3
	c-7.5-12-15.3-23.7-24.7-34.3c-1.6-1.8-2.9-3.8-2.8-6.3c0-0.9,0.7-1.7,1.5-3.4c3.5,7.9,8.9,13.2,13.9,18.8c3.2,3.5,5.8,7.4,8.4,11.3
	c9.3,14.2,17.7,29,26.2,43.7c10.8,18.5,22.6,36.5,34,54.7c0.7,1.1,1.4,2.2,2.3,3.2c5.7,6.5,10.5,13.7,14.6,21.3c0.9,1.6,2,3.1,3,4.6
	c9.4,14.5,18.3,29.3,28.5,43.3c1.2,1.7,2,3.7,3,5.5c2.8,5,4.9,10.7,8.8,14.8c5.8,6.2,9.1,14,14.7,20.2c1,1.1,2.1,2.7,2.2,4.1
	c0.2,3.5,2.8,5.5,4.3,8.2c2.2,4.1,5.3,7.8,6.7,12.1c2,6.3,5.7,11.4,8.8,17c4-0.8,7.8-1.7,11.6-2.3c3.6-0.6,6.2-2.8,8.2-5.4
	c1.7-2.2,2.5-5,3.7-7.6c-1.9-2.5-3.7-4.7-4.9-6.3c0.2-3,0.9-5.6,0.2-7.6c-1.3-3.9-4-7.2-4.9-11.2c-5.6-6-6.4-14.8-12.4-20.5
	c-0.2-0.2-0.3-0.4-0.4-0.7c-1.1-4.5-4.2-7.8-6.6-11.5c-1.3-2-2.9-3.8-3.8-6c-1.1-2.6-1.7-5.4-2.4-8.2c-0.8-3.3-4.1-4.6-5.4-7.4
	c-3.5-7.3-7-14.6-12.1-21c-0.5-0.6-1-1.4-1-2.1c0-3.4-2.2-5.8-3.9-8.4c-4.1-6.4-8.2-12.8-12.5-19c-6.3-9-12.6-18-17.2-28.1
	c-1.2-2.6-2.8-5-4.4-7.5c-6.3-10.3-12.9-20.3-18.8-30.8c-12.5-22.4-24.7-45-37-67.4c-2.1-3.9-4.3-7.8-6.7-11.5
	c-6-9.5-12.1-19-18.2-28.4c-0.2-0.3-0.9-0.2-1.9-0.5c0.1,1.1-0.2,2.1,0.2,2.8c5.2,10,9.3,20.5,16.1,29.6c2.9,3.8,4.8,8.3,5.3,12.9
	c0.3,2.8,1.2,4.9,2.6,7.1c2.3,3.5,5,6.8,6.8,10.6c4.4,9,10,17.1,15.1,25.7c6.9,11.7,14.3,23.1,20.9,35c8.1,14.7,16.4,29.2,25.4,43.4
	c1.5,2.4,3.1,4.9,4.1,7.6c3.4,8.9,8.4,16.8,12.9,25.1c0.9,1.6,1.9,3.2,3.2,4.4c3.8,3.7,6.3,8.3,8.6,13c7.5,15.5,15.2,30.9,25.9,44.5
	c4.8,6.2,7.6,13.5,12,19.9c0.2,0.3-0.2,0.9-0.5,2c-1.3-1.1-2.6-1.8-3.3-2.9c-2.9-4.8-5.4-10-8.5-14.7c-3.7-5.6-8.7-10.4-11-16.9
	c-0.4-1.2-1.5-2.1-2.2-3.3c-2-3.4-4.1-6.7-5.9-10.1c-3-5.8-6-11.6-8.8-17.5c-2.2-4.5-4.6-8.8-8.1-12.4c-1.4-1.5-2.6-3.3-3.6-5.1
	c-4.5-8.3-9.5-16.3-12.8-25.2c-0.8-2.2-2.1-4.2-3.3-6.2c-9.2-14.6-17.7-29.6-26-44.8c-6.4-11.6-13.6-22.9-20.4-34.3
	c-5.2-8.8-11.1-17.1-15.5-26.3c-0.7-1.4-1.6-2.7-2.4-4c-3.8-6.3-7.5-12.6-11.4-18.8c-4.5-7.3-9.1-14.6-13.7-22L78.7,199.6z
	 M477.1,345.6c0.5-1,0.9-2,1.3-3c-4.4-7.3-8.9-14.7-13.1-21.6 M405.8,223.8c1.1,0.3,2.3,0,3.7-0.1c-1.6-4.9-4.3-8.4-7.1-11.9
	c-4.9-6.1-9.7-12.3-12.9-19.7c-0.5-1.2-1.2-2.3-2-3.3c-4.7-6.6-9.6-13.1-14.3-19.7c-9.3-13-22-21.4-36.8-26.8
	c-14.3-5.2-29.2-8.3-43.8-12.3c-4-1.1-8.2-1.7-12.3-2.1c-7-0.7-14.1-1.1-21.1-1.6c-15.4-1-30.8-2.3-46.2-2.9
	c-22.6-0.8-44.9,1.2-66.8,7.4c-12.1,3.4-24.2,6.8-36.4,9.8c-6.2,1.5-11.9,4-16.9,7.9c-4.8,3.7-9.3,7.6-13.9,11.5
	c-0.6,0.5-0.6,1.7-0.9,2.7c7.1,0.3,6.8,0.4,9.4,6.2c6,13.7,13,26.8,22.1,38.8c2,2.7,3.9,5.6,5.7,8.4c1.2,2,2,4.2,3.3,6.1
	c17.1,23.9,32,49.1,46.8,74.4c9.5,16.3,19.1,32.5,28.6,48.7c3.7,6.3,7.5,12.6,11,19c19.5,36.5,38.9,73,58.3,109.5
	c1.1,2,2.3,3.9,3.5,5.9c4.6-0.4,8.7-1.7,12.8,0.2c1,0.5,2.6,0,3.9-0.2c5.9-1,11.9-1.9,17.8-3c3.6-0.7,7.3-1.2,10.6-2.6
	c6.8-3,14-4.1,21.3-5c6.2-0.8,12.3-2.2,18.3-4.2c13.9-4.6,28-8.4,42.7-10.1c6-0.7,11.9-1.7,17.4-4.3c2.3-1.1,5-1.6,7.5-1.9
	c24.1-3.6,48.1-7.1,72.2-10.6c2.3-0.3,4.8-0.8,7-0.4c6.6,1.1,13.2,2.3,19.7,3.9c3.5,0.9,6.8,0.4,9.9-0.7c4.4-1.5,5.6-5.8,2.6-9.4
	c-5.6-6.7-9.9-14-13.7-21.8c-2.5-5.2-5.5-10.1-8.3-15.1c-4.1-7.3-8.2-14.6-12.2-21.9c-3.3-6-6.4-12-9.7-17.9c-1.1-2-2.5-4-4.1-5.7
	 M866.5,396.2c1-7-3.6-12.1-6.2-17.9c-1.9-4.3-5.4-7.6-8-11.4c-4.4-6.4-8.3-13.3-12.4-19.9c-1.2-2-2.4-4-3.7-6
	c-4.8-7.1-9.2-14.5-14.9-21c-0.9-0.9-1.5-2.2-1.9-3.4c-2.1-6-5.9-11-9.5-16.2c-2.2-3.2-4.8-6.3-6.6-9.8
	c-4.6-9.2-10.7-17.4-16.6-25.7c-6.9-9.9-13.8-19.7-18.7-30.8c-0.5-1.2-1.2-2.3-1.9-3.4c-17-26.7-32-54.7-47.8-82.1
	c-3.5-6.1-6.7-12.4-9.6-18.8c-5.6-12.2-12.2-23.7-20.8-34.1c-3-3.6-5.7-7.5-8.6-11.2c-1.1-1.4-2.3-2.7-3.5-4.1c-0.6,0.7-1,1-1.3,1.4
	c-2.7,2.9-3.1,3.2-5.7,1.5c-2.2-1.5-4.5-2.4-7.1-3.1c-7.3-1.9-14.1-5.5-21.9-5.4c-0.5,0-1-0.2-1.5-0.5c-3.4-2-7-1.5-10.7-0.9
	c-3.9,0.7-7.8,1.1-11.7,1.7c-3.6,0.6-7.5,0.5-10.8,1.9c-6.8,2.9-13.9,4.3-21.1,5.6c-2,0.4-4,1.2-6,1.9c-11.1,3.9-22.2,7.9-33.3,11.7
	c-7.7,2.6-15.2,5.7-22.4,9.4c-3.2,1.7-6.7,2.9-10.1,4.3c-2.9,1.2-6,2-8.8,3.4c-11.5,5.7-22.8,11.8-34.3,17.4
	c-14,6.9-26,16.2-36.9,27.5c-6,6.2-12.3,12.1-17.5,19c-2.9,3.9-5.2,7.8-5.6,12.7c-0.1,1.8-0.5,3.7-1.3,5.3c-2.1,4-0.9,7.6,0.8,11.2
	c0.6,1.4,1.7,2.6,2.4,3.7c-0.3,2.5-2.2,4.4-0.8,7c3.2,6.2,6,12.6,9,18.9c3.6,7.5,8.6,14.3,13.1,21.4c5.2,8.2,11.1,15.8,15.7,24.4
	c3.4,6.5,7.4,12.6,11.2,18.9c2.3,3.8,4.9,7.4,7.1,11.3c16.7,29.3,33.4,58.7,49.9,88.1c4.3,7.6,9.2,14.6,15.3,20.7
	c1.8,1.8,3.5,3.9,5,6c4,5.8,7.4,12.1,11.8,17.6c4.4,5.6,6.2,12.6,11.2,17.8c3,3.1,4.6,7.5,6.6,11.5c0.7,1.3,0.7,3,0.8,4.5
	c0.2,2.3,0.1,4.7,0.5,7c0.4,2.2,0.4,4.5,2,7.2c5.1-6,11.1-10.2,15-16.5c6.7-11,17.6-17.7,26.9-26c0.5-0.5,1.4-0.8,2.2-0.9
	c2.3-0.2,3.7-1.7,5.3-3c2.2-1.8,4.7-3.2,7.3-4.5c3.7-1.9,7.8-3,11.2-5.3c3-2,5.5-4.6,9.1-5.9c3.6-1.3,7-3.2,10.6-4.7
	c4.1-1.6,8.1-3.7,12.7-4c1-0.1,2.2-0.4,3-0.9c6.3-4.5,14.1-6.4,20.3-11.1c2-1.5,4.8-2.1,7.1-3.1c5.2-2.3,10.2-5,16.1-5.3
	c0.4,0,0.8-0.6,1.3-0.8c5.2-2.8,11.4-3.6,18-2.3c-6,2.3-13,1.4-18.2,6.3c-0.9,0.9-3,0.5-4.5,1c-2,0.6-4.2,1-5.8,2.1
	c-1.8,1.3-3.6,1.8-5.6,2.4c-2.7,0.8-5.3,2.2-7.9,3.5c-0.5,0.2-0.7,1.2-1.4,2.4c1.6-0.3,2.6-0.4,3.5-0.7c11.5-3.6,22.9-7.3,34.4-10.9
	c3.7-1.1,7.6-2,11.4-2.7c7.4-1.3,14.8-2.3,23.2-3.5c-2.6-1.7-4.4-2.1-6.6-1.8c-2.9,0.4-5.7,0.7-8.6,0.9c-1.8,0.1-3.8,0.5-6.4-1.1
	c8.2-2.1,15.4-4.6,23.1-2.7c1.7,0.4,3.6,0.2,5.4-0.1c8-1.1,16-2.4,24.1-3.6c9.3-1.4,18.6-1.1,27.9,1c3.8,0.9,7.8,1.6,11.6,1.4
	c5.1-0.3,9.9,0.9,14.6,2.2C855.1,395.7,860.6,396.9,866.5,396.2z M868.6,408c-1-2.4-1.4-3.7-3.3-4c-5.6-0.9-11.2-1.9-16.8-2.6
	c-7.5-0.8-15-2-22.6-0.3c-3.8,0.9-7.7,1.4-11.5-0.5c-1.5-0.7-3.6-0.3-5.4,0c-2.9,0.5-5.7,0.4-8.5-0.5c-3.4-1.1-6.8-0.9-9.9,0.8
	c-1.9,1.1-3.9,1.2-5.9,1.5c-14.8,2-29.5,4.1-44.3,6.2c-2.6,0.4-5.1,1.2-7.6,2c-12.2,3.8-24.4,7.7-36.6,11.6c-3,1-5.9,2.1-8.7,3.4
	c-8.3,3.8-16.6,7.7-24.8,11.7c-3.1,1.5-6.1,3-9,4.8c-13.6,8.8-27.2,17.7-40.8,26.5c-4.6,3-8.6,6.7-12.7,10.4
	c-7.6,6.8-13.6,15.2-22,21.2c-1.1,0.8-1.3,2.6-1.9,3.7c4.9,5.1,4.9,5.1,9.9,3.8c1.5-6.2,1.8-6.6,6.3-11.3c1.1-1.1,2.2-2.3,3.4-3.3
	c8.3-6.8,16.4-13.9,24.8-20.4c19.6-15.2,41.9-25.5,64.9-34.5c15.8-6.2,31.8-11.9,48-17.1c19.9-6.3,40.1-11.8,60.8-14.8
	c2.8-0.4,5.7-0.9,8.5-1c11-0.1,21.9,0.2,32.9-0.3c5.6-0.2,11,0.2,16.2,1.9c3.3,1.1,6.6,1.3,10.1,1C863.8,407.8,865.6,408,868.6,408z
	 M558.1,504.4c-0.3-1.3-0.4-1.8-0.6-2.3c-2.9-7.5-6.6-14.7-8.5-22.7c-1-4.1-3.6-8.2-8.8-8.9c-1.3-0.2-2.5-0.7-3.8-1
	c-6.1-1.5-12.1-3.1-18.2-4.5c-4.1-0.9-8.1-2-12.4-1.6c-2.5,0.3-5.2-0.3-7.8-0.6c-7.8-1-15.6-1.4-23.4-0.3c-2.8,0.4-5.7-0.1-8.6-0.2
	c-3.1-0.1-6.3-0.6-9.3-0.2c-18.4,2.4-36.8,5.1-55.2,7.7c-4.1,0.6-8.5,0.9-12.3,2.4c-9.6,3.9-19.7,5.3-29.8,6.3
	c-12.1,1.1-22.5,6.7-33.6,10.7c5.5-0.3,10.9-1.1,16.3-1.8c7.5-0.9,14.9-2.7,22.6-2.4c10.2,0.4,20.3-0.8,30.4-2.5
	c5.7-0.9,11.4-1.4,17.2-0.8c4.1,0.4,8.4,0,12.5-0.5c7-0.8,14-1.9,21-2.7c2.3-0.3,4.7-0.3,7,0c4.5,0.6,8.9,0.4,13.3-0.4
	c5.2-0.8,10.3-1.8,15.5-2.3c3.1-0.3,6.3-0.3,9.3,0.3c2.4,0.5,4.6,0.4,6.9,0c7.6-1.1,15.1-1.1,22.1,2.9c2.5,1.4,5.4,2,8.2,2.7
	c1.4,0.3,2.9-0.1,5.2-0.3c-2.9-4.5-5.9-7.4-10.7-8c-1.3-0.1-2.7,0.1-3.8-0.4c-4.9-1.8-9.6-4.1-15.1-2.6c-0.2,0.1-0.6,0.1-0.8-0.1
	c-3.7-2.2-7.6-0.7-11.5-1.1c-6.7-0.6-13.4-0.7-20.2-0.1c-1.5,0.1-3.1-0.5-4.6-0.7c-1.8-0.2-3.7-0.4-5.4-0.1
	c-7.8,1-15.5,2.3-23.3,3.4c-14.8,2-29.6,3.8-44.3,5.7c-0.9,0.1-1.9,0-4.4,0c2.1-1.1,2.7-1.6,3.3-1.7c20.4-3.1,40.8-6.3,61.3-9.3
	c5.4-0.8,10.8-1.6,16.4-0.5c2.7,0.5,5.7,0,8.6-0.2c7-0.5,14,1.3,21,0.2c0.5-0.1,1.1,0.2,1.5,0.4c1.9,1.2,4,1.2,6,0.6
	c2.2-0.6,4,0.1,6.1,0.8c2.9,1.1,5.9,2.3,8.9,2.4c2.9,0.1,5,1.1,7.1,2.7c2.7,2.1,5.5,3.9,7.1,7.1c0.9,1.8,2.5,3.3,4,4.7
	c6.1,5.8,10,12.6,11,21c0.2,1.7,0.9,3.4,1.4,5.5C556.1,509.9,556.6,506.8,558.1,504.4z M664.9,456.2c-0.1-0.3-0.3-0.6-0.4-0.8
	c-1.1,0.3-2.4,0.4-3.4,0.9c-8.5,4.5-17.2,8.8-25.4,13.8c-13.8,8.4-26.4,18.7-39.2,28.6c-1.8,1.4-3.6,3.1-5.2,4.8
	c-0.6,0.7-0.7,1.8-1.1,2.9c4.8,2,8.3,0.2,11.6-2.6c17.9-15.3,37.3-28.5,56.3-42.4C660.4,459.6,662.6,457.9,664.9,456.2z M586,483.8
	c4.6-3,7.3-5.8,10-8.6c4.1-4.4,8.7-8.2,13.8-11.6c12.4-8.3,24.7-16.6,37-25c5.2-3.5,10.6-6.7,16.4-9.1c2-0.8,3.9-2,5.9-3.1
	c-1.8-0.6-3.3-0.3-4.7,0.2c-5.2,1.8-9.9,4.4-14.9,6.6c-3.4,1.5-6.7,2.7-9.3,5.4c-1.2,1.2-3.1,1.7-4.7,2.4
	c-5.3,2.6-11.2,4.1-15.6,8.6c-1,1.1-2.6,1.6-4,2.3c-1.3,0.7-2.9,1.2-4,2.1c-5.1,4-10,8.4-15.2,12.2c-4.6,3.4-7.3,8.1-10.6,12.5
	C585.5,479.6,586,481.1,586,483.8z M455.8,495.1c1.4,0.7,2.5,1.8,3.6,1.8c3.9-0.3,7.8-1,11.4,1c5.5-1.3,10.8,0.8,16.3,1.1
	c7.5,0.5,14.9,2.3,22.1,4.4c4.1,1.2,7.7,3,11.1,5.6c1.9,1.5,3.8,3.3,6.7,4.2c-2.5-5.8-2.4-5.9-5.3-7.9c-4.7-3.2-9.6-6-15.1-7.8
	c-2.7-0.9-5.3-1.9-8.3-1.5c-1.2,0.2-2.8,0.3-3.8-0.3c-3-1.7-6-1-9.1-0.7c-1.5,0.2-3.4,0.3-4.4-0.5c-2-1.4-3.9-1-6-0.6
	c-3.9,0.6-7.7,1-11.6-0.4C460.9,492.5,458.2,492.6,455.8,495.1z M262,545.3c1.7,1.9,3.7,2.1,5.8,2c5.7-0.4,11.4-0.6,17.1-1
	c4.9-0.3,9.8-0.7,14.7-1.2c7-0.7,13.9-2.5,20.9-0.8c1,0.2,2.1,0.2,3.1,0c1-0.1,2-0.5,1.8-2.3C304.2,540.4,283.1,541.6,262,545.3z
	 M811.1,394.9c-4.9-3.2-6.8-3.2-9.8-0.1C804.5,396.4,807.7,395.4,811.1,394.9z M791,412.1c0-0.3-0.1-0.5-0.1-0.8
	c-1.7,0-3.5-0.1-5.3,0c-1.5,0.1-3.1,0.3-4.5,0.8c-1.1,0.4-2.4,1.1-1.4,3.1c1.8-0.5,3.7-1.2,5.5-1.7C787.1,413,789.1,412.6,791,412.1
	z M884.6,409.9c2.3-0.5,3.7-0.8,5.5-1.2c-0.8-3-1.1-5.6-4.6-6.8C885.3,404.6,885,406.8,884.6,409.9z M308.5,492.4
	c-5.1-0.7-5.1-0.7-8.7,0.4C302.7,492.7,304.7,492.6,308.5,492.4z M878.8,409.2c-2-2-3.3-3.2-5.3-2.5c-0.3,0.1-0.6,0.8-0.6,1.2
	C873.1,409.7,873.9,409.9,878.8,409.2z M317.3,490.9c0-0.2,0-0.4,0-0.7c-0.7-0.1-1.4-0.2-2.2-0.2c-0.5,0-1.1,0.2-1.6,0.4
	c0.1,0.2,0.1,0.3,0.2,0.5C314.9,490.9,316.1,490.9,317.3,490.9z M796.7,410.2c0,0.2,0,0.3,0,0.5c1.1,0,2.2,0,3.3,0
	c0-0.2,0-0.3,0-0.5C798.9,410.2,797.8,410.2,796.7,410.2z M792.6,395.1c0.3-0.2,0.7-0.3,1-0.5c-0.4-0.1-0.9-0.2-1.3-0.3
	c-0.2,0-0.5,0.1-0.7,0.2C791.9,394.7,792.2,394.9,792.6,395.1z M818.8,393.5c-0.7,0.4-1.2,0.8-1.8,1.1c0.5,0.5,1,1.2,1.5,1.3
	c0.5,0.1,1.1-0.5,1.6-0.8C819.8,394.5,819.3,394.1,818.8,393.5z M682.6,80.6c-0.3,0.6-0.8,1.2-0.6,1.4c0.4,0.6,1,1,1.6,1.5
	c0.2-0.6,0.7-1.2,0.6-1.7C683.9,81.4,683.2,81.1,682.6,80.6z M734.7,122.3c-0.7-0.8-1-1.3-1.5-1.7c-0.1-0.1-0.6,0.3-0.9,0.4
	c0.3,0.4,0.5,0.8,0.8,1C733.4,122.3,733.8,122.2,734.7,122.3z M750.7,423l-0.4-0.3l-0.1,0.4L750.7,423z M519.7,534.8
	c0.2-0.1,0.4-0.2,0.6-0.2c-0.3,0-0.7-0.1-1.1-0.1C519.3,534.5,519.5,534.7,519.7,534.8z M817.1,258.5c-0.1,0.2-0.2,0.4-0.1,0.6
	c0,0.1,0.3,0.1,0.4,0.2c0.1-0.2,0.2-0.4,0.1-0.6C817.5,258.7,817.2,258.6,817.1,258.5z"/>
</svg>
