<svg id="Layer_1" data-name="Layer 1" xmlns="http://www.w3.org/2000/svg" viewBox="0 0 926 668.45"><title>book2</title><path d="M641.64,835.85c-3.72,2.83-7.32,5.83-11,8.73-.91.72-1.78,2-3.36.4,2-3,4-6.09,6.19-9.05,2-2.74,2.72-5.71,1.32-8.78a12.26,12.26,0,0,0-3.46-4.37c-4-3.16-5.63-7.26-5.75-12.19-.07-2.81-.42-5.6-.44-8.41,0-9.37-.08-18.75,0-28.12.42-43.44-1-86.85.48-130.3,1.54-45.63,4.57-91.11,9.41-136.48a102.84,102.84,0,0,0,.54-11.23c-.05-12.5-.13-25-.43-37.5a82,82,0,0,0-1.49-12.05c-.14-.83-1.4-1.47-2.5-2.54-2.29,5.43-2.55,10.38-2.59,15.38-.07,10.94-.09,21.88-.37,32.81a136.35,136.35,0,0,1-1.28,14c-2.15,17-4.81,34-6.5,51.12-2,20.2-3.47,40.47-4.69,60.73-1.15,19.33-2.16,38.7-2.39,58.07-.46,38.43-.34,76.87-.45,115.31,0,6.56,0,13.11,0,19.73-2.33,1.11-5.17,1.62-6.58,3.32-4,4.87-9.28,5.79-15,6.29-5,.43-9.79,1.47-13.5,5.48-2.21,2.38-5.36,3-8.62,2.92-7.19-.09-14.38,0-21.57-.1a15.18,15.18,0,0,1-5.53-.74c-6.56-2.78-13.43-2.66-20.3-2.43-11,.37-21.77-.83-32.17-4.63-.91-.33-2.14.22-4.68.56,2.74,2.14,4.24,3.71,6.06,4.64,2.2,1.12,4.8,1.45,7,2.58,1.83.95,3.3,2.6,5,3.81a3.29,3.29,0,0,0,1.85.16,80,80,0,0,0,9.31-.56c9.05-1.53,18-2,26.77,1.36a9.2,9.2,0,0,0,3.65.74c12-.78,24.38,2.65,36-2.87a4,4,0,0,1,1.82-.38c5.76.37,10.27-2.77,14.54-5.75a32.23,32.23,0,0,1,13.54-5.57c.82,1.12,1.61,2.23,2.41,3.34l4.82-3.32c.89,2,1.24,3.6,2.19,4.69,1.19,1.37,3,2.2,4.35,3.42,2.62,2.31,3,4.87.61,7.31-2.8,2.87-5.75,5.88-9.2,7.78a86.15,86.15,0,0,1-28.81,10.1c-1.81.26-3.5,1.26-5.3,1.72-7.54,1.91-15,4.43-22.68,5.46-17,2.26-33.42-3.12-50.2-4a2.93,2.93,0,0,1-.91-.21c-8.09-3.1-16.87-3.93-24.85-7.34-6-2.56-12.47-4.81-17.38-8.86-7.45-6.15-9.79-8.35.78-15.73-1-3.67.93-6.74,3.68-9.53a10.38,10.38,0,0,0,2.75-7.74c0-2.5,0-5,0-7.5q-.14-53.44-.3-106.88c-.05-10.63-.11-21.25-.55-31.87-.79-19-2-38.07-2.8-57.11-1.09-25-3.92-49.82-7.1-74.61-2-15.78-5.4-31.41-4.9-47.47.24-7.49.13-15-.1-22.5-.12-4-.79-8.05-1.31-12.07-.16-1.23-.62-2.42-3-2.22a36,36,0,0,0-2.23,13.08c-.12,13.13-.29,26.25-.37,39.37,0,2.81.12,5.63.37,8.43,1.88,20.85,3.83,41.68,5.72,62.52,3.4,37.39,4.23,74.9,4.65,112.37.52,46.47-.35,93-.61,138.85-4.33,4.26-8,8.11-13.6,8.83a16.09,16.09,0,0,1-2.29-1.83c-5.75-6.66-11.64-13.11-20.83-15-6.88-5.88-15.39-8-23.83-10.28-2.4-.65-4.66-1.79-7-2.62-15-5.25-29.92-10.89-45.13-15.56a221.05,221.05,0,0,0-29.23-6.32c-7.43-1.2-14.75-2.49-21.83-5.13a83.69,83.69,0,0,0-21-4.69c-11.47-1.14-23-2.23-34.36-4.06a202.5,202.5,0,0,0-33.61-2.34c-6.56.05-13.12.16-19.69.16-3.08,0-6.28.5-9.34-1.86-.39-6.22-1.56-12.64.84-19.1a16.41,16.41,0,0,0,.83-7.36c-1.48-12.71-2-25.48-2.49-38.25a24.51,24.51,0,0,0-.52-2.77A612.62,612.62,0,0,1,170.44,627c-.82-17.47-1.82-34.88-5.14-52.16-3.84-19.92-7.25-39.94-9-60.21a108.8,108.8,0,0,0-3-16.54c-2.23-9.09-4.82-18.1-7.24-27.15-7.75-28.95-14.48-58.22-28-85.26-.7-1.39-1.29-2.84-1.86-4.29-2.06-5.22-4.07-10.46-6.13-15.68-1.83-4.64-3.41-9.41-5.62-13.87-3.79-7.62-5.71-15.77-8.06-24.32,4-1.45,7.74-2.94,11.55-4.11,2.66-.81,4.33-2.22,4.88-5a14,14,0,0,1,1.34-3c1.76-.1,3-.27,4.24-.24,20.62.53,41.24,1.05,61.85,1.67,3.12.09,6.22.58,9.32.93,14.28,1.6,28.56,3.24,42.83,4.81,21.73,2.38,43.54,3.76,65.13,7.51,17.59,3,34.75,7.62,51.86,12.49a47.54,47.54,0,0,1,7,2.69c15.87,7.36,31.83,14.52,47.52,22.23,11.19,5.5,22.42,11.09,32.09,19.18,5,4.19,10.08,8.4,14.87,12.86a45.61,45.61,0,0,0,14.08,9.05,4.13,4.13,0,0,0,3.34-.86c1.41-1.12,1.18-2.89.22-4.21a20.93,20.93,0,0,0-3.39-3.18c-2.6-2.24-5.27-4.4-7.84-6.68-6.52-5.82-12.89-11.8-19.53-17.48-3.22-2.76-6.89-5-10.48-7.55a4.27,4.27,0,0,1,5.45.82c5.48,5.28,12.45,8.12,18.67,12.16,3.9,2.53,8.56,4.81,11,8.46,4.58,6.85,10.5,12.34,15.95,18.27,3.62,3.94,7,7.86,8.84,14.44-7.14-3.68-6.95,4.63-11.56,6l-7.9-2.68c-.76-5.72,2.17-9.54,4.58-13.61-1.23-.77-2.15-1.8-2.67-1.63-7.28,2.54-11.55,8-13.79,15.11a6.64,6.64,0,0,0,1.45,6.16c1.79,2.27,3.89,4.42,6.87,4.43,4.62,0,8.45,2,12.29,4.09a22.83,22.83,0,0,0,9.84,2.59,100.26,100.26,0,0,1,10.12,1.57c3.06.52,6.09,1.16,9.15,1.66,1.83.3,3.88,0,5.52.74,6.54,2.88,13.41,2.6,20.28,2.59,8.44,0,16.88-.08,25.32,0,6,.07,11.83-.13,17.49-2.43a16.3,16.3,0,0,1,5.51-.85c8.43-.29,16.27-4.37,24.84-3.89a4,4,0,0,0,1.78-.55c5.33-2.5,10.49-5,16.57-6,6.6-1,8.82-8,5.76-14a27,27,0,0,0-11-11.09c-1.39-.81-3.05-.35-3.77,2.26,2.22,3.71,5.27,7.77,4.23,13.18-1.85.46-3.34.84-4.85,1.2s-2.86.67-4.42,1c-1.53-2.1-2.5-4.25-4.16-5.46s-3.85-1.28-5.94-1.89c1.37-2.79,2.48-5.37,3.9-7.78a26.12,26.12,0,0,1,3.15-3.45c6-6.74,13-12.54,17.64-20.49a8.61,8.61,0,0,1,2.77-2.47c4.93-3.26,9.77-6.68,14.9-9.61,3.78-2.17,7.61-4,10.69-7.31,1.52-1.61,3.87-3,6.52-1.9-6.24,4.91-12.51,9.55-18.43,14.59-7.37,6.26-14.46,12.85-21.65,19.31a3,3,0,0,0-1.07,1.49c-.18,1.17-.5,2.63,0,3.48a4.08,4.08,0,0,0,3.08,1.38,8.64,8.64,0,0,0,3.44-1.29A52.57,52.57,0,0,0,636.46,398a147.72,147.72,0,0,1,30.72-22.85C685,365.23,703.69,357.4,722,348.7a21.7,21.7,0,0,1,6.24-1.79c13.29-1.9,26.6-3.79,39.92-5.48,24.82-3.15,49.21-8.4,73.39-14.68,5.44-1.42,10.83-3.14,16.34-4.07,8.93-1.49,17.94-2.49,26.93-3.58,7.44-.9,14.88-2,22.36-2.37,14.36-.69,28.73-1,43.1-1.31,9.33-.22,18.66-.31,28.05-.45l2.72-5.32c2.76,0,5.54,0,8.33,0,1.86,0,3.85.19,5.53-.41a5.32,5.32,0,0,0,2.78-3.14c.26-.8-.86-2.12-1.54-3.08a3.29,3.29,0,0,0-1.62-.89c-7.69-2.47-15.4-4.9-23.1-7.37-1.68-.54-3.35-1.17-4.81-1.68-.2-4,0-7.45-.64-10.76-.83-4.53-5.32-4.56-8.72-5.73a27.23,27.23,0,0,0,.19-4.07c-.69-6.13-2.69-7.83-8.72-8.94s-12.11-2.79-18.17-4.17c-2.1-.48-4.31-1.36-6.35-1.07-4.77.67-9.31-.31-13.93-1a13,13,0,0,0-2.86.2l-4.85,4.19c-6.36.35-12.6.63-18.83,1.05-11.22.76-22.4,1.75-33.18,5.37-7.13,2.39-14.55,3.39-22,4.21a210.14,210.14,0,0,0-22.12,3.88c-8.53,1.9-16.95,4.28-25.41,6.46L741.43,292.9c0,.08,0,.18-.08.25l-.47-.1-3.76,1.15c-.08.16-.19.22-.26.41l-.77.28a7.4,7.4,0,0,1-.56.56c-.09.07-.37-.1-.56-.15l1.12-.41.55-.54.48-.15c.84-1.62,2.26-1.5,3.76-1.15l.27-.08.28-.07c.26-.75.4-1.74.89-2,15.47-7.36,30.51-15.91,47.89-18.23a26.93,26.93,0,0,0,13-4.87,18.48,18.48,0,0,1,9.6-3.32c6.21-.63,12.43-1.32,18.58-2.34A79.94,79.94,0,0,0,845,258.94,173.5,173.5,0,0,1,876.75,251c7.09-1.09,14.11-2.6,21.15-4.06,1.47-.3,3-1,1.71-3.67-16.21.21-32.38,2.93-49.27,6a47.84,47.84,0,0,1,2.35-5c1.32-2.1,2.87-4.07,4.28-6.12a7.11,7.11,0,0,0,.54-7.93c-1.39-2.65-3.68-2.85-6.33-2.88-5.62-.06-11.23-.44-16.84-.66-10.27-.41-20.43-1.71-30.83-.64-9.27,1-18.65.29-27.75,3.16-4.11,1.29-8.69,2.65-12.76,2-5.64-.84-8.39,3.57-12.68,4.89-3.29,1-6.63,1.84-9.85,3-6.41,2.39-13.18,4.24-19,7.65C707.9,254.62,694,261.58,680,268.53c-15.77,7.84-30.28,17.38-42.29,30.5-6.33,6.91-13.26,13.27-19.6,20.17-11.22,12.19-22.29,24.54-27.8,40.67a11.85,11.85,0,0,1-1.59,3.39c-3.2,4.18-6.51,8.28-9.79,12.4-5.35,1-6.71,5.23-7.2,9.65A23.08,23.08,0,0,1,568,394.8c-.7,1.16-1.18,3-3.69,1.89,0-1.4.1-2.95,0-4.49-.62-8,.65-15.54,5.68-22.16a33.59,33.59,0,0,0,3.14-5.75C580.49,349,590,335.15,600.71,322a125.59,125.59,0,0,0,8.41-11.25c5.93-9.24,12.29-18.07,20.56-25.41,1.4-1.23,2.46-2.82,3.74-4.19,4.87-5.27,9.55-10.75,14.72-15.71,7.67-7.36,15.61-14.42,23.6-21.42a43.79,43.79,0,0,1,9.18-6.39,42.31,42.31,0,0,0,15.41-13.36c.41-.56.29-1.51.42-2.32-1-.05-1.85-.36-2.14-.08-3,2.87-6.71,4.37-10.59,5.75a67.23,67.23,0,0,0-24,14.31,27.79,27.79,0,0,1-4.38,3.5c-11.08,6.86-19.74,16.19-27.45,26.54a43.79,43.79,0,0,1-5.37,6.49c-8.93,8-15.86,17.59-22.18,27.69a55.74,55.74,0,0,1-4.39,6.07,285,285,0,0,0-21.35,29.64,60,60,0,0,1-3.78,4.84,21,21,0,0,1,1.33-9.31,125.54,125.54,0,0,0,6.95-28.11,22.85,22.85,0,0,1,1.22-5.47c5.6-13.89,10.78-28,17.16-41.53,3.7-7.87,8.54-15.2,10.81-23.74a9.72,9.72,0,0,1,2-4.2c3.13-3.22,2.66-7.29,2.69-10.54,2.69-3.44,6.82-4.23,9.18-8.82-2.23.63-3.5.68-4.37,1.29-3.54,2.53-6.69,5.77-10.5,7.75-6.05,3.14-9,8.35-11.53,14.17-1.24,2.85-2.41,5.85-4.26,8.27-8.44,11-14.06,23.61-19.8,36a516.6,516.6,0,0,0-20.58,53.29A184.32,184.32,0,0,0,544,365.77c-.57,3.7-1.3,7.38-2.12,11-.21,1,.17,2.71-2.32,2.44-2-3.26-3-7.14-3.69-11.07A182.74,182.74,0,0,0,518.5,316a4.61,4.61,0,0,1-.4-.84c-6.53-19.08-16.49-36.37-27.79-52.93a64.24,64.24,0,0,0-7.72-9.36C473.9,244.29,465,236,456.24,227.5a52.57,52.57,0,0,1-6.83-7.65,15.13,15.13,0,0,0-7.91-6.15,53.27,53.27,0,0,1-15.69-7.91c-.15-.12-.89.5-2,1.14,6.32,7.4,12.8,14.48,19.55,21.35q16.74,17,33.36,34.23a16.68,16.68,0,0,1,2.34,2.91c7.41,11.95,15.29,23.64,21,36.55,6,13.72,11.81,27.55,17.73,41.32a38.31,38.31,0,0,1,3.05,14.87c-2.17-3-3.47-4.68-4.66-6.44-5.6-8.28-11-16.68-16.78-24.84-6.66-9.43-13.6-18.68-20.46-28a76.49,76.49,0,0,0-5.81-7.32c-21.76-22.93-45.6-43.62-69.24-64.53-4.42-3.91-9.34-5.6-16-4.86,1.89,2.4,3.25,4.45,4.91,6.2q23.86,25.17,47.8,50.27c3.44,3.62,6.77,7.35,10.11,11.07,11.91,13.31,21.59,28.31,32.21,42.59a312.59,312.59,0,0,1,21.72,33.91c4,7.25,4.09,7.22,3.49,18.31a36.92,36.92,0,0,1-10.76-16.48,25.69,25.69,0,0,0-6.24-10.24c-5.58-5.91-11-12-14.58-19.41-6.24-13.05-14.65-24.66-23.28-36.18-8.1-10.82-18.24-19.7-27.48-29.43-11.26-11.86-24.31-21.51-37.53-31a56.8,56.8,0,0,0-6.49-3.72c-5.5-2.93-10.95-6-16.6-8.64-5.08-2.37-10.37-4.27-15.62-6.24a7.12,7.12,0,0,0-3.69-.29c-1.07.21-2.55.85-2.87,1.69-.27.68.64,2.3,1.46,2.86,6.2,4.18,12.51,8.19,18.79,12.25a64.78,64.78,0,0,0,7.12,4.48,98,98,0,0,1,20.19,13.52q11.85,9.93,23.44,20.15c.64.55,2.31,1.41.52,3.14-1.95-1.42-3.93-2.84-5.9-4.3-4.51-3.34-8.63-7.48-13.59-9.9-11-5.36-21.06-12.23-31.16-19a59.18,59.18,0,0,0-19.41-9,48.29,48.29,0,0,1-15.51-6.37c-1.23-.8-3-1.68-4.24-1.35-3,.79-5.5-.34-8.21-.89-11.6-2.35-23.14-4.66-35.16-4.08-9.62.46-19.32.82-28.94-1.12-3.31-.66-6.86-.21-10.29,0-3.65.19-4.8,2-4.1,5.65.28,1.46,3,2.9-.16,4.78-2.44-2.22-1.6-7.75-6.87-7.32-1.63,3.17,3.29,6.23.34,9.4-3.07.52-6.21.72-9.12,1.64-4.07,1.3-7.67,1.32-11.57-.88-4.41-2.48-8.92-2.36-12.87,1.52-2.53,2.49-5.43,4-9.27,3.44a4.9,4.9,0,0,0-3.95,1.7c-1.84,2.56-4.24,2.47-6.7,2-3.92-.7-7.76-1.85-11.68-2.53-5.07-.87-8.36,2.5-7.59,7.7a38,38,0,0,0,1.55,5.21,29,29,0,0,0-4.74,2,25.12,25.12,0,0,1-16.81,4.36c-2.43-.24-5-.16-7.22,2.19-1.61,5-2.12,10.06,2.39,14.35l-7.34,11.08c-3.37.4-6.71.11-9.48,1.25a225.49,225.49,0,0,0-20.87,10c-2.64,1.44-4.73,4-6.79,6.37-1.87,2.1-1.67,4.35.33,6.72a18.69,18.69,0,0,0,3.1,2.39c-.66,2.61-1.32,5.29-2,8,.36,3.63,4.06,6.47,2.36,11.24-1.35-1.67-2.44-3-3.48-4.32a49.66,49.66,0,0,0-3.42-4.43c-2.14-2.16-6-2.74-7.69-1.21-1.93,1.69-1.57,3.94-1,6.09A29.76,29.76,0,0,0,79,337.79c2.57,5.68,5,11.45,7.87,17,2.75,5.27,5.6,10.44,7.21,16.22a65.41,65.41,0,0,0,3.22,7.78c5.91,14.12,11.85,28.22,17.71,42.36a58.4,58.4,0,0,1,2.61,8c6.29,24.81,12.6,49.63,18.71,74.5a114.7,114.7,0,0,1,2.46,15.68c1.58,15.21,2.07,30.53,5.38,45.55a193.92,193.92,0,0,1,3.7,21.23c2.12,19.87,3.7,39.81,5.86,59.69q2.66,24.68,6.2,49.26c1.58,11.1.69,22.44,3.53,33.41.45,1.76.07,3.73.08,5.61,0,2.81.07,5.62.07,8.44,0,3.47.24,6.83,2.43,9.8,1.79,2.45,2.11,5.12.11,8.31-3.35.39-7,.76-10.71,1.25-1.6.22-3,.86-2.81,3.42l6.52,2.37c-.2,1.51-.39,2.94-.6,4.5,1.71.5,2.88,1,4.09,1.18,4.86.83,10,.48,14.49,3a7,7,0,0,0,2.78.27c10.29.51,20.59,1.26,30.89,1.45,17.19.33,34.38.24,51.56.48a74,74,0,0,1,12.07,1.19q24,4.35,47.85,9c4.88,1,9.72,2.21,14.5,3.62,29.14,8.57,56.49,21.71,84.4,33.4,7.49,3.13,14.78,6.18,23.23,6.15,0,2.17-.08,4,0,5.83.48,8.52,3.34,16.12,10.6,20.92a39.12,39.12,0,0,0,16.53,5.93c2.47.31,4.89.88,7.31,1.38,4.27.89,8.49,2.08,12.8,2.67,13.9,1.92,27.84,3.64,41.75,5.4a38.55,38.55,0,0,0,4.69.18c13.75,0,27.5.06,41.25-.11a61.71,61.71,0,0,0,10.16-1.38c5.75-1.07,11.28-3.9,17.39-2a3.31,3.31,0,0,0,1.83-.25c6.51-2.17,13-4.23,19.47-6.6,2.67-1,4.41-3.22,6-5.69,2.85-4.46,6.12-8.65,9.24-12.93,1.1-1.51,2.4-2.88,3.43-4.43a3.88,3.88,0,0,0-.89-5A3.37,3.37,0,0,0,641.64,835.85Zm29-474.51,0-.66.77.33Zm11.59-5.61a2.22,2.22,0,0,1-.79-.13c.07-.22.13-.63.21-.63a2.44,2.44,0,0,1,.82.19C682.42,355.36,682.37,355.71,682.26,355.73Zm268.18-58.27c.66.15.92,2,1.71,3.85-3.13.24-5.48.63-7.83.58a97.08,97.08,0,0,0-19.51,1.76c-25.47,4.7-51.08,8.43-77,9.85-10.28.56-20.52,1.83-30.77,2.72a37.85,37.85,0,0,1-12.12-.43c1.24-.3,2.53-1,3.72-.82A27.36,27.36,0,0,0,821.42,313a30.85,30.85,0,0,1,7.25-1.63c7.74-.85,15.52-1.31,23.24-2.36a92.86,92.86,0,0,0,12.7-3.09,112.71,112.71,0,0,1,23.81-4.45c9.24-.58,18.57-1.71,27.28-5.77,4.17-1.94,8.94-2.61,13.48-3.74,3.29-.81,6.65-1.42,11.11-2.36C943,293.09,945.87,296.39,950.44,297.46ZM636.7,320.88c14.3-15.86,30.17-29.69,49.65-39.09,14-6.78,28.18-13.33,41.42-21.67a26,26,0,0,1,8.71-3.1,120.08,120.08,0,0,0,18.8-5.51,140.85,140.85,0,0,1,15.18-4.5c5.13-1.33,10.31-2.47,15.51-3.5a53.66,53.66,0,0,1,10.12-1.38,40,40,0,0,0,14.62-2.61,28.14,28.14,0,0,1,6.34-1.4c4.93-.7,9.92-1.1,14.84-1.94,4.67-.81,9.13-.17,14,.59-1.4,5.56-2.68,10.59-4,15.69-1.48.38-2.74,1.11-3.83.92-5.07-.88-9.85.37-14.77,1.25-9.5,1.7-19.11,2.86-28.64,4.42a120.7,120.7,0,0,0-14.61,3.06c-13.45,3.95-26.91,7.95-40.2,12.4-8.26,2.77-16.23,6.38-24.31,9.67-3.76,1.52-7.42,3.26-11.2,4.73A144.79,144.79,0,0,0,674,305.23a121.84,121.84,0,0,1-17.15,9.51,52.58,52.58,0,0,0-14.6,9.94,54.59,54.59,0,0,1-14.47,10.19c-.73.36-1.65.31-3.58.62C628.79,330.1,632.63,325.39,636.7,320.88Zm92.71-23.65c-.27.43-.53.86-.82,1.29h0a1.62,1.62,0,0,1-.1.18l-.24,0a.85.85,0,0,1-.31.14c-.19,0-.4-.15-.6-.24l.91.1c.11-.05.23-.09.34-.15s.17-.34.27-.49S729.22,297.5,729.41,297.23ZM622.33,353.94a33.67,33.67,0,0,1,3.48-3c6.87-5.56,14.14-10.46,22.66-13.18a2.8,2.8,0,0,1,.15-.3c.09,0,.16,0,.24,0,.87-2.57,3.1-2.65,5.24-2.87-1.38,1.65-2.7,3.47-5.24,2.87,0,.06-.07.09-.08.16s-.21.09-.31.12a4.9,4.9,0,0,1-1.2,1.84c-8.12,5.65-16.26,11.22-24.43,16.78a17.93,17.93,0,0,1-2.54,1.17C619.69,355.39,621.44,354.87,622.33,353.94ZM591.69,395.6c.8-1.41,1.76-2.57,3.65-2.09-.24-2.22-1.24-4.63,1.29-6.14,0-.17.07-.33.1-.5s.16-.36.24-.53c0-.41,0-.82,0-1.23.15.13.44.3.42.36-.11.3-.25.58-.38.87s0,.54,0,.8l-.36.23c-.39,2-.83,4-1.27,6,0,1.19-.07,2.32-.11,3.45,1.15-.06,2.8.33,3.35-.27a31,31,0,0,0,4.9-6.79,38.34,38.34,0,0,1,12.38-13.86c12.94-9.27,26.15-18.18,39.49-26.87,4.66-3,9.94-5.2,15.08-7.42,23.55-10.17,48.24-17,72.62-24.77,12.2-3.87,24.3-8.07,36.63-11.44a276.67,276.67,0,0,1,41.38-7.78c8-.93,15.78-3.63,23.71-5.32,4.55-1,9.18-2.09,13.79-2.13,15.71-.15,31-3.21,46.51-5.31.55-.07,1-.64,2.1-1.37-1.06-.76-1.91-1.88-2.78-1.89-5.61-.05-11.22.07-16.83.29-9.67.37-19.33,1-29,1.23-5,.12-10,.19-14.77,1.91-11.56,4.13-23.71,5.33-35.77,7a268.54,268.54,0,0,0-46.42,10.85c-19,6.26-38.11,11.95-57.09,18.18-8.89,2.92-17.55,6.54-26.33,9.8-1.38.51-2.82.86-4.24,1.27,0,.06,0,.09,0,.15l-1.45.55,1.26-.63.23-.07c.07-2.72,2.6-3.13,4.29-4,7.76-4,15.55-8,23.52-11.56,12-5.36,23.89-10.86,36.16-15.42,10.79-4,22-7,33.08-10.08q18.51-5.06,37.25-9.25a195.79,195.79,0,0,1,23-3.9,106.51,106.51,0,0,0,22-4.56A102.18,102.18,0,0,1,873.31,269c7.76-.88,15.5-1.86,23.27-2.62,3.4-.33,6.85-.55,9.73,2.13a7,7,0,0,0,3.42,1.37c8.23,1.56,16.48,3,24.78,4.55,1.48,2.79-1.33,4.48-1.74,6.75-.36,2.06-.41,4.18-.61,6.48a132.23,132.23,0,0,0-22.75,6c-7,2.38-14.67,3.25-22.09,3.61a81.08,81.08,0,0,0-22,4.06c-11.07,3.7-22.56,4.62-34.05,5.81-4,.41-7.95,1.23-11.92,1.88-1.85.3-3.71,1-5.51.93-6.44-.42-12.33,1.62-18.23,3.67-19.75,6.87-39.72,13-60,18.32a67.6,67.6,0,0,0-8.82,3.05c-7.18,3-14.29,6.16-21.45,9.2a13.29,13.29,0,0,1-4.45,1.27c-13.23.53-24.55,6.24-35.5,13-2.13,1.3-4.14,3-6.44,3.77-5.35,1.9-9.86,4.82-14.51,8.12-5.76,4.09-11.92,7.84-18,11.42-4.58,2.68-7.49,6.33-10.13,10.79-8.39-.46-12.45,6.1-17.78,10.7a30.63,30.63,0,0,0-10.26,18.17c-2.35,1.39-4.15-.25-6.1-.45-1.84-4.1-1.45-7.21,1.09-10.72C586.53,405.63,588.91,400.48,591.69,395.6ZM577.43,397c2.58-2.51,4.32-5.87,7-9.66.73,4.73-1.33,7.71-3.2,10.17a40.41,40.41,0,0,0-8.41,21.13c-.07.71-1,1.33-2.22,2.82C569.85,411.74,570.57,403.66,577.43,397Zm-8.32,27.89.48.76c-.2.54-.41,1.08-.6,1.62-.16-.26-.46-.55-.42-.78A9.42,9.42,0,0,1,569.11,424.9ZM546,416.13c2.46-6.94,2.36-14.05,2.33-21.21,0-1.24,0-2.47,0-5.94,1.34,19.57,1.22,21.92-2.2,38.18C545.11,423.44,544.74,419.62,546,416.13Zm-21-7.06a41.52,41.52,0,0,1,5.57,13.74c.54,2.75-1.16,3.94-4.79,3.81-1.22-6.5.94-13.39-4.29-18.69C524,406.77,524.41,408.11,525,409.07ZM404,355.85c-.14-.32-.29-.63-.44-.94l.75.31C404.2,355.43,404.1,355.64,404,355.85Zm10.57,5.44.11-.63.68.43ZM516.68,425c.15.48.32.95.47,1.42l-.84.58a13.6,13.6,0,0,1-.17-1.55C516.15,425.27,516.49,425.12,516.68,425Zm-4.52-23c3.36,5.59,3.93,12,2.66,20-1.17-2.16-2.06-3.1-2.16-4.12a37,37,0,0,0-7.73-19.42c-2.11-2.74-4.15-6-4-10.9C505.16,392.88,509.23,397.1,512.16,402ZM251.78,232.69c14,4.87,28.21,6.76,42,10.25a37.77,37.77,0,0,0,8.31.77c.58,0,1.5-1.14,1.67-1.89a2.81,2.81,0,0,0-.66-2.48,27.2,27.2,0,0,0-5.85-2.69c-5-1.58-10-2.94-14.85-5,7-.79,13.89-1.76,20.8.67,3.17,1.11,6.7,1.17,10.05,1.8a57.13,57.13,0,0,1,7.27,1.64c8.8,2.88,17.61,5.77,26.12,9.44a75.22,75.22,0,0,1,10.77,5.49c11.55,7.39,22.4,15.9,34.95,21.71,2.49,1.16,4.57,3.24,6.81,4.93,5.73,4.31,11.68,8.38,17.11,13.05,12,10.31,25.62,18.93,34.52,32.61,2.18,3.35,5.27,6.15,8.06,9.08a19.42,19.42,0,0,1,5.78,11.52c-8.31-7.39-15.12-13.32-21.78-19.43a47.59,47.59,0,0,0-13.08-8.91c-8.9-3.9-17-9.11-25.11-14.45A118,118,0,0,0,390,292.74c-26-12.29-53.17-21.45-80.66-29.79-11.81-3.57-23.92-4.24-35.95-5.94-6.48-.92-13-1.51-19.51-2.33a12.67,12.67,0,0,1-2.76-1.13c0-4.9,1.05-9.81-1.17-14.65C249.28,237.48,251,235,251.78,232.69ZM231.94,245c3.07.17,6.12.59,9.36.92.6,1.47,1.15,2.84,1.69,4.15-.79.52-1.3,1.15-1.77,1.13a25.34,25.34,0,0,1-11.73-3.78C229.38,245.11,230.84,245,231.94,245Zm-56.59,10.17c2.27,0,4.69-.18,7.09,0,5.47.5,10.62-.3,15.11-3.61,2.49-1.84,5-1.95,7.93-1.41,12.26,2.27,24.48,4.6,36.23,9a64.09,64.09,0,0,0,13.65,3c11.74,1.64,23.53,2.87,35.26,4.55a102.59,102.59,0,0,1,14.56,3.32c12.53,3.76,25,7.71,37.49,11.71,4.15,1.33,8.22,2.92,12.24,4.6,8.92,3.73,17.71,7.76,26.69,11.34a131,131,0,0,1,23,12.33c6.77,4.42,13.95,8.24,21.09,12A55.28,55.28,0,0,1,437.3,330c6.69,6.1,13.55,12,20.28,18,3,2.7,5.85,5.57,8.77,8.36l-1.28,1.32c-2.52-1.69-5.09-3.35-7.57-5.1-19.7-13.82-40.07-26.58-61.79-36.9-16.6-7.89-33.47-15.34-50.66-21.83-11.91-4.5-24.53-7.12-36.87-10.43-9.34-2.49-18.69-4.95-28.12-7-7.91-1.73-15.94-2.86-23.91-4.3-6.73-1.22-13.62-1.94-20.14-3.9-12.08-3.62-24.42-4.77-36.87-5.7-7.14-.54-14.23-1.64-21.33-2.6C175.57,259.61,174.69,258.1,175.35,255.21Zm-66.2,52.35c2.26-1,4.87-1.58,6.63-3.14,3-2.66,6.33-4.18,10.21-3.83,5.85.53,9.73-3.59,14.41-5.73,2.58-1.18,4-3.95,3.83-7-.19-4.32-.44-8.64-.7-13.64,3.05-.07,6.45,0,9.82-.27a20.09,20.09,0,0,0,6.25-1.41c1.55-.68,2-2.28.67-3.85-.66-.8-1.24-1.67-2.14-2.9,3.48-1.25,5.48.71,7.47,1.73,1.12.58,1.53,2.55,2.64,4.6,4.81,0,10.09.2,15.36,0a33,33,0,0,1,13.74,2.27,44.42,44.42,0,0,0,19.15,3.46c6.66-.34,12.86,2.18,19.1,4.12.53.16.65,1.61,1,2.48l0,0h0c2.95-1.29,6-1.05,9.1-.73,7.72.78,15.47,1.21,23.33,1.79.94-1.76,1.63-3,2.5-4.68a40.72,40.72,0,0,1,4.41.67q31.64,8.21,63.25,16.5a36.79,36.79,0,0,1,5.32,1.75c19.42,8.41,39.24,15.95,58,25.84,2.76,1.45,5.47,3,8.09,4.66.49.32.55,1.32.74,2.11l.37.15.78-.07c.19,0,.38,0,.58,0l-1.67.13-.06-.22c-22-9.54-45.28-15.09-67.8-22.86-4.42-1.53-8.9-2.85-13.3-4.43a283.88,283.88,0,0,0-65.45-14.72c-6.15-.68-12.16-2.61-18.24-3.92-3.31-.71-6.64-1.32-9.95-2l-.05,0v0c-5.88-2.61-11.33-1.6-16.46,2.11-11.27-4.75-23.13-4.93-35-5-2,0-4.39-.7-5.85,1.55-.17,1.95,1.42,1.91,2.44,2,16.09,2.07,32,5.27,48.39,5.11a31.35,31.35,0,0,1,9.17,1.57,203.57,203.57,0,0,0,33.85,7,260.59,260.59,0,0,1,48.31,10.93c19,6.16,38.15,11.8,57,18.24,14.75,5,29.39,10.52,43.72,16.62,7.1,3,13.54,7.72,20,12,7.56,5,14.76,10.49,22.29,15.53s14.41,10.89,18.6,19.3a24.12,24.12,0,0,0,3.25,4.56c1.82,2.2,3.18,1.74,5.3-1.63a4.37,4.37,0,0,1,.61-.7c4,6.32,8.18,12.5,11.73,19,1,1.85.75,5.12-.23,7.08-.72,1.43-3.57,1.79-5.7,2.72a22.34,22.34,0,0,1-1.13-3c-2.46-12-11.76-18.68-20.56-25.58-1.76-1.37-4.67-1.27-7.33-1.92a25.66,25.66,0,0,0-9.95-10.43c-5.86-3.45-11.12-7.92-17.44-10.68-7.55-7.88-18.73-9.51-27.23-15.95-6.22-4.72-14.23-6.11-21.47-8.91a2.29,2.29,0,0,0-.9-.22c-11.53.66-20.55-6.51-30.8-9.84-4.14-1.36-8.12-3.24-12.31-4.35-20.54-5.39-40.75-11.84-60.83-18.68-5.06-1.72-10.08-3.35-15.5-3a5.06,5.06,0,0,1-1.87-.1c-11.1-3.74-22.9-2.54-34.17-4.87-7.62-1.57-15.1-3.82-22.7-5.48A133.49,133.49,0,0,0,200,297.43c-9.91-1.08-19.74-2-29.22-5.8-6.19-2.5-12.91-4.79-21-2.44,1.5,1.07,2.26,2,3.15,2.18,7.43,1.19,14.42,3.63,21.52,6.09,7.27,2.52,15.22,3.59,23,4.08a84.27,84.27,0,0,1,21.09,3.76,133.74,133.74,0,0,0,36.81,6.05,13.52,13.52,0,0,1,3.73.18,99.22,99.22,0,0,0,21.69,4.9,29.62,29.62,0,0,1-4.95.37q-27.08-2.22-54.13-4.59c-14-1.24-28-3-42-3.75-9.32-.52-18.72.29-28.09.48q-16.86.35-33.73.62c-2.49,0-5-.25-7.48-.08-2.32.17-4.61.76-7.16.36C105.24,309.09,107.22,308.38,109.15,307.56Z" transform="translate(-77 -205.77)" style="fill-rule:evenodd"/><path d="M998.94,325.55c-2.33-.35-4.69-.5-7.26-.77-3.85,8.66-7.66,17.15-11.39,25.67a50.72,50.72,0,0,0-1.71,5.32c-.19.6-.32,1.21-.48,1.82a117.82,117.82,0,0,1-9,23.56,71.51,71.51,0,0,0-5,13.07c-2.43,8.39-3.88,17.1-6.79,25.31-7.64,21.51-13.13,43.63-19.06,65.62-3.48,13-6.88,26-9.43,39.11-3.22,16.54-5.53,33.25-8.24,49.9-1.26,7.7-3.08,15.35-3.69,23.1-1.07,13.69-1.38,27.45-2.09,41.17q-1.22,23.39-2.57,46.78c-1.06,17.76-2.9,35.49-2.34,53.33.08,2.49.36,5.13-.32,7.44-1,3.47-1.74,6.58.93,9.65.47.54.35,1.79.19,2.65-.54,2.7-1.24,5.38-2,8.51-9.68,0-19.34-.1-29,.05-4.35.07-8.69.61-13,1-4.65.41-9.29,1.18-13.94,1.31-6.87.19-13.75.11-20.61-.14a141.73,141.73,0,0,0-32.53,3c-16.84,3.29-33.85,5.77-50.76,8.73a98.41,98.41,0,0,0-14.54,3.4C719,789.34,703.76,795,688.46,800.32c-3.53,1.24-7.16,2.21-10.78,3.14a27.19,27.19,0,0,0-10.2,4.49,30.47,30.47,0,0,1-12.66,5.78c-1.77.38-4,.94-5,2.2-3.52,4.19-6.62,8.73-9.77,13,2.38,3.27,4.89,3.81,7.67,1.92,2.57-1.75,5-3.75,8-6.05,8.42,1.51,16.85-.62,25.22-3.31a52.6,52.6,0,0,1,16.63-2.17,39.16,39.16,0,0,0,11-1.54c13.79-4,27.44-8.42,41.23-12.4,12-3.45,24-7,36.16-9.57,8.56-1.77,17.07-3.57,25.5-5.93a94.51,94.51,0,0,1,14.66-2.77c10.24-1.15,20.66-1.2,30.74-3.08,14.86-2.76,29.75-3.26,44.75-3.08h.93c12-.27,12.49-4.42,12.27-12.15a25.59,25.59,0,0,1,4.46-15.9,15.67,15.67,0,0,0,2.81-9.68c0-.94,0-1.88,0-2.81.29-5.92.54-11.7,6.71-15.28,1.46-.84,2.16-3.77,2.42-5.85,1.91-14.84,4.6-29.59,4.45-44.69-.25-26.29,2.82-52.34,6.71-78.3q6-39.84,12.13-79.63c1.87-12,3.4-24.15,6.05-36,5.55-25,11.88-49.79,17.59-74.74a107.57,107.57,0,0,1,9.1-25.46,49.6,49.6,0,0,0,4.6-13.14,98.53,98.53,0,0,1,6.27-20.5,93.26,93.26,0,0,0,4.69-16.1C1003.53,327.56,1002.1,326,998.94,325.55Z" transform="translate(-77 -205.77)" style="fill-rule:evenodd"/><path d="M916.17,363a70,70,0,0,1,23.08-3c5.75.11,11-1.56,17.36-5.53-2.42-.72-3.38-1.37-4-1.14-5.73,2.15-11.63,2-17.57,1.54a45.72,45.72,0,0,0-16.67,1.5c-4.57,1.35-9.2,1.39-13.9,1.22q-15.45-.57-30.9-.75a49.84,49.84,0,0,0-10.2.93,108.42,108.42,0,0,1-25.09,2.37,40.89,40.89,0,0,0-9.24,1.12c-15.88,3.27-31.7,6.78-47.61,10-19.35,3.87-38.34,8.86-55.62,18.67-9.33,5.3-20,6.7-29.47,11.51-5.56.33-9.83,3.59-14.26,6.39-2.68,1.69-5.23,3.38-8.54,3.37-4.33,0-7.37,3-10.91,4.83-2.22,1.12-1.8,5.38.62,6.17,2.26.73,5.06,1.41,7.16.71,5-1.67,10.08-3.56,14.36-6.48,7.32-5,15.77-7.33,23.79-10.22a187.07,187.07,0,0,0,24-10.31,149.53,149.53,0,0,1,36.8-13.41c19.45-4.46,39-8.6,58.45-12.88a82.19,82.19,0,0,1,17.64-1.79c4.64,0,9.28-.84,13.91-1.36,5.26-.59,10.5-1.56,15.78-1.78,10.92-.45,21.84-.47,32.76-.77A30.62,30.62,0,0,0,916.17,363Z" transform="translate(-77 -205.77)" style="fill-rule:evenodd"/><path d="M253.8,368.88c17.69,3.79,35.35,7.67,53.06,11.36,17.18,3.57,33.77,8.71,49.26,17.17,6.56,3.58,13.19,7.09,20.73,8.36,1.77.3,3.38,1.52,5.08,2.29s3.34,2,5.07,2.14c4,.25,7,2.57,10.33,4.11,5.63,2.58,11.07,5.56,16.65,8.23a9.22,9.22,0,0,0,8.13-.05c2.81-1.31,3.35-5.57.58-6.81-3.61-1.63-6.61-4.64-11.05-4.65a10.16,10.16,0,0,1-6-2c-7.15-6-16-8.24-24.45-10.85A143.49,143.49,0,0,1,357,388.28a152.6,152.6,0,0,0-36.83-13.38c-19.75-4.5-39.61-8.56-59.4-12.94A85.54,85.54,0,0,0,240.33,360a35.05,35.05,0,0,1-9.28-.73c-10.12-2.59-20.37-2.73-30.68-2.35-6.24.23-12.49.22-18.71.67a45.81,45.81,0,0,1-15.75-1.53,40,40,0,0,0-13.9-1.23c-6.86.49-13.69.66-22.34-2.76,1.33,2.71,1.48,3.75,2,4a30.42,30.42,0,0,0,15.23,3.9,66.9,66.9,0,0,1,22.16,2.78,29.44,29.44,0,0,0,10.17,1c23.47-1.2,46.58,3.58,69.94,4.15A26.12,26.12,0,0,1,253.8,368.88Z" transform="translate(-77 -205.77)" style="fill-rule:evenodd"/><path d="M227.34,748.14c15.93.35,31.86.13,47.8.24a57.55,57.55,0,0,1,10.26.62c27,5.07,54,10.21,79.86,19.72,15.25,5.6,30.41,11.26,44,20.38a27.22,27.22,0,0,0,7.55,3.67,13.59,13.59,0,0,0,6.33-.17c.84-.18,1.65-1.7,1.92-2.76.15-.58-.68-1.77-1.37-2.16-6.53-3.63-13-7.31-19.7-10.69-26.32-13.37-54.12-22.46-83-28.43-4-.82-7.95-1.6-11.9-2.57-13.38-3.27-26.87-5.29-40.74-5-24.67.49-49.36-.13-74,1.77-2.66.21-5.54-.36-9.07,2.55a23.57,23.57,0,0,0,3.69,1C201.77,747,214.55,747.87,227.34,748.14Z" transform="translate(-77 -205.77)" style="fill-rule:evenodd"/><path d="M807.52,741.07a47.54,47.54,0,0,0-9.29.88c-10.41,2-20.76,4.33-31.2,6.21a313.67,313.67,0,0,0-67.89,20.75c-12.86,5.51-25.06,12.55-37.52,19-1.75.91-1.38,3.64.44,4.55a8,8,0,0,0,8-.18c4.86-2.78,9.64-5.7,14.61-8.25,25.7-13.23,52.89-22.16,81.13-28.06,4.58-1,9.13-2,13.71-3,12.2-2.67,24.41-5,37.05-4.66,14,.34,28.12.23,42.17-.1,12.48-.3,25-1.13,37.41-1.78a24.81,24.81,0,0,0,3.93-.93c-1.37-1.13-2-2-2.67-2.14-2.47-.36-5-.45-7.46-.64C862.51,740.63,835,741.29,807.52,741.07Z" transform="translate(-77 -205.77)" style="fill-rule:evenodd"/><path d="M613.26,501.83c.37-.45.77-1.27.59-1.67-.33-.73-1.13-1.85-1.61-1.79a8.33,8.33,0,0,0-3.3,1.36c-8.72,5.28-18.45,7.48-28.36,8.46-5.52.55-11,.12-16.52,1.94-3.43,1.13-7.39.86-11.11.85-5.29,0-10.59-.36-15.89-.54-8.39-.3-16.83.3-25.06-2.17-1.71-.51-3.7,0-5.56-.08-2.17-.06-4.45.2-6.48-.4-8.91-2.59-18.42-3.61-27.55-11.4-.16,3-.68,4.5-.18,5a25.91,25.91,0,0,0,6.4,5.23c5.29,2.64,10.84,4.72,16.24,7.12a31.72,31.72,0,0,0,11.75,2.68c24,1,48,1.19,72-.06,11.8-.61,22-6.25,32.06-11.9A10.17,10.17,0,0,0,613.26,501.83Z" transform="translate(-77 -205.77)" style="fill-rule:evenodd"/></svg>