<svg xmlns="http://www.w3.org/2000/svg" viewBox="0 0 402.5 423"><path d="M333.74,222.5C347.65,332.36,244,423,133.24,423s-195-89.9-200.5-200.5C-72.87,108.93,22.51,22,133.24,22S319.72,111.73,333.74,222.5Z" transform="translate(67.5 -0.01)" style="fill:#aecfc7"/><path d="M153.7,167.32c-.52,1.91-3,2.18-4.52,3.33a3.15,3.15,0,0,1-1.55.65,3.75,3.75,0,0,1-2.82-1.78,23.59,23.59,0,0,1-5-14c0-2.58.69-5.29,2.8-6.8,3.12-2.23,2.25-4.09.1-6.33a13.1,13.1,0,0,1-2.05,1.74c-1.13.64-1.78,3.34-3.32,1.74-1.31-1.37-3-3.9-.77-5.8,3.62-3.12,4.25-6.82,3.57-11.26a7.81,7.81,0,0,1,2.53-6.87c.91-.88,2-2.37,3.43-1.15,1.2,1,2.59,2.26,1,4.35a6.62,6.62,0,0,0-1.73,4.74c1.08.05,1.39-.85,2-1.21,1.29-.75,2.14-3.31,4.17-1.19,2.45,2.55,2.36,4-.18,6.17-4.35,3.7-4.51,4.69-1.54,7.87a2.91,2.91,0,0,0,3.33.85c3.11-.78,6.3-1.22,9.42-2,3.75-.88,3.32,2.09,3.88,4.09.73,2.62-1.52,1.94-2.72,2.23-2.65.65-5.34,1.14-8.21,1.74,2.08,4.82,3.85,9.45,1.58,14.45-.45.87-1.35.73-1.6.2-1.07-2.25-3.32-2.41-5.2-3.24-1.21-1.5-1.05-3.43-1.62-5.14-.66-2-1.73-1.87-3-.58-2.16,2.23-2,7.21.15,9.45,1.52,1.59,2.39.08,3.47-.55a2.32,2.32,0,0,1,1.8.67" transform="translate(67.5 -0.01)"/><path d="M149.88,163.88a7.67,7.67,0,0,0,.25-4.19c-.59-2,7.62,1.8,7.62,1.8s-2.91,7-4.8,7C151.92,168.46,149.88,163.88,149.88,163.88Z" transform="translate(67.5 -0.01)"/><path d="M127,407.43c2.23-13.15,3.63-26.39,3.14-39.41a88.38,88.38,0,0,0-2.69-19,49.11,49.11,0,0,0-8-16.7,17.69,17.69,0,0,0-1.47-1.77c-.51-.56-1-1.18-1.54-1.71a37.14,37.14,0,0,0-3.5-3c-1.17-.95-2.59-1.89-4-2.83l-4.14-2.79c-5.54-3.74-11.19-7.32-16.87-10.83-11.42-7-23.07-13.51-34.57-20.49S30.7,274.13,21.05,264.27a97.87,97.87,0,0,1-6.92-7.75,75.73,75.73,0,0,1-5.93-8.73c-.48-.75-.85-1.57-1.27-2.36s-.84-1.59-1.17-2.36c-.72-1.55-1.41-3.13-2.09-4.72A58,58,0,0,1,.35,228.14,22.46,22.46,0,0,1,0,225.08a9.71,9.71,0,0,1,.55-4,5.23,5.23,0,0,1,.67-1.31c.15-.22.32-.45.49-.66a7.69,7.69,0,0,1,.66-.62,6,6,0,0,1,3.08-1.33,8.74,8.74,0,0,1,4.23.61,22.82,22.82,0,0,1,5.23,3c.75.55,1.48,1.13,2.19,1.75s1.54,1.47,2,1.86c2.27,2.17,4.84,4.45,7.28,6.67l7.39,6.75c9.84,9,19.64,18.14,29.1,27.65l-.47.56C51.3,258.42,40.61,250.38,30,242.21l-7.91-6.33c-2.63-2.12-5.17-4.14-7.87-6.43l-1.76-1.51a18.53,18.53,0,0,0-1.79-1.28,15.28,15.28,0,0,0-3.53-1.86,2.13,2.13,0,0,0-.66-.16,1.56,1.56,0,0,0,.82-.36.9.9,0,0,0,.19-.2.67.67,0,0,0,.14-.15,1.18,1.18,0,0,1,.11-.19,6.76,6.76,0,0,0,0,.9,13.27,13.27,0,0,0,.29,1.89A56.34,56.34,0,0,0,11,235.32c.61,1.5,1.23,3,1.9,4.48s1.3,2.84,2,4.24a78.16,78.16,0,0,0,11.18,15.43A161.55,161.55,0,0,0,40.2,273c5,4.3,10.1,8.52,15.42,12.51A292.35,292.35,0,0,0,89.13,307.3c5.84,3.24,11.76,6.34,17.73,9.39l4.46,2.31c1.49.79,3,1.53,4.51,2.51a35.13,35.13,0,0,1,8.28,6.89,39.68,39.68,0,0,1,6,9,50.13,50.13,0,0,1,3.59,10,79.87,79.87,0,0,1,1.76,10.31,98.63,98.63,0,0,1-.41,20.54c-.37,3.38-.94,6.73-1.63,10.05a111.19,111.19,0,0,1-5.74,19.41Z" transform="translate(67.5 -0.01)"/><path d="M6.79,220.53a34.51,34.51,0,0,1-.43-5.65A13,13,0,0,1,7.6,209a4.93,4.93,0,0,1,1.14-1.39,4,4,0,0,1,1.79-.85,6,6,0,0,1,3.52.48,38,38,0,0,1,5.07,3c6.19,4.3,12,8.93,17.8,13.51,2.9,2.3,5.89,4.48,8.86,6.67a108,108,0,0,1,8.51,7c2.72,2.47,5.39,4.94,8,7.5.66.63,1.35,1.21,2,1.86s1.32,1.29,2,1.87l2,1.86c.7.55,1.42,1.13,2.15,1.76l-.25.69c-1-.13-1.92-.32-2.9-.53a26.43,26.43,0,0,1-2.77-.92,53.86,53.86,0,0,1-5.25-2.39,84.49,84.49,0,0,1-9.62-6,78.47,78.47,0,0,1-8.6-7.16c-2.68-2.6-5.3-5.23-8-7.77L25,220.62c-2.68-2.53-5.36-5.07-8.11-7.44A39.89,39.89,0,0,0,12.74,210a3.57,3.57,0,0,0-1.85-.58,1.91,1.91,0,0,0-1.44.88A11.49,11.49,0,0,0,7.85,215a33,33,0,0,0-.38,5.44Z" transform="translate(67.5 -0.01)"/><path d="M13,208.49a27.07,27.07,0,0,1,1.46-5.23,13.45,13.45,0,0,1,3.09-4.77,6.64,6.64,0,0,1,2.79-1.58,6.31,6.31,0,0,1,3.34.05,9.88,9.88,0,0,1,2.84,1.3l2.25,1.49,17.53,11.94c2.91,2,5.92,3.85,8.9,5.73a96.06,96.06,0,0,1,8.57,6.14c2.73,2.2,5.42,4.47,8,6.82l3.93,3.52a34.45,34.45,0,0,0,4,3.33l-.12.72A16.78,16.78,0,0,1,74,236.79c-1.73-.63-3.43-1.32-5.06-2.1a87.25,87.25,0,0,1-9.45-5.15,76.86,76.86,0,0,1-8.63-6.27c-2.71-2.3-5.38-4.65-8.12-6.9l-8.18-6.79-8-6.92-2-1.72a7.44,7.44,0,0,0-1.82-1.17,3.65,3.65,0,0,0-3.78.46A11.66,11.66,0,0,0,15.85,204a24.72,24.72,0,0,0-2.15,4.71Z" transform="translate(67.5 -0.01)"/><path d="M26,197.14a16.92,16.92,0,0,1,.67-3.8A6.21,6.21,0,0,1,29,189.88a3.7,3.7,0,0,1,2.42-.39,2.47,2.47,0,0,1,.59.12l.51.21c.36.15.7.3.94.42l3.34,1.58,13.53,6.26q6.77,3.12,13.5,6.3l13.48,6.36c18,8.46,35.85,17.22,53.7,25.48l3.33,1.45a31.6,31.6,0,0,0,3.11,1.19c.17.06.11,0,.1,0s0,0-.05.07l.53-.07a4.26,4.26,0,0,0,2.75-1.72c.74-1.11.61-2.73-.42-4.46a16.67,16.67,0,0,0-4.68-4.6c-.9-.67-2-1.38-3.05-2.11s-2.07-1.46-3.08-2.21c-2-1.5-4-3.06-5.94-4.67a126.07,126.07,0,0,1-11.1-10.2,48.94,48.94,0,0,1-4.92-5.83,19.23,19.23,0,0,1-2-3.45,5.75,5.75,0,0,1-.29-4.51,3.94,3.94,0,0,1,1.84-1.81,6,6,0,0,1,2.26-.49,15.91,15.91,0,0,1,4,.52,61.44,61.44,0,0,1,7.23,2.44c9.29,3.82,18.2,8.33,27.24,12.18a62.14,62.14,0,0,0,6.78,2.43c.56.17,1.09.27,1.63.39a11.16,11.16,0,0,0,1.62.21l3.68.29c5,.37,10,.91,15,1.78a99.73,99.73,0,0,1,29.17,9.47,65.87,65.87,0,0,1,23.8,20.26c6.24,8.58,9.61,19.18,11.1,29.15a441.77,441.77,0,0,1,5.39,59.78,590.18,590.18,0,0,1-1.26,59.78h-.73l-.74-14.9-.89-14.87c-.64-9.91-1.3-19.8-2.14-29.67-1.76-19.73-3.73-39.44-7.32-58.75l-.64-3.62-.76-3.45c-.22-1.15-.59-2.26-.92-3.38s-.67-2.23-1.09-3.32a55.36,55.36,0,0,0-6.29-12.39,59.8,59.8,0,0,0-20.71-18.52,101.11,101.11,0,0,0-27-9.79c-4.75-1.07-9.56-1.87-14.45-2.58l-3.73-.55c-.61-.09-1.34-.24-2-.41a16,16,0,0,1-2-.61,65.22,65.22,0,0,1-7.08-3.07c-4.53-2.21-8.89-4.6-13.28-6.94s-8.76-4.64-13.27-6.6a46.1,46.1,0,0,0-6.83-2.49,14.21,14.21,0,0,0-3.37-.49,2.26,2.26,0,0,0-2.15,1,3.65,3.65,0,0,0,.31,2.71,17.38,17.38,0,0,0,1.77,3,47,47,0,0,0,4.77,5.48,104.08,104.08,0,0,0,11.25,9.5c2,1.44,4,2.84,6.07,4.16,1,.66,2.07,1.32,3.12,1.93s2.09,1.16,3.25,1.88a20.91,20.91,0,0,1,6.27,5.38,10.67,10.67,0,0,1,1.92,4.37,8.17,8.17,0,0,1-.78,5.21,9.11,9.11,0,0,1-3.66,3.67,9.84,9.84,0,0,1-2.39,1c-.44.08-.84.17-1.31.23a5.53,5.53,0,0,1-1,0,4.52,4.52,0,0,1-.82-.13,33.76,33.76,0,0,1-3.94-1.2c-1.23-.42-2.41-.88-3.58-1.35-4.68-1.9-9.27-3.86-13.79-6s-9-4.22-13.48-6.45L88,222.78,74.79,215.9c-4.42-2.3-8.79-4.68-13.16-7.05s-8.73-4.78-13.06-7.23-8.65-4.93-13-7.46c-1.08-.63-2.13-1.28-3.22-2s-1.76-1-2.56-.7a5,5,0,0,0-2,2.4,15.41,15.41,0,0,0-1.1,3.43Z" transform="translate(67.5 -0.01)"/><path d="M112.57,138.21v0l.09.21.17.44.35.86.71,1.74L115.3,145l2.86,6.9c1.92,4.59,3.87,9.16,5.9,13.69s4.12,9,6.5,13.26a47.56,47.56,0,0,0,3.82,6,6.73,6.73,0,0,0,1.91,1.81c.1,0,.07,0,0,0h-.12l.32-.1c.41-.11,1-.39,1.55-.58a224.59,224.59,0,0,0,26.08-13.67c8.44-5.11,16.82-10.36,24.89-16.09a239.12,239.12,0,0,0,23.16-18.59,162.72,162.72,0,0,0,19.89-22.08,132,132,0,0,0,24-53.5l1.88,2.82c-15.23-2.43-30.48-4.94-45.73-6.79-3.81-.46-7.62-.88-11.4-1.17-1.89-.16-3.77-.3-5.6-.35h-2.64a6.45,6.45,0,0,0-1.09.11l-.3.07a1.63,1.63,0,0,0,.49-.33,2.3,2.3,0,0,0,.54-.66l-.14.3-.28.6-.6,1.33c-.4.89-.84,1.78-1.26,2.67-.84,1.79-1.78,3.53-2.72,5.27-1.92,3.45-3.94,6.84-6.1,10.13s-4.44,6.49-6.78,9.64-4.84,6.18-7.47,9.09a199.53,199.53,0,0,1-16.46,16.7c-3,2.53-5.94,5.07-9,7.52s-6.15,4.78-9.32,7-6.46,4.41-9.66,6.44ZM112,138c3-2.26,6.15-4.63,9.4-7s6-4.86,9.06-7.24,5.81-5,8.72-7.53,5.56-5.28,8.31-7.94a228.11,228.11,0,0,0,15.3-17c2.47-2.91,4.67-6,7-9.06a112.28,112.28,0,0,0,6.33-9.47c2-3.23,3.91-6.5,5.69-9.84.86-1.68,1.72-3.36,2.54-5.06.41-.85.83-1.69,1.22-2.56l.6-1.31.34-.72.16-.35a4.66,4.66,0,0,1,.94-1.26,4.76,4.76,0,0,1,1.78-1,10.7,10.7,0,0,1,1.12-.26,17.78,17.78,0,0,1,1.79-.18,30.27,30.27,0,0,1,3.16,0c2,.07,4,.22,6,.39,3.91.4,7.78.91,11.63,1.46,15.39,2.26,30.62,5,45.81,8.07l2.43.49L260.79,63A125.86,125.86,0,0,1,250,91.28l-3.69,6.6-4,6.4-4.22,6.23-4.47,6a245.48,245.48,0,0,1-19.81,22.57,255.93,255.93,0,0,1-22.23,20.31,208.09,208.09,0,0,1-24.66,17.32c-4.3,2.61-8.72,5-13.2,7.33a136,136,0,0,1-13.86,6.3c-.67.22-1.18.44-2,.65l-.57.16a2.34,2.34,0,0,1-.45.07h-.58a4.54,4.54,0,0,1-1.84-.49,10.78,10.78,0,0,1-3.5-3.25,44.76,44.76,0,0,1-4-6.77c-2.22-4.59-4.15-9.23-5.88-13.94s-3.37-9.44-4.86-14.21c-.77-2.38-1.48-4.77-2.18-7.17-.35-1.2-.7-2.4-1-3.61L112.5,140l-.24-.9-.12-.45-.06-.23v-.11s0,0,0-.27Z" transform="translate(67.5 -0.01)"/><path d="M93.49,254.59a24.85,24.85,0,0,1,10.26-10.71,22.78,22.78,0,0,1,7.41-2.32,28.9,28.9,0,0,1,7.66.19,28.47,28.47,0,0,1,7.33,2.16,25.24,25.24,0,0,1,6.47,4,17.07,17.07,0,0,1,4.62,6,15.6,15.6,0,0,1,1.24,7.63,11.93,11.93,0,0,1-3.36,7.39,19,19,0,0,1-6.75,4.32,30,30,0,0,1-7.57,1.93,26.17,26.17,0,0,1-8-.15,18.75,18.75,0,0,1-2.07-.59c-.64-.23-1.23-.49-1.82-.75a44,44,0,0,1-9.48-6.25,29.74,29.74,0,0,1-5-5.68,10.24,10.24,0,0,1-1.53-3.5A5,5,0,0,1,93.49,254.59Zm.39.2a4,4,0,0,0-.4,3.33A7.59,7.59,0,0,0,95.32,261a23.06,23.06,0,0,0,5.78,4c2.08,1.11,4.25,2.07,6.38,3,1.08.45,2.15.92,3.22,1.33l1.59.56a14.57,14.57,0,0,0,1.45.35,26.36,26.36,0,0,0,6.58.19,28.77,28.77,0,0,0,6.63-1.26c4.2-1.4,8.12-3.86,9.15-8.19a11.31,11.31,0,0,0-.24-6.69,11.89,11.89,0,0,0-4.13-5.46,16.4,16.4,0,0,0-6.36-2.81,35.73,35.73,0,0,0-6.92-.81,47.08,47.08,0,0,0-13.65,1.08,19.11,19.11,0,0,0-6.34,2.94,14.28,14.28,0,0,0-4.58,5.47Z" transform="translate(67.5 -0.01)"/><path d="M92.81,259a14.35,14.35,0,0,0-3,6.82,8.35,8.35,0,0,0,2.06,6.6,23,23,0,0,0,6,4.14,59.91,59.91,0,0,0,7,3,57.9,57.9,0,0,0,14.65,3.21c4.85.25,10-.19,13-2.7l-.52.78a45.83,45.83,0,0,0,1.57-4.44c.49-1.54.89-3.11,1.31-4.7s.76-3.19,1.07-4.82l1-4.93h.44a43.12,43.12,0,0,1,.55,10.21,49.13,49.13,0,0,1-.6,5.13,35.3,35.3,0,0,1-1.26,5.16l-.12.38-.4.39a12.71,12.71,0,0,1-3.9,2.57,18,18,0,0,1-4.26,1.13,30.63,30.63,0,0,1-8.28-.26,64,64,0,0,1-15.27-4.47,60.86,60.86,0,0,1-7.08-3.56,22.94,22.94,0,0,1-6.29-5.1,9.86,9.86,0,0,1-1.81-7.91,14.7,14.7,0,0,1,3.78-6.92Z" transform="translate(67.5 -0.01)"/><path d="M51.4,95.54A45.62,45.62,0,0,0,63,100.25a19.85,19.85,0,0,0,5.85.46,17.81,17.81,0,0,0,5.51-1.4,21.15,21.15,0,0,0,9.25-7.9,31.26,31.26,0,0,0,1.58-2.76,28.21,28.21,0,0,0,1.12-2.94,10,10,0,0,0-.13-5.86,7.21,7.21,0,0,0-3.7-3.79,10.82,10.82,0,0,0-5.21-1.18c-.3,0-.94.1-1.5.17l-1.59.21c-1,.12-2.06.3-3.07.48a44.87,44.87,0,0,0-5.8,1.6A19.43,19.43,0,0,0,56,84.09a22.21,22.21,0,0,0-2.82,5.37l-.51,1.48a9.7,9.7,0,0,0-.45,1.48Zm-.41.17a22.55,22.55,0,0,1,2-13.43,26.29,26.29,0,0,1,1.92-3L56.13,78a9.66,9.66,0,0,1,1.31-1.25l1.4-1.14c.49-.36,1-.64,1.52-1A25.07,25.07,0,0,1,63.55,73a30.32,30.32,0,0,1,6.75-1.74c1.14-.14,2.27-.27,3.39-.34l1.66-.09c.52,0,1-.06,1.74-.06a13.46,13.46,0,0,1,5.53,1.36,9.5,9.5,0,0,1,1.63,1,9.78,9.78,0,0,1,4.18,6.15,14.14,14.14,0,0,1-.76,7c-.47,1-.82,2.1-1.34,3.08s-1,2-1.58,2.92l-1.69,2.86a31.5,31.5,0,0,1-1.92,2.8A18.45,18.45,0,0,1,76,102.6a14.39,14.39,0,0,1-6.94,2,18.72,18.72,0,0,1-7-1.07A23.92,23.92,0,0,1,56,100.37a24.27,24.27,0,0,1-2.62-2.12c-.42-.38-.81-.78-1.2-1.18-.19-.2-.37-.41-.55-.63l-.27-.32Z" transform="translate(67.5 -0.01)"/><path d="M51.41,95.64c-.07,2-.06,4.08.06,6.09.05,1,.14,2,.29,3a10.68,10.68,0,0,0,.7,2.79,2.11,2.11,0,0,0,.63.9c.35.23.86.49,1.29.73.89.47,1.78.94,2.69,1.36a48.73,48.73,0,0,0,5.56,2.27,33.29,33.29,0,0,0,11.55,2.1,17,17,0,0,0,10.42-3.6l1-.91a9.93,9.93,0,0,0,1.05-1c.69-.73,1.41-1.45,2.09-2.19,1.36-1.48,2.69-3,3.93-4.53,2.47-3.05,4.91-6.23,6-9.45a6.59,6.59,0,0,0,.08-4.57c-.14-.37-.34-.72-.51-1.09l-.72-1.06c-.61-.73-1.24-1.45-1.91-2.14a32.11,32.11,0,0,0-9.8-6.6l.1-.43A24.42,24.42,0,0,1,97.62,82l1.28,1,1.21,1.11,1.18,1.34c.36.51.69,1,1,1.58a10.57,10.57,0,0,1,.61,7.38c-1.31,4.64-4.14,8-7,11.11-1.43,1.54-2.94,3-4.44,4.4-.75.73-1.52,1.41-2.28,2.11s-1.72,1.38-2.57,2.06a20.23,20.23,0,0,1-12.51,3.64,36,36,0,0,1-12.25-2.84,52.72,52.72,0,0,1-5.6-2.74c-.9-.51-1.79-1-2.66-1.59-.46-.3-.85-.52-1.32-.88a3.25,3.25,0,0,1-1.07-1.6,12.22,12.22,0,0,1-.58-3.17c-.09-1-.09-2.07-.08-3.11A52.5,52.5,0,0,1,51,95.65Z" transform="translate(67.5 -0.01)"/><path d="M89.5.07c2.7-.09,5.29-.08,8,0a47.64,47.64,0,0,1,8.08.76,19.62,19.62,0,0,1,7.82,3.25,12.69,12.69,0,0,1,4.95,7.45,15.63,15.63,0,0,1-5.78,15.23c-4.3,3.44-9.56,5.15-14.85,6.2a39.79,39.79,0,0,1-8.15.72,23.83,23.83,0,0,1-8.39-1.58A30.16,30.16,0,0,1,74,27.63a21.52,21.52,0,0,1-5.62-6.75,13.72,13.72,0,0,1-1.28-4.61,10.53,10.53,0,0,1,.87-4.86,14.07,14.07,0,0,1,6.32-6.19,39.87,39.87,0,0,1,7.58-3c1.27-.41,2.56-.74,3.82-1.12S88.23.45,89.5.07Zm.07.44A36.23,36.23,0,0,0,75.9,7.62a14.17,14.17,0,0,0-4,5.41,7.64,7.64,0,0,0-.33,2.85,9,9,0,0,0,1,2.9A19.57,19.57,0,0,0,77,24.15a27.84,27.84,0,0,0,5.94,4.16,23.29,23.29,0,0,0,6.94,1.84,44.77,44.77,0,0,0,7.59.41c5.06-.17,10.41-1.47,14.2-4.89a11.48,11.48,0,0,0,3.61-6.29,13.75,13.75,0,0,0-.41-7c-1.36-4.23-5.44-7-10.07-9A35.16,35.16,0,0,0,89.57.51Z" transform="translate(67.5 -0.01)"/><path d="M68.51,15.82a79.4,79.4,0,0,1,1.82,9.78v.11l-.15.59A8,8,0,0,0,70,28.13a5.46,5.46,0,0,0,.4,1.83,6.48,6.48,0,0,0,.38.85l.5.8A9.33,9.33,0,0,0,72.73,33a29.61,29.61,0,0,0,7.9,4.22,36.94,36.94,0,0,0,19.18,1.66,38.1,38.1,0,0,0,8.93-2.72,16.51,16.51,0,0,0,6.67-5.41,19.45,19.45,0,0,0,3.12-8,25.49,25.49,0,0,0,.37-4.53,29,29,0,0,0-.3-4.56l.17.39c-.35-.71-.77-1.47-1.2-2.2s-.86-1.45-1.33-2.15a18.47,18.47,0,0,0-1.52-2,5.37,5.37,0,0,0-1.9-1.51l.07-.44a5.42,5.42,0,0,1,2.66.93,17.06,17.06,0,0,1,2.2,1.68c.68.61,1.32,1.26,1.94,1.92a26.67,26.67,0,0,1,1.75,2.12l.07.1.1.3a26.51,26.51,0,0,1,1.32,10.46,19,19,0,0,1-3.8,10.22,19.74,19.74,0,0,1-8.9,6.26A28.28,28.28,0,0,1,100,41.19c-1.69,0-3.36-.16-5-.24s-3.3-.27-4.95-.35-3.31-.24-5-.3c-.83,0-1.66-.14-2.5-.2s-1.7-.1-2.54-.24c-3.36-.47-6.9-1.39-9.84-3.9a12.2,12.2,0,0,1-2-2.17A10,10,0,0,1,67,31a8.69,8.69,0,0,1-.29-3,7.82,7.82,0,0,1,.76-3l-.13.7a83.11,83.11,0,0,1,.78-9.85Z" transform="translate(67.5 -0.01)"/><path d="M124.46,25.21a17.66,17.66,0,0,0,.5,11.91,20.16,20.16,0,0,0,2.84,4.71l.94,1c.15.16.29.33.46.48l.53.42a10.66,10.66,0,0,1,1,.88l1.18.74c3.31,2,7,4.26,11,4.62a8,8,0,0,0,5.48-1.44A11.84,11.84,0,0,0,152,44c.44-.91.85-1.82,1.22-2.77a7.92,7.92,0,0,0,.45-1.35,4.7,4.7,0,0,0,.31-1.28,9.1,9.1,0,0,0-.52-5,16.37,16.37,0,0,0-7.3-7.61c-.38-.22-.78-.37-1.17-.57a4.3,4.3,0,0,0-1.13-.38l-.53-.12c-.22-.05-.53-.08-.79-.12-.56-.08-1.07-.19-1.59-.28-2.08-.41-4-1-6-1.45a21.71,21.71,0,0,0-6-.81,6.18,6.18,0,0,0-2.83.71A3.64,3.64,0,0,0,124.46,25.21ZM124,25.1a4.73,4.73,0,0,1,1.66-2.77,9.25,9.25,0,0,1,3-1.36,29.85,29.85,0,0,1,6.45-.91,55.73,55.73,0,0,1,6.33.13l1.5.11.76.06,1,.14a14.35,14.35,0,0,1,1.85.48c.56.24,1.14.45,1.67.72A18.71,18.71,0,0,1,153.8,26a16.65,16.65,0,0,1,3.54,6.14,11.78,11.78,0,0,1,0,7.24,8.91,8.91,0,0,1-.68,1.66,10.26,10.26,0,0,1-.84,1.48c-.57.91-1.2,1.8-1.84,2.67a17.81,17.81,0,0,1-4.77,4.55,11.87,11.87,0,0,1-6.37,1.61,31.73,31.73,0,0,1-6.44-.83,32.64,32.64,0,0,1-6.19-2l-1.55-.76c-.48-.33-1-.68-1.42-1a6.67,6.67,0,0,1-1.32-1.17c-.41-.44-.8-.88-1.18-1.33a14,14,0,0,1-2.5-6.45,23.27,23.27,0,0,1,.3-6.56A50.11,50.11,0,0,1,124,25.1Z" transform="translate(67.5 -0.01)"/><path d="M120.82,29.88A103,103,0,0,0,119,40.2a30,30,0,0,0-.26,4.92,14.39,14.39,0,0,0,.63,4.32A5.1,5.1,0,0,0,121.15,52a4.37,4.37,0,0,0,.61.31l.32.15.54.18c.74.25,1.46.51,2.25.7a65.43,65.43,0,0,0,19.29,2.32c.8,0,1.56-.12,2.35-.16a14.22,14.22,0,0,0,2.23-.36,13.68,13.68,0,0,0,3.61-1.3,3.84,3.84,0,0,1,.56-.41l.58-.7a13.63,13.63,0,0,0,1-1.79,18.29,18.29,0,0,0,1.34-4.51,60.59,60.59,0,0,0,.85-10.33l.43-.1a42.93,42.93,0,0,1,1,10.54,21.94,21.94,0,0,1-.83,5.27,9.67,9.67,0,0,1-2.72,4.64c-2.91,2.29-6.58,3-10.08,3.32a52.84,52.84,0,0,1-21-2.5c-.85-.27-1.67-.61-2.49-.95a8.62,8.62,0,0,1-2.37-1.37A8.41,8.41,0,0,1,116,50.2c-.73-3.56-.09-7.16.75-10.57a57.46,57.46,0,0,1,3.65-9.94Z" transform="translate(67.5 -0.01)"/></svg>