<svg xmlns="http://www.w3.org/2000/svg" viewBox="0 0 125.43 162.14"><title>brandnew</title><path d="M371.29,356.21a2.13,2.13,0,0,1-2.14-2.13c0-9.09-4.63-19.57-12.71-28.74a2.14,2.14,0,1,1,3.2-2.83,61.7,61.7,0,0,1,9.56,14.36,2.29,2.29,0,0,0,4.15,0,65.54,65.54,0,0,1,30-30.07,2.3,2.3,0,0,0,0-4.16,65.5,65.5,0,0,1-30-30,2.3,2.3,0,0,0-4.16,0,65.52,65.52,0,0,1-30.06,30.05,2.29,2.29,0,0,0,0,4.15,58.61,58.61,0,0,1,9.68,5.8,2.14,2.14,0,0,1-2.52,3.45c-8.09-5.94-16.75-9.2-24.38-9.2a2.14,2.14,0,0,1,0-4.28c21.64,0,47.24-25.6,47.24-47.24a2.14,2.14,0,0,1,4.28,0c0,21.64,25.6,47.24,47.24,47.24a2.14,2.14,0,0,1,0,4.28c-21.64,0-47.24,25.6-47.24,47.24A2.13,2.13,0,0,1,371.29,356.21ZM415,292.79c0-3.59,1.56-7.7,4.4-11.56A2.14,2.14,0,1,0,416,278.7c-.41.56-.79,1.12-1.15,1.68a2.3,2.3,0,0,1-3.88,0A35.11,35.11,0,0,0,400.56,270a2.28,2.28,0,0,1,0-3.86,35.09,35.09,0,0,0,10.38-10.39,2.29,2.29,0,0,1,3.87,0,34.37,34.37,0,0,0,13.87,12.31c-.45.2-.88.42-1.32.65a2.14,2.14,0,0,0,2,3.78,18,18,0,0,1,8.21-2.29,2.14,2.14,0,1,0,0-4.27C427.45,266,415,253.53,415,243.41a2.14,2.14,0,1,0-4.27,0c0,10.12-12.44,22.55-22.55,22.55a2.14,2.14,0,1,0,0,4.27c10.11,0,22.55,12.44,22.55,22.56a2.14,2.14,0,0,0,4.27,0Zm-77.93-6.16c0-2.79,1.37-6.11,3.77-9.1a2.14,2.14,0,0,0-3.34-2.67q-.39.5-.75,1a2.28,2.28,0,0,1-3.67,0A27.37,27.37,0,0,0,327.2,270a2.28,2.28,0,0,1,0-3.69c.66-.47,1.3-1,1.93-1.54a2.14,2.14,0,0,0-2.82-3.21c-3.21,2.82-6.82,4.44-9.91,4.44a2.14,2.14,0,1,0,0,4.27c7.36,0,16.4,9,16.4,16.4a2.14,2.14,0,1,0,4.27,0Zm8.78-13.72a14.34,14.34,0,0,1,7.62-2.68,2.14,2.14,0,1,0,0-4.27c-7.35,0-16.4-9-16.4-16.4a2.14,2.14,0,1,0-4.27,0,14.76,14.76,0,0,1-3.2,8.36,2.14,2.14,0,1,0,3.45,2.53l0,0a2.3,2.3,0,0,1,3.73-.06,26.7,26.7,0,0,0,8.82,7.72,22.8,22.8,0,0,0-2.14,1.28,2.13,2.13,0,0,0,1.19,3.91A2.07,2.07,0,0,0,345.86,272.91Zm12.23-19.09c0-12.21,14.45-26.67,26.67-26.67a2.14,2.14,0,0,0,0-4.27,20.17,20.17,0,0,1-8.51-2.09,2.14,2.14,0,1,0-1.81,3.87l.8.36a39.46,39.46,0,0,0-17.34,15.51,2.28,2.28,0,0,1-3.9,0A40.25,40.25,0,0,0,340.44,227a2.28,2.28,0,0,1,0-3.9A40.34,40.34,0,0,0,354,209.51a2.28,2.28,0,0,1,3.91,0,38.42,38.42,0,0,0,4.17,5.68,2.13,2.13,0,1,0,3.2-2.82c-4.57-5.19-7.19-11.09-7.19-16.18a2.14,2.14,0,0,0-4.28,0c0,12.22-14.45,26.67-26.66,26.67a2.14,2.14,0,1,0,0,4.27c12.21,0,26.66,14.46,26.66,26.67a2.14,2.14,0,0,0,4.28,0Zm31.52-1.29c0-3.45,4.25-7.7,7.7-7.7a1.43,1.43,0,1,0,0-2.85c-3.45,0-7.7-4.24-7.7-7.69a1.43,1.43,0,1,0-2.85,0c0,3.45-4.24,7.69-7.7,7.69a1.43,1.43,0,0,0,0,2.85,10.82,10.82,0,0,0,7.47-3.7,2.28,2.28,0,0,1,3.34,0c.19.19.37.38.57.56a2.3,2.3,0,0,1,0,3.37,13.36,13.36,0,0,0-2.26,2.79,13.27,13.27,0,0,0-1.37-1.86,1.42,1.42,0,0,0-2.14,1.88,9.72,9.72,0,0,1,1.39,2,5.91,5.91,0,0,1,.7,2.61,1.43,1.43,0,1,0,2.85,0Z" transform="translate(-314.27 -194.08)" style="fill:#fff"/></svg>