<svg id="Layer_1" data-name="Layer 1" xmlns="http://www.w3.org/2000/svg" viewBox="0 0 741.4 660.46"><title>broadband</title><path d="M667.37,458.83c-44,.47-87.93,1.13-131.89,2.41L403.61,465.4c-44,1.51-87.91,2.85-131.87,3.63s-87.92,1-131.89,1.14l-7.41,0v-7.36c0-45.59,1.14-91.19,1.85-136.78l1.23-68.4.61-34.19.15-8.55c0-2.84.29-5.94-.21-7.68a9.65,9.65,0,0,0-9.23-7.31,9.76,9.76,0,0,0-9.46,7.25c-.55,1.81-.27,4.9-.38,7.74l-.06,8.55-.24,34.19c-.27,22.8-.16,45.6,0,68.4.21,45.59.41,91.19,1.23,136.78l.08,4-4.11.06-36.61.54A47.07,47.07,0,0,0,47,479.29a45.77,45.77,0,0,0-15,28.32,51.52,51.52,0,0,0-.44,8.25l.15,9.16L32,543.34l.83,73.25c.06,2.95,0,6.33.17,8.93a49.69,49.69,0,0,0,1,7.79,43.38,43.38,0,0,0,6.07,14.33A45.05,45.05,0,0,0,64.41,666c5.15,1.54,9.75,1.9,15.75,1.85l18.32-.11,36.62-.23,73.26-.46c48.83-.48,97.67-.26,146.51-.14l146.51.52c48.83.86,97.67,1.1,146.5,2.55,6,.1,12.45.41,18.08.34a46.15,46.15,0,0,0,16.1-3.07,47.63,47.63,0,0,0,24.46-21.75,46.56,46.56,0,0,0,5.21-16c.57-5.53.74-11.9,1.09-17.93l1.86-36.6,1.75-36.6.76-18.31c.22-6.12.81-12.22-.1-18.05a49.55,49.55,0,0,0-16.8-30.74A51.29,51.29,0,0,0,667.37,458.83Zm0-1.73a53,53,0,0,1,52.29,44.52c1.13,6.26.67,12.44.62,18.49L720,538.42l-.37,36.63-.25,36.62c-.09,6.16,0,12-.32,18.66a54.6,54.6,0,0,1-5.22,18.88,56.1,56.1,0,0,1-47.39,32c-6.56.39-12.34.37-18.55.57-48.83,1.45-97.67,1.69-146.5,2.55l-146.51.52c-48.84.12-97.68.34-146.51-.14l-73.26-.45L98.48,684l-18.32-.12c-6.18,0-13.88-.61-20.42-2.78a59.63,59.63,0,0,1-32.5-25.37,58.74,58.74,0,0,1-7.7-19.4A64.82,64.82,0,0,1,18.45,626c-.13-3.5,0-6.23,0-9.38l.83-73.25L19.6,525l.16-9.16a64,64,0,0,1,.87-10,56.94,56.94,0,0,1,56.63-47.6l36.64.52-4,4c.83-45.59,1-91.19,1.24-136.78.16-22.8.27-45.6,0-68.4l-.25-34.19-.06-8.55c.12-2.84-.4-5.53.45-9.29a16.2,16.2,0,0,1,31.42-.06c.91,3.82.4,6.52.61,9.35l.15,8.55.62,34.19,1.22,68.4c.71,45.59,1.85,91.19,1.85,136.78l-7.4-7.34c44-.7,87.93-1.36,131.9-1.29s87.95.5,131.92,1.19l131.92,1.73C579.43,457.59,623.4,457.44,667.36,457.1Z" transform="translate(21 -24.54)"/><path d="M486.81,592.73a32.76,32.76,0,0,1-7.89,21.51,32.22,32.22,0,0,1-21.51,11.56,33.25,33.25,0,1,1,0-66.12C475.21,561.53,487.1,577.5,486.81,592.73Zm-.87,0a28.42,28.42,0,1,0-8.43,20.09A28.51,28.51,0,0,0,485.94,592.73Z" transform="translate(21 -24.54)"/><path d="M573.22,590.83a32.7,32.7,0,0,1-7.88,21.51,32.27,32.27,0,0,1-21.51,11.57,33.26,33.26,0,1,1,0-66.13C561.63,559.63,573.52,575.6,573.22,590.83Zm-.86,0a28.36,28.36,0,0,0-48.48-20,28.32,28.32,0,0,0,40,40A28.58,28.58,0,0,0,572.36,590.83Z" transform="translate(21 -24.54)"/><path d="M659.47,588.67a32.77,32.77,0,0,1-5.56,22.23,32.2,32.2,0,0,1-20.18,13.77,33.25,33.25,0,1,1-7-65.75C644.65,558.87,658.16,573.5,659.47,588.67Zm-.85.1A28.37,28.37,0,0,0,608.3,574a28.32,28.32,0,0,0,44.05,35.6A28.56,28.56,0,0,0,658.62,588.77Z" transform="translate(21 -24.54)"/><path d="M-21,115.25C-11,88.8,8.88,65.68,33.65,49.75,45.92,41.47,59.75,35.67,74,31.13a173.39,173.39,0,0,1,44.2-6.59,174.63,174.63,0,0,1,44.31,5.76C176.75,34.51,190.69,40,203.13,48c25.09,15.39,45.42,38.06,56,64.27l-1.42,1A166.54,166.54,0,0,0,118.33,41.78a165,165,0,0,0-78.15,19.9A167.86,167.86,0,0,0-19.56,116.2Z" transform="translate(21 -24.54)"/><path d="M10.37,145.78C16.86,124.71,31.83,106.09,51,93.25c9.44-6.73,20.26-11.33,31.34-15.06a134.48,134.48,0,0,1,34.65-5.33,134.65,134.65,0,0,1,34.72,4.69c11.16,3.46,22.06,7.86,31.64,14.37,19.38,12.43,34.74,30.71,41.71,51.6l-1.43,1A127.16,127.16,0,0,0,117.12,90.09a126,126,0,0,0-59.63,15.09,128.11,128.11,0,0,0-45.68,41.55Z" transform="translate(21 -24.54)"/><path d="M37.51,185.63c3.69-16.82,14.83-31.9,29.49-42.3,7.21-5.51,15.66-9.17,24.28-12.26a104.15,104.15,0,0,1,27.11-4.34,103.9,103.9,0,0,1,27.18,3.85c8.69,2.87,17.19,6.38,24.52,11.72,14.87,10.09,26.32,24.9,30.4,41.62l-1.42,1a96.65,96.65,0,0,0-35.24-30.57A95.63,95.63,0,0,0,118.57,144a95,95,0,0,0-45,11.29A96.8,96.8,0,0,0,39,186.58Z" transform="translate(21 -24.54)"/></svg>