<svg id="Layer_1" data-name="Layer 1" xmlns="http://www.w3.org/2000/svg" viewBox="0 0 703.01 643"><title>cabinets</title><path d="M224.51,805.82a39.29,39.29,0,0,0,1.89,5.78,19.12,19.12,0,0,0,3.77,6.61,22.18,22.18,0,0,0,12.26,9.49,30.39,30.39,0,0,0,8.49,1.24H258c3.3,0,5.66-.42,8.49-.42h9.43l37.72.42c50,.41,100.43.41,150.4.82h69.79l4.24.41c6.13.42,12.73.83,19.8.83H564c3.3,0,6.13-.83,9-1.24a23.52,23.52,0,0,0,14.14-8.25c3.3-4.13,4.72-9.49,5.19-14.86.47-1.65,0-2.48.47-2.89v-7c0-6.2-.94-11.56-1.41-17.34-.47-5.36-1.42-11.55-1.42-15.27V207.81a16.05,16.05,0,0,0-3.77-8.67c-3.77-4.95-11.79-7.43-18.86-9.49a101.34,101.34,0,0,0-16-1.65c-9,0-17,.83-24,1.24-5.65.41-14.14,0-21.68.41H344.75c-58,0-105.15,6.19-105.15,14-1.88,0-3.77,5.78-4.24,17.34h0c-3.77,174.57-7.07,349.56-9,525,0,9.91-1.89,20.64-2.83,31.78a110.71,110.71,0,0,0-.47,17.75C223.57,799.22,224,802.52,224.51,805.82Zm336.65-2.06h0c0,.41-.47.41,0,0-.47.41-2.36.41-3.77.41-5.19,0-11.32-.41-17.45-.82l-5.18-.41H463.09c-50,.41-100.43.41-150.41.82l-37.72.41h-9.43c-3.3,0-7.07.42-10.37.42H252.8a1,1,0,0,1-.94-.83,1.2,1.2,0,0,0-.47-.82l-.47-2.07a28.28,28.28,0,0,1-.95-6.6c-.47-4.54,0-9.91.48-15.27.47-10.32,2.35-21.46,2.35-33.43-.47-40.45-.94-80.89-1.88-121.34a26.24,26.24,0,0,0,5.66.83H375.39c60.83,0,121.65-3.3,182-9.08V763.73c0,7,.94,12.38,1.41,17.75s1,10.73,1.42,15.68v3.71Zm-124-585.63h80.15c3.3,0,9,0,12.73-.41,8-.42,15.09-1.24,21.69-1.24H556a6.4,6.4,0,0,1,2.35.41h0V607.31a1784.61,1784.61,0,0,0-182-9.08H257.05a27.12,27.12,0,0,0-6.13.83c-1.89-125.88-3.77-252.17-6.6-377.63h0A46.52,46.52,0,0,0,242.43,207c9.9,6.2,52.34,11.15,103.26,11.15Z" transform="translate(-222.9 -188)"/><path d="M557.68,805.82a38,38,0,0,0,1.88,5.78,19.28,19.28,0,0,0,3.77,6.61,22.21,22.21,0,0,0,12.26,9.49,30.39,30.39,0,0,0,8.49,1.24h7.07c3.3,0,5.66-.42,8.49-.42h9.43l37.72.42c50,.41,100.43.41,150.41.82H867l4.24.41c6.13.42,12.73.83,19.8.83h6.13c3.3,0,6.13-.83,9-1.24a23.54,23.54,0,0,0,14.15-8.25c3.3-4.13,4.71-9.49,5.18-14.86.48-1.65,0-2.48.48-2.89v-7c0-6.2-.95-11.56-1.42-17.34-.47-5.36-1.41-11.55-1.41-15.27V207.81a16.14,16.14,0,0,0-3.78-8.67c-3.77-4.95-11.78-7.43-18.86-9.49a101,101,0,0,0-16-1.65c-8.95,0-17,.83-24,1.24-5.66.41-14.15,0-21.69.41H677.91c-58,0-105.15,6.19-105.15,14-1.88,0-3.77,5.78-4.24,17.34h0c-3.77,174.57-7.07,349.56-9,525,0,9.91-1.88,20.64-2.83,31.78a110.71,110.71,0,0,0-.47,17.75C556.73,799.22,557.21,802.52,557.68,805.82Zm336.64-2.06h0c0,.41-.47.41,0,0-.47.41-2.35.41-3.77.41-5.18,0-11.31-.41-17.44-.82l-5.19-.41H796.25c-50,.41-100.42.41-150.4.82l-37.72.41H598.7c-3.3,0-7.08.42-10.38.42H586a1,1,0,0,1-1-.83,1.2,1.2,0,0,0-.47-.82l-.47-2.07a28.3,28.3,0,0,1-.94-6.6c-.47-4.54,0-9.91.47-15.27.47-10.32,2.36-21.46,2.36-33.43-.47-40.45-1-80.89-1.89-121.34a26.33,26.33,0,0,0,5.66.83H708.56c60.82,0,121.64-3.3,182-9.08V763.73c0,7,1,12.38,1.42,17.75s.94,10.73,1.41,15.68v3.71Zm-124-585.63h80.16c3.3,0,8.95,0,12.73-.41,8-.42,15.08-1.24,21.69-1.24h4.24a6.49,6.49,0,0,1,2.36.41h0V607.31a1785,1785,0,0,0-182-9.08H590.21a27.2,27.2,0,0,0-6.13.83c-1.89-125.88-3.77-252.17-6.6-377.63h0A46.21,46.21,0,0,0,575.59,207c9.91,6.2,52.34,11.15,103.26,11.15Z" transform="translate(-222.9 -188)"/></svg>