<svg xmlns="http://www.w3.org/2000/svg" viewBox="0 0 133.15 186.12"><title>choice</title><path d="M332.57,266.36c0-.1.11-.42.16-.64l.15-.8c.09-.53.22-1.06.32-1.6.24-1.07.51-2.13.84-3.19a16.12,16.12,0,0,1,3.22-6.09,6.67,6.67,0,0,1,3.4-2,7.63,7.63,0,0,1,3.94.17,10.89,10.89,0,0,1,5.58,4.88c.29.46.62,1,.79,1.26l0,0a1,1,0,0,0-.44-.31l-.07,0a2,2,0,0,0-.23-.06,1.3,1.3,0,0,0-.48,0,1.24,1.24,0,0,0-.39.09l-.11.06h0a4.32,4.32,0,0,0,.38-.36c.7-.71,1.49-1.57,2.35-2.33a14.7,14.7,0,0,1,6.22-3.59,9.39,9.39,0,0,1,3.84-.17,7,7,0,0,1,3.57,1.76,8.32,8.32,0,0,1,2,3.15,11.93,11.93,0,0,1,.72,3.49l-1.3-.75a15.77,15.77,0,0,1,6.75-1.15,6.33,6.33,0,0,1,3.35,1.2,10.05,10.05,0,0,1,2.22,2.68,37.78,37.78,0,0,1,2.83,6c.8,2.06,1.49,4.16,2.1,6.27s1.15,4.27,1.57,6.46a34.89,34.89,0,0,1,.39,6.77c-.08,4.43-.43,8.75-.63,13.05-.09,2.16-.17,4.3-.18,6.41a48.17,48.17,0,0,0,.26,6.24,26.91,26.91,0,0,0,.44,3l.66,3.23c.43,2.15.76,4.31,1.13,6.44,1.38,8.61,2.49,17.24,3.15,25.95l-.39.07c-2.35-8.41-4.34-16.87-6.3-25.32l-1.48-6.3-.74-3.13a31.24,31.24,0,0,1-.64-3.45,68.6,68.6,0,0,1,.13-13.38c.35-4.39.9-8.68,1.24-12.94a44,44,0,0,0,.17-6.24c-.17-2.1-.47-4.25-.83-6.35a38.19,38.19,0,0,0-3.92-12.13,8.08,8.08,0,0,0-1.88-2.35,5.17,5.17,0,0,0-2.72-.88,12.77,12.77,0,0,0-5.9,1.51l-1.06.56-.22-1.3a7.57,7.57,0,0,0-2.63-4.79,4.38,4.38,0,0,0-2.28-.79,7,7,0,0,0-2.57.36,14.1,14.1,0,0,0-4.77,3c-.74.69-1.44,1.4-2.27,2.2a6.93,6.93,0,0,1-.83.71l-.2.13a2.64,2.64,0,0,1-.29.15,2.82,2.82,0,0,1-.57.15,1.94,1.94,0,0,1-.59,0l-.29-.08-.11-.05a2.54,2.54,0,0,1-.74-.56l-.21-.28c-.44-.65-.63-1-.91-1.5a8,8,0,0,0-3.7-3.8,5.41,5.41,0,0,0-2.43-.3,4.06,4.06,0,0,0-2.19,1.06,15.84,15.84,0,0,0-3.43,4.91c-.47.94-.88,1.93-1.32,2.91l-.63,1.5-.33.75a2.58,2.58,0,0,1-.49.81Z" transform="translate(-258.85 -180.53)" style="fill:#fff"/><path d="M390.11,352.86l-.21-.74c-2.37-8.48-4.42-17.18-6.31-25.36l-2.23-9.43a30.38,30.38,0,0,1-.64-3.53,67.61,67.61,0,0,1,.12-13.56c.17-2.19.4-4.36.62-6.52s.45-4.29.61-6.42l0-.27a42.8,42.8,0,0,0,.16-5.84c-.15-1.9-.42-3.95-.83-6.27-.69-3.77-1.68-8.14-3.81-11.85A7.41,7.41,0,0,0,376,261a4.18,4.18,0,0,0-2.26-.72,11.24,11.24,0,0,0-4.44.93l0,.37-.37-.22q-.35.15-.69.33l-2.09,1.1-.41-2.46c-.06-.32-.13-.64-.22-.95l-.44-.25.32-.11a6,6,0,0,0-1.95-2.92,3.58,3.58,0,0,0-1.84-.64,6.85,6.85,0,0,0-2.25.32,12.89,12.89,0,0,0-4.47,2.88c-.53.49-1,1-1.59,1.53l-.66.65a7.73,7.73,0,0,1-.92.78l-.26.17-.32.17a3.74,3.74,0,0,1-.88.25A3.17,3.17,0,0,1,349,262l-.2-.08a3.51,3.51,0,0,1-1-.75l-.27-.35c-.34-.5-.53-.84-.72-1.17l-.13-.23-.53.1.4-.32c-1.08-1.87-2.11-2.95-3.25-3.39a4.56,4.56,0,0,0-2-.25,3.36,3.36,0,0,0-1.76.89,14.62,14.62,0,0,0-3.19,4.62c-.36.71-.68,1.45-1,2.19L334,266.23a3.41,3.41,0,0,1-.63,1l-.78.87-.93-1.59,0-.28a2.7,2.7,0,0,1,.09-.38,2.34,2.34,0,0,0,.07-.32l.16-.8c.06-.33.13-.68.2-1l.12-.58c.27-1.21.55-2.27.87-3.28a16.77,16.77,0,0,1,3.38-6.4,7.46,7.46,0,0,1,3.9-2.28,8.43,8.43,0,0,1,4.34.2,11,11,0,0,1,5.48,4.39c.34-.35.7-.69,1.07-1A15.52,15.52,0,0,1,358,251a10,10,0,0,1,4.18-.18,7.69,7.69,0,0,1,4,2,9.13,9.13,0,0,1,2.27,3.49,13.2,13.2,0,0,1,.46,1.55,14.64,14.64,0,0,1,5-.52,7.15,7.15,0,0,1,3.78,1.36,11,11,0,0,1,2.45,2.94,39,39,0,0,1,2.9,6.13c.76,2,1.48,4.13,2.12,6.33s1.17,4.4,1.58,6.53a36.2,36.2,0,0,1,.41,7c-.05,2.84-.22,5.68-.38,8.43-.09,1.55-.18,3.09-.25,4.63-.1,2.15-.17,4.27-.19,6.38a48.35,48.35,0,0,0,.26,6.14A25.16,25.16,0,0,0,387,316l.65,3.23c.33,1.62.6,3.24.87,4.85l.27,1.62c1.51,9.37,2.54,17.89,3.16,26l.06.76Zm-7.88-82.33c.34,1.41.62,2.78.86,4.09.41,2.38.69,4.48.84,6.44a41.54,41.54,0,0,1-.15,6.09l0,.28c-.17,2.15-.39,4.3-.62,6.47s-.45,4.3-.62,6.48a67.28,67.28,0,0,0-.13,13.22,30.12,30.12,0,0,0,.62,3.34l2.22,9.44c1.35,5.83,2.78,11.93,4.35,18-.61-5.83-1.42-11.9-2.47-18.39l-.27-1.62c-.26-1.59-.53-3.19-.85-4.79l-.66-3.23a26.41,26.41,0,0,1-.45-3.07,51.31,51.31,0,0,1-.27-6.33c0-2.11.09-4.25.19-6.42.07-1.55.16-3.1.25-4.66.16-2.73.33-5.55.38-8.37a35.74,35.74,0,0,0-.38-6.63c-.4-2.05-.9-4.13-1.55-6.35C383.11,273.17,382.68,271.83,382.23,270.53Zm-33.8-11.41c.13.22.28.46.48.77l.19.25a1.85,1.85,0,0,0,.44.31,1.31,1.31,0,0,0,.51.07,1.4,1.4,0,0,0,.35-.1l.3-.17a5.69,5.69,0,0,0,.75-.63l.66-.64c.56-.56,1.08-1.07,1.63-1.58a14.59,14.59,0,0,1,5.07-3.23,8.22,8.22,0,0,1,2.87-.41,5.39,5.39,0,0,1,2.73.94,7.54,7.54,0,0,1,2.57,3.73l.3-.11a13,13,0,0,0-.43-1.47A7.54,7.54,0,0,0,365,254a6,6,0,0,0-3.12-1.52,8.23,8.23,0,0,0-3.49.15,13.75,13.75,0,0,0-5.86,3.4c-.45.39-.87.8-1.26,1.2v0c.15.25.29.48.38.61l-1.32,1.06-.28-.13h0l-.24-.07,0,0-.27-.33.13.43-.2.07Zm-6.11-6.42a6.56,6.56,0,0,0-1.47.16,6,6,0,0,0-3,1.78A15,15,0,0,0,335,260a15.61,15.61,0,0,1,3.47-4.84,5,5,0,0,1,2.71-1.27,6.23,6.23,0,0,1,2.75.36,8.33,8.33,0,0,1,4,3.88l.84-.7.31-.3.12-.13a9.63,9.63,0,0,0-4.8-4A7,7,0,0,0,342.32,252.7Z" transform="translate(-258.85 -180.53)" style="fill:#fff"/><path d="M341.13,365.58c-1.4-4.28-2.68-8.59-4-12.89l-1.94-6.43a15,15,0,0,0-3.34-5.24A54.08,54.08,0,0,0,321.52,333c-1.87-1.2-3.78-2.35-5.72-3.52-1-.59-1.93-1.17-2.89-1.79a17.32,17.32,0,0,1-2.92-2.27,23,23,0,0,1-4.25-5.87,48.25,48.25,0,0,1-2.74-6.41c-1.57-4.29-2.79-8.62-4.27-12.79A35.35,35.35,0,0,0,292,289.35a67.2,67.2,0,0,0-9.6-9.1l-.24-.19-.07-.21a6.84,6.84,0,0,1-.17-3.93,4.62,4.62,0,0,1,2.64-3,9.32,9.32,0,0,1,3.69-.67,22.67,22.67,0,0,1,3.58.31,23.23,23.23,0,0,1,6.64,2.52,40.7,40.7,0,0,1,5.85,3.89,56.79,56.79,0,0,1,9.85,10,30.77,30.77,0,0,1,3.72,6.08c.5,1,.87,2.54,1.15,3a.47.47,0,0,0-.1-.1l-.14-.08a.76.76,0,0,0-.39-.1,1,1,0,0,0-.68.28c-.13.16-.09.11-.13.18s0,0,0-.14a6.13,6.13,0,0,0,0-.74c0-.54,0-1.1,0-1.66A135.41,135.41,0,0,0,316,282c-.36-2.26-.77-4.52-1.3-6.67l-1.74-6.7c-2.31-8.95-4.59-17.91-7-26.83l-3.6-13.37c-.61-2.22-1.24-4.44-1.92-6.54a34.7,34.7,0,0,1-1.12-3.45,23.71,23.71,0,0,1-.61-3.74,21,21,0,0,1,.63-7.61,11.68,11.68,0,0,1,1.81-3.76,7.66,7.66,0,0,1,3.69-2.67,5.09,5.09,0,0,1,2.68-.19,5.85,5.85,0,0,1,2.28,1.08,12,12,0,0,1,2.7,3.06,36.2,36.2,0,0,1,3.18,6.57c.83,2.23,1.55,4.47,2.18,6.74.31,1.12.61,2.29.87,3.41s.62,2.15.95,3.23l4.06,13.27q2.07,6.61,4.07,13.26l4,13.28-.37.13c-1.7-4.3-3.31-8.64-4.94-13s-3.23-8.68-4.8-13l-4.68-13.07c-.39-1.13-.77-2.13-1.15-3.38s-.62-2.18-1-3.27c-.69-2.17-1.46-4.3-2.33-6.38a31.86,31.86,0,0,0-3.07-5.8,8.63,8.63,0,0,0-1.92-2.08,2.19,2.19,0,0,0-.84-.37,1.22,1.22,0,0,0-.73.12c-1.38.48-2.37,2-2.89,3.91a17.16,17.16,0,0,0-.37,6.14,19,19,0,0,0,.56,3.08c.24,1,.63,1.84,1.05,3.14.74,2.3,1.37,4.53,2,6.77,1.24,4.48,2.38,9,3.47,13.47q3.28,13.5,6.43,27l1.52,6.75c.5,2.36.82,4.67,1.1,7a131.09,131.09,0,0,1,.92,14c0,.59,0,1.18-.07,1.8a7.94,7.94,0,0,1-.11,1,2.18,2.18,0,0,1-.21.7,1.08,1.08,0,0,1-.24.36,1,1,0,0,1-.3.24,1.21,1.21,0,0,1-.56.13,1.06,1.06,0,0,1-.5-.12,1.14,1.14,0,0,1-.23-.15,1.09,1.09,0,0,1-.24-.24,4,4,0,0,1-.52-1.08c-.1-.3-.19-.59-.27-.88a15.81,15.81,0,0,0-.51-1.56,30,30,0,0,0-3.25-5.87,48.46,48.46,0,0,0-9.32-10c-3.54-2.82-7.56-5.29-11.95-6.11a11.78,11.78,0,0,0-6.41.45,3,3,0,0,0-1.73,2.08,5.34,5.34,0,0,0,.29,2.88l-.32-.4a69.13,69.13,0,0,1,10.48,8.83,37,37,0,0,1,7.91,11.53c1.66,4.26,3,8.57,4.49,12.72s3.21,8.21,6.08,11.07a14,14,0,0,0,2.37,1.89l2.79,1.83c1.89,1.22,3.79,2.46,5.67,3.74a52.45,52.45,0,0,1,10.51,9,16.9,16.9,0,0,1,3.47,6.29c.55,2.24,1,4.39,1.5,6.61.95,4.39,1.95,8.78,2.84,13.19Z" transform="translate(-258.85 -180.53)" style="fill:#fff"/><path d="M340.59,366.65l-.26-.81c-1-3.07-1.95-6.16-2.89-9.25l-3.07-10.09a14,14,0,0,0-3.16-4.91,53.56,53.56,0,0,0-10.15-7.93c-1.86-1.19-3.76-2.34-5.69-3.5l-.77-.47c-.72-.44-1.44-.88-2.15-1.34a18.15,18.15,0,0,1-3-2.37,23.84,23.84,0,0,1-4.42-6.1,50.4,50.4,0,0,1-2.79-6.51c-.84-2.29-1.58-4.6-2.31-6.89-.64-2-1.27-4-2-5.9a34.14,34.14,0,0,0-6.58-10.68,66.57,66.57,0,0,0-9.48-9l-.45-.36-.15-.46a7.55,7.55,0,0,1-.38-3.17L279.36,275l1.64,1.12.09-.39a5.43,5.43,0,0,1,3.13-3.57,10,10,0,0,1,4-.74,22,22,0,0,1,3.71.32,23.93,23.93,0,0,1,6.92,2.61,41.91,41.91,0,0,1,5.95,4,57.42,57.42,0,0,1,10,10.13c.52.67,1,1.37,1.5,2.09-.3-2.81-.68-5.61-1.15-8.38s-.83-4.76-1.28-6.61l-3.23-12.48c-1.81-7-3.62-14-5.5-21l-3.59-13.37c-.51-1.84-1.18-4.24-1.91-6.5a34.74,34.74,0,0,1-1.14-3.49,24.45,24.45,0,0,1-.63-3.89,21.74,21.74,0,0,1,.65-7.9,12.49,12.49,0,0,1,1.95-4,8.45,8.45,0,0,1,4.11-3,5.83,5.83,0,0,1,3.1-.22,6.45,6.45,0,0,1,2.64,1.25,12.94,12.94,0,0,1,2.9,3.27,36.92,36.92,0,0,1,3.25,6.73c.83,2.22,1.55,4.45,2.21,6.8.31,1.14.61,2.32.87,3.45.18.69.44,1.52.68,2.34l4.32,14.1q2.07,6.61,4.07,13.27l4.27,14.05-1.9.67-.29-.76c-1.55-3.91-3-7.85-4.5-11.78l-.45-1.21c-1.63-4.34-3.24-8.69-4.8-13l-5-14c-.28-.78-.55-1.55-.83-2.44-.33-1.16-.62-2.2-1-3.27-.69-2.21-1.46-4.33-2.3-6.31a30.64,30.64,0,0,0-3-5.66,7.74,7.74,0,0,0-1.73-1.88,1.37,1.37,0,0,0-.49-.22.59.59,0,0,0-.18.06c-1.11.39-2,1.6-2.46,3.37a16.26,16.26,0,0,0-.34,5.82,18.69,18.69,0,0,0,.54,3,15.22,15.22,0,0,0,.54,1.7c.16.41.32.86.49,1.39.79,2.42,1.44,4.79,2,6.81,1.12,4.08,2.26,8.49,3.47,13.49,2.2,9,4.36,18.1,6.43,27l1.52,6.76c.52,2.46.85,4.85,1.12,7.07a130,130,0,0,1,.92,14.09c0,.62,0,1.23-.07,1.87a6.61,6.61,0,0,1-.12,1.07,3.18,3.18,0,0,1-.27.9,2.11,2.11,0,0,1-.92,1,1.7,1.7,0,0,1-1,.22,2.07,2.07,0,0,1-.85-.19,2,2,0,0,1-.4-.26,1.86,1.86,0,0,1-.39-.4,4.56,4.56,0,0,1-.65-1.33c-.1-.3-.19-.6-.28-.91a15,15,0,0,0-.48-1.48,28.7,28.7,0,0,0-3.15-5.68,47.61,47.61,0,0,0-9.16-9.8c-4.16-3.32-7.95-5.26-11.58-5.94a10.67,10.67,0,0,0-5.9.39,2.16,2.16,0,0,0-1.26,1.49,4.51,4.51,0,0,0,.1,1.93A68.3,68.3,0,0,1,294.49,287c4,4.21,6.5,7.84,8.09,11.79,1,2.65,1.94,5.32,2.82,7.91.56,1.63,1.11,3.25,1.68,4.85,1.55,4.12,3.17,8.05,5.88,10.75a14.76,14.76,0,0,0,2.23,1.78l3,2c1.83,1.19,3.67,2.38,5.48,3.62a54.2,54.2,0,0,1,10.68,9.11,17.58,17.58,0,0,1,3.65,6.61c.53,2.19,1,4.28,1.45,6.42l.95,4.33c.67,3,1.33,6.07,2,9.12l.14.73ZM285.7,281.88a67.57,67.57,0,0,1,6.93,6.92A35.64,35.64,0,0,1,299.52,300c.7,2,1.34,3.94,2,6,.73,2.26,1.46,4.55,2.29,6.84a48.54,48.54,0,0,0,2.7,6.3,22,22,0,0,0,4.1,5.66,16.37,16.37,0,0,0,2.76,2.15c.72.46,1.43.9,2.13,1.33l.76.46c1.94,1.17,3.86,2.33,5.74,3.53a55.08,55.08,0,0,1,10.48,8.21A15.71,15.71,0,0,1,336,346l1.67,5.53c-.41-1.89-.82-3.75-1.29-5.68a16,16,0,0,0-3.3-5.94,52.31,52.31,0,0,0-10.34-8.81c-1.8-1.23-3.63-2.41-5.45-3.59l-3-2a15.1,15.1,0,0,1-2.51-2c-2.95-2.94-4.65-7.05-6.27-11.37-.59-1.62-1.14-3.24-1.7-4.88-.87-2.57-1.78-5.23-2.79-7.84-1.5-3.73-3.89-7.2-7.73-11.24a67.19,67.19,0,0,0-7.8-6.89ZM318.16,299l.21.74v-.85l.24-.1a1.68,1.68,0,0,0,.22-.59l-.44.34Zm.19-5,.3.63a9,9,0,0,1,.36.88h0a128.87,128.87,0,0,0-.91-13.89c-.26-2.18-.58-4.53-1.09-6.92L315.49,268c-2.07-8.92-4.23-18-6.42-27-1.21-5-2.34-9.38-3.46-13.44-.55-2-1.2-4.35-2-6.74-.17-.5-.33-.93-.47-1.33a15,15,0,0,1-.6-1.87,20,20,0,0,1-.58-3.2,18,18,0,0,1,.38-6.42c.66-2.37,1.88-4,3.44-4.51a2,2,0,0,1,1.11-.16,3,3,0,0,1,1.25.54,9.33,9.33,0,0,1,2.11,2.28,33.32,33.32,0,0,1,3.16,6c.85,2,1.64,4.19,2.34,6.44.34,1.09.64,2.15,1,3.26.27.88.54,1.63.81,2.4l5,14q1.41,3.93,2.87,7.86c-.82-2.66-1.64-5.33-2.47-8L318.64,224c-.25-.84-.51-1.69-.7-2.42-.26-1.13-.56-2.29-.86-3.41-.64-2.3-1.35-4.48-2.16-6.67a35.86,35.86,0,0,0-3.11-6.42,11.17,11.17,0,0,0-2.51-2.84,5,5,0,0,0-1.94-.92,4.29,4.29,0,0,0-2.21.17,6.67,6.67,0,0,0-3.29,2.38,10.74,10.74,0,0,0-1.68,3.47,20.25,20.25,0,0,0-.6,7.31,23,23,0,0,0,.59,3.62,34.23,34.23,0,0,0,1.09,3.34c.76,2.34,1.44,4.77,1.95,6.62l3.6,13.38c1.88,7,3.69,14,5.5,21l3.23,12.49c.47,1.91.89,4.05,1.31,6.75C317.53,285.89,318,290,318.35,294.05Zm-3.57-2.81a33.18,33.18,0,0,1,2,3.8c0-.18,0-.35,0-.53A31.35,31.35,0,0,0,314.78,291.24Zm-31.91-11.68.05,0,.13.11-.23-.29A.88.88,0,0,1,282.87,279.56Z" transform="translate(-258.85 -180.53)" style="fill:#fff"/><path d="M288.13,223.73c-4,.52-8.47,1-13.07,1.3s-9.39.52-14.13.57l-2.08,0,.06-2.1c.08-3.35.31-6.7.66-10s.76-6.68,1.06-10,.38-6.7.43-10.05-.15-6.7-.26-10.06l0-1.11,1.28-.12c4.31-.38,8.63-.77,12.95-1l12.95-.54,2.38-.1,0,2.48c.1,7-.15,14.16-.56,21S288.78,217.58,288.13,223.73Zm-.31-.31c-.65-7.38-1.26-14.25-1.67-20.89s-.66-13-.56-19.52l2.42,2.38-13-.17c-4.33-.05-8.65-.32-13-.57l1.24-1.23c-.31,3.34-.65,6.69-.82,10s-.26,6.7-.15,10.05.32,6.72.5,10.07.2,6.71.11,10.06l-2-2.08c4.27,0,8.51.22,12.92.57S282.83,222.9,287.82,223.42Z" transform="translate(-258.85 -180.53)" style="fill:#fff"/><path d="M315.92,223.58c-1-6.77-1.49-13.53-1.83-20.29-.17-3.38-.27-6.76-.33-10.14s0-6.76.09-10.14l2.3,2.29c-4.51-.14-9-.22-13.53-.47l-13.52-1L290,183q-.24,5.07-.11,10.14c.11,3.38.47,6.76.75,10.14s.56,6.76.53,10.14-.09,6.76-.26,10.15l-1.76-1.76c2.63.12,5.26.29,7.89.54s5.26.54,7.89,1v.45c-2.63.45-5.26.75-7.89,1s-5.26.42-7.89.54l-1.66.08-.1-1.83c-.17-3.39-.24-6.77-.26-10.15s.23-6.76.53-10.14.64-6.76.76-10.14.05-6.76-.12-10.14l0-.79.89-.06,13.52-1c4.51-.25,9-.33,13.53-.48l2.2-.07.09,2.37c.13,3.38.13,6.76.1,10.14s-.17,6.76-.34,10.14c-.34,6.76-.86,13.52-1.83,20.29Z" transform="translate(-258.85 -180.53)" style="fill:#fff"/><path d="M343.35,224.11l-27.22.41h-.91l0-.95L314.35,183l0-1.75,1.84,0,13.52-.33c2.25-.07,4.5-.13,6.76-.15s4.51-.1,6.76,0l2.36,0,0,2.28c0,3.55,0,7.11-.21,10.64s-.29,7-.49,10.51l-.68,10.21Zm-.32-.32-.79-10.73-.68-10.26c-.2-3.36-.38-6.68-.49-10s-.16-6.55-.21-9.83l2.33,2.33c-2.25,0-4.51,0-6.76-.05s-4.51-.08-6.76-.15l-13.52-.33,1.79-1.8-.85,40.57-.93-1Z" transform="translate(-258.85 -180.53)" style="fill:#fff"/></svg>