<svg xmlns="http://www.w3.org/2000/svg" viewBox="0 0 408.42 417.12"><path d="M398.85,208c13.91,109.86-89.77,200.5-200.5,200.5S3.31,318.6-2.15,208C-7.76,94.43,87.62,7.5,198.35,7.5S384.83,97.23,398.85,208Z" transform="translate(2.39 -0.01)" style="fill:#d5c391"/><path d="M303,49.63c-.16,10.32-7.24,17-17.68,16.68-8.28-.25-15.29-7-15.33-14.86,0-9.13,8.35-18.2,17-17.34S303.52,40.08,303,49.63Z" transform="translate(2.39 -0.01)"/><path d="M334.38,41.89c1.94-.3,4.44-.16,4.86,3.19.52,4.14-2.88,3.19-5,3.44-7.55.88-15.17,1.32-22.67,2.51-3.06.48-4.11-.37-4.67-3-.66-3,1.24-3.16,3.45-3.38,7.35-.75,14.68-1.66,22-2.51Z" transform="translate(2.39 -0.01)"/><path d="M261.94,50.26c-7.84-.81-15.62-1.58-23.38-2.47-1.75-.2-4.45.71-4.31-2.65.12-3,1.92-3.62,4.57-3.31,8,.93,16,1.77,24,2.61,2.35.24,4.55.58,4.25,3.75C266.65,52.28,263.54,49.35,261.94,50.26Z" transform="translate(2.39 -0.01)"/><path d="M308.34,98.14c-.11,1.49-1.07,2-2.22,2.23s-2.89,1-3.65-.44A195.27,195.27,0,0,1,291.6,73.21c-.71-2.13,1.41-2.48,2.65-3.24,2-1.2,2.26.74,2.7,1.75,3.58,8.22,7.07,16.47,10.59,24.71C307.8,97,308.1,97.63,308.34,98.14Z" transform="translate(2.39 -0.01)"/><path d="M269.13,35.64c-.8-.59-1.54-1.07-2.22-1.64q-8.28-6.87-16.54-13.79c-2.07-1.74-3.6-3.84-1.25-6.22s3.44.65,4.76,1.73c5.56,4.54,11,9.2,16.47,13.87,1.1.94,2.89,1.63,1.83,3.73A3.88,3.88,0,0,1,269.13,35.64Z" transform="translate(2.39 -0.01)"/><path d="M328.91,80.86a16,16,0,0,1-1.47,3c-.94,1.22-2,.49-2.81-.28C318.45,78,312.33,72.4,306.1,66.91c-1.51-1.34-1.65-2.45-.5-4s2.21-2.08,3.84-.61c6,5.42,12.06,10.77,18.06,16.19A10.31,10.31,0,0,1,328.91,80.86Z" transform="translate(2.39 -0.01)"/><path d="M267.39,61.54c1.17-.67,1.83.2,2.46,1.17,1,1.58.24,2.42-1.16,3.08-7.29,3.45-14.59,6.88-21.84,10.4-2,1-2.87-.16-3.77-1.55-.68-1-1-2.38.25-2.91C251.31,68.27,259.36,64.94,267.39,61.54Z" transform="translate(2.39 -0.01)"/><path d="M288.19,15.05c0,3.11-.06,6.93,0,10.76.05,2.36-1.1,3.22-3.27,3.13-2.38-.09-2.16-1.81-2.08-3.39.33-7.41.71-14.82,1-22.24.08-2.09.71-3.54,3.12-3.27s2,1.9,1.92,3.52C288.67,7.15,288.46,10.74,288.19,15.05Z" transform="translate(2.39 -0.01)"/><path d="M319.94,13.71c-1,1.17-1.74,2-2.5,2.79-5,5.15-10.09,10.24-15,15.47-1.31,1.4-2.2,2.9-4.3,1.18-2.45-2-.27-3.06.81-4.25q7.23-8,14.57-15.93c1-1.11,2.09-2.63,3.94-1.54A17.29,17.29,0,0,1,319.94,13.71Z" transform="translate(2.39 -0.01)"/><path d="M267.29,97.65c-2.18-.41-2.79-1.77-1.79-3.84Q271.06,82.37,276.67,71c.51-1,1.1-2,2.49-1.07,1,.66,1.88,1.53,1.14,2.73-4.5,7.27-6.41,15.7-10.39,23.19C269.39,96.79,268.84,97.8,267.29,97.65Z" transform="translate(2.39 -0.01)"/><path d="M219.63,114l1.76,0v1.83c.12,14.53.37,29,.38,43.61s.14,29,.08,43.61l-.08,43.61c0,14.53-.16,29-.27,43.6v3.39h-3.37l-46.89.44c-15.61.05-31.19.09-46.69,0l-46.24-.25-45.58-.38-.51-43.12L32,206.47V184.39l.15-22.17c.06-7.39.12-14.78.26-22.19s.26-14.8.47-22.18l.08-2.69H35.6l1.56.69,1.21,2.08q0,10.84-.2,21.65c-.08,7.21-.23,14.42-.4,21.65l-.57,21.66-.66,21.73L35,248.45,33.16,293l47-1.91,46.32-1.76c15.35-.57,30.62-1,45.86-1.49l45.67-1.1-3.39,3.41c.16-14.53.23-29,.51-43.6l.75-43.6c.2-14.54.55-29,.88-43.6s.78-29,1.16-43.6l.77-1.37" transform="translate(2.39 -0.01)"/><polygon points="33.38 116.71 55.3 111.27 123.93 43.13 196.46 106.56 222.85 113.53 121.81 27.8 33.38 116.71"/><path d="M153.2,290.22c-6.47.38-13.15.69-19.89,1s-13.6.56-20.51.81-13.88.41-20.88.49-14,.2-21,.13H68.23V290c.07-8.64.32-17.27.69-25.92s.74-17.27.88-25.91.18-17.27.1-25.91-.42-17.27-.67-25.92v-1.57l1.68-.06L91.44,184c6.84-.21,13.67-.32,20.51-.42l20.53-.29c6.84-.08,13.67-.18,20.51-.16h3.18v3.18c.06,8.8-.09,17.68-.21,26.49s-.38,17.6-.66,26.3-.61,17.35-1,25.88l-.56,12.7Zm-.42-.44-1.17-26.62q-.53-13.13-1-25.94c-.29-8.58-.5-17.06-.66-25.53s-.27-16.9-.22-25.35l3.2,3.21c-6.84,0-13.68-.08-20.52-.16l-20.52-.29c-6.84-.11-13.68-.21-20.52-.42L70.91,188l1.64-1.65c-.25,8.65-.56,17.28-.67,25.92s-.1,17.28.11,25.91.57,17.28.88,25.92.62,17.27.68,25.91l-2.64-2.64c6.68-.07,13.35,0,20,.14s13.41.3,20.17.5,13.59.49,20.52.8Z" transform="translate(2.39 -0.01)"/><path d="M298.9,316.18a5.56,5.56,0,0,0-.18-.76l-.25-1c-.18-.61-.33-1.24-.5-1.86-.31-1.24-.58-2.5-.78-3.79a18.87,18.87,0,0,1,.2-8.09,7.81,7.81,0,0,1,2.54-3.86,8.86,8.86,0,0,1,4.23-1.93,12.74,12.74,0,0,1,8.41,2.22l1.49.92h.05a1.32,1.32,0,0,0-.62-.09h-.37a2,2,0,0,0-.52.23,1.48,1.48,0,0,0-.36.3l-.08.12h0s.12-.32.21-.58c.37-1.12.73-2.43,1.25-3.67a17.31,17.31,0,0,1,4.67-7,10.8,10.8,0,0,1,3.95-2.18,8.28,8.28,0,0,1,4.68,0,9.65,9.65,0,0,1,3.78,2.25,14.52,14.52,0,0,1,2.59,3.3l-1.77-.12a18.63,18.63,0,0,1,6.5-4.72,7.41,7.41,0,0,1,4.16-.49,12.19,12.19,0,0,1,3.72,1.66,44.51,44.51,0,0,1,6.12,4.83c1.93,1.75,3.73,3.59,5.48,5.5s3.43,3.86,5,6a41.51,41.51,0,0,1,4,6.92c2.22,4.69,4.1,9.42,6.14,14.06q1.53,3.48,3.15,6.83a58,58,0,0,0,3.53,6.42,34,34,0,0,0,2,2.9l2.38,3c1.58,2,3.06,4.12,4.56,6.18,5.94,8.33,11.59,16.84,16.85,25.65l-.37.28c-6.86-7.62-13.37-15.46-19.84-23.35l-4.83-5.85-2.42-2.9a39.64,39.64,0,0,1-2.46-3.29,80.18,80.18,0,0,1-6.85-14.14c-1.93-4.83-3.58-9.61-5.45-14.26a52.06,52.06,0,0,0-3.08-6.65c-1.26-2.12-2.7-4.23-4.19-6.25-3-4-6.31-7.95-10.45-10.72a9.17,9.17,0,0,0-3.2-1.48,5.94,5.94,0,0,0-3.32.5,14.84,14.84,0,0,0-5.42,4.65l-.82,1.14-.92-1.25a8.85,8.85,0,0,0-5.26-3.66,5.12,5.12,0,0,0-2.81.36,8.19,8.19,0,0,0-2.51,1.72,16.39,16.39,0,0,0-3.42,5.69c-.43,1.12-.79,2.23-1.25,3.51a7.2,7.2,0,0,1-.5,1.18l-.14.24-.23.3a2.62,2.62,0,0,1-.53.46,1.8,1.8,0,0,1-.62.27,1.45,1.45,0,0,1-.35.07h-.15a3.22,3.22,0,0,1-1.06-.21l-.37-.19c-.8-.45-1.2-.77-1.74-1.11-1.93-1.31-3.95-2.23-5.87-2.05a6.44,6.44,0,0,0-2.71,1,4.84,4.84,0,0,0-1.76,2.26,18.49,18.49,0,0,0-1,7c0,1.23.07,2.49.12,3.74l.13,1.94v1a2.77,2.77,0,0,1-.1,1.11Z" transform="translate(2.39 -0.01)"/><path d="M359.68,416.08c-3.71-3.78-7.3-7.64-10.95-11.48l-5.4-5.74a17.67,17.67,0,0,0-6.24-3.77c-4.72-1.79-9.9-2.49-15.07-3.1-2.59-.29-5.21-.5-7.85-.72-1.32-.12-2.65-.22-4-.37a20.43,20.43,0,0,1-4.25-.87,27.19,27.19,0,0,1-7.54-4,58.32,58.32,0,0,1-6.23-5.3c-3.86-3.7-7.42-7.62-11.16-11.24a41.63,41.63,0,0,0-12.8-8A79.41,79.41,0,0,0,253.36,357l-.35-.08-.19-.18a8.14,8.14,0,0,1-2.23-4,5.46,5.46,0,0,1,1.22-4.54,10.88,10.88,0,0,1,3.53-2.63,25,25,0,0,1,3.93-1.54,26.91,26.91,0,0,1,8.29-.82,46.84,46.84,0,0,1,8.18,1.05,65.81,65.81,0,0,1,15.57,5.36A36.42,36.42,0,0,1,298.4,354c1.08.84,2.24,2.22,2.77,2.51h-.35a1.12,1.12,0,0,0-.47.11,1.15,1.15,0,0,0-.57.65c0,.23,0,.16,0,.25s0-.05,0-.15c-.11-.28-.23-.54-.35-.81-.27-.56-.58-1.15-.9-1.72q-4.05-7-8.79-13.52c-1.55-2.18-3.17-4.34-4.83-6.34l-5.35-6.17c-7.1-8.2-14.18-16.42-21.34-24.57L247.41,292c-1.8-2-3.64-4-5.44-5.88a40.56,40.56,0,0,1-3-3,28.1,28.1,0,0,1-2.6-3.62,24.83,24.83,0,0,1-3.31-8.34,13.62,13.62,0,0,1-.05-4.89,8.82,8.82,0,0,1,2.49-4.74,6.19,6.19,0,0,1,2.72-1.61,7,7,0,0,1,2.95,0,14.33,14.33,0,0,1,4.44,1.81,41.42,41.42,0,0,1,6.76,5.26c2.05,1.93,4,3.86,5.79,5.95.92,1,1.85,2.09,2.7,3.13s1.79,1.94,2.68,2.9l11.21,11.82q5.63,5.9,11.2,11.84l11.18,11.86-.33.33c-4-3.65-8-7.36-12-11.07s-7.93-7.45-11.84-11.21l-11.74-11.3c-1-1-1.94-1.84-3-2.94s-1.79-1.94-2.71-2.9c-1.86-1.93-3.78-3.78-5.8-5.5a37.55,37.55,0,0,0-6.27-4.5,9.82,9.82,0,0,0-3.1-1.19,2.75,2.75,0,0,0-1.07,0,1.52,1.52,0,0,0-.7.52c-1.2,1.22-1.45,3.34-1,5.62a20.15,20.15,0,0,0,2.81,6.65,23.78,23.78,0,0,0,2.2,2.9c.78,1,1.62,1.6,2.75,2.75,2,2,3.79,4,5.62,6.1,3.63,4.06,7.17,8.19,10.67,12.35q10.51,12.5,20.86,25.06l5.12,6.32c1.76,2.21,3.3,4.47,4.83,6.76a156.44,156.44,0,0,1,8.23,14.26c.31.63.6,1.26.87,1.93a10,10,0,0,1,.4,1.08,3,3,0,0,1,.15.84,1.43,1.43,0,0,1-.07.51,1.2,1.2,0,0,1-.2.41,1.5,1.5,0,0,1-.51.43,1.54,1.54,0,0,1-.59.14h-.32a1.3,1.3,0,0,1-.39-.14,4.15,4.15,0,0,1-1.1-.86c-.27-.26-.51-.52-.75-.79a15.7,15.7,0,0,0-1.34-1.36,35.18,35.18,0,0,0-6.48-4.49,56.88,56.88,0,0,0-15-5.61c-5.2-1.12-10.72-1.62-15.77-.2-2.43.8-5,1.94-6.5,3.82a3.52,3.52,0,0,0-.73,3.09,6,6,0,0,0,1.81,2.9l-.55-.26a80.08,80.08,0,0,1,15.63,3.86,43.4,43.4,0,0,1,14.33,8c4,3.62,7.63,7.46,11.37,11.05s7.66,6.95,12.16,8.46a16,16,0,0,0,3.49.75l3.86.48c2.62.3,5.27.59,7.91,1a62.53,62.53,0,0,1,15.76,3.91,19.68,19.68,0,0,1,6.92,4.83c1.75,2.08,3.37,4.1,5,6.17,3.3,4.14,6.64,8.23,9.88,12.41Z" transform="translate(2.39 -0.01)"/><path d="M404.58,376.8l-.45-.5c-6.92-7.68-13.61-15.75-19.87-23.37L377,344.17a39.08,39.08,0,0,1-2.52-3.35,80.4,80.4,0,0,1-6.92-14.28c-1-2.39-1.86-4.83-2.74-7.18s-1.78-4.75-2.71-7.08L362,312a48.7,48.7,0,0,0-2.9-6.26c-1.15-1.94-2.51-4-4.15-6.18-2.71-3.63-6-7.73-10.26-10.54a8.76,8.76,0,0,0-2.9-1.36,5.17,5.17,0,0,0-2.9.43,13.24,13.24,0,0,0-4.37,3.49l.07.13h-.18c-.22.27-.43.54-.64.82l-1.43,1.93-1.51-2.08a10.67,10.67,0,0,0-.81-1h-.17l.08-.07a7.35,7.35,0,0,0-3.86-2.29,4.42,4.42,0,0,0-2.41.3,7.57,7.57,0,0,0-2.27,1.57,15.28,15.28,0,0,0-3.25,5.43c-.29.77-.56,1.54-.85,2.37l-.38,1.12a11.87,11.87,0,0,1-.55,1.27l-.16.26a4,4,0,0,1-.27.37,3.42,3.42,0,0,1-.72.65,2.87,2.87,0,0,1-.86.37,1.8,1.8,0,0,1-.45.09h-.23a4,4,0,0,1-1.32-.25l-.43-.21c-.61-.35-1-.6-1.35-.85l-.46-.3c-2.18-1.47-3.86-2.08-5.41-1.94a5.79,5.79,0,0,0-2.38.83,4.38,4.38,0,0,0-1.48,1.94,17.51,17.51,0,0,0-1,6.62c0,1,0,1.93.09,2.9l.2,3.73a3.79,3.79,0,0,1-.12,1.34l-.28,1-1.45-1-.09-.24a3,3,0,0,1-.11-.43c0-.12-.05-.25-.08-.37l-.25-.92c-.11-.38-.22-.77-.32-1.16l-.19-.69c-.34-1.41-.6-2.67-.79-3.87a19.47,19.47,0,0,1,.22-8.39,8.61,8.61,0,0,1,2.81-4.3,9.64,9.64,0,0,1,4.56-2,12.84,12.84,0,0,1,8.16,1.87c.21-.62.43-1.26.69-1.89a18,18,0,0,1,4.88-7.31,11.82,11.82,0,0,1,4.22-2.33,9,9,0,0,1,5.1,0,10.58,10.58,0,0,1,4.09,2.43,14.26,14.26,0,0,1,1.44,1.57,16.87,16.87,0,0,1,5.08-3.27,8.1,8.1,0,0,1,4.56-.53,13.15,13.15,0,0,1,4,1.77,45.35,45.35,0,0,1,6.21,4.92c1.85,1.69,3.7,3.55,5.53,5.53s3.52,4,5.06,6a42.43,42.43,0,0,1,4,7.06c1.43,3,2.74,6.1,4,9.06l2.16,5c1.19,2.71,2.19,4.83,3.14,6.81a56.64,56.64,0,0,0,3.48,6.35c.6,1,1.24,1.93,1.93,2.84l2.38,3.05c1.19,1.53,2.32,3.09,3.42,4.62l1.15,1.58c6.48,9.08,12,17.48,16.89,25.71l.35.58Zm-56.71-87.26a51.52,51.52,0,0,1,8.27,9.12c1.67,2.28,3.05,4.33,4.24,6.3a51.14,51.14,0,0,1,3,6.46l.12.29c1,2.35,1.84,4.74,2.73,7.13S368,323.6,369,326a78.36,78.36,0,0,0,6.76,14,34,34,0,0,0,2.41,3.21l7.27,8.77c5.09,6.2,10.48,12.7,16,19-4.11-6.64-8.69-13.46-13.85-20.71l-1.16-1.59c-1.08-1.51-2.21-3.06-3.38-4.57l-2.37-3a33.45,33.45,0,0,1-2.06-3,57.77,57.77,0,0,1-3.57-6.5c-1-1.93-1.94-4.11-3.16-6.85-.73-1.66-1.44-3.34-2.16-5-1.26-2.95-2.56-6-4-9a42,42,0,0,0-3.86-6.81c-1.5-1.93-3.12-3.86-4.95-5.89s-3.63-3.79-5.44-5.46c-1.15-1.07-2.35-2.09-3.59-3Zm-42.4,6.13a8.06,8.06,0,0,0-1.2.08,8.18,8.18,0,0,0-3.87,1.72,7.32,7.32,0,0,0-2.3,3.55,18.32,18.32,0,0,0-.16,7.73c.13.81.29,1.65.48,2.54,0-.87-.07-1.73-.07-2.58a18.8,18.8,0,0,1,1.1-7.24,5.58,5.58,0,0,1,2.09-2.63,7,7,0,0,1,3-1c1.86-.18,3.86.5,6.29,2.12l.62-1.43c0-.05.12-.29.19-.51l.12-.39a12.48,12.48,0,0,0-6.28-1.93Zm5.91,4.6h0c.34.23.69.46,1.22.76l.34.18a2.28,2.28,0,0,0,.73.12l.27-.05a1.7,1.7,0,0,0,.44-.18,1.91,1.91,0,0,0,.37-.33,1.49,1.49,0,0,0,.15-.2l.11-.17a8.87,8.87,0,0,0,.47-1.1l.39-1.11c.29-.84.56-1.63.87-2.42a16.56,16.56,0,0,1,3.59-5.95,9,9,0,0,1,2.73-1.88,5.84,5.84,0,0,1,3.22-.41,8.67,8.67,0,0,1,4.69,2.68l.58-.59a12.55,12.55,0,0,0-1.38-1.53,9,9,0,0,0-3.5-2.08,7.43,7.43,0,0,0-4.23,0,10.08,10.08,0,0,0-3.68,2,16.28,16.28,0,0,0-4.46,6.76c-.29.71-.53,1.42-.76,2.13l.17.1.74.46-.62,1.36a.49.49,0,0,0-.24,0h-.26a1,1,0,0,0-.29.13.87.87,0,0,0-.22.17l-.21.23Zm20.71-8.69.29.38.22-.31v0Zm1.45-1.71.23.36a14.82,14.82,0,0,1,4.49-3.45,15.78,15.78,0,0,0-4.77,3.05Z" transform="translate(2.39 -0.01)"/><path d="M359.68,417.13l-.52-.53c-2.68-2.72-5.34-5.53-7.9-8.25l-8.47-9a16.67,16.67,0,0,0-6-3.58c-4.57-1.73-9.66-2.44-14.89-3.06-2.57-.28-5.12-.49-7.82-.71l-1-.09c-1-.09-2-.17-3-.29a21.26,21.26,0,0,1-4.39-.9,27.86,27.86,0,0,1-7.72-4.07,56.69,56.69,0,0,1-6.3-5.37c-2.08-1.94-4.08-4-6-6-1.67-1.73-3.41-3.52-5.15-5.2A40.08,40.08,0,0,0,268,362.23a78.81,78.81,0,0,0-14.7-4.52l-.59-.13-.34-.35a8.82,8.82,0,0,1-2-3.13l-1.27-.61,1.12.15a6.87,6.87,0,0,1-.22-.81,6.08,6.08,0,0,1,1.39-5.17,11.73,11.73,0,0,1,3.76-2.83,23.64,23.64,0,0,1,12.59-2.43,49.34,49.34,0,0,1,8.3,1.06,67.41,67.41,0,0,1,15.74,5.42,38.71,38.71,0,0,1,3.52,1.93c-1.93-3.11-4-6.15-6.12-9.1-1.83-2.58-3.37-4.58-4.83-6.29l-9.82-11.34c-5.51-6.37-11.2-12.95-16.86-19.32l-10.76-12.19c-1.48-1.67-3.45-3.86-5.4-5.85q-1.58-1.46-3-3.06a27.76,27.76,0,0,1-2.67-3.72,25.39,25.39,0,0,1-3.41-8.59,14.48,14.48,0,0,1-.06-5.17,9.64,9.64,0,0,1,2.7-5.13,6.69,6.69,0,0,1,2.95-1.83,7.55,7.55,0,0,1,3.31-.07,15,15,0,0,1,4.68,1.93,42.39,42.39,0,0,1,6.89,5.35c2,1.93,3.95,3.86,5.86,6,.91,1,1.85,2.12,2.71,3.17.57.65,1.28,1.41,2,2.16l.67.71,11.19,11.82q5.63,5.88,11.2,11.83l11.67,12.39-1.25,1.33-.53-.48c-3.63-3.27-7.25-6.65-10.75-9.92l-1.28-1.15c-4.25-4-8.12-7.64-11.84-11.22l-12.61-12.13c-.69-.67-1.38-1.34-2.14-2.13l-.18-.2c-.85-1-1.67-1.84-2.53-2.75-1.88-1.93-3.8-3.77-5.73-5.44a37.06,37.06,0,0,0-6.14-4.42,9.2,9.2,0,0,0-2.9-1.1,1.54,1.54,0,0,0-.74,0,1,1,0,0,0-.3.24c-1,1-1.29,2.83-.87,5a19.75,19.75,0,0,0,2.71,6.39,23.24,23.24,0,0,0,2.13,2.9,18.29,18.29,0,0,0,1.54,1.51c.38.35.78.74,1.24,1.2,2.05,2.12,3.91,4.18,5.64,6.11,3.29,3.69,6.76,7.73,10.69,12.38,7,8.3,14,16.74,20.86,25.11l5.12,6.32a82.38,82.38,0,0,1,4.83,6.82,156.83,156.83,0,0,1,8.31,14.32c.32.65.61,1.3.89,2a8.91,8.91,0,0,1,.43,1.16,3.27,3.27,0,0,1,.17,1,2.34,2.34,0,0,1-.09.75,2.11,2.11,0,0,1-2,1.5,2,2,0,0,1-.49-.06,2,2,0,0,1-.56-.18,5.49,5.49,0,0,1-1.32-1q-.39-.4-.75-.81a18,18,0,0,0-1.31-1.31,33.16,33.16,0,0,0-6.32-4.38,56.82,56.82,0,0,0-14.81-5.55c-6.15-1.32-11.19-1.38-15.4-.19-2.9,1-5,2.13-6.13,3.56a2.8,2.8,0,0,0-.59,2.44,5.4,5.4,0,0,0,1.23,2.14,81.16,81.16,0,0,1,15.19,3.79c6.38,2.32,10.87,4.82,14.58,8.13,2.46,2.24,4.83,4.58,7.09,6.85l4.29,4.22c3.81,3.54,7.59,6.85,11.89,8.28a15.12,15.12,0,0,0,3.33.73l4.24.51c2.52.29,5,.58,7.58,1a62.56,62.56,0,0,1,15.93,4,20.21,20.21,0,0,1,7.19,5c1.76,2.09,3.35,4.07,5,6.18l3.1,3.86c2.28,2.85,4.57,5.7,6.8,8.59l.41.52ZM257.59,357.18a79.59,79.59,0,0,1,10.92,3.67,41.78,41.78,0,0,1,13,8.15c1.75,1.7,3.5,3.5,5.18,5.23,1.93,2,3.92,4,6,6a59.28,59.28,0,0,0,6.16,5.25,26.44,26.44,0,0,0,7.34,3.86,19.48,19.48,0,0,0,4.07.83c1,.12,2,.21,3,.29l1,.08c2.71.22,5.27.43,7.88.72,5.33.63,10.5,1.36,15.24,3.15a18.21,18.21,0,0,1,6.51,3.94l8.48,9,.28.29-3.06-3.81c-1.69-2.12-3.29-4.1-5-6.16a18.72,18.72,0,0,0-6.66-4.59,61.26,61.26,0,0,0-15.53-3.86c-2.52-.36-5-.65-7.55-1l-4.24-.51a17.43,17.43,0,0,1-3.63-.79c-4.59-1.53-8.51-5-12.44-8.63q-2.19-2.08-4.33-4.25c-2.26-2.25-4.6-4.57-7-6.76-3.55-3.16-7.9-5.58-14.08-7.84a79.88,79.88,0,0,0-12.71-3.37Zm42.89.86h.14a.69.69,0,0,0,.45,0,.78.78,0,0,0,.24-.2.76.76,0,0,0,.09-.18.57.57,0,0,0,0-.26,2.06,2.06,0,0,0-.11-.65l-.09-.27-.35.73h-.19a.33.33,0,0,0-.19.21Zm-47.05-1.82h.14c.75.16,1.5.32,2.26.5l-3.36-1.55a7.53,7.53,0,0,0,.86,1Zm27.34-10a58.2,58.2,0,0,1,10.05,4.29,36.33,36.33,0,0,1,6.62,4.58c.28.26.54.52.8.78l-.41-.74-.72-1.23a35.7,35.7,0,0,0-6.07-3.68,65.56,65.56,0,0,0-10.32-4Zm17.48,6.67.67.52c.57.48,1.11,1,1.63,1.51l.15.14c-.18-.41-.37-.83-.58-1.22a151.2,151.2,0,0,0-8.21-14.17c-1.43-2.17-3-4.48-4.77-6.72l-5.12-6.3c-6.89-8.33-13.91-16.76-20.86-25-3.86-4.62-7.37-8.69-10.63-12.34-1.7-1.93-3.55-4-5.59-6.06-.43-.45-.83-.82-1.2-1.17a18.84,18.84,0,0,1-1.59-1.63,25.56,25.56,0,0,1-2.25-3,21.06,21.06,0,0,1-2.9-6.89c-.53-2.74-.1-5,1.21-6.31a2.12,2.12,0,0,1,1-.69,3.28,3.28,0,0,1,1.46-.07,10.91,10.91,0,0,1,3.35,1.28,38.75,38.75,0,0,1,6.37,4.57c1.93,1.7,3.92,3.57,5.8,5.55.87.91,1.7,1.81,2.56,2.77l.16.18c.73.77,1.41,1.42,2.1,2.09l.85.83L273.52,292c3.72,3.57,7.58,7.23,11.83,11.19l1,1-1-1q-5.58-6-11.19-11.82l-11.87-12.56c-.72-.75-1.44-1.53-2-2.21-.87-1.06-1.78-2.13-2.68-3.13-1.89-2.1-3.77-4-5.8-5.9a40.6,40.6,0,0,0-6.65-5.17,13.05,13.05,0,0,0-4.2-1.71,5.94,5.94,0,0,0-2.62.05,5.19,5.19,0,0,0-2.25,1.32,8.06,8.06,0,0,0-2.29,4.35,12.76,12.76,0,0,0,0,4.61,24.18,24.18,0,0,0,3.25,8.14,27.6,27.6,0,0,0,2.54,3.52,40.64,40.64,0,0,0,2.9,3c2,2.05,4,4.24,5.48,5.93l10.77,12.19c5.66,6.41,11.35,13,16.85,19.37l9.81,11.36c1.48,1.75,3,3.78,4.9,6.39,2.77,3.86,5.47,7.92,7.94,12Zm-46.43,1,.53.07a6.83,6.83,0,0,1-.62-1.47,4.3,4.3,0,0,1,.88-3.76,11.57,11.57,0,0,1,4.45-3.15c-.45.19-.9.4-1.35.62a10,10,0,0,0-3.29,2.45,4.67,4.67,0,0,0-1,3.86,7.37,7.37,0,0,0,.4,1.39Z" transform="translate(2.39 -0.01)"/></svg>