<svg id="Layer_1" data-name="Layer 1" xmlns="http://www.w3.org/2000/svg" viewBox="0 0 836.78 220.8"><title>circle</title><path d="M925.94,628.18c-31.33,18.37-66.44,28.58-101.35,37.37C789.48,674,753.81,679.88,718,684.4c-71.65,9-144,11.84-216.15,10.79-72.18-1.59-144.46-7.22-215.66-20.77-35.52-7-71-15.53-104.8-29.87-16.74-7.36-33.6-15.74-47.21-29.9-6.61-7-12.36-16.58-12.57-27.67.09-11.09,5.78-20.76,12.34-27.87,13.51-14.37,30.34-23,47.06-30.54a400.91,400.91,0,0,1,51.71-18.31c35.07-9.95,70.77-16.85,106.63-22.19,71.78-10.44,144.29-14.2,216.65-13.35,72.33,1.39,144.73,6.69,216,19.56,35.58,6.66,71,14.77,105.24,27,17,6.3,33.79,13.59,49.31,23.24,7.67,4.94,15,10.52,21.18,17.42s10.74,15.6,10.62,25H957c-.4-8.87-5.24-16.79-11.35-23a98.55,98.55,0,0,0-21.16-15.86c-15.52-8.72-32.28-15.15-49.29-20.6-34.06-10.93-69.36-17.91-104.77-23.37C699.47,493.46,627.62,488.93,555.88,489c-35.88-.19-71.76.71-107.55,3-35.79,2-71.52,5.25-107,10.12s-70.75,11.2-105.15,20.49a390.08,390.08,0,0,0-50.33,17.1c-16,6.93-32.06,15.22-43.46,27.15-5.59,5.94-9.44,13-9.6,20.13.08,7.17,3.87,14.28,9.43,20.3,11.31,12.13,27.31,20.63,43.32,27.76C218,649.2,253,658.08,288,665.29,358.31,679.4,430.2,685.75,502,688c71.87,2,144,.1,215.48-7.91,35.73-4,71.36-9.4,106.44-17.37,34.87-8.28,70-18,101.26-35.8Z" transform="translate(-121.61 -474.6)" style="fill:#fff"/></svg>