<svg id="Layer_1" data-name="Layer 1" xmlns="http://www.w3.org/2000/svg" viewBox="0 0 209.47 293"><title>contacticon</title><path d="M264.63,156.33c-6.37,11-11.48,23.18-13.54,35.71a57.44,57.44,0,0,0-.34,18.57l.95,4.37,1.5,4.09c1.27,2.84,2.63,5.74,4.08,8.59,11.79,22.72,23.69,45.36,36.86,67,6.54,10.85,13.35,21.65,21.59,31.17s17.72,18.34,29.5,21.82c12.1,3.2,25.26,3.71,37.22.43,11.91-3,22.68-11.86,23.84-22.87s-6.43-21.86-14.54-29.8c-8.47-7.76-20-13-30.24-12.47a17,17,0,0,0-6.61,1.7,19.17,19.17,0,0,0-2.64,1.76,42.58,42.58,0,0,1-4.67,3.47c-3.33,2.11-8.12,4.41-14,3.67s-9.85-4.34-12.61-7.18c-5.38-6-8.51-12-11.64-17.89s-6.29-12.28-7.92-19.9a33.15,33.15,0,0,1-.27-12.57,29.31,29.31,0,0,1,5.19-11.76,64.67,64.67,0,0,1,7.22-8.17l3.38-3.29a15.82,15.82,0,0,0,2.27-2.69c5.48-8.23,7.1-21,4.08-32.06-2.62-11.2-12.46-20-23.87-25.2a41.89,41.89,0,0,0-18.21-4A23.74,23.74,0,0,0,264.63,156.33Zm-1.17-.86c4.38-5.27,11-8,17.59-8.73s13.36.54,19.76,2.43a63.23,63.23,0,0,1,18.15,9,40,40,0,0,1,13.3,16.6,50.25,50.25,0,0,1,4.4,21.05A42.3,42.3,0,0,1,331,217.65a30.7,30.7,0,0,1-3.64,5c-1.33,1.57-2.27,2.47-3.38,3.67a50.49,50.49,0,0,0-5.45,6.5c-2.77,4.12-3.1,7.46-2,12.58s3.59,10.39,6.51,16,5.94,11,9.08,14.81c1.59,1.82,3,2.76,3.6,2.77.59.18,2.19-.08,4.29-1.33a31.6,31.6,0,0,0,3.2-2.19,31.33,31.33,0,0,1,5.55-3.4,30.62,30.62,0,0,1,12.13-2.72c15.91-.09,29.08,7.84,38.95,17.95A56.91,56.91,0,0,1,411.41,305c2.73,6.47,4.39,14.18,2.72,21.57a30.4,30.4,0,0,1-11.75,17.95,49.16,49.16,0,0,1-18.69,8.36c-13.17,2.91-26.68,2.31-39.6-.63a60.68,60.68,0,0,1-18.45-8.39,113,113,0,0,1-15.75-12.42c-9.76-9.11-18.07-19.47-25.86-30.12a271.28,271.28,0,0,1-35.19-70.22c-1.06-3.11-2-6.25-3-9.49l-1.11-5.25-.36-5.24a71,71,0,0,1,3.05-19.93A158.77,158.77,0,0,1,263.46,155.47Z" transform="translate(-244.4 -146.53)"/><path d="M396.32,343.38c-5.39,7.06-10.12,14.81-12.72,23-1.25,4.05-1.78,8.31-.83,12.06.85,3.39,4.12,5.17,7.89,5.91a28.13,28.13,0,0,0,22.34-6.7,14.76,14.76,0,0,0,4.9-9.53c.23-3.63-.39-8-2.63-9.41-2-1.75-6.22-1.11-9.6.85a27.22,27.22,0,0,0-8.91,8.43c-4.69,6.95-6.65,16.07-6,24.69.41,4.26,1.42,8.73,4.15,11.78s7.3,2.8,11,.79a34,34,0,0,0,10-8.08,32.94,32.94,0,0,0,6.65-10.8c1.44-3.69,1.63-8.68-.1-10.46-1-1.5-4.79.83-7.27,4A36.68,36.68,0,0,0,407,402.59c0,4,.81,8,2.86,10.73s4.95,4,8.71,4.14c7.46.19,15.67-3.6,21.07-9.07a11.66,11.66,0,0,0,2.81-4,.89.89,0,0,0,.15-.62c.11-.21,0-.22,0-.15s0,0,0,0-.18-.15-.41-.25c-2-1.09-6.62-.37-10.26.9-7.48,2.59-15.38,8.11-17.31,15-1.77,6.72,6.27,13.82,13.87,16.14,8,2.49,17.24.51,25-3.73l.42.59c-7.24,5.34-16.72,8.73-26.29,6.71a29.68,29.68,0,0,1-12.79-6.51c-3.7-3.11-6.91-8.63-5.75-14.3,1.1-5.46,4.48-9.57,8.06-12.85a41.85,41.85,0,0,1,12.39-7.62,32.73,32.73,0,0,1,7.27-2c2.62-.26,5.41-.5,8.64,1a7.59,7.59,0,0,1,4.22,4.23,6.19,6.19,0,0,1,.53,3.11,7.13,7.13,0,0,1-.44,2.65,18.6,18.6,0,0,1-4.45,7.13A38.2,38.2,0,0,1,433,422.14,32.15,32.15,0,0,1,418.2,425c-5.16-.11-11.23-2.82-14.28-7.63s-3.82-10-3.76-14.9A41.26,41.26,0,0,1,410.85,376a20.67,20.67,0,0,1,6.07-4.77,7.38,7.38,0,0,1,2.11-.74,5.59,5.59,0,0,1,2.43-.23A5.13,5.13,0,0,1,424,371a4.78,4.78,0,0,1,2.07,1.63,10.92,10.92,0,0,1,2,8.12,24.29,24.29,0,0,1-1.89,7.12,36.7,36.7,0,0,1-8.09,11.49A43.46,43.46,0,0,1,407,407.55a13.8,13.8,0,0,1-7,1.61c-2.58.07-5-1.48-6.67-3.18-3.19-3.81-4.35-8.53-4.85-13.08-.86-9.14.3-18.63,4.93-27a31.57,31.57,0,0,1,9.7-10.64,19.4,19.4,0,0,1,7.13-3,10.92,10.92,0,0,1,8.54,1.5,12.18,12.18,0,0,1,4.91,7.12,20.78,20.78,0,0,1-6.31,21.53,32.28,32.28,0,0,1-13.09,6.78,31.89,31.89,0,0,1-14.66.65,13.65,13.65,0,0,1-3.71-1.17,11.36,11.36,0,0,1-3.47-2.09c-1.18-.71-1.91-2.08-2.79-3.16a18.73,18.73,0,0,1-1.48-3.93c-.89-5.1.23-10,1.92-14.34,3.57-8.7,9.31-15.94,15.78-22.23Z" transform="translate(-244.4 -146.53)"/></svg>