<?xml version="1.0" encoding="utf-8"?>
<!-- Generator: Adobe Illustrator 24.0.3, SVG Export Plug-In . SVG Version: 6.00 Build 0)  -->
<svg version="1.1" id="Layer_1" xmlns="http://www.w3.org/2000/svg" xmlns:xlink="http://www.w3.org/1999/xlink" x="0px" y="0px"
	 viewBox="0 0 892.7 615" style="enable-background:new 0 0 892.7 615;" xml:space="preserve">
<style type="text/css">
	.st0{fill:#FFFFFF;}
</style>
<path class="st0" d="M222.8,38.7c0.2-0.1,0.1-0.3,0.2-0.2l0.5,0.3l1,0.7l2,1.4l4,2.8c2.6,1.9,5.1,4,7.6,6.1c5,4.2,9.8,8.7,14.4,13.3
	C261.8,72.5,270,83,277,94.2c14.1,22.4,22.7,49.2,22.4,76.4c0,27.3-9.7,53.8-24.1,75.8c-14.2,22.4-32.6,41.2-51.6,58.9l-2.2-4.2
	c20.2-4,40.1-9.5,59.5-16.4c19.1-7.2,38.6-15,54.2-26.9c1.9-1.4,3.7-2.9,5.4-4.6c1.7-1.4,3.2-3,4.4-4.8c2.6-4,4.8-8.1,6.5-12.5
	c3.6-9.3,6.6-18.8,8.9-28.5c4.6-19.7,7.4-39.7,8.2-59.9c0.8-20.1,0-40.3-3.9-59.5c-4.1-18.9-12-37.6-27.1-47.4c-2-1-3.9-2.2-5.9-3.1
	c-2.2-0.7-4.1-1.6-6.5-2.3c-4.9-1.2-9.8-2.7-14.7-3.6c-9.8-2.3-19.8-3.7-29.9-4.4c-10-0.6-20.1-0.1-30.1,1.5
	c-5,0.8-9.9,2.1-14.6,3.8c-2.3,0.9-4.7,1.9-7,3c-1.1,0.5-2.2,1.2-3.3,1.8l-1.6,1l-0.8,0.5l-0.4,0.3
	C222.8,39.1,222.9,38.8,222.8,38.7z M221.2,38.9c0.1-0.4,0.3-0.7,0.6-1l0.4-0.3l0.7-0.7l1.5-1.3c1-0.8,2.1-1.7,3.2-2.4
	c2.2-1.5,4.5-2.9,6.8-4.1c4.8-2.4,9.7-4.5,14.9-6c10.2-3.2,20.9-4.5,31.5-4.9c10.6-0.3,21.3,0.3,31.8,1.8c5.3,0.7,10.4,1.9,15.7,2.8
	c2.6,0.5,5.5,1.5,8.3,2.3c2.8,1,5.4,2.4,8.1,3.6c10.4,5.9,18.4,15,24,24.7s9.3,20.4,11.9,31c5.2,21.2,5.6,42.8,4.5,64
	c-1.5,21.2-5,42.2-10.6,62.7c-2.8,10.4-6.4,20.5-11,30.2c-2.4,5.1-5.3,10-8.7,14.5c-1.9,2.3-4,4.4-6.4,6.3c-2.1,1.8-4.4,3.5-6.8,4.9
	c-9.3,6-19,10.1-28.9,13.9s-19.8,6.9-29.8,9.8c-20,5.8-40.2,10.7-60.5,15.3l-8.6,1.9l6.5-6.2c18.6-17.5,34.1-38,46-60.5
	c11.5-22.3,18.8-46.4,19.3-70.8c0.7-24.4-6.1-48.8-17.7-71c-5.9-11.1-12.8-21.7-20.6-31.7c-3.9-5-7.9-10-12.2-14.7
	c-2.1-2.4-4.4-4.7-6.6-6.9l-3.4-3.4l-1.7-1.7l-0.9-0.8l-0.4-0.4C221.6,39.6,221.4,39.2,221.2,38.9L221.2,38.9z"/>
<path class="st0" d="M347.5,254.7c34.8,22.4,69.3,45.4,103.5,68.8c34.3,23.2,68.4,46.8,102.2,70.7c33.9,23.8,67.6,47.9,100.8,72.6
	l99.2,74.7l4.3,3.2l-4.7,2.2c-19.4,9.3-38.8,18.6-58.1,28.2c-19.4,9.4-38.4,19.4-57.6,29.1l-1.5,0.7l-1.3-1
	c-34.6-24.7-69.8-48.6-104.8-72.7s-69.9-48.4-104.7-72.9l-104.1-73.6c-34.6-24.7-69-49.7-103.3-74.8l0.9,0.6
	c-23.8-14-42.6-32.9-57.9-55c-14.5-22.4-24.2-48.4-25.2-75.1c-0.4-6.6-0.4-13.2,0.2-19.8c0.3-3.3,0.4-6.6,0.8-9.8l1.5-9.8
	c0.4-3.3,1.1-6.5,2-9.7c0.8-3.2,1.6-6.4,2.5-9.6c2.2-6.2,4.2-12.5,7.2-18.4c11.3-23.6,29.5-44.4,53-55.7l0.6,1.4
	c-21.7,13.1-38,34.1-47,57.2c-9.6,23-11.8,48.8-9.7,73.3s11.5,48,25.4,68.1c14.4,19.8,32.8,36.4,53.9,48.8l0.6,0.4l0.3,0.2
	c34.8,24.5,69.3,49.3,103.7,74.3l102.8,75.5c34.2,25.3,68.4,50.6,102.2,76.3c34,25.6,67.7,51.5,102.1,76.5l-2.8-0.2
	c19.3-9.6,38.7-18.8,57.9-28.6c19.2-9.7,38.3-19.6,57.4-29.6l-0.4,5.5L646.7,477c-34.2-23.4-67.9-47.4-101.4-71.8
	s-66.9-48.7-100-73.7c-33.2-24.8-66.1-49.9-98.7-75.5L347.5,254.7z"/>
<path class="st0" d="M592.4,567.8c18.1-10.2,36.3-20.3,54.6-30.1c9.1-5,18-10.4,27.6-14.5c9.5-4.3,19.4-7.9,29.4-10.7l0.3,0.7
	c-8.3,6.3-17.2,12-26.4,17c-9.1,5.1-18.8,8.9-28.3,13.1c-18.9,8.6-37.9,17-57,25.2L592.4,567.8z"/>
<path class="st0" d="M207.5,120.6c0,0,26.5,4.8,28.9,48.1s-28.9,50.5-28.9,50.5s-26.5-19.3-26.5-50.5S200.3,115.8,207.5,120.6z"/>
<path class="st0" d="M347.7,306.4c6-4.6,12.1-9,18.3-13.2c3.1-2.1,5.9-4.8,9.5-6.1c3.6-1.5,7.6-2.3,11.5-2.3l0.4,0.7
	c-2.1,3.3-4.9,6.2-8.1,8.5c-3,2.3-6.8,3.2-10.2,4.7c-6.9,3-13.9,5.8-21,8.4L347.7,306.4z"/>
<path class="st0" d="M377,329.2c6-4.6,12.1-9,18.3-13.2c3.1-2.1,5.9-4.8,9.5-6.1c3.6-1.5,7.6-2.4,11.5-2.4l0.4,0.7
	c-2.1,3.3-4.9,6.2-8.1,8.5c-3,2.3-6.8,3.2-10.2,4.7c-6.9,3-13.9,5.8-21,8.4L377,329.2z"/>
<path class="st0" d="M413.9,355.7c6-4.6,12.1-9,18.3-13.2c3.1-2.1,5.9-4.8,9.5-6.1c3.7-1.6,7.6-2.4,11.5-2.4l0.4,0.7
	c-2.1,3.3-4.9,6.2-8.1,8.5c-3,2.3-6.8,3.2-10.2,4.7c-6.9,3-13.9,5.8-21,8.4L413.9,355.7z"/>
<path class="st0" d="M447,379.9c6-4.6,12.1-9,18.3-13.2c3.1-2.1,5.9-4.8,9.5-6.1c3.6-1.5,7.6-2.3,11.5-2.3l0.4,0.7
	c-2.1,3.3-4.9,6.2-8.1,8.5c-3,2.3-6.8,3.2-10.2,4.7c-6.9,3-13.9,5.8-21,8.4L447,379.9z"/>
<path class="st0" d="M476.3,402.8c6-4.6,12.1-9,18.3-13.2c3.1-2.1,5.9-4.8,9.5-6.1c3.7-1.5,7.6-2.3,11.5-2.3l0.4,0.7
	c-2.1,3.3-4.9,6.2-8.1,8.5c-3,2.3-6.8,3.2-10.2,4.7c-6.9,3-13.9,5.8-21,8.4L476.3,402.8z"/>
<path class="st0" d="M513.2,429.2c6-4.6,12.1-9,18.3-13.2c3.1-2.1,5.9-4.8,9.5-6.1c3.6-1.6,7.6-2.4,11.5-2.4l0.4,0.7
	c-2.1,3.3-4.9,6.2-8.1,8.5c-3,2.3-6.8,3.2-10.2,4.7c-6.9,3-13.9,5.8-21,8.4L513.2,429.2z"/>
<path class="st0" d="M555.4,457.3c6-4.6,12.1-9,18.3-13.2c3.1-2.1,5.9-4.8,9.5-6.1c3.6-1.5,7.6-2.3,11.5-2.3l0.4,0.7
	c-2.1,3.3-4.9,6.2-8.1,8.5c-3,2.3-6.8,3.2-10.2,4.7c-6.9,3-13.9,5.8-21,8.4L555.4,457.3z"/>
<path class="st0" d="M584.7,480.2c6-4.6,12.1-9,18.3-13.2c3.1-2.1,5.9-4.8,9.5-6.1c3.6-1.5,7.6-2.3,11.5-2.3l0.4,0.7
	c-2.1,3.3-4.9,6.2-8.1,8.5c-3,2.3-6.8,3.2-10.2,4.7c-6.9,3-13.9,5.8-21,8.4L584.7,480.2z"/>
<path class="st0" d="M621.6,506.6c6-4.6,12.1-9,18.3-13.2c3.1-2.1,5.9-4.8,9.5-6.1c3.6-1.5,7.6-2.3,11.5-2.3l0.4,0.7
	c-2.1,3.3-4.9,6.2-8.1,8.5c-3,2.3-6.8,3.2-10.2,4.7c-6.9,3-13.9,5.8-21,8.4L621.6,506.6z"/>
<path class="st0" d="M322.4,73c6.4-2.5,12.9-4.8,19.4-7c3.2-1.1,6.4-2.6,9.8-3.1c3.5-0.6,7-0.7,10.5-0.3l0.1,0.5
	c-2.8,2.1-6,3.8-9.3,4.9c-3.2,1.2-6.7,1.4-10,2.1c-6.7,1.3-13.5,2.4-20.3,3.4L322.4,73z"/>
<path class="st0" d="M331,119.5c6.4-2.4,12.9-4.8,19.4-6.9c3.2-1.1,6.4-2.6,9.8-3.1c3.5-0.6,7-0.7,10.5-0.3l0.1,0.5
	c-2.8,2.1-6,3.7-9.3,4.9c-3.2,1.2-6.7,1.4-10,2.1c-6.7,1.3-13.5,2.4-20.3,3.4L331,119.5z"/>
<path class="st0" d="M332.7,174.8c6.4-2.4,12.9-4.8,19.4-6.9c3.2-1.1,6.4-2.6,9.8-3.1c3.5-0.6,7-0.7,10.5-0.3l0.1,0.5
	c-2.8,2.1-6,3.7-9.3,4.9c-3.2,1.2-6.7,1.4-10.1,2.1c-6.7,1.3-13.5,2.4-20.3,3.4L332.7,174.8z"/>
<path class="st0" d="M325.8,221.4c6.4-2.5,12.9-4.8,19.4-6.9c3.2-1.1,6.4-2.6,9.8-3.1c3.5-0.6,7-0.7,10.5-0.3l0.1,0.5
	c-2.8,2.1-6,3.7-9.3,4.9c-3.2,1.2-6.7,1.4-10,2.1c-6.7,1.3-13.5,2.4-20.3,3.4L325.8,221.4z"/>
</svg>
