<svg id="Layer_1" data-name="Layer 1" xmlns="http://www.w3.org/2000/svg" viewBox="0 0 892.65 615.01"><title>dimensions icon</title><path d="M222.75,38.74c.19-.08.14-.29.2-.24l.52.33,1,.67,2,1.36,4,2.83c2.61,1.94,5.14,4,7.64,6.1,5,4.18,9.79,8.67,14.44,13.3A184.26,184.26,0,0,1,277,94.18c14.13,22.43,22.7,49.22,22.37,76.44,0,27.3-9.68,53.76-24.15,75.81-14.2,22.43-32.6,41.25-51.57,58.87l-2.18-4.22A420.38,420.38,0,0,0,281,284.67c19.11-7.16,38.62-15,54.24-26.86a41.6,41.6,0,0,0,5.39-4.62,25.35,25.35,0,0,0,4.44-4.81,73.68,73.68,0,0,0,6.52-12.52,209.27,209.27,0,0,0,8.86-28.53,314.39,314.39,0,0,0,8.16-59.92c.8-20.09.05-40.31-3.94-59.51-4.12-18.89-12-37.64-27.13-47.36-2-1-3.86-2.2-5.9-3.11-2.18-.72-4.08-1.64-6.5-2.28-4.89-1.18-9.75-2.65-14.69-3.62a190.65,190.65,0,0,0-29.87-4.42,136.86,136.86,0,0,0-30.06,1.53,84.69,84.69,0,0,0-14.62,3.8c-2.34.94-4.68,1.9-7,3-1.15.54-2.23,1.18-3.34,1.8l-1.6,1-.77.54-.38.27S222.92,38.84,222.75,38.74Zm-1.56.12a2.15,2.15,0,0,1,.58-1l.36-.35.73-.7,1.5-1.32c1-.81,2.08-1.66,3.18-2.41A66.48,66.48,0,0,1,234.36,29,89.06,89.06,0,0,1,249.22,23c10.2-3.22,20.89-4.45,31.52-4.89a194.89,194.89,0,0,1,31.84,1.78c5.28.68,10.44,1.86,15.68,2.78,2.62.51,5.55,1.54,8.32,2.32,2.75,1,5.38,2.38,8.07,3.61,10.35,5.87,18.36,15,24,24.7s9.31,20.4,11.91,31c5.19,21.24,5.59,42.82,4.45,64A330.92,330.92,0,0,1,374.45,211a180.39,180.39,0,0,1-11,30.24,86,86,0,0,1-8.68,14.49,36.64,36.64,0,0,1-6.36,6.27,47.75,47.75,0,0,1-6.8,4.94c-9.26,6-19.05,10.15-28.89,13.91s-19.8,6.92-29.81,9.83c-20.05,5.77-40.16,10.73-60.49,15.29l-8.64,1.94,6.47-6.16a231.8,231.8,0,0,0,46-60.53c11.53-22.28,18.8-46.36,19.29-70.78.73-24.44-6.06-48.84-17.68-71a219.17,219.17,0,0,0-20.61-31.66c-3.87-5-7.9-10-12.24-14.68-2.15-2.36-4.37-4.66-6.63-6.93L225,42.72l-1.74-1.67-.88-.81-.44-.41a2.65,2.65,0,0,1-.69-1Z" style="fill:#1d1d1b"/><path d="M347.55,254.74Q399.82,288.4,451,323.54q51.47,34.83,102.21,70.7C587.12,418,620.79,442.1,654,466.84l99.23,74.7,4.27,3.22-4.7,2.25c-19.43,9.27-38.83,18.59-58.09,28.18-19.37,9.41-38.41,19.44-57.63,29.13l-1.46.73-1.34-1c-34.58-24.73-69.81-48.58-104.82-72.72s-69.92-48.44-104.73-72.86L320.59,384.82Q268.72,347.71,217.32,310l.93.57c-23.79-14-42.64-32.9-57.86-55-14.48-22.38-24.24-48.37-25.18-75.07a135.18,135.18,0,0,1,.19-19.82c.27-3.28.36-6.57.77-9.83l1.54-9.76a69.14,69.14,0,0,1,2-9.67c.84-3.18,1.55-6.4,2.5-9.55,2.2-6.22,4.2-12.49,7.18-18.38,11.29-23.64,29.49-44.39,53-55.73l.65,1.42c-21.7,13.12-38,34.09-47,57.2-9.62,23-11.81,48.77-9.67,73.27s11.46,48,25.43,68.12a176.79,176.79,0,0,0,53.91,48.75l.62.35.31.22q52.13,36.78,103.67,74.33l102.82,75.5c34.17,25.31,68.38,50.57,102.22,76.34,34,25.59,67.72,51.48,102.12,76.47l-2.79-.22c19.28-9.57,38.73-18.78,57.87-28.63,19.24-9.66,38.34-19.59,57.41-29.56l-.43,5.46L646.65,477.05c-34.18-23.38-67.88-47.42-101.36-71.78s-66.91-48.73-100-73.73Q395.52,294.4,346.64,256Z" style="fill:#1d1d1b"/><path d="M592.37,567.85q27.17-15.36,54.62-30.12c9.12-5,18-10.38,27.57-14.53A207,207,0,0,1,704,512.54l.35.7a207,207,0,0,1-26.36,17c-9.08,5.07-18.77,8.9-28.26,13.13q-28.38,12.9-57,25.22Z" style="fill:#1d1d1b"/><path d="M207.53,120.62s26.47,4.81,28.87,48.13-28.87,50.53-28.87,50.53S181.06,200,181.06,168.75,200.31,115.81,207.53,120.62Z" style="fill:#1d1d1b"/><path d="M347.71,306.37q9-6.9,18.33-13.23c3.11-2.1,5.9-4.79,9.45-6.09A29.8,29.8,0,0,1,387,284.71l.38.68a30.06,30.06,0,0,1-8.13,8.5c-3,2.3-6.76,3.22-10.2,4.73q-10.33,4.5-21,8.43Z" style="fill:#1d1d1b"/><path d="M377,329.23q9-6.9,18.33-13.23c3.11-2.1,5.9-4.79,9.45-6.09a29.79,29.79,0,0,1,11.52-2.37l.38.69a30.16,30.16,0,0,1-8.13,8.49c-3,2.31-6.77,3.22-10.2,4.73q-10.33,4.5-21,8.43Z" style="fill:#1d1d1b"/><path d="M413.88,355.7q9-6.9,18.34-13.23c3.11-2.1,5.89-4.79,9.45-6.09A29.73,29.73,0,0,1,453.22,334l.38.68a30.06,30.06,0,0,1-8.13,8.5c-3,2.31-6.77,3.22-10.21,4.73q-10.32,4.5-21,8.43Z" style="fill:#1d1d1b"/><path d="M447.05,379.91q9-6.9,18.34-13.22c3.11-2.11,5.89-4.8,9.45-6.1a29.76,29.76,0,0,1,11.52-2.34l.38.69a30.16,30.16,0,0,1-8.13,8.49c-3,2.31-6.77,3.22-10.21,4.73q-10.32,4.5-21,8.43Z" style="fill:#1d1d1b"/><path d="M476.33,402.77q9-6.9,18.33-13.22c3.12-2.11,5.9-4.8,9.45-6.1a29.85,29.85,0,0,1,11.53-2.34l.37.69a29.76,29.76,0,0,1-8.13,8.49c-3,2.31-6.76,3.22-10.2,4.73q-10.32,4.5-21,8.43Z" style="fill:#1d1d1b"/><path d="M513.22,429.24q9-6.9,18.33-13.22c3.11-2.11,5.9-4.8,9.45-6.1a29.85,29.85,0,0,1,11.53-2.38l.38.69a30.16,30.16,0,0,1-8.13,8.49c-3,2.31-6.76,3.22-10.2,4.73q-10.33,4.5-21,8.43Z" style="fill:#1d1d1b"/><path d="M555.43,457.32q9-6.9,18.33-13.22c3.12-2.1,5.9-4.8,9.45-6.1a29.8,29.8,0,0,1,11.52-2.34l.38.69a29.89,29.89,0,0,1-8.13,8.49c-3,2.31-6.76,3.22-10.2,4.73q-10.35,4.5-21,8.43Z" style="fill:#1d1d1b"/><path d="M584.71,480.18q9-6.9,18.33-13.22c3.11-2.1,5.9-4.8,9.45-6.1A29.78,29.78,0,0,1,624,458.54l.38.69a29.89,29.89,0,0,1-8.13,8.49c-3,2.31-6.76,3.22-10.2,4.73q-10.34,4.5-21,8.44Z" style="fill:#1d1d1b"/><path d="M621.61,506.65q9-6.9,18.33-13.22c3.11-2.1,5.9-4.8,9.45-6.1A29.76,29.76,0,0,1,660.91,485l.38.69a29.89,29.89,0,0,1-8.13,8.49c-3,2.31-6.77,3.22-10.21,4.73q-10.32,4.5-21,8.43Z" style="fill:#1d1d1b"/><path d="M322.39,73q9.63-3.69,19.38-7c3.25-1.08,6.38-2.6,9.79-3.09a35,35,0,0,1,10.51-.31l.13.5A34.71,34.71,0,0,1,352.87,68c-3.21,1.24-6.68,1.44-10,2.09q-10.11,1.91-20.3,3.4Z" style="fill:#1d1d1b"/><path d="M331,119.54q9.64-3.67,19.38-6.94c3.25-1.08,6.39-2.6,9.79-3.1a35,35,0,0,1,10.52-.31l.13.51a35.15,35.15,0,0,1-9.33,4.86c-3.21,1.23-6.69,1.44-10,2.08q-10.11,1.92-20.3,3.41Z" style="fill:#1d1d1b"/><path d="M332.74,174.79q9.63-3.67,19.38-6.94c3.25-1.08,6.38-2.6,9.79-3.09a34.62,34.62,0,0,1,10.51-.32l.13.51a35.09,35.09,0,0,1-9.32,4.86c-3.21,1.23-6.69,1.44-10.06,2.08q-10.1,1.92-20.3,3.41Z" style="fill:#1d1d1b"/><path d="M325.84,221.38q9.63-3.69,19.38-6.95c3.25-1.08,6.38-2.6,9.79-3.09a35,35,0,0,1,10.51-.31l.13.5a34.71,34.71,0,0,1-9.33,4.86c-3.21,1.24-6.68,1.44-10.05,2.09q-10.11,1.91-20.3,3.4Z" style="fill:#1d1d1b"/></svg>