<svg id="Layer_1" data-name="Layer 1" xmlns="http://www.w3.org/2000/svg" viewBox="0 0 659.49 522"><title>downlighting</title><path d="M367.57,490.64l-88,0-88,.54-88,.79-44.07.29c-3.74-.11-7.87-.38-11.67-2.58a13.59,13.59,0,0,1-4.62-4.55,20.78,20.78,0,0,1-2.26-5.75,22.28,22.28,0,0,1,.38-12.06,26.88,26.88,0,0,1,6.21-10.21l64.12-60.5,16-15.09,2-1.89,1-.95c.41-.36.8-.73,1.24-1.06a16.66,16.66,0,0,1,5.87-2.95c4.24-1.16,8.12-.82,11.7-.9l44-.18,176.05-.74,176-.92,44-.14c3.73-.12,8.77.34,12.9,2.54a26.79,26.79,0,0,1,5.53,3.81l4.16,3.79,16.21,14.88,32.31,29.86,16.16,14.93,8.08,7.47a91.65,91.65,0,0,1,8.25,8.18,28.23,28.23,0,0,1,3.6,5.5,32.32,32.32,0,0,1,2.2,6.13,22,22,0,0,1-.68,13.65,18.45,18.45,0,0,1-10,10,18.11,18.11,0,0,1-3.23,1.1,21,21,0,0,1-3.25.64,27.34,27.34,0,0,1-3.22.25c-1.11.06-1.89,0-2.85,0l-44-.45-88-1.38-88-1.36C426.26,491,396.92,490.79,367.57,490.64Zm0-.95c29.35-.15,58.69-.33,88-.7l88-1.36,88-1.42,44-.53c.87,0,1.93,0,2.65-.05a18.24,18.24,0,0,0,2.26-.21,12.31,12.31,0,0,0,2.14-.45,10,10,0,0,0,2-.69,9.28,9.28,0,0,0,5.14-5.15,12.89,12.89,0,0,0,.13-8,23.65,23.65,0,0,0-1.55-4.18,19.7,19.7,0,0,0-2.49-3.65,85.93,85.93,0,0,0-7.42-7.23l-8.11-7.44L654.1,433.79,621.64,404l-16.17-14.93-4-3.64A16.75,16.75,0,0,0,598,383c-2.42-1.25-4.92-1.61-8.48-1.55l-44-.13-176-.88-176.06-.69-44-.17c-3.72,0-7.3-.22-10.18.6a11,11,0,0,0-3.91,1.92c-.3.22-.57.48-.86.72l-1,.93-2,1.87-16.14,15L50.9,460.4a22.15,22.15,0,0,0-5.27,8.35,17.76,17.76,0,0,0-.42,9.65,16.47,16.47,0,0,0,1.66,4.48A9.22,9.22,0,0,0,50,486c2.57,1.58,6,2,9.57,2.12l43.95.31,88,.76,88,.5Z" transform="translate(-40.23 -95)"/><path d="M310.67,245c0-14.26.05-28.51-.07-42.77L310,159.45,309.58,138a15.59,15.59,0,0,1,1-5.78,8.08,8.08,0,0,1,4.55-4.46,17.26,17.26,0,0,1,5.8-1l5.38-.1,42.76-.65,42.75-.4,5.44,0a12.33,12.33,0,0,1,6.62,1.67,7.69,7.69,0,0,1,2.71,3.1,12.1,12.1,0,0,1,1,3.38,42.4,42.4,0,0,1,.27,5.76l.18,21.39.72,85.53.91,85.53.13,21.38c0,.83,0,2-.07,3.09a16.07,16.07,0,0,1-.7,3.75,10.24,10.24,0,0,1-2.61,4.25,10.52,10.52,0,0,1-4.29,2.46,23.53,23.53,0,0,1-6.73.73H410.1l-42.73-.16c-14.24-.17-28.49-.39-42.74-.77l-5.46-.16a14.59,14.59,0,0,1-6.89-1.74,8.28,8.28,0,0,1-3.14-3.21,11.15,11.15,0,0,1-1.2-3.67,33.16,33.16,0,0,1-.16-6l.74-21.37,1.4-42.76C310.31,273.49,310.51,259.24,310.67,245Zm.95,0c.13,14.26.3,28.51.66,42.77l1.31,42.78.7,21.4a26.3,26.3,0,0,0,.4,4.69,4.24,4.24,0,0,0,.53,1.36,1.27,1.27,0,0,0,.63.48,8.43,8.43,0,0,0,3.46.43l5.23-.14c14.26-.4,28.53-.63,42.8-.83l42.82-.21c3.43-.1,7.75.2,9.22-.26.34-.11.37-.16.33-.12s0,.06.14-.27a7.18,7.18,0,0,0,.27-1.49c.06-.64.06-1.3.07-2.26l.13-21.39.89-85.55.7-85.54.18-21.39a38.14,38.14,0,0,0-.12-4.91,6.7,6.7,0,0,0-.46-1.74,2,2,0,0,0-.74-.9c-1.36-1.08-5.37-.78-8.88-.86l-42.79-.31-42.79-.55c-3.57.05-7.22-.42-10,.56a4.91,4.91,0,0,0-3,2.71,12.64,12.64,0,0,0-1,4.66L312,159.43l-.46,42.78C311.46,216.46,311.53,230.72,311.62,245Z" transform="translate(-40.23 -95)"/><path d="M298.62,245.3c-.05,12.72-.07,25.44.05,38.16l.58,38.15.43,19.07.21,9.54c0,3.13.5,6.63-1.48,10.26a8,8,0,0,1-4.8,3.53,19.06,19.06,0,0,1-5.25.63l-9.57.13-19.05.27-19.05.14-9.52.08c-1.58,0-3.14.06-4.93,0a12.07,12.07,0,0,1-5.89-1.49,7.52,7.52,0,0,1-2.57-2.63,10,10,0,0,1-1.13-3.07,27.12,27.12,0,0,1-.36-5.32l0-9.54-.09-19.08-.34-76.32-.53-76.33,0-19.08c0-3.15-.06-6.37.17-9.85l.25-2.65c.13-.92.28-1.85.46-2.79a17.72,17.72,0,0,1,2.49-6.08,14.2,14.2,0,0,1,5.56-4.72A23.31,23.31,0,0,1,230,124.6a74.55,74.55,0,0,1,10.21-.81c6.45-.16,12.86-.14,19.24-.08l19,.33,9.44,0a23.35,23.35,0,0,1,5.82.59,12.23,12.23,0,0,1,3.34,1.37,9.87,9.87,0,0,1,2.9,2.82,12.92,12.92,0,0,1,1.94,6.34,46.64,46.64,0,0,1,0,5.19l-.37,9.54L300.77,169l-1.4,38.15C299,219.86,298.78,232.58,298.62,245.3Zm-.95,0c-.14-12.72-.3-25.44-.66-38.16L295.7,169,295,149.88l-.35-9.54a38.09,38.09,0,0,0-.29-4.34,6,6,0,0,0-.88-2.66,1.9,1.9,0,0,0-.54-.44,5.34,5.34,0,0,0-1.1-.32,15.76,15.76,0,0,0-3.67-.11c-3.21.18-6.42.36-9.63.42l-19.13.3c-6.35,0-12.65.05-18.92.27a67.24,67.24,0,0,0-8.79.74,14,14,0,0,0-3.31,1,4.35,4.35,0,0,0-1.61,1.37c-.79,1.2-1.43,3.85-1.61,6.74s-.22,6-.27,9.21l-.23,19.08-1.27,76.31-1.08,76.3-.27,19.08-.14,9.54c-.16,3.23.17,5.82,1.32,6.35a7.07,7.07,0,0,0,3.27.77c1.38.07,3,0,4.61.07l9.55.11,19.12.21,19.1.33,9.51.16c3,.11,5.89-.3,7-2.17a9.15,9.15,0,0,0,1.11-3.78c.17-1.45.17-3,.2-4.59l.19-9.54.36-19.09.48-38.16C297.81,270.74,297.75,258,297.67,245.3Z" transform="translate(-40.23 -95)"/><path d="M438.63,246.12c.05-12.66.06-25.32-.05-38l-.6-38-.43-19-.21-9.49c0-3.08-.43-6.6,1.22-10.15a8.44,8.44,0,0,1,4.34-4,15.72,15.72,0,0,1,5.29-1l9.57,0,19-.21c6.34,0,12.69,0,19.06.1a73.31,73.31,0,0,1,9.83.64,22,22,0,0,1,5.19,1.42,13.12,13.12,0,0,1,4.8,3.47c2.69,3.2,3.36,7,3.8,10.28a88.59,88.59,0,0,1,.41,9.76l.2,19,.82,76,1,75.94.17,19,.07,9.59a28.39,28.39,0,0,1-.49,5.68,13,13,0,0,1-3.24,6.63,12.46,12.46,0,0,1-6.77,3.51,28.84,28.84,0,0,1-5.75.41l-9.57-.35q-9.41-.3-18.85-.33t-18.9-.09h-9.47a23.8,23.8,0,0,1-5.77-.59,10.15,10.15,0,0,1-6.25-4.31,13.24,13.24,0,0,1-1.79-6.35c-.09-1.9,0-3.57.09-5.1l.37-9.49.74-19,1.42-38C438.26,271.44,438.47,258.78,438.63,246.12Zm.95,0c.13,12.66.3,25.32.65,38l1.3,38,.69,19,.35,9.5c.07,1.63.08,3.13.24,4.39a6.28,6.28,0,0,0,.83,2.68c.29.33.51.48,1.52.7a16.43,16.43,0,0,0,3.68.12c3.16-.16,6.34-.37,9.51-.47q9.52-.36,19.08-.53t19.12.14l9.42.26a19.41,19.41,0,0,0,3.71-.26c1-.22,1.42-.5,1.57-.7.41-.22,1.13-2.8,1.07-5.6l.06-9.4.11-19,.78-76,.6-76,.16-19a86.46,86.46,0,0,0-.21-9.2c-.29-2.9-.92-5.68-2.37-7.39s-3.84-2.72-6.71-3.2a66.9,66.9,0,0,0-9.09-.74c-6.3-.25-12.61-.37-18.93-.46l-19-.39-9.42-.28a12.62,12.62,0,0,0-4,.6,4.71,4.71,0,0,0-2.56,2.2,11.23,11.23,0,0,0-1,3.91c-.16,1.44-.13,3-.18,4.59l-.18,9.5-.36,19-.46,38C439.43,220.79,439.5,233.46,439.58,246.12Z" transform="translate(-40.23 -95)"/><path d="M169,253.23c.07-10.91.13-21.82.05-32.73l-.49-32.73c-.23-10.93-.56-21.8-.69-32.77.07-5.56.61-11.29,2.9-16.79a21.63,21.63,0,0,1,5.35-7.34,22.71,22.71,0,0,1,8.15-4.1c5.82-1.4,11.61-1.15,17.17-.51a24.05,24.05,0,0,1,4.45.77,8.15,8.15,0,0,1,2.67,1.28,5.37,5.37,0,0,1,2.06,3.26,7.36,7.36,0,0,1-.09,3.08,15.55,15.55,0,0,1-.69,2.35,19,19,0,0,0-1,3.49c-.86,4.71-.11,10.26-.18,15.81l.19,16.36.78,65.45,1,65.44.28,32.72v8.18c0,2.8.07,5.26-.09,8.47a24.43,24.43,0,0,1-.75,5,12.7,12.7,0,0,1-3.11,5.7,12.3,12.3,0,0,1-5.76,3.18,22.62,22.62,0,0,1-5.1.65c-1.6,0-3.08,0-4.4-.1l-4.12-.19c-2.74-.12-5.58-.32-8.56-.69l-2.35-.43c-.8-.17-1.68-.48-2.51-.73a20.46,20.46,0,0,1-2.67-1.3,11.38,11.38,0,0,1-2.47-2.22c-.35-.44-.68-.88-1-1.34s-.45-.9-.67-1.36a11.52,11.52,0,0,1-.87-2.65,15.58,15.58,0,0,1-.43-2.43,21.41,21.41,0,0,1-.21-2.29c-.26-5.89.19-11.23.38-16.71l.71-16.36L168.27,286C168.64,275.05,168.82,264.14,169,253.23Zm.94,0c.15,10.91.33,21.82.7,32.73L172,318.69l.71,16.36c.26,5.42.4,11,1,16,.26,2.45.93,4.69,1.65,5.27.43.67,2.37,1.14,4.77,1.4s5,.3,7.76.32,5.65.09,7.85,0,4.16-.68,4.33-1.09c.38-.25,1-2.18,1-4.52s0-5.24,0-7.89l0-8.19.21-32.73.83-65.47.65-65.47.16-16.36c0-2.77,0-5.31,0-8.13a41.67,41.67,0,0,1,.66-8.72,25,25,0,0,1,1.3-4.36,6.57,6.57,0,0,0,.62-2.52c0-.11.07,0-.06-.12a3.37,3.37,0,0,0-1-.46,20.32,20.32,0,0,0-3.59-.68c-5.22-.73-10.53-1-15.37.06a18.08,18.08,0,0,0-6.49,2.94,17.4,17.4,0,0,0-4.4,5.63c-2.09,4.53-2.87,9.86-3.12,15.16l-.86,32.68L170,220.51C169.85,231.41,169.87,242.32,169.92,253.23Z" transform="translate(-40.23 -95)"/><path d="M567.2,250.54c0,10.9-.06,21.79.06,32.69l.6,32.67.84,32.67c0,2.69.31,5.44-.2,8.54a9.28,9.28,0,0,1-2.09,4.66,8.8,8.8,0,0,1-4.55,2.55,41.76,41.76,0,0,1-8.63.61c-2.73,0-5.47,0-8.27,0a30,30,0,0,1-8.81-1.37,9.74,9.74,0,0,1-4.33-3.12,8.66,8.66,0,0,1-1.36-2.28,12.24,12.24,0,0,1-.79-2.32,43.24,43.24,0,0,1-1-8.65c-.12-2.78-.15-5.52-.19-8.25l-.35-32.69-.72-65.36-.9-65.37-.13-16.34c0-1.35,0-2.81-.07-3.82l-.36-4a24.38,24.38,0,0,1,0-5.11,12.81,12.81,0,0,1,.78-3.1c0-.08.15-.36.1-.29l-.06.09a.54.54,0,0,0,0,.21c0,.21,0,0,0,.05a11.69,11.69,0,0,0-.73-2.47,42.66,42.66,0,0,1-1.48-4.45,11.89,11.89,0,0,1-.32-3.53,7.58,7.58,0,0,1,.48-2.28,6.53,6.53,0,0,1,1.23-2.23,11.29,11.29,0,0,1,.83-1c.27-.22.56-.44.85-.64a7.88,7.88,0,0,1,1.74-1,14,14,0,0,1,3-.93,29.77,29.77,0,0,1,5-.48l4.25,0a74.77,74.77,0,0,1,8.71.71,34.26,34.26,0,0,1,9.06,2.52,18.85,18.85,0,0,1,8.15,6.75,24.6,24.6,0,0,1,3.17,12c0,.76,0,1.56,0,2.2l-.13,4.09-1.36,32.7-1.32,32.7C567.51,228.75,567.34,239.65,567.2,250.54Zm-1,0c-.16-10.89-.36-21.78-.74-32.68l-1.39-32.67-1.44-32.66-.14-4.08c0-.72-.07-1.29-.12-1.88a12.16,12.16,0,0,0-.2-1.75,12.71,12.71,0,0,0-2.07-5.69c-1.95-2.84-6.22-4.3-11.16-4.82a66.66,66.66,0,0,0-7.59-.47l-3.91,0a21.1,21.1,0,0,0-3.1.34c-.55.06-.63.23-.91.27s0,.05,0,0a.08.08,0,0,0,0-.07,1,1,0,0,0,.21-.17c.11-.16.14-.34.24-.46s0-.37.08-.31a4.13,4.13,0,0,0,.08.52,33.81,33.81,0,0,0,1.15,3.28,18.83,18.83,0,0,1,1.34,5.4,8.4,8.4,0,0,1-.1,2.08c-.08.4-.17.8-.29,1.2l-.24.78a3.41,3.41,0,0,0-.22.85,14.89,14.89,0,0,0,0,3l.3,4.16c.08,1.71,0,3,0,4.35l-.13,16.34-.9,65.37-.71,65.36-.35,32.68c0,2.72-.06,5.44,0,8.09a38.33,38.33,0,0,0,.68,7.57c.56,2.33,1.41,3.6,3.34,4.39a26.06,26.06,0,0,0,7.25,1.22c2.65.17,5.35.25,8.07.32a38.12,38.12,0,0,0,7.66-.2c2.27-.45,3.27-1.53,3.8-3.91a48.26,48.26,0,0,0,.43-7.75l.7-32.7.47-32.69C566.4,272.33,566.34,261.44,566.25,250.54Z" transform="translate(-40.23 -95)"/><path d="M367.68,115.49c-10.29-.07-20.57-.12-30.86,0L306,116l-30.87.75-15.43.29c-2.39-.11-4.62.75-8.06.37a5.83,5.83,0,0,1-2.78-1.11,5.3,5.3,0,0,1-1.85-2.72,8.17,8.17,0,0,1,.21-5.29,16.1,16.1,0,0,1,5.87-6.8A20.12,20.12,0,0,1,261,97.88a40.5,40.5,0,0,1,8.19-.64l7.71-.09,30.86-.34,61.73-.7,61.72-.88L462,95c2.59,0,5.06,0,7.85,0a33.51,33.51,0,0,1,8.87,1.26,27.94,27.94,0,0,1,8.44,4,14.33,14.33,0,0,1,3.88,4.22,11.76,11.76,0,0,1,1.63,6.14,12.11,12.11,0,0,1-.44,3.09,7.76,7.76,0,0,1-.67,1.78,7.89,7.89,0,0,1-5,4.15,11.14,11.14,0,0,1-3.27.43,30.11,30.11,0,0,1-4.5-.52q-.94-.16-1.62-.24c-.26,0-.37,0-.58,0l-1,0-15.44-.47-30.87-1.37-30.87-1.32C388.25,115.8,378,115.63,367.68,115.49Zm0-.95c10.29-.16,20.57-.36,30.86-.74l30.85-1.4L460.24,111l15.42-.51,1,0c.44,0,1,0,1.35,0,.83.06,1.56.15,2.2.23a21.85,21.85,0,0,0,3.17.27c.31,0,.6-.06.54-.09a1.22,1.22,0,0,0-.5.33c-.11.05-.15.23-.19.21s0,.07,0,0a3.36,3.36,0,0,0,0-.72,2.18,2.18,0,0,0-.35-1.22,5,5,0,0,0-1.38-1.35,19.18,19.18,0,0,0-5.51-2.41c-3.61-1.06-8.76-.77-14-.81l-30.86-.25-61.72-.92L307.73,103l-30.86-.37-7.71-.09a36.06,36.06,0,0,0-7.18.37,15,15,0,0,0-6.09,2.6,11.88,11.88,0,0,0-4.3,4.52,3.51,3.51,0,0,0-.22,2.26.87.87,0,0,0,.22.45,1.46,1.46,0,0,0,.76.3c1.7.36,4.57-.29,7.32-.13l15.43.31L306,114l30.86.55C347.11,114.63,357.39,114.6,367.68,114.54Z" transform="translate(-40.23 -95)"/><path d="M140.45,252.67c.07-10.1.11-20.2,0-30.3L140,192.06l-.75-30.3c0-5-.43-10.06.16-15.41a26.57,26.57,0,0,1,2.11-7.95,18,18,0,0,1,5.33-6.7,21.76,21.76,0,0,1,3.62-2.25,19.47,19.47,0,0,1,4.07-1.54,8.22,8.22,0,0,1,2.72-.2,4.59,4.59,0,0,1,3.37,2,5.7,5.7,0,0,1,.84,3.21,11.68,11.68,0,0,1-.3,2.42l-.95,3.7c-.25,1.18-.51,2.36-.71,3.56a72.78,72.78,0,0,0-.85,7.25c-.68,9.78.35,19.77.63,30l.68,60.68.83,60.59.21,30.3-.06,15.15c0,2.47-.11,5.19,0,7.35a25.8,25.8,0,0,1-.14,4.68,11.08,11.08,0,0,1-.95,3.18,9.08,9.08,0,0,1-2.41,3.07,11.4,11.4,0,0,1-5.81,2.34,22.08,22.08,0,0,1-4.87.07,12.44,12.44,0,0,1-5.61-1.77,9.41,9.41,0,0,1-2.64-2.55,10.08,10.08,0,0,1-1.37-3,17.48,17.48,0,0,1-.53-4.9l.12-3.89.27-7.57,1.41-30.3,1.37-30.3C140.11,272.87,140.29,262.77,140.45,252.67Zm1,0c.14,10.1.32,20.2.69,30.3l1.34,30.31,1.39,30.3.26,7.58c.07,2.53.12,5.22.5,6.28.23.54.19.37.3.43a4.45,4.45,0,0,0,1.6.27,12.49,12.49,0,0,0,2.69-.15,2.09,2.09,0,0,0,1.14-.39c-.1.08-.13.3,0-.35a17.55,17.55,0,0,0,0-2.88c-.15-2.88-.08-5.22-.13-7.79l0-15.16.28-30.3,1-60.61.75-60.54c0-9.94-.86-20.16.1-30.55.22-2.59.61-5.19,1.09-7.76.25-1.29.56-2.57.87-3.85l1-3.62a9.78,9.78,0,0,0,.22-1.75c.09.17.42.25.19.19a3.24,3.24,0,0,0-1,.09,14.34,14.34,0,0,0-3,1.08,16.81,16.81,0,0,0-2.85,1.68c-3.62,2.47-5.51,6.72-6.2,11.43s-.57,9.82-.73,14.86l-.8,30.3-.55,30.3C141.3,232.47,141.34,242.57,141.4,252.67Z" transform="translate(-40.23 -95)"/><path d="M586,131.69a21.89,21.89,0,0,1,5.54,4.95,18.78,18.78,0,0,1,3.23,6.63c1.32,4.8.85,9.74,1,14.54l.47,29,.72,29,.56,29,.68,58,.31,29,.16,14.52,0,3.63,0,1.81c0,.61,0,1,.06,1.64a33.12,33.12,0,0,1,.12,4,9,9,0,0,1-2,5.51,9.42,9.42,0,0,1-5.16,2.94,19.4,19.4,0,0,1-4.53.37,13.94,13.94,0,0,1-4.87-.89,8.78,8.78,0,0,1-2.7-1.69,8.14,8.14,0,0,1-1.93-2.8,12.72,12.72,0,0,1-.83-5.12c0-1.42.12-2.64.15-3.69l-.1-7.09-.48-29c-.2-9.68-.31-19.36-.4-29s-.14-19.36-.1-29c-.13-38.71,2.66-77.42,3.84-116.13l.09.38a32.53,32.53,0,0,1-1.87-4.89c-.25-1.65-1.26-3-1.2-5.16a3.24,3.24,0,0,1,1.67-2.5,3.57,3.57,0,0,1,2.88-.46C583.28,129.84,584.44,131.1,586,131.69Zm-.42.85c-1.64-.57-3-1.83-4.46-2.14a2.48,2.48,0,0,0-3,2c-.06,1.33,1,3,1.33,4.65a24.07,24.07,0,0,0,2,4.52l.08.16v.22c1.31,38.71,4.21,77.41,4.21,116.12.08,9.67.1,19.35,0,29s-.13,19.35-.3,29l-.39,29-.11,7.42-.24,3.55a6.14,6.14,0,0,0,.15,2c.11.22-.05.16.43.41a6.68,6.68,0,0,0,2.23.4,12.16,12.16,0,0,0,2.69-.13,2.83,2.83,0,0,0,1.12-.42c.06,0,.26-.35.32-1.23s0-1.95,0-3.22c0-.6,0-1.38,0-2l0-1.82,0-3.63.18-14.51.36-29L593,244.9l.6-29,.77-29,.51-29c-.09-4.83.48-9.73-.84-14.33a17.87,17.87,0,0,0-3.15-6.3A21.08,21.08,0,0,0,585.59,132.54Z" transform="translate(-40.23 -95)"/><path d="M586.2,132.37a15.06,15.06,0,0,1-2.39.36,10.27,10.27,0,0,0-1.75.37c-.52.16-.88.44-.79.58a1.26,1.26,0,0,1,.27.54c.32.82,1,1.9,1.63,3.2a9.19,9.19,0,0,1,.84,2.44,5,5,0,0,1-1.16,4.34l-1.55,1.74-2.47-1.46a17.94,17.94,0,0,1-6.05-5.59,12.86,12.86,0,0,1-2-4.57,9.41,9.41,0,0,1,.53-5.58,9.28,9.28,0,0,1,3.84-4.41,7.3,7.3,0,0,1,3.72-1.06,6.47,6.47,0,0,1,3.37.88,7.42,7.42,0,0,1,3.17,3.64,9.65,9.65,0,0,1,.62,2c.06.34.09.69.13,1A2.18,2.18,0,0,1,586.2,132.37Zm-.8-.51a.74.74,0,0,0-.95.23l-.88-.28c-.56-.19-1.13-.32-1.61-.46a3.44,3.44,0,0,0-2.26,0c-.17.13-.1.31.14.44a1.9,1.9,0,0,0,.67.12c.3,0,0,.52-.11.78s-.32.45-.51.87a2.85,2.85,0,0,0-.07,1.7,9.88,9.88,0,0,0,2.7,4.15l-4,.28c-.5.49-.19,1.07-.16.68a3.81,3.81,0,0,0,0-1.37,28.38,28.38,0,0,1-.55-4.34,5.43,5.43,0,0,1,.23-1.54,3.15,3.15,0,0,1,1-1.57,3.85,3.85,0,0,1,2.75-.87,8.9,8.9,0,0,1,2.17.33A10.59,10.59,0,0,0,585.4,131.86Z" transform="translate(-40.23 -95)"/><path d="M118.12,526.19c.94,7.57,1.57,15.13,2.37,22.7l1,11.35.8,11.35c.25,3.79.72,7.57,1.12,11.36a58.17,58.17,0,0,1,.06,11.35c-.77,7.56-2.06,15.13-5.33,22.7h-1.19c-3.27-7.57-4.56-15.14-5.33-22.7a58.17,58.17,0,0,1,.06-11.35c.4-3.79.87-7.57,1.12-11.36l.8-11.35,1-11.35c.8-7.57,1.43-15.13,2.37-22.7Z" transform="translate(-40.23 -95)"/><path d="M617.58,526.19c.94,7.57,1.57,15.13,2.37,22.7l1,11.35.8,11.35c.26,3.79.73,7.57,1.13,11.36a59,59,0,0,1,.06,11.35c-.77,7.56-2.06,15.13-5.33,22.7h-1.19c-3.27-7.57-4.56-15.14-5.33-22.7a58.17,58.17,0,0,1,.06-11.35c.4-3.79.87-7.57,1.12-11.36l.8-11.35,1-11.35c.8-7.57,1.42-15.13,2.37-22.7Z" transform="translate(-40.23 -95)"/><path d="M517.37,526.19c1,7.57,1.57,15.13,2.37,22.7l1,11.35.8,11.35c.25,3.79.72,7.57,1.12,11.36a58.17,58.17,0,0,1,.06,11.35c-.77,7.56-2.05,15.13-5.33,22.7h-1.18c-3.28-7.57-4.57-15.14-5.34-22.7a59,59,0,0,1,.06-11.35c.4-3.79.87-7.57,1.13-11.36l.8-11.35,1-11.35c.79-7.57,1.42-15.13,2.37-22.7Z" transform="translate(-40.23 -95)"/><path d="M417.17,526.19c.94,7.57,1.57,15.13,2.37,22.7l1,11.35.8,11.35c.26,3.79.73,7.57,1.13,11.36a59,59,0,0,1,.06,11.35c-.77,7.56-2.06,15.13-5.33,22.7H416c-3.27-7.57-4.56-15.14-5.33-22.7a58.17,58.17,0,0,1,.06-11.35c.4-3.79.87-7.57,1.12-11.36l.8-11.35,1-11.35c.8-7.57,1.42-15.13,2.37-22.7Z" transform="translate(-40.23 -95)"/><path d="M317,526.19c1,7.57,1.57,15.13,2.37,22.7l1,11.35.8,11.35c.25,3.79.72,7.57,1.13,11.36a59,59,0,0,1,.05,11.35c-.77,7.56-2.05,15.13-5.33,22.7h-1.18c-3.28-7.57-4.57-15.14-5.34-22.7A59.77,59.77,0,0,1,310.5,583c.4-3.79.88-7.57,1.13-11.36l.8-11.35,1-11.35c.79-7.57,1.42-15.13,2.37-22.7Z" transform="translate(-40.23 -95)"/><path d="M218.32,526.19c1,7.57,1.58,15.13,2.37,22.7l1,11.35.8,11.35c.25,3.79.73,7.57,1.13,11.36a59.77,59.77,0,0,1,.06,11.35c-.78,7.56-2.06,15.13-5.34,22.7h-1.18c-3.28-7.57-4.56-15.14-5.34-22.7a59.77,59.77,0,0,1,.06-11.35c.4-3.79.88-7.57,1.13-11.36l.8-11.35,1-11.35c.8-7.57,1.42-15.13,2.37-22.7Z" transform="translate(-40.23 -95)"/></svg>