<?xml version="1.0" encoding="utf-8"?>
<!-- Generator: Adobe Illustrator 24.0.3, SVG Export Plug-In . SVG Version: 6.00 Build 0)  -->
<svg version="1.1" xmlns="http://www.w3.org/2000/svg" xmlns:xlink="http://www.w3.org/1999/xlink" x="0px" y="0px"
	 viewBox="0 0 569.9 567" style="enable-background:new 0 0 569.9 567;" xml:space="preserve">
<style type="text/css">
	.st0{fill:#B39053;}
	.st1{fill:#1D1D1B;}
	.st2{stroke:#000000;stroke-width:3;stroke-miterlimit:10;}
</style>
<g id="Layer_2">
	<path class="st0" d="M11,514l2-472c0,0,2-34,43-34s466,2,466,2s36-9,37,38s1,468,1,468s6,41-43,41s-127-2-127-2l-2-210l69-2l12-78
		l-76-3l-4-65c0,0,8-28,41-29s41-2,41-2l4-69l-70-5c0,0-86,4-96,69s-5,98-5,98l-73,2l4,84l71-2l-2,210l-256,3C48,556,12,559,11,514z
		"/>
</g>
<g id="Layer_1">
	<title>facebookicon</title>
	<path id="White" class="st1" d="M304.6,344.8c-11.9,1.3-23.7,2.4-35.6,3.2c-11.9,0.9-23.7,1.7-35.6,2.3l-6.3,0.3l-0.5-7.1
		c-0.9-13.8-1.3-27.5-2-41.2s-0.8-27.5-1.3-41.2l-0.3-9.7l10.3-0.3c11.9-0.4,23.7-0.4,35.6-0.6s23.7-0.3,35.6-0.1l-10.7,10.7
		c-0.1-12.4,0.5-24.7,0.8-37.1c0.7-12.4,0.7-24.5,2.4-37.7c3.4-25.7,14.2-51.4,33.2-69.3s44.4-27.1,69.6-29.2
		c25.1-1.4,50.2-1.4,75.2,0.1l5.6,0.3l0.3,6.4c1.2,24.6,2.6,49.1,3.4,73.7l0.3,9.9l-10.4,0.2l-40.8,1c-6.7,0.1-12.3,0.5-17.4,1.9
		s-8.4,3.5-10.2,6.5c-2.1,2.8-3.2,7.6-3.6,13.2c-0.2,2.9-0.2,5.7-0.1,9.1l0.2,10.2c0.3,13.6,0.1,27.2,0.2,40.8l-12.9-12.9
		c6.8,0,13.6-0.1,20.4,0l20.4,0.3c13.6,0.3,27.2,0.3,40.8,0.8l13.7,0.5l-2,12.7l-6.6,41.1l-7,41l-1.4,8l-7.3-0.4
		c-23.7-1.2-47.3-2.4-71-4.2l4.6-4.6L391,547.2h-2.4l-3.4-203.6l-0.1-4.3l4.7-0.3c23.7-1.8,47.3-3,71-4.2l-8.7,7.7l3.6-41.4
		l4.1-41.4l11.6,13.2c-13.6,0.5-27.2,0.5-40.8,0.8l-20.4,0.3c-6.8,0.2-13.6,0-20.4,0h-13l0.1-12.9c0.1-13.6-0.1-27.2,0.2-40.8
		l0.2-10.2c0-3.4,0.2-7.4,0.6-11.3c1-7.8,2.7-16.9,8.9-25c6-8.4,15.6-12.8,23.6-14.7s16.2-2,23.1-1.9l40.8,1l-10.1,10.1
		c0.8-24.6,2.1-49.1,3.3-73.7l5.9,6.7c-11.7-2-24.1-3.2-36.3-4.3c-12.2-1.2-24.4-1.6-36.6-1.4c-12,0.5-23.8,3.1-35,7.5
		c-11,4.6-21.1,11.2-29,19.9c-16.3,17.3-22.8,41.3-23.3,64.5c-0.1,11.5,0.9,24.1,1.3,36.4s0.8,24.7,0.8,37.1v10.6l-10.7,0.1
		c-11.9,0.2-23.7,0.1-35.6-0.1c-11.9-0.2-23.7-0.2-35.6-0.6l10-10c-0.4,13.7-0.7,27.5-1.3,41.2s-1.1,27.5-2,41.2l-6.8-6.8
		c11.9,0.7,23.7,1.4,35.6,2.3c11.9,0.9,23.7,2,35.6,3.2L304.6,344.8z"/>
	<path id="White-2" class="st2" d="M389.7,554c21.3-1.1,42.7-2,64-2.7s42.7-1.7,64-2.2l8-0.2c2.3,0,4.6-0.1,6.9-0.5
		c8.2-1.6,15-7.5,17.6-15.5c1.4-3.9,1.2-7.3,1.1-13.2l-1.3-64c-0.5-42.7-1.3-85.3-1.4-128l-0.3-64l0.2-64c0.4-42.7,1.5-85.3,2.6-128
		l0.8-32c0.4-8.5-3.8-16.5-11.1-21c-3.6-2.2-7.8-3.5-12.1-3.6l-16-0.4l-32-0.8c-85.3-1.6-170.7-1.6-256,0.1l-128,2.8l-32,0.8
		l-16,0.4l-4,0.1l-1.9,0.1L41.4,18c-9.5,0.9-17.2,8.2-18.7,17.6c-0.5,2.9-0.1,9.3-0.1,14.4l0.2,16c1.4,85.3,1.7,170.7,2.6,256
		l0.1,128l-0.5,64l-0.1,8v2c0,0.5,0,1.1,0,1.6c0,0.8,0.1,1.6,0.2,2.4c0.5,3.1,1.8,6.1,3.8,8.6c2,2.5,4.7,4.4,7.7,5.5
		c3.1,1.3,5.5,1.2,11.7,1.3c85.3,1,170.7,2.7,256,5l-6.8,6.8l1.1-49.7l1.4-49.7c1-33.2,1.9-66.3,3.2-99.4h2.4
		c1.3,33.1,2.2,66.3,3.2,99.4l1.4,49.7l1.1,49.7l0.2,6.6l-7,0.2c-85.3,2.4-170.7,4.1-256,4.9c-2.9,0-4.7,0.2-8.9,0
		c-3.7-0.2-7.4-1-10.9-2.2c-7.1-2.5-13.4-6.8-18.2-12.5c-4.9-5.8-8.1-12.7-9.3-20.2c-0.3-1.8-0.5-3.7-0.6-5.6
		c-0.1-1-0.1-1.8-0.1-2.4v-2l-0.1-8l-0.5-64l0.2-128c0.9-85.3,1.2-170.7,2.6-256l0.2-16l0.1-8c0-3.2,0.2-6.4,0.7-9.6
		C6.4,18.4,16.4,6.7,30,2.1c3.3-1.2,6.7-1.8,10.2-2L42.7,0h2.1l4,0.1l16,0.4l32,0.8l128,2.7c85.3,1.6,170.7,1.6,256,0.1l32-0.8
		l16-0.4c6.5-0.1,12.8,1.4,18.5,4.5c11.5,6.1,19,19.1,19.1,32.1l0.8,32c1.1,42.7,2.2,85.3,2.6,128l0.2,64l-0.4,64
		c-0.1,42.7-0.9,85.3-1.4,128l-1.3,64c-0.1,2.8,0,5-0.3,8.6c-0.3,3.3-1.1,6.6-2.3,9.7c-2.4,6.2-6.4,11.6-11.6,15.8
		c-5.2,4.1-11.3,6.7-17.8,7.6c-3,0.4-6,0.5-9,0.3l-8-0.2c-21.3-0.5-42.7-1.5-64-2.2s-42.7-1.6-64-2.7L389.7,554z"/>
</g>
</svg>
