<svg xmlns="http://www.w3.org/2000/svg" viewBox="0 0 102 70.42"><path d="M101.69,42.81a46.55,46.55,0,0,0-3.39-8.26A54,54,0,0,0,93.56,27c-.45-.6-.9-1.19-1.38-1.75a21.24,21.24,0,0,0-1.47-1.66,15.14,15.14,0,0,0-1.64-1.46A12.19,12.19,0,0,0,87.21,21,8.42,8.42,0,0,0,83,20.13a8,8,0,0,0-4,1.37h0l0,0a7.54,7.54,0,0,0-2.5,2.73,7.82,7.82,0,0,0-.91,3.61,10.35,10.35,0,0,0,.66,3.72l.32.9c.13.29.28.57.42.86A12.39,12.39,0,0,0,78,35a19,19,0,0,0,5.67,5.11,29.32,29.32,0,0,0,7.06,3.08l.26.08.09.21a1.26,1.26,0,0,1,.08.85,1.28,1.28,0,0,1-.45.68,2.55,2.55,0,0,1-1.13.45,15.39,15.39,0,0,1-2,.06c-1.27,0-2.53,0-3.79.05a30.61,30.61,0,0,0-7.37,1,9.08,9.08,0,0,0-3.19,1.53l-.34.26a4.12,4.12,0,0,0-.28.31,4.38,4.38,0,0,0-.53.66,12,12,0,0,0-.86,1.57,9.5,9.5,0,0,0-.32,6.89l0-.09a11,11,0,0,0,5.06,4.2,7.94,7.94,0,0,0,3.2.51,10.92,10.92,0,0,0,3.24-.77c2.22-.82,4.39-1.74,6.54-2.75s4.26-2.08,6.29-3.23l.59-.34.43.47a1.83,1.83,0,0,1,.44.8,1.87,1.87,0,0,1,0,.88,2.53,2.53,0,0,1-.73,1.22c-.41.43-.83.91-1.22,1.39a29.42,29.42,0,0,0-2.14,3.06A21.09,21.09,0,0,0,89.86,70a14.3,14.3,0,0,0,.39,7.13A8.11,8.11,0,0,0,94.81,82a6.54,6.54,0,0,0,3.29.47,5.78,5.78,0,0,0,3-1.15,6.2,6.2,0,0,0,2-2.57,20.75,20.75,0,0,0,1.14-3.47,49.81,49.81,0,0,0,1.16-7.45,64,64,0,0,0,.24-7.57l0-.88.78-.22a1.23,1.23,0,0,1,.51-.07,1.52,1.52,0,0,1,.38,0,1.76,1.76,0,0,1,.59.26,2.36,2.36,0,0,1,.68.71,6,6,0,0,1,.53,1.17c.24.57.58,1.21.91,1.82.67,1.22,1.42,2.42,2.21,3.57a20.58,20.58,0,0,0,5.56,5.9,8.69,8.69,0,0,0,3.7,1,13,13,0,0,0,4-.27,7.17,7.17,0,0,0,3.38-1.69,4.44,4.44,0,0,0,1.37-3.25,9.68,9.68,0,0,0-.81-3.85,21.29,21.29,0,0,0-2-3.67,25.64,25.64,0,0,0-5.62-6.19,30.28,30.28,0,0,0-7.34-4.19,32.42,32.42,0,0,0-8.21-2.17l-.13,0-.07-.08Zm.2-.1,4.66,5.13-.2-.1a32.11,32.11,0,0,1,16.27,5.95A26.75,26.75,0,0,1,128.75,60,22.63,22.63,0,0,1,131,63.89a11.21,11.21,0,0,1,1,4.52,6.28,6.28,0,0,1-1.83,4.51,9.1,9.1,0,0,1-4.2,2.23,15.08,15.08,0,0,1-4.58.4,10.66,10.66,0,0,1-4.57-1.2,15.56,15.56,0,0,1-3.56-2.94,30.83,30.83,0,0,1-2.78-3.49,42.8,42.8,0,0,1-2.35-3.75c-.36-.66-.7-1.28-1-2l-.2-.52a1.12,1.12,0,0,0-.14-.29c0-.07-.08-.09-.05-.07a.19.19,0,0,0,.11,0l.1,0a.66.66,0,0,0,.25,0l.76-1.11a58.64,58.64,0,0,1-1.49,15.66,23.59,23.59,0,0,1-1.3,3.85,8.39,8.39,0,0,1-2.74,3.38,7.9,7.9,0,0,1-4.1,1.51A8.59,8.59,0,0,1,94,83.91a10.08,10.08,0,0,1-5.63-6.12A16.17,16.17,0,0,1,88,69.66a22.94,22.94,0,0,1,3-7.42A32.32,32.32,0,0,1,93.35,59c.43-.51.86-1,1.35-1.5S95,57,95,57l1,.13c-2.12,1.19-4.27,2.24-6.46,3.25s-4.41,1.91-6.68,2.73a12.4,12.4,0,0,1-3.7.82,9.28,9.28,0,0,1-3.8-.64,12.34,12.34,0,0,1-5.73-4.85l0,0,0,0a10.8,10.8,0,0,1,.4-8,12.45,12.45,0,0,1,1-1.75,5.6,5.6,0,0,1,.67-.82c.12-.13.23-.27.36-.39l.42-.32A10.23,10.23,0,0,1,76,45.38a32.06,32.06,0,0,1,7.69-1c1.28,0,2.56,0,3.83,0a14.9,14.9,0,0,0,1.8,0,1.36,1.36,0,0,0,.63-.21c.1-.08.08-.11.08-.17l.35.29A30.3,30.3,0,0,1,83.1,41a19.72,19.72,0,0,1-5.87-5.46,13.31,13.31,0,0,1-1-1.75c-.14-.31-.3-.61-.43-.92l-.33-1a11.1,11.1,0,0,1-.65-4,8.34,8.34,0,0,1,3.86-6.92l0,0A8.57,8.57,0,0,1,83,19.5a9,9,0,0,1,4.46,1,12.63,12.63,0,0,1,1.94,1.22,16.29,16.29,0,0,1,1.67,1.54A21.43,21.43,0,0,1,92.55,25c.48.58.93,1.18,1.37,1.79A54.47,54.47,0,0,1,98.6,34.4,47.73,47.73,0,0,1,101.89,42.71Z" transform="translate(-30 -14.2)" style="fill:#fff"/><path d="M110.93,27.47q-5.18,10.88-10.42,21.7l-.7-.51,4.24-4.2c1.41-1.4,2.85-2.77,4.3-4.13s2.93-2.69,4.42-4,3-2.63,4.53-3.9l.08.08c-1.33,1.49-2.71,2.93-4.09,4.36s-2.79,2.83-4.19,4.25-2.85,2.77-4.31,4.12l-4.37,4L98.59,51l1.14-2.21q5.51-10.7,11.1-21.35Z" transform="translate(-30 -14.2)" style="fill:#fff"/><path d="M122.86,40.18Q117,43,111.05,45.67c-2,.91-3.91,1.88-5.93,2.67a63.4,63.4,0,0,1-6.18,2.12l0-.1a65,65,0,0,1,5.79-3c2-.92,4-1.67,6-2.47q6-2.43,12.11-4.79Z" transform="translate(-30 -14.2)" style="fill:#fff"/><circle cx="67.72" cy="31.53" r="1.33" style="fill:#fff"/><circle cx="67.07" cy="35.48" r="1.33" style="fill:#fff"/><circle cx="70.06" cy="38.11" r="1.33" style="fill:#fff"/><circle cx="73.95" cy="37.4" r="1.33" style="fill:#fff"/><circle cx="19.43" cy="20.27" r="4.93" style="fill:#fff"/><path d="M54.41,34.47a5.66,5.66,0,0,1-1.31,3.67,4.6,4.6,0,0,1-3.67,1.6,5.32,5.32,0,0,1-3.58-1.69,5.6,5.6,0,0,1-1.57-3.58,5,5,0,0,1,1.4-3.76,5.17,5.17,0,0,1,3.75-1.61,4.85,4.85,0,0,1,3.68,1.69A5.7,5.7,0,0,1,54.41,34.47Zm-.09,0a4.35,4.35,0,0,0-1.59-3.3,5.14,5.14,0,0,0-3.3-1.2,4.71,4.71,0,0,0-3.21,1.28,4.9,4.9,0,0,0-1.5,3.22A4.42,4.42,0,0,0,46,37.86a4.56,4.56,0,0,0,3.39,1.2,5.56,5.56,0,0,0,3.31-1.28A4.35,4.35,0,0,0,54.32,34.47Z" transform="translate(-30 -14.2)" style="fill:#fff"/><path d="M57.41,31a6.86,6.86,0,0,1,.69,1.65,9.13,9.13,0,0,1,.29,1.8l-.58-.13.17-.4a2,2,0,0,1,.26-.44,3.13,3.13,0,0,1,.69-.67,4,4,0,0,1,1.73-.71,7.1,7.1,0,0,1,3.55.43,13.37,13.37,0,0,1,3.11,1.63A14.26,14.26,0,0,1,70,36.46l.19.21L70,36.9a14.29,14.29,0,0,1-2.55,2.17,7.78,7.78,0,0,1-3.15,1.3,11.51,11.51,0,0,1-3.37-.12,8.42,8.42,0,0,1-1.61-.46,4.45,4.45,0,0,1-.75-.39,1.42,1.42,0,0,1-.57-.64l.08,0a2.37,2.37,0,0,0,1.36.71,9.16,9.16,0,0,0,1.57.24,12.7,12.7,0,0,0,3.15-.12A8.9,8.9,0,0,0,67,38.37a16.34,16.34,0,0,0,2.52-1.93l0,.44a15.16,15.16,0,0,0-2.36-2.45,8,8,0,0,0-3-1.56,7.56,7.56,0,0,0-3.31,0,3.13,3.13,0,0,0-2.44,1.78l-.69,1.76.11-1.89a8.17,8.17,0,0,0-.08-1.71,10.24,10.24,0,0,0-.37-1.71Z" transform="translate(-30 -14.2)" style="fill:#fff"/><path d="M57.3,38.16A7.18,7.18,0,0,1,56,40.52h0l0,0-.15.13-.26-.47a3.78,3.78,0,0,1,3.42.84,7.21,7.21,0,0,1,2,2.79,17.71,17.71,0,0,1,1.16,6.66v.26l-.29,0a14.4,14.4,0,0,1-3.34-.27,9.42,9.42,0,0,1-1.63-.46,6.08,6.08,0,0,1-1.52-.83,11.39,11.39,0,0,1-2.3-2.46,9.14,9.14,0,0,1-.81-1.47,3.8,3.8,0,0,1-.25-.81,1.31,1.31,0,0,1,0-.85l.07,0a2.36,2.36,0,0,0,.47,1.46,9,9,0,0,0,.94,1.28,13.31,13.31,0,0,0,2.31,2.14,9.13,9.13,0,0,0,2.85,1.18,16.7,16.7,0,0,0,3.15.43l-.31.28a13.31,13.31,0,0,0,.07-3.28,8.17,8.17,0,0,0-1-3.13,8.85,8.85,0,0,0-2.11-2.4,3.65,3.65,0,0,0-2.79-.89l-1.2.21.93-.68.16-.12,0,0a11.28,11.28,0,0,0,1.64-2Z" transform="translate(-30 -14.2)" style="fill:#fff"/><path d="M51.89,42.8a6.65,6.65,0,0,1-2,.52,8,8,0,0,1-2.07,0l.37-.29v.26L48.12,43a3.73,3.73,0,0,1,.61,3.49,7.86,7.86,0,0,1-1.69,3,15,15,0,0,1-2.52,2.25,14.18,14.18,0,0,1-3,1.67l-.27.11-.14-.28A14.11,14.11,0,0,1,40,50.1a8,8,0,0,1-.15-3.41,11.69,11.69,0,0,1,1.27-3.12,9.39,9.39,0,0,1,1-1.36,4.27,4.27,0,0,1,.63-.57,1.41,1.41,0,0,1,.79-.31v.08a2.28,2.28,0,0,0-1.13,1,8.52,8.52,0,0,0-.77,1.39,12.78,12.78,0,0,0-1,3,8.69,8.69,0,0,0,.15,3.08,15.79,15.79,0,0,0,.94,3l-.4-.16a11.08,11.08,0,0,0,5.47-3.47,7.53,7.53,0,0,0,1.26-3,4.4,4.4,0,0,0,.08-1.53,2.75,2.75,0,0,0-.51-1.34l-.1-.14v-.11l0-.27,0-.37.35.07a9.62,9.62,0,0,0,1.94.23,12.19,12.19,0,0,0,2-.16Z" transform="translate(-30 -14.2)" style="fill:#fff"/><path d="M43.86,41.13a7.42,7.42,0,0,1-2.2-2.26l0,0v-.54h.61a3.81,3.81,0,0,1-2,2.92,7.42,7.42,0,0,1-3.31.92,15.89,15.89,0,0,1-3.38-.24,14.8,14.8,0,0,1-3.28-.9L30,40.88l.09-.29a13.72,13.72,0,0,1,1.4-3,8.35,8.35,0,0,1,1-1.38A6.19,6.19,0,0,1,33.79,35a11.59,11.59,0,0,1,3.1-1.32,9.12,9.12,0,0,1,1.66-.26,4,4,0,0,1,.84,0,1.31,1.31,0,0,1,.78.33l-.05.06a2.35,2.35,0,0,0-1.53-.06,9.23,9.23,0,0,0-1.53.45,13,13,0,0,0-2.8,1.43A8.92,8.92,0,0,0,32.18,38,17.1,17.1,0,0,0,30.7,40.8l-.16-.39A15.06,15.06,0,0,0,33.6,41.6a8.6,8.6,0,0,0,3.27.19,8,8,0,0,0,3-1.19,4.65,4.65,0,0,0,1.16-1,3,3,0,0,0,.61-1.32h.61l0,.45,0-.15a10.25,10.25,0,0,0,1.75,2.48Z" transform="translate(-30 -14.2)" style="fill:#fff"/><path d="M40.75,34.47a8.57,8.57,0,0,1,.51-3.28h0l.09-.18.22.22a3.85,3.85,0,0,1-3.4-.33,8,8,0,0,1-2.56-2.28,11.33,11.33,0,0,1-1.48-3.1,15.12,15.12,0,0,1-.64-3.36l0-.31.31-.06a14.47,14.47,0,0,1,3.35-.14,8.24,8.24,0,0,1,3.27.83,12.65,12.65,0,0,1,2.66,2,9.31,9.31,0,0,1,1.07,1.28,4.24,4.24,0,0,1,.42.75,1.44,1.44,0,0,1,.15.91l-.3-.17.2-.19h0A9.32,9.32,0,0,1,47.06,26l-.1.1L47,26l.08.16a3.86,3.86,0,0,1-1.65-2.92,8,8,0,0,1,.36-3.36,11.57,11.57,0,0,1,1.58-3,15.55,15.55,0,0,1,2.29-2.51l.17-.15.17.16a14.93,14.93,0,0,1,2.13,2.56A8.45,8.45,0,0,1,53.47,20a12.68,12.68,0,0,1,0,3.37,9.76,9.76,0,0,1-.36,1.67,4.81,4.81,0,0,1-.35.82,1.68,1.68,0,0,1-.74.77l-.36-.73.11-.07.15-.09.17.06a9,9,0,0,1,2.67,1.32l-.64.55L54,27.48l0,0v0a4.08,4.08,0,0,1,1-3.51,8.4,8.4,0,0,1,2.74-2.18A11.2,11.2,0,0,1,61,20.79a15.64,15.64,0,0,1,3.42-.06l.31,0v.3a15.38,15.38,0,0,1-.4,3.32A8.59,8.59,0,0,1,63,27.45a12,12,0,0,1-2.4,2.28,8.56,8.56,0,0,1-1.43.85,2.37,2.37,0,0,1-1.61.29l0-.08a2.22,2.22,0,0,0,1.5-.38,9.14,9.14,0,0,0,1.33-.9,12.48,12.48,0,0,0,2.21-2.33,7.92,7.92,0,0,0,1.13-2.93,15.39,15.39,0,0,0,.29-3.17l.31.33a14.76,14.76,0,0,0-3.25.14,11.59,11.59,0,0,0-3.07.92,7.5,7.5,0,0,0-2.44,2,3.92,3.92,0,0,0-.72,1.33,2.63,2.63,0,0,0-.07,1.38l0-.07.11.21,1,1.73-1.58-1.18a8.39,8.39,0,0,0-2.4-1.23l.33,0-.11.07-.36-.74a1,1,0,0,0,.35-.41,4.1,4.1,0,0,0,.29-.67,7.8,7.8,0,0,0,.35-1.52,11.87,11.87,0,0,0,0-3.15,7.87,7.87,0,0,0-1.16-2.88,16,16,0,0,0-2-2.53l.34,0a14.49,14.49,0,0,0-2.29,2.34,10.34,10.34,0,0,0-1.62,2.85,7.74,7.74,0,0,0-.39,3.24,3.52,3.52,0,0,0,1.52,2.69l.1.06,0,.11,0,.14,0,.08-.08,0a7.87,7.87,0,0,0-2.31,1.08l0,0-.19.19-.36.36.06-.53A2.22,2.22,0,0,0,43.79,26a8.44,8.44,0,0,0-1.07-1.17A12.18,12.18,0,0,0,40.12,23a8.14,8.14,0,0,0-3-.7,16,16,0,0,0-3.17.15l.29-.37a15.22,15.22,0,0,0,.56,3.2,11,11,0,0,0,1.34,2.94,7.65,7.65,0,0,0,2.31,2.22,3.56,3.56,0,0,0,3,.45l.45-.16-.24.38-.1.18v0a8.78,8.78,0,0,0-.72,3.16Z" transform="translate(-30 -14.2)" style="fill:#fff"/></svg>