<svg xmlns="http://www.w3.org/2000/svg" viewBox="0 0 368.4 620.94"><title>fridgefreezer</title><path d="M496.8,25.31a36.27,36.27,0,0,0-1.88-5.58,18.19,18.19,0,0,0-3.76-6.37A22,22,0,0,0,479,4.19,30.85,30.85,0,0,0,470.5,3h-7.05c-3.29,0-5.63.4-8.45.4h-9.39L408,3c-49.78-.4-100-.4-149.82-.79h-69.5l-4.23-.4c-6.11-.4-12.68-.8-19.73-.8h-6.1c-3.29,0-6.11.8-8.92,1.2a23.47,23.47,0,0,0-14.09,8c-3.29,4-4.7,9.16-5.17,14.34-.47,1.6,0,2.4-.47,2.79v6.78c0,6,.94,11.16,1.41,16.74.47,5.18,1.41,11.16,1.41,14.75V602.81a15.27,15.27,0,0,0,3.76,8.37c3.75,4.79,11.74,7.18,18.78,9.17a44.14,44.14,0,0,0,8.92,1.2,45.67,45.67,0,0,0,7.05.39c8.92,0,16.91-.79,23.95-1.19,5.64-.4,14.09,0,21.61-.4H377c57.76,0,104.73-6,104.73-13.55,1.88,0,3.76-5.58,4.22-16.74h0c3.76-168.59,7.05-337.57,8.93-507,0-9.56,1.88-19.93,2.82-30.69a103.15,103.15,0,0,0,.47-17.13C497.74,31.69,497.27,28.5,496.8,25.31Zm-335.33,2h0c0-.39.47-.39,0,0,.47-.39,2.34-.39,3.75-.39,5.17,0,11.28.39,17.38.79l5.17.4h71.38c49.79-.4,100-.4,149.82-.8l37.57-.39h9.4c3.28,0,7-.4,10.33-.4h2.35a1,1,0,0,1,.94.79,1.16,1.16,0,0,0,.47.8l.47,2a26.63,26.63,0,0,1,.94,6.38c.47,4.39,0,9.57-.47,14.75-.47,10-2.35,20.72-2.35,32.28.47,39.06.94,78.12,1.88,117.17a28.06,28.06,0,0,0-5.64-.79H346.51c-60.59,0-121.17,3.19-181.29,8.77V66c0-6.77-.94-11.95-1.41-17.13s-.93-10.37-1.4-15.15V30.09ZM285,592.85H205.14c-3.28,0-8.92,0-12.68.4-8,.4-15,1.19-21.6,1.19h-4.23a6.69,6.69,0,0,1-2.35-.39h0V217c60.12,6,120.7,8.76,181.29,8.76H464.39a28.31,28.31,0,0,0,6.11-.79c1.88,121.55,3.75,243.51,6.57,364.67h0a43.52,43.52,0,0,0,1.88,14c-9.86-6-52.13-10.76-102.85-10.76Z" transform="translate(-130 -1)"/><path d="M217.82,156.83c7.05-8.27,11.46-19.15,10.17-29.75l-1.21-16.36s0-.12,0-.08a2,2,0,0,0,.12.81,2.84,2.84,0,0,0,.48.81c.34.31.23.23.26.27l-.51-.1c-.47-.12-1.08-.22-1.67-.31-1.21-.16-2.51-.26-3.8-.33-2.59-.1-5.23-.2-7.86-.16s-5.26.18-7.85.34c-1.29.09-2.57.23-3.78.42-.61.09-1.18.21-1.7.33l-.61.16c-.09,0-.15,0-.07,0a3.88,3.88,0,0,0,.51-.53,2.75,2.75,0,0,0,.58-1.59c0-.27,0,.08,0,.08l0,.51-.05,1-.09,2-.22,4.09-.61,8.18c-1.16,10.38,2.78,21.19,9.61,29.67h0a12,12,0,0,0,4.11.67A16.31,16.31,0,0,0,217.82,156.83Zm0,0a16.76,16.76,0,0,1-4.25.31,11.71,11.71,0,0,1-4.28-.6l0,0c-7.13-8-13.48-18.13-13.87-29.84l-.61-8.18-.22-4.09-.09-2,0-1,0-.51a2.55,2.55,0,0,1,0-.44,3.85,3.85,0,0,1,.78-2.05,4.5,4.5,0,0,1,1.32-1.13,5.86,5.86,0,0,1,.85-.44c.54-.24.9-.34,1.33-.49.8-.22,1.56-.39,2.3-.53,1.47-.28,2.9-.47,4.33-.62a61.82,61.82,0,0,1,8.48-.35,65.61,65.61,0,0,1,8.48.61c1.42.2,2.83.43,4.3.77a20.91,20.91,0,0,1,2.3.65,10.36,10.36,0,0,1,1.4.63,4.54,4.54,0,0,1,1.1.84,2.84,2.84,0,0,1,.77,1.22,3.26,3.26,0,0,1,.21,1v.17l-1.21,16.36C230.62,138.56,224.74,148.58,217.82,156.83Z" transform="translate(-130 -1)"/><path d="M214.07,268a41.86,41.86,0,0,0-12.31,1.73c-1.93.65-4.11,1.74-3.39,4.1l.18,6.25,1.21,25c1.09,16.46,6.23,32.14,13.19,46.76l.09.22a2.5,2.5,0,0,0-.81-1.16,1.66,1.66,0,0,0-.34-.25c-.25-.12-.1-.07-.18-.09l.52.09a11.57,11.57,0,0,0,1.6.08,13.27,13.27,0,0,0,1.6-.08l.52-.09c-.08,0,.07,0-.18.09a1.29,1.29,0,0,0-.34.25,2.5,2.5,0,0,0-.81,1.16l.1-.22C220.48,339.73,225,327,227,313.55c1-6.67,1.16-13.55,1.54-20.46s.65-13.78.82-20.68v0c.1-1.25-1.6-2-2.79-2.46a25.7,25.7,0,0,0-4.07-1.09A49.49,49.49,0,0,0,214.07,268Zm0,0a49.85,49.85,0,0,1,8.45.62,25.43,25.43,0,0,1,4.13,1c1.18.55,3,.94,3.13,2.79v0c.17,6.9.43,13.79.82,20.68s.89,13.79.5,20.85a105,105,0,0,1-10.17,40.86l.1-.22a4.67,4.67,0,0,1-1.13,1.58,7.78,7.78,0,0,1-.79.53,6.34,6.34,0,0,1-1.15.48,11.51,11.51,0,0,1-1.54.34,17.75,17.75,0,0,1-5.18,0,11.4,11.4,0,0,1-1.53-.34,6.5,6.5,0,0,1-1.15-.49,6.81,6.81,0,0,1-.79-.53,4.54,4.54,0,0,1-1.13-1.57l.09.22a108.81,108.81,0,0,1-8.14-24.27,113.67,113.67,0,0,1-2.1-25.39l1.16-25,.18-6.25c0-.92-.09-2.36,1-3a10.12,10.12,0,0,1,2.85-1.37A42.17,42.17,0,0,1,214.07,268Z" transform="translate(-130 -1)"/></svg>