<svg xmlns="http://www.w3.org/2000/svg" viewBox="0 0 196.31 204.76"><title>guarantee</title><path d="M454.92,262.21,445.83,252c-3-3.31-5.8-6.56-8.59-9.8l-.53-.62.09-1.06c.36-4.47.78-8.93,1.21-13.39l1.31-13.37,2.12,3.64c-8.45-3.08-17-6-25.37-9.23l-1.62-.61-.73-1.74c-3.47-8.3-7-16.56-10.38-24.91l5,2.9-13.28,2c-4.43.66-8.85,1.33-13.29,1.9l-2.05.26-1.57-1.22-10.77-8.38-10.64-8.55h5.48c-3.62,2.66-7.31,5.25-11,7.88l-11,7.79-1.33.94-1.31-.24-26.46-4.75,2.63-1.53c-1.81,4.13-3.63,8.24-5.37,12.39s-3.54,8.27-5.24,12.44l-.29.71-.69.27-12.58,4.88c-4.2,1.61-8.35,3.34-12.53,5l1.05-1.8c.63,4.43,1.27,8.86,2,13.28s1.35,8.85,2.12,13.26l.14.81-.56.77-16,22.15v-3.62L283,281.23l1,1.17-.19,1.77-1.44,13.35-1.53,13.34-2.89-5,25.25,9.52,2,.75.87,2.12,10.3,24.95-5.86-3.42c8.86-1.3,17.7-2.71,26.57-3.93l2.38-.33,1.91,1.46,10.72,8.2c3.56,2.75,7.16,5.44,10.7,8.23h-7l21.6-16.2,1.87-1.41,2.2.33c8.86,1.31,17.69,2.79,26.53,4.17l-5.29,3.09c3.46-8.3,7.06-16.55,10.6-24.83l.76-1.77,1.6-.6c8.45-3.19,17-6.21,25.43-9.31L439,310.47l-1.27-13.38c-.43-4.46-.84-8.92-1.2-13.39l-.08-1,.53-.58Zm1.08,0-7.67,11.06-8.08,11.45.44-1.61c.87,4.4,1.68,8.8,2.48,13.21l2.4,13.22L446,312l-2.5,1.11c-8.25,3.67-16.46,7.43-24.74,11l2.36-2.37c-3.09,8.45-6.12,16.92-9.29,25.34l-1.34,3.56-4-.47c-8.88-1.07-17.79-2-26.66-3.18l4.07-1.08-21.22,16.67-3.43,2.7-3.6-2.7c-3.6-2.69-7.14-5.47-10.71-8.21l-10.69-8.23,4.29,1.13c-8.86,1.23-17.76,2.28-26.63,3.42l-4.35.56-1.51-4-9.6-25.22,2.87,2.87-24.92-10.37L271,313.11l.57-3.52,2.15-13.26L276,283.09l.78,2.94-15.66-22-1.38-1.93,1.38-1.68L278.4,239.3l-.42,1.58c-.46-4.45-1.05-8.89-1.56-13.34s-1.1-8.88-1.69-13.32l-.18-1.31,1.23-.49c4.18-1.64,8.39-3.23,12.55-4.93l12.51-5.08-1,1c1.62-4.2,3.14-8.44,4.71-12.65s3.08-8.46,4.59-12.7l.61-1.72,2,.19,26.75,2.6-2.65.7,10.39-8.63c3.48-2.85,6.93-5.75,10.44-8.56l2.63-2.1,2.85,2.1,11,8.11L384,179l-3.62-1c4.43-.66,8.87-1.21,13.31-1.78L407,174.56l3.65-.47,1.32,3.37c3.27,8.37,6.35,16.83,9.51,25.26l-2.35-2.35c8.31,3.44,16.53,7.11,24.8,10.66l2.58,1.11-.46,2.54-2.37,13.22c-.79,4.41-1.6,8.82-2.46,13.21l-.44-1.67c2.69,3.89,5.33,7.77,7.84,11.6Z" transform="translate(-259.69 -160.53)" style="fill:#fff"/><path d="M405.57,229.27a76.85,76.85,0,0,0-11,6.84,135.8,135.8,0,0,0-19.2,17.38A224,224,0,0,0,359,273.54q-3.82,5.23-7.4,10.65l-5,7.74c-.42-.53-.82-1.23-1.19-1.77l-.3-.46-.76-1.09-1.52-2.16-6.09-8.66-12.17-17.33-5.65,4.18,13,16.71,15.29,19.78c1.64-3.15,3.33-6.39,4.86-9.05,1.09-1.94,2.11-3.73,3.21-5.58Q358.5,281,362,275.67a219.31,219.31,0,0,1,15.23-20.53,134.66,134.66,0,0,1,18.09-18,76.67,76.67,0,0,1,10.52-7.28,56.7,56.7,0,0,1,11.74-5.17A56.63,56.63,0,0,0,405.57,229.27Z" transform="translate(-259.69 -160.53)" style="fill:#fff"/></svg>