<svg xmlns="http://www.w3.org/2000/svg" xmlns:xlink="http://www.w3.org/1999/xlink" viewBox="0 0 123.81 123.81"><defs><clipPath id="a" transform="translate(-18.1 16.72)"><rect x="-0.41" y="-35.23" width="160.83" height="160.83" style="fill:none"/></clipPath></defs><g style="clip-path:url(#a)"><path d="M140.47,45.17A60.47,60.47,0,1,1,80-15.3a60.47,60.47,0,0,1,60.47,60.47" transform="translate(-18.1 16.72)" style="fill:#fff"/><path d="M80-13.85a59,59,0,1,0,59,59,59.11,59.11,0,0,0-59-59m0,120.94a61.91,61.91,0,1,1,61.9-61.9A62,62,0,0,1,80,107.09" transform="translate(-18.1 16.72)" style="fill:#006367"/><path d="M76.18,7.14H70.83v3l5.35,5.71ZM62.35,31.65v21h-17v-21H40.54L39,28.07,60.8,4.79l1.55-1.65,1.54,1.65L85.7,28.07l-1.54,3.58H62.35Z" transform="translate(-18.1 16.72)" style="fill:#006367"/><polygon points="57.54 69.39 57.54 61.98 51.49 61.98 51.49 69.39 46.76 69.39 46.76 50.88 51.49 50.88 51.49 57.83 57.54 57.83 57.54 50.88 62.27 50.88 62.27 69.39 57.54 69.39" style="fill:#006367"/><path d="M89.59,41.81a3.09,3.09,0,0,0-3.15,2.38h6.3a3.08,3.08,0,0,0-3.15-2.38M96.79,47H86.39a3.12,3.12,0,0,0,3.25,2.63,3,3,0,0,0,2.53-1.3h4.25a7.45,7.45,0,0,1-6.78,4.8,7.41,7.41,0,1,1,7.26-7.23,5.13,5.13,0,0,1-.11,1.1" transform="translate(-18.1 16.72)" style="fill:#009394"/><rect x="80.6" y="50.88" width="4.15" height="18.51" style="fill:#009394"/><path d="M112.57,42.19a3.54,3.54,0,1,0,3.48,3.55,3.45,3.45,0,0,0-3.48-3.55m.88,11a5.36,5.36,0,0,1-4.18-1.72V57.3h-4.15V38.79H109v1.52h.07a5.38,5.38,0,0,1,4.33-2c4.3,0,6.78,3.53,6.78,7.55s-2.7,7.28-6.75,7.28" transform="translate(-18.1 16.72)" style="fill:#009394"/><polygon points="33.47 81.09 33.47 91.82 29.31 91.82 29.31 81.09 27.26 81.09 27.26 77.94 29.31 77.94 29.31 73.31 33.47 73.31 33.47 77.94 35.47 77.94 35.47 81.09 33.47 81.09" style="fill:#009394"/><path d="M61.4,64.64a3.51,3.51,0,1,0,3.33,3.5,3.4,3.4,0,0,0-3.33-3.5m0,10.88a7.38,7.38,0,1,1,7.48-7.38,7.24,7.24,0,0,1-7.48,7.38" transform="translate(-18.1 16.72)" style="fill:#009394"/><path d="M82.52,67.32H79.79V71.2h2.7c1.35,0,2.55-.46,2.55-2s-1.26-1.84-2.52-1.84M82,60.45h-2.2v3.46H82c1.23,0,2.25-.36,2.25-1.78s-1-1.68-2.22-1.68m5.58,13c-1.9,1.62-3.66,1.6-6.06,1.6H75.64V56.59h5.7c2.22,0,4.33,0,5.93,1.8a4.4,4.4,0,0,1,1.1,3,4.18,4.18,0,0,1-2.16,3.73,4.23,4.23,0,0,1,3.06,4.3,5.32,5.32,0,0,1-1.7,4" transform="translate(-18.1 16.72)" style="fill:#009394"/><path d="M99.69,75.1V73.62h0A3.57,3.57,0,0,1,96,75.55,5.19,5.19,0,0,1,92,73.8a5.85,5.85,0,0,1-1.25-4.28v-8.3h4.15V68.9c0,1.57.35,2.77,2.23,2.77,1.72,0,2.37-1.22,2.37-2.82V61.22h4.15V75.1Z" transform="translate(-18.1 16.72)" style="fill:#009394"/><polygon points="93.98 96.44 89.58 96.44 91.78 91.12 86.63 77.94 91.05 77.94 93.83 85.99 93.88 85.99 96.53 77.94 100.93 77.94 93.98 96.44" style="fill:#009394"/><path d="M80-9.54a54.73,54.73,0,1,0,54.73,54.73A54.79,54.79,0,0,0,80-9.54M80,97.05a51.88,51.88,0,1,1,51.87-51.88A51.88,51.88,0,0,1,80,97.05" transform="translate(-18.1 16.72)" style="fill:#009394"/></g></svg>