<svg id="Layer_1" data-name="Layer 1" xmlns="http://www.w3.org/2000/svg" viewBox="0 0 804.9 525.67"><title>helptobuyicon</title><path d="M337.77,261.47c-.3-14-3.84-27.56-8.47-40.67s-10-26-15.88-38.69l-18-38c-3-6.35-5.85-12.94-8.64-19.2-1.42-3.15-2.88-6.27-4.49-9.23a45.48,45.48,0,0,0-2.44-4.09c-.32-.51-1-1.21-.63-.87a.9.9,0,0,0,.27.11,2.82,2.82,0,0,0,1.28.25,3.91,3.91,0,0,0,1.66-.5,3.65,3.65,0,0,0,1-1c.56-1.07.29-.7.36-.9l-3.34,3.84c-26.08,4.07-52.2,8.12-78.38,11.7-26.15,3.84-52.34,7.49-78.38,12q-19.53,3.32-38.95,7.32l-19.36,4.15-9.52,2.49-4.75,1.25-4.61,1.65c-12.23,4.26-24.29,10.41-32.27,20.17A30.71,30.71,0,0,0,7,189.82a32.18,32.18,0,0,0,3.35,17.38l.11.21.07.18,19.8,47.84c6.58,15.94,13.17,31.88,20,47.68,3.4,7.87,6.89,15.82,10.56,23.29.45.84,1,2,1.36,2.59a12.58,12.58,0,0,0,1.32,1.92,28.85,28.85,0,0,0,4,3.84,20.26,20.26,0,0,0,9.6,4c7.32,1,15.56-.63,23.43-3,8.19-2.51,16.76-4.8,25.07-7,33.44-8.87,67.1-16.56,100.69-24.65,33.67-7.68,67.35-15.36,101.2-22.29l.21.86c-33.18,9.6-66.5,18.71-99.79,27.84l-99.87,27.08c-8.37,2.29-16.41,4.67-24.73,7.2-8.58,2.49-17.68,4.6-27.58,3.23a29.33,29.33,0,0,1-14-5.89A36.38,36.38,0,0,1,56.64,337a23.57,23.57,0,0,1-2.31-3.39c-.74-1.24-1.06-2.09-1.6-3.15-3.84-8.06-7.18-16-10.5-24-13.23-32-25.61-64.22-37.67-96.62l.19.4a34.77,34.77,0,0,1-3.17-10.44,38.5,38.5,0,0,1-.1-10.72,36.09,36.09,0,0,1,9.07-18.92c9.36-10.56,22.19-16.19,34.81-20.22l4.75-1.62,4.85-1.2,9.7-2.4,19.51-3.8,38.92-7.69C149,128.09,175,122.77,201,117.94c26-5,52.08-9.28,78.28-13.11l-3.34,3.84a6.23,6.23,0,0,1,1-3.43,4,4,0,0,1,1.42-1.38,4.19,4.19,0,0,1,2.28-.67,5.31,5.31,0,0,1,1.92.36,8,8,0,0,1,.81.46,10.5,10.5,0,0,1,2.88,3,49.84,49.84,0,0,1,2.88,5c1.68,3.25,3.18,6.48,4.61,9.75L302,141.06c5.66,12.79,11.52,25.59,16.79,38.65A396.64,396.64,0,0,1,333,219.63c3.73,13.57,6.73,27.74,5.6,41.9Z"/><path d="M7.58,208.78l124.69-31.3c41.57-10.43,152.79-32.37,161.09-46.93,0,0,23.94,32.21,13.55,37.45s-33.27,1.08-62.36,10.46S30.41,233.75,21.1,241,7.58,208.78,7.58,208.78Z"/><path d="M97.71,284.55a13.15,13.15,0,0,1-2.54,1.21c-1.64.45-2.28-1.3-2.62-2.55-1.07-3.84-.56-8-1.62-11.88-.13-.48-1-3-1.49-2.89-.26.08-.4.62-.45.83l-2,6.9c-.47,1.57-1,3.12-1.33,4.72a20.36,20.36,0,0,0-.49,2.68c-.11,1.18-.1,4.8-1.41,5.46-.44.12-.7-.12-.81-.53a7.64,7.64,0,0,1,0-2.24,26.86,26.86,0,0,0-.25-5.94c-.4-1.49-1.16-2.94-1.58-4.44a10.18,10.18,0,0,1,.47-6.58c.08-.17.23-.53.47-.6s.62.39.67.57c.14.51-.59,3.15-.22,4.62a1.84,1.84,0,0,0,.1.52v.18c.15.51,1.12,3.94,1.82,3.76.54-.16,1.79-5.77,2-6.54.35-1.28,1.18-5.39,2.61-5.77,1.83-.5,3.5,4.31,3.85,5.48q.28,1.08.48,2.19a48.14,48.14,0,0,1,.5,5.24,17.61,17.61,0,0,0,.4,3.62c.23.85.53,1.08,1.37.85a10.78,10.78,0,0,0,1.07-.42,13,13,0,0,0,2.62-1.58,37.47,37.47,0,0,1,3.14-2.47c.18,0,.29.19.33.34C103.13,280.54,98.78,284,97.71,284.55Z" style="fill:#1d1d1b"/><path d="M115.8,270.27c-.09-.88-.63-2.42.58-2.76,1.64-.45,1.2.66,1.92,1.57.26.36.37.49.89.34s.75-.4,1.15-.51a1.73,1.73,0,0,1,1.77,1.17,10.41,10.41,0,0,1-.6,1.7,4,4,0,0,0-.17,1.34,8.43,8.43,0,0,0,.24,2.45c.15.55.41,1.07,1.06.89,1.14-.31,3.72-2.79,5.32-4a3.28,3.28,0,0,1,1.09-.62.58.58,0,0,1,.2.31c.37,1.35-4.22,4.8-5.3,5.62a6.65,6.65,0,0,1-1.59.82c-1.64.46-2.43-1.17-2.79-2.48a11.23,11.23,0,0,1-.43-2.57,15.34,15.34,0,0,0,.09-1.92c0-.22-.23-.25-.51-.17-.76.25-1.92,1.76-2.45,2.29a4.13,4.13,0,0,1-2.13,1.37,5.24,5.24,0,0,1-2.61,0c-.1,0-.11.14-.1.33a11.71,11.71,0,0,1-.42,2.2,13,13,0,0,1-1.7,3.1,9.25,9.25,0,0,1-4.45,3.27c-1.76.48-2.42-.63-2.88-2.17a7.21,7.21,0,0,1-.29-3.23,8.14,8.14,0,0,1,2.23-4.34c.25-.23.66-.73,1-.8.14,0,.56,0,.6.22a11.81,11.81,0,0,1-.9,2.56,6.69,6.69,0,0,0-.37,4.66c.15.55.5,1,1.12.8a6.2,6.2,0,0,0,3.34-3.13,4,4,0,0,0,.48-2.72,1.76,1.76,0,0,0-1-1.21,1.8,1.8,0,0,1,0-3.23,2.24,2.24,0,0,1,2.09.58c.7.67.85,1.37,2.64,1.44a3.92,3.92,0,0,0,1-.15,4,4,0,0,0,1.34-.68C115.89,271.89,115.87,271.38,115.8,270.27Z" style="fill:#1d1d1b"/><path d="M147.64,256.24c-.27.59-3.76,1.5-5.87,2.12L136.39,260a7.23,7.23,0,0,0-1.5.53.84.84,0,0,0-.38.34c-1.2,1.92-2,8.88-1.4,11.08.19.69.57,1.21,1.33,1a2.67,2.67,0,0,0,.46-.2,20.33,20.33,0,0,0,4.16-3,7.66,7.66,0,0,1,1.66-1.28c.22-.06.29.08.34.26.32,1.16-1.06,2.17-1.78,2.88a11.94,11.94,0,0,1-5.13,3.33,2.48,2.48,0,0,1-3-1.5,5.76,5.76,0,0,0-.48-1,.2.2,0,0,0-.26-.09c-.78.2-2.14,2.35-3.84,2.8-.21.07-1,.19-1-.14a.75.75,0,0,1,.14-.52c.15-.19,1-.89,1.2-1.1a15.85,15.85,0,0,0,1.92-2.17,16.06,16.06,0,0,0,1.77-4.54c.33-1,1.13-3.64.84-4.67-.08-.29-.57-.24-1-.12s-.58.19-.72.24l-.66.18c-1.42.39-3.93,1-4.25-.13-.23-.84.55-1.33,1.24-1.52.85-.23,1.34,0,2.25-.27,1.17-.31,2.31-.74,3.48-1.06.8-.22.84-1.5,1.1-2.15s.8-1.52,1.35-1.67.8.32.91.74c.19.69-.13,1.55,0,1.92,0,.1.11.11.22.08a12.89,12.89,0,0,0,2.75-.55l.45-.12c1.35-.37,2.69-.78,4-1.15l4.08-1.11c.3-.09,1-.23,1.07.17A1.67,1.67,0,0,1,147.64,256.24Z" style="fill:#1d1d1b"/><path d="M153.34,269.28a9.39,9.39,0,0,1-1.92.84,1.92,1.92,0,0,1-2.55-.92,2.25,2.25,0,0,1-.17-.54c-.31-1.13.29-2.39.07-3.2,0-.08-.09-.33-.24-.29a39.81,39.81,0,0,0-2.64,3.55,9.08,9.08,0,0,0-1.59,2.95,1.18,1.18,0,0,1-.91.72,1.09,1.09,0,0,1-1.44-.58l0,0c-.1-.37-.09-.76-.2-1.16l-.08-.29c-.08-.3-.22-.69-.41-.64s-1.6,1.74-2.81,2.07c-.22.06-1,.17-1-.16a.69.69,0,0,1,.14-.5c.14-.2,1-.9,1.19-1.11a18.85,18.85,0,0,0,1.92-2.17c.69-1,.28-2.28.09-3.37a17.69,17.69,0,0,1,.28-9.3c.41-1.43,1.4-3.93,3-4.37s2.09,1.3,2.4,2.44a13.66,13.66,0,0,1-1.05,9.8c-.26.46-2,3.58-2.09,4v.3a3.69,3.69,0,0,0,.06.81c.06.22.26.21.44.16l.29-.08a9.79,9.79,0,0,0,1.59-2.2l1-1.37a15.43,15.43,0,0,0,1-1.47c.34-.65.68-2,1.48-2.22s1.31.31,1.53,1.12a13.56,13.56,0,0,1,.36,2.77c0,.61-.14,2.75-.07,3s.5.25.76.18c2.78-.76,5.76-4.16,6.5-4.37.15,0,.3.2.34.34C158.82,265.3,154.42,268.6,153.34,269.28Zm-9-16.32c-.55.15-1,1.08-1.11,1.56a16.59,16.59,0,0,0-.54,8.75v.24c0,.09.13.32.27.28.48-.14,1.57-2.88,1.78-3.4a10.58,10.58,0,0,0,.51-6.36c-.1-.41-.36-1.25-.91-1.09Z" style="fill:#1d1d1b"/><path d="M184.13,260.53c-.91.57-1.57,1.49-2.51,2.07a18.09,18.09,0,0,1-4.9,2.17c-.7.19-3.63,1-3.93-.14a2.85,2.85,0,0,1,.9-2.18c1.26-1.4,2.88-1.85,4.7-2.34.84-.23,1.7-.39,2.54-.62,1.06-.29,1.78-.52,1.42-1.85A2.8,2.8,0,0,0,180.6,256a5.65,5.65,0,0,0-1.51-.53,28.18,28.18,0,0,0-6,0c-2.58.17-5.52-.33-6.32-3.25a5.42,5.42,0,0,1,0-2.5c.73-3.23,6.49-6.42,9.32-7.55a36.75,36.75,0,0,1,4.45-1.58c.73-.19,3.72-1,4.06.19.08.29.13.66-.22.76-.63.17-1.49-.1-2.34.13a36.62,36.62,0,0,0-6.09,2.38c-2.37,1.13-5.31,2.89-6.72,5.15a3.1,3.1,0,0,0-.49,2.25c.49,1.79,3.35,2.3,4.91,2.27,3.17-.07,5.68-.81,8.64,1a5,5,0,0,1,2.24,2.73c.06.18.06.34.1.49s.09.2.24.16a15.9,15.9,0,0,0,3.3-2.16,20.76,20.76,0,0,1,1.92-1.59.41.41,0,0,1,.37.33C191,256.81,185.74,259.57,184.13,260.53Zm-4.67,1.2a16.34,16.34,0,0,0-3.23,1.28.49.49,0,0,0,.24,0h.14a14.89,14.89,0,0,0,3-1.23s0-.11-.24,0Z" style="fill:#1d1d1b"/><path d="M208.13,239.62c-.27.58-3.75,1.5-5.86,2.12l-5.38,1.59a8,8,0,0,0-1.51.54.81.81,0,0,0-.38.33c-1.19,1.92-2,8.89-1.39,11.08.18.69.56,1.22,1.33,1a1.82,1.82,0,0,0,.45-.2,20,20,0,0,0,4.17-3,7.6,7.6,0,0,1,1.65-1.28c.22-.06.3.07.35.26.31,1.17-1.06,2.18-1.78,2.88a12.12,12.12,0,0,1-5.14,3.33,2.47,2.47,0,0,1-3-1.51,7.08,7.08,0,0,0-.48-1.05.22.22,0,0,0-.26-.08c-.77.21-2.15,2.36-3.8,2.81-.22.06-1,.17-1-.15a.59.59,0,0,1,.13-.51c.13-.19,1-.89,1.18-1.11a14.14,14.14,0,0,0,1.92-2.17,16.17,16.17,0,0,0,1.79-4.54c.32-1,1.12-3.65.84-4.67-.08-.29-.58-.23-1-.12l-.72.24-.66.18c-1.42.4-3.93,1-4.24-.13-.22-.84.54-1.33,1.24-1.52s1.33,0,2.24-.26c1.17-.32,2.31-.75,3.48-1.07.81-.22.85-1.49,1.1-2.14s.8-1.53,1.35-1.67.8.32.91.72c.19.7-.11,1.57,0,1.93,0,.1.12.12.22.09a13.65,13.65,0,0,0,2.76-.56l.44-.12c1.35-.37,2.69-.78,4-1.15l4.17-1.15c.3-.07,1-.22,1.06.19A1.49,1.49,0,0,1,208.13,239.62Z" style="fill:#1d1d1b"/><path d="M216.06,245.87a13.84,13.84,0,0,0-2.33,1.27,8.15,8.15,0,0,1-1.84.74,3,3,0,0,1-1.48,0c-.11,0-.12.16-.11.35a11.07,11.07,0,0,1-.41,2.2,12.68,12.68,0,0,1-1.71,3.1,9.18,9.18,0,0,1-4.44,3.27c-1.75.48-2.41-.64-2.84-2.17a7.22,7.22,0,0,1-.29-3.23,8.2,8.2,0,0,1,2.22-4.34c.25-.23.67-.73,1-.82s.56,0,.61.23a11.21,11.21,0,0,1-.9,2.57,6.67,6.67,0,0,0-.37,4.65c.15.56.49,1,1.12.8a6.2,6.2,0,0,0,3.35-3.12,4.06,4.06,0,0,0,.47-2.73,1.81,1.81,0,0,0-1-1.21,1.79,1.79,0,0,1,0-3.22,2.21,2.21,0,0,1,2.09.57,3.3,3.3,0,0,0,2.8,1.08c3-.84,3.55-1.68,4.13-2.31a9.07,9.07,0,0,0,.62-1,2.57,2.57,0,0,1,.88-1.08c.52-.13,1.08-.1,1.24.49.39,1.43-.6,5-.31,6.06,0,0,.07.22.18.18.47-.12,3.56-5.21,4.9-5.59.81-.22,1.3.59,1.48,1.25.31,1.1-.25,2.23,0,3.3.16.58.6.7,1.14.54,1.72-.47,3.11-1.71,4.62-2.88a10.36,10.36,0,0,1,2.14-1.65.69.69,0,0,1,.22.34c.23.84-1.56,2.47-2.12,3a14,14,0,0,1-5,3.54,2.51,2.51,0,0,1-.46.16c-2.79.77-2.71-2.25-3.34-2.88a.21.21,0,0,0-.21-.06c-.77.21-2,2.53-2.31,3.23s-1,2-1.8,2.26-1-.66-1.17-1.21a12.21,12.21,0,0,1-.4-2.33,27.4,27.4,0,0,0-.15-3.14C216.2,246,216.13,245.85,216.06,245.87Z" style="fill:#1d1d1b"/><path d="M243.44,241.81c-1.37,1.87-4.88,4.72-7.06,5.32s-4.11-.09-4.74-2.36a10.58,10.58,0,0,1-.31-2.69,8.11,8.11,0,0,1,.55-3.84,5.71,5.71,0,0,1,2.18-2.58,6.74,6.74,0,0,0,1.28-.78,2,2,0,0,1,.42-.2c.91-.25,1.51,1,1.7,1.63a4.48,4.48,0,0,1,.17,1.21c.1,2.33-.18,2.88-1.73,4.71-.26.32-1.58,1.54-1.45,2,.26,1,1.28,1,2.09.72a7.38,7.38,0,0,0,2.14-1.06,31.26,31.26,0,0,0,2.88-2.11c.55-.43,1-1,1.59-1.38a1.88,1.88,0,0,1,.44-.24c.22-.06.36,0,.41.2A1.92,1.92,0,0,1,243.44,241.81Zm-7.95-4.61a1.92,1.92,0,0,0-.86.71,4,4,0,0,0-1.08,3.84c0,.11.06.22.2.17.63-.16,1.92-2.28,2.07-2.88a3.1,3.1,0,0,0,.11-1.45C235.88,237.28,235.71,237.13,235.49,237.2Z" style="fill:#1d1d1b"/><path d="M540.63,452.07a266.1,266.1,0,0,1-54.54-15.81c-17.44-7.29-34.57-16.86-48-30.66-6.8-6.58-13.57-13.16-20.17-20.09a96.19,96.19,0,0,1-9.28-11.16,100.74,100.74,0,0,1-7-12.61,205.82,205.82,0,0,0-13.92-24.36c-5.13-7.86-10.49-15.6-16-23.27s-11.07-15.25-16.73-22.8S343.4,276.45,338.32,268c-2.46-4.25-4.89-8.76-5.7-14.31a17.54,17.54,0,0,1,.8-8.65,16.18,16.18,0,0,1,2.29-3.89l1.43-1.7,1.64-1.36a16.8,16.8,0,0,1,8-3.6,24,24,0,0,1,4.4-.12c1.38.24,2.78.48,4.1.84a43.62,43.62,0,0,1,13.45,7.42,107.73,107.73,0,0,1,10.87,9.84l4.92,5.13a20.89,20.89,0,0,0,2.27,2.14l2.71,2.12c7.52,5.76,15,11.77,22.08,18.32,14.05,13,26.75,27.92,36,45.13l-7.29,1.11a14.72,14.72,0,0,0-.16-3.11,21.13,21.13,0,0,0-.81-3.69,42.52,42.52,0,0,0-2.95-7.36,74.08,74.08,0,0,0-9.3-13.65c-7.16-8.65-15.73-15.94-24.84-23.17-18-14.58-36.61-28.07-55.55-41.75-1.2-.9-2.36-1.75-3.65-2.88a11.27,11.27,0,0,1-2.07-2.29l-1.27-1.83-4.75-7.37q-4.67-7.42-9.13-14.91c-6-10-11.78-20.12-17.28-30.41s-10.76-20.75-15.29-31.61a142,142,0,0,1-5.92-16.73,54.79,54.79,0,0,1-1.8-9c-.23-3.11-.48-6.39,1-9.92l-.07.18a21.59,21.59,0,0,1,3.74-6.43c1.56-1.92,4.4-3.91,7.68-3.61a11.45,11.45,0,0,1,7.11,3.78,38.19,38.19,0,0,1,4.32,5.42c5,7.15,9.7,14.41,14.46,21.65s9.6,14.4,14.69,21.31,10.63,13.55,16.21,20.16q16.75,19.8,34,39.24l8.64,9.66,4.38,4.8,2.21,2.32c.77.75,1.12,1.26,1.92,1.41.32.14.72,0,.37.14a.57.57,0,0,0-.27.42,1.22,1.22,0,0,0-.06-.26,10.44,10.44,0,0,0-1.42-2.35,49.91,49.91,0,0,0-4.25-4.71c-3.05-2.88-6.27-6.11-9.15-9.29-23.23-25.82-45.43-52.47-66-80.42-5.12-7-10.11-14.13-14.84-21.44A139,139,0,0,1,297.6,85.65,30.13,30.13,0,0,1,295.78,79a29.92,29.92,0,0,1,.19-7c.55-4.45,2.22-9.38,6.31-12.58s9.69-3.35,14.24-1.63c1.17.61,2.33.75,3.67,2.59L322,62.86,326,68q32.16,40.77,65.35,80.72c11.12,13.24,22.29,26.53,34.06,38.93q9.12,9.36,17.81,19.15c2.88,3.26,5.76,6.59,8.51,9.93l4.14,4.93a18.11,18.11,0,0,0,1.8,1.92,3.27,3.27,0,0,0-.85-.31,3.18,3.18,0,0,0-2.56.74c-1,.18-1.18,3.44-1,2.8a1.11,1.11,0,0,0,.08.3l-.08-.17a2.69,2.69,0,0,0-.28-.48c-4.37-6.64-10.2-13.5-15.58-20.09s-11.12-13.21-16.78-19.72l-17.18-19.5c-5.69-6.58-11.25-13.23-16.81-19.9q-16.65-20-33-40.24l-8.18-10.2c-1.36-1.74-2.65-3.35-4.08-5.31l-3.84-5.35c-1.26-1.92-3-4.36-3.2-8.26s2.8-7.33,4.17-8.65a22.63,22.63,0,0,1,6.32-4.89,14.31,14.31,0,0,1,9-1.09c5.67,1.17,9.56,4.07,13.28,6.83s6.79,5.56,10.17,8.36l19.87,16.78,9.92,8.33,4.95,4.06,2.42,1.92a23.77,23.77,0,0,1,3,2.5c3.48,3.55,6,6.89,8.77,10.28s5.42,6.72,8.2,9.89,5.62,6.31,8.55,9.18a63.81,63.81,0,0,0,9.61,7.73l21.12,14.77,21.13,14.78.66.46.33.23c.49.28-.82-.49-1.39-.42a4.3,4.3,0,0,0-3.77,1.5,3.76,3.76,0,0,0-1,2.2,2.6,2.6,0,0,0,.06,1,6.78,6.78,0,0,0-.87-1.31,33.32,33.32,0,0,0-3.91-4A93.29,93.29,0,0,0,475,171c-14.87-9.6-28.39-21-41.29-32.54A126.9,126.9,0,0,1,415.12,119l-1.06-1.47a9.5,9.5,0,0,1-1.33-2.47,11.29,11.29,0,0,1-.36-5.29,14.88,14.88,0,0,1,1.26-4.43,10.53,10.53,0,0,1,3.6-4.38,8.25,8.25,0,0,1,6.72-1,9.2,9.2,0,0,1,2.52,1.07,15.19,15.19,0,0,1,1.73,1.14c1.93,1.39,3.67,2.79,5.37,4.19,6.72,5.63,13.19,11.34,19.85,16.63,3.4,2.72,6.51,5,10.29,7.51s7.11,5.37,10.5,8.14c6.72,5.49,13.27,11.19,20.1,15.65,3.35,2.13,7.22,4,11.13,6.22a116,116,0,0,1,11.3,7.32c14.32,10.5,26.89,22.52,39.87,33.89s26.32,22.89,37.55,36.67a226.17,226.17,0,0,1,15.36,21.41c4.8,7.37,8.92,15.09,13.51,22.16,9.27,14.16,21.26,26.68,33.2,39.12,24,24.88,48.64,49.3,73,73.89s48.86,49.19,73.74,73.19l-.56.69Q726.2,398.08,652.31,325c-12.21-12.3-24.59-24.71-34.57-39.42-5-7.37-9.13-14.91-13.86-22A219.22,219.22,0,0,0,588.74,243c-10.83-13.05-24-24.08-37.11-35.47s-25.86-23.14-39.61-33a109.71,109.71,0,0,0-10.57-6.72c-3.66-2-7.6-3.84-11.6-6.34-7.74-5-14.33-10.67-21.07-16-3.35-2.68-6.72-5.29-10.12-7.68-1.62-1.14-3.59-2.42-5.38-3.76s-3.58-2.67-5.31-4c-6.93-5.47-13.45-11.27-20-16.69-1.64-1.36-3.3-2.67-4.87-3.84a6.23,6.23,0,0,0-1-.65,1.22,1.22,0,0,0-.44-.22c-.18,0,.37,0,.52-.17a5.69,5.69,0,0,0-.88,2.46c0,1.92-.54.22,1.05,2.65a118.1,118.1,0,0,0,17.36,18c12.95,11.48,26,22.46,40.33,31.64a103.22,103.22,0,0,1,11,8,41,41,0,0,1,5.18,5.28,13.77,13.77,0,0,1,2.41,4.27,6.89,6.89,0,0,1,.32,2.51,5,5,0,0,1-1.17,2.94,5,5,0,0,1-4.46,1.81,6.43,6.43,0,0,1-2.13-.74l-.34-.24-.67-.46-21.61-14.92-21.51-15a71.65,71.65,0,0,1-10.62-8.57c-3.27-3.16-6.25-6.48-9.13-9.84s-5.61-6.78-8.31-10.16-5.44-6.91-8-9.56c-.74-.85-3-2.39-4.68-3.79l-5.06-4.21-9.92-8.44L371.58,85.19c-6.6-5.36-13.21-12.06-19.33-13.44a5.59,5.59,0,0,0-3.67.36,14.8,14.8,0,0,0-3.84,3.07c-1.66,1.68-1.7,2-1.76,2.49a8.4,8.4,0,0,0,1.69,3.58l3.71,5.23c1.11,1.54,2.51,3.34,3.84,5l8,10.17Q376.4,121.93,392.89,142l16.59,19.91,16.94,19.69q8.43,9.94,16.64,20.07l8.08,10.29A127.33,127.33,0,0,1,459,222.89c.17.32.31.53.5,1l.26.58a6.94,6.94,0,0,1,.33,1.07c.26-.41,0,3.19-1.14,3.56a4,4,0,0,1-3.31,1,5,5,0,0,1-2.24-1.12,23.57,23.57,0,0,1-2.66-2.81L446.56,221q-4.08-5-8.26-9.91Q429.89,201.33,421,192c-11.92-12.88-22.86-26.28-33.85-39.72q-32.79-40.4-64.34-81.7l-3.93-5.2c-.63-.82-1.33-1.79-2-2.8a6,6,0,0,0-1.66-1c-3.47-1.37-7.69-1.21-10.51,1s-4.48,6-5,10a20,20,0,0,0,1.28,11.87c3,7.85,7.46,15.31,12.05,22.57s9.55,14.4,14.61,21.36c10.13,14,20.82,27.61,31.74,41s22.08,26.67,33.85,39.32c2.95,3.21,5.87,6.11,9.13,9.15a54,54,0,0,1,4.5,4.94,12.05,12.05,0,0,1,1.92,3.21,3.74,3.74,0,0,1,.21,1.33,3.26,3.26,0,0,1-.22,1,2.69,2.69,0,0,1-.73.88,3.32,3.32,0,0,1-2.78.33,6.7,6.7,0,0,1-3.34-2.17L399.54,225l-4.44-4.8-8.73-9.6Q369,191.24,352,171.55c-5.63-6.66-11.39-13.18-16.71-20.1s-10.28-14.06-15.17-21.22-9.74-14.32-14.77-21.31a32.44,32.44,0,0,0-3.84-4.67,6.7,6.7,0,0,0-4-2.29c-2.24-.44-5,3.38-6.15,6.72l-.08.19c-1.44,4.1-.14,10.08,1.35,15.32a136.76,136.76,0,0,0,6,16c4.58,10.49,10,20.72,15.55,30.81s11.52,20,17.61,29.84q4.58,7.37,9.29,14.63l4.75,7.22,1.18,1.76a3.17,3.17,0,0,0,.85.9c1,.79,2.1,1.65,3.22,2.49,18.77,13.44,37.82,27.06,56,41.61,9.08,7.14,18.37,14.91,26.08,24.13a76.66,76.66,0,0,1,10.28,15.08,50.39,50.39,0,0,1,3.45,8.8,30.22,30.22,0,0,1,1,4.8,19.61,19.61,0,0,1,.07,5.57l-1.55,11.95-5.76-10.86c-8.58-16.22-20.62-30.6-34.15-43.31a279,279,0,0,0-21.43-18l-2.88-2.26a29.71,29.71,0,0,1-2.88-2.73l-4.8-5.13a102.59,102.59,0,0,0-10.07-9.25,36.88,36.88,0,0,0-11.15-6.32A10.36,10.36,0,0,0,343,243.42c-6.64,4.3-3.61,13.53,1,21.13s10.56,15.24,16,23,11,15.36,16.43,23.18,10.66,15.68,15.73,23.72A212.25,212.25,0,0,1,406,359.48a94.82,94.82,0,0,0,6.64,12.21,90.25,90.25,0,0,0,8.64,10.76c6.32,6.9,13,13.56,19.62,20.32,12.71,13.76,29.06,23.46,46.18,31.14a280.27,280.27,0,0,0,53.68,17.28Z" style="fill:#1d1d1b"/></svg>