<svg xmlns="http://www.w3.org/2000/svg" viewBox="0 0 225.92 136.34"><title>helptobuy</title><path d="M350.1,278.8a45,45,0,0,0-2.92-14c-1.58-4.53-3.46-9-5.48-13.34l-6.2-13.11c-1-2.19-2-4.46-3-6.62-.49-1.09-1-2.17-1.54-3.19-.28-.5-.57-1-.85-1.41-.11-.18-.36-.42-.22-.3l.1,0a1,1,0,0,0,.44.09,1.27,1.27,0,0,0,.57-.18,1.32,1.32,0,0,0,.34-.32c.19-.36.09-.24.12-.31l-1.15,1.34c-9,1.4-18,2.8-27,4s-18,2.58-27,4.12q-6.74,1.15-13.43,2.53l-6.68,1.43-3.28.86-1.64.43-1.59.57c-4.22,1.47-8.38,3.59-11.13,6.94A10.54,10.54,0,0,0,236,254.1a11.08,11.08,0,0,0,1.15,6l0,.07,0,.07,6.82,16.5c2.27,5.49,4.55,11,6.91,16.44,1.17,2.72,2.37,5.46,3.65,8,.16.29.34.69.48.89a4,4,0,0,0,.45.68,9.62,9.62,0,0,0,1.4,1.33,7,7,0,0,0,3.32,1.37,19.63,19.63,0,0,0,8.08-1c2.83-.87,5.78-1.67,8.65-2.42,11.53-3.06,23.14-5.71,34.72-8.5s23.23-5.29,34.91-7.69l.07.3c-11.44,3.32-22.93,6.45-34.41,9.62l-34.46,9.34c-2.89.79-5.67,1.61-8.54,2.48a22.46,22.46,0,0,1-9.51,1.11,10,10,0,0,1-4.82-2,12.67,12.67,0,0,1-1.81-1.77,8.19,8.19,0,0,1-.79-1.17c-.26-.42-.37-.72-.56-1.08-1.33-2.78-2.47-5.51-3.62-8.28-4.56-11-8.83-22.15-13-33.32l.07.13a12,12,0,0,1-1.09-3.6,13.1,13.1,0,0,1,0-3.7,12.38,12.38,0,0,1,3.13-6.52c3.23-3.63,7.65-5.58,12-7l1.64-.56,1.67-.42,3.35-.83,6.71-1.34,13.43-2.65c8.95-1.77,17.89-3.6,26.86-5.26s18-3.2,27-4.53l-1.15,1.34a2,2,0,0,1,.33-1.18,1.48,1.48,0,0,1,.49-.48,1.55,1.55,0,0,1,.78-.23,1.9,1.9,0,0,1,.67.13l.28.15a3.85,3.85,0,0,1,1,1,18.56,18.56,0,0,1,1,1.71c.58,1.12,1.09,2.24,1.58,3.36l2.85,6.67c1.95,4.41,4,8.83,5.79,13.33a137.76,137.76,0,0,1,4.93,13.74c1.28,4.69,2.31,9.57,1.93,14.46Z" transform="translate(-234.03 -208.2)" style="fill:#fff"/><path d="M236.23,260.63l43-10.8c14.34-3.6,52.69-11.16,55.56-16.18,0,0,8.25,11.1,4.67,12.9s-11.47.37-21.51,3.6-73.84,19.07-77.06,21.59S236.23,260.63,236.23,260.63Z" transform="translate(-234.03 -208.2)" style="fill:#fff"/><path d="M267.3,286.76a4.74,4.74,0,0,1-.88.42c-.56.15-.78-.45-.9-.88-.37-1.34-.19-2.77-.56-4.1,0-.17-.33-1.05-.52-1s-.13.21-.15.29l-.7,2.37c-.16.55-.33,1.08-.46,1.63a7.58,7.58,0,0,0-.17.93c0,.4,0,1.65-.49,1.88-.15,0-.24,0-.28-.18a2.48,2.48,0,0,1,0-.77,9.26,9.26,0,0,0-.09-2.05c-.14-.52-.4-1-.54-1.53a3.47,3.47,0,0,1,.16-2.27c0-.07.07-.19.16-.21s.21.13.23.2a9.48,9.48,0,0,0-.08,1.59,1.49,1.49,0,0,0,0,.18l0,.06c0,.18.38,1.36.62,1.29a10.86,10.86,0,0,0,.7-2.25c.12-.44.41-1.86.9-2s1.21,1.48,1.32,1.88.12.5.17.76c.09.6.14,1.21.17,1.81a6.65,6.65,0,0,0,.14,1.25c.08.29.18.37.47.29l.37-.14a4.9,4.9,0,0,0,.91-.55,10.48,10.48,0,0,1,1.08-.85c.06,0,.1.06.11.11C269.18,285.38,267.68,286.57,267.3,286.76Z" transform="translate(-234.03 -208.2)" style="fill:#fff"/><path d="M273.55,281.83c0-.3-.21-.83.2-.95.57-.15.42.23.65.54.09.13.13.17.3.12s.26-.14.4-.18a.6.6,0,0,1,.61.41,3.34,3.34,0,0,1-.2.58,1.29,1.29,0,0,0-.06.47,3,3,0,0,0,.08.84c.05.19.14.37.37.31a12.68,12.68,0,0,0,1.83-1.37,1.27,1.27,0,0,1,.38-.22.21.21,0,0,1,.07.11c.12.47-1.46,1.67-1.83,1.94a2.59,2.59,0,0,1-.55.28c-.56.16-.84-.4-1-.86a3.86,3.86,0,0,1-.15-.88,5.31,5.31,0,0,0,0-.67c0-.08-.08-.09-.18-.06-.26.08-.67.6-.84.78a1.39,1.39,0,0,1-.74.48,1.81,1.81,0,0,1-.89,0s0,.05,0,.11a4.25,4.25,0,0,1-.14.76,4.6,4.6,0,0,1-.59,1.07,3.17,3.17,0,0,1-1.54,1.13c-.6.16-.83-.22-1-.75a2.46,2.46,0,0,1-.11-1.11,2.92,2.92,0,0,1,.77-1.5c.09-.08.23-.25.33-.28s.2,0,.21.08a3.6,3.6,0,0,1-.31.88,2.38,2.38,0,0,0-.13,1.61c.06.19.18.33.39.28a2.13,2.13,0,0,0,1.15-1.08,1.38,1.38,0,0,0,.17-.94.64.64,0,0,0-.35-.42.62.62,0,0,1,0-1.11.76.76,0,0,1,.72.2c.24.23.3.47.91.49a1.2,1.2,0,0,0,.33-.05,1.25,1.25,0,0,0,.46-.23C273.58,282.39,273.58,282.22,273.55,281.83Z" transform="translate(-234.03 -208.2)" style="fill:#fff"/><path d="M284.52,277a7.29,7.29,0,0,1-2,.74l-1.86.54a2.14,2.14,0,0,0-.52.19.36.36,0,0,0-.13.11,8,8,0,0,0-.48,3.82c.06.24.19.42.46.35l.16-.07a7,7,0,0,0,1.43-1,2.64,2.64,0,0,1,.57-.44c.08,0,.1,0,.12.09.11.4-.36.75-.61,1a4.28,4.28,0,0,1-1.77,1.15.87.87,0,0,1-1-.52,1.65,1.65,0,0,0-.16-.36.07.07,0,0,0-.09,0c-.27.07-.74.81-1.31,1-.07,0-.32.06-.35-.06s0-.12,0-.17.34-.31.41-.38a4.6,4.6,0,0,0,.65-.75,5.36,5.36,0,0,0,.62-1.57,4.49,4.49,0,0,0,.29-1.61c0-.1-.2-.08-.35,0l-.25.08-.23.07c-.49.13-1.36.34-1.46-.05s.19-.46.42-.52.46,0,.78-.09.8-.26,1.2-.37.29-.52.38-.74.27-.53.46-.58.28.11.32.25a4.67,4.67,0,0,1,0,.67s0,0,.08,0a5,5,0,0,0,1-.19l.15,0,1.4-.4,1.43-.39c.1,0,.33-.08.37.06A.53.53,0,0,1,284.52,277Z" transform="translate(-234.03 -208.2)" style="fill:#fff"/><path d="M286.5,281.49a3.15,3.15,0,0,1-.65.29.67.67,0,0,1-.94-.5c-.11-.39.1-.83,0-1.11,0,0,0-.11-.08-.09a12.1,12.1,0,0,0-.91,1.22,3,3,0,0,0-.55,1c0,.13-.18.21-.31.25a.39.39,0,0,1-.51-.22c0-.12,0-.26-.06-.4l0-.1c0-.1-.08-.24-.14-.22a3.36,3.36,0,0,1-1,.72c-.08,0-.33.06-.36-.06s0-.12.05-.17a5.11,5.11,0,0,1,.41-.38,6.73,6.73,0,0,0,.65-.75c.23-.33.09-.79,0-1.17a6,6,0,0,1,.1-3.2c.13-.49.48-1.36,1-1.51s.73.45.83.84a4.71,4.71,0,0,1-.36,3.38c-.09.16-.69,1.24-.72,1.37s0,.06,0,.1,0,.19,0,.28.09.07.15.06l.1,0a3.09,3.09,0,0,0,.55-.76l.34-.47c.11-.17.22-.33.32-.51s.23-.69.51-.76.45.1.52.38a4.44,4.44,0,0,1,.13,1c0,.21-.05.95,0,1.05s.18.08.27.06c.95-.26,2-1.44,2.24-1.51.05,0,.1.07.11.12C288.39,280.12,286.87,281.27,286.5,281.49Zm-3.12-5.63c-.19.05-.33.37-.38.53a5.76,5.76,0,0,0-.19,3s0,.06,0,.08,0,.11.09.1.54-1,.62-1.17a3.66,3.66,0,0,0,.17-2.19C283.66,276.09,283.57,275.8,283.38,275.86Z" transform="translate(-234.03 -208.2)" style="fill:#fff"/><path d="M297.1,278.48c-.31.19-.54.51-.86.71a6.56,6.56,0,0,1-1.69.75c-.24.06-1.26.33-1.36-.05a1,1,0,0,1,.31-.75,3,3,0,0,1,1.62-.81l.88-.22c.36-.1.61-.18.49-.63a1,1,0,0,0-.6-.57,2.37,2.37,0,0,0-.53-.18,10,10,0,0,0-2.05,0c-.89.06-1.9-.11-2.18-1.12a1.92,1.92,0,0,1,0-.86c.25-1.11,2.24-2.22,3.22-2.61a14.66,14.66,0,0,1,1.53-.54c.25-.07,1.29-.35,1.4.06,0,.11.05.23-.07.27s-.52,0-.81,0a13.1,13.1,0,0,0-2.1.83,5.57,5.57,0,0,0-2.32,1.77,1.07,1.07,0,0,0-.17.78c.17.61,1.16.79,1.69.78,1.1,0,2-.28,3,.35a1.75,1.75,0,0,1,.78.94,1.22,1.22,0,0,1,0,.17c0,.06,0,.07.08.06a5.47,5.47,0,0,0,1.14-.75c.1-.08.58-.52.66-.55s.11.05.13.12C299.47,277.19,297.67,278.14,297.1,278.48Zm-1.61.41a5,5,0,0,0-1.11.44.11.11,0,0,0,.08,0h.05a5.61,5.61,0,0,0,1.05-.42S295.58,278.87,295.49,278.89Z" transform="translate(-234.03 -208.2)" style="fill:#fff"/><path d="M305.41,271.26a7,7,0,0,1-2,.73l-1.86.55a2.5,2.5,0,0,0-.52.19.36.36,0,0,0-.13.11,8,8,0,0,0-.48,3.82c.06.24.19.42.46.35l.16-.07a6.72,6.72,0,0,0,1.43-1,2.64,2.64,0,0,1,.57-.44c.08,0,.1,0,.12.08.11.41-.36.76-.61,1a4.22,4.22,0,0,1-1.77,1.15.87.87,0,0,1-1-.52,1.65,1.65,0,0,0-.16-.36.07.07,0,0,0-.09,0c-.27.07-.74.81-1.31,1-.07,0-.32.06-.35-.06a.24.24,0,0,1,0-.17c.05-.07.34-.31.41-.39a5,5,0,0,0,.65-.74,5.36,5.36,0,0,0,.62-1.57,4.28,4.28,0,0,0,.29-1.61c0-.1-.2-.08-.35,0l-.25.08-.23.06c-.49.14-1.35.35-1.46,0s.19-.46.43-.52.45,0,.77-.09.8-.26,1.2-.37.29-.52.38-.74.27-.53.46-.58.28.11.32.25a4.67,4.67,0,0,1,0,.67s0,0,.08,0a5,5,0,0,0,.95-.19l.15,0,1.4-.4,1.43-.39c.1,0,.33-.08.37.06A.54.54,0,0,1,305.41,271.26Z" transform="translate(-234.03 -208.2)" style="fill:#fff"/><path d="M308.13,273.42a4.84,4.84,0,0,0-.8.43,2.78,2.78,0,0,1-.64.26,1.22,1.22,0,0,1-.51,0s0,.05,0,.11a3.88,3.88,0,0,1-.15.76,4,4,0,0,1-.59,1.07,3.15,3.15,0,0,1-1.53,1.13c-.6.16-.83-.22-1-.75a2.45,2.45,0,0,1-.1-1.11,2.78,2.78,0,0,1,.77-1.5c.09-.08.23-.25.33-.28s.19,0,.21.08a4.07,4.07,0,0,1-.31.88,2.26,2.26,0,0,0-.13,1.61c.05.19.17.34.39.28a2.17,2.17,0,0,0,1.15-1.08,1.36,1.36,0,0,0,.16-.94A.6.6,0,0,0,305,274a.55.55,0,0,1-.33-.39.57.57,0,0,1,.32-.72.77.77,0,0,1,.72.2,1.15,1.15,0,0,0,1,.37,2.26,2.26,0,0,0,1.42-.8,2.44,2.44,0,0,0,.21-.36c.11-.19.22-.34.31-.36s.37,0,.43.16c.13.5-.21,1.73-.11,2.09,0,0,0,.08.06.07s1.23-1.8,1.69-1.93c.28-.08.45.2.51.43s-.08.77,0,1.13c.05.21.2.25.39.19a4.77,4.77,0,0,0,1.59-1,3.69,3.69,0,0,1,.74-.57.16.16,0,0,1,.07.11c.08.29-.53.86-.73,1.05a4.72,4.72,0,0,1-1.72,1.21.76.76,0,0,1-.16.06c-1,.26-.93-.77-1.15-1a.06.06,0,0,0-.08,0c-.26.07-.69.87-.79,1.11s-.35.7-.63.78-.34-.23-.4-.42a4.32,4.32,0,0,1-.14-.8,8.59,8.59,0,0,0-.05-1.09C308.18,273.44,308.16,273.41,308.13,273.42Z" transform="translate(-234.03 -208.2)" style="fill:#fff"/><path d="M317.57,272a6,6,0,0,1-2.43,1.83,1.2,1.2,0,0,1-1.64-.81,3.63,3.63,0,0,1-.1-.93,2.76,2.76,0,0,1,.19-1.34,1.93,1.93,0,0,1,.75-.87,2.61,2.61,0,0,0,.44-.27l.14-.07c.32-.09.52.32.59.56a1.93,1.93,0,0,1,.06.42,1.8,1.8,0,0,1-.6,1.62c-.09.11-.55.53-.5.7s.44.32.72.25a2.7,2.7,0,0,0,.74-.37,9.21,9.21,0,0,0,1-.73c.19-.15.36-.33.55-.47l.15-.09a.1.1,0,0,1,.14.07C317.8,271.69,317.66,271.9,317.57,272Zm-2.74-1.59a.76.76,0,0,0-.3.24,1.42,1.42,0,0,0-.37,1.31s0,.07.07.06c.22-.06.65-.79.72-1a1.06,1.06,0,0,0,0-.5C315,270.46,314.91,270.4,314.83,270.43Z" transform="translate(-234.03 -208.2)" style="fill:#fff"/><path d="M458.59,300.71c-4.21-4.25-8.48-8.53-11.94-13.6-1.72-2.54-3.15-5.14-4.78-7.59a76.39,76.39,0,0,0-5.22-7.11c-3.74-4.5-8.29-8.3-12.8-12.23s-8.92-8-13.66-11.38a37.81,37.81,0,0,0-3.65-2.3c-1.26-.7-2.62-1.34-4-2.19a89.88,89.88,0,0,1-7.27-5.52c-1.15-.93-2.31-1.83-3.49-2.65-.56-.39-1.24-.84-1.86-1.29s-1.23-.93-1.83-1.4c-2.39-1.88-4.64-3.88-6.91-5.75-.56-.47-1.13-.92-1.67-1.31a2.21,2.21,0,0,0-.34-.23.42.42,0,0,0-.16-.07c-.05,0,.14,0,.19-.06a2,2,0,0,0-.31.85c0,.67-.18.07.37.91a40.64,40.64,0,0,0,6,6.2,113.46,113.46,0,0,0,13.91,10.91,36,36,0,0,1,3.79,2.78,14,14,0,0,1,1.78,1.82,4.83,4.83,0,0,1,.83,1.47,2.27,2.27,0,0,1,.11.87,1.68,1.68,0,0,1-.4,1,1.75,1.75,0,0,1-1.54.63,2,2,0,0,1-.73-.26l-.12-.08-.23-.16-7.42-5.17-7.42-5.17a24.52,24.52,0,0,1-3.66-2.95c-1.13-1.09-2.16-2.24-3.15-3.4s-1.93-2.34-2.87-3.5-1.87-2.38-2.76-3.3c-.26-.29-1.05-.82-1.62-1.31L372,226.74l-3.43-2.92-6.8-5.81c-2.28-1.86-4.56-4.17-6.67-4.63a1.84,1.84,0,0,0-1.26.13,4.93,4.93,0,0,0-1.33,1.06c-.57.57-.58.7-.61.85a3,3,0,0,0,.59,1.24l1.28,1.8c.38.53.86,1.15,1.31,1.73l2.76,3.5q5.58,7,11.26,13.92l5.73,6.86,5.84,6.79c1.94,2.29,3.85,4.59,5.74,6.93l2.8,3.53a44.16,44.16,0,0,1,2.69,3.78c.06.11.11.18.18.32l.09.2a2.87,2.87,0,0,1,.11.37c.09-.14,0,1.1-.39,1.22a1.35,1.35,0,0,1-1.14.32,1.75,1.75,0,0,1-.78-.38,7.64,7.64,0,0,1-.91-1l-1.43-1.75c-.94-1.16-1.89-2.29-2.85-3.42-1.94-2.25-3.94-4.44-6-6.6-4.12-4.44-7.89-9.06-11.68-13.7q-11.31-13.94-22.2-28.17l-1.36-1.8c-.21-.28-.46-.62-.7-1a1.77,1.77,0,0,0-.57-.33,3.82,3.82,0,0,0-3.63.33,5.13,5.13,0,0,0-1.72,3.47,9.2,9.2,0,0,0-.1,2.07,9,9,0,0,0,.54,2,44.56,44.56,0,0,0,4.15,7.79c1.6,2.5,3.3,4.95,5,7.37,3.5,4.82,7.18,9.52,10.95,14.15s7.62,9.19,11.67,13.56c1,1.11,2,2.11,3.15,3.15a19.67,19.67,0,0,1,1.56,1.71,4.17,4.17,0,0,1,.65,1.11,1.42,1.42,0,0,1,.07.45,1.3,1.3,0,0,1-.07.33,1.08,1.08,0,0,1-.26.3,1.16,1.16,0,0,1-1,.12,2.36,2.36,0,0,1-1.15-.75l-.79-.82-1.53-1.65-3-3.32q-6-6.67-11.84-13.47c-1.94-2.29-3.91-4.53-5.74-6.93s-3.55-4.85-5.24-7.32-3.35-4.94-5.09-7.35a11.72,11.72,0,0,0-1.32-1.61,2.26,2.26,0,0,0-1.39-.79c-.78-.15-1.72,1.16-2.13,2.32l0,.07c-.5,1.41-.05,3.47.46,5.28a45.73,45.73,0,0,0,2.06,5.5c1.58,3.62,3.43,7.15,5.36,10.63s4,6.91,6.07,10.29c1.06,1.7,2.12,3.38,3.21,5.05l1.63,2.49.41.61a1.11,1.11,0,0,0,.3.31c.31.27.72.57,1.11.86,6.47,4.62,13,9.33,19.31,14.35a59.22,59.22,0,0,1,9,8.32,26.69,26.69,0,0,1,3.54,5.21,17.94,17.94,0,0,1,1.19,3,11,11,0,0,1,.35,1.65,6.73,6.73,0,0,1,0,1.92l-.53,4.13-2-3.75a58.45,58.45,0,0,0-11.78-14.94c-2.34-2.2-4.82-4.23-7.39-6.22l-1-.78a9,9,0,0,1-1-.94l-1.67-1.77a35.92,35.92,0,0,0-3.48-3.19,12.7,12.7,0,0,0-3.84-2.18,3.59,3.59,0,0,0-3.53.55c-2.29,1.48-1.24,4.66.35,7.3s3.64,5.25,5.53,7.91,3.81,5.31,5.67,8,3.68,5.41,5.42,8.18a72.8,72.8,0,0,1,4.78,8.65,31.63,31.63,0,0,0,2.26,4.19,30.55,30.55,0,0,0,3,3.71c2.17,2.38,4.49,4.68,6.76,7,4.39,4.75,10,8.09,15.93,10.74a97.27,97.27,0,0,0,18.51,6l-.05.3a91.63,91.63,0,0,1-18.81-5.46c-6-2.51-11.92-5.82-16.54-10.57-2.35-2.27-4.69-4.54-7-6.93a33.34,33.34,0,0,1-3.2-3.85,35.62,35.62,0,0,1-2.44-4.36,72.51,72.51,0,0,0-4.81-8.39c-1.77-2.71-3.62-5.38-5.51-8s-3.82-5.27-5.77-7.87-4-5.12-5.75-8a13.74,13.74,0,0,1-2-4.94,6.08,6.08,0,0,1,.28-3,5.26,5.26,0,0,1,.79-1.34l.49-.59.56-.47a5.89,5.89,0,0,1,2.77-1.24,7.73,7.73,0,0,1,1.52,0,13.56,13.56,0,0,1,1.41.29,15.28,15.28,0,0,1,4.65,2.56,36.76,36.76,0,0,1,3.74,3.39l1.7,1.77a8.77,8.77,0,0,0,.78.74l.94.73a98.64,98.64,0,0,1,7.6,6.32A60.75,60.75,0,0,1,388,300.8l-2.52.38a4.7,4.7,0,0,0-.05-1.07,7.54,7.54,0,0,0-.28-1.28,15.14,15.14,0,0,0-1-2.54,26.3,26.3,0,0,0-3.2-4.69,56.78,56.78,0,0,0-8.57-8c-6.2-5-12.63-9.68-19.16-14.39-.41-.32-.81-.61-1.25-1a3.82,3.82,0,0,1-.72-.79l-.43-.64-1.64-2.54c-1.07-1.71-2.11-3.42-3.15-5.15-2.06-3.45-4.06-6.94-6-10.49s-3.71-7.15-5.27-10.89a48.85,48.85,0,0,1-2.05-5.78,19.09,19.09,0,0,1-.62-3.08,7.12,7.12,0,0,1,.34-3.43l0,.07a7.5,7.5,0,0,1,1.29-2.22,3.18,3.18,0,0,1,2.65-1.24,3.92,3.92,0,0,1,2.45,1.3,13,13,0,0,1,1.49,1.87c1.71,2.47,3.34,5,5,7.47s3.3,4.95,5.06,7.34,3.67,4.68,5.59,7q5.79,6.82,11.73,13.53l3,3.33,1.51,1.65.76.8c.26.26.38.43.66.49.11,0,.25,0,.13,0s-.1.14-.09.15l0-.09a4.06,4.06,0,0,0-.49-.81,16.85,16.85,0,0,0-1.46-1.61c-1.05-1-2.16-2.11-3.15-3.21-8-8.9-15.67-18.09-22.78-27.74-1.77-2.41-3.49-4.87-5.12-7.39a49.7,49.7,0,0,1-4.33-8,11.19,11.19,0,0,1-.63-2.29,10.57,10.57,0,0,1,.07-2.4,6.34,6.34,0,0,1,2.18-4.33,5.12,5.12,0,0,1,4.91-.57,2.58,2.58,0,0,1,1.26.89l.63.84,1.38,1.76q11.08,14.06,22.54,27.83c3.83,4.57,7.68,9.16,11.74,13.43q3.15,3.23,6.15,6.6c1,1.13,2,2.28,2.93,3.43l1.43,1.7a6.13,6.13,0,0,0,.62.66s.07,0-.29-.11a1.13,1.13,0,0,0-.89.25c-.33.07-.4,1.19-.35,1a.39.39,0,0,0,0,.1l0-.05a1.81,1.81,0,0,0-.1-.17,86.35,86.35,0,0,0-5.37-6.93q-2.85-3.43-5.79-6.8l-5.93-6.72c-2-2.27-3.88-4.56-5.8-6.86q-5.74-6.9-11.37-13.88L352.77,222c-.47-.6-.92-1.15-1.41-1.83L350,218.32a5.38,5.38,0,0,1-1.11-2.85,4.19,4.19,0,0,1,1.44-3,7.67,7.67,0,0,1,2.18-1.69,5,5,0,0,1,3.11-.38,11.43,11.43,0,0,1,4.58,2.36c1.24,1,2.34,1.91,3.5,2.88l6.86,5.79,3.42,2.87,1.71,1.4.83.66a7.52,7.52,0,0,1,1,.86c1.2,1.22,2.05,2.37,3,3.54s1.87,2.31,2.83,3.41,1.94,2.18,2.95,3.17a21.81,21.81,0,0,0,3.3,2.66l7.27,5.1,7.28,5.1.22.16.12.08c.16.09-.29-.18-.48-.15a1.5,1.5,0,0,0-1.3.52,1.34,1.34,0,0,0-.32.75,1.58,1.58,0,0,0,0,.32,2.18,2.18,0,0,0-.3-.44,10.86,10.86,0,0,0-1.35-1.38,33.34,33.34,0,0,0-3.43-2.52,117.38,117.38,0,0,1-14.24-11.22,43.3,43.3,0,0,1-6.41-6.69l-.37-.51a3.26,3.26,0,0,1-.46-.85,4,4,0,0,1-.12-1.82,4.91,4.91,0,0,1,.44-1.53,3.59,3.59,0,0,1,1.24-1.5,2.85,2.85,0,0,1,2.33-.34,3.35,3.35,0,0,1,.87.38,3.92,3.92,0,0,1,.6.39c.66.48,1.26,1,1.85,1.44,2.33,1.94,4.54,3.92,6.84,5.74,1.18.94,2.25,1.71,3.55,2.59s2.45,1.85,3.62,2.8a83.06,83.06,0,0,0,6.94,5.4c1.15.74,2.49,1.39,3.84,2.15a40.42,40.42,0,0,1,3.89,2.52c4.94,3.62,9.27,7.77,13.75,11.69s9.08,7.91,12.94,12.66a77.3,77.3,0,0,1,5.31,7.38c1.66,2.54,3.08,5.2,4.66,7.65,3.2,4.88,7.34,9.2,11.45,13.49" transform="translate(-234.03 -208.2)" style="fill:#fff"/></svg>