<svg xmlns="http://www.w3.org/2000/svg" viewBox="0 0 207.93 184"><title>huddleteam</title><path d="M267,268.47" transform="translate(-248.99 -177.53)" style="fill:#fff"/><path d="M449,264.66a81.51,81.51,0,0,1-16.68,59.7A97.51,97.51,0,0,1,408.48,345a110.59,110.59,0,0,1-28.56,13.05A86.17,86.17,0,0,1,292,333.91a85.56,85.56,0,0,1-16.65-26.7l.46-.22a105.71,105.71,0,0,0,19,24.15,98.77,98.77,0,0,0,25.06,17,93.68,93.68,0,0,0,29,8.44,99.21,99.21,0,0,0,30.4-1.14,76.4,76.4,0,0,0,28.32-11.74A85.9,85.9,0,0,0,429,321.85a105.58,105.58,0,0,0,13.9-27,76.09,76.09,0,0,0,2.18-7.32,63.68,63.68,0,0,0,1.64-7.49l.73-3.79.33-3.85c.21-2.58.43-5.16.73-7.75Z" transform="translate(-248.99 -177.53)" style="fill:#fff"/><path d="M424.12,208.91a5.46,5.46,0,0,1,4.82-.57,7.13,7.13,0,0,1,2.31,1.34,9,9,0,0,1,1.67,2l-2.65-1a10.09,10.09,0,0,1,3.43-.81,6.69,6.69,0,0,1,3.62.83,5.7,5.7,0,0,1,2.53,2.8,10.7,10.7,0,0,1,.81,3.19l-1.19-.6a9.28,9.28,0,0,1,2.71-.34,8.26,8.26,0,0,1,2.66.55,9.77,9.77,0,0,1,2.4,1.43,12.17,12.17,0,0,1,1.92,2l-2-.93a7.68,7.68,0,0,1,4-.4,6.45,6.45,0,0,1,4,2.31,7.91,7.91,0,0,1,1.66,4.08c0,.33.07.67.09,1v.81c0,.54,0,1.08-.06,1.62a33.68,33.68,0,0,1-1.14,6.31,19.74,19.74,0,0,1-2.67,6l-.45-.23c-.25-2-.47-4.15-.63-6.17l-.36-6c-.11-2.1,0-3.73-.45-4.43a1.78,1.78,0,0,0-1.07-.93,7.75,7.75,0,0,0-2.11-.45l-1.83-.18-.21-.75a9,9,0,0,0-.71-1.9A4.67,4.67,0,0,0,444,218a3.68,3.68,0,0,0-1.88-.67,3.44,3.44,0,0,0-1.93.38l-.76.44-.43-1a4.46,4.46,0,0,0-1.39-2,3.13,3.13,0,0,0-1.79-.7,14.72,14.72,0,0,0-1.9,0,12.29,12.29,0,0,0-2.09.27l-2.05.47-.6-1.47a7.32,7.32,0,0,0-1.64-2.62,6.6,6.6,0,0,0-3.26-1.63Z" transform="translate(-248.99 -177.53)" style="fill:#fff"/><path d="M301.29,282l2.92,10.19c.46,1.69,1,3.38,1.52,5,.13.4.29.78.42,1.09a5.51,5.51,0,0,0,.58.89l1.5,2.06a69,69,0,0,0,14.48,14.32,86.93,86.93,0,0,0,8.54,5.64,63.85,63.85,0,0,0,9.4,4.28,47.08,47.08,0,0,0,20.57,2.42A56.79,56.79,0,0,0,381,321.92a63.46,63.46,0,0,0,16.58-11.7,66.15,66.15,0,0,0,18.57-35.44V275c.25-3.49.35-7.06.28-10.58-.06-1.77-.07-3.54-.26-5.28a14.16,14.16,0,0,0-1.25-5l.39-.32a12.75,12.75,0,0,1,2.35,5,47.33,47.33,0,0,1,1.14,5.36c.53,3.6.87,7.19,1.07,10.85h0v.18A57.9,57.9,0,0,1,401,313.88a59.33,59.33,0,0,1-18.49,11.59,65.35,65.35,0,0,1-21.17,4.09,81.84,81.84,0,0,1-21.32-2,55.64,55.64,0,0,1-19.92-8.54,53.85,53.85,0,0,1-4.32-3.37c-1.31-1.28-2.71-2.46-3.92-3.84a55.82,55.82,0,0,1-6.68-8.64l-1.39-2.38a6.81,6.81,0,0,1-.7-1.41c-.17-.52-.3-1-.4-1.43-.42-1.81-.66-3.57-.92-5.34-.42-3.54-.81-7.06-1-10.62Z" transform="translate(-248.99 -177.53)" style="fill:#fff"/><path d="M259,285.72a24.49,24.49,0,0,1-5.15-4,25.13,25.13,0,0,1-4-5.06,6.77,6.77,0,0,1-.41-.81l-.22-.52a3.67,3.67,0,0,1-.21-.78,8.46,8.46,0,0,1,0-1.9,14.49,14.49,0,0,1,.9-3.48,7.52,7.52,0,0,1,2-3.05,6.42,6.42,0,0,1,3.41-1.4l-1,1.06a16.36,16.36,0,0,1-.22-2.41,8.19,8.19,0,0,1,.38-2.6,5.16,5.16,0,0,1,1.92-2.61,5.87,5.87,0,0,1,3.31-.91l-2.5,2.59a10.82,10.82,0,0,1,.07-3.73,8.09,8.09,0,0,1,1.69-3.68,7.07,7.07,0,0,1,3.56-2.3,9.63,9.63,0,0,1,3.73-.27l-2.38,2.28a10.59,10.59,0,0,1,.71-2.74,8.9,8.9,0,0,1,1.44-2.5,5.24,5.24,0,0,1,2.51-1.76,3.92,3.92,0,0,1,2.8.31l-.08.49a3.78,3.78,0,0,0-1.78,1,3.93,3.93,0,0,0-.73,1.56,9.17,9.17,0,0,0-.26,1.87,12.92,12.92,0,0,0,.05,1.9l.18,1.8-2.57.48a7,7,0,0,0-1.93.53,3,3,0,0,0-1.15.85,4.29,4.29,0,0,0-.83,1.42,8.08,8.08,0,0,0-.39,2l-.16,2.87-2.34-.27a3.63,3.63,0,0,0-.8-.07,1.65,1.65,0,0,0-.85.55,6.43,6.43,0,0,0-1.39,3.29l-.16,1.18-.84-.13a3.07,3.07,0,0,0-2.43.55,3.15,3.15,0,0,0-1,2.35,8.39,8.39,0,0,0,.51,2.79,10.64,10.64,0,0,0,.49,1.22c0-.23.36.32.64.65a45,45,0,0,1,3.33,5.17,28.85,28.85,0,0,1,2.55,6Z" transform="translate(-248.99 -177.53)" style="fill:#fff"/><path d="M281.84,247.79C278.09,260.91,294,270.28,294,270.28l-3.75,8c-3.74,8,6.56,13.12,6.56,13.12s3.28-7.5,4.22-9.37,6.09-10.77,6.09-10.77c.47-6.09-8.07-22.52-8.07-22.52a61.18,61.18,0,0,1,100.82-24.81s1.11,19.16,3.22,22,5.27,3.69,7.55,4.57S420,259.56,421.2,259s4-6.5,2.11-9-10.19-6.85-9.66-8.08,11.24-13.18.7-25.3c0,0,4.63,2.43,6.33,1.58,2.1-1.05,3.68-7.73,3.51-9.13s-4.95-7.89-4.95-7.89a91,91,0,0,0-149,43.28S275.11,252.36,281.84,247.79Z" transform="translate(-248.99 -177.53)" style="fill:#fff"/><path d="M258.1,286s8.52-9,11.93-8.79,7.56-.38,7.82,3.18c0,0,3.57-1.75,7.53,2.58s-.81,8.15-.81,8.15,5.32,1.82,2.29,9.2a7.2,7.2,0,0,1-.52,8.74c-3.59,4.7-8.49,6-10.85,4.2,0,0-4.33-2.54-2.41-6,0,0-6.61-.22-4.62-5.48,0,0-7.71-.79-5.5-6.72C263,295.08,252.93,292.94,258.1,286Z" transform="translate(-248.99 -177.53)" style="fill:#fff"/><path d="M435.12,262.63a5.79,5.79,0,0,0,2.66,7.26c4.58,2.54,10.78,2.94,12.3-.87a8.32,8.32,0,0,0,.05-6.62s3.73-2,1.74-7.1c0,0,4.52-2.91,1.52-8.14,0,0,5.58-5-1.4-9.83,0,0-11.34-2.91-12.22-2.76s-7.77,1.35-6.43,6.68c0,0-6.64,1.85-6.47,6.12s4.23,6.46,4.23,6.46S428.89,258.28,435.12,262.63Z" transform="translate(-248.99 -177.53)" style="fill:#fff"/></svg>