<?xml version="1.0" encoding="utf-8"?>
<!-- Generator: Adobe Illustrator 24.0.3, SVG Export Plug-In . SVG Version: 6.00 Build 0)  -->
<svg version="1.1" id="Layer_1" xmlns="http://www.w3.org/2000/svg" xmlns:xlink="http://www.w3.org/1999/xlink" x="0px" y="0px"
	 viewBox="0 0 584.6 571" style="enable-background:new 0 0 584.6 571;" xml:space="preserve">
<style type="text/css">
	.st0{fill:#B39053;}
</style>
<g id="Layer_2_1_">
	<g>
		<path class="st0" d="M14,409L9,131C9,131,59,11,136,6s309-2,309-2s112,24,123,130s0,288,0,288s-19,136-151,140s-258-2-258-2
			S22,553,14,409z M63,118l5,323c0,0,45,65,80,69s246,3,246,3s126,3,127-105s-8-290-8-290s-15-68-108-66s-259,5-259,5S62,83,63,118z
			"/>
	</g>
	<g>
		<path class="st0" d="M435.8,282.1c0,79.1-63.8,143.1-142.4,143.1S151,361.2,151,282.1S214.8,139,293.4,139
			S435.8,203.1,435.8,282.1z M290.6,188c-49.5,0-89.6,40.3-89.6,90.1s40.1,90.1,89.6,90.1s89.6-40.3,89.6-90.1S340.2,188,290.6,188z
			"/>
	</g>
</g>
<g id="Layer_1_1_">
	<title>instagramicon</title>
	<g>
		<path d="M290.9,50.7c34.3-1.8,68.7-2.9,103.2-3.6c17.1-0.7,35.1,0.2,52.8,4.5c9,2.2,17.6,5.4,25.9,9.5c8.4,4.4,16,10,22.7,16.6
			c6.9,6.5,12.8,14,17.5,22.2c4.5,8.2,8.1,16.8,10.7,25.8c4.9,17.8,6.5,36.2,6.7,53.2c0.8,34.4,1.1,68.9,0.9,103.3l-4.7,103.2
			c-0.5,17-2.6,35-7.8,52c-2.6,8.5-6.1,16.8-10.4,24.6c-4.5,7.7-10.1,14.8-16.6,21c-6.3,6.3-13.5,11.7-21.3,16
			c-7.9,4.1-16.1,7.3-24.7,9.7c-17,4.7-34.7,6.1-51.8,6.4c-34.3,0.8-68.7,2.7-103.1,3.9c-34.4,0.5-68.8,1.3-103.3,1.5
			c-17,0.5-35.4-0.8-53.3-5.3c-9.1-2.3-17.9-5.7-26.3-10c-16.9-9.4-31-23.2-40.7-39.9c-4.5-8.3-8.1-17.1-10.7-26.2
			c-2.5-8.9-4.3-17.9-5.3-27.1c-1-8.8-1.6-17.6-1.6-26.5c-0.9-34.5-1.3-68.9-1.8-103.4c0.9-34.5,1.5-68.9,2.6-103.4
			c0.3-17,2-35.5,7.1-53.3c2.6-9,6.3-17.7,10.9-25.8c4.8-8.2,10.7-15.7,17.7-22.2c6.7-6.6,14.4-12.2,22.8-16.5
			c8.3-4.1,17-7.2,25.9-9.4c17.7-4.1,35.7-5,52.8-4.4c17.2,0.2,34.4,0.9,51.6,1.4S273.8,49.8,290.9,50.7V53
			c-17.2,1.3-34.3,2.3-51.4,3.4s-34.2,2.1-51.2,2.9c-17.2,0.6-33.7,2.6-49.2,7.4c-7.6,2.4-14.9,5.6-21.8,9.5
			c-6.6,4-12.7,8.9-17.9,14.6c-5.4,5.5-9.9,11.8-13.4,18.6c-3.4,7-6.1,14.3-8,21.9c-1.9,7.8-3.2,15.7-3.8,23.7
			c-0.7,8.3-1,16.7-0.8,25c0.2,34.2-0.2,68.3-0.3,102.4c0.5,34.1,1.1,68.2,1.2,102.4c-0.1,8.3,0.2,16.6,0.9,24.9
			c0.7,7.9,2,15.8,4,23.5c1.9,7.5,4.7,14.7,8.2,21.5c7.3,13.2,18,24.2,31,31.9c6.8,3.7,14,6.7,21.5,8.9c15.2,4.4,31.4,6,48.6,6.5
			c34.1,1.2,68.3,3,102.5,4.5c34.2,0.3,68.5,1.1,102.7,1c17.2,0.4,34-1.1,50.2-5.3S475,490,486.4,478c11.9-11.7,19-26.7,23-42.8
			c3.7-16.2,4.6-32.8,4-50l-1.8-102.6c-1.2-34.2-1.9-68.3-2.1-102.5c0.1-8.3-0.2-16.7-1-25c-0.7-8-2.1-15.9-4.1-23.7
			c-1.9-7.6-4.7-14.9-8.2-21.9c-3.6-6.8-8.2-13.1-13.6-18.5c-5.3-5.6-11.4-10.5-18.1-14.4c-6.9-3.9-14.2-7.1-21.8-9.4
			c-7.8-2.3-15.8-4-24-5.1c-8.3-1.2-16.8-1.9-25.2-2.2c-34.2-1.7-68.4-3.8-102.6-6.6V50.7z"/>
		<path d="M180.7,523.6c-16.8,0-32.6-1.8-47.2-5.5c-9.1-2.3-18.1-5.7-26.9-10.2c0,0-0.1,0-0.1,0c-17.4-9.7-31.9-23.9-41.8-41
			c-4.7-8.6-8.3-17.6-11-26.9c-2.6-9.2-4.4-18.5-5.4-27.6c-1.1-9.6-1.6-18.3-1.6-26.8c-0.8-28.7-1.2-58-1.6-86.3l-0.2-17.1
			c0,0,0-0.1,0-0.1c0.3-12.9,0.6-25.8,0.9-38.7c0.5-21.2,1-43.1,1.7-64.7c0.4-20.7,2.7-38.4,7.2-54c2.6-9.2,6.4-18.1,11.2-26.5
			c5.1-8.7,11.2-16.4,18.3-22.9c6.9-6.8,14.8-12.6,23.5-17c8.3-4.1,17.2-7.3,26.5-9.6c16.1-3.7,33.6-5.2,53.6-4.5
			c12.2,0.1,24.8,0.5,36.9,0.9c4.9,0.2,9.8,0.3,14.7,0.5c14.9,0.4,31.3,1.1,51.5,2.2c31.5-1.7,65.2-2.8,103.1-3.6
			c20-0.8,37.5,0.7,53.6,4.6c9,2.2,17.9,5.5,26.5,9.7c8.6,4.5,16.5,10.3,23.5,17.2c7.1,6.6,13.1,14.3,18,22.8
			c4.7,8.5,8.4,17.4,11,26.5c4.3,15.8,6.6,33.5,6.8,54c0.8,34.2,1.1,69,0.9,103.4c0,0,0,0.1,0,0.1l-4.7,103.2
			c-0.6,19.7-3.2,37.4-7.9,52.7c-2.7,8.7-6.3,17.2-10.6,25.2c-4.7,8.1-10.5,15.3-17.2,21.7c-6.4,6.4-13.8,12-21.9,16.5
			c-8.1,4.2-16.4,7.5-25.3,10c-19.3,5.3-39.3,6.3-52.6,6.5c-20.9,0.5-42.2,1.4-62.8,2.3c-13.2,0.6-26.8,1.1-40.3,1.6
			c-11.5,0.2-22.9,0.4-34.4,0.6c-22.6,0.4-46,0.8-69,0.9C185.3,523.6,183,523.6,180.7,523.6z M109.4,502.6c8.4,4.3,17,7.6,25.6,9.7
			c16,4,33.6,5.8,52.5,5.2c23.1-0.1,46.4-0.5,69-0.9c11.5-0.2,22.9-0.4,34.3-0.6c13.3-0.5,27-1,40.1-1.6c20.6-0.9,42-1.8,62.9-2.3
			c13-0.2,32.4-1.1,51.1-6.3c8.5-2.4,16.4-5.5,24.1-9.5c7.5-4.1,14.5-9.4,20.6-15.5c6.3-6,11.7-12.9,16.1-20.4
			c4.1-7.5,7.6-15.6,10.1-24c4.5-14.8,7.1-32,7.7-51.2l4.7-103.2c0.2-34.2-0.1-68.9-0.9-103.2c-0.2-20.1-2.4-37.2-6.6-52.5
			c-2.5-8.6-6-17.1-10.4-25.2c-4.6-7.9-10.3-15.2-16.9-21.5c-6.6-6.5-14-11.9-22-16.1c-8.2-4-16.7-7.2-25.2-9.2
			c-15.5-3.8-32.5-5.2-52-4.4c-27.2,0.6-52.2,1.3-75.8,2.3c23.4,1.7,48.3,3.2,75.2,4.5c8.9,0.3,17.5,1.1,25.5,2.2
			c8.3,1.1,16.5,2.9,24.4,5.2c7.6,2.3,15.2,5.6,22.4,9.7c6.9,4,13.2,9,18.8,14.9c5.5,5.5,10.3,12,14.1,19.2
			c3.7,7.5,6.6,15.1,8.5,22.6c2.1,8.1,3.5,16.2,4.2,24.2c0.8,8,1.1,16.6,1,25.3c0.2,33.9,0.9,68.3,2.1,102.4l1.8,102.7
			c0.7,19.4-0.6,35.6-4.1,50.7c-4.5,18.3-12.5,33.2-23.8,44.2c-11.3,11.8-26.4,20.5-43.9,25c-15.7,4.1-32.4,5.8-51,5.4
			c-21.9,0.1-44.3-0.2-66-0.6c-12-0.2-24.4-0.3-36.6-0.4c0,0-0.1,0-0.1,0c-11.5-0.5-22.9-1-34.4-1.6c-22.3-1-45.4-2.1-68.1-2.9
			c-20.3-0.6-35.6-2.6-49.3-6.6c-7.6-2.2-15.1-5.3-22.1-9.1c0,0-0.1,0-0.1-0.1c-13.5-8-24.6-19.4-32.1-33
			c-3.7-7.3-6.6-14.7-8.5-22.2c-2-7.6-3.3-15.7-4.1-24c-0.7-8.4-1-16.8-0.9-25.2c-0.1-28.5-0.5-57.4-0.9-85.3l-0.3-17
			c0-11.4,0.1-22.8,0.2-34.1c0.1-22.4,0.3-45.5,0.1-68.3c-0.2-8.1,0.1-16.6,0.8-25.3c0.6-7.9,1.9-16,3.9-24.2
			c1.9-7.6,4.7-15.2,8.2-22.5c3.7-7.2,8.4-13.7,13.9-19.4c5.3-5.8,11.5-10.8,18.5-15.1c7.2-4.1,14.7-7.4,22.5-9.8
			c14.4-4.5,30.3-6.8,50-7.5c15.3-0.7,32-1.7,51.1-2.9c4.3-0.3,8.7-0.6,13.1-0.8c2.1-0.1,4.2-0.3,6.3-0.4
			c-6.9-0.3-13.3-0.5-19.5-0.7c-4.9-0.1-9.8-0.3-14.7-0.5c-12.1-0.4-24.5-0.8-36.8-0.9c-19.6-0.7-36.6,0.7-52.1,4.3
			c-8.9,2.2-17.4,5.3-25.2,9.2c-8,4.1-15.5,9.5-22,15.9c-6.7,6.2-12.5,13.5-17.2,21.6c-4.5,8-8.1,16.4-10.6,25.1
			c-4.3,15.2-6.6,32.3-7,52.5c-0.7,21.6-1.2,43.5-1.7,64.7c-0.3,12.9-0.6,25.8-0.9,38.7l0.2,17c0.4,28.3,0.8,57.5,1.6,86.3
			c0,8.3,0.5,16.9,1.6,26.2c1,8.8,2.7,17.7,5.2,26.6c2.5,8.8,6,17.5,10.4,25.6C79.3,480,93,493.4,109.4,502.6z M393.7,504.5
			c18.2,0.4,34.3-1.3,49.5-5.2c16.4-4.2,30.6-12.3,41.1-23.4c0,0,0,0,0.1-0.1c10.5-10.3,17.9-24.2,22.2-41.4
			c3.3-14.6,4.6-30.2,3.9-49.2l-1.8-102.7c-1.2-34-1.9-68.6-2.1-102.5c0.1-8.6-0.2-16.9-1-24.7c-0.7-7.6-2-15.4-4-23.2
			c-1.8-7.1-4.5-14.3-8-21.3c-3.5-6.6-7.9-12.6-13-17.7c-5.3-5.6-11.1-10.2-17.5-13.9c-6.9-3.9-14-7-21.2-9.1
			c-7.6-2.2-15.5-3.9-23.5-5c-7.8-1.1-16.2-1.9-24.9-2.2c-37.7-1.9-71.3-4-102.7-6.6c-0.3,0-0.6-0.1-0.9-0.2
			c-12.4,0.9-24.9,1.7-37.1,2.5c-4.3,0.3-8.7,0.5-13,0.8c-19.1,1.2-35.9,2.2-51.3,2.9c-19.2,0.7-34.6,3-48.5,7.3
			c-7.3,2.3-14.4,5.4-21.2,9.2c-6.5,3.9-12.3,8.7-17.2,14c0,0,0,0.1-0.1,0.1c-5.1,5.2-9.5,11.2-12.9,17.9c-3.3,6.9-6,14-7.8,21.3
			c-1.9,7.8-3.1,15.6-3.7,23.2c-0.7,8.5-1,16.8-0.8,24.7c0.1,22.9,0,46-0.1,68.4c-0.1,11.4-0.1,22.7-0.2,34.1l0.3,17
			c0.4,28,0.9,56.9,0.9,85.4c-0.1,8.2,0.2,16.5,0.9,24.7c0.7,8,2,15.7,3.9,23c1.8,7.1,4.5,14.1,8,20.9c7,12.6,17.3,23.2,29.8,30.7
			c6.7,3.6,13.7,6.5,20.9,8.6c13.2,3.8,28,5.8,47.8,6.4c22.7,0.8,45.8,1.9,68.2,2.9c11.4,0.5,22.9,1.1,34.3,1.6
			c12.2,0.1,24.6,0.3,36.6,0.4C349.3,504.3,371.7,504.6,393.7,504.5z"/>
	</g>
	<g>
		<path d="M290.9,2.4C250,3.2,209,3.8,168.4,6.3c-40.2,3.4-80,18-106.1,47.3c-13.5,14.3-23.1,31-29.5,49.3s-9.4,37.5-10.5,57.3
			c-0.7,40.4-1.2,81.4-2.6,122.1c-0.2,40.7-1.2,81.7-1.2,122.3c0.7,20,3.5,39.9,10.1,58.7c13.3,38.2,43,68.5,80.9,82.5
			c18.8,7.1,38.8,10.5,59,11.5c20.3,0.7,40.8,0.2,61.2,0.1l61.3-0.5l122.2-5.1c39.3-3.1,77.7-15.7,104-43.5
			c27.3-26.8,38.8-65.1,40.7-104.2l1.8-122l-0.8-122c-1-19.7-3.8-38.9-10.1-57.2c-6.1-18.3-16-35.1-29.2-49.2
			c-26-29.3-65.7-44-105.9-47.4C372.8,4,331.8,3.3,290.9,2.4z M290.9,0l61.4,0.3c20.5-0.1,40.9-0.4,61.6-0.3
			c20.6,0.7,41.6,3.5,61.7,10.3c30.8,10.4,57.5,30.4,76.2,56.9c6.2,9,11.3,18.6,15.4,28.8c4.1,10,7.3,20.4,9.7,31
			c2.2,10.5,3.7,21.1,4.5,31.7c1.3,20.9,1.3,41.2,1.9,61.9l1.4,61.7l-0.9,61.7c-0.5,20.7-0.3,40.9-1.5,61.9
			c-1.5,21.1-5.4,42.9-13.5,63.3c-4,10.3-9,20.2-15,29.5c-6.1,9.2-13.2,17.7-21.1,25.5c-15.6,15.6-34.5,27.5-55.3,34.9
			c-20.4,7.5-42,11-63,11.8c-20.9,0.5-41.2-0.1-61.8-0.2L291,570l-123-4.5c-20.6-1.7-41.5-5.1-61-12.8c-9.8-3.7-19.2-8.4-28.1-13.9
			c-8.8-5.7-17-12.3-24.5-19.7c-15.3-14.7-27.1-32.5-34.8-52.2c-8.1-19.5-12.2-40.5-14.1-61.2c-1.5-20.7-1.9-41-2.9-61.6L0,282.3
			c0.1-20.5-0.1-41.1,0.2-61.6s0.1-40.9,1.3-61.8c0.8-10.6,2.2-21.2,4.3-31.7c2.3-10.6,5.4-20.9,9.5-30.9c4-10.1,9.1-19.8,15.2-28.8
			c6.2-8.9,13.3-17.1,21.3-24.4C67.3,28.3,86,17.2,106.4,10.5c20-6.8,41-9.6,61.6-10.3c20.6-0.1,41,0.2,61.5,0.2L290.9,0z"/>
		<path d="M396.5,574.1c-8.3,0-16.6-0.1-24.7-0.2c-6.3-0.1-12.8-0.2-19.3-0.2L291,573l-123.1-4.5c0,0-0.1,0-0.1,0
			c-25-2.1-44.6-6.2-61.9-13c-9.7-3.7-19.3-8.4-28.6-14.1c-9-5.8-17.4-12.6-25-20.1c-15.6-15-27.5-32.9-35.5-53.2
			c-7.4-17.9-12.1-38.2-14.3-62c-1-13.5-1.5-27-2-40.1c-0.3-7.1-0.6-14.4-0.9-21.6L-3,282.4c0,0,0-0.1,0-0.1c0-7.7,0-15.4,0-23.1
			c0-12.6,0-25.7,0.2-38.6c0.1-5.4,0.1-10.8,0.2-16.2c0.1-14.9,0.2-30.3,1.1-45.8c0.8-11,2.3-21.8,4.4-32.1
			c2.4-11.1,5.7-21.7,9.7-31.5c4.1-10.3,9.3-20.2,15.5-29.3c6.4-9.3,13.8-17.6,21.8-24.9C65.4,26,84.6,14.5,105.5,7.6
			c18.3-6.2,38.7-9.6,62.4-10.4c11.9-0.1,23.8,0,35.3,0.1c8.6,0.1,17.5,0.1,26.3,0.1L290.9-3c0,0,0,0,0,0l61.4,0.3
			c6.8,0,13.6-0.1,20.4-0.1C386.2-3,400.1-3.1,413.9-3c23.8,0.8,44.2,4.2,62.6,10.5c31.1,10.5,58.7,31.1,77.7,58
			c6.2,9.1,11.5,18.9,15.7,29.4c4,9.8,7.3,20.4,9.8,31.5c2.2,10.6,3.8,21.4,4.6,32.1c0.9,14.4,1.2,28.8,1.5,42.6
			c0.1,6.4,0.3,12.9,0.4,19.4l1.4,61.7c0,0,0,0.1,0,0.1l-0.9,61.7c-0.2,6.9-0.3,13.8-0.3,20.6c-0.2,13.5-0.4,27.4-1.2,41.5
			c-1.7,24-6.3,45.6-13.7,64.2c-4.1,10.6-9.3,20.7-15.3,30c-6.1,9.2-13.3,17.9-21.5,26c-15.8,15.8-35.3,28.1-56.4,35.6
			c-19.2,7.1-40.7,11.1-63.9,12C408.5,574,402.5,574.1,396.5,574.1z M168.2,562.5l122.9,4.5l61.5,0.7c6.4,0,13,0.1,19.3,0.2
			c13.8,0.2,28.1,0.4,42.4,0c22.5-0.9,43.4-4.8,62-11.6c20.3-7.2,39.1-19.1,54.2-34.2c7.9-7.8,14.9-16.2,20.7-25
			c5.8-9,10.7-18.7,14.7-28.9c7.2-18.1,11.6-39.1,13.3-62.4c0.8-13.9,1-27.8,1.1-41.2c0.1-6.7,0.2-13.7,0.3-20.6l0.9-61.6l-1.4-61.6
			c-0.2-6.5-0.3-13.1-0.4-19.5c-0.3-13.8-0.6-28.1-1.4-42.3c-0.8-10.4-2.3-21-4.4-31.3c-2.4-10.7-5.6-20.9-9.5-30.5
			c-4.1-10.1-9.1-19.6-15.1-28.2c-18.2-25.8-44.8-45.7-74.7-55.8c-17.9-6-37.8-9.4-60.8-10.1c-2,0-3.9,0-5.9,0c2,0.1,4,0.2,6,0.3
			c45.4,3.8,83.7,21,108,48.4c13.4,14.3,23.5,31.3,29.8,50.2c5.8,16.7,9.1,35.7,10.3,58c0,0,0,0.1,0,0.1l0.8,122l-1.8,122.1
			c0,0,0,0.1,0,0.1c-2.2,44.9-16.6,81.6-41.6,106.2c-24.1,25.5-60.7,40.8-105.9,44.4c0,0-0.1,0-0.1,0l-122.2,5.1c0,0-0.1,0-0.1,0
			l-61.3,0.5c-5.1,0-10.2,0.1-15.3,0.1c-15.1,0.1-30.7,0.3-46-0.2c-22.2-1.1-42.3-5-60-11.7c-38.9-14.4-69-45.1-82.7-84.3
			c-6.1-17.4-9.5-36.9-10.3-59.6c0,0,0-0.1,0-0.1c0-22.6,0.3-45.6,0.6-68c0.2-17.8,0.5-36.3,0.6-54.4c1.1-33.1,1.7-66.8,2.2-99.3
			c0.1-7.6,0.2-15.3,0.4-22.8c0,0,0-0.1,0-0.1c1.2-22.1,4.7-41.1,10.7-58.1c6.8-19.4,16.9-36.4,30.2-50.4
			c24.3-27.2,62.6-44.4,108-48.2c0.7,0,1.3-0.1,2-0.1c-0.7,0-1.4,0-2.1,0c-23,0.8-42.9,4.1-60.6,10.1c-20,6.6-38.5,17.6-53.5,31.9
			c-7.7,7-14.7,15.1-20.9,23.9C27,77.9,22,87.4,18.1,97.4c-3.9,9.6-7,19.6-9.4,30.4c-2,10-3.4,20.5-4.2,31.3
			c-0.9,15.3-1,30.6-1.1,45.4c0,5.4-0.1,10.8-0.2,16.2C3,233.5,3,246.6,3,259.2c0,7.7,0,15.4,0,23L5.6,344
			c0.4,7.2,0.6,14.6,0.9,21.7c0.5,13,1,26.5,2,39.8c2.1,23.2,6.7,42.9,13.9,60.3c7.7,19.6,19.1,36.8,34.1,51.2
			c7.4,7.3,15.5,13.8,24.1,19.3c8.9,5.5,18.1,10.1,27.5,13.6C124.8,556.5,143.9,560.5,168.2,562.5z M21.5,404.5
			c0.8,22,4,40.9,9.9,57.8c13.1,37.5,41.9,66.9,79.1,80.7c17.1,6.4,36.6,10.3,58.1,11.3c15.1,0.5,30.7,0.4,45.7,0.2
			c5.1,0,10.2-0.1,15.3-0.1l61.2-0.5l122.1-5.1c55.1-4.4,85.9-25.6,102-42.6c0,0,0.1-0.1,0.1-0.1c23.9-23.5,37.7-58.8,39.8-102.2
			l1.8-121.9l-0.8-121.9c-1.1-21.7-4.4-40.1-9.9-56.3c-6.1-18.2-15.7-34.4-28.6-48.1c-23.3-26.3-60.2-42.8-104-46.5
			c-36.2-2-73.1-2.8-108.9-3.6l-13.7-0.3l-11.7,0.2c-36.4,0.7-74,1.4-110.6,3.7c-43.8,3.7-80.7,20.1-104,46.3
			C51.9,69,42.1,85.3,35.6,103.9c-5.8,16.5-9.1,34.9-10.3,56.4c-0.1,7.6-0.3,15.2-0.4,22.8c-0.5,32.6-1.1,66.2-2.2,99.3
			c-0.1,18-0.3,36.5-0.6,54.3C21.8,359,21.5,382,21.5,404.5z"/>
	</g>
	<g>
		<path d="M290.9,426.7c18.9-0.4,37.8-3.9,55-11.4c17.4-7.3,32.9-18.6,45.8-32c6.4-6.8,12.1-14.2,17-22.1
			c4.8-7.9,8.9-16.2,12.2-24.9c19.2-52.2,5.4-110.8-35.1-148.9c-12.7-12.1-27.7-21.6-44-28c-16.2-6.5-33.5-9.8-50.9-9.7
			c-34.8-0.3-69.3,13.5-94.9,37.7c-55.7,52.2-58.6,139.6-6.4,195.4c13,13.9,28.8,25,46.3,32.5C253.3,422.6,272,426.5,290.9,426.7z
			 M290.9,426.7c-37.9,0.3-75.5-14.8-103.3-41.1c-60.3-56.8-63.2-151.7-6.4-212c14.1-15,31.2-26.9,50.1-35
			c38-16.4,81.1-16.4,119.2,0c57.1,24.5,93.2,81.7,90.6,143.8c-1.6,39.2-18.5,76.2-47,103.2C366.4,411.9,328.8,426.9,290.9,426.7z"
			/>
		<path d="M289.8,429.7c-38.1,0-76.1-15.2-104.3-41.9c-29.7-28-46.8-65.9-48-106.8c-1.2-40.8,13.5-79.7,41.5-109.5
			c14.4-15.3,31.6-27.3,51.1-35.7c38.6-16.6,82.9-16.6,121.6,0c28.6,12.3,52.5,32.7,69,59c16.6,26.3,24.7,56.7,23.4,87.7
			c-1.6,40.1-18.7,77.5-47.9,105.3c-28.1,26.7-66.1,41.9-104.5,41.9c-0.2,0-0.5,0-0.7,0C290.5,429.7,290.2,429.7,289.8,429.7z
			 M289.8,152.7c-33.6,0-66.9,13.4-91.8,36.9c-54.4,51-57.2,136.7-6.3,191.2c12.6,13.5,28.3,24.5,45.3,31.8
			c17.2,7.2,35.3,11,53.8,11.2c19.7-0.4,37.8-4.2,53.8-11.2c16.1-6.8,31.6-17.6,44.8-31.3c6.2-6.6,11.8-13.9,16.6-21.6
			c4.8-7.8,8.8-16,11.9-24.4c18.8-51.1,5.3-108.3-34.4-145.7c-12.4-11.8-26.9-21.1-43-27.4c-16-6.4-32.7-9.6-49.8-9.5
			C290.6,152.7,290.2,152.7,289.8,152.7z M290.9,129.4c-19.9,0-39.8,4-58.4,12c-18.7,8-35.3,19.6-49.1,34.3
			c-26.9,28.6-41.1,65.9-39.9,105.2c0.8,26.2,8.3,51.1,21.8,72.8c-28.5-54.8-18.5-124.1,28.7-168.4c25.9-24.5,60.8-38.5,95.8-38.5
			c0.4,0,0.8,0,1.1,0c17.8-0.1,35.3,3.2,52,9.9c16.8,6.6,32,16.2,45,28.6c41.4,39,55.5,98.7,35.8,152.1c-2,5.2-4.3,10.3-6.8,15.4
			c12.8-21.1,20.2-45.2,21.2-70.4c1.2-29.9-6.5-59-22.5-84.3c-15.9-25.3-38.9-44.9-66.3-56.6C330.7,133.4,310.8,129.4,290.9,129.4z"
			/>
	</g>
	<g>
		<path d="M290.9,188.6c55-0.1,99.7,44.4,99.8,99.4c0.1,25.1-9.4,49.3-26.4,67.8c-9.4,10-20.7,18.1-33.2,23.6
			c-39,17.1-84.7,7.7-113.6-23.6c-37.2-40.6-34.5-103.7,6-140.9C241.9,198,266,188.6,290.9,188.6z M290.9,188.6
			c-24.8,0-48.4,10.4-65.1,28.6c-32.7,36-30.1,91.6,5.9,124.3s91.6,30.1,124.3-5.9c30.5-33.6,30.5-84.8,0-118.4
			C339.3,199,315.7,188.6,290.9,188.6L290.9,188.6z"/>
		<path d="M290.9,390.8c-28.1,0-55.7-11.5-75.6-33c-38.3-41.8-35.5-106.9,6.2-145.1c19-17.5,43.7-27.1,69.4-27.1l0,0
			c0.1,0,0.1,0,0.2,0c56.5,0,102.5,45.9,102.6,102.4c0.1,25.8-9.6,50.6-27.2,69.8c-9.7,10.3-21.5,18.7-34.2,24.3
			C318.9,388,304.8,390.8,290.9,390.8z M208.5,237.7c-22,35.9-18.7,83.5,11.2,116.1c28,30.3,72.3,39.5,110.2,22.9
			c11.9-5.2,23.1-13.2,32.2-22.9c16.6-18.1,25.7-41.4,25.6-65.7c0-18.9-5.5-36.6-15-51.5c6,12.3,9.2,25.9,9.2,39.9
			c0,22.7-8.4,44.4-23.7,61.2c-33.7,37.1-91.4,39.9-128.5,6.1C199.5,316.3,192,272.9,208.5,237.7z M290.9,191.6
			c-23.9,0-46.8,10.1-62.9,27.6c-31.5,34.7-29,88.6,5.7,120.1c16.3,14.8,36.8,22.1,57.2,22.1c23.1,0,46.2-9.4,62.9-27.8
			c29.6-32.6,29.6-81.8,0-114.4C337.7,201.7,314.8,191.6,290.9,191.6z"/>
	</g>
	<g>
		<path d="M465.3,156.5c-5.4,6-12.8,9.9-20.8,11.1c-8.3,1.1-16.7-0.6-23.9-4.9c-7.3-4.6-12.8-11.5-15.6-19.6
			c-2.8-8.3-2.6-17.4,0.4-25.6c3.2-8.4,9.1-15.5,16.9-20.2c8-4.6,17.4-6.1,26.4-4c8.8,2.1,16.4,7.4,21.5,14.9c4.8,7,6.6,15.7,5,24
			H474c-1.5-7.1-5.1-13.6-10.2-18.7c-4.8-4.6-10.9-7.6-17.4-8.5c-6.3-0.9-12.8,0.1-18.6,2.7c-6,2.8-10.8,7.5-13.7,13.5
			c-2.8,6.2-3.5,13.2-1.8,19.8c1.8,6.8,5.9,12.8,11.5,16.9c5.8,4.3,13,6.5,20.2,6.2c7.5-0.4,14.7-3.4,20.3-8.3L465.3,156.5z"/>
		<path d="M439.6,170.9c-7.2,0-14.4-1.9-20.6-5.6c-7.9-5-13.9-12.5-16.9-21.2c-3-8.9-2.8-18.7,0.4-27.6c3.4-9,9.9-16.8,18.2-21.7
			c8.8-5.1,19-6.6,28.6-4.4c9.5,2.3,17.8,8,23.3,16.1c5.2,7.6,7.2,17.2,5.5,26.3c-0.3,1.4-1.5,2.4-2.9,2.4H474c-1.4,0-2.6-1-2.9-2.4
			c-1.4-6.5-4.6-12.4-9.4-17.2c-4.3-4.1-9.9-6.8-15.7-7.6c-5.7-0.8-11.6,0-17,2.5c-5.4,2.5-9.6,6.7-12.2,12.1
			c-2.5,5.6-3.1,11.9-1.6,17.7c1.6,6.1,5.3,11.5,10.4,15.2c5.3,3.9,11.8,5.9,18.3,5.6c6.7-0.4,13.3-3,18.4-7.6c1-0.9,2.6-1,3.7-0.2
			l1,0.7c0.7,0.5,1.2,1.3,1.3,2.1c0.1,0.9-0.2,1.7-0.8,2.3c-5.8,6.5-13.8,10.7-22.6,12.1C443.2,170.8,441.4,170.9,439.6,170.9z
			 M440.6,95.4c-5.8,0-11.6,1.5-16.8,4.5c-7.2,4.3-12.6,10.8-15.6,18.7c-2.8,7.6-2.9,16-0.4,23.6c2.2,6.4,6.3,12,11.7,16.2
			c-4.9-4.4-8.4-10.1-10.1-16.5c-1.8-7.2-1.1-14.9,2-21.8c3.2-6.7,8.5-11.9,15.2-15c6.5-2.9,13.5-3.9,20.3-3c7,1,13.8,4.3,19.1,9.3
			c2.3,2.3,4.3,4.8,5.9,7.4c-0.8-3.2-2.2-6.2-4.1-8.9C463,103,456,98.1,448,96.2C445.6,95.6,443.1,95.4,440.6,95.4z"/>
	</g>
</g>
</svg>
