<svg id="Layer_1" data-name="Layer 1" xmlns="http://www.w3.org/2000/svg" viewBox="0 0 753.27 726"><title>landscaping</title><path d="M729.37,307.78c-4.88-16.88-11.91-32.6-19.79-48A315.26,315.26,0,0,0,682,215.87c-10.51-13.53-21.43-27.64-36.91-34.86a48.41,48.41,0,0,0-24.25-5,46,46,0,0,0-23.17,8l-.07.05-.19.12a43.67,43.67,0,0,0-14.48,15.85,45.4,45.4,0,0,0-5.24,20.91,61.11,61.11,0,0,0,3.81,21.6l1.9,5.23c.75,1.68,1.63,3.31,2.43,5a67.56,67.56,0,0,0,5.65,9.5c8.39,12.23,20.3,21.77,32.92,29.7a171.1,171.1,0,0,0,41,17.89l1.61.45.58,1.32a7.48,7.48,0,0,1,.5,5.09,7.62,7.62,0,0,1-2.72,4.07,14.49,14.49,0,0,1-6.69,2.65c-4.45.58-7.87.32-11.66.4-7.39,0-14.7,0-22,.28-14.55.64-29.2,1.88-42.82,5.93-6.79,2-13.37,4.7-18.5,8.86l-2,1.5c-.58.56-1,1.2-1.59,1.79a23.87,23.87,0,0,0-3,3.83,63.86,63.86,0,0,0-5,9.1c-5.58,12.45-6.28,27.56-1.85,39.84l-.27-.55c7,10.47,17.46,19.94,29.31,24.31a45.81,45.81,0,0,0,18.52,2.95,62.39,62.39,0,0,0,18.76-4.46c12.87-4.77,25.53-10.16,38-16s24.8-12.1,36.59-18.83l3.66-2.08,2.65,2.91a10.93,10.93,0,0,1,2.68,4.83,11.24,11.24,0,0,1,.09,5.25,15.26,15.26,0,0,1-4.31,7.28c-2.4,2.5-4.81,5.25-7.06,8.06a161.9,161.9,0,0,0-12.43,17.79c-7.27,12.45-13.1,25.83-15.54,39.79-2.51,13.77-2.16,28.51,2.29,41.29,4.71,12.52,13.92,23.5,26.29,28a37.82,37.82,0,0,0,19,2.74c6.28-.74,12.56-2.68,17.45-6.66a35.69,35.69,0,0,0,11.65-14.76c2.82-5.84,4.74-13.29,6.6-20.12a288.3,288.3,0,0,0,6.74-43.27,388.2,388.2,0,0,0,1.41-44l-.16-5.49,4.88-1.37a8.91,8.91,0,0,1,3.12-.43,10.82,10.82,0,0,1,2.26.3A11.74,11.74,0,0,1,766,404a14.68,14.68,0,0,1,4.06,4.26c1.76,2.59,2.65,5.93,3.1,6.85,1.4,3.31,3.39,7,5.28,10.54,3.93,7.11,8.23,14.07,12.83,20.78,9.19,13.2,19.62,26.43,32.22,34.18,5.87,3.59,13.65,5.2,21.34,5.87a76,76,0,0,0,23.1-1.57c7.43-1.73,14.46-4.85,19.51-9.7a25.69,25.69,0,0,0,7.89-18.68c.22-7.28-1.76-14.94-4.72-22.28A121.75,121.75,0,0,0,879.25,413a147.66,147.66,0,0,0-32.62-36A173.06,173.06,0,0,0,804,352.57a189.9,189.9,0,0,0-47.74-12.71l-.81-.1-.42-.51Zm1.19-.62,27.19,29.77-1.23-.61c33.77,2.9,67,14.19,94.76,34.54a156.71,156.71,0,0,1,35.77,36.9,130.8,130.8,0,0,1,13,22.55c3.5,8.06,6.08,16.9,6,26.41A36.79,36.79,0,0,1,895.3,483.2c-7,6.93-15.82,10.82-24.58,13.07A88,88,0,0,1,844,498.62c-8.88-.65-18.09-2.13-26.74-7-8.23-4.71-14.8-10.82-20.82-17.19a177.75,177.75,0,0,1-16.25-20.3q-7.36-10.61-13.67-21.86c-2.09-3.85-4.11-7.5-6-11.88l-1.18-3a8.12,8.12,0,0,0-.78-1.57c-.23-.4-.42-.47-.19-.31a2.25,2.25,0,0,0,.76.32,3.37,3.37,0,0,0,.71.1,4.22,4.22,0,0,0,1.57-.27l4.71-6.86c.87,30.72-1.21,61.1-8.65,91.23-2.16,7.58-3.94,14.77-7.62,22.45-3.25,7.83-9.14,14.7-16.06,19.87-7,5.35-15.6,8-24.07,8.85a50.57,50.57,0,0,1-25-3.9c-16-6.18-27.51-20.45-33-35.84-5.18-15.71-5.13-31.93-2.16-47.49s9.53-30,17.52-43.29a177,177,0,0,1,13.52-18.87c2.47-3,5-5.88,7.84-8.74,2.22-2.24,1.36-2.57,1.64-2.54l6.3.84c-12.39,6.89-24.86,13-37.62,18.87s-25.69,11.16-38.9,15.9a72.36,72.36,0,0,1-21.62,4.81A55,55,0,0,1,576,427.12c-14.17-5.6-25.22-15.84-33.47-28.35l-.19-.28-.09-.27a62.91,62.91,0,0,1,2.33-46.55,72.26,72.26,0,0,1,5.75-10.24,32.38,32.38,0,0,1,3.87-4.79c.71-.76,1.38-1.59,2.13-2.29l2.44-1.85c6.46-5.07,13.88-7.95,21.24-10,14.8-4.22,29.86-5.27,44.77-5.78,7.45-.18,14.91-.15,22.28,0a97.79,97.79,0,0,0,10.46-.18,8.22,8.22,0,0,0,3.57-1.2c.54-.4.33-.47.4-.72l2.19,1.78a175.21,175.21,0,0,1-42.57-19.22c-13-8.45-25.43-18.62-34.23-31.81A73.56,73.56,0,0,1,581,255.05c-.83-1.79-1.74-3.55-2.52-5.37l-1.94-5.57a66.17,66.17,0,0,1-3.75-23.37,48.66,48.66,0,0,1,22.54-40.38l-.25.17a49.82,49.82,0,0,1,25.55-8.47,52.16,52.16,0,0,1,26,5.77c4.09,1.87,7.64,4.56,11.3,7.08,3.26,3,6.9,5.59,9.73,9a124,124,0,0,1,8.62,9.93c2.78,3.36,5.38,6.86,8,10.38a317.17,317.17,0,0,1,27.18,44.59C719.1,274.34,726.08,290.59,730.56,307.16Z" transform="translate(-152.8 -172)" style="fill:#1d1d1b"/><path d="M783.15,218.56q-30,63.29-60.5,126.31l-4.3-3.17L743,317.23q12.31-12.21,25-24c8.6-7.74,17.06-15.63,25.76-23.26s17.42-15.25,26.44-22.56l.46.49C813,256.57,805,265,797,273.33s-16.23,16.49-24.34,24.74-16.58,16.14-25.06,24L722.1,345.61l-11.35,10.48,7-13.65q32.13-62.2,64.74-124.18Z" transform="translate(-152.8 -172)" style="fill:#1d1d1b"/><path d="M852.56,292.47q-34.21,16.3-68.65,32.09c-11.45,5.32-22.75,11-34.52,15.58a349.9,349.9,0,0,1-36,12.17l-.27-.62A350,350,0,0,1,746.72,334c11.42-5.4,23.32-9.69,35.06-14.34q35.15-14.14,70.51-27.76Z" transform="translate(-152.8 -172)" style="fill:#1d1d1b"/><circle cx="553.51" cy="152.76" r="7.77" style="fill:#1d1d1b"/><circle cx="549.68" cy="175.72" r="7.77" style="fill:#1d1d1b"/><circle cx="567.08" cy="191.02" r="7.77" style="fill:#1d1d1b"/><circle cx="589.73" cy="186.88" r="7.77" style="fill:#1d1d1b"/><path d="M327.61,522.84c-12.74,7.85-25.33,14.72-38.33,21.52s-26.16,13-39.65,18.62-27.33,10.53-41.74,13.47a77.38,77.38,0,0,1-22,1.69c-7.33-.62-15.2-3.67-19.58-10.28l0-.06v0a25.79,25.79,0,0,1,1.32-23.34c4-7.06,10.46-12,17.14-16.09a112.55,112.55,0,0,1,21.61-8.84c7.42-2.35,15-3.78,22.62-5.36l-.34.1s0-.19-.18.4c0,.51.14.46-.07.32a7.15,7.15,0,0,0-1.76-1,33.2,33.2,0,0,0-4.61-1.52c-3.19-.89-6.5-1.55-9.81-2.19-6.61-1.27-13.36-2.08-20.12-3.46a99.38,99.38,0,0,1-19.88-5.91c-6.32-2.78-12.83-6.73-16.51-13.36a23.2,23.2,0,0,1-2.82-10.63,14.7,14.7,0,0,1,3.89-10.71c5.39-5.57,12.57-7.6,19.35-9,13.88-2.78,27.8-.39,41.06-.46,1.66,0,3.28-.08,4.85-.22a8.7,8.7,0,0,0,3.52-1c.06-.08.42.51-.91-1-1.08-1.06-2.39-2.12-3.68-3.16-5.27-4.16-10.79-8.27-16-12.75a95.6,95.6,0,0,1-14.57-15c-4.15-5.58-7.94-12.65-6.93-20.61a18.77,18.77,0,0,1,5-10.53,18.08,18.08,0,0,1,10.57-4.89c7.54-.89,14.56.88,21.19,3,13.27,4.48,25.39,11,37.11,18.39l-2.16-.41a7,7,0,0,0,2.51-1.23c.62-.56.79-.88.78-1.4.08-1.24-1.47-3.17-3.24-5.71-3.18-4.76-6-9.62-8.69-14.61-5.28-10-10-20.36-12.72-31.66-1.27-5.65-2.13-11.61-1-17.86,1-6.24,5.49-12.65,11.81-15,6.42-2.68,13.67-1,18.85,2a59.21,59.21,0,0,1,13.72,11.12c7.92,8.39,14.34,17.77,20.33,27.27,1.47,2.32,3,4.89,4.36,6.89.5.85,3.56,2.54,4.48,2.41.5-.16-.37.37-.05,0a7.44,7.44,0,0,0,.1-2.65c-.29-2.18-1-5.26-1.5-8a170.94,170.94,0,0,1-3.18-33.91,71.94,71.94,0,0,1,2.53-17.4c1.81-5.67,5.37-11.8,11.52-14.83a22.16,22.16,0,0,1,18.88.05c5.8,2.78,9.85,7.38,13.48,12,6.77,9.56,11.08,20.23,14.41,31a161.57,161.57,0,0,1,6.39,33.26c.87,11.44.2,22.43.24,33.61-.14,11.14-.26,22.28-.71,33.46-.14,2.8-.25,5.58-.57,8.45a13.23,13.23,0,0,1-.45,2.44c-.14,1-1.7,2.09-2.06,2.29l-3.61,2.24a91.89,91.89,0,0,0-13.14,9.76,63.61,63.61,0,0,0-17.65,27.21C327.41,500.39,326.74,511.52,327.61,522.84Zm-.61-.29a82.74,82.74,0,0,1,2.12-33.18c3-10.92,9.32-20.8,17.36-28.81a84.69,84.69,0,0,1,13.39-10.44l3.45-2.22c.7-.59.61-.23.75-.62a16.35,16.35,0,0,0,.24-1.67c.25-2.67.31-5.46.41-8.22.25-11.08.18-22.22.13-33.34-.23-11.08.23-22.41-.79-33.17a157.23,157.23,0,0,0-6.75-32.11c-3.38-10.37-7.76-20.54-14.05-29.07-3.29-4-6.95-7.9-11.36-9.89a15.8,15.8,0,0,0-13.3.11c-4,2-6.51,6.25-8,11.07a65.6,65.6,0,0,0-2.24,15.57,164,164,0,0,0,3.06,32.49c.48,2.8,1.1,5.13,1.56,8.46a13.1,13.1,0,0,1-.44,5.62,6.35,6.35,0,0,1-6.36,4.44,12.36,12.36,0,0,1-5.51-1.63,12.81,12.81,0,0,1-4.36-3.59c-1.75-2.61-3-4.84-4.57-7.22-5.86-9.33-12.11-18.41-19.5-26.23A52.64,52.64,0,0,0,260.11,329c-4.38-2.46-9.1-3.42-13.18-1.78-4.28,1.65-7.05,5.36-8,10.1s-.31,10.08.83,15.25c2.4,10.41,6.84,20.55,11.88,30.26,2.54,4.85,5.28,9.64,8.25,14.17,1.15,2.07,3.95,4.41,4.14,9a7.47,7.47,0,0,1-2.9,5.77,12.12,12.12,0,0,1-4.95,2.36l-1.09.28-1.07-.69c-11.17-7.19-23.15-13.77-35.64-18.06-6.22-2.08-12.79-3.62-18.83-2.92A13.09,13.09,0,0,0,192,396.1a13.94,13.94,0,0,0-3.59,7.63c-.83,5.79,2,11.85,5.88,17A90.67,90.67,0,0,0,208,435c5.07,4.41,10.44,8.46,15.81,12.77,1.34,1.11,2.67,2.18,4,3.52a7.88,7.88,0,0,1,2.08,2.95,4.26,4.26,0,0,1-1.36,4.62c-2.32,1.76-4.21,1.74-6,2.06a50.88,50.88,0,0,1-5.33.22c-13.86-.07-27.29-2.45-40.31.1-6.36,1.22-13,3.29-17.16,7.63a10.64,10.64,0,0,0-2.91,7.9,19.31,19.31,0,0,0,2.27,8.9c2.94,5.47,8.66,9.17,14.63,11.82a95.75,95.75,0,0,0,19.1,5.81c6.54,1.4,13.31,2.25,20,3.6,3.37.67,6.72,1.37,10.07,2.33a38.07,38.07,0,0,1,5,1.73,10.23,10.23,0,0,1,2.63,1.57,2.93,2.93,0,0,1,1.09,2.46,2.83,2.83,0,0,1-1.8,2.22l-.1,0-.25.05c-7.49,1.49-15,2.82-22.31,5.06a109.67,109.67,0,0,0-21.1,8.38c-6.45,3.81-12.58,8.51-16.27,14.91a23.43,23.43,0,0,0-1.48,21l-.05-.09c3.79,5.82,10.78,8.73,17.81,9.41a75.78,75.78,0,0,0,21.46-1.45c14.22-2.77,28-7.6,41.53-13s26.71-11.63,39.72-18.19S314.73,529.7,327,522.55Z" transform="translate(-152.8 -172)" style="fill:#1d1d1b"/><path d="M362.85,451.5c4.17-2.43,9.22,3.23,13.39,6.21a39.45,39.45,0,0,1-45.94,64.14S315.59,479.11,362.85,451.5Z" transform="translate(-152.8 -172)" style="fill:#1d1d1b"/><path d="M362.68,451.21c3-1.65,6.13.37,8.34,2,2.36,1.78,4.5,3.65,6.91,5.34a41.84,41.84,0,0,1,11.55,13.28,40.24,40.24,0,0,1,1.51,35,42.15,42.15,0,0,1-26.81,23.55,43,43,0,0,1-35.83-5.79l-.9-.63-.31-1A55.08,55.08,0,0,1,325,500.8a52.17,52.17,0,0,1,6.45-21,63.53,63.53,0,0,1,13.89-16.54c2.56-2.49,5.71-4.25,8.43-6.47Zm.34.58c-2.83,2-5.8,3.86-8.49,6-2.51,2.41-5.29,4.5-7.38,7.26a60.36,60.36,0,0,0-10.7,17.14,62.62,62.62,0,0,0-4.63,19.15,59.1,59.1,0,0,0,1.63,19.37l-1.21-1.63a36.62,36.62,0,0,0,30.6,6.25,37.62,37.62,0,0,0,24.62-20.18,39.46,39.46,0,0,0,.25-32.51,37.48,37.48,0,0,0-10.29-13.52c-2.2-1.84-4.54-3.68-6.8-5.43S365.51,450.37,363,451.79Z" transform="translate(-152.8 -172)" style="fill:#1d1d1b"/><path d="M651.33,898a6.75,6.75,0,0,1-6.67-5.8C612.1,661.58,382.21,516.43,379.9,515A6.75,6.75,0,0,1,387,503.52c2.37,1.47,237.55,149.83,271,386.79a6.74,6.74,0,0,1-5.74,7.62A6.08,6.08,0,0,1,651.33,898Z" transform="translate(-152.8 -172)" style="fill:#1d1d1b"/><path d="M610.86,446.43a268.11,268.11,0,0,1,31.44,71.31c7,25.19,10.19,51.64,8.52,77.82a64.21,64.21,0,0,1-.8,9.79l-1.22,9.75-1.23,9.73c-.5,3.23-1.36,6.4-2,9.59l-4.26,19.11-5.78,18.68-2.87,9.33c-1.11,3.06-2.49,6-3.63,9.06l-7.19,18.16c-5.3,11.88-11.41,23.4-17.07,35.16l-1.14,2.37-1.84-2.11-.62-.71-.06-.06,0-.06c-14.75-21.93-24.75-46.47-31.22-71.92s-9.73-51.83-8.18-78.1c-.06-6.58,1.16-13.08,1.67-19.62l1-9.8c.41-3.25,1.31-6.43,1.94-9.65l4.19-19.21,6.14-18.66,3.12-9.28c1.19-3,2.62-6,3.9-9l7.89-17.89c5.68-11.69,12.14-23,18.15-34.5l.24-.46.33.41Zm-.53.41-.61-.7.57-.05-8.73,17.38c-2.74,5.86-6.2,11.4-8.27,17.56l-6.7,18.21c-1.09,3-2.28,6-3.25,9.12l-2.43,9.37L576,536.4l-3.32,19c-.52,3.16-1.17,6.31-1.6,9.48l-.93,9.58c-.46,6.39-1.62,12.74-1.5,19.15l-.15,19.23L569.78,632a275.07,275.07,0,0,0,6.2,37.91c5.9,24.89,14.91,49.42,28.09,71.31l-.1-.12.6.73-3,.26,9.26-17c3-5.73,6.48-11.23,8.82-17.27l7.4-17.93c1.23-3,2.48-6,3.53-9l2.67-9.32,5.3-18.65,3.26-19.1c.49-3.18,1.18-6.33,1.52-9.54l.73-9.63c.35-6.43,1.31-12.81,1.15-19.25l.06-19.26c-.41-6.41-1-12.8-1.32-19.22a335.14,335.14,0,0,0-5.77-38.11C632.86,493.63,624.35,468.64,610.33,446.84Z" transform="translate(-152.8 -172)" style="fill:#1d1d1b"/><path d="M602.22,742.28q.16-76.75,1.2-153.48c.3-25.58.23-51.18,1.46-76.74.76-12.77,1.33-25.55,2.33-38.33s1.76-25.46,4.33-38.35l.59.33c-.42,6.1-.25,12.69-.23,19v19.18l-.29,38.35c-.34,25.57-1.78,51.11-2.81,76.67L602.9,742.29Z" transform="translate(-152.8 -172)" style="fill:#1d1d1b"/><path d="M604.5,598.48a152.25,152.25,0,0,1-22.91-16.73c-3.51-3.21-7.41-6.3-9.89-10.66-2.34-4.2-4.51-9.82-2.41-14.85l.67.06c1.74,4.48,4.52,7.49,7.29,11,2.92,3.27,5.22,7.21,8.2,10.72a262.9,262.9,0,0,0,19.45,20Z" transform="translate(-152.8 -172)" style="fill:#1d1d1b"/><path d="M608.17,530.37a131.81,131.81,0,0,1-14.69-10c-2.33-1.83-5.06-3.38-6.72-6a18.62,18.62,0,0,1-2.13-4.31c-.4-1.61-1.09-3.55.17-5.44l.64.21c1.85,2,4.33,3.2,6.41,5.12,2.18,1.73,3.51,4.37,5.39,6.57l11.36,13.34Z" transform="translate(-152.8 -172)" style="fill:#1d1d1b"/><path d="M485.62,280.48a268.4,268.4,0,0,1,31.43,71.31,236.8,236.8,0,0,1,8.52,77.82,61.77,61.77,0,0,1-.8,9.79l-1.22,9.75-1.22,9.73c-.5,3.23-1.36,6.4-2,9.59l-4.26,19.11-5.78,18.68-2.88,9.33c-1.11,3.06-2.49,6-3.63,9.06l-7.18,18.16c-5.31,11.88-11.41,23.4-17.07,35.16l-1.14,2.37-1.85-2.11-.62-.71,0-.06-.05-.07c-14.75-21.92-24.75-46.46-31.22-71.91s-9.73-51.83-8.17-78.1c-.07-6.58,1.15-13.08,1.67-19.62l1-9.8c.41-3.25,1.31-6.43,1.95-9.65l4.19-19.21,6.14-18.66,3.11-9.28c1.19-3,2.62-6,3.9-9l7.9-17.89c5.68-11.69,12.13-23,18.15-34.5l.24-.46.33.41Zm-.54.41-.61-.7.57-.05-8.72,17.38c-2.74,5.86-6.2,11.4-8.28,17.56l-6.69,18.21c-1.09,3-2.29,6-3.26,9.12l-2.43,9.37-4.94,18.67-3.33,19c-.52,3.16-1.16,6.31-1.59,9.48l-.94,9.58c-.45,6.38-1.61,12.74-1.5,19.15l-.15,19.23,1.32,19.17A275.09,275.09,0,0,0,450.74,504c5.9,24.89,14.9,49.42,28.08,71.31l-.09-.12.59.73-3,.26,9.26-17c3-5.73,6.48-11.23,8.82-17.27l7.4-17.93c1.23-3,2.48-6,3.53-9l2.67-9.32,5.3-18.65,3.26-19.1c.5-3.18,1.18-6.33,1.52-9.54l.74-9.63c.34-6.43,1.3-12.81,1.14-19.25l.07-19.26c-.41-6.41-1-12.8-1.33-19.22A330.72,330.72,0,0,0,513,352.8C507.62,327.68,499.1,302.69,485.08,280.89Z" transform="translate(-152.8 -172)" style="fill:#1d1d1b"/><path d="M477,576.33c-1-12.82-1.32-25.61-2-38.42l-.74-38.4c-.32-25.59.35-51.16.55-76.75,1.14-25.56,1.74-51.14,3.47-76.69,2-25.58,3.15-51,8-76.64l.59.33c-1.41,12.42-1.6,25.42-2.15,38.13l-1.22,38.34-2,76.7-3.9,153.41Z" transform="translate(-152.8 -172)" style="fill:#1d1d1b"/><path d="M477.53,503.49A44.11,44.11,0,0,1,463.06,497a64.34,64.34,0,0,1-11.84-10.1,51.09,51.09,0,0,1-8.75-13.37c-2.14-4.86-3.67-11.1-1.35-16.48h.67c.15,4.94,2.49,9.54,5.17,13.66a89.52,89.52,0,0,0,9.26,11.67A188.65,188.65,0,0,0,477.94,503Z" transform="translate(-152.8 -172)" style="fill:#1d1d1b"/><path d="M479.25,432.53a40.19,40.19,0,0,1-13.86-5.42,59.12,59.12,0,0,1-11.45-8.95A48.65,48.65,0,0,1,445.28,406c-2.09-4.5-3.87-10.62-1.24-15.66l.68.06c-.12,4.59,2.35,8.83,4.92,12.59a91.87,91.87,0,0,0,9.12,10.5A193.76,193.76,0,0,0,479.65,432Z" transform="translate(-152.8 -172)" style="fill:#1d1d1b"/><path d="M482.92,364.42a21.8,21.8,0,0,1-9.6-2.39,29.27,29.27,0,0,1-7.43-5.17,27.93,27.93,0,0,1-5.45-7.52,20.68,20.68,0,0,1-1.69-4.81c-.14-1.82-.81-3.95.8-5.87l.64.21c.08,2.52,2.47,4.9,4.25,7,1.95,2.13,4,4.18,6.14,6.15,4.1,4.11,8.39,8.06,12.77,11.88Z" transform="translate(-152.8 -172)" style="fill:#1d1d1b"/><path d="M295.69,725.83A268.39,268.39,0,0,1,367,694.43a236.84,236.84,0,0,1,77.83-8.49,62.85,62.85,0,0,1,9.78.81l9.75,1.22,9.73,1.23c3.23.5,6.4,1.36,9.59,2l19.11,4.27,18.67,5.79,9.33,2.88c3.06,1.11,6,2.49,9.07,3.63L558,715c11.88,5.31,23.4,11.42,35.15,17.09l2.37,1.14-2.1,1.84-.71.62-.06.06-.07,0c-21.94,14.74-46.48,24.73-71.93,31.19s-51.83,9.71-78.11,8.14c-6.57.07-13.08-1.15-19.62-1.67l-9.79-1c-3.25-.41-6.43-1.31-9.65-1.95l-19.21-4.2-18.65-6.15L356.35,757c-3-1.2-6-2.63-9-3.91l-17.88-7.9C317.8,739.49,306.49,733,295,727l-.45-.24.4-.33Zm.41.54-.71.61-.05-.57,17.38,8.73c5.86,2.75,11.4,6.21,17.56,8.28l18.21,6.71c3,1.09,6,2.28,9.11,3.25l9.38,2.44,18.66,4.95,19,3.33c3.16.53,6.31,1.17,9.48,1.61l9.58.93c6.38.46,12.74,1.62,19.15,1.51l19.22.16L481.24,767a275,275,0,0,0,37.91-6.19c24.9-5.89,49.43-14.89,71.33-28.06l-.13.1.73-.6.27,3-17-9.26c-5.74-3-11.23-6.49-17.27-8.83l-17.93-7.41c-3-1.23-6-2.48-9-3.54l-9.33-2.67-18.64-5.31L483,695c-3.18-.5-6.33-1.18-9.54-1.53l-9.63-.73c-6.43-.35-12.81-1.32-19.25-1.16l-19.26-.07c-6.41.41-12.8,1-19.22,1.32A332.86,332.86,0,0,0,368,698.53C342.89,703.85,317.9,712.36,296.1,726.37Z" transform="translate(-152.8 -172)" style="fill:#1d1d1b"/><path d="M591.53,734.6q-76.74-.2-153.48-1.26c-25.58-.31-51.17-.26-76.73-1.5-12.78-.76-25.56-1.33-38.33-2.34s-25.46-1.77-38.35-4.35l.33-.59c6.1.43,12.69.26,19,.24h19.18l38.36.3c25.57.36,51.11,1.8,76.66,2.84l153.36,6Z" transform="translate(-152.8 -172)" style="fill:#1d1d1b"/><path d="M518.69,734a153.71,153.71,0,0,1-18.84,23.8c-3.57,3.63-7.13,7.58-11.88,10-4.56,2.4-10.37,4.34-15.73,2.55v-.68c4.77-2,8.33-4.7,12.14-7.59s8-5.23,11.84-8.33a242.11,242.11,0,0,0,21.93-20.21Z" transform="translate(-152.8 -172)" style="fill:#1d1d1b"/><path d="M447.73,732.26A151.66,151.66,0,0,1,431,755.16c-3.22,3.51-6.31,7.41-10.67,9.89-4.2,2.33-9.82,4.5-14.85,2.4l.06-.67c4.48-1.74,7.49-4.51,11-7.28,3.27-2.92,7.21-5.22,10.72-8.2a261,261,0,0,0,20-19.44Z" transform="translate(-152.8 -172)" style="fill:#1d1d1b"/><path d="M379.63,728.56a132.21,132.21,0,0,1-10,14.68c-1.83,2.33-3.39,5.06-6,6.73a18.79,18.79,0,0,1-4.31,2.12c-1.61.4-3.56,1.1-5.44-.17l.21-.64c2-1.85,3.2-4.33,5.12-6.41,1.73-2.18,4.37-3.51,6.57-5.38l13.35-11.36Z" transform="translate(-152.8 -172)" style="fill:#1d1d1b"/><path d="M221.58,619.38A268.3,268.3,0,0,1,292.91,588c25.19-6.94,51.64-10.17,77.82-8.49a63,63,0,0,1,9.79.81l9.75,1.22,9.73,1.23c3.22.5,6.39,1.36,9.59,2l19.1,4.27,18.68,5.79,9.33,2.88c3.06,1.11,6,2.49,9.06,3.63l18.16,7.2c11.87,5.3,23.39,11.41,35.15,17.08l2.37,1.14-2.11,1.84-.71.62-.06.06-.07,0c-21.93,14.75-46.48,24.74-71.92,31.19s-51.84,9.71-78.11,8.14c-6.58.07-13.08-1.15-19.62-1.67l-9.79-1c-3.26-.41-6.44-1.31-9.65-2l-19.21-4.2-18.66-6.15-9.28-3.11c-3-1.19-6-2.63-9-3.91l-17.88-7.9c-11.69-5.69-23-12.14-34.5-18.17l-.46-.23.41-.34Zm.41.53-.7.61,0-.57,17.38,8.73c5.86,2.75,11.4,6.21,17.55,8.28l18.22,6.71c3,1.09,6,2.29,9.11,3.26l9.37,2.43,18.67,4.95,19,3.33c3.17.53,6.31,1.17,9.49,1.61l9.57.93c6.39.46,12.74,1.63,19.16,1.51l19.22.16,19.17-1.31a275.18,275.18,0,0,0,37.92-6.19c24.89-5.89,49.43-14.88,71.32-28.06l-.12.1.73-.59.26,3-17-9.27c-5.73-3-11.23-6.49-17.26-8.83L465,603.27c-3-1.23-6-2.48-9-3.53l-9.32-2.68L428,591.75l-19.09-3.26c-3.18-.5-6.34-1.18-9.54-1.52l-9.64-.74c-6.42-.35-12.81-1.31-19.24-1.16L351.24,585c-6.4.41-12.79,1-19.21,1.32a332.86,332.86,0,0,0-38.11,5.75C268.79,597.39,243.79,605.9,222,619.91Z" transform="translate(-152.8 -172)" style="fill:#1d1d1b"/><path d="M517.43,628.14c-12.82,1-25.61,1.3-38.42,2l-38.4.72c-25.59.32-51.16-.37-76.75-.58-25.56-1.15-51.14-1.76-76.69-3.5-25.58-2-51-3.17-76.64-8l.33-.59c12.42,1.43,25.43,1.62,38.13,2.17l38.35,1.24,76.7,2,153.4,4Z" transform="translate(-152.8 -172)" style="fill:#1d1d1b"/><path d="M444.59,627.56A44.26,44.26,0,0,1,438.11,642,64.07,64.07,0,0,1,428,653.86a50.81,50.81,0,0,1-13.37,8.74c-4.86,2.14-11.1,3.67-16.49,1.35v-.67c4.94-.15,9.55-2.49,13.67-5.17a89.45,89.45,0,0,0,11.67-9.25,187.87,187.87,0,0,0,20.58-21.72Z" transform="translate(-152.8 -172)" style="fill:#1d1d1b"/><path d="M373.63,625.8a40.11,40.11,0,0,1-5.42,13.86,59,59,0,0,1-9,11.45A48.6,48.6,0,0,1,347,659.76c-4.49,2.09-10.62,3.87-15.65,1.23l.06-.67c4.59.12,8.83-2.34,12.59-4.92a91.75,91.75,0,0,0,10.51-9.11,192.81,192.81,0,0,0,18.55-20.89Z" transform="translate(-152.8 -172)" style="fill:#1d1d1b"/><path d="M305.53,622.11a21.86,21.86,0,0,1-2.4,9.59,28.88,28.88,0,0,1-5.18,7.43,27.66,27.66,0,0,1-7.51,5.45,20.77,20.77,0,0,1-4.82,1.69c-1.81.14-3.95.81-5.87-.81l.22-.64c2.51-.07,4.9-2.46,7-4.24,2.14-2,4.18-4,6.15-6.14,4.12-4.1,8.07-8.39,11.9-12.76Z" transform="translate(-152.8 -172)" style="fill:#1d1d1b"/></svg>