<svg xmlns="http://www.w3.org/2000/svg" viewBox="0 0 461.39 401"><path d="M462.85,188c13.91,109.86-89.77,200.5-200.5,200.5S67.31,298.6,61.85,188C56.24,74.43,151.62-12.5,262.35-12.5S448.83,77.23,462.85,188Z" transform="translate(-61.61 12.5)" style="fill:#d3785d"/><path d="M313.28,219.3c-1.41,2.1-2.8,4.18-4,6.26a18.31,18.31,0,0,0-1.39,3.06,3.76,3.76,0,0,0-.2,1.28,1.34,1.34,0,0,0,0,.35l.19,1a49.43,49.43,0,0,0,1.65,7,26.76,26.76,0,0,0,2.77,6.29,15.77,15.77,0,0,0,4.33,4.69,13,13,0,0,0,5.83,2.11,22.87,22.87,0,0,0,6.71-.37,48.6,48.6,0,0,0,6.92-2c18.75-6.65,36-17.13,52.92-27.72,8.52-5.27,17-10.32,26.05-15.14a29.43,29.43,0,0,1,3.81-1.69,7.19,7.19,0,0,1,.8-.2,3.5,3.5,0,0,1,.65-.08,3,3,0,0,1,1.7.4,3.23,3.23,0,0,1,.63.47h0l.29.18c.43.25.94.52,1.46.8,2.09,1,4.35,1.91,6.59,2.76A87.84,87.84,0,0,0,445,212.49a66.44,66.44,0,0,0,28.59-.63,63.44,63.44,0,0,0,25.68-13.75l.4.38a58.69,58.69,0,0,1-11.13,10.34,55.25,55.25,0,0,1-13.72,7,57.89,57.89,0,0,1-15.25,3,67.22,67.22,0,0,1-15.52-.73,74.54,74.54,0,0,1-15.1-4.06,60.26,60.26,0,0,1-7.15-3.21c-.6-.32-1.18-.65-1.82-1l-.5-.33c-.07,0-.27-.2-.4-.3l-.2-.18-.1-.09a2.41,2.41,0,0,0,.54.41,2.15,2.15,0,0,0,1.24.32h0a28.33,28.33,0,0,0-3.07,1.27c-8.83,4.22-17.66,9.15-26.6,13.54S373,233.3,364.13,238s-17.57,9.54-26.66,14c-4.49,2.16-9.63,4.31-15.35,3.93a16.15,16.15,0,0,1-8.17-2.72,18.45,18.45,0,0,1-5.71-6.24c-2.81-4.82-3.9-10.1-4.48-15.14l-.11-.87a4.78,4.78,0,0,1,0-1.51,7.51,7.51,0,0,1,.8-2.32,14.59,14.59,0,0,1,2.41-3.37,27.63,27.63,0,0,1,6-4.9Z" transform="translate(-61.61 12.5)"/><path d="M523,222.92c-7.35.09-14.71.39-22,.85-3.66.24-7.32.54-11,1q-2.73.31-5.4.8a24.42,24.42,0,0,0-5.1,1.41c-.8.31-1.47.8-1.47,1.12a10.38,10.38,0,0,1-1.29,2.76,24.83,24.83,0,0,1-3.74,4.38,64.17,64.17,0,0,1-8.88,6.87q-2.34,1.54-4.76,2.93c-.8.47-1.61.92-2.41,1.36a12,12,0,0,1-2.82,1.17,44.14,44.14,0,0,1-11.36,1,208,208,0,0,1-22.16-1.84q-11-1.41-21.9-3.38l-1.37-.25c-.33-.1-.26,0-.25,0h0l-.3.09a26,26,0,0,0-2.52.8c-1.71.56-3.45,1.17-5.16,1.79l-10.33,3.77-20.62,7.8,1.36-2.13a36.15,36.15,0,0,1-4.57,20,48,48,0,0,1-5.91,8.31l-.36.43-.08.09-.29.29a4.18,4.18,0,0,1-.72.53,2.11,2.11,0,0,1-.55.25l-.46.16a5.51,5.51,0,0,1-.8.2,18.44,18.44,0,0,1-2.77.28c-1.74.08-3.41,0-5.09-.05s-3.34-.22-5-.4c-.8-.1-1.67-.2-2.54-.34-.42-.06-.88-.15-1.39-.27a5,5,0,0,1-.51-.16l-.3-.11-.14-.05a4.07,4.07,0,0,1-.48-.33,3.63,3.63,0,0,1-.47-.49,2.33,2.33,0,0,1-.17-.26l-.05-.11a2.72,2.72,0,0,1-.19-.47,3.5,3.5,0,0,1-.15-.64,14.45,14.45,0,0,1-.06-2.94c0-.86.11-1.69.19-2.53.15-1.66.34-3.29.54-4.92.38-3.25.8-6.48,1.17-9.63.08-.8.15-1.6.19-2.31,0-.27,0-.54,0-.8h0a1.3,1.3,0,0,0,.11.37,1.35,1.35,0,0,0,.36.52,1.24,1.24,0,0,0,.35.25c.1,0,.1.05.16.06a5.66,5.66,0,0,0-1.3.18,15.34,15.34,0,0,0-2,.6l1.53-2.1c-.24,4.2-.61,8.32-1.12,12.49-.27,2.07-.57,4.15-.93,6.22-.19,1-.38,2.08-.6,3.12q-.17.78-.36,1.56a15,15,0,0,1-.45,1.68,9,9,0,0,1-2.2,3.6,10.56,10.56,0,0,1-3.35,2.17,19.42,19.42,0,0,1-6.9,1.34,47.94,47.94,0,0,1-12.95-1.6l-1.82-.46,0-1.91.4-14.92,4.48,1.08c-1.86,3.74-3.79,7.36-6,10.95a45.11,45.11,0,0,1-3.65,5.32,33.48,33.48,0,0,1-4.94,4.42c-3.34,2.54-6.74,4.85-10.2,7.09s-6.95,4.38-10.49,6.49l-4.72,2.82,1.61-5.24L269,287.62l2.55-8.71.58-2.14.12-.51a5,5,0,0,1,.31-.89c.18-.39.35-.8.52-1.1l2.13-4.08c5.75-10.74,11.64-21.35,17.52-32l35.38-63.73,35.38-63.74C369.39,100.12,375.3,89.5,381.33,79l4.58-7.9c.81-1.34,1.49-2.56,2.55-4a1.76,1.76,0,0,1,.89-.52h.49a3.55,3.55,0,0,1,.47.06l.32.09a9.63,9.63,0,0,1,1.18.4c.76.29,1.45.62,2.16.93,5.57,2.66,10.84,5.62,16.14,8.69l-1.73.47c4.38-8,8.76-16.17,12.79-24.37.51-1,1-2,1.43-3.07a14.21,14.21,0,0,0,.58-1.46l.12-.34V48s0,0-.06-.06a6.86,6.86,0,0,0-2.17-1.61,29.64,29.64,0,0,0-3-1.34,102.75,102.75,0,0,0-13-3.83l-2.16-.45,1-1.93L410,27.06l.8-1.55,1.6.8c2.77,1.37,5.46,2.75,8.17,4.32.67.39,1.35.8,2.05,1.29A7.38,7.38,0,0,1,423.89,33a2.26,2.26,0,0,1,.56,1.28v.42l-.06.27A8.22,8.22,0,0,1,424,36c-.7,1.47-1.35,2.81-2,4.18-2.72,5.45-5.51,10.83-8.33,16.21-5.62,10.75-11.28,21.47-17.14,32.14-.74,1.34-1.47,2.66-2.29,4l-.72,1.14a6,6,0,0,1-1,.92l-.61.35a22,22,0,0,1-2.22,1.12c-2.84,1.31-5.66,2.41-8.49,3.59q-8.51,3.38-17,6.53-17.13,6.33-34.31,12.35c-5.76,2-11.41,4-17.35,5.89l-.63.18c-.18,0-.76.2-.26.1a1,1,0,0,0,.36-.19l-.08.08-.21.2c-.42.43-.86,1-1.31,1.51-.88,1.12-1.77,2.3-2.63,3.52-1.73,2.41-3.42,4.92-5.08,7.43-6.64,10.06-13,20.35-19.39,30.67l-9.46,15.5-1.18,1.95a15.51,15.51,0,0,0-.59,1.47l-.52,2-.42,2.12c-.53,2.85-.9,5.82-1.24,8.79-1.27,11.92-1.92,24-2.4,36.07l-.34-1.45a21.23,21.23,0,0,0,2.29,3.34,6.75,6.75,0,0,0,2.32,2c.27.12.05,0,.09,0l1.61-1.1c1.35-.89,2.62-1.69,3.87-2.54a57.11,57.11,0,0,0,13.13-11.78,35.23,35.23,0,0,0,7.22-15.46,40.91,40.91,0,0,0-.8-17.2l1.14,1.61a47.13,47.13,0,0,0-4.94-2.8,16.76,16.76,0,0,0-4.81-1.67,2.58,2.58,0,0,0-.68,0c-.11,0,0,0,.11-.12s.1-.14.05,0a3.21,3.21,0,0,0,0,.62c-.06.26.14.33.12.53.15.13.17.31.37.45a2.45,2.45,0,0,0,.69.46,3.5,3.5,0,0,0,.94.38,15.66,15.66,0,0,0,10-.93A14.5,14.5,0,0,0,302,189a14.22,14.22,0,0,0,1.93-1.71c1.39-1.41,2.78-2.86,4.16-4.32,5.48-5.86,10.94-11.84,15.94-18,.64-.8,1.22-1.55,1.81-2.32l.8-1.15.64-1a.28.28,0,0,1,.11-.17l.09-.51a12.44,12.44,0,0,0,.09-1.27,19.81,19.81,0,0,0-.12-2.67c-.42-3.57-2-6.8-4.77-7.51a4.21,4.21,0,0,0-1.1-.22L321,148h-.61a6.74,6.74,0,0,0-2.22.35c-.6.25-.57.37-.64.45a2.77,2.77,0,0,0,.41,1.45,13.36,13.36,0,0,0,3.4,3.82,21.29,21.29,0,0,0,4.7,2.85,17.24,17.24,0,0,0,5.17,1.44,12.36,12.36,0,0,0,2.58,0c.87-.1,2-.29,3-.41,4-.54,8.09-.94,12.13-1.32s8.09-.69,12.14-1c2-.13,4-.27,6.15-.34h.45c.23,0,.45.06.68.11a6.45,6.45,0,0,1,1,.31c.55.2,1,.41,1.5.62,1,.41,1.88.86,2.82,1.3,7.33,3.57,14.45,7.37,21.6,11.24l2.41,1.3-2.41,1.34L351.9,196c-7.23,4.11-14.36,8.26-21.48,12.49-3.57,2.11-7.11,4.24-10.62,6.42-1.75,1.1-3.5,2.21-5.21,3.36-.86.57-1.71,1.16-2.54,1.77a9.77,9.77,0,0,0-2.17,1.94l-.53-.14a4,4,0,0,1,1.22-1.32c.39-.35.8-.68,1.21-1,.8-.65,1.66-1.26,2.51-1.86,1.69-1.2,3.41-2.36,5.14-3.51q5.19-3.44,10.43-6.75,10.53-6.63,21.16-13.07c14.15-8.65,28.42-17.08,42.75-25.44v2.65c-7.18-3.69-14.4-7.36-21.68-10.73-.9-.41-1.82-.81-2.71-1.2-.46-.19-.9-.37-1.32-.51a2.51,2.51,0,0,0-.46-.16h-.37c-1.9.1-4,.28-6,.45q-6,.52-12,1.18t-12,1.51l-3,.45a16.19,16.19,0,0,1-3.48.07,21.48,21.48,0,0,1-6.49-1.71,24.86,24.86,0,0,1-5.68-3.36,17.16,17.16,0,0,1-4.61-5.17,6.84,6.84,0,0,1-.88-4.36,4.86,4.86,0,0,1,1.32-2.46,6.12,6.12,0,0,1,2-1.31,10.76,10.76,0,0,1,3.72-.7l.9-.05.94.1a7.36,7.36,0,0,1,1.87.35,10.11,10.11,0,0,1,6,4.67,17.11,17.11,0,0,1,2.2,6.62,22.47,22.47,0,0,1,.2,3.38c0,.56-.06,1.15-.11,1.75l-.17,1a10.74,10.74,0,0,1-.47,1.23,25.75,25.75,0,0,1-1.85,2.89c-.63.85-1.25,1.7-1.89,2.49-5.12,6.42-10.51,12.48-16,18.46-1.38,1.51-2.77,3-4.2,4.47a16.84,16.84,0,0,1-5.67,4.1,22.81,22.81,0,0,1-6.62,1.79,17.67,17.67,0,0,1-7.09-.51,8.11,8.11,0,0,1-1.86-.74,7.91,7.91,0,0,1-1.83-1.25,8.32,8.32,0,0,1-1.51-1.88,7,7,0,0,1-.73-2.36,8.11,8.11,0,0,1,0-2.41,5.64,5.64,0,0,1,1.35-2.73,5.49,5.49,0,0,1,2.76-1.48,8.43,8.43,0,0,1,2.35-.09,21.58,21.58,0,0,1,6.64,2.17,51.62,51.62,0,0,1,5.62,3.17l.89.57.25,1a46.61,46.61,0,0,1,.92,19.63,40.87,40.87,0,0,1-8.29,17.9,61.55,61.55,0,0,1-14.36,13c-1.31.9-2.66,1.75-3.9,2.57-.74.46-.63.52-2.24,1.48a5.73,5.73,0,0,1-4.41.25,8.51,8.51,0,0,1-2.92-1.71,15.36,15.36,0,0,1-2-2,27.66,27.66,0,0,1-3-4.31l-.37-.66v-.8c.45-12.2,1.06-24.32,2.34-36.53.34-3.05.72-6.1,1.28-9.21l.45-2.34.67-2.41a19.27,19.27,0,0,1,1.18-2.72l1.19-1.94L278.31,165c6.42-10.3,12.9-20.57,19.69-30.7,1.71-2.53,3.43-5.05,5.24-7.55q1.35-1.87,2.83-3.74c.51-.63,1.05-1.26,1.69-1.92.17-.18.41-.38.62-.56a2.39,2.39,0,0,1,.36-.29,5.83,5.83,0,0,1,.85-.46,5.47,5.47,0,0,1,.81-.26l.45-.13c5.62-1.75,11.44-3.76,17.15-5.71q17.17-5.89,34.26-12.1c5.68-2.08,11.37-4.15,17-6.33,2.8-1.09,5.62-2.2,8.29-3.39.67-.29,1.35-.61,1.87-.9l.37-.21a.31.31,0,0,0-.15.2l.5-.8c.73-1.22,1.5-2.55,2.23-3.85,5.93-10.53,11.71-21.2,17.46-31.87l8.53-16c.7-1.33,1.41-2.7,2-4h.13v.15c.15.8.25.66.29.8a3.23,3.23,0,0,0-.49-.41c-.54-.38-1.15-.8-1.77-1.16-2.51-1.51-5.19-2.94-7.84-4.31l2.4-.81-6.28,11.59-1.11-2.4a102.39,102.39,0,0,1,13.39,4.2,31.53,31.53,0,0,1,3.28,1.54,9.23,9.23,0,0,1,3.21,2.61,4.26,4.26,0,0,1,.57,2.53l-.16.47c-.23.68-.48,1.18-.72,1.74-.49,1.07-1,2.13-1.52,3.16-4.21,8.25-8.71,16.26-13.22,24.29l-.63,1.12-1.11-.65C403.6,75.78,398.36,72.71,393,70c-.67-.31-1.35-.64-2-.89a7.89,7.89,0,0,0-1-.36l-.23-.07h-.09a.11.11,0,0,1-.08,0h.2a.53.53,0,0,0,.25-.17c-.76,1-1.61,2.41-2.41,3.66C386,74.78,384.55,77.4,383,80c-6.08,10.51-12,21.09-18,31.67L347.24,143.5l-17.49,32-17.39,32-17.14,32.16c-5.68,10.74-11.38,21.48-16.91,32.26l-2,4-.45.95c-.08.26,0-.12-.07.18l-.13.61-.57,2.26-2.4,8.83-5,17.54-3.13-2.4c3.44-2.14,6.87-4.35,10.23-6.6s6.72-4.55,9.85-7a29.57,29.57,0,0,0,4.18-3.72,40.76,40.76,0,0,0,3.21-4.82c2-3.41,3.94-7,5.69-10.59l11.84-23.11-7.36,24.18-.33,14.92-1.73-2.45a43,43,0,0,0,11.51,1.38c3.76-.1,7.34-1.27,7.94-3.78.14-.43.25-.86.35-1.3s.23-1,.32-1.45c.22-1,.41-2,.6-2.94.35-2,.66-4,.93-6,.52-4,.92-8.1,1.17-12.12l.1-1.6,1.43-.52a21.17,21.17,0,0,1,2.68-.81,12.5,12.5,0,0,1,1.51-.24,6.3,6.3,0,0,1,2,.12,6.39,6.39,0,0,1,.73.27,4.16,4.16,0,0,1,.85.59,3.66,3.66,0,0,1,.7,1,5.2,5.2,0,0,1,.21.67.76.76,0,0,0,0,.32,10.82,10.82,0,0,1,0,1.61c-.06.89-.15,1.72-.24,2.55-.37,3.3-.84,6.52-1.24,9.73-.21,1.6-.4,3.21-.56,4.82-.08.8-.15,1.6-.2,2.34a12.44,12.44,0,0,0,0,1.93v0a.38.38,0,0,0-.08-.17l-.14-.25a2.16,2.16,0,0,0-.36-.38,1.79,1.79,0,0,0-.38-.22h.07a7.21,7.21,0,0,0,1,.2c.74.13,1.52.24,2.3.33,1.57.18,3.15.32,4.73.41s3.16.14,4.67.09a16.55,16.55,0,0,0,2.1-.19,1.55,1.55,0,0,0,.36-.08h.12a.55.55,0,0,0-.24.18s-.08.13,0,.09l.12-.13.43-.51a43.44,43.44,0,0,0,5.45-7.54,31.77,31.77,0,0,0,4.17-17.55l-.11-1.61,1.46-.54c6.91-2.59,13.79-5.17,20.74-7.65l10.43-3.65c1.75-.6,3.5-1.18,5.29-1.74.89-.27,1.79-.55,2.78-.8a5.57,5.57,0,0,1,2.15-.15l1.34.27q10.78,2.13,21.67,3.73a204.11,204.11,0,0,0,21.78,2.19,41.84,41.84,0,0,0,10.58-.68,9,9,0,0,0,2.28-.91c.8-.41,1.6-.8,2.41-1.28,1.6-.87,3.16-1.78,4.7-2.73a62.77,62.77,0,0,0,8.73-6.38,22.87,22.87,0,0,0,3.52-3.9,8.55,8.55,0,0,0,1.12-2.19,5,5,0,0,1,.49-.95c.23-.22.47-.45.7-.64a8.28,8.28,0,0,1,1.42-.73,27.06,27.06,0,0,1,5.54-1.38q2.77-.44,5.53-.7c3.69-.34,7.37-.54,11.06-.69,7.36-.27,14.73-.25,22.09-.11Z" transform="translate(-61.61 12.5)"/><path d="M216.17,328.16a6.9,6.9,0,0,0,4.89-.49,5.28,5.28,0,0,0,2.49-4,23.53,23.53,0,0,0-1.22-9.86,18.3,18.3,0,0,0-5-8.38,7.41,7.41,0,0,0-1.93-1.29,2.4,2.4,0,0,0-1.8-.24c-.23,0-.61,1-.81,1.69a20.94,20.94,0,0,0-.61,2.36,18.31,18.31,0,0,0,.26,9.54,7.87,7.87,0,0,0,6.62,5.39,19,19,0,0,0,4.76,0c.8-.11,1.6-.23,2.4-.42a9.13,9.13,0,0,0,2.12-.65c2.53-1.35,4.33-4.26,5.74-7.14a56.08,56.08,0,0,0,3.32-9.34c.86-3.21,1.6-6.49,2.16-9.79a120.71,120.71,0,0,0,1.79-20,40.49,40.49,0,0,0-.92-9.63,5.44,5.44,0,0,0-.7-1.67s0,0-.05-.08l-.36-.16a5.59,5.59,0,0,0-1-.32,4.26,4.26,0,0,0-3.53.43,6.18,6.18,0,0,0-2.23,3.21,18.17,18.17,0,0,0-.64,2.18c-.14.76-.23,1.56-.35,2.34a56.73,56.73,0,0,0,.05,9.84,95,95,0,0,0,1.16,9.93,55.31,55.31,0,0,0,2.41,9.56,22.94,22.94,0,0,0,4.61,8.14,7.4,7.4,0,0,0,3.51,2.09,7.09,7.09,0,0,0,4.07-.41,15,15,0,0,0,7.28-5.38,24.16,24.16,0,0,0,3.89-8.67,49,49,0,0,0,1.39-9.8,85.72,85.72,0,0,0,0-10c0-1.67-.24-3.34-.34-5l-.11-1.25a5.77,5.77,0,0,0-.21-1.11,18.09,18.09,0,0,0-.68-2.28c-1-3-3.11-5.62-6-5.12-3,0-3.33,3.78-3.45,7a57.33,57.33,0,0,0,.86,10A116.4,116.4,0,0,0,255,298.9c1.15,3.15,2.3,6.42,4.28,9.07a8,8,0,0,0,1.86,1.61,2.44,2.44,0,0,0,2.26.34,3.41,3.41,0,0,0,1.55-1.83,9.59,9.59,0,0,0,.67-2.41,9.63,9.63,0,0,1-.54,2.49,3.62,3.62,0,0,1-1.56,2A2.81,2.81,0,0,1,261,310a6.86,6.86,0,0,1-1.09-.72,6.34,6.34,0,0,1-1-.88c-2.23-2.73-3.46-5.95-4.82-9.09a118,118,0,0,1-5.74-19.66,58.33,58.33,0,0,1-1.16-10.29,18.31,18.31,0,0,1,.66-5.37,5.91,5.91,0,0,1,1.61-2.65,2.39,2.39,0,0,1,.72-.5,2.58,2.58,0,0,1,.76-.33c.47-.13.93-.27,1.42-.38a6.6,6.6,0,0,1,5.66,1.77,12.78,12.78,0,0,1,3,4.72,23.32,23.32,0,0,1,.8,2.58,11.84,11.84,0,0,1,.3,1.39l.14,1.28c.15,1.72.4,3.43.48,5.14.48,6.85.5,13.86-1.22,20.73a27.33,27.33,0,0,1-4.34,9.82,18.43,18.43,0,0,1-8.83,6.6,10.56,10.56,0,0,1-5.91.55,10.75,10.75,0,0,1-5.17-2.95,26.11,26.11,0,0,1-5.4-9.46,58.21,58.21,0,0,1-2.66-10.14A93.59,93.59,0,0,1,228,281.85a59.5,59.5,0,0,1,0-10.51c.14-.9.25-1.79.43-2.69a25.22,25.22,0,0,1,.81-2.69,9.66,9.66,0,0,1,3.66-4.87,7.8,7.8,0,0,1,6.27-.8,9.35,9.35,0,0,1,1.46.51,6.09,6.09,0,0,1,.81.4,6.52,6.52,0,0,1,.86.8,8,8,0,0,1,1.36,2.95,43.68,43.68,0,0,1,1,10.58,126.37,126.37,0,0,1-2,20.54,75.33,75.33,0,0,1-6.08,19.82,28.07,28.07,0,0,1-2.84,4.54,12.61,12.61,0,0,1-4.3,3.65,12,12,0,0,1-1.42.51,10.18,10.18,0,0,1-1.33.29,25.83,25.83,0,0,1-2.62.38,20.42,20.42,0,0,1-5.41-.12,10.81,10.81,0,0,1-5.11-2.3,10.14,10.14,0,0,1-3.07-4.69,21.49,21.49,0,0,1,.75-13.13,11.72,11.72,0,0,1,.55-1.26,5.11,5.11,0,0,1,.41-.68,2.58,2.58,0,0,1,.81-.62,3.71,3.71,0,0,1,3.1.33,9.11,9.11,0,0,1,2.24,1.61,20,20,0,0,1,5,9.11c.23.8.39,1.68.59,2.52a21.75,21.75,0,0,1,.37,2.55,16.6,16.6,0,0,1-.12,5.17,5.79,5.79,0,0,1-2.89,4.18A7.07,7.07,0,0,1,216.17,328.16Z" transform="translate(-61.61 12.5)"/><path d="M344.41,194.46c3.3-9.53,7.22-18.79,11.24-28s8.31-18.28,13.07-27.13,10.11-17.4,15-26.19c2.45-4.39,4.82-8.83,7.42-13.15.65-1.09,1.31-2.18,2.06-3.21a16,16,0,0,1,1.24-1.61,3.91,3.91,0,0,1,1-.8,1.75,1.75,0,0,1,.47-.2,1.94,1.94,0,0,1,.76,0l.46.09,7.4,1.33c9.88,1.81,19.73,3.76,29.52,6s19.58,4.37,29.31,6.81,19.41,5.14,29,8c4.82,1.44,9.64,2.91,14.4,4.5,2.41.76,4.77,1.61,7.14,2.47a57.91,57.91,0,0,1,7.07,2.89l-.29.46c-4.71-1.26-9.76-2.09-14.64-3.1l-14.74-3c-9.83-2-19.6-4.27-29.37-6.52s-19.44-4.88-29.14-7.46-19.36-5.25-29-8.11l-7.22-2.06c.12-.59-1.08.66-1.74,1.51s-1.43,2-2.12,3a146.44,146.44,0,0,0-7.44,13c-4.58,8.91-8.3,18.26-12.45,27.38s-8.7,18-13.33,27-9.37,17.74-14.57,26.37Z" transform="translate(-61.61 12.5)"/><path d="M278.52,277.45a9.2,9.2,0,0,0,2.72,2.8,13.61,13.61,0,0,0,3.41,1.6,33,33,0,0,0,3.78,1c1.3.28,2.62.51,4,.88a14,14,0,0,1-4.17.54c-.71,0-1.42-.09-2.12-.19a18.3,18.3,0,0,1-2.09-.54,9.63,9.63,0,0,1-3.73-2.27A5.71,5.71,0,0,1,278.52,277.45Z" transform="translate(-61.61 12.5)"/><path d="M89.53,140.52l41.17-1.08,41.19-.81c13.74-.25,27.46-.9,41.19-.63s27.46.66,41.2,1.82v.42c-13.73,1.29-27.45,1.83-41.18,2.19s-27.46-.13-41.19-.26l-41.15-.5L89.57,141Z" transform="translate(-61.61 12.5)"/><path d="M89.53,173.15l38.95-1.08,39-.85c13-.25,26-.9,39-.63s26,.66,39,1.82v.44c-13,1.3-26,1.83-39,2.19s-26-.12-39-.26l-39-.48-39-.7Z" transform="translate(-61.61 12.5)"/><path d="M91,211l28.94-1.26,28.9-1c9.63-.33,19.26-1,28.94-.81s19.26.53,29,1.61V210c-9.63,1.35-19.26,2-28.89,2.41s-19.27,0-28.95-.08L120,212,91,211.49Z" transform="translate(-61.61 12.5)"/><path d="M127.45,266c1,1.95-.13,2.74-1.55,3.47a3.25,3.25,0,0,1-4-.75c-4.2-3.87-4.35-10.24,0-14.92,5.48-5.94,13-6.64,20.34-7.22a98.11,98.11,0,0,1,19.9.92c2.66.36,4.72.24,4.65-3.42-.07-4,2-3.77,4.55-1.87,4.13,3.12,8.18,6.33,12.34,9.41,1.51,1.13,2.06,2,.22,3.32-5,3.45-9.91,7.09-15.06,10.34-3.21,2-3.48-.89-3.21-2.82.6-4.3-1.38-5.2-5.22-5.4a103.21,103.21,0,0,0-25.91,1.53C130.62,259.41,126.87,260.82,127.45,266Z" transform="translate(-61.61 12.5)"/><path d="M151.71,289c-4.61-.25-9.25-.29-13.84-.8-2.69-.32-4.35-.13-4.36,3.07,0,4.26-2.32,3.43-4.64,1.9-4.32-2.85-8.52-5.88-12.85-8.72-1.6-1.08-2.15-2-.23-3.21,5.15-3.27,10.26-6.59,15.45-9.79,2.29-1.4,3.67-.37,3.45,2.12-.41,4.87,2.16,5.56,6.3,5.68,8.9.23,17.79.1,26.49-1.73,3.88-.8,8.54-1.6,7.08-8.15-.55-2.5,2.21-4,5-2.27,5,3.08,5.7,9.58,1.38,14.45-4.81,5.41-11.55,6.25-18.15,7-3.65.42-7.39.08-11.08.08Z" transform="translate(-61.61 12.5)"/></svg>