<?xml version="1.0" encoding="utf-8"?>
<!-- Generator: Adobe Illustrator 24.0.3, SVG Export Plug-In . SVG Version: 6.00 Build 0)  -->
<svg version="1.1" xmlns="http://www.w3.org/2000/svg" xmlns:xlink="http://www.w3.org/1999/xlink" x="0px" y="0px"
	 viewBox="0 0 574.8 571" style="enable-background:new 0 0 574.8 571;" xml:space="preserve">
<style type="text/css">
	.st0{fill:#B39053;}
	.st1{stroke:#000000;stroke-width:4;stroke-miterlimit:10;}
</style>
<g id="Layer_2">
	<path class="st0" d="M9,515l2-459c0,0,6-43,39-44s206-3,217-2s265,3,275,8s23,11,23,37s-3,460-3,460s2,45-52,47s-469-2-469-2
		S5,548,9,515z M173,478l1-261H92l1,262L173,478z M131.5,84C103.6,84,81,106.6,81,134.5s22.6,50.5,50.5,50.5s50.5-22.6,50.5-50.5
		S159.4,84,131.5,84z M304,480V347c0,0,3-60,42-64s49,29,49,29l7,170l79-2c0,0,1-168-6-200s-18-63-75-69s-97,39-97,39l-4-32l-73,2
		v261L304,480z"/>
</g>
<g id="Layer_1">
	<title>linkedinicon</title>
	<path class="st1" d="M118.8,12.4c-21.7,1.2-43.3,2.2-65,3c-9.7-0.1-19.1,3.6-26.1,10.4c-6.7,6.5-10.4,15.4-10.2,24.7
		c1.3,43.2,2.3,86.6,2.9,129.9l0.9,65l0.4,65c0.4,43.3,0.1,86.6-0.6,129.9l-1.6,65l-0.4,16.1c-0.2,4.4,0.5,8.7,2,12.8
		c3.3,8.4,9.9,15.1,18.2,18.5c4.3,1.8,8.9,2.7,13.5,2.7L69,556l32.5,0.9l65,1.1c86.6,0.9,173.2-0.6,259.8-2.7l65-1.6l16.2-0.4
		l8.1-0.2c2.7-0.1,5.6-0.1,7.5-0.3c8.4-0.7,16.2-4.8,21.6-11.3c2.6-3.1,4.5-6.8,5.6-10.7c0.5-1.9,0.8-3.9,1-5.9l0.1-3.1v-4.1
		l-0.5-32.5l-0.7-65c-0.8-86.6-1.9-173.2-1.5-259.8l0.5-65l0.2-32.5l0.1-8.1v-4l-0.1-2.8c-0.3-3.7-1.5-7.4-3.3-10.6
		c-3.9-6.8-10.3-11.7-17.9-13.7c-0.9-0.3-1.9-0.5-2.9-0.6c-1-0.2-2-0.3-2.9-0.3l-1.5-0.1h-2l-4.1-0.1l-16.2-0.2l-65-1.3
		c-86.6-2.1-173.2-4.3-259.8-8.4V10C260.4,6,347.1,3.7,433.7,1.6l65-1.3l16.2-0.2L519,0h2l2.6,0.1c3.4,0.1,6.9,0.6,10.2,1.4
		c13.7,3.2,25.5,11.9,32.8,23.9c3.7,6.1,6,12.9,6.9,20c0.2,1.8,0.2,3.5,0.3,5.3l0.1,4.1l0.1,8.1l0.2,32.5l0.5,65
		c0.3,86.6-0.7,173.2-1.5,259.8l-0.7,65l-0.5,32.5v4.1c0,1.4-0.2,3.3-0.3,5c-0.4,3.4-1.1,6.7-2.1,10c-2.1,6.5-5.6,12.4-10.1,17.5
		c-9,10-21.7,15.9-35.1,16.6c-3.5,0.2-6,0-8.7,0l-8.1-0.2l-16.2-0.4l-65-1.7c-86.6-2.1-173.2-3.7-259.8-2.7l-65,1.1L69,567.9
		l-16.2,0.5c-6.2,0.2-12.4-0.7-18.3-2.7c-12.2-4.3-22.2-13.4-27.5-25.2c-2.6-6-4-12.4-4.1-18.9l-0.5-16.2l-1.6-65
		C0,397-0.2,353.7,0.1,310.4l0.4-65l0.9-65c0.7-43.3,1.6-86.6,3-130c0.4-12.7,6.2-24.6,15.8-32.7C29.6,9.8,41.6,5.9,53.8,6.8
		c21.7,0.9,43.3,1.9,65,3.1L118.8,12.4z"/>
	<path class="st1" d="M91.7,216.8c26.8-0.8,54.5-2.1,82.6-2.8l3.5-0.1l0.1,3.7l3.4,131.4l2.7,131.4l0.2,9l-10,0.7
		c-27.3,2-54.5,2.7-81.8,3L80,493.4l-0.2-13c-0.2-11.3-0.2-22.7-0.1-34c0-11.4,0.2-22.7,0.5-34c0.4-22.7,1.4-45.2,2.4-67.5l1.9-33.1
		l2.2-32.5C88.1,257.9,89.7,236.9,91.7,216.8z M93.4,218.5c2,23.8,3.6,46.5,5.2,69l2.2,33.2l1.8,32.6c1,21.5,2,42.8,2.4,63.9
		c0.3,10.6,0.5,21.1,0.5,31.7s0.1,21.1-0.1,31.7l-12.8-12.8c27.3,0.3,54.5,1.1,81.8,3l-9.8,9.8l2.8-131.4l3.4-131.4l3.6,3.6
		L93.4,218.5z"/>
	<path class="st1" d="M224.4,479.2l-3.2-130.7c-1-43.6-2-87.2-2.7-130.7l-0.1-6.9l7.2-0.2l78.3-1.8l8.7-0.2l0.2,9.1l0.8,35.9
		l-9.7-9.7h1.1l-8.6,5.2c17-33.3,55-51.4,90.4-50.3c17.2,0.2,35.4,2.7,52.2,11.3c8.5,4.3,16.1,10,22.5,17
		c6.2,6.9,11.3,14.8,15.1,23.2c7.2,16.7,9.7,33.9,10.3,50.6c1,16.7-1.4,33.2-1.5,49.2c-1.1,32.3-2.3,64.5-3.9,96.8H479
		c-1.6-32.2-2.8-64.5-3.9-96.8c-0.1-16.2-2.3-32.1-4.7-47.5c-2.8-15.3-6.6-30.3-13.6-42.7c-3.2-6.1-7.4-11.6-12.3-16.4
		c-4.9-4.5-10.5-8.3-16.6-11.1c-12.3-5.7-26.8-8.1-41.7-8.7c-14.6-0.9-28.7,1.2-41.6,7.1s-24.1,15.5-31,27.4l-3,5.3l-5.5-0.1h-1.1
		l-10-0.2l0.2-9.5l0.8-35.9l8.9,8.9l-78.3-1.8l7.1-7.1c-0.7,43.6-1.7,87.2-2.7,130.7l-3.2,130.7L224.4,479.2z"/>
	<path class="st1" d="M480.2,481.7l-81.6,2.7l-3.8,0.1l-0.1-4c-1.1-37.3-2.4-74.6-3.2-111.8c-0.7-18.6,0.1-37.6-4.5-53.5
		c-2.2-8-6.3-14.2-11.7-18c-5.5-3.6-13.1-4.7-21.1-4.3s-15.5,2.5-20.8,6.5c-5.4,3.8-8.7,10-10.9,17.3c-4.2,15-2.7,33-2.7,51.9
		c0,37.3-1.5,74.6-3.8,111.8l-0.6,9.5l-8.4-0.5c-13.6-0.9-27.2-1.9-40.8-3.1c-13.6-1.3-27.2-2.6-40.8-4.6v-2.5
		c13.6-2,27.2-3.3,40.8-4.6c13.6-1.3,27.2-2.3,40.8-3.1l-9,8.9c-2.3-37.3-3.8-74.6-3.8-111.8c0.4-18.2-0.7-38.2,6.5-59
		c3.7-10.2,10.2-21,20.6-27.6c10.2-6.7,21.8-8.7,32.2-8.7s22.3,1.8,32.2,9c9.7,7.4,15.2,18.4,17.4,28.5c4.6,20.5,2.5,39.3,2.4,57.8
		c-0.8,37.3-2,74.6-3.2,111.8l-3.9-3.9l81.6,2.7L480.2,481.7z"/>
	<path class="st1" d="M181.4,134.4c2.4,12.6-1.9,26.6-10.5,37.5c-9.4,11.1-23,17.9-37.5,18.6c-14.7,1-29.9-4.9-40.9-15.2
		c-22.6-21.6-23.3-57.4-1.8-79.9c0.6-0.6,1.2-1.2,1.8-1.8c11-10.3,26.1-16.2,40.9-15.2c14.5,0.7,28.1,7.4,37.5,18.5
		C179.5,107.8,183.8,121.8,181.4,134.4l-1.2,0c0-25.7-20.9-46.5-46.6-46.5c-12.4,0-24.2,4.9-32.9,13.7c-18,18.2-17.9,47.7,0.4,65.7
		c18.2,18,47.7,17.9,65.7-0.4c8.6-8.7,13.4-20.4,13.4-32.5L181.4,134.4z"/>
</g>
</svg>
