<svg xmlns="http://www.w3.org/2000/svg" viewBox="0 0 905.88 571.31"><path d="M135,45.2c28.13-9.49,54.15-22.9,80.7-35.12,1.88-.87,3.71-1.15,3-4.11-1.19-4.72,2-6.17,5.74-5.95,6.19.37,12.91,0,18.34,2.43,5.61,2.47,10,7.83,14.85,12,12.85,10.89,22.88,24.48,34.71,36.36,23.7,23.78,51.17,42.45,79.87,59.48,1.58.95,3.06,1.54,5,.7,20.68-9,43.35-10.41,64.7-16.91,24.55-7.49,48.09-18,73-24.31,1.53-.38,2.83-.52,2.45-3-1-6.87,3.22-6.78,7.87-5.38C536.72,64.84,547,70.83,556.42,78c35.56,27.07,71,54.34,102.29,86.47a113.18,113.18,0,0,0,25,19c2.56,1.47,4.57,2.17,7.2,0,4.13-3.47,8.91-5.67,14.08-2.28,5.8,3.8,8.07,9.48,6.77,16.29-2.32,12.12-6.93,23.59-10.77,35.25-12.73,38.63-28.42,76.26-39.55,115.44-10.88,38.27-21.1,76.74-32.14,115-8.12,28.11-16.16,56.3-28.18,83.1A11.64,11.64,0,0,0,600,554a9.21,9.21,0,0,1-1.68,8.25c-3.32,4.08-8.16,6.19-12.53,8.42-3.19,1.62-8.69.07-8.42-4.69.62-11.14-6.8-17.55-13.08-24.45-12.56-13.81-28.13-24.1-42.86-35.35-18.09-13.83-36.23-27.61-56.19-38.75a13.19,13.19,0,0,0-10.05-1.4c-37,7.7-73.07,18.75-109.64,28-5.38,1.35-11,1.73-16.55,2.39a16.24,16.24,0,0,1-13.14-3.68,13.26,13.26,0,0,0-4.68-2.47c-21.86-6.42-38.63-20.75-55.05-35.54-20.4-18.37-39.12-38.7-62.57-53.48-.57-.36-1.17-.67-1.7-1.07-8.3-6.23-16-7.08-26.15-2-32.54,16.14-67.32,26.17-102.77,33.69C51.29,434.36,40.2,438.42,29,442.23c-7.28,2.48-14.9,1.5-22.27,3.21-4.73,1.1-8.44-4.41-5.86-8C15,417.41,20,394.14,25,371,33.24,333.19,44,296,53.18,258.45c12.33-50.62,25.16-101.11,37.49-151.72,3.7-15.2,4.43-31,8.75-46.12,2.76-9.65,7.29-18.17,14.77-25.06,4-3.69,8.3-5.25,13.43-3.23S135,38.21,135,45.2ZM618.66,416.74c15.79-72.91,38.62-143.72,62.87-214.11,1.32-3.84.45-5.1-2.75-6.52a105.94,105.94,0,0,1-27.31-18c-37-32.77-75-64.2-115.36-92.77C531.76,82.26,528.34,81,523,83c-22.95,8.7-46.14,16.75-69.15,25.28-23.69,8.78-48.34,14.16-72.67,20.62-5.55,1.47-13,2.8-17.67-4.18-.87-1.32-2.88-2-4.47-2.71-28.59-13-53.37-31.51-75.85-53.24-12.7-12.27-23.61-26.28-36.65-38.22-10.21-9.36-10.22-9.34-22-3.18-1,.52-2,1-3,1.47C201.18,39,179.62,46.59,159.62,57.51c-8.84,4.83-17.77,9.91-27.66,11.63-8,1.38-10.41,5.86-12.07,12.68-8.5,35-16.48,70.06-26.18,104.76-21.33,76.21-40.5,153.06-65.15,228.31-.16.48.33,1.17.53,1.81,22.25-5.47,44.71-9.3,66.34-16.69,23.86-8.14,47.41-17.25,71.94-23.31a6.48,6.48,0,0,0,2.83-1.62c6.14-6.15,12.87-5.54,20.37-2.64,25.24,9.76,46.65,25.22,66,43.78,21.45,20.56,42.14,42,68.35,56.82,2.61,1.48,4.64,2.64,7.93,1.71,11.38-3.23,22.83-6.25,34.36-8.89,25-5.74,49.51-13.89,75.37-15.35,1.58-.09,3-.25,4.08-1.73,6.4-8.44,9.26-9.2,18.9-5.34,17.76,7.1,33.9,17,49.06,28.54,24.52,18.66,47.88,38.66,71.34,59.5C598.42,493.22,610.27,455.45,618.66,416.74Z" transform="translate(-0.04 0)"/><path d="M237.59,71.26c-3.77-3.76-7.64-4.22-13.05-2.7C202.88,74.64,183.42,85.33,164,96.07a18.86,18.86,0,0,1-4.12,2.17c-11.91,3-17.67,10.93-20.45,22.7-3,12.72-7.66,25-11.59,37.53-2.18,9-5.16,17.8-8,26.62-2.91,8.53-5.38,17.21-8.54,25.67C94,260.24,81.26,310.92,71.08,362.31c-2,5.18-1.48,11-3.91,16.08a9.83,9.83,0,0,0-.69,5.74c-5.77,2.52-4.33-2.25-4.41-4.72-.76-22.71,1.89-45.06,6.87-67.21,9.1-40.44,24-79,37.47-118.06,9.22-26.82,18-53.79,26.91-80.71a45.12,45.12,0,0,0,2.59-15.14c0-2-.12-4.22,2.51-4.8,2.16-.48,4.44,0,5,2.23,1.06,4.14,2.72,2.7,5.07,1.23a481.21,481.21,0,0,1,42.24-23.1c8.34-4.8,16.47-10.06,26-12.29,3-.71,6-1.56,9.12-.49,13.58,4.57,26.9,9.79,39,17.51,20.38,13,36,31.28,53.16,47.86q22.15,21.39,44.49,42.59c2,1.92,3.71,3.57,7.43,2.2,33.26-12.27,66.42-24.81,99-38.85,14.69-6.33,28.3-15.26,44.29-18.51a3.11,3.11,0,0,0,2.56-1.81c1.5-3.39,3.74-3,5.5-.49,1.24,1.78,2.59,2,4.45,2.11,1.41.06,3.5-1,4.12.88.83,2.45-2.89,1.52-3.07,3.39,17.33,8.81,31.78,21.79,47.13,33.45,21.85,16.61,42.73,34.46,63.6,52.3.17.14.42.24.51.42,1.23,2.27,6.41,3.32,3.71,6.4-1.8,2-5-1-7-2.92-11.52-7.32-21.18-17-31.88-25.36-4-3.15-7.91-6.54-11.9-9.77-7-5.56-13.31-11.86-20.72-16.86-3.56-3-7.24-5.78-10.72-8.85-12.25-9.08-25.78-16.3-37.37-26.33-3.29-2.85-6.75-.59-9.77.86-1.58.76-3,1.71-4.8,1.82-18.92,7.39-37.21,16.26-56,24l-47.33,20.28c-4.22,1.74-8.6,3.06-12.87,4.69a56,56,0,0,1-15,4.72c-3.09.61-4.71,2.1-4.52,5.32l8.84,15.22c-7.78-2.7-11-8.77-15.78-12.76-11.72-14.19-29.09-21.85-41.08-35.76-5.67-6.57-11.91-12.68-17.56-19.24-13.62-15.83-29.79-28.7-46.1-41.48-4.06-3.17-8.93-5-12.82-8.43C244.63,76.29,239.61,75.52,237.59,71.26Z" transform="translate(-0.04 0)" style="fill:#010101"/><path d="M73.66,381.41c-2.53-3.33.77-3.62,2.47-4.53a415.93,415.93,0,0,1,90.07-35.73c7.6-2,14.74-5.18,21.88-8.37,4.11-1.84,7.45-2.74,12.74-.9,13.06,4.51,25.3,10.27,36.41,18.22,30,21.44,60.58,42.22,86.28,68.85,7.67,7.94,13.08,9,23,4.44,25.57-11.82,52.23-20.91,80.21-25.37a127.87,127.87,0,0,1,18.62-2c4.59-.06,5.74-1.94,5.76-6,0-7.64-2.63-14.45-6-21.08-.89-1.75-2.67-3.65,0-5.1,2.26-1.21,3.77.53,5,2.25a41,41,0,0,1,7.21,21.34c.16,3,1,4.7,4,6,41.7,18,77.28,44.34,106.13,79.56,10.68-32.39,21.09-64.81,25.78-98.74,2.74-19.91,6.63-39.61,10.74-59.35.93-4.44.93-6.76-4.26-8.85-9.74-3.93-18.19-10.41-26.46-16.9-1.67-1.32-5-3-2.63-5.69,2-2.24,4.59-.25,6.53,1.25a253.85,253.85,0,0,0,23.36,15.61c6,3.66,6.74,1.27,8-3.79,3.91-15.88,8.64-31.49,17.06-45.72,6.35-10.72,13.26-21.13,18.17-32.65,1-1.42,1.77-3.49,3.84-3,2.26.56,2.68,2.87,2.69,4.86a23.82,23.82,0,0,1-5,14.08,24.2,24.2,0,0,0-3.73,6c-3.55,9.16-10.24,16.59-13.42,26.08a537.37,537.37,0,0,0-15,53.54c-4.82,21.52-8.85,43.22-14,64.66-5.83,28.83-14.6,56.88-22.37,85.19-.29,1.07-.43,2.19-.71,3.26-.64,2.45.7,6.36-2.42,7-2.83.54-5.83-1.36-8.15-3.71-2.64-2.68-5.57-5.09-8.38-7.61a720.37,720.37,0,0,0-74.44-55.78c-3.18-2.06-6.05-4.55-9.3-6.52-6.72-5.89-13.79-7.89-23.11-5.75-28.72,6.58-57.58,12.59-85.46,22.29-11.15,3.87-21.92,8.86-32.85,13.35-2.43,1-5.1,3-7.22,0s.88-3.43,2.72-4.6.26-2.32-.68-3.1c-2.24-1.84-4.59-3.55-6.9-5.31-32.42-27.27-65.38-53.82-102.62-74.44-3.7-2-6.95-4.79-10.73-6.69-7.67-7.12-15.29-6.32-24.29-1.66-8.4,4.34-17.89,6.53-26.91,9.67a351.75,351.75,0,0,0-35.94,13.67C104.58,370.74,90.29,379.09,73.66,381.41Z" transform="translate(-0.04 0)" style="fill:#020202"/><path d="M296.1,234.74c-.63,2.6-2.41,2.78-4,1.54-10.34-8.08-21.59-15.05-30.59-24.78-1.33-1.44-2.77-3.29-1.08-5.33a3.46,3.46,0,0,1,4.86-.6h0a164,164,0,0,1,30,27.42A7,7,0,0,1,296.1,234.74Z" transform="translate(-0.04 0)" style="fill:#070505"/><path d="M354.5,271.88c-.51,3-2.24,2.39-3.59,1.66-4.89-2.66-9.9-5.18-14.49-8.3-7.38-5-14.44-10.48-21.67-15.7-1.89-1.36-4.07-2.69-2.27-5.29,1.6-2.32,4-1.7,5.94-.33,11.53,8,23,16.14,33.76,25.2A18.54,18.54,0,0,1,354.5,271.88Z" transform="translate(-0.04 0)" style="fill:#070505"/><path d="M154.21,242.38c-2.2,0-4.11-.39-4.77-2.3-.79-2.32,1.3-3.12,2.88-3.77,12-5,24-9.85,35.94-14.74,1.45-.6,3.2-1.35,4.29.23,1.25,1.8-.06,3.47-1.3,4.72a13.56,13.56,0,0,1-4.23,3.21c-10.14,4.12-20.34,8.06-30.53,12.05A18.22,18.22,0,0,1,154.21,242.38Z" transform="translate(-0.04 0)" style="fill:#0c0706"/><path d="M244.88,199.77a3.26,3.26,0,0,1-2.18,2.64q-14.94,8.1-29.87,16.21c-2.87,1.55-5.35.86-6.84-1.84-1.63-2.94,1.21-3.73,3-4.9a103.48,103.48,0,0,1,29.68-13.3C240.87,198,243.39,197,244.88,199.77Z" transform="translate(-0.04 0)" style="fill:#090505"/><path d="M434.8,330.15c0,1.71,0,3.35-1.93,3.9a3.27,3.27,0,0,1-4.19-1.95c0-.09-.06-.19-.09-.28-3.36-9.69-6.85-19.36-8.21-29.61-.26-2-.39-4.23,2.5-4.56,2.51-.29,4.56.61,5.17,3.16C430.38,310.57,432.56,320.37,434.8,330.15Z" transform="translate(-0.04 0)" style="fill:#080504"/><path d="M400.33,223.87c.06-1.2.12-.51,0,.13-.5,2.24.21,5.64-3,5.86-2.89.19-2.84-3.15-3.26-5.09-1.31-6.14-2.55-12.18-7.15-17-1.27-1.31-3.06-3.34-.62-5.09a4.32,4.32,0,0,1,6,.81C397.1,208.74,400.54,214.64,400.33,223.87Z" transform="translate(-0.04 0)" style="fill:#0c0706"/><path d="M118.07,259.82c-2.16.14-4.19-.2-4.81-2-.8-2.35,1.56-2.9,3.1-3.55,6.78-2.85,13.62-5.57,20.42-8.39,1.32-.55,2.72-1,3.62.25s-.27,2.49-1.2,3.43C133.28,255.46,125.75,258.09,118.07,259.82Z" transform="translate(-0.04 0)" style="fill:#130807"/><path d="M748.09,128.12a79.74,79.74,0,0,1,25.38,25.07A88.6,88.6,0,0,1,785.9,187c3.77,23.94-1.12,49.08-13.16,70.37a103.6,103.6,0,0,1-23.48,28.16,100.76,100.76,0,0,1-32.17,18.09c-23.5,8-49.8,7.22-73.11-1.59a118,118,0,0,1-32.38-18.52,94.94,94.94,0,0,1-35.84-65.26,103.79,103.79,0,0,1,3-37.79,114.83,114.83,0,0,1,6.55-17.78l4.37-8.39c1.71-2.64,3.4-5.29,5.16-7.9a131.67,131.67,0,0,1,12.17-14.3A99.71,99.71,0,0,1,621.7,120.3a94.94,94.94,0,0,1,16.58-8.56,100.66,100.66,0,0,1,17.79-5,104.52,104.52,0,0,1,18.19-1.35,107.68,107.68,0,0,1,17.9,2l-.2,1.55a136.54,136.54,0,0,0-17.51.86,110.26,110.26,0,0,0-16.87,3.57,90.67,90.67,0,0,0-29.86,15.44,107.43,107.43,0,0,0-12.12,11.44,119.82,119.82,0,0,0-9.88,13.4,95.24,95.24,0,0,0-12.59,30.41c-5,21.34-2.83,44.17,6.86,63.67a83.68,83.68,0,0,0,20,25.68A105.68,105.68,0,0,0,648.27,291a98.08,98.08,0,0,0,65.81,3.46,91.76,91.76,0,0,0,29.76-15.53,95.7,95.7,0,0,0,22.49-25.34,103.59,103.59,0,0,0,15-66,84.93,84.93,0,0,0-10.58-32.78,77.36,77.36,0,0,0-23.5-25.45Z" transform="translate(-0.04 0)"/><path d="M727.83,294.91s38.18,40.91,54.54,65.45S886,483.09,886,483.09s30-27.27,16.36-38.18-79.09-90-103.64-111.82S752.37,284,752.37,284,714.19,275.82,727.83,294.91Z" transform="translate(-0.04 0)"/></svg>