<svg xmlns="http://www.w3.org/2000/svg" viewBox="0 0 402.5 434.5"><path d="M340.85,213c13.91,109.86-89.77,200.5-200.5,200.5s-195-89.9-200.5-200.5C-65.76,99.43,29.62,12.5,140.35,12.5S326.83,102.23,340.85,213Z" transform="translate(60.39 21)" style="fill:#4182a1"/><path d="M196.93,72.15q-.77-6.23-1.27-12.46c-.38-4.15-.61-8.3-.9-12.45l-.63-12.45q-.25-6.24-.41-12.46v-.16l.09-.65c0-.09.06-.43.09-.68s0-.54,0-.8a10.39,10.39,0,0,0-.07-1.58,6.68,6.68,0,0,0-.74-2.51,3.42,3.42,0,0,0-1.45-1.29,4.87,4.87,0,0,1-.53-.21,3.3,3.3,0,0,0-.62-.15c-.22-.06-.44-.11-.67-.15H187.1l-2.1-.24c-1.41-.08-2.82-.18-4.22-.3-2.8-.22-5.59-.5-8.37-.82C161.21,11.52,150.1,9.87,139,8.91s-22.4-1.39-33.59-1.39S83,7.8,71.82,7.77s-22.34-.11-33.41.15c-5.5.17-11.11.31-16.24.88-.62.08-1.25.16-1.8.27A12.38,12.38,0,0,0,19,9.38c-.07,0-.14.09.25-.19A1.54,1.54,0,0,0,19.47,9l.24-.24a3.68,3.68,0,0,0,.61-1,3.91,3.91,0,0,0,.31-1.47v2.2c-.05,2.8-.15,5.61-.23,8.41-.15,5.61-.43,11.22-.64,16.83S19.21,45,18.85,50.57C18.17,61.78,17.31,73,16,84.17h-.84c-1.11-11.2-1.79-22.38-2.3-33.55-.26-5.59-.44-11.18-.63-16.76s-.31-11.17-.37-16.76c0-2.79-.09-5.58-.09-8.38V6.2a5.19,5.19,0,0,1,1.32-3.39,5.66,5.66,0,0,1,.42-.43l.4-.33A8.1,8.1,0,0,1,16,.94,17.15,17.15,0,0,1,18.73.22c.82-.16,1.58-.27,2.35-.37,3-.38,5.88-.52,8.76-.61s5.7-.08,8.53,0c5.66.06,11.28.24,16.9.5S66.5.3,72.1.68c11.2.77,22.35,2.1,33.51,3.2s22.32,1.93,33.52,2.26,22.43,0,33.63.1c2.8,0,5.6.06,8.39.14l8.4.26,1.33.1a11,11,0,0,1,1.39.27,8.41,8.41,0,0,1,1.39.38c.48.19,1,.4,1.41.61a11,11,0,0,1,4.56,4.37,13.45,13.45,0,0,1,1.53,5.51,16.37,16.37,0,0,1,0,2.62,11.13,11.13,0,0,1-.14,1.28,13.09,13.09,0,0,1-.25,1.39l.09-.81q-.13,6.24-.37,12.46l-.59,12.46c-.28,4.15-.51,8.31-.87,12.46s-.73,8.3-1.24,12.46Z" transform="translate(60.39 21)" style="fill:#1d1d1b"/><path d="M15.65,134.41c1.57,12,2.22,24,2.93,36l.26,4.45.15,2.19.09,1v.61a.89.89,0,0,0,0-.23l0-.11v.12l.11.28.21.56.39,1a3.84,3.84,0,0,0,.53,1l.29.12a6,6,0,0,0,1.32.29c.26,0,.6.06.9.09s.68,0,1,0l2.1.05c1.49,0,3,0,4.48.09,3,.08,6,.2,9,.38,12,.67,24,2.12,36,2.47s24,0,36-.67c6-.31,12-.73,18-.95s12-.36,18-.48c12-.23,24-.49,36-.29l4.31.09a4.26,4.26,0,0,0,1-.16,4,4,0,0,0,1-.41,4.74,4.74,0,0,0,1.57-1.73,11.77,11.77,0,0,0,1-3c0-.29.09-.54.13-.85l.11-1,.19-2.17.3-4.44.62-9c.84-12,1.7-24,3.18-36h.84c1.37,12,2.09,24,2.57,36.06.1,3,.2,6,.26,9v8.24a11.18,11.18,0,0,1-.12,1.39,18.37,18.37,0,0,1-1.53,5.58,13.17,13.17,0,0,1-4.19,5.08,12.54,12.54,0,0,1-3.06,1.59,12.15,12.15,0,0,1-3.43.68h-4.7c-12,.06-24-.35-36-.73-6-.2-12-.39-18-.72s-12-.8-18-1.19c-12-.86-24-1.4-36-1.21s-24,1.4-36,1.81q-4.5.15-9,.14c-1.51,0-3,0-4.53-.06a22,22,0,0,1-2.4-.09l-1.22-.06c-.45-.06-.86-.09-1.34-.18a12.45,12.45,0,0,1-3-.81,7.71,7.71,0,0,1-3.29-2.52,10.62,10.62,0,0,1-1.48-3l-.38-1.12-.17-.51-.08-.24v-.15l-.1-.38a6.91,6.91,0,0,1-.16-.79V175c0-1.52,0-3,.07-4.55.06-3,.22-6,.36-9s.33-6,.56-9c.43-6,1-12,1.83-18Z" transform="translate(60.39 21)" style="fill:#1d1d1b"/><path d="M84.38-1.66A34.24,34.24,0,0,1,95.38-14,37.56,37.56,0,0,1,111-20.62c.77-.09,1.51-.2,2.3-.26s1.58-.11,2.37-.12l2.47.13c.83.08,1.7.22,2.53.38a18.78,18.78,0,0,1,9.62,5.06,15.84,15.84,0,0,1,4.43,9.2c.06.79.15,1.55.14,2.32a13.83,13.83,0,0,1-.24,2.24,17,17,0,0,1-1.21,4.19l-.83.1a27.09,27.09,0,0,0-2-7.11,14.19,14.19,0,0,0-4.33-5.66,13.76,13.76,0,0,0-6.63-2.53,24.42,24.42,0,0,0-7.29.28A57.44,57.44,0,0,0,98.14-8c-2.29,1-4.54,2.12-6.75,3.29S87-2.32,84.84-1Z" transform="translate(60.39 21)" style="fill:#1d1d1b"/><path d="M42.85,190.52a193.52,193.52,0,0,1,9.2,21.71q2,5.51,3.83,11.05c1.24,3.69,2.36,7.41,3.31,11.17.48,1.88.92,3.78,1.36,5.67s.92,3.71,1.33,5.72.88,4,1.11,6,.7,3.9,1,5.83.73,3.86,1.16,5.77.82,3.83,1.28,5.73q1.41,5.71,3,11.38L71,286.23c.54,1.89,1,3.79,1.52,5.7,1,3.8,1.74,7.64,2.55,11.48,1.58,7.67,3.16,15.34,4.24,23.1s1.87,15.54,2.36,23.38c.15,2,.24,3.92.33,5.89s.16,3.93.2,5.9A107.79,107.79,0,0,1,82,373.6h-.83a416.14,416.14,0,0,1-10.65-45.71c-.64-3.85-1.26-7.7-1.73-11.57s-1-7.74-1.48-11.62-1-7.73-1.36-11.63-.64-7.8-1-11.7a132.8,132.8,0,0,0-3.62-23.11c-.46-1.89-1.08-3.73-1.7-5.56a50.2,50.2,0,0,0-2.13-5.28c-1.68-3.5-3.54-7.11-5-10.76a104.73,104.73,0,0,1-3.8-11.16q-1.64-5.66-3-11.39A153.77,153.77,0,0,1,42,190.74Z" transform="translate(60.39 21)" style="fill:#1d1d1b"/><path d="M93.18,372.65c-.77-6.49-1.2-13-1.48-19.47l-.2-4.87-.1-4.86c-.06-3.25-.12-6.5-.09-9.74,0-6.49.16-13,.46-19.47s.77-13,1.55-19.42c1.6-12.92,4.17-25.72,6.29-38.53,1.11-6.41,2.22-12.81,3.68-19.21a73.89,73.89,0,0,1,2.84-9.56,23.89,23.89,0,0,1,2.33-4.73,10.5,10.5,0,0,1,.83-1.15,8.8,8.8,0,0,1,1-1.11,8.35,8.35,0,0,1,2.9-1.81l2.65-1,.41,3.13c.83,6.28,1.65,12.55,2.31,18.84l.9,9.44.77,9.44c1,12.6,1.91,25.22,2.21,37.87.06,3.16.12,6.33.13,9.49s0,6.33,0,9.5-.06,6.33-.17,9.5l-.38,9.5c-.37,6.35-.79,12.68-1.55,19l-.25,2.37c-.1.79-.24,1.58-.36,2.37l-.73,4.72c-.13.79-.25,1.57-.41,2.36l-.53,2.34-1.12,4.65-.83-.14.11-4.74.08-2.34v-2.36l-.06-4.71V355.6l-.08-2.36-.29-4.72c-.06-1.57-.07-3.13-.17-4.7-.14-3.15-.32-6.28-.41-9.42l-1-18.83c-.33-6.28-.68-12.56-.94-18.84-.64-12.56-.87-25.15-1.27-37.74l-.56-18.89c-.15-6.3-.15-12.61-.25-18.91l3.06,2.13a5.36,5.36,0,0,0-2.64,2,19.21,19.21,0,0,0-2.37,3.74,52.4,52.4,0,0,0-3.38,8.8,122.29,122.29,0,0,0-3.92,18.85c-1.75,12.78-1.64,25.77-2,38.65q-.29,9.68-1,19.32c-.47,6.44-.87,12.87-1.36,19.31-1.06,12.88-2.09,25.77-3.85,38.68Z" transform="translate(60.39 21)" style="fill:#1d1d1b"/><path d="M128.22,372.06a202.43,202.43,0,0,1,4.17-22.92c.89-3.76,1.81-7.5,2.83-11.21s2.09-7.41,3.41-11,2.79-7.21,4.22-10.82,2.83-7.22,3.92-10.92,2.09-7.42,2.85-11.21,1.36-7.61,1.94-11.43,1-7.68,1.61-11.49,1.28-7.6,1.94-11.39,1.39-7.56,2-11.35,1.37-7.56,2.17-11.32c1.47-7.52,3.31-15,5-22.49.86-3.75,1.9-7.48,2.77-11.24s1.9-7.51,3.09-11.27l.83.09a166.28,166.28,0,0,1-.17,23.41l-.44,5.83c-.16,2-.42,3.87-.66,5.8-.48,3.86-1,7.71-1.65,11.54-1.4,7.64-3.19,15.2-5.21,22.7-1,3.75-1.91,7.51-3.12,11.21s-2.47,7.37-3.7,11.05a187,187,0,0,0-6.63,22.25c-.84,3.78-1.46,7.61-2.08,11.45s-1.14,7.71-2,11.5a108.46,108.46,0,0,1-3,11.22c-1.15,3.7-2.38,7.37-3.74,11A143.91,143.91,0,0,1,129,372.32Z" transform="translate(60.39 21)" style="fill:#1d1d1b"/><path d="M11.33,76.23c-.22.66-.48,1.26-.65,1.91A16.45,16.45,0,0,0,10.12,80c-.17.59-.3,1.2-.44,1.76a16.57,16.57,0,0,0-.36,1.7,61.22,61.22,0,0,0-.9,6.32,87.11,87.11,0,0,0,0,12.09,23.28,23.28,0,0,0,.15,3.12c.06,1.07.18,2.13.19,3.21.17,2.17.4,4.4.45,6.72.24,2.3.29,4.7.31,7.22,0,1.25.09,2.51,0,3.85l-.1,2c-.09.71-.12,1.39-.25,2.13l-.75.36-3.13-6.69c-.91-2.29-1.67-4.64-2.51-7-.37-1.18-.64-2.39-1-3.58l-.46-1.8a12.44,12.44,0,0,1-.4-1.81A54.06,54.06,0,0,1,0,102.16,37.21,37.21,0,0,1,2.11,87.52a24.84,24.84,0,0,1,8.77-12Z" transform="translate(60.39 21)" style="fill:#1d1d1b"/><path d="M198.27,54.27a65,65,0,0,1,11.24,2.25,60.9,60.9,0,0,1,10.84,4.19,41.94,41.94,0,0,1,5.1,3.09,32.39,32.39,0,0,1,4.66,3.94,27,27,0,0,1,3.84,5,25.58,25.58,0,0,1,2.54,6l.36,1.59a9.8,9.8,0,0,1,.28,1.62l.21,1.63c0,.54,0,1.08.08,1.63.06,1.14,0,2.05,0,3l0,2.92a51.46,51.46,0,0,1-1.87,11.57,55.9,55.9,0,0,1-4.4,11,32.58,32.58,0,0,1-7.21,9.44l-.69-.48c1.84-7.45,3-14.56,4.13-21.71.53-3.58,1.09-7.13,1.8-10.71l.47-2.69c.15-.89.35-1.85.41-2.59a17.17,17.17,0,0,0,0-4.75c-1-6.28-5.83-11.85-11.75-15.89a70.09,70.09,0,0,0-20.08-9.21Z" transform="translate(60.39 21)" style="fill:#1d1d1b"/><path d="M82.37,403l-2.07-1.2a15.52,15.52,0,0,1-2.21-1.44,4.89,4.89,0,0,1-1.77-3,3.78,3.78,0,0,1-.06-1.06c0-.34.1-.81.07-.93a6.21,6.21,0,0,1,.08-1.21,9.76,9.76,0,0,1,1.81-4.67A10.78,10.78,0,0,1,82.53,386a14.76,14.76,0,0,1,5.47-1.3,20.84,20.84,0,0,1,2.62.07l1.25.16,1.28.24a11.46,11.46,0,0,1,5.18,2.48,9.83,9.83,0,0,1,2,2.36,10.63,10.63,0,0,1,.68,1.4q.15.36.27.75a5.74,5.74,0,0,1,.21,1l-.56-1.72c.28.39.42.59.61.89s.34.55.5.83a15.18,15.18,0,0,1,.89,1.81,10,10,0,0,1,.76,4.82,8.06,8.06,0,0,1-.33,1.55,6,6,0,0,1-.76,1.49c-.14.19-.28.38-.43.56l-.39.39a8.21,8.21,0,0,1-2.58,1.6,14,14,0,0,1-3.78.86A14.37,14.37,0,0,1,88.67,405c-1.07-.4-2.12-.84-3.15-1.14S83.51,403.34,82.37,403Zm.33-.77a5.82,5.82,0,0,0,2.84-.17,13.21,13.21,0,0,0,2.88-1.27A35.67,35.67,0,0,1,93.63,398a18.6,18.6,0,0,0,2-.87c.19-.09.31-.24,0,0l-.12.13a2.56,2.56,0,0,0-.2.26,3.6,3.6,0,0,0-.4.84v.08A2.92,2.92,0,0,0,95,397.3a8.37,8.37,0,0,0-.18-1l-.15-.53c0-.14-.09-.28-.13-.43L94,393.62c.17-1.29.29-4.26-1.93-5.67-.27-.15-.56-.3-.85-.43a4.56,4.56,0,0,0-1-.26,7.45,7.45,0,0,0-.95-.07,3.86,3.86,0,0,0-.9.16,4.19,4.19,0,0,0-2.49,2.55c-.5,1.15-.81,2.34-1.36,3.45a13.59,13.59,0,0,1-2.25,3.32c-.25.27-.52.56-.81.85s-.19.11-.29.13h-.27c-.36.08-.63.57-.59,1.22a4.52,4.52,0,0,0,2.37,3.35Z" transform="translate(60.39 21)" style="fill:#1d1d1b"/><path d="M112,397.9a.34.34,0,0,0,0-.24h1.27l1.22-.05a20.86,20.86,0,0,0,2.15-.07,20.12,20.12,0,0,0,3.1-.33,6.22,6.22,0,0,1,1.55-.14c.61,0,1.29.09,2,.13a8.46,8.46,0,0,0,2.19-.1,4.39,4.39,0,0,0,1.85-.84l-.37.94A6.48,6.48,0,0,0,126,394a8.58,8.58,0,0,0-2.17-2.36c-.73-.56-1.33-.69-1.26-.43s.15.25.17.34a.26.26,0,0,1,0,.13,1.85,1.85,0,0,1-.33.21c-.86.58-2.42,1.33-4.16,2.51l-2.83,1.84c-.51.33-1,.66-1.6,1-.28.17-.56.34-.86.5s-.29.17-.46.25l-.24.12-.11.06A.23.23,0,0,0,112,397.9Zm-.81.19a.68.68,0,0,1,0-.4.38.38,0,0,0,0-.15v-.27a5,5,0,0,1-.06-.54,9.37,9.37,0,0,1,0-1.06,13.06,13.06,0,0,1,.19-2.07,14,14,0,0,1,1.27-3.92,13.56,13.56,0,0,1,2.52-3.58,10.42,10.42,0,0,1,4.3-2.58c.46-.12.91-.23,1.36-.32a8.78,8.78,0,0,1,1.7-.11,7.62,7.62,0,0,1,3.61,1,7.14,7.14,0,0,1,2.41,2.29,6.82,6.82,0,0,1,1,2.45,16.67,16.67,0,0,1,.06,4.35,22.15,22.15,0,0,0,0,3.82l.06.52-.43.43c-.66.67-1.17,1.25-1.75,1.94s-1.12,1.43-1.79,2.11a8.55,8.55,0,0,1-2.24,1.77,6.54,6.54,0,0,1-2.9.81,9.19,9.19,0,0,1-5.83-1.7,9,9,0,0,1-2-2,7.07,7.07,0,0,1-.73-1.21c-.1-.22-.2-.44-.29-.66l-.12-.36-.06-.18v-.09a.72.72,0,0,1-.31-.29Z" transform="translate(60.39 21)" style="fill:#1d1d1b"/><path d="M17.48,132.26c5.85-2.41,11.72-4.69,17.55-7s11.66-4.59,17.43-7,11.49-4.83,17.15-7.34a145.06,145.06,0,0,0,16.63-8.22l.34-.2h.16A69.15,69.15,0,0,1,95,101.37a38.92,38.92,0,0,1,4.18-.14,15.22,15.22,0,0,1,2.12.15,10.09,10.09,0,0,1,1.08.17l1,.21a10.49,10.49,0,0,0,7.1-1.51,9.9,9.9,0,0,0,1.48-1.09,3.35,3.35,0,0,0,.89-1.12v.09a.68.68,0,0,0,.07.2h0v0a1.37,1.37,0,0,0-.44-.28,1.46,1.46,0,0,0-.51,0,1.78,1.78,0,0,0-.5.14l-1.14-2.27a26.38,26.38,0,0,0,2.24-1.56,10.1,10.1,0,0,0,1-.84,4.36,4.36,0,0,0,.35-.4c.09-.11.14-.25.09-.16a.7.7,0,0,0-.06.45c.07.34.11.41.22.53s.09.1.07.1h-.1a4.81,4.81,0,0,0-1-.13,16.74,16.74,0,0,0-2.55.1l-9.15,1,8.24-4.64a17,17,0,0,0,3.66-2.56.83.83,0,0,0,.16-.21s-.06,0-.17.35a1.51,1.51,0,0,0,0,.79,1.62,1.62,0,0,0,.4.71,1.56,1.56,0,0,0,.28.23.41.41,0,0,0,.11.07h0q-.41,0-.81,0h-1.11c-1.55.08-3.2.31-4.84.52s-3.31.48-4.91.77l-9.49,1.7L100.2,86a10.28,10.28,0,0,0,1.5-1.66,2.12,2.12,0,0,0,.28-.51.17.17,0,0,0,0,.1.92.92,0,0,0,0,.33,1.5,1.5,0,0,0,.11.55,2,2,0,0,0,.29.52c.18.17.18.21.28.29l.14.08.29.14c.42.13.42.09.39.11a5.35,5.35,0,0,0-.79.19,22.88,22.88,0,0,0-2.39.89c-3.37,1.44-6.82,3.23-10.29,5-1.75.85-3.5,1.73-5.34,2.56a53.82,53.82,0,0,1-5.73,2.22,102.31,102.31,0,0,1-23.56,4.69,71.31,71.31,0,0,1-12.05-.08,44.39,44.39,0,0,1-11.81-2.68,27.28,27.28,0,0,1-10-6.53l.41-.48a30.21,30.21,0,0,0,10.43,4.34,47.61,47.61,0,0,0,11.17,1,96.43,96.43,0,0,0,22.33-3.38c3.67-.93,7.31-2,10.85-3.28a52.18,52.18,0,0,0,5.12-2c1.72-.77,3.46-1.58,5.21-2.41,3.55-1.61,7.06-3.3,10.92-4.76a30.79,30.79,0,0,1,3.13-1,10.35,10.35,0,0,1,2.07-.31,4.62,4.62,0,0,1,1.84.26c.21.08.42.17.62.27s.29.19.43.3a4,4,0,0,1,.83.76,3.87,3.87,0,0,1,.66,1.15,4.1,4.1,0,0,1,.26,1.25,5.35,5.35,0,0,1-.08,1.06,6.47,6.47,0,0,1-1.39,2.81,16.42,16.42,0,0,1-2.53,2.54l-2.22-5c1.76-.2,3.47-.36,5.22-.48a47.6,47.6,0,0,1,5.34-.12,8.07,8.07,0,0,1,1.45.09,9.15,9.15,0,0,1,1.72.32c.21.07.43.15.63.24l.4.22a3.06,3.06,0,0,1,.53.42,2.89,2.89,0,0,1,.79,2.67,3.61,3.61,0,0,1-.75,1.47,6,6,0,0,1-.71.71,14,14,0,0,1-2.53,1.62c-.83.42-1.62.79-2.5,1.15l-.9-3.59a18.77,18.77,0,0,1,3.18.25,7.89,7.89,0,0,1,1.79.48,5.77,5.77,0,0,1,.55.29,3.28,3.28,0,0,1,.64.53,2.32,2.32,0,0,1,.55,1.16,2.26,2.26,0,0,1-.16,1.15,3.71,3.71,0,0,1-.71,1,6.47,6.47,0,0,1-.67.61c-.44.35-.87.64-1.3.92-.87.56-1.72,1-2.63,1.5l-1.13-2.28a4.12,4.12,0,0,1,1.47-.27,3.69,3.69,0,0,1,1.47.31,3.49,3.49,0,0,1,1.21.88l.12.13.16.21a1.68,1.68,0,0,1,.26.65,1.94,1.94,0,0,1-.11,1.09,4.94,4.94,0,0,1-1.62,2,12.68,12.68,0,0,1-1.86,1.22,12.91,12.91,0,0,1-8.48,1.72,20.16,20.16,0,0,0-7.74,0,50.77,50.77,0,0,0-7.69,1.89l.5-.24A102.5,102.5,0,0,1,72,115.79a136.45,136.45,0,0,1-17.54,7.54c-6,2.19-12,4-18.16,5.66a170.6,170.6,0,0,1-18.6,3.89Z" transform="translate(60.39 21)" style="fill:#1d1d1b"/><path d="M206.33,74.59a14.79,14.79,0,0,1-3.92,3.25,26.64,26.64,0,0,1-4.56,2.21A45.14,45.14,0,0,1,188,82.52a78.75,78.75,0,0,1-20-.12,103.75,103.75,0,0,1-19.42-3.88c-3.17-1-6.3-2.09-9.36-3.36a98.31,98.31,0,0,1-9.07-4.24L131,71a2.32,2.32,0,0,0-.58.19c-.13.1-.09,0-.11,0a.63.63,0,0,0,.14.44,3,3,0,0,0,.25.37,4.12,4.12,0,0,0,.33.4l1.59,1.77a12.52,12.52,0,0,1,.81,1,4,4,0,0,1,.72,1.39l.05.25v.32a1.45,1.45,0,0,1-.16.65,1.81,1.81,0,0,1-.81.83,4.3,4.3,0,0,1-1.45.45,20.53,20.53,0,0,1-2.48.18c-1.61,0-3.18,0-4.72.09a10.43,10.43,0,0,0-2.15.25,1.63,1.63,0,0,0-.37.13c-.09,0-.07.09,0-.07s.06-.49.08-.44a.57.57,0,0,0,.11.11A4.28,4.28,0,0,0,124,80a20.76,20.76,0,0,0,2.22.3c.78.09,1.52.11,2.48.29a2.75,2.75,0,0,1,.41.11,2.29,2.29,0,0,1,.65.31,2.75,2.75,0,0,1,.26.22,1.91,1.91,0,0,1,.32.51,1.65,1.65,0,0,1,.11.73,1.67,1.67,0,0,1-.47,1,1.71,1.71,0,0,1-.25.22l-.33.2a8.39,8.39,0,0,1-1.46.5c-.8.21-1.54.38-2.23.6a5.52,5.52,0,0,0-1.65.72c-.16.12-.13.21,0,0s0-.43.14-.24.21.26.58.37a3.1,3.1,0,0,0,.74.13,7.67,7.67,0,0,1,1.25.16,3.88,3.88,0,0,1,.49.11l.29.09.42.2a3,3,0,0,1,1,.84,3.3,3.3,0,0,1,.36.73,2.34,2.34,0,0,1,.14.87,3.39,3.39,0,0,1-.18,1,4,4,0,0,1-.39.67,3.47,3.47,0,0,1-.25.29.69.69,0,0,1-.18.16c-.11.1-.23.19-.35.28a6.27,6.27,0,0,1-1,.51c-.54.21-.95.32-1.33.44l-1,.32a.94.94,0,0,0-.22.12h0a1.27,1.27,0,0,0,.25-.21,1.3,1.3,0,0,0,.18-.23,1.78,1.78,0,0,0,.21-.44,2,2,0,0,0,.09-.91c-.1-.37-.08-.32-.11-.4s0-.07,0-.08h0s.14.1.31.21a5.51,5.51,0,0,0,.67.38,8.39,8.39,0,0,0,1.62.56,6,6,0,0,0,1.58.14h.33l.29-.06,1.17-.28a26.61,26.61,0,0,1,5.25-.77,13.13,13.13,0,0,1,3,.25,9.91,9.91,0,0,1,1.59.45,6.19,6.19,0,0,1,.8.34l.71.36,4.09,2.22c11,5.78,22.19,11.41,33.49,16.68,5.67,2.56,11.39,5,17.21,7.29A180.3,180.3,0,0,0,215.09,124l-.08.62a99,99,0,0,1-18.91-2.76,179.31,179.31,0,0,1-18.26-5.67,217.76,217.76,0,0,1-34.41-16.38c-1.38-.81-2.75-1.61-4.12-2.46L139,97.2a2.44,2.44,0,0,0-.28-.14,3.68,3.68,0,0,0-.66-.23,7.29,7.29,0,0,0-1.67-.22,20.26,20.26,0,0,0-4.11.42l-1.13.21-.88.13h-.85a11.52,11.52,0,0,1-3.09-.48,13.62,13.62,0,0,1-2.75-1.17,9,9,0,0,1-1.32-.9,6.41,6.41,0,0,1-1.35-1.45,3.56,3.56,0,0,1-.34-.6,3.35,3.35,0,0,1-.19-2.45,2.94,2.94,0,0,1,.7-1.16,2.78,2.78,0,0,1,.7-.58,2.94,2.94,0,0,1,.55-.3,5.33,5.33,0,0,1,.87-.32c.49-.14.94-.24,1.31-.31s.74-.15.94-.21.16,0,.07,0a1.84,1.84,0,0,0-.7,1.46,1.76,1.76,0,0,0,.85,1.51.44.44,0,0,0,.16.06h-.07c-.07,0-.62-.15-1.08-.26a8.23,8.23,0,0,1-1.52-.51,5.09,5.09,0,0,1-1.62-1.13,4.57,4.57,0,0,1-1-1.75,3.48,3.48,0,0,1,.06-2.54,3.72,3.72,0,0,1,1.57-1.64,9.31,9.31,0,0,1,2.76-.9c.84-.15,1.66-.25,2.39-.35a4.25,4.25,0,0,0,.82-.14s-.06,0-.08.06l-.14.12a1.51,1.51,0,0,0-.18.26,1.28,1.28,0,0,0-.06,1.08,1.17,1.17,0,0,0,.24.38l.15.13c.16.1.14.07.12.06l-.16-.06c-.58-.17-1.41-.3-2.18-.45s-1.59-.32-2.42-.56A6.28,6.28,0,0,1,120.8,81a2.68,2.68,0,0,1-.59-.83,1.71,1.71,0,0,1,.08-1.57,2,2,0,0,1,1-.76,3.9,3.9,0,0,1,.76-.22,15.45,15.45,0,0,1,2.54-.21h4.73a15,15,0,0,0,2.22-.16,3.11,3.11,0,0,0,.79-.23h.06s0,0,0,0v.09h0a2.13,2.13,0,0,0-.42-.65c-.23-.28-.47-.55-.73-.81L129.57,74a6.91,6.91,0,0,1-.57-.51,4.41,4.41,0,0,1-.47-.58,3,3,0,0,1-.61-1.75,2.58,2.58,0,0,1,1-2,4.32,4.32,0,0,1,1.55-.8l.36-.11.53.22a70.87,70.87,0,0,0,9.11,2.89c3.11.79,6.24,1.5,9.38,2.11,6.28,1.27,12.56,2.45,18.91,3.41a108,108,0,0,0,19,1.53,52.88,52.88,0,0,0,9.39-1,23.85,23.85,0,0,0,8.76-3.34Z" transform="translate(60.39 21)" style="fill:#1d1d1b"/><path d="M181.23,281c1.72-.15,3.3-.15,5-.2l4.9-.14c3.26-.1,6.53-.22,9.79-.37q9.8-.48,19.6-1.11c13.07-.82,26.15-1.55,39.26-1.35,6.57.11,13.11.36,19.76,1.06,1.67.18,3.33.38,5.11.74.45.09.9.19,1.4.32.25.07.51.14.8.24a7.35,7.35,0,0,1,1.08.47,3.91,3.91,0,0,1,1.31,1.08,3.86,3.86,0,0,1,.78,1.71,4,4,0,0,1,.06.69V286l-.19,10.38c-.35,13.86-.84,27.71-1,41.55s.06,27.68-.17,41.6c0,1.75-.1,3.49-.18,5.26a52,52,0,0,1-.49,5.42,12,12,0,0,1-.38,1.57,4.18,4.18,0,0,1-.57,1.16,3.31,3.31,0,0,1-.39.44,2.42,2.42,0,0,1-.36.27,2,2,0,0,1-.46.23,2.31,2.31,0,0,1-.52.12h-.25c-.87.07-1.8.15-2.59.19l-4.92.26c-6.55.33-13.08.64-19.61.84-13.06.41-26.13.55-39.19.75l-19.59.2q-9.79,0-19.59-.06h-4.15v-4.33c0-9.23.07-18.45.26-27.68l.19-6.92.29-6.91c.17-4.62.46-9.23.72-13.84l1.78-27.65c.31-4.61.55-9.22.82-13.83.14-2.3.26-4.6.43-6.91.09-1.15.17-2.3.29-3.46,0-.58.12-1.15.21-1.73a4,4,0,0,1,.16-.89,3.47,3.47,0,0,1,.13-.46,1.19,1.19,0,0,1,.11-.26A.63.63,0,0,1,181.23,281Zm.13.81c.17,0,.13-.1.13,0a.31.31,0,0,0-.06.13,2,2,0,0,1-.09.37c0,.13-.1.54-.14.81-.08.56-.13,1.13-.18,1.7-.1,1.14-.17,2.28-.22,3.43-.09,2.3-.16,4.6-.18,6.9,0,4.6,0,9.21.17,13.82.23,9.21.79,18.42,1.27,27.63.22,4.61.49,9.22.66,13.82l.29,6.91.21,6.9c.24,9.21.38,18.43.52,27.63l-4.15-4.38q9.79,0,19.59.09l19.58.33c13.06.27,26.12.47,39.17.88l19.57.71,4.87.16h2.51a1.54,1.54,0,0,0-.37.09,1.26,1.26,0,0,0-.33.16l-.23.17a.91.91,0,0,0-.18.21c-.12.19,0,.09,0,0a6.13,6.13,0,0,0,.29-.92,46.88,46.88,0,0,0,.8-4.86c.21-1.68.36-3.39.5-5.1.56-6.84.8-13.76.95-20.66s.16-13.82,0-20.73c-.27-13.83-1.16-27.64-2-41.46l-.58-10.36-.07-1.31v-.17a3.35,3.35,0,0,0,.28.88,3.13,3.13,0,0,0,.58.82,2.69,2.69,0,0,0,.32.27l.15.1c.11.06,0,0-.07,0l-.38-.09c-.3-.06-.64-.12-1-.17-1.45-.19-3-.32-4.62-.44-6.36-.43-12.88-.62-19.37-.92-13-.54-26-1.48-39.08-2.35a386.59,386.59,0,0,0-39.11-1Z" transform="translate(60.39 21)" style="fill:#1d1d1b"/><path d="M93.74,153.88a13.51,13.51,0,0,1-5.84,1.21,16.87,16.87,0,0,1-5-.54c-.51-.17-1-.64-1.29-.67s-.37.4-.37.74v.47c0,.64-.85,1.25-1.46,1.25-.3,0-.91-.27-.91-.64v-.44c0-.14-.07-.47-.07-.71,0-.44.4-.27.57-.84a8.69,8.69,0,0,0,.14-1.25,7.53,7.53,0,0,1,.3-1.89,4,4,0,0,0,.14-.91c0-.38-.1-.71-.1-1.09a2.4,2.4,0,0,1,.23-.91,11.89,11.89,0,0,0,.88-2.23,46.5,46.5,0,0,1,1.28-4.62c.17-.64.34-1.29.48-2,.06-.41.1-.78.13-1.18s0-1.29.58-1.42h.23c.71,0,.85.88.85,1.42,0,.37-.07.75-.07,1.12,0,.64.2,1.28.27,2v.84c0,.3,0,1.45-.44,1.45-.23,0-.6-.4-.77-.4s-.37,1.35-.37,1.62c0,.1,0,.27.16.27.68,0,7.53-5.88,10.34-5.88.27,0,.5.1.5.41v.2c-.13.54-.27.88-.84.88a1.1,1.1,0,0,0-.47.1c-.81.41-2.13,1.28-2.91,1.79a39.89,39.89,0,0,0-4.56,3.17c-1.14,1-2.66,1.69-3,3.25a9.9,9.9,0,0,0-.33,2.16,1.85,1.85,0,0,0,.54,1.48c1.21,1.12,4,1.35,5.6,1.35a12.71,12.71,0,0,0,5.58-1,13,13,0,0,1,2.22-1c.14,0,.21.24.21.37C96.28,152.59,94.35,153.52,93.74,153.88Z" transform="translate(60.39 21)"/><path d="M105.16,153.88c-1.76.84-4.9,2.29-6.79,2.29a1.46,1.46,0,0,1-1.49-.71,7.61,7.61,0,0,1-.44-2.26c0-.1,0-.64-.17-.64s-1.89,1.18-3.07,1.18c-.2,0-.84-.07-.84-.37a.61.61,0,0,1,.23-.41c.17-.13,1.12-.53,1.39-.67a10.37,10.37,0,0,0,2-1.42,8,8,0,0,0,1.63-2.19c.27-.44,1-2,1.62-2a1.14,1.14,0,0,1,1,1.18,4.25,4.25,0,0,1-.64,1.76,10.39,10.39,0,0,0-1.21,3.84c0,.61.2.88.84.88a17.13,17.13,0,0,0,4.59-1.38c.54-.2,3.38-1.59,3.69-1.59.16,0,.2.27.2.37C107.69,152.63,105.8,153.52,105.16,153.88ZM102,139.29c-.72,0-1.56-.48-1.56-1.25,0-.54.41-1.22,1-1.22s1.79.81,1.79,1.52S102.52,139.29,102,139.29Z" transform="translate(60.39 21)"/><path d="M127.07,142.52c-.37.44-3.58.41-5.54.44l-5,.1a6.74,6.74,0,0,0-1.42.1.86.86,0,0,0-.4.21c-1.49,1.38-3.82,7.16-3.82,9.18,0,.64.21,1.19.92,1.19a2,2,0,0,0,.43-.07,17.79,17.79,0,0,0,4.29-1.62,6.71,6.71,0,0,1,1.73-.71c.2,0,.23.13.23.3,0,1.08-1.42,1.62-2.19,2a10.67,10.67,0,0,1-5.2,1.65,2.21,2.21,0,0,1-2.2-2,4.87,4.87,0,0,0-.17-1,.19.19,0,0,0-.2-.14c-.71,0-2.4,1.52-3.92,1.52-.2,0-.84-.07-.84-.37a.61.61,0,0,1,.23-.41c.17-.13,1-.53,1.29-.67a13.85,13.85,0,0,0,2.13-1.42,14.06,14.06,0,0,0,2.6-3.48c.5-.74,1.82-2.87,1.82-3.81,0-.27-.44-.34-.85-.34h-1.28c-1.31,0-3.61-.07-3.61-1.11,0-.78.78-1,1.42-1s1.15.31,2,.31c1.08,0,2.16-.1,3.24-.1.74,0,1.08-1.08,1.45-1.59a2.54,2.54,0,0,1,1.56-1.11c.51,0,.61.47.61.84,0,.64-.48,1.32-.48,1.65,0,.11.07.14.17.14a12.32,12.32,0,0,0,2.5.17h8c.27,0,.88,0,.88.41A1.49,1.49,0,0,1,127.07,142.52Z" transform="translate(60.39 21)"/><path d="M129.47,153.88a17.46,17.46,0,0,1-7.4,2.09c-2.77,0-4.49-1.42-4.49-4.29a6.67,6.67,0,0,1,3.14-5.54c.51-.37,1.52-1.38,2.33-1.38h.14a1.15,1.15,0,0,1,.74.2c.54.44.64,2.26.71,2.87v.24a1.61,1.61,0,0,1-1.52,1.65.72.72,0,0,1-.77-.67V149c0-.38.23-.68.23-1,0-.14-.07-.24-.2-.24a6.32,6.32,0,0,0-1,.51,2.94,2.94,0,0,0-.68.47,4.28,4.28,0,0,0-1,3.18c0,1.75,1.18,2.33,2.77,2.33a20.86,20.86,0,0,0,6.42-1.49,25.15,25.15,0,0,1,2.87-1.25c.17,0,.2.24.2.37C132,152.59,130.07,153.52,129.47,153.88Z" transform="translate(60.39 21)"/><path d="M142.37,155.13a8.09,8.09,0,0,1-1.83.27c-1.25,0-2-.58-2-1.9,0-1,.81-2,.81-2.73,0-.07,0-.3-.14-.3a34.51,34.51,0,0,0-3.1,2.43,7.71,7.71,0,0,0-2.06,2.16,1.12,1.12,0,0,1-1,.4c-.51,0-1.11-.27-1.11-.87,0-.34.1-.68.1-1v-.27c0-.27,0-.64-.2-.64a8.25,8.25,0,0,1-2.91,1.11c-.2,0-.84-.07-.84-.37a.61.61,0,0,1,.23-.41c.17-.13,1-.53,1.29-.67a15.17,15.17,0,0,0,2.13-1.42c.8-.64.77-1.89.87-2.87a15.84,15.84,0,0,1,2.43-7.94c.68-1.11,2.13-3,3.62-3s1.48,1.63,1.48,2.67A12.21,12.21,0,0,1,137,148c-.33.33-2.56,2.6-2.73,2.9-.07.1,0,.17-.07.27a5.55,5.55,0,0,0-.13.71c0,.2.17.24.33.24h.28a9,9,0,0,0,1.89-1.52l1.15-.95c.4-.34.77-.68,1.14-1.05s1-1.55,1.79-1.55,1.05.57,1.05,1.32a12,12,0,0,1-.34,2.46c-.1.54-.77,2.33-.77,2.6s.37.34.6.34c2.57,0,5.91-2.23,6.62-2.23.14,0,.21.24.21.37C148,153,143.45,154.82,142.37,155.13ZM138.45,139c-.51,0-1.08.71-1.32,1.08a14.66,14.66,0,0,0-2.53,7.4v.2c0,.07,0,.3.17.3.44,0,2-2.13,2.33-2.5A9.3,9.3,0,0,0,139,140.1c0-.37,0-1.15-.58-1.15Z" transform="translate(60.39 21)"/><path d="M157.15,152.76c-1.62,1.29-5.3,2.91-7.32,2.91s-3.52-1-3.52-3.14a9.76,9.76,0,0,1,.37-2.4,7.28,7.28,0,0,1,1.39-3.21,5,5,0,0,1,2.47-1.65,6.29,6.29,0,0,0,1.28-.38,1.34,1.34,0,0,1,.4-.06c.85,0,1.08,1.14,1.08,1.79a3.94,3.94,0,0,1-.13,1.08c-.47,2-.85,2.46-2.6,3.64-.31.21-1.72,1-1.72,1.39,0,.88.87,1.11,1.62,1.11a6.51,6.51,0,0,0,2.09-.4,28.41,28.41,0,0,0,2.94-1.15c.57-.24,1.11-.58,1.69-.81a2.16,2.16,0,0,1,.44-.1c.2,0,.3.1.3.27C157.93,152.09,157.46,152.52,157.15,152.76Zm-5.74-5.84a1.92,1.92,0,0,0-.91.4,3.63,3.63,0,0,0-1.82,3c0,.1,0,.2.13.2.58,0,2.16-1.52,2.47-2a2.85,2.85,0,0,0,.44-1.22c0-.21-.1-.38-.31-.38Z" transform="translate(60.39 21)"/><path d="M173.06,153.88a14.44,14.44,0,0,1-5.64,1.85,1.62,1.62,0,0,1-.44,0c-2.57,0-1.79-2.57-2.2-3.24a.18.18,0,0,0-.16-.1c-.71,0-2.34,1.68-2.74,2.22s-1.35,1.52-2.09,1.52-.71-.81-.71-1.31c0-.68.1-1.39.1-2.06,0-.17,0-.92-.27-.92s-2.43,1.86-4.09,1.86c-.2,0-.84-.07-.84-.37a.61.61,0,0,1,.23-.41c.17-.13,1.08-.57,1.36-.7a14.21,14.21,0,0,0,2.05-1.39,12.45,12.45,0,0,0,1.56-1.52c.47-.51,2.3-2.94,2.94-2.94.47,0,.94.17.94.71,0,1.32-1.69,4.12-1.69,5.1,0,0,0,.21.11.21.43,0,4.28-3.65,5.53-3.65.75,0,1,.81,1,1.41,0,1-.74,1.86-.74,2.84,0,.54.34.75.84.75a2.65,2.65,0,0,0,.48-.07,14.77,14.77,0,0,0,4.69-1.35,8.68,8.68,0,0,1,2.23-.92.59.59,0,0,1,.1.34C175.59,152.52,173.66,153.52,173.06,153.88Z" transform="translate(60.39 21)"/></svg>