<svg xmlns="http://www.w3.org/2000/svg" xmlns:xlink="http://www.w3.org/1999/xlink" viewBox="0 0 159.45 70.47"><defs><clipPath id="a" transform="translate(-0.55 -8.68)"><rect x="0.54" y="8.68" width="159.46" height="70.47" style="fill:none"/></clipPath></defs><rect width="159.45" height="70.47" style="fill:#fff"/><rect x="2.05" y="2.05" width="155.33" height="55.2" style="fill:#293d51"/><rect x="2.05" y="59.31" width="155.33" height="9.2" style="fill:#8194a0"/><g style="clip-path:url(#a)"><path d="M65.83,14.47c-.75,1.08-17.76,25.11-17.76,25.11A11.61,11.61,0,0,1,47,40.94a.59.59,0,0,1-1,0s-8.12-10.56-8.82-11.49V42.38L46,54.3a.58.58,0,0,0,1,0S65.76,27.74,65.83,27.63Z" transform="translate(-0.55 -8.68)" style="fill:#d10f4d"/><path d="M84.75,19.9V56.53h16.68c8.09,0,12.92-4.34,12.92-11.6a8,8,0,0,0-5-7.7l-1.12-.5,1-.63A7.64,7.64,0,0,0,113,29.28c0-6-4.18-9.38-11.45-9.38Zm6.17,13.55V25.61h10.35c3.52,0,5.31,1.44,5.31,4.26,0,1.93-.85,4.21-4.94,4.21H90.92Zm0,16.52V39.53H101.7c4,0,6.08,1.85,6.08,5.51s-2.22,5.56-6.08,5.56H90.92Z" transform="translate(-0.55 -8.68)" style="fill:#fff"/><path d="M134,19.83c5.87,0,10.13,2.46,12.69,7.27L141,29.74a7.68,7.68,0,0,0-7-3.82c-5.69,0-9.38,4.84-9.38,12.31s3.79,12.32,9.42,12.32c3.28,0,5.41-1.29,7.46-4.47.8.46,4.42,2.61,5.22,3.07-2.62,5-6.94,7.49-12.88,7.49-9.47,0-15.6-7.23-15.6-18.41,0-10.83,6.52-18.4,15.86-18.4" transform="translate(-0.55 -8.68)" style="fill:#fff"/><polygon points="36.62 11.22 42.85 11.22 42.85 26.59 36.61 18.4 36.62 11.22" style="fill:#fff"/><path d="M43.4,53.87v2.66H37.58L19.93,30.09l0,26.44H13.8V19.9h6.31c.38.56,17,25.68,17,25.68Z" transform="translate(-0.55 -8.68)" style="fill:#fff"/><polygon points="55.25 17.42 48.9 26.63 48.9 11.22 55.25 11.22 55.25 17.42" style="fill:#fff"/><path d="M49.46,54.22,55.8,45v11.6H49.46Z" transform="translate(-0.55 -8.68)" style="fill:#fff"/><path d="M79.05,19.9V56.53H72.71V40.61H58.77l4.28-6.2h9.66V19.9Z" transform="translate(-0.55 -8.68)" style="fill:#fff"/></g></svg>