<svg id="Layer_1" data-name="Layer 1" xmlns="http://www.w3.org/2000/svg" viewBox="0 0 630.42 624.07"><title>oven</title><path d="M240.77,822.18l-1.61-75q-.76-37.49-1.11-75c-.43-50-1.29-100-1.19-149.92l-.28-149.92c.58-50,.56-100,1.62-149.92l.12-5.63,5.44,0,441.76-1.89c36.84-.05,73.64,0,110.62,1.65a280.08,280.08,0,0,1,28,2.49,36.8,36.8,0,0,1,7.8,2,10.17,10.17,0,0,1,3,1.86,8.24,8.24,0,0,1,2.08,3.63c.46,1.44.72,2.62,1,3.84,1,4.77,1.74,9.33,2.44,14,2.75,18.37,4.66,36.69,6.58,55,7.5,73.38,12.53,146.9,16.21,220.54s5.72,147.41,1.2,221.56c-1.39,18.57-3,37.1-7.37,56a87.7,87.7,0,0,1-4.67,14.38,36.61,36.61,0,0,1-4.39,7.55c-1.68,2.58-5.82,5.42-8.34,6.35-10.39,4.07-19.44,5-28.88,6.4-37.23,4.4-74,5.27-110.95,6.17-73.76,1.47-147.42.52-221-1.39-73.62-1.7-147.2-4.92-220.72-8.9l.06-1.49c147.17,2.13,294.46,3,441.34-1.19,36.63-1.44,73.51-2.92,109.34-7.72,8.71-1.32,18.1-2.88,24.87-5.59,1.71-.88,1.52-.64,2.52-1.86a22.75,22.75,0,0,0,2.47-4.4,74.1,74.1,0,0,0,3.75-11.87c3.94-17,5.5-35.32,6.75-53.42,2.26-36.38,2.36-73.09,1.92-109.76s-1.29-73.42-2.76-110.13Q844,410.43,835.23,300.47c-1.53-18.29-3.21-36.6-5.3-54.71-.56-4.5-1.14-9-1.93-13.31-.2-1-.43-2.1-.64-2.85,0-.24-.55-.83.57.56.37.36.3.21,0,.1a29,29,0,0,0-5.53-1.5c-8.59-1.59-17.8-2.39-26.87-3.14-36.5-2.76-73.33-3.61-110.09-4.5-147.14-2.89-294.38,1.59-441.44,7.08l5.55-5.66c.67,50,.25,100,.43,149.92l-1.46,149.91c-.29,50-1.55,99.94-2.38,149.91-.38,25-1,50-1.7,75l-2.2,74.95Z" transform="translate(-236.58 -214.93)" style="fill:#1d1d1b"/><path d="M280,802.18q-1.78-51.1-2.6-102.18L276,597.83q-.39-51.09-.32-102.17c0-34.05.15-68.11.77-102.16l.12-6.27h6.08c59.59-.15,119.16.57,178.73,1s119.12-.48,178.7-.83q44.68-.63,89.42-.53c14.93.09,29.84.23,44.88.92,3.77.18,7.54.41,11.38.75,1.92.18,3.85.39,5.87.71,1,.17,2,.34,3.21.64a17.42,17.42,0,0,1,2,.59,10.36,10.36,0,0,1,1.36.61l.87.54a8.05,8.05,0,0,1,1.43,1.38,9.77,9.77,0,0,1,1.45,2.8l.55,1.7.79,3,1.2,5.7,2,11.18c9.11,59.28,14.13,118.68,18.14,178.31,1.92,29.81,3.23,59.69,3.31,89.67s-.32,60-6.19,90.59c-1.85,7.71-3.3,15.39-9,23.76a19.31,19.31,0,0,1-6.76,6,34.6,34.6,0,0,1-6.84,2.35,109.44,109.44,0,0,1-11.77,2.13c-15.27,2-30.19,2.73-45.17,3.44-29.92,1.29-59.75,1.68-89.58,1.85-59.64.41-119.22-.71-178.79-2.25s-119.1-3.75-178.6-6.84l0-1.5c119.12.5,238.24.44,357.18-1.9,29.72-.69,59.44-1.6,89-3.39,14.74-1,29.57-2,43.82-4.1,6.7-1.11,15.36-2.51,15.3-4.66,2.81-4,4.79-11.23,6.13-18,2.68-13.88,3.73-28.58,4.42-43.21s.93-29.44.87-44.23c-.17-29.57-1.16-59.23-2.54-88.88-3-59.24-7.58-118.69-14.79-177.39L793,408.31l-1-5.26-.56-2.42-.28-1c0-.21-.3-.55.27.29a3.76,3.76,0,0,0,.93.9l.26.18c.31.13,0,0,.09,0a5.94,5.94,0,0,0-.71-.23c-.63-.18-1.46-.35-2.26-.5-1.65-.3-3.41-.55-5.19-.79-3.56-.45-7.21-.82-10.87-1.14-14.68-1.24-29.54-2-44.38-2.62-29.7-1.28-59.47-1.93-89.23-2.55-59.53-.71-119.09-.84-178.62.75l-178.56,5.85,6.2-6.29c.28,34.06.12,68.11-.26,102.17s-.75,68.1-1.36,102.15L285.11,700q-1.39,51.08-3.64,102.14Z" transform="translate(-236.58 -214.93)" style="fill:#1d1d1b"/><path d="M812.78,284.88,531.9,288.67c-46.81.61-93.63,1.63-140.44,1.34-46.82-.48-93.64-.83-140.46-2.76v-.75c46.81-2.33,93.62-3.07,140.44-3.95,46.81-.69,93.63-.05,140.45.15l280.9,1.43Z" transform="translate(-236.58 -214.93)" style="fill:#1d1d1b"/><path d="M441.4,358.91l255.19-5.75-2.41,2.3,2.11-37.94L699,320.4l-167.1,2.35c-55.71.35-111.42-.12-167.13-1l1.64-1.76,1.09,40.37-.75.05-3.65-40.22-.15-1.7,1.79-.06c55.7-1.7,111.4-3,167.1-3.4L699,315h2.93l-.2,2.88-2.63,37.91-.16,2.29h-2.26l-255.25,1.59Z" transform="translate(-236.58 -214.93)" style="fill:#1d1d1b"/><path d="M411.81,516.34a60.76,60.76,0,0,1,12.54-14.59A36.42,36.42,0,0,1,442.74,494a39.34,39.34,0,0,1,19.91,3.27c6.56,2.69,11.41,8,15.16,13.3a44.5,44.5,0,0,1,7.39,18.16,21,21,0,0,1-6.12,18.42c-8.79,9.67-22.29,14.82-24.86,25.53l-.85,3.5-3.71-1.29a30.17,30.17,0,0,0-23.63,2l-2.2,1.15-2.45-1.82c-.89-.67-1.74-1.36-2.58-2.1s-2.41-1.87-3.48-2.87a31.3,31.3,0,0,1-5.44-7.17,41.15,41.15,0,0,1-4.79-16.29,56.42,56.42,0,0,1,.93-16.44A46.17,46.17,0,0,1,411.81,516.34Zm.64.4c-5.55,9.11-5,20.53-2.26,30.12a52.37,52.37,0,0,0,6,13.44,26.43,26.43,0,0,0,4.37,5.28l2.74,2.07q1.86,1.38,3.64,2.87l-4.65-.67a35.53,35.53,0,0,1,29.78-1.51l-4.55,2.22c2.21-7.1,8.15-12.27,13.59-15.56,5.59-3.34,11.06-6.13,15.75-10.15a16,16,0,0,0,6-15.76c-.86-6-4.31-11.47-8.37-15.91a36,36,0,0,0-14.35-9.86A52.86,52.86,0,0,0,443,500a34,34,0,0,0-17.24,4C420.31,506.75,415.86,511.49,412.45,516.74Z" transform="translate(-236.58 -214.93)"/><path d="M353.23,630.32a60.57,60.57,0,0,1-14.6-12.53,36.44,36.44,0,0,1-7.71-18.4,39.25,39.25,0,0,1,3.27-19.91c2.69-6.55,8-11.41,13.3-15.16a44.44,44.44,0,0,1,18.16-7.39,21,21,0,0,1,18.42,6.13c9.67,8.78,14.82,22.29,25.53,24.87l3.5.84-1.29,3.71a30.1,30.1,0,0,0,2,23.62l1.15,2.21-1.82,2.44c-.67.89-1.36,1.74-2.1,2.58s-1.88,2.42-2.88,3.48a30.87,30.87,0,0,1-7.17,5.44,41.12,41.12,0,0,1-16.28,4.8,56.49,56.49,0,0,1-16.45-.94A45.89,45.89,0,0,1,353.23,630.32Zm.4-.63c9.11,5.54,20.53,5,30.12,2.25a52.52,52.52,0,0,0,13.44-6,26.36,26.36,0,0,0,5.27-4.37l2.08-2.74c.92-1.23,1.87-2.45,2.86-3.63l-.67,4.65a35.49,35.49,0,0,1-1.5-29.78l2.21,4.56c-7.1-2.22-12.26-8.17-15.55-13.6-3.34-5.59-6.13-11.06-10.16-15.75a15.92,15.92,0,0,0-15.75-6c-6,.86-11.47,4.31-15.91,8.37a35.77,35.77,0,0,0-9.86,14.35,52.66,52.66,0,0,0-3.37,17.17,33.94,33.94,0,0,0,4,17.23C343.64,621.83,348.38,626.28,353.63,629.69Z" transform="translate(-236.58 -214.93)"/><path d="M467.21,688.9a60.76,60.76,0,0,1-12.53,14.6,36.44,36.44,0,0,1-18.39,7.71,39.16,39.16,0,0,1-19.92-3.27c-6.55-2.69-11.41-8-15.16-13.3a44.44,44.44,0,0,1-7.39-18.16,21,21,0,0,1,6.12-18.42c8.79-9.67,22.29-14.82,24.87-25.52l.84-3.5,3.72,1.28a30.19,30.19,0,0,0,23.62-2l2.2-1.16,2.44,1.83c.89.66,1.75,1.36,2.59,2.09s2.41,1.88,3.48,2.88a30.87,30.87,0,0,1,5.44,7.17,41.1,41.1,0,0,1,4.79,16.28,56.13,56.13,0,0,1-.93,16.45A45.89,45.89,0,0,1,467.21,688.9Zm-.63-.4c5.54-9.11,5-20.53,2.25-30.12a52.3,52.3,0,0,0-6-13.43,26.43,26.43,0,0,0-4.37-5.28l-2.74-2.07q-1.86-1.38-3.63-2.87l4.64.67a35.55,35.55,0,0,1-29.77,1.51l4.55-2.22c-2.21,7.1-8.16,12.27-13.6,15.56s-11.06,6.13-15.75,10.15a15.94,15.94,0,0,0-6,15.76c.86,6,4.31,11.46,8.37,15.9a35.77,35.77,0,0,0,14.35,9.86A52.67,52.67,0,0,0,436,705.3a34,34,0,0,0,17.23-4C458.71,698.49,463.17,693.75,466.58,688.5Z" transform="translate(-236.58 -214.93)"/><path d="M525.79,574.92a60.79,60.79,0,0,1,14.59,12.54,36.42,36.42,0,0,1,7.72,18.39,39.11,39.11,0,0,1-3.27,19.91c-2.69,6.56-8,11.42-13.3,15.17a44.72,44.72,0,0,1-18.16,7.39A21.06,21.06,0,0,1,495,642.2c-9.67-8.79-14.81-22.29-25.52-24.87l-3.5-.84,1.28-3.71a30.08,30.08,0,0,0-2-23.63l-1.15-2.2,1.83-2.46c.66-.89,1.35-1.74,2.08-2.58s1.88-2.41,2.88-3.48A31,31,0,0,1,478,573a41,41,0,0,1,16.29-4.8,56.08,56.08,0,0,1,16.44.94A45.84,45.84,0,0,1,525.79,574.92Zm-.4.63c-9.11-5.54-20.53-5-30.12-2.24a52.22,52.22,0,0,0-13.44,6,26.09,26.09,0,0,0-5.28,4.37l-2.07,2.74c-.92,1.23-1.88,2.45-2.88,3.64l.68-4.66a35.53,35.53,0,0,1,1.52,29.78l-2.22-4.55c7.1,2.21,12.27,8.16,15.56,13.6s6.13,11.06,10.15,15.75a15.92,15.92,0,0,0,15.76,6c6-.86,11.46-4.31,15.9-8.37a35.7,35.7,0,0,0,9.86-14.35,52.34,52.34,0,0,0,3.37-17.16,34,34,0,0,0-4-17.24C535.38,583.42,530.64,579,525.39,575.55Z" transform="translate(-236.58 -214.93)"/><path d="M463.09,602.62a26.58,26.58,0,0,1-6.61,17,23.85,23.85,0,0,1-17,8.11,25.42,25.42,0,0,1-18.13-6.94,26,26,0,0,1-8.07-18.12,26.62,26.62,0,0,1,7.17-19,25.39,25.39,0,0,1,19-7.92,23.64,23.64,0,0,1,17.82,9.11A27.7,27.7,0,0,1,463.09,602.62Zm-.75,0a19.43,19.43,0,0,0-7.83-15,23.37,23.37,0,0,0-15-4.48c-10.14.2-19.9,8.54-20.22,19.47a20.58,20.58,0,0,0,5.53,14.7,21.1,21.1,0,0,0,14.7,6.64,22.66,22.66,0,0,0,15.85-5.48A20.54,20.54,0,0,0,462.34,602.62Z" transform="translate(-236.58 -214.93)"/><path d="M631.62,516.34a60.72,60.72,0,0,1,12.53-14.59A36.46,36.46,0,0,1,662.54,494a39.38,39.38,0,0,1,19.92,3.27c6.55,2.69,11.41,8,15.16,13.3A44.5,44.5,0,0,1,705,528.76a21,21,0,0,1-6.12,18.42C690.1,556.85,676.6,562,674,572.71l-.84,3.5-3.71-1.29a30.19,30.19,0,0,0-23.64,2l-2.2,1.15-2.44-1.82c-.89-.67-1.75-1.36-2.58-2.1s-2.42-1.87-3.48-2.87a31.3,31.3,0,0,1-5.44-7.17,41,41,0,0,1-4.8-16.29,56.42,56.42,0,0,1,.94-16.44A45.94,45.94,0,0,1,631.62,516.34Zm.63.4c-5.54,9.11-5,20.53-2.25,30.12a52.37,52.37,0,0,0,6,13.44,26.43,26.43,0,0,0,4.37,5.28l2.74,2.07c1.23.92,2.45,1.88,3.63,2.87l-4.64-.67a35.53,35.53,0,0,1,29.78-1.51l-4.56,2.22c2.21-7.1,8.16-12.27,13.6-15.56s11.06-6.13,15.75-10.15a15.93,15.93,0,0,0,6-15.76c-.85-6-4.31-11.47-8.36-15.91A35.93,35.93,0,0,0,680,503.32,52.81,52.81,0,0,0,662.84,500a33.94,33.94,0,0,0-17.23,4C640.12,506.75,635.66,511.49,632.25,516.74Z" transform="translate(-236.58 -214.93)"/><path d="M573,630.32a60.72,60.72,0,0,1-14.59-12.53,36.35,36.35,0,0,1-7.71-18.4A39.24,39.24,0,0,1,554,579.48c2.69-6.55,8-11.41,13.31-15.16a44.44,44.44,0,0,1,18.16-7.39,21,21,0,0,1,18.42,6.13c9.67,8.78,14.82,22.29,25.52,24.87l3.5.84-1.28,3.71a30.06,30.06,0,0,0,2,23.62l1.15,2.21-1.82,2.44c-.67.89-1.37,1.74-2.1,2.58s-1.88,2.42-2.88,3.48a31.08,31.08,0,0,1-7.17,5.44,41.12,41.12,0,0,1-16.29,4.8,56.42,56.42,0,0,1-16.44-.94A45.94,45.94,0,0,1,573,630.32Zm.4-.63c9.11,5.54,20.54,5,30.12,2.25a52.22,52.22,0,0,0,13.44-6,26.43,26.43,0,0,0,5.28-4.37l2.07-2.74c.92-1.23,1.88-2.45,2.87-3.63l-.67,4.65A35.53,35.53,0,0,1,625,590.05l2.22,4.56c-7.1-2.22-12.27-8.17-15.56-13.6-3.34-5.59-6.13-11.06-10.15-15.75a15.94,15.94,0,0,0-15.76-6c-6,.86-11.47,4.31-15.91,8.37A36,36,0,0,0,560,581.93a52.92,52.92,0,0,0-3.37,17.17,33.94,33.94,0,0,0,4,17.23C563.45,621.83,568.18,626.28,573.43,629.69Z" transform="translate(-236.58 -214.93)"/><path d="M687,688.9a60.58,60.58,0,0,1-12.54,14.6,36.41,36.41,0,0,1-18.39,7.71,39.13,39.13,0,0,1-19.91-3.27c-6.56-2.69-11.41-8-15.16-13.3a44.46,44.46,0,0,1-7.4-18.16,21,21,0,0,1,6.13-18.42c8.78-9.67,22.28-14.82,24.87-25.52l.84-3.5,3.71,1.28a30.18,30.18,0,0,0,23.62-2l2.2-1.16,2.45,1.83c.89.66,1.75,1.36,2.58,2.09s2.42,1.88,3.49,2.88a30.83,30.83,0,0,1,5.43,7.17,41,41,0,0,1,4.8,16.28,56.47,56.47,0,0,1-.93,16.45A46.11,46.11,0,0,1,687,688.9Zm-.63-.4c5.54-9.11,5-20.53,2.24-30.12a52.3,52.3,0,0,0-6-13.43,26.09,26.09,0,0,0-4.37-5.28l-2.74-2.07c-1.23-.92-2.45-1.88-3.63-2.87l4.65.67a35.57,35.57,0,0,1-29.78,1.51l4.56-2.22c-2.22,7.1-8.17,12.27-13.6,15.56-5.59,3.34-11.06,6.13-15.75,10.15a15.92,15.92,0,0,0-6,15.76c.85,6,4.31,11.46,8.37,15.9a35.77,35.77,0,0,0,14.35,9.86,52.61,52.61,0,0,0,17.16,3.38,34.06,34.06,0,0,0,17.24-4C678.52,698.49,683,693.75,686.39,688.5Z" transform="translate(-236.58 -214.93)"/><path d="M745.6,574.92a61,61,0,0,1,14.59,12.54,36.42,36.42,0,0,1,7.72,18.39,39.32,39.32,0,0,1-3.27,19.91c-2.69,6.56-8,11.42-13.3,15.17a44.78,44.78,0,0,1-18.16,7.39,21.06,21.06,0,0,1-18.42-6.12c-9.68-8.79-14.82-22.29-25.53-24.87l-3.5-.84,1.29-3.71a30.12,30.12,0,0,0-2-23.63l-1.15-2.2,1.83-2.46c.66-.89,1.36-1.74,2.09-2.58s1.88-2.41,2.88-3.48a30.83,30.83,0,0,1,7.17-5.43,41,41,0,0,1,16.29-4.8,56.08,56.08,0,0,1,16.44.94A45.92,45.92,0,0,1,745.6,574.92Zm-.4.63c-9.11-5.54-20.54-5-30.12-2.24a52.22,52.22,0,0,0-13.44,6,26.09,26.09,0,0,0-5.28,4.37l-2.07,2.74c-.93,1.23-1.89,2.45-2.88,3.64l.68-4.66a35.53,35.53,0,0,1,1.51,29.78l-2.21-4.55c7.1,2.21,12.26,8.16,15.55,13.6s6.13,11.06,10.15,15.75a15.93,15.93,0,0,0,15.76,6c6-.86,11.47-4.31,15.91-8.37a35.7,35.7,0,0,0,9.86-14.35A52.86,52.86,0,0,0,762,606.15a34,34,0,0,0-4-17.24C755.18,583.42,750.45,579,745.2,575.55Z" transform="translate(-236.58 -214.93)"/><path d="M682.9,602.62c-.1,6.07-1.4,12.6-5.51,18.07a20.79,20.79,0,0,1-18.07,8.24c-7-.54-13-4.36-17.26-9a30.18,30.18,0,0,1-8-17.26C632,589,644.73,575,659.32,575.44c7.09.1,14.2,3.41,18.14,9S682.88,596.53,682.9,602.62Zm-.75,0c.05-6.08-3.59-11.63-8.16-14.67a25.6,25.6,0,0,0-14.67-4.55,21.3,21.3,0,0,0-13.93,5.3,23.24,23.24,0,0,0-7.23,13.93,18.13,18.13,0,0,0,5.61,15.55c4.33,4,10.37,5.12,15.55,4.54a31,31,0,0,0,14.75-5.35C678.6,614.27,682.29,608.72,682.15,602.62Z" transform="translate(-236.58 -214.93)"/></svg>