<?xml version="1.0" encoding="utf-8"?>
<!-- Generator: Adobe Illustrator 24.0.3, SVG Export Plug-In . SVG Version: 6.00 Build 0)  -->
<svg version="1.1" id="Layer_1" xmlns="http://www.w3.org/2000/svg" xmlns:xlink="http://www.w3.org/1999/xlink" x="0px" y="0px"
	 viewBox="0 0 636 601.5" style="enable-background:new 0 0 636 601.5;" xml:space="preserve">
<style type="text/css">
	.st0{fill:#1D1D1D;}
</style>
<title>plumbing</title>
<path d="M3.4,83.6C2.7,70.5,2,57.5,1.5,44.4C1,31.3,0.5,18.2,0.1,5.2L0,1.9l3.4-0.1c14.6-0.4,29.1-0.8,43.7-1
	c14.5-0.2,29.1-0.4,43.6-0.6C119.9-0.1,149,0,178.1,0h5.7l0.1,5.7c0.3,26.6,0.9,53.2,0.9,79.8v5.5l-5.4-0.2
	c-14.1-0.4-28.1-0.8-42.2-1.4s-28.1-1-42.2-1.8s-28.1-1.4-42.2-2.2s-28.1-1.7-42.2-2.8c14.1-0.6,28.2-1,42.3-1.4
	c14.1-0.3,28.2-0.6,42.2-0.8c14.1-0.2,28.2-0.3,42.2-0.3s28.2,0,42.2,0l-5.4,5.4c-0.9-26.6-1.3-53.2-2-79.8l5.8,5.7
	c-29.1-0.3-58.2-0.4-87.3-1c-14.5-0.2-29.1-0.5-43.6-0.9C32.5,9.3,18,8.9,3.4,8.4l3.3-3.3C6.4,18.1,5.9,31.2,5.4,44.3
	S4.2,70.5,3.4,83.6z"/>
<path class="st0" d="M3.5,82.3c-0.1,1.3-0.1,1-0.1,1.2C3.6,81,3.5,82.4,3.5,82.3z"/>
<polygon class="st0" points="4.8,56.7 4.8,57.2 5,53.4 "/>
<path class="st0" d="M5.8,32.7c-0.1,2.4-0.3,8.7-0.5,13v0.7l-0.1,1.9C5.5,43.1,5.7,36.4,5.8,32.7z"/>
<path class="st0" d="M6.3,19.9c0,0.8,0.1-2.8-0.1,3v-0.5L6.3,19.9z"/>
<path class="st0" d="M6.2,22.4C6.1,24.9,6.3,20.7,6.2,22.4z"/>
<path class="st0" d="M6.6,10.7L6.5,14c0-0.7,0.1-3.7,0.1-2.6C6.8,8.1,6.7,8.8,6.6,10.7z"/>
<path class="st0" d="M6.8,7.6L6.7,9.3C6.7,9,6.7,8.5,6.8,7.6z"/>
<path class="st0" d="M6.6,12.9l0.1-3.7c0,0.5,0,0.5-0.1,1.7C6.6,10.7,6.6,11.4,6.6,12.9z"/>
<path class="st0" d="M6.5,15c-0.1,1.9-0.2,4.3,0,0.9C6.2,22.3,6.3,21.4,6.5,15z"/>
<path class="st0" d="M5.9,31.5L5.8,34l-0.1,2.2C5.7,35.1,5.9,31.8,5.9,31.5z"/>
<path class="st0" d="M13.9,8.9l-1.4-0.1l-2.5-0.1L13.9,8.9z"/>
<path class="st0" d="M12.6,8.9L16.2,9C12.9,8.9,12.4,8.9,12.6,8.9z"/>
<polygon class="st0" points="6.8,7 6.6,13 6.8,5.8 "/>
<polygon class="st0" points="28,9.3 25.9,9.3 29.6,9.4 "/>
<path class="st0" d="M37.3,9.6c-1.5,0,2.1,0.1,0.5,0l6.6,0.2L37.3,9.6z"/>
<path class="st0" d="M47.7,9.9l-3.3-0.1L47.7,9.9z"/>
<path class="st0" d="M22.5,9.2l2.9,0.1l-1.5-0.1L22.5,9.2z"/>
<path class="st0" d="M23.9,9.2L23.9,9.2l3.2,0.1L23.9,9.2z"/>
<path class="st0" d="M22.1,9.2L22.1,9.2z"/>
<path class="st0" d="M6.6,8.7c2.2,0.1,6.7,0.2,2.3,0.1C7.3,8.7,9.8,8.8,6.6,8.7z"/>
<path class="st0" d="M20.3,9.1L16.4,9c0.1,0,0.8,0-0.3,0L20.3,9.1z"/>
<polygon class="st0" points="22.2,9.1 20.3,9.1 21.8,9.1 "/>
<path class="st0" d="M41,9.7l5.6,0.2l-6.8-0.2C39.6,9.7,38.6,9.7,41,9.7z"/>
<path class="st0" d="M32.7,9.5L32.7,9.5z"/>
<path class="st0" d="M67.1,10.3L67.1,10.3z"/>
<path class="st0" d="M39.5,9.7l-3.6-0.1l4,0.1L39.5,9.7z"/>
<path class="st0" d="M53.4,10.1L50.5,10L53.4,10.1z"/>
<path class="st0" d="M33.6,9.5L33.6,9.5z"/>
<path class="st0" d="M33.6,9.5l2.2,0.1l-2.8-0.1L33.6,9.5z"/>
<path class="st0" d="M73.4,10.4l-8.5-0.2c-3.8-0.1-1.3,0,2,0.1c0.1,0,0.1,0,4,0.1c-1.4,0-8.6-0.2-5.3-0.1l6.7,0.1
	c-2.1-0.1,6.5,0.1,5.4,0.1l-4.5-0.1C73,10.4,74.6,10.4,73.4,10.4z"/>
<path class="st0" d="M59.5,10.2h-1.6l5.5,0.1l3.4,0.1l-7.8-0.2L59.5,10.2z"/>
<path class="st0" d="M50.7,10c1.2,0,5.1,0.1,2.7,0l-6.1-0.1C54.9,10,45.2,9.9,50.7,10l-4.1-0.1l3.9,0.1L50.7,10c2.2,0,0.3,0-0.3,0
	h-0.1l7.5,0.2L50.7,10z"/>
<path class="st0" d="M12.9,8.8h0.2C13.6,8.8,13.8,8.8,12.9,8.8z"/>
<path class="st0" d="M16,8.9l-2.8-0.1c-1.6-0.1,0,0-0.1,0c-1.1,0-3.8-0.1-0.4,0h0.5L19.7,9L16,8.9z"/>
<path class="st0" d="M33.6,9.5l6.3,0.2l-3.2-0.1h0.2C33.3,9.4,34,9.5,33.6,9.5z"/>
<polygon class="st0" points="67.9,10.4 67,10.4 70.7,10.4 "/>
<polygon class="st0" points="76,10.5 75.7,10.5 77.9,10.6 "/>
<path class="st0" d="M104.3,88.2l1.8,0.1L104.3,88.2z"/>
<path class="st0" d="M91,87.6h-0.3C91.3,87.6,91.5,87.6,91,87.6z"/>
<path class="st0" d="M176.7,80.3c-2.7,0-5.7,0-5.4,0H176.7z"/>
<path class="st0" d="M39.5,81.9h0.8l1.8-0.1L39.5,81.9z"/>
<path class="st0" d="M37.6,82.1L34,82.2L37.6,82.1z"/>
<path class="st0" d="M159.6,11.6l5.8,0.1L159.6,11.6z"/>
<path class="st0" d="M99.1,88l1.6,0.1L99.1,88z"/>
<path class="st0" d="M172.1,11.8h-1.2h-5.5H172.1z"/>
<path class="st0" d="M17.8,1.6L17.8,1.6z"/>
<path class="st0" d="M2.3,61.2c0-0.8-0.1-2-0.2-3.2C2.2,58.6,2.2,59.6,2.3,61.2z"/>
<path class="st0" d="M108.9,11.1C107.1,11.1,108.6,11.1,108.9,11.1z"/>
<path class="st0" d="M100.4,10.9L100.4,10.9z"/>
<path class="st0" d="M172.3,9.2v0.1C172.3,8.8,172.3,8.9,172.3,9.2z"/>
<path class="st0" d="M106.3,11h2.2H106.3z"/>
<path class="st0" d="M106.6,11h-1.5H106.6z"/>
<path class="st0" d="M111.3,11.1h-2.8h0.4H111.3z"/>
<path class="st0" d="M159.6,0.2L159.6,0.2z"/>
<path class="st0" d="M131.7,80.6L131.7,80.6z"/>
<path class="st0" d="M125.5,80.6l6.1-0.1h-2L125.5,80.6z"/>
<path class="st0" d="M136.3,89.5l-4.4-0.2c5.3,0.2,9.1,0.3,5,0.2l-17.6-0.7l-2.9-0.1l1.8,0.1l-11.4-0.5l-2.5-0.1l-5.6-0.2
	c-1.6-0.1-1.2-0.1,0.4,0c-2.8-0.1-5.7-0.2-8.5-0.4h0.1l-5.3-0.3c-2.2-0.1,1.1,0,0.5,0L81.1,87l5.2,0.3L73,86.6l4.5,0.2L66,86.3
	c1.2,0.1,10.1,0.5,5,0.3l-6.1-0.3l-6.1-0.3H59l-5.5-0.3l-5.9-0.4c-6.5-0.4,4.5,0.3-3.2-0.2l-15.7-1c-3.8-0.3,0.7,0-0.7-0.1l-3.4-0.2
	c-0.8-0.1-0.6,0-0.4,0l-4.7-0.3l-2.9-0.2l-2.4-0.2L12.9,83c-0.3,0-0.6,0-0.9-0.1h-0.6h0.5c-0.1,0,0.1,0-0.1,0l2.1-0.1l2.3-0.1
	c1.4,0-0.7,0-0.2,0l12.7-0.4l5.3-0.2c-3.9,0.1,1.1-0.1,5.4-0.2l-3.4,0.1l7-0.2c0.8,0,0.1,0-1,0l1.3,0c2.5-0.1,1.2,0-0.6,0L40.3,82
	c-1.7,0.1-3.3,0.1-3,0.1l2.3-0.1h-0.5l2.1-0.1h1.6h0.4l9.1-0.3l22.5-0.5c-2.6,0.1-0.5,0-0.7,0.1l-13.4,0.2c2.8,0,2.2,0,1.5,0
	l9.5-0.2c-0.2,0,2,0,4.5,0c-1.9,0,7.1-0.1,11-0.2c0.2,0-0.7,0-5.4,0.1l11.9-0.2h-2.2c2.7-0.1,9.3-0.1,7.8-0.1H98l24.5-0.2
	c0.1,0-1,0-1.5,0.1l13.7-0.2c-1.2,0,3.4,0.1-2.9,0.1h8c-1.2,0-3.1,0-1.4,0l9,0c-1.9,0,0.2,0,3.2,0c-0.3,0.1-0.6,0.1-0.8,0h7.4
	c-1.8,0-0.3,0,1.3,0h5.2h8.2h3.3h4.3c0,0-0.1,0.1-0.1,0.1l-0.3,0.3l0.2-0.3c0,0,0.1-0.1,0.1-0.1h-0.1c-0.1,0-0.2,0-0.3,0
	c0,0,0.3,0,0.4,0.1l-1.5,1.5l-1.6,1.6l-1.2,1.2l-0.7,0.7l-0.2,0.2l-0.1,0.1h0v0v-0.5c-0.1-2.8-0.2-6.3-0.3-9.9v-1.4l-0.1-5.6
	c0,1.8,0.2,5.1,0.3,8.6c0.1,1.8,0.1,3.6,0.2,5.3c0,0.9,0.1,1.7,0.1,2.5c0,0.3,0,0.6,0.1,0.9l0.6-0.6l-0.6,0.6h-0.1v-0.9
	c0-0.4,0-1-0.1-3.3c0-1.6,0.1,2.5,0.1,3.9l-0.4-11c0-0.8-0.2-7.2-0.2-7.9l0.3,11.8c0,0.5-0.2-6.8-0.4-14.5c0-2,0.1,1.5,0.1,1.3
	c0-1-0.2-7.3-0.2-8l0.1,3.2c-0.1-4.3-0.2-7-0.3-12.1c0-1.8-0.1-5.1-0.1-5.6c0,2.9,0,3.5-0.1,1.5l-0.2-11.3c0-2.9,0.2,4.4,0.1,1.9
	c0-0.2-0.1-1.7-0.1-2.4c0-1.9,0,0.8-0.1-3.3c0-0.7-0.2-8.2-0.1-1.9c-0.1-4-0.1-4.2-0.2-8.9c0,1.5-0.2-4.2-0.3-8.1c0-0.4,0-0.7,0-1.1
	c0-1,0-2-0.1-2.9V6c0,0,0,0,0,0l0.2,0.2l0.5,0.5l0.9,0.9l3.4,3.3l0.4,0.4l0.2,0.2l0.1,0.1h0h-1.2h-2.3l-5.2-0.1
	c-0.7,0-4.4-0.1-2.8-0.1h-4.4c-4.5-0.1,5.2,0.1,1.8,0l-9.4-0.1c1,0,7.7,0.1,11,0.1h-3.9l-9.8-0.1c-6.3-0.1-2.7-0.1-3.8-0.1
	l-19.8-0.2c-3.9-0.1-0.2-0.1-1-0.1l11.3,0.1l-4.3-0.1l6.9,0.1L112,11c-1.6,0-4.4,0-3.1,0h2.9c2.6,0.1-5.4,0-1.8,0l-13.6-0.1h-1
	l5.1,0.1l-10.8-0.1l3.8,0.1c-3.9,0-8.7-0.1-13.5-0.2l4.5,0.1c-3-0.1,12.3,0.2,7.6,0.1l10.7,0.2c-0.1,0-1.6,0,2.4,0h0.9H104l10.6,0.1
	c2.4,0-1,0,0.3,0h3.3c0.3,0,6.4,0.1,0.7,0.1l5.1,0.1l9.7,0.1c2.4,0,6.1,0.1,4,0l8,0.1h0.1l25.2,0.3h4.2h2.6h0.6
	c-0.1-0.1-0.2-0.3-0.4-0.4l-0.6-0.6l-1.1-1.1l-0.6-0.6l-2.2-2.1l-0.6-0.6l-0.4-0.4l-0.3-0.3c0,0,0,0.2,0,0.3v1.9
	c0.1,2.3,0.1,4.4,0.1,5.1c0.1,3.8,0.4,16.5,0.5,22.5v0.2c0.1,4.1,0.2,8.1,0.4,13.2v-0.3c0.1,4.4,0.3,11.4,0.4,18.3
	c0-0.5,0-2.2-0.1-3.5c0.1,4.2,0.2,8.6,0.3,12.9c0.1,2.1,0.1,4.3,0.2,6.3v1.5V85v0.4c0,0.2,0,0.3,0,0.5l2.2-2.2l3.4-3.4l-0.5,0.5
	l0.3-0.3c0.1-0.1,0.2-0.2,0.2-0.2H173h-0.9h-0.5c-2.1,0-1.7,0-0.6,0h-2.9h-8h-12h-6.5h-1l-5.3,0c-3.2,0-4.5,0-1.4,0l-12.7,0.1h0.3
	l-7.5,0.1l-16.5,0.1L75,81c2.6,0-6.2,0.1-6.8,0.1c-0.8,0-2.6,0-0.5,0l-15,0.3c-0.8,0,1.5,0,0.8,0l-2.9,0.1l2.1-0.1
	c-7,0.2-7.7,0.3-8.2,0.3L36.7,82c-1.2,0-3.3,0.1,1,0l-15.1,0.5l-4,0.1l-7.3,0.2h-0.3h-0.3l0,0h0.1H11h0.3h0.3l0.7,0l1.5,0.1
	l-1.5-0.1l8.8,0.6H21l14.1,0.9l-0.5,0l14.3,1l-2-0.1l5.9,0.4l5.9,0.3l-2-0.1l7.1,0.4c1.1,0.1-1.5-0.1,2.6,0.1l17.4,0.9
	c-1.2-0.1-2.5-0.1,0.4,0c4.3,0.2,11.7,0.6,15.6,0.8h0.8l12.8,0.5l20.5,0.9c3.4,0.2,6.8,0.2,10.2,0.4h-0.3l11.1,0.4
	c1.5,0,0.4,0,0.3,0l18.4,0.6h0.8l8.9,0.3h0.8h0.4c0,0,0.2,0,0.2,0v-2c0-1.2,0-2.4,0-3.6c0-2.4,0-4.9-0.1-7.2v1
	c-0.1-10.5-0.3-24.8-0.3-29l-0.1-6.9c0.1,9,0-1.3,0,2.4c0-3.5-0.1-9.1,0-4.8v0.7c0-1.8-0.1-10.2-0.1-10.9
	c-0.1-8.8-0.2-17.5-0.3-26.1c0-1.1,0-2.1,0-3.2V0.1c0-0.1,0-0.1-0.1-0.1h-8.1h-12.5h1.9h-5.8c-1.5,0-2,0,2.1,0h-7c-8,0,3.1,0,0.7,0
	h-2.6h-7.9h-4.7h-7.3h2.9c-3.2,0-6.8,0-3.5,0L102,0.1c-4.5,0-9,0-14.5,0.1c1.4,0,2.2,0-2.6,0.1c1.7-0.1-8.7,0.1-12.5,0.1
	c3.4,0-13.5,0.2-8.1,0.1c-4,0-0.2,0-3.2,0L45.6,0.7L28.5,1.1c-0.2,0,1.8,0-0.7,0l-6.2,0.1l-6.3,0.1c0.6,0,1.5,0-0.1,0L6.6,1.5
	L2.3,1.6L0.1,1.7c0,0.7,0,1.5,0,2.2c0.2,5.8,0.4,11.7,0.6,17.5c0.4,11.7,0.8,23.5,1.4,35.1c-0.1-3.1,0-1,0.1,1.4c-0.1-1.6,0,0,0-0.3
	l0.5,9.7c0.1,1.9,0.5,10.2,0.6,11.4l-0.2-3.1c0.2,4.1-0.3-5.7-0.2-5.1c-0.2-4.6-0.6-12-1-19.6c-0.1-1.7,0.1,1.4,0,0.5
	c-0.1-1.9-0.2-4.2-0.4-8.5v0.5c-0.4-12-0.6-17.1-1.1-30.6v1C0.3,11,0.3,10.3,0.2,9c-0.1-3.3,0.3,8.1,0.2,5.1c-0.1-2-0.2-7-0.4-12
	C0,2,0,1.7,0,1.7h0.4h0.9l1.8-0.1l3.3-0.1l4.1-0.1l3.1-0.1h1.2H16l4.5-0.1l-2.8,0.1l12-0.3l-4.3,0.1L45,0.8l19.2-0.3h-0.9l17-0.2H80
	l7.3-0.1c-2.5,0,4.7,0,1.4,0L100,0.1h1.5l7.3-0.1c-4,0,3.1,0-1.4,0h20c4.7-0.1-8.9,0-6.3,0c-2.2,0,3.9,0,7.1-0.1h12.2h9.9
	c2.1,0,4.9,0,5.5-0.1h-7.6l15.5-0.1h-4.1h6.1L151.9,0c2.2,0,8.7-0.1,6.4,0l13.8-0.1h-0.4h4.4h-3h6.6h4c0,0,0,0.1,0,0.3v0.4
	c0,0.5,0,1.1,0,1.6V0.7V0.1c0-0.1,0-0.2,0-0.2h-2.4c0.1,0,1,0-1,0h3.2c0.1,0,0.3,0,0.3,0c0,1,0,1.7,0,2.4v3.1c0,1.8,0,3.8,0.1,10
	c0-1.7-0.1-6.4,0-3.7c0,2.4,0,5.6,0.1,7c0.1,8.4,0-1.3,0,2.3c0,2.9,0,4.1,0.1,7.8l0,0c0.1,9.4,0,2.6,0.1,11.1l-0.1-3.6l0.1,4.5v-0.9
	l0.1,11.1c0-1.1,0,0.6,0.1,4.8c0,2.7,0-1.3,0,4.4c0-1.4,0-2.8-0.1-5.4c0-0.3,0-1.3,0-1.6c0,3.1,0.1,7.8,0.1,9.9c0-0.8,0-1.8,0-2.3
	l0.1,8.7c0,1.4,0,0.3,0-0.8c0,1.8,0,3,0.1,5.5l-0.1-4.2l0.1,8.2c0,0.5,0,4.2,0,3.2c0,2.3,0.1,5.1,0.1,8.1v1.4l0,0h-0.7l-2.3-0.1
	l-4.6,0.2l-2.2-0.1l-17.5-0.5l-3.8-0.1c-5.3-0.2,5.2,0.2-3.6-0.1l-4.5-0.2c-3.1-0.1-8.5-0.2-14.2-0.5L136.3,89.5z M71.1,86.6
	l4.7,0.2L71.1,86.6z M49.1,81.7l-4,0.1L49.1,81.7z M127.8,11.3h0.1C130.8,11.3,129.8,11.3,127.8,11.3z M122,11.2h-0.3h3.2H122z
	 M141.1,0.1h1.1C139.7,0.1,140.4,0.1,141.1,0.1L141.1,0.1z"/>
<path class="st0" d="M37.8,82h-0.5C36.8,82.1,36.8,82.1,37.8,82z"/>
<path class="st0" d="M176.9,90.9L176.9,90.9z"/>
<path class="st0" d="M173,32.5c0,1.2,0,1.9,0,2.3C173,34.9,173,34.3,173,32.5z"/>
<path class="st0" d="M91,10.9h3.8h-3.4C91.4,10.9,92.1,10.9,91,10.9z"/>
<path class="st0" d="M58.4,10.1h-1.7h0.1C59.2,10.1,60.8,10.1,58.4,10.1z"/>
<path class="st0" d="M87.5,10.7l-5.3-0.1h0.5C81.9,10.6,84.7,10.7,87.5,10.7z"/>
<path class="st0" d="M81.6,10.6l-2.4-0.1L81.6,10.6z"/>
<path class="st0" d="M114.5,11.1H113C111.7,11.1,121.4,11.2,114.5,11.1z"/>
<polygon class="st0" points="85.3,10.6 86.3,10.7 87.8,10.7 "/>
<path class="st0" d="M106.1,10.9h-4.2h-1.1H106.1z"/>
<path class="st0" d="M100.8,10.9h-3.4H100.8z"/>
<polygon class="st0" points="91.1,10.8 92.3,10.8 95.3,10.8 "/>
<path class="st0" d="M151.2,11.4h4.6c0.5,0-0.8,0-2.5,0C152.2,11.4,150.5,11.4,151.2,11.4z"/>
<path class="st0" d="M137.4,11.3h2h0.1H137.4z"/>
<path class="st0" d="M150.7,11.4c0.5,0,6.6,0,0.8,0C151.1,11.4,146.5,11.3,150.7,11.4z"/>
<polygon class="st0" points="173.1,39.6 173,38.4 173,38.6 "/>
<path class="st0" d="M172.5,80.6h6.2c1.3,0-4,0-2.7,0C172.8,80.5,171,80.5,172.5,80.6z"/>
<path class="st0" d="M176,80.5L176,80.5z"/>
<polygon class="st0" points="3,74 3.1,77.5 3,75.2 "/>
<path class="st0" d="M3.3,80.7v0.8l0.1,2.1C3.4,82.8,3.3,81.3,3.3,80.7z"/>
<path class="st0" d="M61.4,86.1h-0.3l3,0.1L61.4,86.1z"/>
<polygon class="st0" points="108.7,88.4 107.9,88.3 109.4,88.4 "/>
<path class="st0" d="M148.4,89.9l-5.1-0.2L148.4,89.9z"/>
<path d="M164.8,299.7c-0.7-8.2-1.1-16.3-1.6-24.5s-0.9-16.3-1.2-24.5c-0.7-16.3-1.1-32.7-1.4-49c-0.2-16.3-0.5-32.7-0.4-49
	c0-8.2,0.2-16.3,0.4-24.5l0.9-24.5l3.8,3.9l-36-2.3c-12-0.7-24-1.2-36-1.6c-12-0.3-24-0.5-36-0.5l-36,0.2l3.3-3.2
	c0.6,16.7,1.2,33.4,1.4,50.1c0.4,16.7,0.5,33.4,0.7,50.1s0.5,33.4,0.3,50.1c0.1,16.7-0.3,33.4-0.5,50.1l-5.9-5.9l34.6,0.4
	c11.5,0.3,23,0.3,34.6,0.8l34.6,1.1c11.5,0.6,23,0.9,34.6,1.7v1.2c-11.5,1-23,1.6-34.5,2.4l-34.5,1.8c-11.5,0.7-23,1-34.5,1.5
	l-34.5,1l-5.9,0.2v-6.1c-0.1-16.7-0.4-33.4-0.2-50.1c0-16.7,0.4-33.4,0.7-50.1s0.5-33.4,1.1-50.1c0.4-16.7,1.1-33.4,1.8-50.1
	l0.1-3.4l3.2,0.2l36,2c12,0.6,24,1,36,1.2s24,0.3,36,0.2l36-0.5l3.6-0.1l0.1,3.9l0.9,24.5c0.1,8.2,0.4,16.3,0.4,24.5
	c0.1,16.3-0.2,32.7-0.4,49s-0.8,32.7-1.4,49c-0.3,8.2-0.7,16.3-1.2,24.5c-0.5,8.2-0.9,16.3-1.6,24.5L164.8,299.7z"/>
<path class="st0" d="M166,299.3c0.1,0.7-0.5,0.4-0.7,0.5h0.7c0,0,0-0.1,0-0.1v-0.2V299.3v-0.5V299.3z"/>
<polygon class="st0" points="168.1,265.1 168.1,265.7 168.3,260.6 "/>
<path class="st0" d="M169.3,233.1c-0.1,3.1-0.3,11.6-0.5,17.3v0.9l-0.1,2.6c0.2-3.5,0.3-7.4,0.4-11.2S169.2,235.5,169.3,233.1z"/>
<path class="st0" d="M169.8,216c0,1,0.1-3.7-0.1,4v-0.7C169.8,218.6,169.8,217.7,169.8,216z"/>
<path class="st0" d="M169.8,219.3C169.6,222.6,169.8,217.1,169.8,219.3z"/>
<path class="st0" d="M170.2,203.7l-0.1,4.4c0-0.9,0.1-4.9,0.1-3.4C170.3,200.2,170.3,201.2,170.2,203.7z"/>
<path class="st0" d="M170.3,199.5v2.3C170.2,201.4,170.2,200.8,170.3,199.5z"/>
<path class="st0" d="M170.1,206.7l0.1-4.9l-0.1,2.2C170.2,203.7,170.2,204.6,170.1,206.7z"/>
<path class="st0" d="M170,209.5c-0.1,2.5-0.2,5.7,0,1.2C169.7,219.2,169.8,218,170,209.5z"/>
<path class="st0" d="M169.4,231.5l-0.1,3.3l-0.1,2.9C169.2,236.3,169.3,231.8,169.4,231.5z"/>
<path class="st0" d="M170.5,176.1c0,0.3,0,1.5,0,1.8v3.3C170.5,179.5,170.5,176.4,170.5,176.1z"/>
<path class="st0" d="M170.5,177.9V173C170.5,177.4,170.5,178.2,170.5,177.9z"/>
<path class="st0" d="M170.2,198.7c0,2.7-0.1,5.4-0.2,8.1l0.1-4.8v-4.8L170.2,198.7z"/>
<polygon class="st0" points="170.6,157.3 170.6,160.1 170.6,155.2 "/>
<path class="st0" d="M170.6,144.9c0,2.1,0-2.8,0-0.6c0-3.4-0.1-6.2-0.1-8.9C170.5,138.2,170.5,141.1,170.6,144.9z"/>
<path class="st0" d="M170.3,131c0,1.4,0,2.8,0.1,4.4C170.4,133.9,170.4,132.5,170.3,131z"/>
<path class="st0" d="M170.6,164.6c0-0.4,0-1.1,0-3.9v1.9C170.6,163.3,170.6,164,170.6,164.6z"/>
<path class="st0" d="M170.6,162.8L170.6,162.8c0-2.2,0-3.6,0-4.2C170.6,159.1,170.6,160.3,170.6,162.8z"/>
<path class="st0" d="M170.6,165.1L170.6,165.1z"/>
<path class="st0" d="M170.4,185.9c0-2.9,0.1-8.9,0-3.1V185.9z"/>
<path class="st0" d="M170.5,167.5v5.2c0-0.1,0-1,0,0.4V167.5z"/>
<polygon class="st0" points="170.5,165 170.5,167.5 170.5,165.6 "/>
<path class="st0" d="M170.5,140c0-2.2-0.1-4.7-0.1-7.5c0,3,0.1,6.1,0.1,9C170.5,141.9,170.5,143.2,170.5,140z"/>
<path class="st0" d="M170.6,151.1v-0.5C170.6,150.9,170.6,151.1,170.6,151.1z"/>
<path class="st0" d="M169.4,105.1v0.4v0.1V105.1z"/>
<path class="st0" d="M170.5,142c0,2.2,0.1,3.6,0.1,4.9c0-1.7-0.1-3.5-0.1-5.4C170.5,141.3,170.5,141.3,170.5,142z"/>
<path class="st0" d="M170.1,123.4c0,1.2,0.1,2.5,0.1,3.9C170.2,126.1,170.1,123.8,170.1,123.4z"/>
<path class="st0" d="M170.6,149.8v0.3C170.6,149.4,170.6,149.5,170.6,149.8z"/>
<path class="st0" d="M170.6,149.8c0-1.1,0-2.1,0-3c0,1.4,0,2.6,0.1,3.7L170.6,149.8z"/>
<path class="st0" d="M166.1,99.9h1.2h1.2h0.5c0.1,0,0,0.1,0,0.2v0.8c0.1,2.2,0.2,4.9,0.3,7.4c0.2,5,0.1,1.7,0-2.6
	c0-0.2,0-0.2-0.2-5.3c0.1,1.8,0.4,11.4,0.2,7.1c-0.1-3.4-0.2-4.8-0.2-5.8l0-1.3v-0.4c0,0,0-0.1,0-0.1h-1.4c2.8,0-8.7,0.2-7.2,0.2
	l6-0.1C166.6,99.8,164.5,99.9,166.1,99.9z"/>
<path class="st0" d="M169.8,115.3l0.1,2.1c-0.1-2.4-0.1-4.1-0.3-7.3c-0.1-3.5-0.2-4.2-0.2-4.5l0.4,10.4L169.8,115.3z"/>
<path class="st0" d="M170.2,127c-0.1-1.6-0.3-6.7-0.2-3.6c0.2,6.2,0.2,4.4,0.2,8.1C170.1,121.4,170.4,134.3,170.2,127
	c0.1,2.1,0.1,3.8,0.1,5.5c0-1.8,0-3.5-0.1-5.2v0.3l0,0c0,0.4,0,0.6,0,0.1v-0.2L170.2,127c-0.1-2.9,0-0.4,0,0.5v0.1l-0.4-10
	C170,119.6,170,122.3,170.2,127z"/>
<path class="st0" d="M170.4,177.4v-0.3C170.4,176.5,170.4,176.2,170.4,177.4z"/>
<path class="st0" d="M170.4,173.3v3.7c0,2.1,0,0,0,0.1c0,1.4,0,5,0,0.5v-0.7c0-4,0.1-7.8,0.1-8.5
	C170.5,169.6,170.5,170.6,170.4,173.3z"/>
<path class="st0" d="M170.6,149.8l-0.1-8.4l0,4.3v-0.2C170.6,150.2,170.6,149.3,170.6,149.8z"/>
<polygon class="st0" points="169.4,104.1 169.4,105.2 169.2,100.4 "/>
<polygon class="st0" points="162.6,99.8 163,99.8 160.1,99.8 "/>
<path class="st0" d="M44.6,294.9h-2.5H44.6z"/>
<path class="st0" d="M62.4,295.1L62.4,295.1z"/>
<path class="st0" d="M15,219.6c-0.1,3.6-0.1,7.6-0.1,7.1v-1.1C14.9,223.2,15,221.3,15,219.6z"/>
<path class="st0" d="M111,302.7l-1,0l-2.4,0.1L111,302.7z"/>
<path class="st0" d="M113.5,302.5l4.7-0.2L113.5,302.5z"/>
<path class="st0" d="M27,235.4v-2.9C27,237.1,27,235.1,27,235.4z"/>
<path class="st0" d="M51.2,98.5l-7.7-0.4L51.2,98.5z"/>
<path class="st0" d="M51.6,294.9h-2.1H51.6z"/>
<path class="st0" d="M34.6,97.6l1.6,0.1l7.3,0.4L34.6,97.6z"/>
<path class="st0" d="M160.4,167.2L160.4,167.2z"/>
<path class="st0" d="M162.9,269.9c0-1-0.1-2.7-0.2-4.2C162.8,266.4,162.8,267.7,162.9,269.9z"/>
<path class="st0" d="M118.8,100.3C121.1,100.3,119.2,100.3,118.8,100.3z"/>
<path class="st0" d="M130,100.3h-0.9H130z"/>
<path class="st0" d="M18.1,103.5v0.2C18.1,103,18.1,103.2,18.1,103.5z"/>
<path class="st0" d="M122.3,100.3h-3H122.3z"/>
<path class="st0" d="M121.8,100.3L121.8,100.3z"/>
<path class="st0" d="M115.6,100.2h3.7h-0.5H115.6z"/>
<path class="st0" d="M45.2,103.2h0.5C48,103.2,47,103.2,45.2,103.2z"/>
<path class="st0" d="M14.9,279.7L14.9,279.7z"/>
<path class="st0" d="M14.9,288c0-3.6,0-5.5,0-8.2v2.7V288z"/>
<path class="st0" d="M26.7,290.1l-0.1,5.8c0.1-7,0.1-12.1,0.1-6.7c0,0.4,0,1.8,0,3.9c0,1.1,0,2.3,0,3.7c0,0.7,0,1.4,0,2v1.5l0,0
	l-0.1-0.1l-0.2-0.2l-5.5-5.5h3.8h3.8h-2.4l15.2,0.2h3.4l7.5,0.1c2.2,0,1.6,0-0.5,0c3.8,0,7.6,0.1,11.4,0.2h-0.1l7.1,0.1
	c2.9,0.1-1.5,0-0.7,0l6.3,0.1l-7-0.1l17.9,0.4l-6-0.1c3.8,0.1,8.5,0.2,15.2,0.4l-6.5-0.2c-2.3,0-3.6-0.1-0.1,0l8.2,0.2l8.1,0.2H105
	l7.4,0.2l7.8,0.2c8.7,0.3-6-0.2,4.3,0.1l21,1c5.1,0.2-0.9,0,0.9,0l4.5,0.2h0.6l6.2,0.3h1c0.1,0,0.3-0.1,0.2,0.1v0.9
	c0,0.1,0,0.2,0,0.2h-0.2l-4.9,0.3l-11.9,0.8c-1.8,0.1,0.9-0.1,0.3,0l-16.9,1.2l-7.1,0.4c5.2-0.2-1.4,0.1-7.2,0.4l4.5-0.2l-9.3,0.5
	c-1.1,0-0.2,0,1.3-0.1l-1.7,0.1c-3.3,0.2-1.6,0.1,0.8-0.1l3.3-0.2l4-0.2l-3,0.2h0.7l-2.8,0.2l-2.1,0.1h-0.5l-12.1,0.6
	c-8.7,0.5-16.2,0.8-30,1.4c3.4-0.2,0.7-0.1,0.9-0.1l17.8-0.8c-3.7,0.2-2.9,0.1-2,0.1l-12.7,0.6c0.3,0-2.7,0.1-6,0.2
	c2.5-0.1-9.5,0.4-14.7,0.6c-0.3,0,0.9,0,7.2-0.2l-15.9,0.5l3-0.1c-3.6,0.1-12.4,0.4-10.3,0.3H33l-18,0.5c0-7.3-0.1-13.7-0.1-14.6
	c0,0.1,0,1.4,0.1,2l-0.2-18.3c0,1.6,0.1-4.6,0.1,3.9c0-2.4,0-5.5,0-10.6c0,1.7,0,4.2,0,1.9v-12c0,2.5-0.1-0.3-0.1-4.2
	c0,0.4,0.1,0.7,0.1,1.1v-4.9v-4.9c0,2.5,0,0.4,0.1-1.8c0-1,0.1-8.5,0.1-11.1l-0.1,4.2c0.1-11,0.1-11,0.2-21.9c0,1.3,0,3.3,0.1-2.3
	c0-2.6,0-11.4,0.2-21.1l0.1-1.9l0.1-7.5c-0.1,4.6-0.3,17.7-0.3,24.8c0.1-4.1,0-1.2,0.1-7.4c0.1-2.2,0,3.4-0.1,5.2
	c0.1-4.8,0.2-9.6,0.3-14.5c0-0.9,0.1-9.7,0.2-10.5l-0.3,15.7c0,0.6,0.1-9.1,0.3-19.3c0.1-2.6,0,2,0,1.7c0-1.4,0.2-9.7,0.2-10.7
	l-0.1,4.4l0.3-16.2l0.2-7.5c-0.2,3.9-0.2,4.6-0.2,2c0-0.8,0.5-12.4,0.6-15.1c0.2-3.9-0.1,5.8,0,2.5l0.1-3.2c0.1-2.5,0,1,0.2-4.4
	c0-0.9,0.4-11,0.1-2.6c0.2-5.3,0.2-5.6,0.4-11.8c-0.1,2,0.1-5.6,0.3-10.9c0,0.3,0-0.9,0.1-1.5c0-1.4,0.1-2.6,0.1-3.8l0.1-1.8V97
	v-0.2l0,0h0.1H19l6.3,0.4l13.1,0.7c0.9,0.1,5.8,0.3,3.7,0.2l5.9,0.3c6,0.4-6.9-0.4-2.4-0.1L58.1,99l-14.7-0.8l1.4,0l3.8,0.2l5.8,0.3
	c2.2,0.1,4.7,0.2,7.3,0.3c8.4,0.3,3.6,0.1,5.1,0.2l26.5,0.9c5.2,0.1,0.2,0,1.4,0.1c-6.8-0.2-10.5-0.4-15.1-0.5l5.7,0.2L76,99.6
	l16.4,0.6l22.3,0.2c2.2,0,5.9,0,4.1,0H115c-3.5,0,7.2,0,2.4,0c5.2,0,10.9,0.1,18.2,0h1.4l-6.8,0.1l14.5-0.2l-5.1,0.1l18-0.3l-6,0.1
	c4,0-16.5,0.2-10.1,0.2c-4.7,0-8.1,0.2-14.2,0.1c0.2,0,2.2,0-3.2,0h-1.1h2.8l-14.2,0c-3.2,0,1.3,0-0.4,0h-4.3c-0.4,0-8.5-0.1-1,0
	h-6.8c-2,0-4.4,0-6.7-0.1l-6.2-0.2c-3.2-0.1-8.1-0.3-5.3-0.2l-10.6-0.5h-0.1l-8-0.3l-4.1-0.1l-4.2-0.2l-17.4-1l-13.1-0.7l-1.1-0.1
	l-1.9-0.1l-1.1,0h-0.6c-0.2-0.1-0.1,0.2-0.2,0.3v0.3c-0.1,1.5-0.1,3.1-0.2,4.7c-0.1,3.1-0.2,5.8-0.2,6.8c-0.2,5-0.8,22-1.1,30v0.3
	c-0.2,5.5-0.4,10.8-0.5,17.6v-0.4c-0.1,5.9-0.3,15.1-0.5,24.5c0-0.7,0.1-3,0.1-4.7c-0.3,11.1-0.5,23.5-0.6,33.6
	c0,2.5-0.1,4.3-0.1,6.1v0.4c0,1.1,0,2.3-0.1,3.5c0-1.1,0-2.1,0-2.9c0,1.9-0.1,4.9-0.1,7.8v1.2v0.7c-0.1,2.8,0,2.3,0,0.8
	c0,1.5,0,2.8,0,3.8c0,2.4-0.1,7.5-0.2,10.7c0,1,0,4.6-0.1,8.2s0,7,0,7.9c0,0.1,0,0.9,0-0.6c0,3.2,0,6.4,0,9.3v1.4l0.1,7
	c0,4.3,0,6,0,1.8c0.1,10.2,0.1,8.3,0.1,17v-0.4c0,3.1,0,8,0.1,10v3.5l22.4-0.7c9-0.3,18.6-0.5,26.5-0.9c-3.5,0.1,8.3-0.3,9-0.4
	c1,0,3.5-0.1,0.6,0c9.1-0.4,13.7-0.5,20-0.9c1,0-2,0.1-1,0.1l3.8-0.2c0.9,0-1.3,0.1-2.8,0.2c9.3-0.5,10.2-0.5,10.9-0.6l10.5-0.5
	c1.6-0.1,4.4-0.2-1.4,0.1l11.2-0.6l9-0.6l5.4-0.4l15.1-1l-2,0.1l4.8-0.3l1.5-0.1l0.8-0.1c0.1,0,0.1-0.1,0.1-0.2v-0.6
	c0-0.1,0-0.3,0-0.4h-0.5h-0.9l-2-0.1h0.2l-18.8-0.9h0.7l-7.2-0.3l-5.9-0.3l-6-0.2l2.7,0.1l-15.7-0.5l2.7,0.1l-9.5-0.3
	c-1.5,0,1.9,0-3.5-0.1c-2.7-0.1-15.8-0.4-23.3-0.5c1.6,0,3.3,0.1-0.5,0c-5.8-0.1-15.6-0.4-20.8-0.4h-1l-17-0.2l-6-0.1h-4.5H21
	c0,0-0.2,0-0.2,0l0.1,0.1l0.2,0.2l0.4,0.4l1.7,1.7l3.2,3.2l0.2,0.2c0.1,0.1,0,0,0-0.1v-0.7v-1V297c0-2.2,0-3.3,0-3.7l0.1-13.6v0.4
	c0.1-8.7,0.1-11.7,0.1-14.8c0-2,0-0.5,0-0.4c0.1-6.4,0.1-9.8,0.1-13.1s0-6.2-0.1-11.5v-1.1c0-2.9-0.1-18.3-0.2-30.8
	c0,0.1,0,0.4,0,1.4c0-7-0.1-15.4-0.2-22.6s-0.2-13.3-0.2-16l-0.1-9.2c0.2,12,0-1.8,0,3.1c-0.1-4.7-0.1-12.1-0.1-6.4v0.9
	c0,1.1,0-2.7-0.1-6.6s-0.2-8.1-0.2-7.9c-0.3-11.8-0.7-23.4-1-34.8c-0.1-2.9-0.2-5.7-0.2-8.5v-1.1v-0.5c0,0-0.1,0.1-0.1,0.1l-0.4,0.4
	l-1.5,1.5l-0.8,0.7l-0.4,0.4c-0.1,0.1-0.2,0.2-0.2,0.3h2.5l16.7-0.1H38h7.7c2,0,2.7,0-2.8,0l9.4-0.1c10.7,0-4.2,0.1-0.9,0h4.5h-1
	c3.6,0,4,0,10.5,0.1l3.8,0.1h2.5l9.7,0.1l-3.9-0.1c4.3,0.1,9.1,0.1,4.6,0c6.6-0.1,36.1,1.3,40.1,1.5c3,0.1,6,0.2,9.1,0.4l10.1,0.7
	c-1.8-0.1-2.9-0.2,3.4,0.2c-2.3-0.1,11.6,0.8,16.7,1.1c-1.1-0.1-0.6,0,0.8,0l2.5,0.2h0.5h0.1c0.1,0,0.1,0,0,0l-0.2-0.2l-0.6-0.6
	l-1.1-1.1l-1.1-1.1l-0.5-0.5l-0.3-0.3c-0.1-0.1-0.3-0.4-0.2-0.1c0,0.9-0.1,1.7-0.1,2.2c0,1,0,1.1,0-0.7c-0.2,4.9,0,0.6-0.2,4.3
	c-0.2,6.3-0.5,13.2-0.7,20.5s-0.2,15-0.4,22.8c0,0.2,0-2.4,0,1l0,8.2c0,3,0,2.8,0.1,8.4c0-0.8,0-2,0,0.1c0.1,15.2,0.1,30.8,0.7,46.4
	c0.2,7.8,0.5,15.6,0.7,23.5c0.1,3.9,0.2,7.8,0.4,11.7c0.2,3.9,0.4,7.8,0.6,11.6c-0.2-4.2-0.1-1.4,0.1,1.8c-0.1-2.1,0,0,0-0.4
	c0.2,4.3,0.4,8.6,0.7,13c0.2,2.4,0.9,13.7,1,15.2l-0.3-4.1c0.4,5.4-0.5-7.6-0.4-6.8c-0.5-6.1-0.9-16.1-1.4-26.1
	c-0.1-2.2,0.1,1.9,0,0.7c-0.1-2.5-0.3-5.6-0.5-11.3v0.6c-0.5-16-0.6-22.8-1.1-40.8v1.3c-0.1-3.9-0.1-4.7-0.1-6.5
	c0-2.2,0,0.5,0.1,3.2s0.2,5.6,0.1,3.5c0-1.3-0.1-3.6-0.2-6.5s0-6.2-0.1-9.5c0-6.6-0.1-12.9-0.1-14.7c0-4.6,0,0.4,0-4.2V171v-1.5
	c0-3.9,0-5.7,0-6c0,0.9,0,2.7,0,3.7c0-5-0.2-14.2-0.1-16c-0.1,1.9,0,3.8,0,5.7c-0.1-4,0-8.3,0.1-12.7s0.1-8.9,0.2-13.3
	c0.2-8.9,0.6-17.8,0.9-25.6l0,1.2l0.1-2.1v-0.4c0,0,0-0.1,0-0.1l0.1,0.1l0.6,0.6l2,2.1l0.8,0.8c0,0,0.1,0.1,0.1,0.1H165h-0.5
	l-1.9-0.1l-11.8-0.8h0.5l-9.7-0.6c3.3,0.2-6.2-0.4-1.9-0.1c-12.9-0.8-6.4-0.5-15-0.8l-2-0.1l-9.7-0.4c5.4,0.2-4.2-0.2,1.8,0
	l-16.1-0.7l-5.7-0.2l-4.9-0.1c-3.2,0-0.2,0,3.1,0.1s7,0.3,5.2,0.2c1.5,0.1,0.2,0-2-0.1s-5.3-0.1-7.5-0.1l-18.6-0.3h2.3l-13.2-0.2
	c-2.8,0-6.6,0-7.4,0.1c3.4,0,6.8-0.1,10.1,0c-2.9-0.1-5.7,0-8.9,0l-11.7,0.1l5.5,0l-8.2,0.1l18.5-0.1c-3,0-11.6,0.1-8.5,0l-18.4,0.1
	h0.5l-5.8,0l3.9,0h-4.5h-1.2c0,0,0,0,0-0.1l0.4-0.4l1.6-1.5l0.8-0.8c0.4-0.3,0.2-0.4,0.3,0.1l0.1,2.1l0.1,4.3
	c-0.2-6.1-0.2-6.8-0.2-6.6v0.4v-0.4c0-0.1,0-0.3,0-0.3l-0.5,0.5l0.5-0.4l0.1-0.1v0.4c0,0.4,0,0.8,0,1.2c0,0.8,0,1.5,0.1,2.1l0.1,3.2
	c0,1.8,0.1,2.9,0.1,4.1c0.1,2.4,0.1,5,0.4,13.4c-0.1-2.3-0.2-8.5-0.1-5c0.1,3.2,0.2,7.4,0.2,9.4c0.3,11.1,0-1.7,0.1,3
	c0.1,3.8,0.2,5.5,0.3,10.3l0,0c0.4,12.7,0.2,3.4,0.3,14.8l-0.1-4.8l0.1,6v-1.2c0.1,6.5,0.1,8.5,0.2,14.8c0-1.5,0,0.8,0.1,6.5
	c0,3.7,0-1.8,0.1,5.8c0-1.8-0.1-3.8-0.1-7.2v-2.1c0.1,4.1,0.1,10.4,0.2,13.2c0-1.1,0-2.4,0-3.1l0.2,11.5c0,1.8,0,0.4,0-1
	c0,2.3,0,4,0.1,7.4c0-1,0-0.8-0.1-5.5c0.1,3.7,0.1,7.3,0.1,11c0,0.7,0,5.6,0,4.2c0,6.1,0.1,15,0.2,23c0,0.4,0,1.3,0,3
	c0,3.8,0,7.4,0.1,11.1s-0.1,7.7-0.1,12.2l-0.1,5.1c-0.1,7,0.1-6.9,0,4.8c-0.1,7.8,0,3.3-0.1,6c0,4.1-0.1,11.3-0.2,19
	C26.6,294.4,26.6,292.4,26.7,290.1z M88.9,295.7l-6.3-0.1L88.9,295.7z M98.2,303.3l5.4-0.3L98.2,303.3z M93.5,100.1h-0.2
	C89.6,99.9,90.9,100,93.5,100.1L93.5,100.1z M101.3,100.1h0.4h-4.3H101.3z M69.9,103.4h-1.5C71.8,103.5,70.8,103.4,69.9,103.4
	L69.9,103.4z"/>
<path class="st0" d="M113.1,302.5h0.7C114.5,302.5,114.5,302.5,113.1,302.5z"/>
<path class="st0" d="M27,236L27,236z"/>
<path class="st0" d="M17,134.6c-0.1,1.6-0.1,2.5-0.1,3.1C16.9,137.8,17,137.1,17,134.6z"/>
<path class="st0" d="M142.7,100.1l-5,0.1l4.5-0.1C142.1,100.1,141.1,100.1,142.7,100.1z"/>
<path class="st0" d="M169.8,116.8c0,0.7,0.1,1.5,0.1,2.3v-0.2C169.7,115.7,169.6,113.6,169.8,116.8z"/>
<path class="st0" d="M147.3,100.1l7-0.1h-0.6C154.8,100,151,100,147.3,100.1z"/>
<path class="st0" d="M155.2,100l3.2,0L155.2,100z"/>
<path class="st0" d="M111.2,100.2h2C115,100.2,102.1,100.2,111.2,100.2z"/>
<polygon class="st0" points="150.2,100.1 148.9,100.1 146.9,100.1 "/>
<path class="st0" d="M122.5,100.3h5.6h1.5H122.5z"/>
<path class="st0" d="M129.6,100.4l4.5-0.1L129.6,100.4z"/>
<polygon class="st0" points="142.5,100.2 140.9,100.2 136.9,100.3 "/>
<path class="st0" d="M62.4,99.1c-2-0.1-4.1-0.1-6.1-0.2c-0.6,0,1,0.1,3.3,0.1C61,99.1,63.3,99.1,62.4,99.1z"/>
<path class="st0" d="M80.8,99.8l-2.7-0.1h-0.2L80.8,99.8z"/>
<path class="st0" d="M63,99.2c-0.6,0-8.9-0.3-1.1,0C62.5,99.2,68.6,99.4,63,99.2z"/>
<polygon class="st0" points="16.6,144.1 16.7,142.5 16.6,142.7 "/>
<path class="st0" d="M15.1,225.2c0.1-7.2,0-1.8,0.1-8.3c0-1.7-0.1,5.4-0.1,3.6C15.1,224.9,15.1,227.2,15.1,225.2z"/>
<path class="st0" d="M15.2,220.5c0-0.7,0-1.4,0-2.2C15.2,219.6,15.2,220.2,15.2,220.5z"/>
<polygon class="st0" points="163.9,286.9 164.3,291.6 164.1,288.6 "/>
<path class="st0" d="M164.5,295.8l0.1,1.1l0.2,2.8C164.7,298.7,164.6,296.7,164.5,295.8z"/>
<path class="st0" d="M101.8,296.1h0.4l-4-0.1L101.8,296.1z"/>
<polygon class="st0" points="38.7,294.8 39.8,294.8 37.7,294.8 "/>
<path class="st0" d="M26.8,273.8c0,2.2,0,4.7-0.1,6.9C26.8,276.3,26.8,274.8,26.8,273.8z"/>
<path d="M19.5,318.3l71.7-1.5l73.4-0.8h4.2l-0.1,4.4c-0.4,13.4-0.9,26.7-1.4,40.1c-0.5,6.4,0.3,12.8,1.2,19.2
	c0.9,6.4,2.3,12.7,4.2,18.9c3.7,12.3,9.5,23.9,17.9,33c8.4,9.1,19.4,15.5,31.5,18.2c12.4,2.6,25.3,2.7,37.8,0.3
	c12.5-2.4,24.3-7.7,34.2-15.6c10-8.2,18.1-18.4,24-29.9c3-5.8,5.6-11.8,7.7-18c1-3.1,2-6.2,2.7-9.4c0.8-3.1,1.4-6.2,1.7-9.3l0.2-2.6
	l2.4,0c23.9,0.6,47.7,0.9,71.6,1.1c23.9,0.2,47.8,0,71.6,0.1h2.2l-0.1,2.1c-1.4,32.5-8.2,64.5-19.9,94.8
	c-11.8,30.2-29.4,58.8-53.7,81.2c-12.1,11.3-25.5,20.9-40,28.8c-14.4,8.1-30,13.7-45.8,18.3c-31.8,8.3-64.7,11.3-97.4,8.8
	c-32.6-2.3-65.3-10.6-94.5-26.2c-14.5-8.1-27.8-18-39.8-29.4c-11.7-11.6-22-24.5-30.6-38.6c-8.6-13.9-15.7-28.7-21-44.2
	c-5.3-15.3-9.5-31.1-12.3-47.1c-2.9-15.9-4.7-32-5.2-48.2c-0.4-8-0.4-16.1-0.2-24.2c0.1-4,0.3-8,0.5-12.1l0.5-6l0.3-3l0.2-1.5
	l0.1-0.8C19.2,319.1,19.3,318.7,19.5,318.3z M20.2,319.2c0.1,0.1,0.1,0.3,0.1,0.4v0.7l-0.1,1.5l-0.1,3l0,6c0,4,0.1,8,0.2,12
	c0.3,8,0.7,16,1.5,23.9c1.5,15.9,4,31.6,7.4,47.2c3.4,15.5,8.1,30.7,13.9,45.4c2.9,7.4,6.3,14.5,9.6,21.6l5.6,10.4
	c1.9,3.5,4.1,6.7,6.2,10c8.5,13.1,18.5,25.2,29.9,35.9c11.6,10.4,24.3,19.4,38,26.9c27.5,14.4,58.5,21.8,89.8,24.3
	c31.4,2.1,63.2,0.2,93.5-7.5c15-4.2,29.9-9.3,43.6-16.8c13.8-7.3,26.7-16.3,38.4-26.6c11.7-10.4,22.1-22.3,31-35.3
	c9-13,16.7-26.8,22.9-41.3c6.3-14.6,11.3-29.7,15-45.1c3.9-15.4,6.3-31.1,7.2-47l2.1,2.1c-23.9-0.2-47.7-0.7-71.6-0.6
	s-47.8,0.1-71.6,0.4l2.6-2.5c-0.2,3.5-0.7,7.1-1.4,10.5c-0.7,3.4-1.5,6.7-2.5,10c-1.9,6.6-4.4,13-7.4,19.2
	c-5.9,12.7-14.3,24-24.8,33.2c-10.8,9.2-23.7,15.7-37.5,18.8c-13.8,2.8-28,3.4-42.1,0.3s-27.4-10.5-36.9-21.4s-15.9-23.9-19.8-37.2
	c-1.9-6.7-3.4-13.5-4.2-20.4c-0.8-6.8-1.5-13.9-0.9-20.8c0.8-13.4,1.5-26.8,2.5-40.2l4.1,4.3l-71.3-2.2L20.2,319.2z"/>
<path class="st0" d="M21.9,319.3l-1.6-0.1C23.7,319.4,21.8,319.3,21.9,319.3z"/>
<polygon class="st0" points="55.7,320.6 55.1,320.6 60.1,320.8 "/>
<path class="st0" d="M87.4,321.9l-17.1-0.7h-0.9l-2.5-0.1L87.4,321.9z"/>
<path class="st0" d="M104.3,322.5c-1,0,3.6,0.1-3.9-0.1h0.7L104.3,322.5z"/>
<path class="st0" d="M101,322.4C97.7,322.3,103.2,322.5,101,322.4z"/>
<path class="st0" d="M116.5,322.9l-4.4-0.1c0.9,0,4.8,0.2,3.4,0.1C120,323,119,323,116.5,322.9z"/>
<path class="st0" d="M120.6,323l-2.3-0.1L120.6,323z"/>
<path class="st0" d="M113.5,322.8l4.8,0.2l-2.2-0.1L113.5,322.8z"/>
<path class="st0" d="M110.8,322.7c-2.5-0.1-5.6-0.2-1.2,0C101.1,322.4,102.4,322.4,110.8,322.7z"/>
<path class="st0" d="M89,322l-3.3-0.1l-2.9-0.1L89,322z"/>
<path class="st0" d="M143.8,323.8l-1.8-0.1l-3.2-0.1L143.8,323.8z"/>
<path class="st0" d="M142,323.7l4.9,0.2L142,323.7z"/>
<polygon class="st0" points="121.4,323 113.4,322.8 122.9,323.1 "/>
<path class="st0" d="M162.4,324.4l-2.8-0.1l2.5,0.1h1.2h0.6h0.7c0,0,0-0.1-0.1-0.1l0.1,0.1h-1.2L162.4,324.4z"/>
<path class="st0" d="M160,324.3c0.1-2-0.2,2.8-0.1,0.6c-0.2,3.3-0.4,6.2-0.5,8.8C159.6,330.9,159.8,328,160,324.3z"/>
<path class="st0" d="M159.2,338c0.1-1.4,0.2-2.8,0.3-4.3L159.2,338z"/>
<path class="st0" d="M155.2,324.1l3.9,0.2l-1.9-0.1L155.2,324.1z"/>
<path class="st0" d="M157,324.2L157,324.2l4.1,0.1L157,324.2z"/>
<path class="st0" d="M154.7,324.1h0.5H154.7z"/>
<path class="st0" d="M134.1,323.4c2.9,0.1,8.8,0.3,3,0.1L134.1,323.4z"/>
<path class="st0" d="M152.3,324l-5.2-0.2c0.1,0,1,0-0.4,0L152.3,324z"/>
<polygon class="st0" points="154.8,324.1 152.3,324 154.2,324 "/>
<path class="st0" d="M159.8,329.1c-0.1,2.2-0.3,4.7-0.5,7.4c0.2-3,0.4-6,0.5-8.9C159.9,327.3,159.9,326,159.8,329.1z"/>
<path class="st0" d="M161.7,321.3l-0.3-0.4L161.7,321.3z"/>
<path class="st0" d="M157.6,363.6v-0.4v-0.1V363.6z"/>
<path class="st0" d="M159.9,327.2c0.1-2.2,0.2-3.5,0.3-4.8c-0.1,1.7-0.2,3.4-0.3,5.3C159.8,327.8,159.8,327.9,159.9,327.2z"/>
<path class="st0" d="M158.7,345.5c0.1-1.2,0.2-2.5,0.2-3.8C158.9,342.8,158.8,345.1,158.7,345.5z"/>
<path class="st0" d="M160.8,320.4l0.2,0.2C160.6,320.1,160.6,320.1,160.8,320.4z"/>
<path class="st0" d="M160.8,320.4l-0.3-0.4l-0.1-0.1l-0.1-0.1c0,0,0,0,0,0.1v0.3v0.8c0,0.5-0.1,0.9-0.1,1.4c0-0.7,0.1-1.3,0.1-1.9
	v-0.3V320c0,0,0-0.2,0-0.1L160.8,320.4l0.5,0.5L160.8,320.4z"/>
<path class="st0" d="M157.9,371.8c-0.3-3.7-0.3-7.5,0-11.2c0.3-5,0-1.7-0.2,2.6v0.8c0,0.7-0.1,1.9,0,4.5c0-0.9-0.1-3.7,0-5.8
	s0.2-3.4,0.1-1.2c-0.2,3.4-0.1,4.8-0.1,5.7s0,1.5,0.1,3.1c-0.1-1.4,0,0.8,0.2,3.1s0.5,4.8,0.4,4c-0.2-2-0.4-3.9-0.5-5.9
	C157.9,371.3,158,373.5,157.9,371.8z"/>
<path class="st0" d="M158.3,353.5l0.1-2.1c-0.1,2.4-0.3,4.1-0.5,7.2c-0.2,3.5-0.3,4.2-0.3,4.5l0.6-10.3L158.3,353.5z"/>
<path class="st0" d="M159,342c-0.1,1.6-0.4,6.7-0.2,3.6c0.4-6.1,0.3-4.3,0.5-8C158.6,347.5,159.4,334.7,159,342
	c0.1-2.1,0.2-3.8,0.3-5.5c-0.1,1.8-0.2,3.5-0.3,5.1v-0.3l0,0c0-0.4,0-0.6,0-0.1v0.2L159,342c-0.2,2.8,0,0.4,0-0.5v-0.1l-0.6,9.9
	C158.5,349.3,158.7,346.6,159,342z"/>
<path class="st0" d="M142.5,323.6L142.5,323.6z"/>
<path class="st0" d="M146.6,323.8l-3.7-0.1c-2-0.1,0,0-0.1,0c-1.4,0-5-0.1-0.5,0h0.7l8.5,0.3L146.6,323.8z"/>
<path class="st0" d="M160.8,320.4l-0.4-0.4c0,0-0.1-0.1-0.1-0.1v0.5l-0.1,1l-0.1,2.1l-0.2,4.1l0.3-4.2v0.2c0.2-2.4,0.2-3.3,0.2-3.7
	L160.8,320.4z"/>
<path class="st0" d="M157.6,364.6v-1.1c0,1.6,0,3.2,0,4.8C157.6,367,157.6,365.8,157.6,364.6z"/>
<polygon class="st0" points="158.1,375.3 158,374.9 158.3,377.8 "/>
<path class="st0" d="M406.5,529.2l-1.7,1.7L406.5,529.2z"/>
<path class="st0" d="M418.3,516.1l0.3-0.3C418,516.4,417.8,516.6,418.3,516.1z"/>
<path class="st0" d="M332.8,383.6c0.9-3.4,1.6-7.3,1.5-6.9l-0.2,1.1C333.6,380.1,333.2,382,332.8,383.6z"/>
<path class="st0" d="M472.6,384.1l0.1-1c0.1-0.9,0.2-1.7,0.3-2.4C472.8,381.7,472.7,382.9,472.6,384.1z"/>
<path class="st0" d="M472.3,386.6c-0.2,1.5-0.4,3.1-0.7,4.6C471.8,390.2,472,388.7,472.3,386.6z"/>
<path class="st0" d="M217.7,459.6c3,0.8,5.4,1.2,7.5,1.5C221.5,460.6,218.6,459.8,217.7,459.6z"/>
<path class="st0" d="M411.2,524.1l-1.4,1.5C410.9,524.5,411.4,523.9,411.2,524.1z"/>
<path class="st0" d="M234,462c-0.5,0-1.1,0-1.6-0.1c-2.2-0.2-4.5-0.4-7.2-0.8C228.1,461.6,231,461.9,234,462z"/>
<path class="st0" d="M39,448.5l-0.2-0.7L39,448.5z"/>
<path class="st0" d="M20.6,348.8c0.1,1,0.1,2.6,0.2,4.2C20.8,352.2,20.8,350.9,20.6,348.8z"/>
<path class="st0" d="M168.8,417.2C167.8,415.1,168.6,416.8,168.8,417.2z"/>
<path class="st0" d="M164.7,406.8l0.3,0.9L164.7,406.8z"/>
<path class="st0" d="M256.6,460.6h0.2H256.6z"/>
<path class="st0" d="M167.4,414c0.3,0.8,0.7,1.7,1.2,2.7C168.3,416.3,168,415.4,167.4,414z"/>
<path class="st0" d="M167.5,414.4c-0.3-0.7-0.5-1.3-0.8-1.8C166.7,412.3,166.8,412.6,167.5,414.4z"/>
<path class="st0" d="M170.1,420c-0.6-1.2-1.1-2.3-1.6-3.3c0.2,0.4,0.3,0.6,0.2,0.5C169,417.8,169.4,418.6,170.1,420z"/>
<path class="st0" d="M164.7,577.4l-0.5-0.2C162,576.5,163,576.8,164.7,577.4z"/>
<path class="st0" d="M372.7,370.2L372.7,370.2z"/>
<path class="st0" d="M380.9,370.1l-8.1,0.1h2.7L380.9,370.1z"/>
<path class="st0" d="M373.7,555.6c1.6-1,3.2-2.1,4.8-3.2c-5.7,3.9-10.1,6.5-5.5,3.6c0.3-0.2,5.1-3.2,9.6-6.5s8.9-6.8,9.2-7.1
	c1-0.8,2-1.6,2.9-2.4l-1.8,1.5c2.8-2.4,3.9-3.3,5.1-4.4s2.7-2.3,6.1-5.7c2.4-2.3,4-4,2.4-2.4c1.7-1.8,3.4-3.5,5.1-5.4
	c1.5-1.6,1.1-1.2-0.3,0.4c2.5-2.8,5-5.6,7.4-8.5l0,0.1c1-1.2,3.3-4.1,4.3-5.5c1.7-2.3-0.9,1.1-0.4,0.6c1.3-1.6,2.5-3.3,3.7-5
	c1.5-2.1-1.5,2.2-4.1,5.6c1.8-2.3,2.5-3.3,3.8-5.1s3-4.2,6.5-9.4c-1.1,1.6-2.2,3.3-3.3,4.9c2.2-3.1,4.7-6.9,8.2-12.7
	c-0.4,0.7-2.2,3.5-3.4,5.5s-1.9,3-0.1,0.1c1-1.6,2.4-3.7,4.2-6.9l0.3-0.5l0.9-1.5c0.7-1.3,1.7-3,2.8-5l-0.1,0.3
	c2.3-4.2,2.1-3.9,3.4-6.5c2.4-4.8,2.9-5.8,3.4-7c3.6-7.8-2.5,5.4,1.8-3.9c2.9-6.5,4.9-11.2,7.8-19.3c1.7-4.7-0.3,0.8,0.3-0.9
	c0.5-1.4,1-2.8,1.4-4.2c0.3-1,0.2-0.7,0.2-0.5c1.1-3.6,0.1-0.3,1.9-5.9c0.5-1.5,3.5-11.6,5.1-18.7c0.4-1.8-0.2,0.8-0.1,0.3
	c1.2-4.9,1.6-7,2-8.8s0.7-3.5,1.5-7.6c0.4-2.3,0.8-4.6,1.2-6.9c-0.8,5.1,0.3-1.4,0.9-7.1c-0.2,1.8-0.4,3.3-0.6,4.4
	c0.4-3,0.8-6.1,1.1-9.1c0.1-1.1,0-0.2-0.1,1.3c0.1-0.6,0.1-1.2,0.2-1.7c0.3-3.3,0.2-1.6,0,0.8c-0.1,1.1-0.2,2.2-0.4,3.3
	c-0.2,2.2-0.5,4.4-0.5,3.9l0.4-3c-0.1,0.6-0.1,1-0.1,0.7s0.2-1.3,0.3-2.8l0.2-2.1v-0.5c0.2-2,0.4-4,0.5-6c0.1-1,0.1-2,0.2-3l0.1-1.5
	c0-0.2,0.1,0,0.3,0.2l0.5,0.5l1.1,1.1l0,0h-1.3h-3.2h-6.6l-16.8-0.1c3.4,0,0.7,0,0.9,0l17.6,0.2c-3.7,0-2.9,0-1.9,0l-12.6-0.1
	c0.3,0-2.7,0-6-0.1c2.5,0.1-9.4-0.1-14.5-0.1c-0.3,0,0.9,0,7.2,0l-15.6-0.1h3c-3.6,0-12.3-0.1-10.2-0.1h1.5c-10.2-0.2-30.9,0-32.4,0
	h1.9l-18.1,0.2c1.6,0-4.5-0.1,3.9-0.1l-10.5,0.1c1.7,0,4.1,0,1.9,0h-11.9c2.5,0-0.3,0-4.2,0.1c0.4,0,0.7-0.1,1.1,0l-9.7,0.1
	c2.4,0,0.4,0-1.8,0h-4.1h-0.3c0,0,0,0,0.1-0.1l0-0.1l0.7-0.7l1.3-1.3l0.1-0.1c0,0,0,0.1,0,0.1v0.3c0,0.3,0,0.5,0,0.8l-0.1,1.2
	c0.1-0.7,0.1-1.4,0.2-2c0-0.4,0.1-0.5-0.1-0.3l-0.7,0.7l0.7-0.7l0.1-0.1c0,0,0.1-0.1,0.1,0v0.3c0,0.6-0.1,1.2-0.1,1.7
	c-0.1,1.1-0.2,2-0.3,2.8c-0.2,1.7-0.5,3-0.7,4.3c-0.6,3.6-1.5,7.1-2.5,10.5c0.3-1.3,0.9-3.1-0.7,2.2c-2,6.7-4.5,13.2-7.6,19.4
	c-0.3,0.6-0.6,1.1-0.8,1.7c-1.1,2.2-2.3,4.3-3.6,6.5c1.2-2,3.3-5.8,5.3-10s3.8-8.9,5-12.2c-0.7,1.9-0.8,2.2-1,2.7s-0.5,1.2-1.6,4.1
	c-0.8,2,1.3-3.1,1.9-4.8c-1.7,4.5-3.6,8.8-5.7,13.1c0.2-0.3-1.1,2.2-2.4,4.6s-2.8,4.7-2.7,4.5c2.8-4.4,5.2-9,7.3-13.7
	c-2.6,5.8-5.7,11.4-9.2,16.7c-1.5,2.1,1-1.6,0.9-1.5c-0.3,0.5-1.7,2.5-3.1,4.5s-2.8,3.7-3.1,4c0.9-1.1,1.8-2.2,2.6-3.4
	c-1.7,2.3-3.2,4-4.8,5.9c-1.8,2.1-3.8,4.1-5.8,6.1c-1.7,1.7-5.2,4.6-5.6,4.8c3-2.4,3.6-2.8,1.7-1.2c-0.3,0.3-2.7,2.2-5.4,4.1
	s-5.8,3.7-6.9,4.4c-1.7,0.9-0.4,0.2,0.9-0.6s2.7-1.6,1.2-0.8c-0.1,0.1-1.9,1.2-2.7,1.6c-0.3,0.2-0.7,0.4-1,0.5
	c-0.1,0-0.5,0.3-2.9,1.5c-0.8,0.5-9.9,4.4-2.3,1.1c-2.4,1.1-3.7,1.6-5.1,2.2s-2.9,1.1-5.8,2c-3.4,1.1-6.9,1.9-10.5,2.5
	c0.3-0.1-0.9,0.1-1.4,0.2c-4.4,0.7-8.9,1.2-13.4,1.3c-4.3,0.2-8.6,0.1-12.9-0.3l-2.9-0.4c-1-0.2-1.7-0.2-0.7-0.1
	c-1.4-0.2-2.7-0.4-5.8-1s-1.2-0.3,0.6,0.1s3.9,0.7,1.7,0.3c-0.2,0-2.2-0.3-4.6-0.9c-2.5-0.6-4.9-1.3-7.4-2.2c0.6,0.3,3,1.1,5.9,1.8
	s6.1,1.3,8.2,1.7h-0.3l-1-0.2c-0.9-0.1-2.1-0.4-3.7-0.7c-4.2-0.9-8.4-2.2-12.4-3.8c-1.9-0.8-3.1-1.3-3.7-1.7l-0.9-0.5
	c0,0,0.7,0.3,0,0c-2.7-1.3-5.2-2.8-7.7-4.4c-1.8-1.2-3.1-2.1-4.3-3.1c-0.6-0.4-1.2-0.9-1.8-1.4s-1.2-1-1.9-1.7
	c-1.8-1.6-3.6-3.4-5.2-5.3c-3.4-3.9-0.1-0.2-0.9-1.1c1.1,1.3,2.1,2.4,3,3.4s1.8,1.8,2.7,2.6c1.6,1.5,3.3,2.9,5.1,4.3
	c-1.5-1.1-3-2.3-4.4-3.6c0.4,0.4,0.9,0.8,1.5,1.3s1.2,1,1.9,1.5c1.3,1.1,2.8,2,3.8,2.7c-0.9-0.6-2.7-1.8-4.9-3.6
	c-2.6-2.1-5.1-4.5-7.4-7c-2.6-2.9-5-5.9-7.1-9.1c-1.9-2.9-3.7-5.9-5.3-9c-1-1.9-2.5-5.2-1.8-3.7c0.5,1.2,1.1,2.3,1.7,3.4
	c0.8,1.6,0,0-0.8-1.5s-1.3-2.8-0.3-0.6c-2.6-5.4-4.7-11.1-6.4-16.8l-0.4-1.3c0,0.2,1.3,4.5,2,6.4c-0.5-1.4-1.3-4-2.1-6.7
	s-1.4-5.4-1.8-7c0.4,1.6,0.8,3.3,1.2,4.9c-1.5-5.8-2.6-11.6-3.4-17.5c0.4,2.9,0.1,1.5,0.8,6c-0.3-2,0.3,2.1,1.1,5.8s1.7,7.1,0.9,4
	c1.1,4.6,2.5,9.1,4.1,13.5c0-0.2-0.8-2,1.2,3l0.5,1.1l0.1,0.3l-0.1-0.3c0.1,0.2,0.1,0.2,0-0.1c-0.5-1.2-0.9-2.1-1-2.5
	c0.5,1.2,1.5,3.8,2.7,6.4s2.5,5.1,3.2,6.3c1.6,2.8-0.7-1.2,0.2,0.4c0.7,1.2,1.5,2.5,2.2,3.7c0.2,0.4,4.7,7,0.5,0.8
	c1.2,1.9,2.5,3.7,3.9,5.5c2.6,3.4,5.5,6.5,8.6,9.4c2.3,2.2,6.2,5,4,3.4c2.8,2.2,5.7,4.1,8.8,5.8h0.1c7.2,3.9,15,6.6,23.1,8
	c2.9,0.5,5.8,0.9,8.7,1.1c4.3,0.3,8.7,0.3,13,0.1c0.4,0,0.8,0,1.1-0.1c2.2-0.2,5.6-0.5,8.6-0.9s5.7-1,6.7-1.2
	c9.7-2.2,19-6,27.4-11.3l0.2-0.2c4.9-3.1,9.5-6.7,13.7-10.8l-0.3,0.3c2.6-2.5,5-5.2,7.3-8c2.8-3.4,5.4-7.1,7.8-10.9
	c-0.3,0.5-1.6,2.5-2.5,3.9c3.2-4.7,6.1-9.6,8.5-14.7c2.3-4.9,4.4-9.9,6.1-15c0.8-2.4,1.3-4.1,1.8-5.8l-0.2,0.6l0.3-1
	c0.3-1.1,0.6-2.2,0.9-3.3c-0.3,1-0.5,2-0.8,2.8c0.5-1.8,1.2-4.7,1.8-7.5l0.3-1.2l0.1-0.7c0.5-2.8,0.4-2.2,0.1-0.8
	c0.3-1.4,0.5-2.7,0.6-3.7c0.1-0.6,0.2-1.3,0.3-2.2c0-0.4,0.1-0.9,0.1-1.3c0-0.2,0-0.5,0-0.7v-0.5c0-0.1,0,0-0.1,0l-0.1,0.1l-0.2,0.2
	l-2.1,2.2l-0.2,0.2l-0.1,0.1l0,0h2.5l15.9-0.1c0.1,0,0.9,0-0.6,0h9.2h1.3l7-0.1c4.2,0,6,0,1.8,0l16.8-0.1H386l9.8-0.1h8.5l13.3,0.1
	l29.9,0.3c-3.4-0.1,8.2,0.1,8.9,0.1c1,0,3.5,0,0.6,0l10.9,0.1h4.4h3.3c0.1,0,0.4,0,0.2-0.1l-0.3-0.3l-0.4-0.4l0.3,0.3l0.3,0.3
	c0,0.1,0.2,0.2,0.1,0.2l0,0c0,0,0.1,0,0.1,0l-0.1-0.1l-0.2-0.2l-0.3-0.3l-0.7-0.8l-0.8-0.8l-0.1-0.1c0,0,0-0.1,0,0v0.5v0.4
	c0,0.5,0,0.1,0-0.5v-0.4c0-0.1,0.1,0,0.1,0l0.2,0.2l0.4,0.4l0.8,0.8l-1.1-1.2l-0.2-0.2l-0.1-0.1l0-0.1v0.1v0.5v0.7
	c0,0.9-0.1,1.7-0.1,2.4c-0.1,1.4-0.2,2.4-0.2,3.1c-0.1,1.5-0.1,1.9-0.2,2.2c-0.4,4.7-0.7,7-1.2,10.3c-0.2,1.6-0.6,4.3,0.2-1.4
	c-0.2,1.6-0.9,6.5-1.7,11c-0.4,2.2-0.8,4.4-1.1,6s-0.5,2.6-0.5,2.8c-0.2,1-1,4.4-1.2,5.2c-0.8,3.5-1.3,5.4-1.8,7.3s-1,3.8-1.9,7.2
	l0.5-1.9c-0.7,2.7-1.5,5.7-3.3,11.2v-0.2c-2,6.2-2.5,7.6-3,8.9s-0.9,2.6-3.2,8.7l0.3-0.7c-0.2,0.6-1.3,3.2-2.7,6.6
	s-3.2,7.4-4.9,10.8l1.2-2.5c-1.7,3.7-5,10.3-7,13.9c-0.4,0.8,0.7-1.2,1.3-2.4c-1.3,2.4-2,3.6-2.3,4.3l-0.4,0.8l-0.2,0.3
	c-0.2,0.4-0.7,1.2-1.7,2.9l-1.8,3c-0.7,1.2-2.7,4.5-5.2,8.3s-5.4,7.9-7.6,10.9c1-1.3,1.9-2.6-0.3,0.4c-1.7,2.3-4.1,5.3-6.5,8.2
	s-4.9,5.7-6.7,7.6c-0.5,0.5-0.7,0.7-0.7,0.8c-1.5,1.6-4,4.1-6.4,6.5s-4.7,4.4-5.7,5.3c-1.5,1.3-6.7,5.8-11.7,9.6
	c-2.5,1.9-5,3.6-6.8,4.9l-2.2,1.5l-0.8,0.5c-3.7,2.5-7.5,4.8-11.4,7.1l0.3-0.2c-7.5,4.2-10.2,5.6-13,6.9c-1.8,0.8-0.5,0.2-0.3,0.2
	c-5.7,2.7-8.9,3.9-11.9,5.1s-5.7,2.2-10.7,3.8l-1,0.3c-1.3,0.5-5.7,1.8-11.2,3.4s-12.3,3-18.3,4.1l1.3-0.3c-6.8,1.3-15,2.5-22.2,3.2
	s-13.3,1.1-15.8,1.2l-4.6,0.2l-4.6,0.1c11.8-0.3-1.8,0.1,3.1-0.1c-4.6,0.2-12,0.2-6.3,0.1h0.9c1,0-2.6,0-6.5,0s-8-0.1-7.9-0.1
	c-11.5-0.3-22.9-1.3-34.3-3c-11-1.7-21.9-4-32.5-7.2c0.8,0.3,1.6,0.5,2.4,0.7c-2.5-0.7-4.9-1.5-7.3-2.2c-1-0.3-1.6-0.5-1.3-0.5
	s1.4,0.5,4,1.2l-2.5-0.8l-2.9-1c-1.9-0.6-3.4-1.1-3.4-1.2c-10-3.6,3.9,1.4,0.9,0.3l-4.2-1.5l0.9,0.3c-1.7-0.6-2.6-0.9-3.9-1.4
	s-2.9-1.1-5.9-2.4c-3.8-1.6-1.9-0.8-3.4-1.5l-2.3-1c-2.9-1.3-5.8-2.8-8.6-4.2c1.1,0.6,2.3,1.2,3.4,1.8l-2.8-1.4l-2.1-1.2
	c-1-0.6-1.1-0.6,0.8,0.5c-2.8-1.6-10.6-6.1-17.6-11s-13.5-10.3-15-11.6c-4.9-4.1-9.4-8.6-13.7-13.3c1.2,1.3,1.9,2.2-2.3-2.5
	c0.8,0.8-1.1-1.3-3.6-4.2s-5.3-6.6-6.8-8.7c1.4,1.8-1.4-1.7-3.7-5.1s-4.5-6.6-2.5-3.6c-2.9-4.4-0.2-0.2-2.3-3.6
	c-1.7-2.6-3.5-5.3-5.1-8.3s-3.3-6.1-5-9.3l-0.6-1.2l-0.6-1.2l-1.2-2.5l-2.4-5.1c-1.6-3.4-3.1-6.9-4.6-10.5c-0.1-0.2,0.9,2.2-0.4-0.9
	c-1-2.5-2-5-2.9-7.6c-1-2.9-1-2.6-2.8-7.9c0.2,0.7,0.6,1.8,0-0.1c-9.7-28.6-15-59.9-17-90.5c0.3,4.1,0.1,1.4-0.1-1.8
	c0.1,2.1,0,0,0,0.4c-0.2-4.3-0.5-8.5-0.5-12.8c0-1.2-0.1-4.6-0.1-7.9s0-6.5,0-7.2v4.1c0-2.7,0-0.8,0,1.7s0.1,4.5,0.1,5.1
	c0,6,0.4,16,1.2,25.9c0.2,2.2-0.2-1.9-0.1-0.7c0.2,2.5,0.5,5.5,1.1,11.1l-0.1-0.6c0.9,7.9,1.7,13.5,2.6,19.3s2,11.9,3.8,20.6
	l-0.3-1.3c0.8,3.7,1,4.5,1.4,6.3c0.5,2.1-0.1-0.5-0.7-3.1s-1.1-5.4-0.7-3.4c0.5,2.5,1.9,9.1,3.6,15.4s3.5,12.4,4,14
	c1.8,5.6-0.5-1.7,1.3,4l0.5,1.5l0.5,1.4c1.3,3.6,1.9,5.3,2,5.6c-0.3-0.9-0.9-2.5-1.2-3.5c1.6,4.7,4.9,13.2,5.6,14.8
	c-0.7-1.7-1.4-3.5-2.1-5.2c2.9,7.5,6.6,15.6,10.5,23.5c2.1,3.9,4.2,7.8,6.3,11.5c1.1,1.8,2.2,3.6,3.3,5.3s2.1,3.4,3.2,5l-0.6-1
	c3.3,4.9,4.7,6.8,6.2,8.8s3.1,4.2,7.2,9.2l-0.3-0.4c1.7,2,3.9,4.6,6.3,7.2c-2.2-2.4,4.2,4.5,1.2,1.4c4.4,4.7,5.6,5.7,6.4,6.4
	s1.1,1.1,4.3,3.9l1.5,1.3c2.2,1.9,2.4,2.1,7.5,6.1c-4.2-3.3,3.2,2.6-1.5-1.1c5.3,4.2,9.5,7.1,12.9,9.4s6.2,4,8.9,5.6
	s0.1,0.1-2.6-1.6s-5.8-3.7-4.4-2.8c-2.5-1.6,4.3,2.8,8,5c5.2,3.1,10.7,5.9,16.3,8.4l-2-0.9c3.7,1.7,7.4,3.2,12,5.1
	c2.6,1,6.1,2.2,6.9,2.5c-3.2-1.1-6.3-2.2-9.4-3.5c5.3,2.1,10.3,3.9,19.3,6.6l-5.2-1.6c2.6,0.8,5,1.6,7.8,2.3l-2.3-0.6l-4.6-1.4
	c-1.8-0.5-3.7-1.2-5.5-1.8s-3.6-1.3-5-1.8c2.7,1.1,10.9,3.7,8,2.8c4.2,1.3,10.3,3.2,17.5,4.9l-0.5-0.1c1.1,0.3,3.5,0.8,5.6,1.3
	l-3.8-0.8c5.9,1.3,11.3,2.4,17,3.4c-5.9-1-6.6-1.2-6.4-1.1s1.2,0.2-1.3-0.3c3.6,0.7,6,1.1,7.7,1.4l4,0.6c1.2,0.2,2.4,0.4,4.4,0.6
	l3.6,0.5l5.2,0.6c-2.2-0.2-8.4-0.9-4.9-0.5l5.1,0.6l4.2,0.4c11,0.8-1.7-0.1,3,0.2l4.7,0.3l5.5,0.2l0,0c6.3,0.2,7.1,0.2,7.8,0.2
	s1.2,0,6.9,0c-1.6,0-3.2,0-4.8,0c2,0,3.9,0,5.9,0h-1.2c3.2,0,5.3-0.1,7.4-0.2s4.1-0.2,7.3-0.3c-0.7,0-0.5,0,0.6,0l5.8-0.4l5.7-0.5
	c-1.8,0.2-3.7,0.4-7.1,0.6l-2.1,0.2c4.1-0.2,10.2-0.8,13.1-1.1l-3.1,0.3l5.7-0.6l5.7-0.7c1.8-0.3,0.4,0-1,0.1
	c2.3-0.3,3.9-0.5,7.2-1.1c-0.9,0.2-0.7,0.1-5.4,0.8l5.4-0.8l5.4-0.9l4.1-0.8c1.5-0.3,3.1-0.7,4.9-1s3.6-0.8,5.5-1.3
	c1-0.2,1.9-0.5,2.9-0.7l2.9-0.8c2-0.6,3.9-1.2,5.8-1.8l2.8-0.9c7.3-2.3,14.6-5.1,21.6-8.2c1.5-0.7,3.1-1.4,4.6-2.1
	c6.2-3.2-6.1,3.1,4.2-2.2c7.2-3.9,2.7-1.5,5.2-2.8c3.6-2,9.7-5.7,15.9-10C377.3,553.3,375.6,554.4,373.7,555.6z M433.7,494.8
	c-0.9,1.4-2.7,4.2-3.4,5.2C431.3,498.4,432.1,497.2,433.7,494.8L433.7,494.8z M473.8,371.5c-0.1,1.2-0.2,3.2-0.4,5.3
	C473.5,375.3,473.6,373.5,473.8,371.5L473.8,371.5z M182.3,438.2l0.1,0.1C184.9,441.1,184,440.1,182.3,438.2z M177.4,432.2
	c-0.5-0.6-0.4-0.6-0.2-0.3c0.3,0.4,1.3,1.8,2.6,3.4C179.4,434.8,178.8,434,177.4,432.2L177.4,432.2z M142,568.6
	c0.5,0.2,0.9,0.4,1.4,0.6C140.3,567.8,141.1,568.2,142,568.6z"/>
<path class="st0" d="M472.3,386.3l-0.1,0.7C472.1,387.6,472.1,387.6,472.3,386.3z"/>
<path class="st0" d="M325.2,578l-0.2,0.1l-0.3,0.1L325.2,578z"/>
<path class="st0" d="M285.6,450.5c1.4-0.8,2.1-1.2,2.7-1.5C288.3,448.9,287.7,449.3,285.6,450.5z"/>
<path class="st0" d="M161.1,394.8c0.4,1.6,0.8,3.2,1.2,4.8c-0.6-2.3-0.8-3.1-1.1-4.3C161.3,395.4,161.5,396.3,161.1,394.8z"/>
<path class="st0" d="M158.4,352.1c0-0.7,0.1-1.5,0.1-2.2v0.2C158.4,353.1,158.2,355.3,158.4,352.1z"/>
<path class="st0" d="M160.2,390.3c-0.1-0.4-0.7-3.4-1.2-6.9l0.1,0.6C159,383,159.5,386.7,160.2,390.3z"/>
<path class="st0" d="M159,382.6c-0.1-1.1-0.3-2.1-0.4-3.2C158.5,379,158.7,380.7,159,382.6z"/>
<path class="st0" d="M172.2,423.8c-0.8-1.4-0.5-0.9-1-1.7s0.8,1.6,1.8,3.2c0.5,0.8,0.9,1.4,0.8,1.3S173.3,425.8,172.2,423.8z"/>
<path class="st0" d="M159.8,387.5l0.2,1.2l0.4,1.9C160.1,389.6,160,388.6,159.8,387.5z"/>
<path class="st0" d="M167.4,413.8c-0.7-1.7-1.4-3.4-2-5.2l-0.5-1.4c0.6,1.6,1.2,3.3,1.7,4.5L167.4,413.8z"/>
<path class="st0" d="M164.9,407.2c-0.6-1.7-1.1-3.3-1.4-4.2C163.7,403.9,164.4,405.9,164.9,407.2z"/>
<path class="st0" d="M161.3,394.9l0.4,1.6c0.3,1.3,0.6,2.5,1,3.8C162.2,398.5,161.7,396.7,161.3,394.9z"/>
<path class="st0" d="M207.2,456c1.9,0.8,3.8,1.5,5.7,2.1c0.6,0.2-1-0.3-3.1-1.1C208.4,456.5,206.3,455.6,207.2,456z"/>
<path class="st0" d="M191.5,446.7c1.3,1,1.4,1.1,2.1,1.6l0.2,0.1C193,447.9,192.2,447.3,191.5,446.7z"/>
<path class="st0" d="M206.6,455.7c0.5,0.3,8.2,3.2,1,0.4C207,455.9,201.6,453.4,206.6,455.7z"/>
<path class="st0" d="M293.5,445.5c-0.4,0.3-0.8,0.6-1.3,0.9l0.2-0.1C292.8,446,293.1,445.8,293.5,445.5z"/>
<path class="st0" d="M333.8,378.1c-0.7,3.5-0.9,3.9-0.9,4.2s-0.1,0.6-0.9,3.7c-0.2,0.8,0.2-0.5,0.5-1.7s0.6-2.5,0.4-1.7
	C333.8,378.4,334.2,376.2,333.8,378.1z"/>
<path class="st0" d="M332.8,382.7c-0.2,0.7-0.3,1.4-0.5,2.1C332.6,383.6,332.7,383,332.8,382.7z"/>
<path class="st0" d="M20.2,331.9c0-1.5,0-3.1,0-4.6v3C20.2,330.8,20.2,331.3,20.2,331.9z"/>
<path class="st0" d="M20.3,323v-1.1l0-1.4v-0.7c0-0.1,0-0.2,0-0.3c0-0.1-0.1-0.2-0.1-0.3c0.1,0.1,0.1,0.3,0.1,0.4v0.5v1.1
	C20.3,321.9,20.3,322.6,20.3,323z"/>
<path class="st0" d="M440.3,483.8l0.2-0.3c-0.4,0.6-0.9,1.6-2,3.4C439.1,485.9,439.7,484.9,440.3,483.8z"/>
<polygon class="st0" points="402.4,533.2 403.1,532.5 401.7,533.9 "/>
<path class="st0" d="M359.9,563.8c1.9-1,4.1-2.2,5.9-3.3C361.8,562.8,359.3,564,359.9,563.8z"/>
<path class="st0" d="M19.1,319.9c0-0.5,0.1-1,0.3-1.4l0-0.2C19.2,318.9,19.1,319.4,19.1,319.9l0,0.4L19.1,319.9z"/>
<polygon class="st0" points="17.5,354 17.5,353.4 17.6,358.4 "/>
<path class="st0" d="M19,385.8c-0.3-3-0.9-11.5-1.1-17.2v-0.9l-0.1-2.6C18,372,18.6,381,19,385.8z"/>
<path class="st0" d="M21,402.7c-0.1-1,0.5,3.6-0.5-3.9l0.1,0.7C20.6,400.1,20.8,401.1,21,402.7z"/>
<path class="st0" d="M20.6,399.5C20.1,396.1,20.8,401.6,20.6,399.5z"/>
<path class="st0" d="M23,414.8l-0.8-4.4c0.1,0.9,0.8,4.8,0.6,3.3C23.6,418.3,23.4,417.3,23,414.8z"/>
<path class="st0" d="M23.8,418.9l-0.4-2.3C23.4,417,23.5,417.6,23.8,418.9z"/>
<path class="st0" d="M22.5,411.9l0.9,4.8l-0.4-2.2C23,414.8,22.8,413.9,22.5,411.9z"/>
<path class="st0" d="M22,409.2c-0.4-2.5-0.9-5.6-0.2-1.2c-0.6-4.1-0.8-5.3-0.9-5.7C21,402.6,21.3,405,22,409.2z"/>
<path class="st0" d="M19.2,387.4l-0.3-3.3l-0.2-2.9C18.8,382.7,19.2,387.6,19.2,387.4z"/>
<path class="st0" d="M29,441.7l-0.5-1.8l-0.8-3.2L29,441.7z"/>
<path class="st0" d="M28.5,439.9l1.3,4.7C28.6,440.4,28.5,439.6,28.5,439.9z"/>
<path class="st0" d="M23.9,419.7c-0.5-2.6-1-5.3-1.5-7.9c0.5,3.2,1.1,6.3,1.8,9.4L23.9,419.7z"/>
<path class="st0" d="M34.4,459.5l-0.9-2.6c0.5,1.6,1.1,3.1,1.6,4.7L34.4,459.5z"/>
<path class="st0" d="M38.6,471.2c-0.8-1.9,1,2.6,0.2,0.6c1.2,3.1,2.4,5.8,3.4,8.1C41.2,477.4,40,474.7,38.6,471.2z"/>
<path class="st0" d="M44.1,483.8c-0.6-1.2-1.2-2.5-1.8-4C42.9,481.3,43.5,482.5,44.1,483.8z"/>
<path class="st0" d="M32.2,452.6c0.1,0.4,0.3,1.1,1.1,3.7l-0.6-1.8C32.6,453.9,32.4,453.3,32.2,452.6z"/>
<path class="st0" d="M32.7,454.4L32.7,454.4c0.6,2.1,1.1,3.4,1.3,4.1L32.7,454.4z"/>
<path class="st0" d="M32,452.1l0.1,0.5L32,452.1z"/>
<path class="st0" d="M26.6,432.2c0.7,2.8,2.1,8.6,0.7,3C26.9,433.2,27.6,436.4,26.6,432.2z"/>
<path class="st0" d="M31.4,449.8c-0.5-1.7-1-3.3-1.5-5c0,0.1,0.3,1-0.1-0.4C30.3,446.3,30.8,448.1,31.4,449.8z"/>
<polygon class="st0" points="32.1,452.3 31.3,449.8 31.9,451.7 "/>
<path class="st0" d="M40.5,475.7c0.9,2.1,1.9,4.3,3,6.8c-1.2-2.7-2.5-5.5-3.6-8.2C39.8,473.9,39.3,472.8,40.5,475.7z"/>
<path class="st0" d="M36.5,465.4l0.2,0.5C36.6,465.6,36.5,465.4,36.5,465.4z"/>
<path class="st0" d="M56.4,506.6l-0.2-0.4l-0.1-0.1L56.4,506.6z"/>
<path class="st0" d="M39.8,473.9c-0.8-2.1-1.3-3.3-1.8-4.5c0.6,1.6,1.2,3.2,2,5C40,474.5,40,474.5,39.8,473.9z"/>
<path class="st0" d="M47.4,490.7l-1.7-3.5L47.4,490.7z"/>
<path class="st0" d="M36.9,466.6l-0.1-0.3C37,467,37,466.9,36.9,466.6z"/>
<path class="st0" d="M36.9,466.6c0.4,1.1,0.7,1.9,1,2.8c-0.5-1.3-0.9-2.5-1.3-3.5L36.9,466.6z"/>
<path class="st0" d="M61,513.4c-0.2-0.3-3.5-5.2-6.1-9.5s-1-1.4,1.3,2.3l2.9,4.5c-1-1.5-6-9.7-3.7-6c3.6,5.8,3,4.7,4.7,7.5
	c-0.8-1.2,0.4,0.6,1.7,2.5s2.8,4,2.4,3.3c-1.1-1.6-2.3-3.3-3.4-4.9C60.7,513,61.9,514.8,61,513.4z"/>
<path class="st0" d="M51.2,497.8l-1-1.8c1.2,2.1,2,3.6,3.6,6.4c1.8,3,2.2,3.6,2.3,3.8c-1.8-3-3.6-6-5.2-9L51.2,497.8z"/>
<path class="st0" d="M45.9,487.5c0.7,1.5,3.1,6,1.6,3.2s-1.9-3.7-2.2-4.4s-0.5-1.1-1.3-2.8C48.3,492.5,42.7,480.9,45.9,487.5
	c-0.9-1.8-1.6-3.4-2.4-4.9c0.8,1.6,1.5,3.2,2.2,4.7l-0.1-0.2l0,0l0,0c-0.2-0.4-0.2-0.5,0-0.1l0.1,0.2L45.9,487.5
	c1.3,2.6,0.2,0.4-0.2-0.4l0-0.1l0,0c1.5,3,3,6,4.6,8.9C49.2,494,47.9,491.7,45.9,487.5z"/>
<path class="st0" d="M28.7,440.3l0.1,0.3C29,441.3,29,441.5,28.7,440.3z"/>
<path class="st0" d="M29.8,444.3c-0.2-0.7-0.4-1.3-1-3.6c-0.5-2,0,0,0-0.1c-0.4-1.4-1.3-4.8-0.1-0.5l0.2,0.7c1,3.9,2.5,8.9,2.3,8.2
	L29.8,444.3z"/>
<path class="st0" d="M36.9,466.5c1,2.6,2,5.2,3,7.8l-1.6-4l0.1,0.2C36.8,466.2,37.1,467.1,36.9,466.5z"/>
<path class="st0" d="M56.9,507.4l-0.6-0.9c0.9,1.4,1.7,2.7,2.6,4.1C58.2,509.5,57.6,508.4,56.9,507.4z"/>
<polygon class="st0" points="62.9,516.4 62.7,516.1 64.3,518.4 "/>
<path class="st0" d="M447.2,366.6L447.2,366.6z"/>
<path class="st0" d="M464.9,366.6L464.9,366.6z"/>
<path class="st0" d="M301.2,596c3.5-0.7,7.4-1.5,7-1.5l-1.1,0.2L301.2,596z"/>
<path class="st0" d="M444.3,493.1c-0.2,0.3-0.3,0.6-0.5,0.9l-1.2,2.1L444.3,493.1z"/>
<path class="st0" d="M445.4,490.9l2.2-4.2C447.1,487.6,446.4,489,445.4,490.9z"/>
<path class="st0" d="M350.3,365.7h-2.9H350.3z"/>
<path class="st0" d="M148.5,584.6c2.9,1.1,5.2,2,7.2,2.7C152.2,586,149.4,584.9,148.5,584.6z"/>
<path class="st0" d="M454.1,366.5H452C453.6,366.5,454.5,366.5,454.1,366.5z"/>
<path class="st0" d="M164.1,590.1l-1.5-0.5c-2.2-0.6-4.3-1.4-6.9-2.3C158.2,588.2,161.2,589.3,164.1,590.1z"/>
<path class="st0" d="M151.5,316.3L151.5,316.3z"/>
<path class="st0" d="M49.2,317.7l4.2-0.1L49.2,317.7z"/>
<path class="st0" d="M91.5,549.2C89.8,547.7,91.2,549,91.5,549.2z"/>
<path class="st0" d="M83.5,541.4l0.6,0.7L83.5,541.4z"/>
<path class="st0" d="M186.3,595.8h0.2H186.3z"/>
<path class="st0" d="M88.9,546.9l2.2,2L88.9,546.9z"/>
<path class="st0" d="M89.3,547.2l-1.5-1.4L89.3,547.2z"/>
<path class="st0" d="M93.9,551.3l-2.8-2.5l0.4,0.3L93.9,551.3z"/>
<path class="st0" d="M234.9,451.8h-0.5C232.1,451.5,233.1,451.6,234.9,451.8z"/>
<path class="st0" d="M357.7,577l-0.2,0.1L357.7,577L357.7,577z"/>
<path class="st0" d="M365,573.1c-3.1,1.7-4.8,2.7-7.2,3.8c0.8-0.4,1.7-0.8,2.5-1.2C361.9,574.9,363.5,574,365,573.1z"/>
<path class="st0" d="M445.3,491.2l0.3-0.6C445.9,489.9,445.9,489.9,445.3,491.2z"/>
<path class="st0" d="M350.8,365.7L350.8,365.7z"/>
<path class="st0" d="M216.9,600.2l3.1,0.3L216.9,600.2z"/>
<path class="st0" d="M75,532.1c1.1,1.3,2.2,2.5,3.3,3.8c-1.6-1.8-2.2-2.5-3-3.4C75.3,532.6,76,533.3,75,532.1z"/>
<path class="st0" d="M50.6,496.5l-1.1-2l0.1,0.2C51.1,497.4,52.2,499.3,50.6,496.5z"/>
<path class="st0" d="M72,528.6c-0.2-0.3-2.2-2.7-4.3-5.5l0.4,0.5C67.5,522.7,69.7,525.7,72,528.6z"/>
<path class="st0" d="M67.3,522.4c-0.6-0.9-1.3-1.8-1.9-2.6C65.1,519.4,66.1,520.8,67.3,522.4z"/>
<path class="st0" d="M97.2,554.1c-1.3-1.1-0.8-0.6-1.5-1.3s1.4,1.2,2.8,2.4S100.7,557,97.2,554.1z"/>
<polygon class="st0" points="70.3,526.3 71.1,527.3 72.3,528.8 "/>
<path class="st0" d="M88.8,546.7c-1.4-1.3-2.7-2.6-4-3.9l-1-1.1c1.2,1.2,2.5,2.5,3.4,3.4L88.8,546.7z"/>
<path class="st0" d="M83.8,541.7c-1.3-1.3-2.4-2.5-3.1-3.2C81.4,539.2,82.8,540.7,83.8,541.7z"/>
<path class="st0" d="M75.1,532.2l1.1,1.3l2.6,3C77.6,535,76.4,533.6,75.1,532.2z"/>
<path class="st0" d="M138.3,580.1l5.6,2.5c0.6,0.2-1-0.4-3-1.3L138.3,580.1z"/>
<path class="st0" d="M122,571.6l2.3,1.4l0.2,0.1L122,571.6z"/>
<path class="st0" d="M137.7,579.8c0.5,0.3,8.1,3.6,1,0.4C138.1,580,132.6,577.3,137.7,579.8z"/>
<polygon class="st0" points="226.3,600.9 224.8,600.8 225,600.9 "/>
<path class="st0" d="M306.6,594.6c-7.1,1.4-1.7,0.4-8.1,1.7l1.8-0.3c1.3-0.2,2.6-0.5,1.8-0.3C306.3,594.7,308.6,594.3,306.6,594.6z"
	/>
<path class="st0" d="M302,595.6c-0.7,0.1-1.4,0.3-2.2,0.4C301.1,595.8,301.7,595.7,302,595.6z"/>
<polygon class="st0" points="32.2,318 27.6,318.1 30.6,318.1 "/>
<path class="st0" d="M23.3,318.3h-1.1l-2.8,0.1L23.3,318.3z"/>
<path class="st0" d="M475.9,392.5v0.3l0.5-4L475.9,392.5z"/>
<polygon class="st0" points="441.3,366.6 442.4,366.6 440.4,366.5 "/>
<path class="st0" d="M388.6,366.3l6.8,0.1L388.6,366.3z"/>
<path d="M315,345.8c-1-12.4-1.5-24.8-1.9-37.1l-0.3-18.6v-18.5v-4.7h4.9c14.3-0.2,28.6-0.4,42.9,0.1c14.3,0.5,28.6,1.6,42.9,2.4
	s28.6,1.2,42.9,1.1c14.3-0.2,28.6-0.7,43-1.4l3.2-0.2l0.2,3.5c0.5,12.4,1.1,24.7,1.3,37.1l0.5,37.1l0.1,5.7l-5.9,0.1l-21.4,0.5
	l-21.4,0.2c-14.3-0.1-28.5-0.1-42.8-0.5c-28.5-0.6-57.1-1.8-85.7-4.1v-1.2c28.5-2.8,57.1-4.4,85.6-5.5c14.3-0.6,28.5-0.9,42.8-1.2
	l21.4-0.1l21.4,0.2l-5.8,5.8l1.2-37c0.4-12.3,1.2-24.7,2-37l3.3,3.4c-14.3-0.8-28.6-1.5-42.9-1.7c-14.3-0.2-28.6,0-42.9,0.7
	s-28.6,1.7-43,2.1s-28.6,0-42.9-0.2l4.9-4.8l-1.1,18.5l-1.4,18.5c-1.1,12.3-2.3,24.7-4,37L315,345.8z"/>
<path class="st0" d="M316.2,345.8c-0.4,0-0.8,0-1.2,0h0.8H316.2C316.2,345.8,316.2,345.8,316.2,345.8l0-0.4L316.2,345.8z"/>
<polygon class="st0" points="319.1,320.8 319.1,321.2 319.4,317.5 "/>
<path class="st0" d="M321.1,297.3c-0.2,2.3-0.7,8.5-1,12.7l-0.1,0.7l-0.2,1.9C320.4,307.5,320.8,300.9,321.1,297.3z"/>
<path class="st0" d="M322,284.8c0,0.8,0.2-2.7-0.2,2.9v-0.5L322,284.8z"/>
<path class="st0" d="M321.8,287.2C321.7,289.7,321.9,285.6,321.8,287.2z"/>
<path class="st0" d="M322.5,275.8l-0.2,3.3c0-0.7,0.2-3.6,0.2-2.5C322.7,273.2,322.6,273.8,322.5,275.8z"/>
<path class="st0" d="M322.7,272.7l-0.1,1.7C322.6,274,322.6,273.6,322.7,272.7z"/>
<path class="st0" d="M322.4,277.9l0.2-3.6c0,0.5,0,0.5-0.1,1.6C322.5,275.7,322.4,276.4,322.4,277.9z"/>
<path class="st0" d="M322.2,280c-0.1,1.8-0.3,4.2-0.1,0.9C321.8,287.1,321.9,286.2,322.2,280z"/>
<path class="st0" d="M321.1,296.1l-0.2,2.5l-0.2,2.1C320.9,299.6,321.1,296.4,321.1,296.1z"/>
<path class="st0" d="M327.3,276.9H326h-2.4H327.3z"/>
<path class="st0" d="M326,276.9l3.6,0.1L326,276.9z"/>
<path class="st0" d="M322.7,272.1l-0.3,5.9l0.2-3.5l0.1-1.8v-0.5L322.7,272.1l0-0.3l-0.1,0.1l-0.7,0.7l0.4-0.4l0.2-0.2l0.1-0.1
	c0,0,0,0,0,0.1L322.7,272.1z"/>
<polygon class="st0" points="341.1,277.1 339.1,277.1 342.7,277.1 "/>
<path class="st0" d="M350.3,277.2c-1.5,0,2.1,0,0.5,0c2.5,0,4.6,0,6.5-0.1C355.2,277.1,353,277.2,350.3,277.2z"/>
<path class="st0" d="M360.5,277l-3.2,0.1L360.5,277z"/>
<path class="st0" d="M335.7,277.1l2.8,0h-1.4L335.7,277.1z"/>
<path class="st0" d="M337.1,277.1L337.1,277.1h3.1H337.1z"/>
<path class="st0" d="M335.4,277.1L335.4,277.1z"/>
<path class="st0" d="M320.1,276.7c2.1,0,6.5,0.1,2.3,0C320.9,276.7,323.3,276.8,320.1,276.7z"/>
<path class="st0" d="M333.6,277l-3.8-0.1c0.1,0,0.8,0-0.3,0L333.6,277z"/>
<polygon class="st0" points="335.5,277 333.6,277 335,277 "/>
<path class="st0" d="M353.9,277.1l5.5-0.1l-6.6,0.1C352.5,277.1,351.5,277.1,353.9,277.1z"/>
<path class="st0" d="M345.7,277.1L345.7,277.1z"/>
<path class="st0" d="M379.6,276.3h-0.4H379.6z"/>
<path class="st0" d="M352.4,277.1h-3.6h3.9H352.4z"/>
<path class="st0" d="M366.1,276.8l-2.9,0.1L366.1,276.8z"/>
<path class="st0" d="M346.7,277.2L346.7,277.2z"/>
<path class="st0" d="M346.7,277.2L346.7,277.2z"/>
<path class="st0" d="M385.6,275.8c-0.3,0-4.6,0.3-8.4,0.5s-1.3,0.1,1.9,0l3.9-0.2c-1.3,0.1-8.4,0.4-5.2,0.2l6.5-0.3
	c-2.1,0.1,6.4-0.4,5.3-0.3l-4.4,0.3C385.3,275.8,386.9,275.7,385.6,275.8z"/>
<path class="st0" d="M372,276.6l-1.6,0.1l5.4-0.2l3.3-0.2l-7.7,0.4L372,276.6z"/>
<path class="st0" d="M363.5,276.9c1.2,0,5-0.2,2.7-0.1l-5.9,0.2C367.6,276.8,358.1,277,363.5,276.9l-4.1,0.1l3.8-0.1H363l7.4-0.3
	L363.5,276.9z"/>
<path class="st0" d="M326.3,276.8h0.2C327,276.8,327.2,276.8,326.3,276.8z"/>
<path class="st0" d="M329.4,276.9h-2.7c-1.5,0,0,0-0.1,0c-1,0-3.7-0.1-0.4,0h0.5l6.3,0.1L329.4,276.9z"/>
<path class="st0" d="M346.6,277.1h6.2h-3.1h0.2H346.6z"/>
<polygon class="st0" points="380.3,276.2 379.4,276.2 383,276 "/>
<polygon class="st0" points="388.2,275.8 388,275.8 390.1,275.6 "/>
<path class="st0" d="M408.2,352.7h1.8H408.2z"/>
<path class="st0" d="M395.1,352.5h-0.3C395.4,352.5,395.7,352.5,395.1,352.5z"/>
<path class="st0" d="M480.5,340.5c-2.6,0-5.6-0.1-5.3,0h0.8H480.5z"/>
<path class="st0" d="M345.9,345l0.8,0l1.8-0.1L345.9,345z"/>
<path class="st0" d="M344,345.2l-3.5,0.3L344,345.2z"/>
<path class="st0" d="M470.2,274.9l5.7,0.3C473.1,275,470.9,274.9,470.2,274.9z"/>
<path class="st0" d="M403.1,352.7h1.5H403.1z"/>
<path class="st0" d="M482.5,275.5l-1.2-0.1l-5.4-0.3L482.5,275.5z"/>
<path class="st0" d="M331.4,266.7L331.4,266.7z"/>
<path class="st0" d="M313.7,323.9c0-0.8-0.1-2-0.1-3.1C313.6,321.3,313.6,322.3,313.7,323.9z"/>
<path class="st0" d="M420.4,274.3C418.7,274.3,420.2,274.3,420.4,274.3z"/>
<path class="st0" d="M412.2,274.5h0.7H412.2z"/>
<path class="st0" d="M485.9,277.5v0.1C485.9,277.2,485.9,277.3,485.9,277.5z"/>
<path class="st0" d="M417.9,274.3l2.1-0.1L417.9,274.3z"/>
<path class="st0" d="M418.2,274.3h-1.5H418.2z"/>
<path class="st0" d="M422.8,274.3H420h0.4H422.8z"/>
<path class="st0" d="M470.5,270h-0.4C468.4,270,469.1,270,470.5,270z"/>
<path class="st0" d="M436.3,341L436.3,341z"/>
<path class="st0" d="M430.2,341.2l6-0.2h-2L430.2,341.2z"/>
<path class="st0" d="M439.6,353.1h-4.3c5.2,0,8.9,0.1,4.9,0l-17.2-0.2h-2.8h1.7l-11.2-0.1c-2.5,0-4.2,0-2.5,0l-5.5-0.1h0.4l-8.4-0.2
	h0.1l-5.2-0.1c-2.1-0.1,1.1,0,0.5,0l-4.6-0.1l5.2,0.1l-13.2-0.4l4.4,0.1l-11.2-0.4c1.2,0,9.9,0.4,4.9,0.2l-6-0.2l-6-0.3h0.2
	l-5.4-0.2l-5.8-0.3c-6.4-0.3,4.4,0.2-3.2-0.2l-15.4-1c-3.7-0.3,0.7,0-0.7-0.1l-3.3-0.2h-0.4l-4.6-0.3l-5.6-0.5l-1.1-0.1l-0.5,0h-0.2
	c0-0.1,0-0.2,0-0.2v-0.8c0-0.1,0.1,0,0.2,0l1.1-0.1l4.3-0.4c1.3-0.1-0.6,0.1-0.2,0l12.4-1.1l5.2-0.4c-3.8,0.3,1.1-0.1,5.3-0.5
	l-3.3,0.2l6.8-0.5c0.8,0,0.1,0-1,0.1l1.2-0.1c2.4-0.2,1.2-0.1-0.6,0.1l-2.5,0.2c-1.7,0.1-3.2,0.3-2.9,0.2l2.2-0.2h-0.5l2-0.2
	l1.5-0.1h0.4l8.9-0.6c6.4-0.4,11.9-0.8,22-1.3c-2.5,0.1-0.5,0-0.7,0.1c-2.8,0.1-7.8,0.4-13.1,0.7c2.7-0.2,2.1-0.1,1.4-0.1l9.4-0.5
	c-0.2,0,2-0.1,4.4-0.2c-1.8,0.1,7-0.3,10.8-0.5c0.2,0-0.7,0.1-5.3,0.3l11.7-0.5l-2.2,0.1c2.7-0.1,9.1-0.4,7.6-0.3h-1.1l24.1-0.7
	c0.1,0-1,0.1-1.4,0.1l13.5-0.5c-1.2,0.1,3.4,0-2.9,0.2l7.8-0.2c-1.2,0-3,0-1.4,0c4.6-0.1,3.2,0,8.9-0.1c-1.8,0,0.2,0,3.1-0.1
	c-0.3,0-0.5,0-0.8,0l7.2-0.1c-1.8,0-0.3,0,1.3,0c-0.7,0,6.2,0,8.2,0h-3.1l16.2,0.1c-1,0-2.4,0,1.7,0.1h2.2h0.9c0,0-0.1,0.1-0.1,0.1
	l-0.3,0.3l-1.3,1.4l-3.2,3.2l-0.4,0.4l-0.3,0.3l-0.1,0.1v-0.2c0-0.5,0-0.9,0-1.3c0-0.9,0-1.8,0.1-2.6l0.1-1.4l0.2-5.5
	c0,1.7-0.1,5-0.2,8.5v1.3v0.7v0.4c0,0.1,0.1,0,0.1,0l1.8-1.8l3.2-3.3l-3.8,3.8c-1.2,1.1,1.8-1.8,2.7-2.7l-3.8,3.8c0,0-0.1,0.1-0.1,0
	v-0.6v-1.3l0.1-2.7c0-0.8,0.2-7.1,0.2-7.7l-0.3,11.6c0,0.5,0.1-6.7,0.4-14.2c0.1-1.9,0,1.4,0,1.3c0-1,0.2-7.1,0.2-7.8l-0.1,3.2
	c0.1-4.2,0.2-6.8,0.4-11.9c0.1-1.7,0.2-5,0.2-5.5c-0.1,2.8-0.2,3.4-0.2,1.5c0-0.6,0.5-9.1,0.6-11.1c0.2-2.9-0.2,4.3,0,1.9l0.1-2.3
	c0.1-1.8,0,0.8,0.2-3.2c0-0.7,0.5-8.1,0.1-1.9c0.2-3.9,0.2-4.1,0.5-8.7c-0.1,1.5,0.2-4.1,0.4-8c0,0.2,0-0.6,0.1-1.1
	c0-1,0.1-1.9,0.2-2.8c0-0.4,0-0.9,0.1-1.3v-0.6v-0.3c0-0.1,0,0,0.1,0l0.1,0.1l1.8,1.7l0.8,0.8l0.4,0.4l0.2,0.2c0,0,0.1,0.1,0.1,0.1
	h-0.1l-9.6-0.5c-0.7,0-4.3-0.2-2.7-0.2l-4.3-0.2c-4.4-0.2,5.1,0.2,1.7,0l-9.2-0.4L476,275h-1l-2.8-0.1l-9.6-0.4
	c-6.2-0.2-2.7-0.1-3.8-0.1c-5.8-0.2-8.3-0.2-10.5-0.2l-9-0.1c-3.8,0-0.2,0-1-0.1c5,0,7.7,0.1,11.1,0.2l-4.2-0.1l6.8,0.1
	c-1.6,0-6.5-0.2-12.1-0.2c-5.6,0-11.9,0-16.4,0.1l-3,0.1l2.8-0.1c2.6,0-5.3,0.1-1.7,0.1c-3.8,0.1-8,0.2-13.4,0.5h-1l5-0.2
	c-2.2,0.1-8.2,0.3-10.6,0.5l3.7-0.2l-13.2,0.7l4.5-0.2c-2.9,0.1,12.1-0.6,7.4-0.4c3.5-0.1,6-0.3,10.5-0.4c-0.1,0-1.6,0,2.4-0.1h0.9
	l0,0h-2c2-0.1,8.3-0.2,10.4-0.3c2.4,0-1,0,0.3,0l3.2,0c0.3,0,6.3,0,0.7,0h5l9.5,0.1l3.9,0l7.8,0.2h0.1c7.7,0.2,15.9,0.5,24.8,1
	l4.2,0.2l2.5,0.1l1.6,0.1h0.2l0-0.1l-0.2-0.2l-0.3-0.4l-0.6-0.6l-0.6-0.6l-1-1l-0.6-0.6l-0.2-0.2l-0.1-0.1c0,0,0,0.1,0,0.2v0.6
	c-0.1,1.1-0.1,2.3-0.2,3.5c-0.1,2.3-0.2,4.3-0.3,5c-0.2,3.8-0.9,16.2-1.2,22.1v0.2c-0.1,2-0.2,4-0.3,6.1s-0.1,4.3-0.2,6.8v-0.3
	c-0.2,4.3-0.4,11.1-0.6,18c0-0.5,0.1-2.2,0.1-3.4c-0.1,4.1-0.3,8.4-0.4,12.6c0,0.5,0,1,0,1.6v0.8v0.5v0.3c0,0.1,0,0,0.1,0l0.1-0.1
	l2.3-2.3l2.1-2.1l1-1l0.3-0.3l0.2-0.2c-0.1,0-0.2,0-0.3,0h-0.8h-4.5H483h-2.6h2.2h-5.7H476h-0.5c-2.1,0-1.7,0-0.6,0h-2.8
	c-1.7,0-5.6,0-7.9,0l-11.8,0.1c-0.1,0-0.7,0,0.4,0h-6.8h-1l-5.2,0.2c-3.1,0.1-4.4,0.1-1.3,0l-12.5,0.4h0.3l-7.3,0.2l-16.2,0.5
	c-7.3,0.3-15.7,0.7-22.2,1c2.5-0.1-6.1,0.3-6.6,0.4c-0.8,0-2.6,0.1-0.5,0c-6.7,0.4-10,0.6-14.7,0.9c-0.8,0,1.4-0.1,0.8-0.1l-2.8,0.2
	l2-0.1c-6.8,0.4-7.5,0.5-8,0.6c-3.5,0.2-5.2,0.4-7.7,0.6c-1.2,0.1-3.2,0.2,1-0.1l-8.2,0.6l-6.6,0.6l-4,0.3l-5.6,0.5l-2.3,0.2h-0.1v1
	c0,0.1,0,0.1,0,0.2h0.2l1.8,0.1l-1.5-0.1l8.6,0.7h-0.1c9.7,0.7,4.2,0.3,13.8,0.9h-0.5c0.9,0,8.5,0.5,14.1,0.8l-2-0.1l11.6,0.6
	l-2-0.1c8,0.3,1,0,7,0.3c1.1,0-1.4,0,2.6,0.1l17.1,0.6c-1.2,0-2.4-0.1,0.4,0c4.3,0.1,11.5,0.3,15.3,0.4h0.8l12.5,0.1l20.1,0.2
	c3.3,0,6.7,0.1,10,0.1H447l10.9-0.1c1.5,0,0.4,0,0.3,0l9.6-0.1l8.5-0.2h0.8l8.7-0.2l6.9-0.2h1.8h0.2c0.1,0,0.1-0.1,0.1-0.1v-0.6
	v-0.9c0-1.2,0-2.4,0-3.5v1c-0.1-10.3-0.3-24.3-0.4-28.4l-0.1-6.8c0.1,8.8,0-1.3,0,2.3c0-3.5-0.1-9,0-4.7v0.6
	c0.1,1.6-0.3-10.9-0.3-10.7c-0.3-8.7-0.6-17.2-0.9-25.6c0-1-0.1-2.1-0.1-3.2l-0.1-1.6v-0.8v-0.4c0-0.1,0-0.2,0-0.2h-0.3l-6.2,0.3
	l-12.3,0.5l1.9,0l-5.7,0.2c-1.5,0-2,0,2-0.1l-6.9,0.2c-7.9,0.2,3.1-0.1,0.7,0l-3.3,0.1h0.7c-2.7,0.1-2.9,0.1-7.8,0.2h-2.8h-1.9
	l-7.1,0.1h2.8c-3.2,0-6.7,0-3.4,0c-2.4,0-9,0-15.5-0.1c-6.5-0.2-12.6-0.4-14.1-0.5c-4.4-0.2-8.8-0.4-14.2-0.8
	c1.3,0.1,2.1,0.2-2.5-0.1c1.7,0.1-8.5-0.6-12.3-0.8c3.4,0.2-13.2-0.8-8-0.5c-3.9-0.2-0.2,0-3.2-0.2c-9.2-0.5-20.4-0.9-31.9-0.9
	c-0.2,0,1.7,0-0.7,0h-6l-6.2,0.1c0.6,0,1.5,0-0.1,0l-8.5,0.1l-4.2,0h-2.1h-1.1c-0.1,0-0.1,0-0.2,0v1c0,5.7,0,11.5,0,17.2
	c0,5.8,0.1,11.5,0.2,17.3s0.2,11.5,0.5,17.2c-0.1-3.1,0-1,0.1,1.3c-0.1-1.5,0,0,0-0.3c0.1,3.2,0.3,6.3,0.4,9.5
	c0.1,1.7,0.6,10.2,0.7,11.2l-0.2-3c0.3,4-0.4-5.6-0.3-5c-0.3-4.5-0.6-11.8-0.8-19.2c0-1.6,0,1.4,0,0.5c0-1.9-0.2-4.1-0.2-8.3v0.5
	c-0.1-5.9-0.2-10.1-0.2-14.5s0-9,0-15.5v1c0-2.8,0-3.4,0-4.8c0-3.3,0,8,0,5c0-1,0-2.7,0-4.8V267c0-0.1,0-0.1,0-0.1h0.7l10.8-0.1h3.1
	h1.2h1.1h4.4h-2.7h11.8H339c11.9-0.1,26.5,0.4,38,1.1h-0.9c8.8,0.5,7,0.4,16.7,1h-0.3l7.1,0.4c-2.4-0.1,4.6,0.3,1.4,0.1
	c9.5,0.5,4.7,0.3,11,0.6l1.5,0.1l7.1,0.3c-4-0.1,3.1,0.1-1.3,0c10.1,0.4,15,0.3,19.7,0.4s-8.8-0.1-6.2-0.1c-2.2,0,3.8,0,7,0
	s5.5,0,13.6-0.1h-1.7l9.7-0.2c2.1-0.1,4.8-0.1,5.5-0.2l-7.5,0.2c4.2-0.1,8.2-0.3,15.2-0.5l-4,0.2l6-0.2c-0.6,0.1-9.1,0.4-13.6,0.5
	c2.2,0,8.6-0.3,6.3-0.2c3.3-0.2,8-0.3,13.5-0.6h-0.4l4.3-0.2l-2.9,0.2l6.5-0.3l1.6-0.1h0.8c0,0,0,0,0,0.2v0.4c0,1.1,0.1,2.1,0.1,3.2
	c0-1.1-0.1-2-0.1-2.7v-0.9c0-0.3,0.1-0.2-0.2-0.2h-0.7c0.1,0,0.9-0.1-1,0l1.8-0.1c0,0.1,0,0.2,0,0.3v0.4c0,0.3,0,0.5,0,0.8
	c0,1,0.1,1.7,0.1,2.4c0,1.3,0.1,2.1,0.1,3c0.1,1.8,0.1,3.7,0.3,9.8c-0.1-1.7-0.2-6.3-0.1-3.7c0.1,2.3,0.2,5.4,0.2,6.9
	c0.3,8.2,0-1.3,0.1,2.2c0.1,2.8,0.2,4,0.3,7.6l0,0c0.3,9.2,0.1,2.5,0.4,10.9l-0.1-3.5c0,1.5,0.1,2.9,0.1,4.4v-0.9
	c0.1,4.8,0.1,6.2,0.2,10.9c0-1.1,0,0.6,0.1,4.8c0,2.7,0-1.3,0,4.3c0-1.3,0-2.8-0.1-5.3c0-0.3,0-1.3,0-1.6c0,3,0.1,7.6,0.1,9.8
	c0-0.8,0-1.8,0-2.3l0.1,8.5c0,1.3,0,0.3,0-0.8c0,1.7,0,2.9,0.1,5.4c0-0.7,0-0.7-0.1-4.1l0.1,8.1c0,0.5,0,4.2,0,3.1
	c0,0.6,0,1.2,0,1.8c0.1,0.1-0.2,0-0.3,0h-0.5h-1l-4.2,0.1l-9,0.2h-2.2c-5.6,0.1-10.5,0.3-17.2,0.3h-3.8c-5.2,0.1,5.1,0-3.5,0h-4.4
	c-3,0.1-8.3,0-14-0.1L439.6,353.1z M375.6,351.9l4.6,0.2L375.6,351.9z M355.3,344.3l-4,0.3L355.3,344.3z M439,274.1h0.1
	C441.9,274.1,441,274.1,439,274.1z M433.3,274.1L433.3,274.1z M452.3,270.3h1.1C450.9,270.3,451.6,270.3,452.3,270.3L452.3,270.3z"
	/>
<path class="st0" d="M344.3,345.1h-0.5H344.3z"/>
<path class="st0" d="M479.4,352.6L479.4,352.6z"/>
<path class="st0" d="M484.7,300.4c-0.1,1.2-0.1,1.8-0.1,2.3C484.6,302.8,484.6,302.3,484.7,300.4z"/>
<path class="st0" d="M402.9,275l3.7-0.2l-3.3,0.2C403.3,274.9,404,274.9,402.9,275z"/>
<path class="st0" d="M371,276.5l-1.7,0.1h0.2C371.7,276.5,373.3,276.4,371,276.5z"/>
<path class="st0" d="M399.5,275.1c-0.3,0-2.6,0.1-5.2,0.3h0.5C394,275.4,396.7,275.3,399.5,275.1z"/>
<path class="st0" d="M393.7,275.4l-2.4,0.1C391,275.6,392.3,275.5,393.7,275.4z"/>
<path class="st0" d="M426,274.2h-1.5C423.2,274.3,432.7,274,426,274.2z"/>
<polygon class="st0" points="397.4,275.1 398.3,275.1 399.8,275 "/>
<path class="st0" d="M417.7,274.3l-4.1,0.1h-1.1L417.7,274.3z"/>
<path class="st0" d="M412.5,274.4l-3.3,0.1L412.5,274.4z"/>
<polygon class="st0" points="403,274.9 404.2,274.8 407.1,274.6 "/>
<path class="st0" d="M462,274.5l4.5,0.2c0.5,0-0.8,0-2.4-0.1L462,274.5z"/>
<path class="st0" d="M448.4,274.1l2,0h0.1L448.4,274.1z"/>
<path class="st0" d="M461.5,274.4c0.5,0,6.5,0.2,0.8,0C461.9,274.4,457.4,274.3,461.5,274.4z"/>
<polygon class="st0" points="484.2,307.4 484.3,306.2 484.2,306.4 "/>
<path class="st0" d="M479.8,340.7L479.8,340.7z"/>
<polygon class="st0" points="314.3,336.4 314.5,339.8 314.4,337.6 "/>
<path class="st0" d="M314.8,343l0.1,0.8l0.2,2C314.9,345.1,314.8,343.6,314.8,343z"/>
<path class="st0" d="M366.1,351.5h-0.3l2.9,0.1L366.1,351.5z"/>
<polygon class="st0" points="412.6,352.7 411.8,352.7 413.2,352.8 "/>
<path class="st0" d="M451.6,353.1l-5.1,0.1C450,353.1,452,353.1,451.6,353.1z"/>
<path d="M331.3,252.6c12.1-0.9,24.2-1.2,36.4-1.8c12.1-0.4,24.2-0.8,36.4-1s24.2-0.3,36.4-0.5h36.3l-5.1,6.5
	c-1-4.8-1.6-9.8-1.7-14.7c-0.1-4.9,0.3-9.9,1.3-14.7c1.9-10.1,7.1-19.2,14.9-25.9c3.9-3,8.1-5.6,12.5-7.6c4.3-2.1,8.9-3.7,13.6-4.8
	c9.4-2.4,19.3-2.3,28.6,0.2l-2.9,2.1c0.4-12,0.7-24,0.8-36c0.2-12,0.1-24-0.1-36l-1.6-72l4.1,4.5c-13.1-0.3-26.2,0.5-39.1,2.4
	c-13,1.7-25.8,4.6-38.3,8.5c-24.8,7.9-48,20.5-66.5,38.3c-2.3,2.2-4.5,4.6-6.7,7c-2,2.5-4.2,4.8-6.1,7.5l-5.9,7.8
	c-2,2.6-3.6,5.4-5.5,8.1s-3.6,5.5-5.2,8.4s-3.3,5.6-4.9,8.5l-4.4,8.8c-1.5,2.9-2.7,6-4.1,9c-5.4,12.1-9.8,24.6-13.1,37.4
	c-3.6,12.8-6,25.9-7.4,39.2h-1.2c-0.7-27,4.6-54.1,13.7-79.8c4.6-12.9,10.5-25.3,17.5-37.1c1.8-2.9,3.4-6,5.4-8.8l5.8-8.5
	c1.9-2.9,4.3-5.5,6.4-8.3c2.3-2.6,4.6-5.2,7.1-7.7c9.8-10,21-18.5,33.3-25.3c12.1-6.7,25-12,38.3-15.8c26.5-7.6,54.1-10.5,81.6-8.5
	l4.3,0.3l-0.2,4.2l-3,71.9c-0.4,12-0.6,24-0.8,36c-0.1,12-0.1,24,0.1,36l0.1,2.8l-3-0.7c-8.1-2-17.4-1-25.5,1.7
	c-4.1,1.3-8.1,3.1-11.8,5.2c-3.7,2-7.2,4.5-10.3,7.3c-5.8,5.9-9.5,13.4-10.7,21.5c-1.3,8.3-1.1,16.8,0.7,25l1.4,6.6l-6.6-0.1
	l-36.3-0.7c-12.1-0.4-24.2-0.6-36.3-1.2s-24.2-1-36.3-1.7c-12.1-0.9-24.2-1.4-36.3-2.5L331.3,252.6z"/>
<path class="st0" d="M331.9,253.8h-0.4h-0.2c-0.1,0,0-0.1,0-0.1v0.1c0.2,0.1,0.4,0.1,0.7,0.1h0.4L331.9,253.8z"/>
<polygon class="st0" points="368.1,256.3 367.4,256.3 372.8,256.5 "/>
<path class="st0" d="M402,257.9l-18.3-0.9l-1,0l-2.7-0.1L402,257.9z"/>
<path class="st0" d="M420.1,258.6c-1.1,0,3.9,0.1-4.2-0.1h0.8L420.1,258.6z"/>
<path class="st0" d="M416.6,258.5"/>
<path class="st0" d="M433.1,259l-4.7-0.1l3.6,0.1C436.9,259.1,435.9,259.1,433.1,259z"/>
<path class="st0" d="M437.6,259.1l-2.4-0.1L437.6,259.1z"/>
<path class="st0" d="M430,258.9l5.2,0.2l-2.4-0.1L430,258.9z"/>
<path class="st0" d="M427,258.8c-2.7-0.1-6.1-0.2-1.3,0C416.7,258.4,418,258.5,427,258.8z"/>
<path class="st0" d="M403.7,258l-3.5-0.2l-3-0.1L403.7,258z"/>
<path class="st0" d="M462.5,259.7l-1.9-0.1l-3.5-0.1L462.5,259.7z"/>
<path class="st0" d="M460.6,259.6l5.2,0.1L460.6,259.6z"/>
<polygon class="st0" points="438.4,259.1 429.9,258.9 440.1,259.2 "/>
<path class="st0" d="M482.4,260.1l-3,0h2.6h0.7h0.6c0-0.1,0-0.2,0-0.3l-0.3-1.3l0.2,1.1l0.1,0.4c0,0,0,0,0,0.1L482.4,260.1
	L482.4,260.1z"/>
<path class="st0" d="M480.9,247.9c0.3,2.2-0.3-3-0.1-0.7c-0.4-3.1-0.5-6.2-0.5-9.4C480.3,241.2,480.5,244.5,480.9,247.9z"/>
<path class="st0" d="M480.6,233.2c-0.1,1.5-0.2,3-0.2,4.6C480.4,236.3,480.4,234.7,480.6,233.2z"/>
<path class="st0" d="M474.6,259.9l4.1,0.1l-2,0L474.6,259.9z"/>
<path class="st0" d="M476.6,259.9L476.6,259.9l4.5,0.1L476.6,259.9z"/>
<path class="st0" d="M474.1,259.9L474.1,259.9z"/>
<path class="st0" d="M452.1,259.4c3.1,0.1,9.4,0.2,3.3,0H452.1z"/>
<path class="st0" d="M471.6,259.8l-5.5-0.1c0.1,0,1.1,0-0.4,0L471.6,259.8z"/>
<polygon class="st0" points="474.3,259.9 471.6,259.8 473.6,259.9 "/>
<path class="st0" d="M480.4,242.7c-0.2-2.6-0.2-5.3,0-7.9c-0.2,3.2-0.2,6.4,0.1,9.5C480.6,244.7,480.6,246,480.4,242.7z"/>
<path class="st0" d="M482,254.3l-0.1-0.5L482,254.3z"/>
<path class="st0" d="M490.5,208.1l-0.3,0.4l-0.1,0.1L490.5,208.1z"/>
<path class="st0" d="M480.6,244.8c0.2,2.4,0.4,3.8,0.6,5.1c-0.3-1.8-0.5-3.6-0.7-5.6C480.5,244,480.5,244,480.6,244.8z"/>
<path class="st0" d="M481.8,225.2c-0.3,1.2-0.5,2.6-0.8,4C481.2,228.1,481.7,225.6,481.8,225.2z"/>
<path class="st0" d="M481.7,253l0.1,0.4C481.7,252.6,481.7,252.7,481.7,253z"/>
<path class="st0" d="M481.7,253c-0.2-1.2-0.4-2.1-0.6-3.1c0.2,1.4,0.5,2.7,0.7,3.9C481.9,253.5,481.8,253.2,481.7,253z"/>
<path class="st0" d="M497.2,202.4c-0.2,0.1-1.5,1.1-3.3,2.5l-1.4,1.2c-0.5,0.4-1,0.9-1.4,1.4c-1,1-1.8,2-2.7,3.1
	c-1.6,2.1-1.7,2.6-1.3,1.9c1-1.4,2-2.7,3.1-4c0-0.1,0.1-0.1,0.5-0.6c0.2-0.2,0.6-0.6,1.2-1.2s1.3-1.2,2.4-2c-0.4,0.3-1.2,0.9-2,1.7
	c-0.9,0.8-1.7,1.6-2.5,2.5c-1.4,1.7-2.2,2.9-0.8,1c0.8-1,1.7-2.1,2.7-3c0.7-0.6,1.2-1,1.6-1.4c0.8-0.6,1.2-1,2.6-2
	c-1.2,0.9,0.6-0.5,2.7-1.9s4.4-2.6,3.7-2.2c-1.9,1-3.7,2.1-5.4,3.4C496.7,202.8,498.6,201.4,497.2,202.4z"/>
<path class="st0" d="M484.5,217.2c-0.3,0.7-0.6,1.4-0.9,2.1c1-2.4,2.2-4.7,3.6-6.9c0.7-1,1.4-2,2.2-3c0.4-0.5,0.6-0.7,0.7-0.8
	c-2.4,2.8-4.4,5.9-5.9,9.3L484.5,217.2z"/>
<path class="st0" d="M481,228.9c0.1-0.9,0.4-2.6,0.7-3.8s0.4-1.6,0,0c-0.4,1.7-0.7,3.5-0.9,5.2c-0.1,0.8-0.2,1.3-0.3,3.3
	c1.2-10.6-0.5,3,0.5-4.6c-0.3,2.1-0.5,3.9-0.6,5.7c0.1-1.9,0.3-3.8,0.6-5.5v0.2l0,0l0,0c-0.1,0.5-0.1,0.6,0,0.1v-0.2L481,228.9
	c0.6-3,0.1-0.5,0,0.5v0.1c0.5-3.5,1.4-7,2.7-10.3c-0.5,1.2-0.9,2.5-1.3,3.8C481.8,224.9,481.3,226.9,481,228.9z"/>
<path class="st0" d="M461,259.6h0.3C462.1,259.6,462.3,259.6,461,259.6z"/>
<path class="st0" d="M465.4,259.7l-4-0.1c-2.2,0,0,0-0.1,0c-1.5,0-5.3-0.1-0.5,0h0.8l9.1,0.2L465.4,259.7z"/>
<path class="st0" d="M481.7,253c-0.6-2.9-1-5.8-1.3-8.8c0.1,1.5,0.3,3,0.5,4.5v-0.2c0.4,2.5,0.6,3.5,0.7,3.9S481.7,252.7,481.7,253z
	"/>
<path class="st0" d="M491.2,207.4c-0.3,0.3-0.5,0.6-0.8,0.9c1.1-1.3,2.4-2.4,3.8-3.5C493.1,205.6,492.1,206.5,491.2,207.4z"/>
<path class="st0" d="M500.4,200.5l-0.4,0.2c0.9-0.5,1.8-1,2.6-1.5C501.9,199.7,501.1,200.1,500.4,200.5z"/>
<path class="st0" d="M374.3,128.7l1.4-2.2L374.3,128.7z"/>
<path class="st0" d="M364.5,144.8l-0.2,0.4C364.7,144.5,364.9,144.2,364.5,144.8z"/>
<path class="st0" d="M458.4,51c-3.7,1.1-7.7,2.4-7.2,2.3l1.1-0.4C454.8,52.1,456.7,51.5,458.4,51z"/>
<path class="st0" d="M338.2,190.8c0.1-0.4,0.2-0.7,0.2-1.1c0.2-0.9,0.4-1.7,0.6-2.5C338.8,188.3,338.5,189.5,338.2,190.8z"/>
<path class="st0" d="M337.6,193.4c-0.3,1.6-0.7,3.3-1,4.9C336.9,197.3,337.2,195.7,337.6,193.4z"/>
<path class="st0" d="M543.1,118.9c0.1-3.3,0.2-5.9,0.3-8.2C543.2,114.7,543.1,117.8,543.1,118.9z"/>
<path class="st0" d="M370.3,135l1.2-1.9C370.6,134.4,370.1,135.3,370.3,135z"/>
<path class="st0" d="M543.8,101.3c0,0.6,0,1.1-0.1,1.7c-0.1,2.4-0.2,4.8-0.3,7.7C543.6,107.8,543.7,104.5,543.8,101.3z"/>
<path class="st0" d="M472,249.4L472,249.4z"/>
<path class="st0" d="M362.9,251l4.5-0.2L362.9,251z"/>
<path class="st0" d="M542.4,190.7C542.4,193.1,542.4,191.1,542.4,190.7z"/>
<path class="st0" d="M533.2,191.7l1,0.1L533.2,191.7z"/>
<path class="st0" d="M544.7,76.9v-0.2C544.7,77.4,544.7,77.3,544.7,76.9z"/>
<path class="st0" d="M541.3,193.1l0.7,0.2l0.2,0h0.2c0,0,0.1,0.1,0.1,0v-0.5c0-0.5,0-1.1,0-1.7v1.1c0,0.3,0,0.6,0,1v0.1h-0.1l-0.2,0
	l-0.3-0.1L541.3,193.1z"/>
<path class="st0" d="M541.8,193.3l-2.1-0.5L541.8,193.3z"/>
<path class="st0" d="M542.4,187.3c0,1.4,0,2.7,0,4c0-0.5,0-0.7,0-0.5C542.4,189.9,542.4,188.9,542.4,187.3z"/>
<path class="st0" d="M538.7,124.6v0.5C538.7,127.6,538.7,126.5,538.7,124.6z"/>
<path class="st0" d="M402,79.8l0.2-0.2L402,79.8L402,79.8z"/>
<path class="st0" d="M395.3,85.5c2.8-2.5,4.4-3.9,6.6-5.6c-0.8,0.6-1.5,1.2-2.3,1.8C398.2,82.9,396.7,84.2,395.3,85.5z"/>
<path class="st0" d="M352.3,170.3c0.7-1.6,2.1-4.9,2.7-6.1C354.1,166,353.5,167.4,352.3,170.3z M341.6,177.7
	c-0.3,1.3-0.9,3.3-1.5,5.5C340.5,181.5,341,179.7,341.6,177.7L341.6,177.7z M542.3,163.8L542.3,163.8z M542.3,172.1
	c0,0.8,0,0.8,0,0.4c0-0.6,0-2.4,0-4.5C542.3,168.6,542.3,169.6,542.3,172.1L542.3,172.1z M538.6,150.8v-1.6
	C538.6,152.8,538.6,151.8,538.6,150.8L538.6,150.8z"/>
<path class="st0" d="M337.7,193.1l-0.2,0.8C337.4,194.5,337.4,194.5,337.7,193.1z"/>
<path class="st0" d="M452.8,65.6l0.3-0.1l0.3-0.1L452.8,65.6z"/>
<path class="st0" d="M546,43.9v-1.1c0-0.2,0.1-0.3,0-0.3h-0.4l-1.2-0.1l0.6,0l1,0.1c0.1,0,0,0,0,0.1V43C546,43.3,546,43.6,546,43.9z
	"/>
<path class="st0" d="M519.9,192.8c1.7-0.4,3.5-0.6,5.2-0.8c-2.5,0.3-3.4,0.5-4.7,0.7C520.5,192.6,521.5,192.4,519.9,192.8z"/>
<path class="st0" d="M483.9,218.5c-0.3,0.7-0.6,1.5-0.9,2.2l0.1-0.2c0.5-1.6,1.1-2.8,1.4-3.4S484.5,216.9,483.9,218.5z"/>
<path class="st0" d="M515.1,193.9c-2.4,0.7-4.7,1.6-7,2.5l0.6-0.3C507.7,196.6,511.3,195,515.1,193.9z"/>
<path class="st0" d="M507.3,196.8c-1,0.5-2.1,1-3.1,1.5C503.9,198.5,505.5,197.6,507.3,196.8z"/>
<path class="st0" d="M542.4,182.6c0,1.7,0,1.1,0,2.1C542.4,186.7,542.3,173,542.4,182.6z"/>
<path class="st0" d="M512.2,194.8l1.3-0.4l2-0.6C514.4,194.1,513.3,194.4,512.2,194.8z"/>
<path class="st0" d="M541.1,193c-1.9-0.5-3.9-0.9-5.8-1.1c0.1,0-0.7-0.1-1.6-0.1C536.2,191.9,538.7,192.4,541.1,193z"/>
<path class="st0" d="M533.7,191.7c-1.6-0.1-3.2-0.2-4.8-0.1C530.5,191.5,532.1,191.6,533.7,191.7z"/>
<path class="st0" d="M520,192.6l1.7-0.3c1.4-0.2,2.8-0.4,4.2-0.5C523.9,191.9,522,192.2,520,192.6z"/>
<path class="st0" d="M542.7,130.8l0.1-6.5c0-0.7,0,1.1-0.1,3.5C542.8,129.3,542.7,131.7,542.7,130.8z"/>
<path class="st0" d="M542.3,150.3l0.1-2.9v-0.2L542.3,150.3z"/>
<path class="st0" d="M542.7,131.4c0-0.6,0.2-9.4,0-1.2C542.7,130.9,542.5,137.4,542.7,131.4z"/>
<polygon class="st0" points="537.7,41.8 539.3,41.9 539.1,41.8 "/>
<path class="st0" d="M452.8,53l4.4-1.4c0.3-0.1,0.6-0.2,3.9-1.2c1.7-0.5-5.5,1.6-3.7,1C453.1,52.8,450.8,53.7,452.8,53z"/>
<path class="st0" d="M457.5,51.5l2.3-0.7L457.5,51.5z"/>
<polygon class="st0" points="344.9,251.8 339.9,252.1 343.1,251.9 "/>
<path class="st0" d="M335.4,252.3l-1.2,0.1l-3,0.2L335.4,252.3z"/>
<path class="st0" d="M347.4,183l-0.1,0.4c0.3-0.7,0.7-1.8,1.5-4L347.4,183z"/>
<path class="st0" d="M377.7,123.5l-0.7,0.9c0.4-0.6,0.8-1.2,1.3-1.8L377.7,123.5z"/>
<path class="st0" d="M417.2,83.9c-1,0.6-2,1.3-3,2.1s-2,1.4-3,2.1c2-1.5,3.6-2.6,4.7-3.4L417.2,83.9z"/>
<path d="M633.5,30.1l-38.8,2.5c-12.6,0.8-25,1.6-37.3,2.2l3.2-3.3c0.4,14.5,0.8,29.1,1,43.6s0.5,29.1,0.6,43.7
	c0.1,14.6,0.3,29.1,0.3,43.6v43.6l-5.9-5.9c24.7-0.1,49.4-0.4,74.1-0.2l-5.3,5.3c0.5-14.3,0.8-28.6,1.5-42.9s1.2-28.7,2-43.3
	L633.5,30.1z M633.5,30.1c0.7,28,1.5,56.9,1.9,86.3c0.3,14.7,0.4,29.5,0.5,44.4c0.2,14.9,0,29.8,0,44.7v5.1l-5.3,0.1
	c-24.7,0.6-49.4,0.8-74.1,1.2l-5.9,0.1v-6l0.4-43.6c0.1-14.5,0.4-29.1,0.6-43.6s0.5-29.1,1-43.6c0.5-14.5,0.8-29.1,1.3-43.6l0.1-3.3
	h3.1c13.1,0.1,26.1,0.5,38.9,0.8L633.5,30.1z"/>
<path class="st0" d="M632.8,30.1h0.6H632.8z"/>
<polygon class="st0" points="619.9,29.7 620.2,29.7 618.3,29.7 "/>
<path class="st0" d="M607.9,29.4l6.5,0.2h0.4h1L607.9,29.4z"/>
<path class="st0" d="M601.5,29.2l1.5,0h-0.3L601.5,29.2z"/>
<path class="st0" d="M602.7,29.2"/>
<path class="st0" d="M596.8,29h1.7h-1.3C595.5,29,595.8,29,596.8,29z"/>
<path class="st0" d="M595.2,29h0.9H595.2z"/>
<path class="st0" d="M597.9,29.1l-1.8,0h0.8L597.9,29.1z"/>
<path class="st0" d="M599,29.1c0.9,0,2.2,0.1,0.5,0C602.7,29.2,602.2,29.2,599,29.1z"/>
<path class="st0" d="M607.3,29.4h1.3h1.1H607.3z"/>
<path class="st0" d="M586.4,28.8h0.7h1.2H586.4z"/>
<path class="st0" d="M587.1,28.8h-1.8H587.1z"/>
<polygon class="st0" points="594.9,29 598,29.1 594.3,29 "/>
<polygon class="st0" points="579.3,28.6 580.4,28.6 578.5,28.6 "/>
<path class="st0" d="M574.7,28.5c0.8,0-1.1,0-0.2,0l-3.3-0.1L574.7,28.5z"/>
<path class="st0" d="M569.4,28.4h1.6H569.4z"/>
<path class="st0" d="M582.1,28.7h-1.4h0.7H582.1z"/>
<path class="st0" d="M581.4,28.7L581.4,28.7h-1.6H581.4z"/>
<path class="st0" d="M582.3,28.7L582.3,28.7z"/>
<path class="st0" d="M590.1,28.9c-1.1,0-3.3-0.1-1.2,0C589.7,28.9,588.5,28.9,590.1,28.9z"/>
<path class="st0" d="M583.2,28.8h2c0,0-0.4,0,0.2,0H583.2z"/>
<polygon class="st0" points="582.2,28.7 583.2,28.8 582.5,28.7 "/>
<path class="st0" d="M572.8,28.5l-2.8,0l3.4,0.1C573.5,28.5,574,28.5,572.8,28.5z"/>
<path class="st0" d="M577,28.6L577,28.6z"/>
<path class="st0" d="M559.7,28.3L559.7,28.3z"/>
<path class="st0" d="M573.6,28.6h1.8h-2H573.6z"/>
<path class="st0" d="M566.6,28.4h1.5H566.6z"/>
<path class="st0" d="M576.5,28.6L576.5,28.6z"/>
<path class="st0" d="M576.5,28.6h-1.1h1.4H576.5z"/>
<path class="st0" d="M556.5,28.3c0.2,0,2.4,0,4.3,0.1s0.7,0-1-0.1c-0.1,0-0.1,0-2,0c0.7,0,4.3,0.1,2.7,0.1l-3.3-0.1
	c1.1,0-3.3,0-2.7,0h2.3C556.7,28.3,555.9,28.3,556.5,28.3z"/>
<path class="st0" d="M563.5,28.3h0.8l-2.8-0.1h-1.7l3.9,0.1H563.5z"/>
<path class="st0" d="M567.9,28.4c-0.6,0-2.5,0-1.4,0h3C565.8,28.4,570.6,28.4,567.9,28.4h2H567.9L567.9,28.4
	C568.1,28.4,568.2,28.4,567.9,28.4l-0.2,0C566.6,28.4,567.6,28.4,567.9,28.4L567.9,28.4l-3.8-0.1L567.9,28.4z"/>
<path class="st0" d="M586.9,28.9h-0.1C586.6,28.9,586.4,28.9,586.9,28.9z"/>
<path class="st0" d="M585.3,28.8h1.4l0,0c0.5,0,1.9,0,0.2,0h-0.3l-3.2-0.1L585.3,28.8z"/>
<path class="st0" d="M576.5,28.6l-3.2-0.1h1.6h-0.1L576.5,28.6z"/>
<polygon class="st0" points="559.3,28.2 559.7,28.2 557.9,28.2 "/>
<polygon class="st0" points="555.2,28.2 555.3,28.2 554.3,28.2 "/>
<path class="st0" d="M596.9,211.3h0.9H596.9z"/>
<path class="st0" d="M590.2,211.4H590C590.4,211.4,590.5,211.4,590.2,211.4z"/>
<path class="st0" d="M551.4,127.8c0,1.4-0.1,2.9-0.1,2.7v-0.4C551.4,129.1,551.4,128.4,551.4,127.8z"/>
<path class="st0" d="M550.7,196.7L550.7,196.7z"/>
<path class="st0" d="M550.8,197.7v1.8C550.8,199.1,550.8,198.5,550.8,197.7z"/>
<path class="st0" d="M633.6,210.7h1.1C633,210.7,633.7,210.7,633.6,210.7z"/>
<path class="st0" d="M552.7,69.1c0,1.2-0.1,2.1-0.1,2.9C552.6,70.6,552.7,69.4,552.7,69.1z"/>
<path class="st0" d="M594.3,211.4h0.8H594.3z"/>
<path class="st0" d="M552.5,75.3c0-0.2,0-0.4,0-0.6c0-0.9,0-1.7,0.1-2.8C552.6,73,552.5,74.2,552.5,75.3z"/>
<path class="st0" d="M634.5,80.1L634.5,80.1z"/>
<path class="st0" d="M633.7,41.4c0,0.4,0,1,0,1.6V41.4z"/>
<path class="st0" d="M553.4,43.6C553.4,42.7,553.4,43.4,553.4,43.6z"/>
<path class="st0" d="M553.7,39.4L553.7,39.4z"/>
<path class="st0" d="M552.4,84L552.4,84C552.4,83.8,552.4,83.9,552.4,84z"/>
<path class="st0" d="M553.5,42.3c0,0.3,0,0.7,0,1.1C553.5,43.2,553.5,42.9,553.5,42.3z"/>
<path class="st0" d="M553.5,42.5v-0.8C553.5,41.6,553.5,41.7,553.5,42.5z"/>
<path class="st0" d="M553.4,44.8v-1.4c0,0.2,0,0.2,0,0.2C553.4,43.8,553.4,44.2,553.4,44.8z"/>
<path class="st0" d="M635.8,151.3v-0.2C635.8,150.3,635.8,150.7,635.8,151.3z"/>
<path class="st0" d="M551.3,150.4L551.3,150.4z"/>
<path class="st0" d="M551.2,153.5c0-1.4,0-2.1,0-3.1l-0.1,1L551.2,153.5z"/>
<path class="st0" d="M580.3,211.6h2.4H580.3z M550.8,191.9v2C550.8,193.3,550.8,192.7,550.8,191.9L550.8,191.9z M553.2,53.1
	L553.2,53.1C553.1,54.6,553.1,54.1,553.2,53.1L553.2,53.1z M553.3,50.2c0-0.3,0-0.3,0-0.1s0,0.9,0,1.6
	C553.2,51.4,553.2,51.1,553.3,50.2L553.3,50.2z M635.8,142v0.6C635.8,141.3,635.8,141.7,635.8,142L635.8,142z"/>
<path class="st0" d="M550.8,197.6v0.3C550.8,198.1,550.8,198.1,550.8,197.6z"/>
<path class="st0" d="M633.4,210.7L633.4,210.7z"/>
<path class="st0" d="M552.2,95.7c0,0.6,0,0.9,0,1.2C552.2,96.9,552.2,96.7,552.2,95.7z"/>
<path class="st0" d="M553.7,34.6l0,1.9c0-0.9,0-1.2,0.1-1.7C553.7,34.8,553.7,35.2,553.7,34.6z"/>
<path class="st0" d="M564,28.4h0.9h-0.1C563.7,28.4,562.8,28.4,564,28.4z"/>
<path class="st0" d="M553.8,32.8c0-0.1,0.1-1.3,0.1-2.6v0.2C553.9,30.1,553.9,31.4,553.8,32.8z"/>
<path class="st0" d="M553.9,29.9v-1.2C554,28.5,554,29.2,553.9,29.9z"/>
<path class="st0" d="M553.4,46.4c0-0.6,0-0.4,0-0.8C553.4,45,553.3,49.9,553.4,46.4z"/>
<polygon class="st0" points="553.9,31.8 553.9,32.3 553.9,33 "/>
<path class="st0" d="M553.6,42.2l0.1-2.1c0,0,0-0.2,0-0.6C553.6,40.8,553.6,42.1,553.6,42.2z"/>
<path class="st0" d="M553.7,39.5v-1.7C553.7,38.2,553.7,39,553.7,39.5z"/>
<polygon class="st0" points="553.8,34.7 553.8,35.3 553.8,36.8 "/>
<path class="st0" d="M552.9,64.9l-0.1,2.3c0,0.2,0-0.4,0-1.2C552.9,65.6,552.9,65.2,552.9,64.9z"/>
<path class="st0" d="M553.2,57.9c0,0.6,0,0.6,0,1V59V57.9z"/>
<path class="st0" d="M553,64.6c0,0.2-0.1,3.3,0,0.4C553,64.8,553,62.5,553,64.6z"/>
<polygon class="st0" points="552.1,99.3 552.1,98.7 552,98.8 "/>
<path class="st0" d="M551.6,129.9c0-2.6,0-0.7,0-3.1c0-0.6,0,2,0,1.4C551.6,129.8,551.6,130.6,551.6,129.9z"/>
<path class="st0" d="M551.6,128.1c0-0.3,0-0.5,0-0.8C551.6,127.7,551.6,128,551.6,128.1z"/>
<polygon class="st0" points="633.6,35 633.5,33.2 633.6,34.3 "/>
<path class="st0" d="M633.5,31.6v-0.4v-1C633.5,30.5,633.5,31.3,633.5,31.6z"/>
<path class="st0" d="M575.4,211.6h-0.1h1.5H575.4z"/>
<polygon class="st0" points="599.2,211.3 598.7,211.3 599.5,211.3 "/>
<path class="st0" d="M619.1,210.9l-2.6,0C618.3,211,619.3,210.9,619.1,210.9z"/>
<path class="st0" d="M633.4,30.7v-0.6C633.4,31.4,633.4,30.7,633.4,30.7z"/>
<polygon class="st0" points="632.7,43.4 632.7,43.2 632.6,45 "/>
<path class="st0" d="M632.1,55.3c0.1-1.3,0.2-4.3,0.3-6.4v-0.4v-1C632.3,50.1,632.2,53.4,632.1,55.3z"/>
<path class="st0" d="M631.7,61.6c0-0.4-0.1,1.4,0.1-1.5v0.3L631.7,61.6z"/>
<path class="st0" d="M631.8,60.4C631.8,59.1,631.8,61.2,631.8,60.4z"/>
<path class="st0" d="M631.4,66.1l0.1-1.6c0,0.3-0.1,1.8-0.1,1.3C631.4,67.4,631.4,67.1,631.4,66.1z"/>
<path class="st0" d="M631.4,67.7v-0.9C631.4,67,631.4,67.2,631.4,67.7z"/>
<path class="st0" d="M631.5,65l-0.1,1.8l0-0.8C631.5,66.2,631.5,65.8,631.5,65z"/>
<path class="st0" d="M631.6,64c0.1-0.9,0.1-2.1,0-0.5C631.8,60.4,631.8,60.9,631.6,64z"/>
<path class="st0" d="M632,55.9l0.1-1.2v-1.1C632.2,54.1,632,55.6,632,55.9z"/>
<path class="st0" d="M630.9,76.4c0,0.1,0-0.6,0-0.7l0.1-1.2L630.9,76.4z"/>
<path class="st0" d="M630.9,75.7l-0.1,1.8C630.9,75.9,630.9,75.6,630.9,75.7z"/>
<polygon class="st0" points="631.4,68 631.5,65 631.3,68.6 "/>
<polygon class="st0" points="630.5,83.3 630.5,82.3 630.5,84.1 "/>
<path class="st0" d="M630.2,87.9c0-0.8-0.1,1,0,0.2c-0.1,1.2-0.1,2.3-0.2,3.3C630.1,90.4,630.2,89.3,630.2,87.9z"/>
<path class="st0" d="M630,93.1c0-0.5,0-1,0.1-1.6C630,92,630,92.5,630,93.1z"/>
<path class="st0" d="M630.7,80.6l-0.1,1.4l0.1-0.7C630.6,81.1,630.7,80.9,630.7,80.6z"/>
<path class="st0" d="M630.6,81.3L630.6,81.3l-0.1,1.5C630.6,82.7,630.6,82.2,630.6,81.3z"/>
<path class="st0" d="M630.7,80.4L630.7,80.4z"/>
<path class="st0" d="M631.1,72.8c0,1.1-0.2,3.3,0,1.1C631.1,73.1,631,74.4,631.1,72.8z"/>
<path class="st0" d="M630.7,79.6l0.1-1.9c0,0,0,0.4,0-0.1L630.7,79.6z"/>
<polygon class="st0" points="630.7,80.5 630.7,79.6 630.7,80.3 "/>
<path class="st0" d="M630.2,89.8c0,0.9-0.1,1.8-0.1,2.8c0.1-1.1,0.1-2.2,0.2-3.3C630.2,89.1,630.2,88.6,630.2,89.8z"/>
<path class="st0" d="M630.4,85.7v0.2C630.4,85.7,630.4,85.6,630.4,85.7z"/>
<path class="st0" d="M629.5,102.7L629.5,102.7z"/>
<path class="st0" d="M630.2,89c0-0.8,0.1-1.3,0.1-1.8c0,0.6-0.1,1.3-0.1,2C630.2,89.3,630.2,89.3,630.2,89z"/>
<path class="st0" d="M629.8,95.9c0-0.4,0.1-0.9,0.1-1.4C629.9,94.9,629.8,95.7,629.8,95.9z"/>
<path class="st0" d="M630.4,86.1V86C630.3,86.3,630.4,86.3,630.4,86.1z"/>
<path class="st0" d="M630.4,86.1l0,1.1c0-0.5,0-1,0.1-1.4L630.4,86.1z"/>
<path class="st0" d="M629.4,105.8c0-0.1,0.1-2.3,0.2-4.2s0-0.6-0.1,1c0,0.1,0,0.1-0.1,2c0-0.7,0.2-4.2,0.2-2.6
	c-0.1,2.5-0.1,2.1-0.2,3.3c0.1-1-0.2,3.2-0.1,2.7L629.4,105.8C629.4,105.7,629.4,106.4,629.4,105.8z"/>
<path class="st0" d="M629.7,98.9v-0.8c-0.1,0.9-0.1,1.5-0.2,2.7s-0.1,1.5-0.1,1.7l0.2-3.9L629.7,98.9z"/>
<path class="st0" d="M629.9,94.6c0,0.6-0.1,2.5,0,1.4c0.1-2.2,0.1-1.6,0.2-3C629.9,96.6,630.1,91.8,629.9,94.6c0-0.8,0.1-1.4,0.2-2
	c0,0.7-0.1,1.3-0.1,1.9v-0.1l0,0c0-0.2,0-0.2,0,0L629.9,94.6c0,1.1,0,0.2,0-0.2l0,0l0,0l-0.2,3.7C629.8,97.3,629.8,96.3,629.9,94.6z
	"/>
<path class="st0" d="M631,75.9V76C631,76.3,631,76.3,631,75.9z"/>
<path class="st0" d="M630.9,77.4c0-0.3,0-0.5,0.1-1.4c0.1-0.9,0,0,0,0c0-0.5,0.1-1.9,0-0.2v0.3c-0.1,1.4-0.2,2.9-0.2,3.2
	C630.8,78.7,630.8,78.3,630.9,77.4z"/>
<path class="st0" d="M630.4,86.1l-0.2,3.1l0.1-1.6v0.1C630.4,87.2,630.4,86.6,630.4,86.1z"/>
<polygon class="st0" points="629.4,103 629.4,102.6 629.4,104.4 "/>
<polygon class="st0" points="629.2,107.1 629.2,106.9 629.2,108 "/>
<path class="st0" d="M562.3,166.8L562.3,166.8z"/>
<path class="st0" d="M562.3,173.4L562.3,173.4z"/>
<path class="st0" d="M625.8,204.9c1-0.9,2-2,1.9-1.9l-0.3,0.3L625.8,204.9z"/>
<path class="st0" d="M569.4,200.3L569.4,200.3z"/>
<path class="st0" d="M568.5,200.3L568.5,200.3z"/>
<path class="st0" d="M562,130.7v-1.1C562,131.3,562,130.6,562,130.7z"/>
<path class="st0" d="M627.2,148.3c-0.1,1.2-0.1,2.1-0.1,2.9C627.2,149.8,627.2,148.7,627.2,148.3z"/>
<path class="st0" d="M562.3,169.4c0-0.5,0-0.7,0-0.8C562.3,168.8,562.3,169.1,562.3,169.4z"/>
<path class="st0" d="M626.9,154.5v-0.6c0-0.8,0.1-1.7,0.1-2.7C627,152.3,627,153.4,626.9,154.5z"/>
<path class="st0" d="M584.3,33.2h0.3H584.3z"/>
<path class="st0" d="M622.4,30.9l-1.6,0.1L622.4,30.9z"/>
<path class="st0" d="M628.4,123.3C628.4,122.4,628.4,123.1,628.4,123.3z"/>
<path class="st0" d="M628.6,119.1L628.6,119.1z"/>
<path class="st0" d="M626.7,163L626.7,163C626.7,162.8,626.7,162.9,626.7,163z"/>
<path class="st0" d="M628.4,122l-0.1,1.1L628.4,122z"/>
<path class="st0" d="M628.4,122.2c0-0.3,0-0.5,0-0.8S628.4,121.4,628.4,122.2z"/>
<path class="st0" d="M628.3,124.5c0-0.5,0-1,0.1-1.4c0,0.2,0,0.2,0,0.2L628.3,124.5z"/>
<path class="st0" d="M561.3,69.9v-0.2C561.2,68.9,561.3,69.3,561.3,69.9z"/>
<path class="st0" d="M615,200.2L615,200.2z"/>
<path class="st0" d="M612,200.3h3h-1H612z"/>
<path class="st0" d="M568.6,200.3L568.6,200.3z"/>
<path class="st0" d="M562,130.9L562,130.9z"/>
<path class="st0" d="M626.4,174.6l0,1.1C626.3,175.7,626.3,175.5,626.4,174.6z"/>
<path class="st0" d="M628.8,114.4l-0.1,1.9c0-0.9,0.1-1.2,0.1-1.7C628.8,114.7,628.8,115,628.8,114.4z"/>
<path class="st0" d="M629.8,98.4v-0.8v0.1C629.8,98.7,629.7,99.6,629.8,98.4z"/>
<path class="st0" d="M629,112.7c0-0.1,0.1-1.3,0.2-2.6v0.2C629.1,110,629,111.3,629,112.7z"/>
<path class="st0" d="M629.1,109.8c0-0.4,0-0.8,0.1-1.2C629.2,108.5,629.2,109.1,629.1,109.8z"/>
<path class="st0" d="M628.2,126.1c0-0.6,0-0.4,0-0.7C628.3,124.7,628.1,129.5,628.2,126.1z"/>
<polygon class="st0" points="629.1,111.7 629,112.1 629,112.9 "/>
<path class="st0" d="M628.5,121.9l0.1-2.1c0,0,0-0.2,0-0.6C628.6,120.6,628.5,121.8,628.5,121.9z"/>
<path class="st0" d="M628.6,119.3c0-0.7,0.1-1.3,0.1-1.7C628.7,118,628.7,118.8,628.6,119.3z"/>
<polygon class="st0" points="628.9,114.5 628.9,115.1 628.8,116.6 "/>
<path class="st0" d="M627.5,144.2l-0.1,2.3c0,0.2,0-0.4,0.1-1.2C627.5,144.7,627.5,143.9,627.5,144.2z"/>
<path class="st0" d="M627.9,137.4l-0.1,1v0.1L627.9,137.4z"/>
<path class="st0" d="M627.6,144c0,0.2-0.1,3.3,0,0.4C627.6,144.2,627.7,141.9,627.6,144z"/>
<polygon class="st0" points="626.2,178.1 626.2,177.5 626.2,177.6 "/>
<path class="st0" d="M627.1,203.3c-1,0.9-1.1,1.1-1.2,1.1l-0.2,0.2l-0.3,0.3c-0.1,0.1-0.2,0.2-0.1,0l0,0c0,0,0,0.1,0,0.1l0.1-0.1
	l0.5-0.5C627.1,203.4,627.7,202.8,627.1,203.3z"/>
<path class="st0" d="M625.9,204.6l-0.5,0.5L625.9,204.6z"/>
<polygon class="st0" points="628.7,30.5 630.4,30.3 629.3,30.4 "/>
<path class="st0" d="M632,30.3h0.4l1-0.1L632,30.3z"/>
<path class="st0" d="M562.3,188v0.1c0-0.3,0-0.7,0-1.5V188z"/>
<polygon class="st0" points="562.3,164.6 562.3,165 562.3,164.2 "/>
<path class="st0" d="M562.2,144.9c0,0.8,0,1.8,0,2.5C562.2,145.7,562.2,144.7,562.2,144.9z"/>
</svg>
