<svg id="Layer_1" data-name="Layer 1" xmlns="http://www.w3.org/2000/svg" viewBox="0 0 892.65 615.01"><title>rotateicon white</title><path d="M236.69,222.7a1520.24,1520.24,0,0,1,171.7-16.3,1715.25,1715.25,0,0,1,172.7,2.3c57.5,3.8,115.2,9.5,171.5,23.7,28.1,7.2,56,15.8,82.4,28.6,13.1,6.4,26,13.7,37.4,23.2a69.37,69.37,0,0,1,14.8,16.7c4,6.3,6.7,13.8,6.1,21.2h-1.6c-.6-7-3.9-13.4-8.2-18.7A65.48,65.48,0,0,0,868,289.7c-11.5-7.9-24.3-13.9-37.4-19-26.3-10.1-53.8-17.4-81.6-23.5a1462.27,1462.27,0,0,0-169-26.4q-85.5-7.65-171.6-6.8a1539.09,1539.09,0,0,0-171.7,10.2Z" style="fill:#fff"/><path d="M858.69,366c-18.4,11.3-38.5,19.3-58.9,26.2a607.9,607.9,0,0,1-62.1,17.3,1120.2,1120.2,0,0,1-127.2,20.9,1707.09,1707.09,0,0,1-257.8,7.2c-43-2-86-5.5-128.8-11.4s-85.3-14.5-126.7-28.1c-20.6-7-41-15.4-60-27.1-9.4-6-18.6-12.8-26.1-22-7.7-8.8-12.7-22.3-9.3-34.8s11.8-21.2,20.4-28.1A153.31,153.31,0,0,1,50.49,269c19.8-9.1,40.5-15.6,61.3-20.7l.4,1.5c-20.1,7.3-40.2,15-58.6,25.4a144.94,144.94,0,0,0-25.8,17.6c-7.7,6.8-14.1,14.9-15.7,23.7s1.9,17.4,8.2,24.7,14.7,13.3,23.6,18.4c17.9,10.2,37.8,17.7,57.9,23.8a616.91,616.91,0,0,0,61.5,16q31.2,6.9,62.7,11.8c42.1,6.8,84.6,11.2,127.2,14.1a1701.28,1701.28,0,0,0,256.4-2.6,1111.56,1111.56,0,0,0,127-17.8,608.62,608.62,0,0,0,62.2-15.7c20.4-6.4,40.6-13.9,59-24.6Z" style="fill:#fff"/><path d="M826.59,337q22.65,7.5,45,15.6l2,.7-.2,2.3c-.8,9.1-.8,18.3-2.2,27.3a145.74,145.74,0,0,1-6.6,26.8l-.8-.1a141.43,141.43,0,0,1-.3-27.6c.7-9.1,2.8-18,4.1-27.1l1.8,3c-14.4-6.5-28.8-13.3-43.1-20.2Z" style="fill:#fff"/><path d="M269,253.9q-22.65-7.5-45.1-15.6l-2-.7.2-2.3c.8-9.1.8-18.3,2.2-27.3a145.74,145.74,0,0,1,6.6-26.8l.8.1a141.43,141.43,0,0,1,.3,27.6c-.7,9.1-2.8,18.1-4.1,27.1l-1.8-3c14.5,6.5,28.8,13.3,43.2,20.2Z" style="fill:#fff"/></svg>