<svg id="Layer_1" data-name="Layer 1" xmlns="http://www.w3.org/2000/svg" viewBox="0 0 892.65 615.01"><title>rotateicon</title><path d="M236,225.78a1524.15,1524.15,0,0,1,171.68-16.34,1720.89,1720.89,0,0,1,172.68,2.28c57.47,3.77,115.21,9.55,171.55,23.67,28.06,7.24,56,15.79,82.37,28.56,13.12,6.43,26,13.73,37.41,23.22a71.49,71.49,0,0,1,14.81,16.66c4,6.27,6.65,13.77,6.08,21.22H891c-.59-7.05-3.88-13.36-8.16-18.67a66.41,66.41,0,0,0-15.46-13.69c-11.46-7.91-24.29-13.9-37.42-19-26.34-10.12-53.85-17.42-81.61-23.45a1469.8,1469.8,0,0,0-169-26.35,1711.82,1711.82,0,0,0-171.57-6.81,1521.91,1521.91,0,0,0-171.65,10.19Z" style="fill:#1d1d1b"/><path d="M858,369.06c-18.41,11.28-38.54,19.33-58.89,26.21a607.86,607.86,0,0,1-62.14,17.29,1124,1124,0,0,1-127.25,20.88,1709.57,1709.57,0,0,1-257.78,7.24c-43-2-86-5.48-128.77-11.39s-85.31-14.48-126.71-28.14c-20.61-7-41-15.44-60-27.08-9.42-5.95-18.58-12.83-26.11-22-7.57-8.79-12.6-22.31-9.25-34.74s11.76-21.19,20.4-28.13a147.8,147.8,0,0,1,28.28-17.06c19.82-9.09,40.46-15.56,61.34-20.68l.43,1.46c-20.12,7.34-40.19,15-58.6,25.43-9.2,5.12-18.11,10.79-25.75,17.6s-14.08,14.89-15.71,23.71,1.86,17.43,8.2,24.67,14.73,13.27,23.58,18.43c18,10.19,37.75,17.68,57.91,23.83a632.65,632.65,0,0,0,61.47,16q31.16,6.86,62.73,11.77c42.07,6.78,84.6,11.24,127.22,14.14a1699.27,1699.27,0,0,0,256.35-2.63,1115.74,1115.74,0,0,0,127-17.79,607.25,607.25,0,0,0,62.16-15.71c20.38-6.36,40.56-13.88,59-24.62Z" style="fill:#1d1d1b"/><path d="M825.9,340.05c15.08,5,30.12,10.19,45,15.58l2,.71-.2,2.3c-.77,9.1-.78,18.29-2.16,27.32a142.59,142.59,0,0,1-6.64,26.79l-.75-.09a142.19,142.19,0,0,1-.34-27.6c.72-9.1,2.81-18,4.14-27.08l1.79,3c-14.41-6.54-28.8-13.32-43.12-20.22Z" style="fill:#1d1d1b"/><path d="M268.27,257q-22.62-7.5-45-15.57l-2-.72.19-2.3c.77-9.1.78-18.28,2.17-27.31a141.41,141.41,0,0,1,6.63-26.79l.76.08a143,143,0,0,1,.33,27.6c-.72,9.11-2.8,18.06-4.14,27.09l-1.78-3c14.46,6.55,28.83,13.34,43.16,20.24Z" style="fill:#1d1d1b"/></svg>