<svg id="Layer_1" data-name="Layer 1" xmlns="http://www.w3.org/2000/svg" viewBox="0 0 425 744.28"><title>samsungsmart</title><path d="M102.17,389.32q13.22-14.07,26.68-28.13l13.48-14.06,13.53-14.06q13.59-14,27.25-28.08l13.68-14,13.74-14,1.58-1.61,1.63,1.6L228,291l14.19,14.06c4.73,4.69,9.42,9.42,14.12,14.14l7,7.08,7,7.11q14,14.21,28,28.51l14,14.25q7,7.13,14,14.22l.29.29v.4q-.07,21.43.08,42.86l.18,21.42.26,21.43q.32,21.44.73,42.86l.81,42.85,0,1.9-1.95.07q-28.12,1-56.27,1.75l-56.28,1.6q-28.15.78-56.29,1.44t-56.29,1.12l-2.71,0,0-2.67.53-44.8c.23-14.91.42-29.83.7-44.7s.54-29.74.84-44.57S101.75,404,102.17,389.32Zm.48.2c.29,15,.48,29.92.68,44.82l.46,44.6c.15,14.84.21,29.65.31,44.45l.15,44.37-2.67-2.63q28.14-.79,56.28-1.5t56.29-1.19l56.29-1q28.15-.51,56.3-.88l-1.91,2,.27-42.86q.13-21.42.18-42.86V455.35l-.09-21.43q-.12-21.43-.47-42.86l.3.69q-7.15-7-14.35-13.9L296.27,364q-14.4-13.86-28.78-27.72l-7.18-6.95-7.15-7c-4.76-4.65-9.54-9.29-14.27-14l-14.2-14.06-14.15-14.1,3.22,0-13.7,13.73L186.31,307.6q-13.74,13.71-27.63,27.34l-13.89,13.65-14,13.65Q116.84,375.88,102.65,389.52Z" transform="translate(-2 -17.72)" style="stroke:#000;stroke-miterlimit:10;stroke-width:3px"/><path d="M223.65,440l6.46-.23,6.47-.21,12.93-.41,12.93-.35,12.94-.29c4.31-.09,8.62-.26,12.93-.41s8.62-.14,12.93,0,8.62.33,12.93.64,8.62.67,12.93,1.28v.43c-4.31.61-8.62,1-12.93,1.29s-8.62.51-12.93.63-8.62.12-12.93,0-8.62-.31-12.93-.4l-12.94-.29-12.93-.35-12.93-.41-6.47-.21-6.46-.24Z" transform="translate(-2 -17.72)"/><path d="M223.65,425.87l6.46-.24,6.47-.2,12.93-.41,12.93-.36,12.94-.28c4.31-.1,8.62-.27,12.93-.41s8.62-.14,12.93,0,8.62.32,12.93.63,8.62.68,12.93,1.29v.43c-4.31.61-8.62,1-12.93,1.29s-8.62.5-12.93.63-8.62.11-12.93,0-8.62-.32-12.93-.41l-12.94-.29-12.93-.35-12.93-.41-6.47-.2-6.46-.24Z" transform="translate(-2 -17.72)"/><path d="M162.06,224.34a91.86,91.86,0,0,1,51.83-17.14,105.06,105.06,0,0,1,14,.63,69.61,69.61,0,0,1,13.67,3,75.08,75.08,0,0,1,12.8,5.59,65.23,65.23,0,0,1,11.41,7.88l-.24.35c-4.13-2-8.26-3.87-12.45-5.51A125.32,125.32,0,0,0,240.27,215c-4.31-1.18-8.65-2.16-13.05-3a85,85,0,0,0-13.34-1.39,93.74,93.74,0,0,0-26.69,3.29,93.6,93.6,0,0,0-12.81,4.5l-3.09,1.41-3,1.52-3,1.63-3,1.72Z" transform="translate(-2 -17.72)"/><path d="M176.52,243.63a48.84,48.84,0,0,1,17.09-10.9A56.16,56.16,0,0,1,213.89,229a57,57,0,0,1,20.26,3.75,48.94,48.94,0,0,1,17.11,10.87L251,244a71,71,0,0,0-8.67-4.57,72.49,72.49,0,0,0-9.17-3.39,68.28,68.28,0,0,0-19.31-2.75,67.15,67.15,0,0,0-19.3,2.74,68.7,68.7,0,0,0-9.17,3.4,71.69,71.69,0,0,0-8.67,4.57Z" transform="translate(-2 -17.72)"/><path d="M191.69,264.42A30.89,30.89,0,0,1,202,258.35a34.8,34.8,0,0,1,11.94-2.07,35.57,35.57,0,0,1,11.93,2.08,30.67,30.67,0,0,1,10.27,6.06,106.07,106.07,0,0,0-11.16-2.82,61.61,61.61,0,0,0-11.05-1.05,58.84,58.84,0,0,0-11,1A108.72,108.72,0,0,0,191.69,264.42Z" transform="translate(-2 -17.72)"/><path d="M201.78,567.65l-20,.37-20.21.34c-6.76.11-13.54.25-20.35.31s-13.62.16-20.44.2h-1.31v-1.33l-.09-13.88-.06-13.88,0-27.76.1-27.76c0-4.63.08-9.25.11-13.88s.09-9.25.16-13.88l0-1.14h1.12l80.91.36h.78v.78Zm-.2-.2-.68-110.94.78.78-80.91.36,1.14-1.14q.12,6.94.16,13.88c0,4.63.11,9.25.12,13.88l.1,27.76-.05,27.76,0,13.88-.09,13.88-1.33-1.33c6.67,0,13.33.12,20,.2s13.39.2,20.11.31l20.24.34Z" transform="translate(-2 -17.72)"/><path d="M373.23,757.45q-69-.06-137.93,1.08l-34.48.6-34.49.7-69,1.41-34.49.62-8.65.14a49.64,49.64,0,0,1-9.57-.83,51.53,51.53,0,0,1-17.9-6.94,51.53,51.53,0,0,1-24.35-40c-.08-.81-.11-1.62-.13-2.44l0-1.21v-1.09l0-4.31L2.1,688Q1.78,619,2.47,550c.91-92,3.18-183.91,3.6-275.87q.38-69-.1-137.93l-.25-34.48L5.54,84.51l-.09-8.62,0-4.32c0-.69,0-1.48,0-2.24s0-1.53.1-2.29a48.73,48.73,0,0,1,4.61-17.7A49.85,49.85,0,0,1,54.54,20.77l69-.95L158,19.34,192.48,19c46-.53,92-.73,137.93-1l34.48-.2,8.66,0a52,52,0,0,1,9.87.94,52.84,52.84,0,0,1,18.36,7.28A53.22,53.22,0,0,1,426.53,67c.08.83.1,1.66.12,2.49l0,1.24v1.09l0,4.31.08,17.24q.36,69,.17,137.93l-.26,69-.44,69c-.39,46-1.21,92-2.15,137.94l-1.46,69-.71,34.48-.61,34.49-.5,34.48-.2,17.24-.08,8.62-.05,4.31c0,.71,0,1.46-.05,2.19s-.07,1.47-.14,2.2a47.54,47.54,0,0,1-30,40.05A46.82,46.82,0,0,1,373.23,757.45Zm0-1.41A45.39,45.39,0,0,0,414,730.24,44.29,44.29,0,0,0,418.25,714c.19-2.78.07-5.66.06-8.54l-.08-8.62-.2-17.24-.5-34.48-.61-34.49-.71-34.48-1.46-69c-.94-46-1.77-92-2.15-137.94l-.44-69-.26-69q-.11-69,.17-137.93l.07-17.24,0-4.31V70.79l0-.91c0-.61,0-1.22-.08-1.82a38.8,38.8,0,0,0-17.89-30.24,39.13,39.13,0,0,0-13.44-5.5,37.71,37.71,0,0,0-7.27-.78l-8.58-.06-34.48-.19c-46-.28-92-.48-137.93-1L158,29.91l-34.48-.48-69-.95A42.36,42.36,0,0,0,39,31.21,42.77,42.77,0,0,0,11.48,67.5c-.07.67-.12,1.34-.13,2s-.06,1.33-.06,2.06l0,4.32-.09,8.62L11,101.75l-.25,34.48q-.41,69-.1,137.93c.42,92,2.69,183.91,3.6,275.87q.67,69,.37,137.93l-.1,17.24,0,4.31v1.07l0,.94c0,.62,0,1.25.07,1.87A40.11,40.11,0,0,0,22,734.32a41.85,41.85,0,0,0,10.84,10.43,40.61,40.61,0,0,0,21.46,6.73l8.59.15,34.49.62,69,1.41,34.49.7,34.48.6Q304.27,756.07,373.23,756Z" transform="translate(-2 -17.72)"/><path d="M377.86,28.5H302.63a6.79,6.79,0,0,0-5,2.68L284.15,50.93a6.9,6.9,0,0,1-5.08,2.69H148.71a7,7,0,0,1-5.08-2.69L130.18,31.18a6.84,6.84,0,0,0-5-2.68H49.92" transform="translate(-2 -17.72)"/></svg>