<?xml version="1.0" encoding="utf-8"?>
<!-- Generator: Adobe Illustrator 24.0.3, SVG Export Plug-In . SVG Version: 6.00 Build 0)  -->
<svg version="1.1" id="Layer_1" xmlns="http://www.w3.org/2000/svg" xmlns:xlink="http://www.w3.org/1999/xlink" x="0px" y="0px"
	 viewBox="0 0 479.6 758.1" style="enable-background:new 0 0 479.6 758.1;" xml:space="preserve">
<style type="text/css">
	.st0{fill:#1D1D1D;}
	.st1{fill:none;}
</style>
<title>sanitaryware</title>
<path d="M5.8,236.8c6.8,15.8,14.4,31.3,22.6,46.3c8.1,14.9,17.3,29.2,27.5,42.8C66.3,340,76,354.6,85,369.5
	c9.1,14.9,17.7,29.9,25.8,45.6l1.2,2.4l-0.2,2.9c-2,33.3-4.6,66.5-8.1,99.7c-3.5,33.2-8,66.3-11.4,99.5c-1.6,16.6-3.3,33.2-4.1,49.8
	l-0.5,12.4c0,2-0.1,4.3,0,5.7c-0.2-0.8,0.1,0.2,0.3,0.5l0.6,1.3l1.4,2.6c4.1,6.9,9.1,13.2,14.9,18.8c11.8,11.1,25.9,19.4,41.3,24.3
	c15.4,4.9,31.4,7.6,47.6,8c16.2,0.6,32.4-1.1,48.6-3.2c16.1-2.2,32-5.4,47.7-9.6c15.5-4.1,30.5-9.6,45-16.5
	c14.1-6.9,27.7-15.4,37.9-25.8c5-5,9.2-11.2,9.6-14.8l4.1-24.2c2.7-16.4,5.1-32.9,8-49.3l8.3-49.3l8.6-49.3l-0.1,1.5
	c1.2-31.4,2.6-62.8,4.2-94.2c1-15.7,1.7-31.4,2.9-47.1s2.1-31.4,3.6-47.1h2.3c1.2,15.7,2,31.4,2.8,47.2s1.5,31.4,2.2,47.2
	c1.2,31.4,2.1,62.9,2.8,94.3v0.5l-0.1,1l-6.3,49.7l-7,49.6c-2.2,16.6-5.1,33-7.8,49.5c-1.5,8.3-2.6,16.4-4.5,25.1
	c-1.3,5.7-3.8,11-7.3,15.6c-2.9,4-6.1,7.7-9.7,11.1c-13.7,13-29.3,21.7-45.3,29c-15.9,7.1-32.5,12.5-49.4,16.3
	c-16.7,3.8-33.8,6.2-50.9,7.2c-17,1-34.2,1.2-51.3-0.9c-17.1-2-34.1-5.7-50.1-12.3s-30.9-15.9-43-28.2c-6.2-6.1-11.5-13-15.8-20.6
	l-1.5-2.9l-0.7-1.5c-0.4-0.7-0.7-1.6-0.9-2.4c-0.2-2.3-0.3-4.6-0.2-6.8l0.3-12.6c0.7-16.7,1.1-33.4,1.6-50.1
	c0.9-33.4,1.1-66.9,2.4-100.2s3.7-66.7,6.8-99.9l1,5.3c-7.6-15.2-15.5-30.5-23.6-45.5c-8.3-15-16.5-29.9-25.6-44.3
	c-4.8-7.4-9.1-15.1-13.1-23c-4-7.8-7.6-15.8-10.9-24c-6.6-16.2-12-32.8-15.9-49.8L5.8,236.8z"/>
<path class="st0" d="M3.7,238l-0.1-0.5l2-0.6l0.2-0.1l-2.3,0.7l0.3,1.2c0,0.1,0,0.1,0,0L3.7,238z"/>
<path class="st0" d="M22.1,293.8l-0.4-1c1.1,2.7,2.3,5.3,3.5,7.9C24.2,298.5,23.1,296.1,22.1,293.8z"/>
<path class="st0" d="M48.3,342.1c-1.3-2.2-3.9-6.5-6.9-11.2s-6-10-8.3-14.4l-0.8-1.4l-2-3.9c2.6,5.3,6,11.3,9.3,16.8
	c1.6,2.8,3.3,5.4,4.8,7.7S47.2,340.3,48.3,342.1z"/>
<path class="st0" d="M62.9,367.6c-0.9-1.6,3.1,5.5-3.3-6c0.3,0.6,0.4,0.7,0.6,1.1L62.9,367.6z"/>
<path class="st0" d="M60.1,362.7C57.3,357.7,62,366,60.1,362.7z"/>
<path class="st0" d="M72.9,386.2l-3.5-6.8l2.7,5.2C75.7,391.6,75,390.1,72.9,386.2z"/>
<path class="st0" d="M76.3,392.6l-1.8-3.5L76.3,392.6z"/>
<path class="st0" d="M70.6,381.6l3.9,7.4l-1.8-3.4C73,386.3,72.2,384.8,70.6,381.6z"/>
<path class="st0" d="M68.4,377.4c-2.1-3.8-4.7-8.6-1-1.9C60.2,362.8,61.3,364.7,68.4,377.4z"/>
<path class="st0" d="M49.8,344.5l-3-4.9l-2.6-4.2C45.5,337.5,49.9,344.8,49.8,344.5z"/>
<path class="st0" d="M91.9,419.4c0.1,0.5,0.5,2.6,0.6,3.2l0.4,2.1l-2.1-4.1l2.1,4.2L91.9,419.4z"/>
<path class="st0" d="M92.5,422.6l-0.8-4.3l-0.5,5.1c0.2-2.1,0.3-3.8,0.5-5.1l0.7,3.8C92.5,422.7,92.5,422.8,92.5,422.6z"/>
<polygon class="st0" points="76.9,393.8 70.5,381.5 78.1,396.2 "/>
<polygon class="st0" points="88.9,450.3 89.2,445.5 88.6,454 "/>
<path class="st0" d="M87.3,471.6c0.2-3.5-0.3,4.8-0.1,1.1c-0.4,5.8-0.7,10.7-0.9,15.2C86.6,483.1,86.9,478.1,87.3,471.6z"/>
<path class="st0" d="M85.9,495.4c0.1-2.4,0.3-4.8,0.4-7.5C86.2,490.4,86,492.9,85.9,495.4z"/>
<path class="st0" d="M89.9,437.8c0,0.7-0.2,1.9-0.6,6.6l0.3-3.3L89.9,437.8z"/>
<path class="st0" d="M89.6,441v0.1c-0.3,3.6-0.5,6.1-0.6,7.1C89.1,447.3,89.3,445.1,89.6,441z"/>
<path class="st0" d="M90,436.9l-0.1,0.8L90,436.9z"/>
<path class="st0" d="M87.1,413.4c2.3,4.4,7,13.6,2.5,4.7L87.1,413.4z"/>
<path class="st0" d="M90.3,432.8l0.8-8.9c0,0.2-0.2,1.8,0-0.7L90.3,432.8z"/>
<polygon class="st0" points="90,437.2 90.3,432.8 90.1,436.1 "/>
<path class="st0" d="M86.8,480c-0.2,3.9-0.5,8.1-0.8,12.9c0.3-5.1,0.6-10.4,0.9-15.4C87,476.8,87.1,474.6,86.8,480z"/>
<path class="st0" d="M88.1,461l-0.1,0.9L88.1,461z"/>
<path class="st0" d="M84.1,539.9v-0.8V539V539.9z"/>
<path class="st0" d="M87,476.6c0.2-3.8,0.4-6.1,0.5-8.3c-0.2,2.9-0.4,5.9-0.6,9.2C86.9,477.8,86.9,477.9,87,476.6z"/>
<path class="st0" d="M85.2,508.5c0.1-2,0.2-4.3,0.3-6.7C85.5,503.8,85.3,507.8,85.2,508.5z"/>
<path class="st0" d="M87.9,463.2v-0.6C87.9,463.9,87.9,463.7,87.9,463.2z"/>
<path class="st0" d="M87.9,463.2c-0.1,2-0.2,3.5-0.4,5.1c0.2-2.3,0.3-4.5,0.4-6.4L87.9,463.2z"/>
<path class="st0" d="M83.9,554.2c0-0.7,0.2-10.8,0.5-19.5s0-3-0.2,4.5c0,0.3,0,0.3-0.2,9.1c0.1-3.1,0.6-19.6,0.4-12.2
	c-0.3,11.7-0.3,9.6-0.4,15.3c0.1-4.8-0.3,14.9-0.2,12.4l0.2-10.3C83.9,553.3,83.8,557,83.9,554.2z"/>
<path class="st0" d="M84.7,522.3l0.1-3.6c-0.1,4.2-0.3,7.1-0.5,12.6c-0.2,6-0.2,7.3-0.2,7.7c0.2-6,0.4-12,0.6-17.9L84.7,522.3z"/>
<path class="st0" d="M85.6,502.3c-0.1,2.8-0.5,11.6-0.3,6.2c0.5-10.7,0.4-7.5,0.7-13.9c-0.9,17.2,0.2-5-0.4,7.5
	c0.2-3.4,0.3-6.4,0.5-9.3c-0.2,3.1-0.3,6.1-0.5,8.9v-0.4v-0.1l0,0c0-0.7,0-1,0-0.2v0.4L85.6,502.3c-0.2,5,0,0.8,0-0.8v-0.1
	c-0.3,5.8-0.5,11.5-0.8,17.3C85,515,85.2,510.4,85.6,502.3z"/>
<path class="st0" d="M92.2,421.8l-0.1-0.5C91.9,420.2,91.8,419.8,92.2,421.8z"/>
<path class="st0" d="M91.3,422.9c0.1-1,0.2-1.9,0.4-4.2l0.5,2.4c0.7,3.5,0,0,0,0.2c0.2,0.8,0.4,2,0.6,3c-0.4-0.8-0.8-1.4-0.8-1.6
	l0.1,0.2l0.7,1.4c-0.1-0.5-0.2-1.2-0.4-2.2L92,421c-0.1-0.7-0.3-1.5-0.4-2.2c-0.6,6.5-1.1,11.6-1.2,12.7
	C90.7,429.3,90.8,427.5,91.3,422.9z"/>
<path class="st0" d="M88,463.1l-1,14.4l0.5-7.3v0.4C88,462.4,87.9,464.1,88,463.1z"/>
<polygon class="st0" points="84.1,541.6 84.1,539.7 83.9,548 "/>
<polygon class="st0" points="83.6,560.3 83.6,559.6 83.5,564.5 "/>
<path class="st0" d="M412,493.9l-0.2,4.2C411.9,496.1,412,494.8,412,493.9z"/>
<path class="st0" d="M413.4,463.3v-0.8C413.4,464,413.3,464.6,413.4,463.3z"/>
<path class="st0" d="M378.2,714.6c5-3.6,10.1-8.2,9.5-7.8s-1,0.8-1.4,1.2C383.1,710.9,380.5,712.9,378.2,714.6z"/>
<path class="st0" d="M429.8,412.8c0,0.6,0,1.2,0,1.8c0,1.5,0.1,2.9,0.1,4.2C429.9,417,429.9,414.9,429.8,412.8z"/>
<path class="st0" d="M429.6,408.4l-0.4-8.1C429.3,402.2,429.5,404.8,429.6,408.4z"/>
<path class="st0" d="M385.7,655.9l-0.8,4.9C386.2,653.2,385.6,656.5,385.7,655.9z"/>
<path class="st0" d="M123,734.2c4.5,2.8,8.3,4.7,11.6,6.3C128.9,737.7,124.5,735,123,734.2z"/>
<path class="st0" d="M412.5,481.8c-0.1,2.6-0.2,3.5-0.2,3.6C412.4,482.8,412.5,481.3,412.5,481.8z"/>
<path class="st0" d="M148.8,746.6l-2.6-1c-3.6-1.4-7.2-3-11.5-5C139.3,742.8,144,744.8,148.8,746.6z"/>
<path class="st0" d="M110.8,435.5l0.1-1.4C110.9,434.3,110.8,434.6,110.8,435.5z"/>
<path class="st0" d="M28.5,283c0.8,1.5,2.2,4,3.5,6.3L28.5,283z"/>
<path class="st0" d="M81.9,635.5C82,631.5,81.9,634.9,81.9,635.5z"/>
<path class="st0" d="M82.5,616.2v1.6C82.5,617.4,82.5,616.9,82.5,616.2z"/>
<path class="st0" d="M187.1,755.8h0.3C186.3,755.6,186.5,755.7,187.1,755.8z"/>
<path class="st0" d="M82.1,629.5c0,1.5-0.1,3.2-0.2,5.1C81.9,633.8,82,632.2,82.1,629.5z"/>
<path class="st0" d="M82.1,630.3c0-1.4,0.1-2.4,0.1-3.5C82.2,626.4,82.2,626.8,82.1,630.3z"/>
<path class="st0" d="M81.7,641c0.1-2.3,0.1-4.4,0.2-6.4c0,0.3,0,0.6,0,0.9C81.9,636.7,81.8,638.3,81.7,641z"/>
<path class="st0" d="M140.5,733l-0.8-0.3C135.9,731.2,137.6,731.9,140.5,733z"/>
<path class="st0" d="M416.1,622.9l-0.1,0.4l0.1-0.6L416.1,622.9z"/>
<path class="st0" d="M418.2,608.8c-0.8,6-1.4,9.4-2.1,14l0.8-4.7L418.2,608.8z"/>
<path class="st0" d="M400.9,563.3l1.7-9.9c-2,11.9-3.4,20.5-1.9,11.3c0.1-0.7,1.7-10.3,3.3-19.9c1.7-9.6,3.3-18.9,3.5-19.8l1.2-6.5
	c-0.3,1.9-0.4,2.2-0.7,4c2-11.4,1.7-9.9,3.8-21.5h-0.1c0,0.5-0.1,1-0.1,1.5h0.1l0.1-2.7c0.3-5.8,0.4-9.8,0.3-5.8l0.6-12.8
	c0.2-3.7,0.1-2.8,0,0.9l0.9-19.5v0.1c0.1-2.8,0.4-9.1,0.5-12.2c0.2-5-0.1,2.5,0,1.2l0.5-10.8c0.2-4.4-0.2,4.6-0.5,12
	c0.5-10.2,0.4-9,1.4-30.8l-0.5,10.2c0.3-6.6,0.6-14.6,1.2-26.1c-0.2,2.7-1.1,23.1-0.6,11.4c0.2-3.3,0.3-7.7,0.7-14
	c0-0.5,0.4-6.3,0.9-14v0.6c0.5-8.3,0.5-7.7,0.8-12.6c0.6-9.3,0.7-11.2,0.9-13.4c1-14.9-0.8,10.3,0.5-7.4c0.9-12.4,1.6-21.1,2.7-36
	c0.7-8.7-0.1,1.5,0.1-1.6l0.4-5h2.2v0.3c0.1,1.9,0.1,1.3,0,1c0.4,6.5,0,0.6,0.7,10.7c0.2,2.8,1.3,20.9,2,33.6
	c0.2,3.1-0.1-1.5-0.1-0.5c0.9,17.3,0.7,14.9,1.4,29.1l0.6,12.1c-0.2-4.5-0.2-3.8,0-0.9s0.5,8.3,0.6,13.3c0-1.6-0.1-3-0.1-4.3
	s-0.1-2.4-0.1-3.3c0.3,5.3,0.3,10.6,0.5,15.9c0,1.9,0,0.3-0.1-2.3c0,1.1,0.1,2.1,0.1,2.9c0.2,5.7,0.1,2.7-0.1-1.3
	c0-1.9-0.1-3.9-0.2-5.7c-0.1-3.9-0.2-7.6-0.2-6.8l0.2,5.2c0-0.4,0-0.8,0-1.2c0,0.5,0.1,2.2,0.2,4.8l0.1,3.6v0.9l0.6,20.8
	c0.5,14.9,0.8,27.9,1.6,51.5c-0.2-5.9-0.1-1.3-0.1-1.6c-0.2-6.5-0.5-18.3-0.9-30.6c0.2,6.4,0.1,5,0.1,3.4l0.7,21.9
	c0,0.7,0.1,4.7,0.3,10.4c0-2,0.1,1.2,0.2,6.2c-0.7,5.7-1.8,14-2.4,18.9c-0.1,0.5,0.2-1.6,1.5-12.4c-1.5,11.9-1.9,15.4-3.4,27
	c0.3-2.6,0.5-4,0.7-5.1c-0.8,5.8-1.8,14.3-2.2,17.6l0.3-2.6c-0.3,2.2-0.6,4.7-0.9,7.3c-0.3,2.7-0.8,5.5-1.2,8.4
	c-0.8,5.8-1.7,12-2.5,17.7l-3.1,22.3c0-0.2,0.3-2.3,0.4-3.3c-1.4,10.4-3,20.8-4.6,31.2c0.4-2.7-1.3,7.8,1-6.7
	c-0.7,4.1-1.5,9.3-2.9,18c0.5-2.8,1.2-7,0.6-3.2c-1.8,10.6-1.2,7.3-3.4,20.4c0.7-4.2,0,0.5-1.2,7.2c0.2-1-0.1,0.6,0.3-1.9
	c-0.5,2.8-0.9,5.5-1.5,8.3s-1,5.5-1.8,8.2c0.6-2,0.5-2.2,0.4-1.4c-0.4,1.5-0.8,2.9-1.4,4.3c-0.8,2.2-1.9,4.4-3.1,6.5
	c-2,3.4-4.4,6.6-7,9.6c1.6-1.8,3-3.7,4.4-5.6c-2.2,3-4.6,5.9-7.2,8.6c-2,2.1-3.8,3.7-5.5,5.3c-1.7,1.6-3.5,3.1-5.8,4.9
	c-2.3,1.8-5.1,3.9-9.1,6.5c1-0.6,2.1-1.4,2-1.4l-1.2,0.8c-0.8,0.6-2.2,1.4-4.2,2.7c-1.9,1.2-6,3.7-11.7,6.8
	c-6.7,3.5-13.6,6.7-20.6,9.5l-3,1.2c-4,1.5-8,3-12.1,4.4c3.8-1.3,11-3.8,18.4-7c7-3,13.9-6.3,20.6-10c-3.1,1.7-3.6,1.9-4.4,2.3
	c-0.8,0.4-2,1.1-6.9,3.4c-1.7,0.8-0.4,0.2,1.7-0.8s4.9-2.4,6.3-3.2c-7.3,3.9-14.9,7.3-22.6,10.4c0.5-0.2-3.9,1.6-8.4,3.2
	s-9.1,3-8.6,2.9c8.6-2.7,17-5.9,25.2-9.5c0.5-0.2-3,1.4-8.8,3.7c-5.8,2.3-13.9,5.2-22.3,7.6c-4.3,1.2,3.2-1,2.8-0.9
	c-1.1,0.3-5.1,1.5-9,2.6s-7.9,2-8.7,2.1c2.4-0.6,4.8-1.2,7.3-1.8c-4.8,1.2-8.7,2.1-12.8,3c-4.1,0.9-8.6,1.8-14.4,2.7
	c-4,0.7-12,1.7-12.7,1.8c6.6-0.8,7.9-0.9,3.5-0.3c-0.7,0.1-6,0.8-11.7,1.3c-5.7,0.5-11.8,1-14.2,1.1c-3.3,0.2-0.8,0,1.8-0.1
	s5.4-0.4,2.5-0.2c-0.2,0-3.9,0.3-5.5,0.3l-7.5,0.3c-1.5,0.1-18.9,0.3-4.4,0.1c-4.5,0.1-7,0.1-9.5,0.1s-5.4-0.1-10.7-0.3
	c1.7,0.1-0.7,0-4.6-0.2s-9.4-0.8-13.9-1.3l-2.5-0.3c-7.7-1.1-15.4-2.6-23-4.5c-7.3-1.9-14.4-4.2-21.3-7.1c-0.7-0.3-3-1.3-4.7-2.1
	s-2.8-1.3-1.1-0.5c-2.2-1.1-4.3-2-9-4.6c-4.5-2.6-1.9-1.1,1,0.5c2.9,1.6,6.1,3.2,2.6,1.4c-0.3-0.2-3.4-1.7-7.1-3.9
	c-3.8-2.3-7.5-4.7-11.1-7.3c0.9,0.7,4.5,3.3,8.8,6c4.1,2.5,8.4,4.9,12.8,7c0,0-0.8-0.3-2.1-1c-1.4-0.7-3.4-1.7-5.8-3.1
	c-6.6-3.7-12.8-7.9-18.7-12.7c-2.8-2.3-4.4-3.8-5.3-4.7c-0.9-0.9-1.2-1.2-1.3-1.2s1,0.9,0.1,0.1c-3.7-3.5-7.2-7.3-10.4-11.3
	c-1.9-2.4-3.6-4.9-5.3-7.4c-1.5-2.3-2.8-4.7-4-7.2c-0.3-0.7-0.8-1.5-1.1-2.3c-0.1-0.4-0.3-0.9-0.3-1.4c0-0.5-0.1-1-0.1-1.5
	c-0.1-1-0.1-2.2-0.1-3.4c0-1.2,0-2.5,0-3.9c0.2-8.9,0-0.4,0.1-2.4c-0.1,2.9-0.1,5.5-0.1,7.9c0,1.2,0.1,2.3,0.2,3.4
	c0.1,0.5,0.2,1,0.4,1.5c0.1,0.2,0.2,0.5,0.3,0.7c0.1,0.2,0.2,0.5,0.3,0.7c0.4,0.9,0.9,1.8,1.3,2.6s0.9,1.7,1.4,2.5
	c1,1.6,2,3.2,3.1,4.9c-1.8-2.7-3.5-5.5-5-8.4c0.4,0.8,1,1.9,1.6,3s1.4,2.4,2.2,3.7c1.6,2.5,3.4,4.9,4.7,6.6c-2.2-2.8-4.2-5.7-6-8.8
	c-0.6-1.1-1.3-2.2-1.9-3.4s-1.3-2.5-1.9-3.8c-0.5-1.4-0.8-3-0.7-4.5c0-1.6,0-3.2,0-4.8c0.2-13.1,0.8-27.9,1.1-38.3
	c0.1-3.7,0.3-10.1,0.2-7.1l-0.2,6.6c-0.2,6.1,0.4-12.4,0.1-4.1c0.3-8.9,0.6-18.8,0.9-31.3l0.1-2.3c0,0.3-0.2,8.2-0.3,11.7
	c0.1-5.2,0.5-19.1,0.5-24.8l-0.2,8.7c0.2-8.9,0.4-19.9,0.6-30.9c-0.1,5.1,0,2.5-0.2,10.4c0.2-6.8-0.5,28.3-0.3,17.3
	c-0.2,8.1-0.3,14-0.6,24.5c0-0.3,0.1-3.7-0.2,5.5c0,0.4,0,1.4-0.1,2v0.6V629c0,0.4,0,0.4,0-0.2c0.1-2.2,0.1-4,0.2-4.7
	c-0.1,4.6-0.6,19.4-0.8,24.3c-0.2,5.5,0.1-2.3,0,0.7l-0.2,7.4c0,0.7-0.5,14.6-0.1,1.7l-0.4,11.7c-0.1,3.4-0.2,7.5-0.3,11.5
	c0,2,0,3.9,0.1,5.7c0,0.5,0.1,0.9,0.1,1.3c0.1,0.4,0.2,0.8,0.3,1.2c0.1,0.4,0.3,0.8,0.5,1.1c0.1,0.4,0.3,0.7,0.5,1
	c1.3,2.7,2.8,5.4,4.5,7.9c3.3,5.1,7.1,9.9,11.4,14.3l0.1,0.1c6.4,6.7,13.6,12.7,21.5,17.8c8.4,5.4,17.3,9.9,26.6,13.6
	c7,2.7,14.2,4.9,21.5,6.6l1.9,0.5c3.8,0.9,9.6,2,14.8,2.8s10,1.3,11.6,1.5c2.1,0.2,5.5,0.5,9.7,0.8c4.2,0.2,9.1,0.4,14.1,0.4
	c10.2,0,21-0.4,27.8-0.9l0.5-0.1c9.4-0.8,18.5-1.7,30-3.6l-0.7,0.1c5-0.8,11.4-2,18.5-3.7c7.1-1.7,14.8-3.6,22.4-6.1
	c-1,0.4-4.9,1.5-7.7,2.3c9.5-2.7,18.8-6,27.8-9.7c8.7-3.6,17.2-7.8,25.3-12.4c3.7-2.2,6.4-3.9,8.9-5.6l-0.9,0.6
	c0.4-0.2,0.9-0.6,1.5-1c1.6-1.1,3.2-2.2,4.9-3.5c-1.5,1.1-2.9,2.1-4.1,2.9c2.8-1.9,6.8-4.9,10.6-8.1l1.6-1.4l0.9-0.8
	c3.6-3.3,2.9-2.7,1-0.9c1.9-1.7,3.5-3.3,4.7-4.6c2-2.1,3.9-4.3,5.6-6.6c2-2.6,3.7-5.3,5.2-8.2c0.8-1.6,1.5-3.2,2.1-4.9
	c0.9-2.8,1.5-5.6,2-8.4c1.2-6,2.1-12,2.3-13.3c0-0.2,0.3-1.6-0.2,1c0.5-2.7,0.9-5.4,1.4-8.1c0.5-2.6,0.8-5.2,1.2-7.7l0.4-2.3
	l1.9-11.9c1.2-7.2,1.7-10.2,0.5-3c2.7-17.4,2.2-14.1,4.3-28.9l-0.1,0.7c0.7-5.3,1.9-13.7,2.4-16.9c0.7-5.4,2.6-17.9,4.6-32.8
	c2-14.9,4.1-32.3,6-47.3c-0.1-3.1-0.2-6.1-0.2-9c0.1,6-0.4-14.2-0.5-15.5c0-1.8-0.2-6.1,0-1.1c-0.5-15.6-0.7-23.5-1-34.3
	c0-1.8,0.1,3.3,0.1,1.8c0-1.2-0.2-5-0.2-6.6s0.1,2.3,0.2,4.8c-0.5-16-0.5-17.6-0.6-18.8c-0.2-8.1-0.3-12.1-0.6-18
	c-0.1-2.8-0.3-7.5,0.1,2.4c-0.3-5.6-1.6-33.8-1.6-34.7c-0.1-1.8-0.4-7.8-0.4-9.3c-0.7-12.5-0.8-13.6-1.5-25.9l0.2,3.4
	c-0.3-4.9-0.6-10.2-1.2-20.1v0.3c-0.2-3.7-0.4-6.5-0.5-8.6h-2.4c-0.6,7.8-0.3,4.2-1.6,21.4l0.1-1.2c-0.1,1.2-0.5,6-0.9,12.3
	c-0.5,6.3-1.1,14-1.5,20.5l0.3-4.7c-0.5,7.1-1.3,19.9-1.7,27c-0.1,1.6,0.2-2.5,0.3-4.6c-1.1,18.3-0.2,2.7-1,16.3
	c-0.2,2.6,0.2-3.3-0.4,6c-0.2,4.7-1.2,27.2-1.8,40c0.1-2.8,0.3-5.6,0,0.8c-0.4,9.9-1.2,26.8-1.6,35.8c-0.1,1.2-0.1,1.7-0.1,1.8
	c-0.2,4.1-0.5,10.9-0.8,17h0.1c0-0.5,0.1-1,0.1-1.5h-0.1c-0.8,4.6-1.5,8.7-1.8,10.6c-0.6,3.5-2.7,15.1-4.6,25.8l-3.5,20.5l-3.9,23
	l0.1-0.6c-2.5,14.7-3.3,19.9-4.2,25.1c-0.5,3.4-0.2,0.9-0.1,0.6c-3.5,21.5-3.8,23.7-6.7,41.7l-0.3,1.9c-0.4,2.4-1.7,10.2-3.4,20
	c-0.2,1.2-0.4,2.5-0.6,3.8c-0.3,1.3-0.7,2.5-1.4,3.7c-1.3,2.4-2.8,4.7-4.6,6.8c-3.6,4.2-7.6,8.1-11.9,11.5l1.8-1.5
	c-4.9,4.1-10.2,7.9-15.7,11.2c-5.6,3.4-11.4,6.5-17.3,9.3c-8.3,3.9-16.8,7.3-25.5,10.3c-5,1.7-10.1,3.3-15.2,4.7
	c19.7-5.8-2.9,0.9,5.2-1.5c-7.7,2.4-20.2,5.4-10.5,3l1.5-0.4c1.8-0.5-4.4,1.2-11,2.7c-6.6,1.5-13.6,2.9-13.4,2.8
	c-9.9,1.9-19.8,3.5-29.8,4.6s-19.8,2.1-29.5,2.4c-9.7,0.2-19.5-0.2-29.1-1.4c-9.5-1.2-18.9-3.2-28-6c1.4,0.4,2.8,0.8,4.2,1.3
	c-4.2-1.2-8.4-2.6-12.5-4.2c-1.6-0.6-2.7-1.1-2.3-0.9s2.3,1,6.8,2.5c-2.3-0.8-6-2.2-9.1-3.6s-5.5-2.6-5.7-2.7
	c-2-1.1-3.5-1.8-4.4-2.4c-0.9-0.5-1.4-0.8-1.5-0.9c-0.1-0.1,0.9,0.5,2.4,1.3c3,1.7,7.5,3.8,4.9,2.6c-2.3-1.1-4.5-2.4-6.8-3.6
	l1.5,0.8c-2.7-1.5-4.1-2.4-6.1-3.7c-3.1-2-6-4.2-8.8-6.5c-5.5-4.6-2.8-2.4-4.9-4.3l-0.6-0.6c-0.5-0.4-1.2-1.2-2.4-2.4
	c-3.9-4-7.4-8.3-10.4-12.9c1.2,1.8,2.5,3.7,3.9,5.4c-2-2.5-3.8-5.2-5.5-7.9c-1-1.8-1.1-1.9,0.9,1.4c-0.8-1.2-1.8-2.9-2.9-5.1
	c-0.3-0.6-0.6-1.1-0.8-1.8l-0.1-0.2l0-0.1c0,0,0-0.1,0-0.1c0,0,0,0.1,0,0.1c0,0.1,0,0.1,0,0.2v0.1l0,0v-0.3c0-0.3,0-0.7,0-1.1
	c0-1.4,0-3,0-4.6c0.3-6.5,0.5-14.1,1.1-21.5c1-14.9,2.5-29.3,2.8-32.7c0.9-10.3,2-20.4,3.5-33c-0.4,3.1-0.6,5,0.6-5.8
	c-0.4,4,2.4-19.8,3.4-28.6c-0.9,7.8,3.6-30.8,2.1-18.5c1-8.6,0.1-0.9,0.9-7.4c2.4-21.5,4.9-47.4,6.9-74.1c0-0.4-0.3,4,0.1-1.7
	l1-14.1c0.4-5.3,0.3-4.8,1-14.5c-0.1,1.4-0.2,3.4,0-0.2c0.2-4,0.5-8,0.7-12.1c-5.5-10.9-11.4-21.6-17.6-32.3
	c-3.1-5.3-6.3-10.6-9.5-15.9s-6.5-10.5-9.9-15.8c-6.8-10.4-13.8-20.6-21.2-30.6c-7.3-10-14.1-20.3-20.3-31c3.7,6.2,1.2,2.1-1.6-2.7
	c1.8,3.1,0-0.1,0.3,0.5c-3.7-6.4-7.2-13-10.6-19.6c-0.9-1.8-3.6-7.1-6.1-12.3s-4.8-10.2-5.3-11.3l3,6.4c-2-4.2-0.6-1.3,1.2,2.6
	s3.5,7.3,3.9,8c4.7,9.4,12.6,24.7,21.8,39.2c2,3.2-1.7-2.7-0.6-1c2.3,3.7,5.1,8.2,10.8,16.2l-0.6-0.9c2,2.8,3.9,5.4,5.7,7.8
	s3.5,4.7,5,6.9c3.2,4.4,6,8.6,8.9,12.8c5.7,8.5,11.5,17.5,19.4,30.7l-1.2-2c3.4,5.7,4.1,6.9,5.7,9.6c1.9,3.3-0.4-0.8-2.8-4.8
	s-4.9-8.2-3.1-5.2c2.1,3.5,7.5,12.5,12.6,21.7s10.2,18.7,12.2,22.8c0,0.7-0.1,1.2-0.1,1.6c-0.5,8,0-0.8-0.4,7.2l-0.2,2.7l-0.1,2.6
	c-0.5,6.7-0.7,9.9-0.7,10.3c0.1-1.6,0.3-4.6,0.4-6.3c-0.6,8.7-1.7,24.4-2,27.4l0.7-9.8c-1,13.9-2.3,29.3-3.7,44.6
	c-1.4,15.3-3,30.4-4.6,43.8l0.2-2c-2.4,20.4-1.9,16.3-4.6,38.7l0.1-0.8c-0.5,4.5-1.2,10.5-1.9,16.6c0.6-5.7-1.2,10.6-0.4,3.2
	c-1.2,11.1-1.5,13.8-1.7,15.6c-0.2,1.8-0.3,2.7-1,10l-0.3,3.4c-0.5,5-0.5,5.4-1.5,16.6c0.8-9.2-0.7,7.2,0.2-3.2
	c-2.2,23.5-2.4,35-2.7,45.8c0,1.3,0.1,2.2,0.1,1.9c0-0.2,0.1,0.4,0-0.4c-0.1-1.3-0.1-4,0.1-6.9c0.2-5.7,0.5-12,0.4-9
	c0.1-2.5,0-0.3-0.1,3.5c-0.1,3.8-0.5,9.2-0.3,12.8v0.1v-0.1v-0.1c0,0.1,0.1,0.2,0.1,0.3c0.1,0.2,0.2,0.4,0.3,0.6l0.6,1.2l1.3,2.4
	c0.9,1.6,2,3.3,3.3,5.2c1.6,2.3,3.2,4.5,5,6.6c2.5,3.1,5.3,5.9,8.2,8.6c-1.4-1.3-1.5-1.4-2.8-2.7c5.4,5.3,11.3,10,17.7,14
	c3.6,2.2,7.3,4.3,11.2,6.1c-5.3-2.5-10.3-5.4-15.2-8.6c4.2,2.9,8.6,5.5,13.2,7.8c6,3,12.3,5.4,18.7,7.3c-1.2-0.4-5.8-1.8-8.9-3
	c4.4,1.7,8.9,3.1,13.4,4.3c-0.7-0.2-5.8-1.5-11.9-3.7c-3-1.1-6.3-2.4-9.3-3.9s-5.9-3-8.2-4.3c3.2,1.9,6.6,3.6,10,5.2
	c3.4,1.5,5.6,2.4,3.1,1.4c9.8,3.9,19.9,6.8,30.3,8.6l-0.8-0.1c2,0.4,6.2,1,9.9,1.5c-2.2-0.2-4.5-0.6-6.7-0.9
	c9.9,1.5,19.9,2.3,30,2.3c-10.5-0.1-11.6-0.4-11.3-0.3c0.3,0.1,2.2,0.1-2.2-0.2c6.4,0.4,10.6,0.4,13.6,0.4s5,0,7-0.1
	s4.2-0.2,7.6-0.4c3.4-0.2,8.2-0.6,15.3-1.4c-3.9,0.5-14.6,1.4-8.5,0.8c5.5-0.5,12.7-1.3,16-1.7c19-2.6-2.9,0.4,5.2-0.7
	c6.5-0.9,9.3-1.4,17.5-2.8h0.1c5.4-1,8.4-1.6,10.2-2l3-0.7c1.1-0.3,2-0.4,11.6-2.8c-2.7,0.7-5.4,1.3-8.1,2c3.3-0.8,6.6-1.6,9.9-2.5
	l-2,0.5c5.4-1.4,8.9-2.4,12.4-3.4c3.5-1,6.9-2.1,12.1-3.9c-2.4,0.8,1.4-0.4,10.4-3.9l2.2-0.9h-0.1l1.2-0.5c1-0.4,2.8-1.2,5.9-2.5
	c-2.8,1.3-5.9,2.6-11.5,4.8c-0.6,0.2-2.8,1.1-3.4,1.3c3.3-1.2,7.5-2.8,11.3-4.5c3.9-1.7,7.4-3.3,9.6-4.4c-1.7,0.8-3.8,1.8-4.8,2.3
	c6-2.7,11.9-5.8,17.6-9.1c2.7-1.6,0.6-0.3-1.6,0.9c3.5-2,5.9-3.4,10.8-6.8l-1.8,1.2c-1,0.6-2.6,1.8-6.2,3.9
	c5.4-3.2,10.6-6.8,15.5-10.8c0.5-0.4,2.4-1.9,3.8-3.2c1.5-1.3,2.5-2.3,1.7-1.5c2.1-1.9,4.1-4,6-6.2c2.2-2.5,4-5.3,5.4-8.2
	c0.4-0.8,0.7-1.6,0.8-2.5c0.2-0.9,0.3-1.7,0.4-2.6c0.3-1.7,0.6-3.5,0.9-5.2c0.6-3.5,1.2-7,1.8-10.4c0.1-0.7,0.4-2.2,0.9-5.1
	c2.1-12.9,3.9-24.3,6.4-39.6l1.4-8.7c2-12-2,11.7,1.3-8.2c2.4-14.1,0.9-5.3,1.7-10.2c1.2-7,3.2-19.2,5.4-32.1
	C402.1,555.9,401.6,559.3,400.9,563.3z M415.5,417.8c-0.1,2.9-0.4,8.7-0.5,10.8C415.1,425.2,415.2,422.7,415.5,417.8z M430.5,434.8
	c-0.1-2.2-0.2-5.5-0.3-9.2C430.2,428.3,430.3,431.4,430.5,434.8L430.5,434.8z M80.6,678.9v0.3c-0.1,3.2,0,4.3-0.1,3.9
	C80.5,682.9,80.5,681.2,80.6,678.9z M81,665.5c0-1.3,0-1.2,0-0.7c0,0.9-0.1,4-0.2,7.4C80.8,671.2,80.8,669.5,81,665.5z M104.9,710.5
	l1.9,1.8c-2.2-2-2.9-2.8-3-2.8C103.9,709.6,104.3,710,104.9,710.5L104.9,710.5z"/>
<path class="st0" d="M429.6,409c0-0.8,0-1,0-1.2C429.5,406.7,429.5,406.6,429.6,409z"/>
<path class="st0" d="M385.8,655l-0.1,0.4l-0.1,0.5L385.8,655z"/>
<path class="st0" d="M240.5,757.5c2.8-0.1,4.3-0.2,5.3-0.3C246,757.1,244.7,757.3,240.5,757.5z"/>
<path class="st0" d="M83,594.4l-0.2,8.6c0.1-4.2,0.1-5.6,0.2-7.7C82.9,595.5,82.9,597.1,83,594.4z"/>
<path class="st0" d="M84.9,519.9c0-1.2,0.1-2.7,0.1-3.9v0.3C84.8,521.7,84.6,525.4,84.9,519.9z"/>
<path class="st0" d="M83.2,586.5c0-0.8,0.1-6.1,0.2-12.1v1.1C83.4,573.7,83.3,580.1,83.2,586.5z"/>
<path class="st0" d="M83.5,573c0-1.8,0.1-3.8,0.1-5.6C83.5,568.2,83.5,569.8,83.5,573z"/>
<path class="st0" d="M81.5,648.5c0.1-2.8,0-1.8,0.1-3.4C81.7,641.9,81,664.1,81.5,648.5z"/>
<polygon class="st0" points="83.3,581.6 83.2,583.8 83.2,587.2 "/>
<path class="st0" d="M82.2,629.2l0.3-9.6c0-0.2,0-1.1,0.1-2.6C82.4,622.9,82.2,628.9,82.2,629.2z"/>
<path class="st0" d="M82.5,617c0.1-3.1,0.1-6,0.2-7.7C82.7,610.9,82.6,614.5,82.5,617z"/>
<polygon class="st0" points="83.1,594.8 83,597.6 82.8,604.4 "/>
<path class="st0" d="M107.5,723c2.7,2.3,5.5,4.4,8.3,6.4c0.9,0.6-1.5-1-4.6-3.4C109.2,724.5,106.2,722,107.5,723z"/>
<path class="st0" d="M86.4,699.4c1.5,2.4,1.7,2.5,2.6,3.8l0.2,0.2C88.2,702.2,87.3,700.8,86.4,699.4z"/>
<path class="st0" d="M106.6,722.2c0.7,0.8,11.9,9.4,1.5,1.2C107.2,722.9,99.4,715.8,106.6,722.2z"/>
<polygon class="st0" points="256.7,756.3 254.1,756.5 254.4,756.5 "/>
<path class="st0" d="M385.5,708.5c-4.7,4-5.4,4.4-5.8,4.8s-0.8,0.7-5.4,3.9c-1.2,0.8,0.7-0.5,2.5-1.8c0.8-0.7,1.6-1.3,2.5-1.8
	C382.4,711.3,384.5,709.4,385.5,708.5C386.8,707.5,386.9,707.4,385.5,708.5z"/>
<path class="st0" d="M379.4,713.6l-3.1,2.3C378,714.6,378.9,714,379.4,713.6z"/>
<path class="st0" d="M15,256.9c-1.1-2.4-2.3-4.8-3.4-7.2l2.2,4.7L15,256.9z"/>
<path class="st0" d="M8.6,243l-0.7-1.7l-1.9-4.4C6.6,238.5,8,241.7,8.6,243z"/>
<path class="st0" d="M416.7,395.6V395c-0.1,1.2-0.2,3.1-0.4,6.8L416.7,395.6z"/>
<polygon class="st0" points="411.8,501 411.8,501 411.6,501 411.5,502.5 411.7,502.5 411.7,502.1 411.7,502.5 411.5,502.5 
	411.6,501 411.8,501 411.5,502.6 "/>
<path class="st0" d="M396.3,590.8c0.6-3.7,1.3-8,2-11.7C397,587.1,396.2,591.8,396.3,590.8z"/>
<path d="M450.5,212.4c-5.3,32.9-12.2,65.6-20.7,97.8c-4.2,16.3-9.3,32.3-15.2,48c-6,15.8-12.5,31.5-23.4,46.2l-0.2,0.3l-0.5,0.4
	c-9.4,8.8-19.6,16.6-30.4,23.6c-5.4,3.4-10.8,6.6-16.3,9.8c-5.7,2.8-11.2,6-17.1,8.6c-23.1,10.6-48,18.7-73.7,20.6
	c-6.4,1-12.8,0.7-19.2,0.7s-12.8,0.1-19.2-1c-6.4-0.8-12.7-1.5-19-2.4c-6.2-1.3-12.4-3-18.5-4.5l-9.2-2.5c-3-0.8-5.9-2.2-8.9-3.3
	c-5.9-2.2-11.7-4.7-17.5-7.1c-1.4-0.6-2.9-1.2-4.3-1.8l-4.1-2.3l-8.2-4.6c-5.4-3.2-10.7-6.3-16-9.6l1-2.1c6.1,1.5,12,3,17.9,4.6
	l8.7,2.5c2.9,0.9,5.8,1.6,8.8,2.2c5.9,1.2,11.9,2.2,17.7,3.6c2.9,0.5,5.8,1.4,8.8,1.7l8.9,1c23.4,3.8,47,3,70,1
	c23.3-2.1,46.2-7.2,68.1-15.3c5.5-2,10.8-4.6,16.2-6.9c5.3-2.5,10.5-5.3,15.7-8.1c10.1-5.7,19.8-12.3,28.8-19.7l-0.7,0.8
	c9.7-11.5,17.1-26.4,23.7-41.2s12.4-30.3,17.8-46s10.4-31.4,15-47.3s9-31.9,13-48L450.5,212.4z"/>
<path class="st0" d="M449.4,212.1c0.4,0.1,0.8,0.2,1.1,0.2C448.1,211.9,449.5,212.2,449.4,212.1z"/>
<polygon class="st0" points="442.4,234.3 442.5,233.9 441.6,237.3 "/>
<path class="st0" d="M436.3,256.1c0.6-2.2,2.2-7.9,3.3-11.8l0.2-0.6l0.5-1.8L436.3,256.1z"/>
<path class="st0" d="M432.9,267.7c0.2-0.7-0.7,2.5,0.8-2.7l-0.2,0.5L432.9,267.7z"/>
<path class="st0" d="M433.5,265.5"/>
<path class="st0" d="M430.4,276l0.9-3c-0.2,0.6-1,3.3-0.7,2.3C429.6,278.4,429.8,277.8,430.4,276z"/>
<path class="st0" d="M429.5,278.9l0.5-1.6C429.9,277.6,429.8,278,429.5,278.9z"/>
<path class="st0" d="M431,274l-1,3.3c0.1-0.4,0.1-0.5,0.5-1.5C430.4,276.1,430.6,275.5,431,274z"/>
<path class="st0" d="M431.6,272.2c0.5-1.7,1.2-3.9,0.3-0.9C433.6,265.6,433.3,266.4,431.6,272.2z"/>
<path class="st0" d="M436,257.2l0.7-2.3l0.5-2C436.9,254,436.1,257,436,257.2z"/>
<path class="st0" d="M424.5,294.7l0.4-1.2l0.7-2.2C425.2,292.4,424.5,294.5,424.5,294.7z"/>
<path class="st0" d="M424.9,293.5l-1.1,3.3C424.8,293.8,424.9,293.3,424.9,293.5z"/>
<polygon class="st0" points="429.4,279.5 431,274 429,280.5 "/>
<polygon class="st0" points="420.2,307.3 420.8,305.4 419.7,308.7 "/>
<path class="st0" d="M417.3,315.6c0.5-1.4-0.7,1.9-0.2,0.4c-0.8,2.2-1.5,4.2-2.1,5.9C415.7,320,416.4,318.1,417.3,315.6z"/>
<path class="st0" d="M413.9,324.8c0.3-0.9,0.7-1.9,1.1-2.9C414.6,322.9,414.3,323.8,413.9,324.8z"/>
<path class="st0" d="M421.9,302.4c-0.1,0.3-0.3,0.8-0.9,2.6l0.5-1.3L421.9,302.4z"/>
<path class="st0" d="M421.5,303.6L421.5,303.6l-1,2.8L421.5,303.6z"/>
<path class="st0" d="M422,302l-0.1,0.3L422,302z"/>
<path class="st0" d="M426.6,288.1c-0.6,2-1.9,6-0.7,2.1C426.5,288.8,425.7,291,426.6,288.1z"/>
<path class="st0" d="M422.6,300.5l1.2-3.5c0,0.1-0.2,0.7,0.1-0.3L422.6,300.5z"/>
<polygon class="st0" points="422,302.2 422.6,300.5 422.1,301.8 "/>
<path class="st0" d="M416.1,318.9l-1.8,5l2.2-6C416.6,317.6,416.9,316.7,416.1,318.9z"/>
<path class="st0" d="M418.8,311.5l-0.1,0.3C418.7,311.7,418.7,311.6,418.8,311.5z"/>
<path class="st0" d="M407.2,341.9l0.1-0.3v-0.1L407.2,341.9z"/>
<path class="st0" d="M416.6,317.5c0.5-1.5,0.8-2.4,1.2-3.2l-1.3,3.6c-0.7,1.7,0.1,3.6,1.8,4.4c1.7,0.7,3.6-0.1,4.4-1.8
	c0.7-1.7-0.1-3.6-1.8-4.4C419.2,315.4,417.4,316.1,416.6,317.5z"/>
<path class="st0" d="M412,329.8c0.3-0.8,0.6-1.6,1-2.6C412.7,328,412.1,329.5,412,329.8z"/>
<path class="st0" d="M418.5,312.3l0.1-0.2C418.4,312.6,418.4,312.5,418.5,312.3z"/>
<path class="st0" d="M418.5,312.3c-0.3,0.8-0.5,1.4-0.7,2l0.9-2.5L418.5,312.3z"/>
<path class="st0" d="M405,347.3c0.2-0.4,1.7-4.1,3.1-7.4s0.4-1.1-0.8,1.7c0,0.1,0,0.1-1.4,3.5c0.5-1.2,3.1-7.5,1.9-4.6
	c-1.8,4.5-1.5,3.7-2.4,5.8c0.8-1.8-2.4,5.7-2,4.7l1.7-3.9C405.2,347,404.6,348.4,405,347.3z"/>
<path class="st0" d="M409.9,335.2l0.5-1.4l-1.9,4.8l-1.2,3l2.8-6.9L409.9,335.2z"/>
<path class="st0" d="M412.9,327.5c-0.4,1.1-1.7,4.5-0.9,2.4c1.6-4.1,1.1-2.9,2-5.3C411.5,331.2,414.8,322.6,412.9,327.5l1.4-3.6
	c-0.5,1.2-0.9,2.4-1.3,3.4l0.1-0.1l0,0l0,0c0.1-0.3,0.2-0.4,0,0l-0.1,0.1L412.9,327.5c-0.8,2-0.2,0.3,0.1-0.3v-0.1l0,0l-2.5,6.6
	C411,332.4,411.7,330.6,412.9,327.5z"/>
<path class="st0" d="M424.8,293.8l-0.1,0.2C424.6,294.5,424.5,294.6,424.8,293.8z"/>
<path class="st0" d="M423.9,296.6c0.2-0.5,0.3-0.9,0.8-2.5c0.5-1.4,0,0,0-0.1c0.3-1,1.1-3.4,0.1-0.4l-0.2,0.5
	c-0.9,2.7-1.8,5.3-1.9,5.7C423,299,423.3,298.4,423.9,296.6z"/>
<path class="st0" d="M418.5,312.3l-2,5.6l1-2.8l-0.1,0.1C418.6,312,418.4,312.7,418.5,312.3z"/>
<polygon class="st0" points="407,342.5 407.2,341.8 406,345 "/>
<polygon class="st0" points="404,349.6 404.1,349.4 403.3,351.2 "/>
<path class="st0" d="M197.8,465.3l1.7,0.2L197.8,465.3z"/>
<path class="st0" d="M185.5,462.7l-0.3-0.1C185.8,462.7,186,462.8,185.5,462.7z"/>
<path class="st0" d="M254.4,443.3l-5,0.5l0.8,0L254.4,443.3z"/>
<path class="st0" d="M126.3,431.5l0.7,0.2l1.7,0.4C128,431.9,127.2,431.7,126.3,431.5z"/>
<path class="st0" d="M124.6,431.1l-3.2-0.8L124.6,431.1z"/>
<path class="st0" d="M266.3,466.1c0.7-0.1,1.3-0.2,2-0.3C265.2,466.3,266.5,466.1,266.3,466.1z"/>
<path class="st0" d="M358.1,408.9c-1.9,1.2-3.4,2-4.7,2.8C355.7,410.4,357.5,409.3,358.1,408.9z"/>
<path class="st0" d="M192.9,464.6l1.5,0.3L192.9,464.6z"/>
<path class="st0" d="M347.9,414.8l1-0.5c1.4-0.7,2.8-1.5,4.5-2.5l-2.7,1.5L347.9,414.8z"/>
<path class="st0" d="M431.2,304.3l0.1-0.5L431.2,304.3z"/>
<path class="st0" d="M447,233.3l-0.5,2.9C446.6,235.7,446.7,234.8,447,233.3z"/>
<path class="st0" d="M390.5,377.4C391.2,376,390.6,377.2,390.5,377.4z"/>
<path class="st0" d="M394.2,370.5l-0.3,0.6C394,370.9,394.1,370.7,394.2,370.5z"/>
<path class="st0" d="M333.5,422.2h-0.1C333.8,422.1,333.7,422.1,333.5,422.2z"/>
<path class="st0" d="M391.6,375.3l-1,1.8L391.6,375.3z"/>
<path class="st0" d="M391.5,375.6c0.3-0.5,0.5-0.9,0.7-1.2C392.2,374.2,392.2,374.3,391.5,375.6z"/>
<path class="st0" d="M389.2,379.4c0.5-0.8,0.9-1.5,1.3-2.3l-0.2,0.3C390.2,377.9,389.8,378.4,389.2,379.4z"/>
<path class="st0" d="M371.8,420.7l0.3-0.2C373.4,419.5,372.8,419.9,371.8,420.7z"/>
<path class="st0" d="M212,445.5L212,445.5z"/>
<path class="st0" d="M206.1,445.3l5.8,0.2l-1.9-0.1C208.7,445.4,207.4,445.4,206.1,445.3z"/>
<path class="st0" d="M227.8,468.4c-1.4,0-2.8,0-4.1-0.1c5,0.1,8.6,0.1,4.7,0.1c-0.3,0-4.3,0-8.3-0.3c-2-0.2-4-0.4-5.5-0.6l-2.7-0.3
	l-2.7-0.3l1.7,0.2l-10.6-1.3c-2.4-0.3-4-0.5-2.4-0.3c-0.9-0.1-1.8-0.2-2.6-0.4l-2.6-0.5c-1.5-0.3-1.1-0.3,0.4,0.1
	c-2.6-0.6-5.2-1.2-7.8-1.9h0.1l-4.9-1.2c-2-0.5,1,0.2,0.5,0.1l-4.3-1.1c-0.9-0.2-0.4-0.1,0.6,0.2l4.2,1c-2-0.5-2.9-0.8-4.4-1.1
	l-7.9-2.1l4.1,1.1l-4.5-1.2c-2-0.5-3.9-1.2-5.8-2c0.5,0.2,2.7,1.1,4.3,1.6s2.4,0.7,0.1,0.1c-1.8-0.6-3.6-1.2-5.4-2l-0.4-0.2
	l-1.1-0.5c-1-0.4-2.3-0.9-3.8-1.5l0.2,0.1l-4.8-2l-5.1-2.1c-5.7-2.3,3.9,1.6-2.8-1.1c-2.4-1-4.4-1.8-6.5-2.7c-2-1.1-4.1-2.3-6.8-3.8
	c-3.1-1.8,0.6,0.3-0.6-0.3l-2.8-1.5c-0.7-0.4-0.5-0.3-0.3-0.2c-2.3-1.3-0.2,0-3.8-2.2l-11.9-7.2c-1.1-0.7,0.5,0.3,0.2,0.1l-1.6-1
	l-0.7-0.4c-0.1-0.1-0.1,0,0-0.2l0.1-0.3c0.4-0.7,0.6-1.2,0.8-1.6l6.6,1.7l4.8,1.3c-3.5-0.9,1,0.2,5,1.2l-3.1-0.8
	c2.1,0.6,4.2,1.1,6.4,1.7c0.8,0.2,0.1,0-0.9-0.2l1.1,0.3c2.3,0.7,1.1,0.3-0.5-0.1c-0.8-0.2-1.5-0.5-2.3-0.6c-1.6-0.4-3-0.8-2.7-0.7
	l2.1,0.5l-0.5-0.1l1.9,0.5l1.4,0.4l0.4,0.1l8.2,2.4c1.5,0.4,2.9,0.8,4.4,1.2s3,0.6,4.6,0.9l11.7,2.3c-2.4-0.5-0.5-0.1-0.6-0.1
	l-12.4-2.5c2.6,0.5,2,0.4,1.4,0.3l8.8,1.8c-0.2,0,1.9,0.4,4.2,0.9c-0.9-0.2,0.8,0.1,3.1,0.6s5.3,1.2,7.1,1.5c-1.7-0.2-3.4-0.6-5-1
	c1.8,0.5,3.7,0.8,5.5,1.1l5.5,0.6l-2.1-0.2l5.1,0.6c0.7,0,1.4,0.1,2.1,0.3l-1.1-0.2c3.6,0.5,9.1,1.3,13.8,1.7s8.7,0.6,9.2,0.6
	c0.1,0-1,0-1.4,0c4.3,0.2,8.6,0.3,12.9,0.3c-1.1,0,3.2,0.1-2.8,0.1c1.7,0,3.9,0.1,7.5,0c-1.2,0-2.9,0-1.3,0c4.4,0,3.1,0,8.5-0.1
	c-1.8,0,0.2,0,3-0.2c-0.3,0-0.5,0.1-0.8,0.1c2.3-0.1,4.6-0.2,6.9-0.4c-1.7,0.1-0.3,0,1.2,0c-0.7,0,6-0.4,7.8-0.6l-2.9,0.2
	c7.8-0.6,7.7-0.6,15.5-1.5c-0.9,0.1-2.3,0.3,1.6-0.1c1.8-0.2,8-1.1,14.7-2.3l1.3-0.2c1.7-0.3,3.5-0.7,5.2-1c-1.6,0.3-4.7,1-8,1.5
	s-6.8,1.1-9.3,1.5l5.2-0.7c1.5-0.2-2.4,0.4-3.7,0.5c3.4-0.5,6.8-1,10.1-1.6c-0.5,0.1,7.7-1.5,7.3-1.5c-3.6,0.8-7.3,1.5-10.9,2.1
	c-0.5,0.1,6.3-1.1,13.4-2.6c1.8-0.4-1.3,0.3-1.2,0.3c0.9-0.2,6.7-1.5,7.3-1.7c-1,0.3-2,0.5-3,0.7c3.9-0.9,6.4-1.6,11.1-2.8
	c1.6-0.5,4.8-1.4,5.1-1.5c-2.6,0.8-3.2,0.8-1.4,0.3c0.6-0.2,8.4-2.6,10.2-3.2c2.6-0.9-3.9,1.4-1.7,0.6l2.1-0.8
	c1.7-0.6-0.7,0.3,2.9-1c0.6-0.2,7.3-2.7,1.7-0.6c3.5-1.3,3.7-1.3,7.8-3.1c-1.3,0.6,3.6-1.6,7-3.2c-0.2,0.1,0.6-0.2,1-0.4
	c1.6-0.7,3.1-1.4,4.7-2.3l4-2l8.2-4.3c0.6-0.3,3.6-2,2.3-1.3l3.6-2.2c3.7-2.2-4.2,2.5-1.4,0.9c0.2-0.2,4.9-3,7.5-4.7
	c-0.8,0.5-6.1,3.9-8.8,5.5l0.8-0.5l2.3-1.4c2-1.2,4.7-2.9,7.8-5c4.9-3.3,2.1-1.4,3-2c3.9-2.7,5.8-4.2,7.3-5.4s2.7-2.1,4.8-3.9
	l0.1,0.1l-0.7,0.7l-0.1-0.1l1.6-1.9c2.2-2.9,0.1-0.1,0.6-0.8c-0.8,1-1.5,1.9-2.2,2.7l0,0l0.7-0.7l0,0c-1.8,1.5-3.2,2.6-4.9,3.9
	c1.1-0.8,2.1-1.7,3.2-2.5c-1.2,1-3.7,3-5.1,4c1-0.8,3.7-2.8,6.8-5.4l0,0l-0.7,0.7l0,0c1.8-2.2,3.8-4.8,5.6-7.3s3.3-5.1,4.6-7.1
	c0.8-1.3,2.1-3.6,1.5-2.5l-1.4,2.3c-1.3,2.1,2.6-4.4,0.8-1.5c1.8-3.2,3.8-6.8,6.1-11.3l0.4-0.9c-0.1,0.2-1.5,3-2.2,4.3
	c1-1.9,3.6-7,4.5-9.2l-1.6,3.2c1.6-3.3,3.5-7.4,5.3-11.6l-1.8,3.9c0.6-1.3-0.6,1.4-1.8,3.8s-2.2,4.7-1.2,2.7c-1.5,3-2.5,5.2-4.6,9
	c0.1-0.1,0.8-1.3-1.1,2l-0.4,0.7l-0.1,0.2l0.1-0.2v-0.1c0.4-0.8,0.8-1.4,0.9-1.7c-0.9,1.7-3.9,7-5,8.7c-1.2,1.9,0.5-0.8-0.2,0.2
	c-0.5,0.9-1.1,1.7-1.7,2.6c-0.2,0.2-3.4,5-0.4,0.5c-0.9,1.3-1.8,2.7-2.8,3.9c-1.1,1.6-2.6,3.5-4,5.1l0.1,0.1l0.7-0.8l-0.1-0.1
	l-1.3,1.1c-1.8,1.4-4.5,3.6-2.9,2.3c-2,1.5-4,3-6,4.5h-0.1c-3,2.2-6.2,4.3-9.6,6.4c-1.7,1.1-3.4,2.1-5.2,3.2s-3.5,2.1-5.5,3.1
	l-8.2,4.3l-0.7,0.4c-1.4,0.7-3.6,1.9-5.5,2.8s-3.8,1.7-4.4,1.9c-1.6,0.7-5.1,2.3-9,3.8c-2,0.7-4,1.5-5.8,2.2l-4.9,1.7l-0.2,0.1
	c-3.7,1.2-7.3,2.3-11.9,3.6l0.3-0.1c-4,1.1-10.4,2.7-16.8,4l3.2-0.7c-7.7,1.7-16.3,3.2-23.4,4.1c-1.8,0.2-3,0.4-4.3,0.5l0.4,0
	l-0.7,0.1l-2.5,0.3l1.9-0.3c-1.4,0.2-3.4,0.4-5.5,0.6l-0.9,0.1h-0.5c-2,0.2-1.6,0.1-0.5,0.1l-2.7,0.3c-1.6,0.1-5.3,0.4-7.6,0.5
	c-1.4,0.1-10.2,0.6-11.3,0.6c-0.1,0-0.7,0,0.4,0c-2.3,0.1-4.5,0.2-6.6,0.2h-1h-5c-3,0-4.3,0-1.3,0c-7.2-0.1-5.9-0.1-12-0.3h0.3
	c-2.2-0.1-5.7-0.3-7-0.5c-2.5-0.2-8.5-0.8-15.5-1.9l-5.4-0.6c-1.8-0.2-3.7-0.3-5.5-0.7s-3.6-0.8-5.3-1.2l-4.9-1
	c2.4,0.5-5.8-1.2-6.2-1.2c-0.7-0.2-2.5-0.5-0.4-0.1c-6.3-1.3-9.5-1.7-13.8-3c-0.7-0.2,1.3,0.4,0.7,0.2s-2-0.6-2.6-0.8l1.9,0.5
	c-6.3-1.8-7-2-7.4-2.1c-3.2-1-4.8-1.3-7.2-1.9c-1.1-0.3-3-0.8,1,0.2l-13.8-3.6l-1-0.3l-0.7,1.5l-0.3,0.7c0.2,0.2,0.3,0.2,0.4,0.3
	l9.1,5.6l-1.2-0.7l7.1,4.3l-0.1-0.1c8.1,4.7,3.5,2,11.6,6.6l-0.4-0.3c0.6,0.7,7.5,3.4,12.4,5.4l-1.8-0.7l10.3,4.2l-1.8-0.7
	c7.1,2.9,0.9,0.4,6.3,2.5c0.7,0.4,1.5,0.7,2.3,1c1.7,1,10.8,3.2,15.8,4.6c-1.1-0.3-2.2-0.6,0.4,0.1c4,1,10.7,2.8,14.3,3.6l0.7,0.2
	c0.4,0.1,0.8,0.2,1.3,0.3l1.6,0.2l3.5,0.5l5.5,0.7L217,468c2.2,0.3,4.4,0.4,6,0.5l1.9,0.1h0.7c3.2,0.1,6.4,0.1,9.6,0H235
	c6.1,0,8.3,0,10.5,0c1.4,0,0.4,0,0.3,0c2.2-0.1,4-0.2,5.4-0.4c0.7-0.1,1.4-0.2,2-0.3l1.8-0.2c2.3-0.2,4.4-0.4,8.1-0.9l0.8-0.1l3-0.4
	c1.4-0.2,3.2-0.5,5.3-0.9c4-0.8,8.8-1.8,13.1-3l-0.9,0.2c4.8-1.2,10.5-2.9,15.4-4.5s9-3.2,10.6-3.9c2-0.8,4-1.6,6.1-2.5
	c-7.8,3.2,1.2-0.5-2.1,0.8c3.1-1.2,7.9-3.3,4.2-1.7l-0.6,0.2c-0.7,0.3,1.7-0.7,4.3-1.8s5.2-2.4,5.1-2.3c3.8-1.7,7.5-3.6,11.1-5.5
	c1.8-1,3.6-1.9,5.5-2.8l5.2-3.1l10.3-6.2c3.4-2.1,6.6-4.4,9.8-6.6l-1.5,1c1.5-1,3-2.1,4.4-3.2c1.1-0.8,1.6-1.1-1.6,1.2
	c0.8-0.6,2.1-1.6,3.2-2.4l2-1.6c6-4.7-2.3,1.8-0.5,0.4l2.5-1.9l-0.6,0.4c2-1.6,2.2-1.7,5.8-4.7l2-1.7l1.3-1.2
	c1.6-1.4,3.1-2.8,4.7-4.2l0.3-0.5l-0.3,0.5l-1.5,1.5c0.5-0.5,1.1-1,1.6-1.5c1.3-1.7,2-2.8,0.6-0.9l1.4-2l2-2.9
	c1.4-2.2,3.1-4.9,4.6-7.6c3.1-5.3,5.6-10.8,6.2-12c1.8-3.9,3.5-7.7,5.4-12.5c-0.5,1.2-0.8,1.9,0.9-2.3c-0.5,1.5,3-7.6,4.2-11
	c-0.6,1.5,0.5-1.5,1.5-4.3s1.8-5.4,1-3c1.2-3.5,0.1-0.2,1-2.9c2.8-8.5,6-18.7,8.9-29.3c0-0.2-0.4,1.6,0.2-0.7l1.5-5.6
	c0.5-2.1,0.5-1.9,1.5-5.8c-0.2,0.5-0.4,1.4,0-0.1c5.4-20.9,10.2-42.9,14.3-64.4c-0.6,2.9-0.2,1,0.2-1.2c-0.3,1.5,0,0-0.1,0.2l1.6-9
	c0.3-1.6,1.7-9.7,1.8-10.6l-0.5,2.9c0.6-3.8-1,5.3-0.9,4.8c-0.7,4.3-2,11.2-3.3,18.2c-0.3,1.5,0.2-1.3,0.1-0.5
	c-0.3,1.8-0.7,3.9-1.5,7.9l0.1-0.4c-2.2,11.1-3.3,15.8-6.1,28.2l0.2-0.9c-0.6,2.6-0.8,3.2-1,4.5c-0.7,3,1.7-7.5,1.1-4.7
	c-0.8,3.5-4.4,18.7-5.1,21.1c-0.8,3.1,0-0.2-0.7,2.9l-0.3,1.1l-0.2,1c-0.7,2.7-1.1,4-1.1,4.1c0.2-0.6,0.5-1.8,0.7-2.5
	c-0.9,3.5-2.6,9.7-2.9,10.9l1-3.9c-2.9,11.1-6.9,24.5-10.6,35l0.3-0.8c-1.4,4-2,5.6-2.6,7.3s-1.2,3.5-2.9,7.8l0.1-0.3
	c-0.7,1.7-1.6,4-2.5,6.4c0.9-2.2-1.7,4.1-0.5,1.2c-1.7,4.2-2.2,5.3-2.5,6s-0.4,1-1.7,3.8L406,379c-0.9,1.9-0.9,2-3,6.2
	c1.7-3.4-1.3,2.6,0.6-1.2c-2.8,5.7-6,11.1-9.5,16.3c-1.2,1.8,0,0.1,1.2-1.8s2.6-4.2,2-3.1c1.1-1.8-1.9,3.2-3.7,5.7
	c-0.9,1.3-1.6,2.3-2.7,3.8c-1.4,1.3-3.2,3-6.3,5.6l1.2-1.1c-2.2,1.9-4.3,3.8-7.2,6c-1.5,1.3-3.7,2.9-4.1,3.2
	c1.9-1.4,3.8-2.9,5.6-4.4c-3.2,2.6-6.2,4.9-11.6,8.8l3.2-2.3c-1.6,1.2-3,2.2-4.7,3.4c0.5-0.3,7.1-5,10.5-7.8c-1.6,1.3-6.6,5-4.8,3.7
	c-2.5,1.9-6.2,4.5-10.6,7.5l0.3-0.2c-0.7,0.5-2.1,1.5-3.5,2.2c0.8-0.5,1.6-1,2.3-1.5c-0.9,0.6-1.8,1.2-2.7,1.7l-2.7,1.6l-5.3,3.1
	c7.4-4.4,1.7-1,4.8-2.8l-7.3,4.4l-2.7,1.6c-0.6,0.3-1.3,0.8-2.2,1.3l-3.3,1.7c1.4-0.8,5.4-2.7,3.1-1.6c-2,1-4.7,2.4-5.9,3
	c-7,3.7,1.1-0.5-1.9,1c-2.4,1.2-3.4,1.8-6.5,3.3l0,0c-8.2,3.7-2.1,1-9.5,4.3l3.1-1.4l-3.9,1.7l0.8-0.4c-4.2,1.8-5.5,2.3-9.7,4
	c-1.4,0.6-2.8,1.2-4.3,1.6c-2.4,0.9,1.2-0.4-3.9,1.4c1.2-0.4,2.5-0.9,4.8-1.7l1.4-0.5c-2.7,1-6.9,2.5-8.8,3.1
	c0.8-0.2,1.6-0.5,2.1-0.7c-2.6,0.9-5.2,1.8-7.8,2.5c-1.2,0.4-0.2,0.1,0.7-0.2c-1.6,0.5-2.7,0.8-5,1.5l3.7-1.2
	c-1.2,0.4-2.5,0.8-3.7,1.1s-2.5,0.7-3.8,1l-2.9,0.7c-4.2,1-10.3,2.4-16,3.2l-2.1,0.3c-1.3,0.2-2.6,0.3-3.9,0.5s-2.6,0.3-3.9,0.4
	s-2.7,0.2-4.1,0.4s-2.9,0.3-4.5,0.5c-1.2,0.1-2.4,0.1-3.6,0.1c-5,0.1,4.9,0-3.4,0.1c-5.9,0-2.2,0-4.3,0c-2.9,0-8,0.1-13.4-0.1
	C224.7,468.4,226.1,468.4,227.8,468.4z M167.3,457.9l4.3,1.2L167.3,457.9z M135,434l-3.7-1L135,434z M380.5,392.3L380.5,392.3
	C378.7,394.5,379.3,393.7,380.5,392.3z M383.8,387.9c0.3-0.5,0.3-0.4,0.2-0.2s-1,1.3-1.8,2.5C382.5,389.8,382.8,389.2,383.8,387.9
	L383.8,387.9z M385.5,409.9l-0.8,0.7C386.5,409,386,409.4,385.5,409.9L385.5,409.9z"/>
<path class="st0" d="M124.8,431.2l-0.5-0.1C123.9,430.9,123.9,430.9,124.8,431.2z"/>
<path class="st0" d="M265.9,466.2h0.2h0.2H265.9z"/>
<path class="st0" d="M313.1,430.5l-2.1,0.7L313.1,430.5z"/>
<path class="st0" d="M398.2,362.4l-1.5,3.2l1.4-2.9C398,362.8,397.7,363.4,398.2,362.4z"/>
<path class="st0" d="M410.4,334.2l0.6-1.5l-0.1,0.1C410.1,334.9,409.5,336.4,410.4,334.2z"/>
<path class="st0" d="M399.6,359.5c0.1-0.2,1.1-2.3,2.1-4.5l-0.2,0.4C401.8,354.7,400.7,357.1,399.6,359.5z"/>
<path class="st0" d="M401.9,354.4l0.9-2.1C403,352.1,402.5,353.2,401.9,354.4z"/>
<path class="st0" d="M387.6,382l0.7-1.2c0.3-0.6-0.7,1.1-1.4,2.2S385.9,384.8,387.6,382z"/>
<polygon class="st0" points="400.5,357.7 400.1,358.5 399.5,359.8 "/>
<path class="st0" d="M391.8,375.2c0.6-1.2,1.3-2.3,1.9-3.5c0-0.1,0.2-0.4,0.5-0.9c-0.6,1.1-1.2,2.2-1.6,3L391.8,375.2z"/>
<path class="st0" d="M394.1,370.8c0.6-1.1,1.1-2.2,1.5-2.8C395.3,368.6,394.6,369.9,394.1,370.8z"/>
<path class="st0" d="M398.2,362.6l-0.5,1.1l-1.2,2.5C397.1,365,397.6,363.8,398.2,362.6z"/>
<path class="st0" d="M364.8,404.7c-1.2,0.8-2.4,1.6-3.6,2.4c-0.4,0.2,0.6-0.4,2-1.3C364,405.2,365.4,404.3,364.8,404.7z"/>
<path class="st0" d="M375.5,397c-0.9,0.7-1,0.8-1.5,1.2l-0.1,0.1L375.5,397z"/>
<path class="st0" d="M365.2,404.4c-0.3,0.3-5.2,3.5-0.7,0.5C364.9,404.7,368.5,402.2,365.2,404.4z"/>
<polygon class="st0" points="306.7,432.6 307.8,432.3 307.6,432.3 "/>
<path class="st0" d="M250.5,443.8c5.1-0.5,1.2-0.1,5.8-0.6c1.2-0.1-3.8,0.4-2.5,0.3C250.7,443.8,249.1,443.9,250.5,443.8z"/>
<path class="st0" d="M253.8,443.5l1.6-0.2L253.8,443.5z"/>
<polygon class="st0" points="449.1,221.4 449.6,218.2 449.3,220.3 "/>
<path class="st0" d="M450.1,215.2l0.1-0.8l0.3-2C450.5,213.2,450.2,214.6,450.1,215.2z"/>
<path class="st0" d="M158.8,454.7l-0.2-0.1c0.5,0.2,1.2,0.4,2.6,1L158.8,454.7z"/>
<polygon class="st0" points="201.9,465.9 201.1,465.8 202.6,466 "/>
<path class="st0" d="M239.2,468.4h-4.9C237.7,468.4,239.7,468.4,239.2,468.4z"/>
<path d="M68.3,33.9C64.8,43.9,61.2,54,57.5,64L46,94c-7.8,20-15.9,40.1-24.1,60.1l0.3-0.8c-5,19.9-6,43.6,3.8,58.9
	c4.7,7.6,12.3,12.7,21.5,15.4c4.2,1.5,10.2,2.4,15.6,3.6l16.6,3.2c44.5,8,89.4,15.5,134.8,18.5c22.7,1.5,45.5,1.8,68.1-0.1l8.5-0.6
	l8.5-1c5.6-0.7,11.3-1.3,16.8-2.5s11.2-2,16.7-3.2l16.4-4.2c5.4-1.5,10.7-3.5,16.1-5.2s10.4-4.3,15.6-6.4s10-5,14.9-7.5
	c2.4-1.4,4.7-2.9,7-4.4c2.4-1.4,4.6-2.9,6.8-4.6c8.7-6.1,16.2-13.8,22.1-22.7c1.5-2.1,2.5-4.5,3.8-6.6c1-2.2,1.9-4.6,2.7-6.9
	c0.7-2.3,1.3-4.6,1.6-7c0.1-1.1,0.3-2.3,0.3-3.4c0.1-0.9,0.1-1.7,0-2.6l-0.1-0.5l0.2-1.7c4.5-43.1,10.2-86.1,15.6-129l0.5-2.2
	l-0.2,0.7c0,0.1,0,0.1,0,0.1l0,0c0,0,0-0.1-0.1-0.1c0-0.1-0.2-0.2-0.4-0.5c-1.4-1.2-3-2.2-4.7-2.8c-5-1.9-11.7-2.9-18.6-3.2
	c-3.5-0.1-6.9-0.1-10.7-0.2h-11.5h-22.9c-30.6,0.1-61.2-0.5-91.8-1c-30.6-0.7-61.2-1.5-91.8-2.5c-30.6-1.1-61.2-2.4-91.8-4.2h-0.4
	c-4.3-0.6-8.6-0.8-12.9-0.7c-4.4,0.1-8.7,0.6-12.9,1.6c-4.1,0.9-8,2.6-11.3,5.2C71.4,25.9,69.1,29.7,68.3,33.9z M66,33.3
	c0.3-4.9,2.3-9.6,5.7-13.2c3.4-3.8,8-6.1,12.5-7.8c4.5-1.7,9.2-2.9,14-3.5c4.8-0.7,9.6-1.1,14.5-1h-0.4c30.6-1.8,61.2-3.1,91.8-4.2
	s61.2-1.9,91.8-2.5c30.6-0.4,61.2-1.1,91.8-1h22.9H422c3.9,0,8.2,0.2,12.3,0.5c8.4,0.7,17,1.9,26.2,5.7c4.6,2.1,9.6,4.8,13.9,10.2
	c2.2,2.9,3.8,6.2,4.6,9.7c0.4,1.8,0.6,3.7,0.6,5.6c0,1-0.1,1.9-0.2,2.9c-0.1,0.5-0.2,1-0.3,1.5c-0.2,0.7-0.3,1.4-0.6,2.1l0.5-2.2
	c-6.8,42.8-13.2,85.6-20.9,128.3v-2.2c0.1,2,0,4-0.2,6c-0.2,1.8-0.6,3.4-0.8,5.1c-0.8,3.2-1.8,6.4-3,9.5c-1.2,3-2.7,5.9-4.3,8.7
	c-1.8,2.6-3.3,5.5-5.4,7.9c-7.6,9.7-16.9,17.8-27.5,24.2c-20.3,13-43,19.6-65.3,25.5c-22.5,5.6-45.4,8.6-68.3,11
	c-11.5,1.2-23,1.9-34.5,2.7c-11.5,0.4-23,1.1-34.6,1.2c-46.1,1-92.5-1.3-138.2-9.2l-17.1-3.2c-5.8-1.3-11.1-2.2-17.7-4.5
	c-3.3-0.9-6.4-2.1-9.3-3.8c-3-1.7-6.2-2.9-8.8-5.4c-5.6-4.2-10.4-9.4-14-15.5c-7.2-12-9.1-25.6-9-38c0.2-12.4,2.4-24.7,6.4-36.5
	l0.2-0.5l0.1-0.3c9.3-19,18.9-38.1,28.7-57.1l15-28.5C55.5,52.2,60.7,42.8,66,33.3L66,33.3z"/>
<path class="st1" d="M68.3,33.9C64.8,43.9,61.2,54,57.5,64L46,94c-7.8,20-15.9,40.1-24.1,60.1l0.3-0.8c-5,19.9-6,43.6,3.8,58.9
	c4.7,7.6,12.3,12.7,21.5,15.4c4.2,1.5,10.2,2.4,15.6,3.6l16.6,3.2c44.5,8,89.4,15.5,134.8,18.5c22.7,1.5,45.5,1.8,68.1-0.1l8.5-0.6
	l8.5-1c5.6-0.7,11.3-1.3,16.8-2.5s11.2-2,16.7-3.2l16.4-4.2c5.4-1.5,10.7-3.5,16.1-5.2s10.4-4.3,15.6-6.4s10-5,14.9-7.5
	c2.4-1.4,4.7-2.9,7-4.4c2.4-1.4,4.6-2.9,6.8-4.6c8.7-6.1,16.2-13.8,22.1-22.7c1.5-2.1,2.5-4.5,3.8-6.6c1-2.2,1.9-4.6,2.7-6.9
	c0.7-2.3,1.3-4.6,1.6-7c0.1-1.1,0.3-2.3,0.3-3.4c0.1-0.9,0.1-1.7,0-2.6l-0.1-0.5l0.2-1.7c4.5-43.1,10.2-86.1,15.6-129l0.5-2.2
	l-0.2,0.7c0,0.1,0,0.1,0,0.1l0,0c0,0,0-0.1-0.1-0.1c0-0.1-0.2-0.2-0.4-0.5c-1.4-1.2-3-2.2-4.7-2.8c-5-1.9-11.7-2.9-18.6-3.2
	c-3.5-0.1-6.9-0.1-10.7-0.2h-11.5h-22.9c-30.6,0.1-61.2-0.5-91.8-1c-30.6-0.7-61.2-1.5-91.8-2.5c-30.6-1.1-61.2-2.4-91.8-4.2h-0.4
	c-4.3-0.6-8.6-0.8-12.9-0.7c-4.4,0.1-8.7,0.6-12.9,1.6c-4.1,0.9-8,2.6-11.3,5.2C71.4,25.9,69.1,29.7,68.3,33.9z M66,33.3
	c0.3-4.9,2.3-9.6,5.7-13.2c3.4-3.8,8-6.1,12.5-7.8c4.5-1.7,9.2-2.9,14-3.5c4.8-0.7,9.6-1.1,14.5-1h-0.4c30.6-1.8,61.2-3.1,91.8-4.2
	s61.2-1.9,91.8-2.5c30.6-0.4,61.2-1.1,91.8-1h22.9H422c3.9,0,8.2,0.2,12.3,0.5c8.4,0.7,17,1.9,26.2,5.7c4.6,2.1,9.6,4.8,13.9,10.2
	c2.2,2.9,3.8,6.2,4.6,9.7c0.4,1.8,0.6,3.7,0.6,5.6c0,1-0.1,1.9-0.2,2.9c-0.1,0.5-0.2,1-0.3,1.5c-0.2,0.7-0.3,1.4-0.6,2.1l0.5-2.2
	c-6.8,42.8-13.2,85.6-20.9,128.3v-2.2c0.1,2,0,4-0.2,6c-0.2,1.8-0.6,3.4-0.8,5.1c-0.8,3.2-1.8,6.4-3,9.5c-1.2,3-2.7,5.9-4.3,8.7
	c-1.8,2.6-3.3,5.5-5.4,7.9c-7.6,9.7-16.9,17.8-27.5,24.2c-20.3,13-43,19.6-65.3,25.5c-22.5,5.6-45.4,8.6-68.3,11
	c-11.5,1.2-23,1.9-34.5,2.7c-11.5,0.4-23,1.1-34.6,1.2c-46.1,1-92.5-1.3-138.2-9.2l-17.1-3.2c-5.8-1.3-11.1-2.2-17.7-4.5
	c-3.3-0.9-6.4-2.1-9.3-3.8c-3-1.7-6.2-2.9-8.8-5.4c-5.6-4.2-10.4-9.4-14-15.5c-7.2-12-9.1-25.6-9-38c0.2-12.4,2.4-24.7,6.4-36.5
	l0.2-0.5l0.1-0.3c9.3-19,18.9-38.1,28.7-57.1l15-28.5C55.5,52.2,60.7,42.8,66,33.3L66,33.3z"/>
<path class="st0" d="M65.2,34.6c0.9-1.7,0.6-1.1,0.7-1.3C64.5,36,65.3,34.5,65.2,34.6z"/>
<polygon class="st0" points="50.2,62.2 50.5,61.7 48.3,65.8 "/>
<path class="st0" d="M36.5,88.2l7.4-14.1l0.4-0.8l1.1-2.1L36.5,88.2z"/>
<path class="st0" d="M29.4,102.2c0.4-0.9-1.5,3,1.6-3.3l-0.3,0.6C30.5,100.1,30,100.9,29.4,102.2z"/>
<path class="st0" d="M30.7,99.6C32.1,96.8,29.8,101.4,30.7,99.6z"/>
<path class="st0" d="M24.3,112.3l1.8-3.6c-0.4,0.8-2,4-1.4,2.8C22.8,115.2,23.2,114.5,24.3,112.3z"/>
<path class="st0" d="M22.6,115.8l1-1.9C23.4,114.2,23.1,114.7,22.6,115.8z"/>
<path class="st0" d="M25.5,109.9l-2,4c0.3-0.5,0.3-0.6,0.9-1.8L25.5,109.9z"/>
<path class="st0" d="M26.7,107.6c1-2,2.4-4.7,0.5-1C30.7,99.6,30.2,100.7,26.7,107.6z"/>
<path class="st0" d="M35.8,89.6l1.4-2.7l1.2-2.4L35.8,89.6z"/>
<path class="st0" d="M12.9,135l0.8-1.5l1.4-2.7C14.3,132.2,13,134.8,12.9,135z"/>
<path class="st0" d="M13.6,133.6l-2,4C13.5,134,13.8,133.3,13.6,133.6z"/>
<polygon class="st0" points="22.3,116.5 25.6,109.8 21.6,117.8 "/>
<path class="st0" d="M5.6,150.6l0.8-2.4c-0.5,1.4-0.9,2.9-1.4,4.4L5.6,150.6z"/>
<path class="st0" d="M2.6,161.7c0.4-1.9-0.5,2.5-0.1,0.6c-0.6,3-1.1,5.7-1.4,8C1.5,167.8,1.9,165.1,2.6,161.7z"/>
<path class="st0" d="M0.6,174.3c0.1-1.3,0.3-2.6,0.5-4C0.9,171.6,0.7,173,0.6,174.3z"/>
<path class="st0" d="M8.2,144.5c-0.2,0.3-0.5,0.9-1.6,3.1v0v0l0.8-1.5L8.2,144.5z"/>
<polygon class="st0" points="7.4,146 7.4,146.1 6.6,147.6 5.9,149.6 6.6,147.6 "/>
<path class="st0" d="M8.4,144l-0.2,0.4L8.4,144z"/>
<path class="st0" d="M16.9,127c-1.2,2.4-3.7,7.3-1.2,2.5C16.5,127.9,15.2,130.6,16.9,127z"/>
<path class="st0" d="M9.4,142.1l2.1-4.3c0,0.1-0.4,0.9,0.1-0.3L9.4,142.1z"/>
<polygon class="st0" points="8.3,144.2 9.4,142.1 8.6,143.7 "/>
<path class="st0" d="M1.8,166.1c-0.3,2-0.7,4.3-1,6.8c0.3-2.7,0.7-5.5,1.2-8.2C2.1,164.4,2.3,163.3,1.8,166.1z"/>
<path class="st0" d="M4,156.2l-0.1,0.5C3.9,156.5,3.9,156.4,4,156.2z"/>
<path class="st0" d="M0.8,198.1l0-0.4v-0.1L0.8,198.1z"/>
<path class="st0" d="M2.1,164.4c0.4-2,0.7-3.2,0.9-4.4c-0.4,1.5-0.7,3.1-1,4.8C2,165,2,165,2.1,164.4z"/>
<path class="st0" d="M0.1,181.3c0-1.1,0.1-2.3,0.2-3.6C0.2,178.8,0.1,180.9,0.1,181.3z"/>
<path class="st0" d="M3.7,157.3l0.1-0.3C3.6,157.7,3.6,157.6,3.7,157.3z"/>
<path class="st0" d="M3.7,157.3c-0.2,1-0.5,1.8-0.6,2.6c0.3-1.2,0.6-2.4,0.8-3.3L3.7,157.3z"/>
<path class="st0" d="M2.2,205.6c-0.8-3.4-1.4-6.8-1.7-10.3c-0.2-2.3-0.2-2.7-0.2-2s0.2,2.4,0.4,4.4c0.1,0.1-0.1,0.2,0.8,4.8
	c-0.2-0.8-0.6-3.4-0.8-5.3s-0.3-3.1-0.1-1.1c0.3,2.7,0.7,5.4,1.3,8.1c-0.3-1.3,0.1,0.7,0.7,2.8s1.3,4.3,1.1,3.6
	c-0.6-1.8-1.1-3.5-1.5-5.3C2.1,205.1,2.6,207.1,2.2,205.6z"/>
<path class="st0" d="M0.1,188.7l0-2c0,2.2,0.1,3.8,0.3,6.7c0.3,3.2,0.4,3.9,0.4,4.1c-0.4-3.2-0.6-6.4-0.7-9.6L0.1,188.7z"/>
<path class="st0" d="M0.3,178c-0.1,1.5-0.3,6.2-0.2,3.3s0.2-3.9,0.3-4.6s0.1-1.1,0.3-2.8C-0.1,183.1,0.9,171.3,0.3,178
	c0.1-1.9,0.3-3.5,0.5-5.1c-0.2,1.6-0.3,3.2-0.5,4.8v-0.2l0,0l0,0c0-0.4,0-0.5,0-0.1v0.2L0.3,178c-0.2,2.7,0,0.4,0-0.4v-0.1
	c-0.2,3.1-0.4,6.2-0.3,9.2C0,184.8,0,182.3,0.3,178z"/>
<path class="st0" d="M13.5,134l-0.1,0.3C13.1,134.8,13,135,13.5,134z"/>
<path class="st0" d="M11.8,137.4c0.3-0.6,0.6-1.1,1.5-3.1c0.9-1.7,0,0,0-0.1c0.6-1.2,2.1-4.1,0.2-0.4l-0.3,0.6l-3.5,7L11.8,137.4z"
	/>
<path class="st0" d="M3.7,157.3c-0.6,2.5-1.2,5-1.7,7.5c0.2-1.3,0.5-2.6,0.8-3.8v0.2C3.8,157,3.6,157.8,3.7,157.3z"/>
<path class="st0" d="M0.9,199l-0.1-1c0.1,0.7,0.2,1.5,0.3,2.2s0.2,1.5,0.4,2.2C1.2,201.2,1.1,200.1,0.9,199z"/>
<polygon class="st0" points="3,208.8 2.9,208.4 3.7,210.9 "/>
<path class="st0" d="M465.7,120l0.4-2.2L465.7,120z"/>
<path class="st0" d="M463,136.1l-0.1,0.4C463,135.8,463.1,135.5,463,136.1z"/>
<path class="st0" d="M228.9,263.8c3.3-0.1,7-0.3,6.6-0.3h-1L228.9,263.8z"/>
<path class="st0" d="M393.9,235.6l-0.9,0.4l-2.1,0.8C391.8,236.4,392.8,236,393.9,235.6z"/>
<path class="st0" d="M396,234.6c1.3-0.5,2.6-1.2,4-1.8C399,233.2,397.8,233.9,396,234.6z"/>
<path class="st0" d="M479,36.1c0.2-0.9,0.3-1.7,0.4-2.6c-0.1,0.7-0.2,1.4-0.3,2.1c-0.1,0.4-0.1,0.6-0.1,0.6L479,36.1z"/>
<path class="st0" d="M86,256.6l7,1.1L86,256.6z"/>
<path class="st0" d="M464.8,126.4c0.2-1.4,0.3-1.8,0.3-1.9C464.8,125.9,464.7,126.7,464.8,126.4z"/>
<path class="st0" d="M101.2,258.8l-1.5-0.2l-6.6-0.9L101.2,258.8z"/>
<path class="st0" d="M175.2,4.9h-0.7H175.2z"/>
<path class="st0" d="M82.2,12.9c0.9-0.4,2.3-0.9,3.6-1.4C85.2,11.8,84.1,12.2,82.2,12.9z"/>
<path class="st0" d="M26.3,240.5C24.5,239.4,26,240.4,26.3,240.5z"/>
<path class="st0" d="M18.3,234.1l0.6,0.6L18.3,234.1z"/>
<path class="st0" d="M122.2,261.1h0.2C121.8,261,121.9,261,122.2,261.1z"/>
<path class="st0" d="M23.7,238.7c0.7,0.6,1.4,1.1,2.2,1.6C25.1,239.8,24.4,239.3,23.7,238.7z"/>
<path class="st0" d="M24,239c-0.6-0.5-1-0.9-1.4-1.2C22.4,237.7,22.6,237.8,24,239z"/>
<path class="st0" d="M28.9,242c-1.1-0.5-2.1-1.1-3-1.6l0.4,0.2C26.9,240.9,27.6,241.3,28.9,242z"/>
<path class="st0" d="M348.9,0.5h-0.4C346.3,0.5,347.2,0.5,348.9,0.5z"/>
<path class="st0" d="M283.9,260h-0.2H283.9L283.9,260z"/>
<path class="st0" d="M291.5,259.2c-3.2,0.4-5.1,0.6-7.5,0.8l2.5-0.2L291.5,259.2z"/>
<path class="st0" d="M471.9,81.3l-0.8,5.3c1-6.4,1.7-11,0.9-6c-0.2,1.5-3.1,19.8-3.3,21.3l-0.6,3.5c0.2-1,0.2-1.2,0.3-2.1
	c-1.1,6.8-0.8,5.1-2.2,13.8c-0.5,3-0.8,5.2-0.5,3.1l-1.1,6.8c-0.3,2-0.3,1.5,0.1-0.5l-1.7,10.3v-0.1c-0.2,1.5-0.8,4.8-1.1,6.4
	c-0.5,2.6,0.2-1.3,0.1-0.6l-1,5.7c-0.4,2.3,0.4-2.4,1.1-6.4c-1,5.5-0.8,4.8-2.8,16.2l0.9-5.4c-0.5,2.8-1.1,6.1-1.9,10.5l0,0
	c0.3-1.4,0.6-3.1,0.7-4s0.2-1-0.2,1.2l-0.5,3l0,0.3v-0.3v-1h-0.1l0,1.1v0.6c0,0.4,0,0.9,0,1.6s-0.1,1.5-0.2,2.4
	c-0.1,1-0.2,1.9-0.4,2.9v-0.3c-0.4,2.2-0.6,3.2-0.8,4s-0.3,1.3-0.7,2.6c-0.7,2.4-1.3,3.8-1.6,4.8s-0.6,1.5-0.8,2
	c-3.3,7.2,2.4-5-1.7,3.6l-2.2,4.1c-0.8,1.2-1.6,2.5-2.4,3.7c-1.9,2.8-3.9,5.5-6.2,8c-3.1,3.5,0.5-0.6-0.6,0.6c-0.9,1-1.8,2-2.8,3
	c-0.7,0.7-0.5,0.5-0.4,0.4c-1.2,1.2-1.3,1.3-1.5,1.5s-0.6,0.6-2.6,2.5c-0.5,0.5-2.6,2.4-5.3,4.5s-6.1,4.5-8.9,6.4
	c-1.4,0.9,0.7-0.4,0.2-0.2c-4,2.5-5.6,3.5-7.2,4.4s-2.9,1.7-6.3,3.5c-1.9,1-3.9,2-5.8,2.9c2.2-1,1.9-0.9,0.4-0.2l-2.8,1.3l-3.6,1.6
	c1.5-0.7,2.9-1.2,3.8-1.6c-2.6,1.2-5.2,2.3-7.8,3.3c-1,0.4-0.2,0,1.1-0.5l-1.5,0.6c-2.8,1.1-1.4,0.5,0.7-0.3l2.9-1.1
	c1.9-0.8,3.7-1.6,3.3-1.5l-2.6,1.1c0.5-0.2,0.8-0.4,0.6-0.3s-1.1,0.5-2.4,1l-1.8,0.7l-0.4,0.2c-3.5,1.3-7,2.6-10.5,3.8
	c-7.6,2.5-14.2,4.6-26.5,7.8c3-0.8,0.7-0.2,0.8-0.3c3.3-0.9,9.5-2.5,15.8-4.4c-3.3,1-2.6,0.7-1.7,0.5c-3.7,1.1-7.5,2.1-11.3,3.2
	l-5.4,1.4c1.1-0.2-1,0.3-4,1s-6.8,1.5-9.2,2c-0.3,0,0.8-0.2,6.5-1.4c-6.3,1.4-8.1,1.8-14.3,2.9l2.7-0.5c-3.2,0.7-11.2,2-9.4,1.7
	l1.4-0.2c-4.6,0.8-11.7,1.9-17.8,2.7s-11.2,1.4-11.9,1.5l1.8-0.2c-5.6,0.7-11.1,1.4-16.7,1.9c1.5-0.2-4.2,0.3,3.6-0.4
	c-2.2,0.2-5,0.5-9.7,0.9c1.5-0.1,3.8-0.3,1.7-0.1l-11,0.8c2.3-0.2-0.2,0.1-3.9,0.3c0.6,0-0.3,0,1-0.1l-9,0.7c2.2-0.2,0.4,0-1.6,0.1
	c0.5,0-1.5,0.2-3.8,0.2l-6.3,0.2l3.8-0.1c-10.2,0.4-10,0.5-20.2,0.9c1.2-0.1,3-0.1-2.1,0c-2.3,0.1-10.4,0.3-19.4,0.4h-1.7h-6.9
	c2.1,0,6.2-0.1,10.5-0.1l12.3-0.2l-6.8,0.1c-2,0,3.1-0.1,4.8-0.1c-4.4,0-8.9,0.2-13.3,0.2c0.3,0-2.2,0-4.8,0.1h-4.9
	c4.8,0,9.6,0,14.4-0.1c0.6,0-8.4,0.2-17.8,0.1c-2.4,0,1.8,0,1.6,0c-1.2,0-8.9-0.1-9.8-0.1h4c-5.2-0.1-8.5-0.1-14.9-0.3l-6.9-0.2
	c3.5,0.1,4.2,0.2,1.9,0.2c-0.8,0-11.4-0.5-13.9-0.6c-3.6-0.2,5.4,0.2,2.3,0.1l-2.9-0.2l-4-0.2c-0.8,0-10.1-0.7-2.3-0.1
	c-4.8-0.4-5.1-0.3-10.8-0.8c1.8,0.1-5.1-0.3-10-0.8c0.3,0-0.8-0.1-1.3-0.1c-9.9-1-15.2-1.6-24.4-2.9c-0.8-0.1-5.3-0.7-3.4-0.5
	c-1.3-0.2-2.5-0.4-5.4-0.8c-5.5-0.8,6.3,1,2.1,0.3c-0.4,0-7.3-1.1-11.3-1.8c0.6,0.1,2.9,0.5,5.6,0.9l7.7,1.1l-1.2-0.2l-3.5-0.5
	c-3-0.4-7.1-1.1-11.9-1.9c-7.6-1.4-3.3-0.6-4.6-0.9c-14.2-2.7-12.2-2.1-23.9-4.8c-4.6-1.3-0.2-0.1-1.2-0.4c3,0.8,5.4,1.3,7.5,1.8
	s4,0.9,6.1,1.3c-1.7-0.3-3.4-0.7-5.1-1.1l4,0.9l4.3,0.8c-2-0.4-8-1.5-14.8-3.1c-6.8-1.8-14.4-4.1-19.1-7.2c-0.9-0.5-2.1-1.1-2.9-1.5
	s-1.2-0.7-0.5-0.3c1,0.6,2.1,1.1,3.1,1.7c1.4,0.8,0,0-1.4-0.7s-2.5-1.4-0.6-0.3c-1.1-0.6-2.1-1.2-3.1-1.9c-0.5-0.4-1-0.8-1.5-1.2
	s-1.1-0.8-1.6-1.2c-2.4-1.9-4.6-4-6.6-6.3c-0.3-0.3-0.5-0.6-0.8-1c1.3,1.6,2.8,3.1,4.3,4.5c-3.2-3-6.1-6.5-8.4-10.2
	c0.8,1.3,1.7,2.6,2.7,3.9c-3.3-4.4-6-9.3-8-14.5c1,2.5,0.4,1.3,2.2,5.1c-0.8-1.6,0.8,1.8,2.6,4.8s3.9,5.5,2.1,3.2
	c1.2,1.6,2.4,3.2,3.8,4.7c1.6,1.7,3.3,3.4,5.1,4.9l-0.3-0.3c0.1,0.1,0.7,0.6,2.7,2.1c0.3,0.2,0.6,0.4,0.8,0.7
	c0.1,0.1,0.2,0.2,0.3,0.2l-0.2-0.2c0.2,0.1,0.2,0.2-0.1-0.1c-0.9-0.8-1.7-1.3-2-1.6c1.6,1.4,3.4,2.7,5.2,3.8
	c2.3,1.3,4.7,2.4,5.8,3.1c2.6,1.4-1.1-0.6,0.3,0.2c1.2,0.6,2.4,1.2,3.6,1.6c0.3,0.2,7.4,2.5,0.8,0.3c2,0.7,4,1.3,5.9,2
	c3.8,1.2,7.6,2.2,11.5,2.9l4.4,0.9c1.1,0.2,1.6,0.3,0.4,0.1l9.6,1.8h0.1c9.5,1.8,19.6,3.4,30.6,4.9c3.2,0.4,6.6,0.8,12,1.5l1.1,0.1
	c4.1,0.5,12.5,1.3,14.3,1.4c2.2,0.2,7.3,0.7,12.7,1s11.2,0.7,14.9,0.9h0.3l7.6,0.3l8.5,0.3h-0.4c5.4,0.1,13.9,0.3,22.5,0.3h-4.3h7.8
	l8-0.1l15.1-0.3l5.6-0.2h-0.6h1l3.2-0.1l-2.7,0.1l7.1-0.3h1.1h0.6c2.6-0.1,2.1-0.1,0.7,0l3.5-0.2l9.8-0.4l14.7-1.1h-0.6l8.5-0.6
	l1.2-0.1l6.4-0.6c3.9-0.4,5.5-0.5,1.7-0.1c9.3-1,7.6-0.8,15.5-1.7l-0.4,0.1l9.1-1.1c3.2-0.4,11-1.5,20-3s19.3-3.6,27.2-5.6
	c-3.1,0.8,7.4-2,8-2.2c0.9-0.2,3.1-0.9,0.6-0.1c8.1-2.3,12.1-3.5,17.6-5.3c0.9-0.3-1.7,0.6-0.9,0.3l3.3-1.1c0.8-0.3-1.2,0.4-2.4,0.8
	c8.1-2.8,8.8-3.2,9.4-3.4c4-1.5,6-2.4,8.9-3.7c1.4-0.6,3.7-1.6-1.2,0.5c1.4-0.6,5.5-2.5,9.3-4.4c1.9-1,3.7-1.9,5-2.7l2.3-1.3
	c0.8-0.5,3.6-2.2,4.2-2.6c2.9-1.7,4.4-2.8,5.9-3.8s3-2.1,5.5-4.1l-1.5,1c2-1.6,4.3-3.4,8.2-7l-0.1,0.1c2.2-2.1,3.5-3.4,4.3-4.4
	s1.3-1.4,1.7-1.9s0.9-1,1.7-1.9c0.4-0.5,0.9-1.1,1.5-1.8s1.4-1.7,2.3-2.9l-0.4,0.5c0.3-0.4,1.8-2.7,3.6-5.5c1.9-3.1,3.6-6.4,4.9-9.8
	c-0.3,0.8-0.6,1.6-1,2.3c0.7-1.8,1.8-4.2,2.6-6.8c0.4-1.3,0.8-2.6,1.1-3.8c0.2-0.6,0.3-1.1,0.4-1.7c0.1-0.5,0.2-1.1,0.3-1.5
	c0.2-0.8-0.3,1.3-0.5,2.4c0.5-2.5,0.7-3.8,0.8-4.5s0.1-0.8,0.1-0.8s0,0.1,0-0.3s0.2-1.2,0.2-3.1c0-0.6,0-0.3,0-0.3s0,0,0-0.4
	s0-0.9,0-1.8h-0.2c0,0.2,0,0.5,0,0.9v1.1l0.1,0.2c0,0,0.1-0.1,0.1-0.2c0.8-4.5,2.4-13.8,3.4-19.5c-0.3,1.5-0.5,3,0-0.5
	c0.9-5.2,2.4-14.1,3.2-18.9c0.1-0.6,0.2-0.9,0.2-0.9c0.7-4,2.1-13,2.5-15.4c0.7-4,3.7-23.3,4-24.8l1.9-12.3v0.3
	c1.2-7.9,1.7-10.7,2.1-13.4c0.3-1.8,0.1-0.5,0.1-0.3c1.8-11.5,2-12.6,3.5-22.2H479v0.1l-0.3,1l-0.2,1.1h0.1c0.1-0.5,0.3-1.1,0.5-1.9
	s0.3-1.6,0.4-2.6c0.2-2.2,0.1-4.5-0.3-6.7c-1-5.3-3.7-10.1-7.6-13.7c0.1,0.1,0.3,0.2,0.9,0.9C468.1,9.6,461,6,454.6,4.2
	c-4.7-1.4-9.5-2.4-14.4-3c-2.8-0.3-5.6-0.7-8.5-0.7c11,0.7-1.6-0.1,2.9,0.2c-4.3-0.2-11.2-0.5-5.8-0.3h0.8c1,0-2.4-0.1-6.1-0.2
	s-7.4,0-7.3-0.1c-10.8,0-21.5-0.1-32,0l-31,0.3h2.3l-7.1,0.1c-1.8,0-2.5,0,2.5,0l-8.6,0.1c-9.9,0.1,3.8-0.1,0.8,0l-4.1,0.1h0.9
	l-9.7,0.1H327h-2.3l-8.9,0.1h3.6c-4,0.1-8.4,0.1-4.3,0.1L295.7,1l-17.6,0.5L260.4,2c1.7,0,2.7,0-3.1,0.1c2.1-0.1-10.7,0.3-15.4,0.4
	c4.2-0.1-16.6,0.5-10,0.3l-4,0.1l-18.9,0.5L204,3.5l-5.2,0.2l-10.6,0.5c-0.2,0,2.2-0.1-0.9,0.1l-7.5,0.3L171.9,5
	c0.7,0,1.8-0.1-0.1,0l-59.6,2.7v0.1h0.4V7.7c-4.3-0.1-8.6,0.2-12.8,0.7c-4.2,0.5-8.3,1.4-12.4,2.6c3.7-1.1,1.2-0.4-1.6,0.5
	c1.8-0.6,0,0,0.3-0.1c-3.8,1.2-7.4,2.9-10.7,5.2c-2,1.4-3.8,3.2-5.3,5.1c-1.3,1.8-2.4,3.8-3.1,5.9c0.4-1.2,0.9-2.4,1.5-3.5
	c-0.6,1.1-0.6,1.3-0.5,0.9c0.4-0.8,0.8-1.5,1.3-2.2c0.9-1.3,1.9-2.5,3-3.6c2.6-2.5,5.6-4.4,8.8-5.8c4.1-1.8,8.3-3.1,12.7-4
	c2-0.4-1.7,0.4-0.6,0.1c3.4-0.7,6.8-1.2,10.3-1.5l-0.6,0.1c3.2-0.3,6.4-0.4,9.6-0.4V7.7h-0.4v0.1l27.4-1.2h-1.2l6-0.3
	c4.1-0.2-10,0.4-6.2,0.3l28.2-1.2l3.9-0.2l1.4-0.1L173,5l5.5-0.2l-3.4,0.2l14.6-0.7l-5.2,0.2l11.7-0.5c4-0.2,8.1-0.4,12.2-0.5
	L232,2.8h-1.1l20.8-0.6h-0.4l8.9-0.2c-3,0.1,5.7-0.1,1.7,0l13.8-0.4h1.8l8.9-0.3c-4.9,0.1,3.8-0.1-1.7,0.1
	C297.4,1,303.5,1,309.3,0.9S298.4,1,301.6,1c-2.7,0,4.8-0.1,8.8-0.1l17-0.1h-2.1l12.1-0.1l6.8-0.1l-9.3,0.1l18.9-0.2l-5,0.1l7.5-0.1
	l-17,0.2c2.7,0,10.7-0.1,7.9-0.1l16.9-0.2h-0.5l5.3-0.1h-3.6l16.1-0.2c-11.2,0.1-2.5,0-7.2,0.1C388,0,382.2,0,397.6,0.1
	c-2.1,0-7.8,0-4.6,0h8.6c10.2,0-1.6,0,2.8,0h16.8c0.6,0,1.1,0,6.4,0.2l-4.4-0.1l5.5,0.2h-1.1l6.9,0.3c1.9,0.2,3.8,0.4,6.7,0.7
	c-0.7-0.1-0.5-0.1,0.5,0s2.8,0.4,5.3,0.9l1.3,0.3c0.1,0,0,0,0,0l0.7,0.1c0.6,0.1,1.6,0.4,3.3,0.8c-1.6-0.4-3.3-0.9-6.5-1.4l-1.9-0.3
	c1.9,0.3,4.2,0.8,6.4,1.3s4.2,1.1,5.4,1.5c-1-0.3-2.1-0.7-2.7-0.8c1.7,0.5,3.4,1,5,1.6c0.8,0.3,1.7,0.6,2.5,0.9s1.6,0.7,2.4,1.1
	c1.5,0.8,0.3,0.1-0.9-0.4c2,1,4,2.1,5.9,3.4c-0.3-0.2-0.5-0.3-1-0.6s-1.4-0.9-3.4-1.9c3,1.5,5.8,3.4,8.2,5.8c0.2,0.2,1.1,1.2,1.8,2
	s1.2,1.4,0.8,0.9c2,2.6,3.5,5.6,4.5,8.7c1,3.6,1.1,7.4,0.3,11.1c-0.1,0.3-0.2,0.9-0.5,2l0.2,0.1l0.2-0.6c0.1-0.5,0.2-1,0.4-1.5h-0.2
	c-1,6.3-1.9,12.1-3.1,19.6l-0.8,4.6c-1,6.4,1-6.3-0.7,4.4c-1.2,7.6-0.5,2.8-0.9,5.5l-2.7,17.2C471.2,85.2,471.5,83.4,471.9,81.3z
	 M458.9,160.2c0.3-1.5,0.8-4.5,1-5.7C459.6,156.2,459.3,157.6,458.9,160.2L458.9,160.2z M382.9,239.8c1.1-0.4,2.8-1,4.6-1.7
	C386.2,238.6,384.6,239.2,382.9,239.8L382.9,239.8z M47.8,249.3h0.2H47.8z M40.9,247.2l-0.4-0.1c0.5,0.1,2,0.7,3.8,1.2
	C43.8,248.1,43,247.9,40.9,247.2L40.9,247.2z M326.2,0.6h1.4H326.2z"/>
<path class="st0" d="M395.7,234.7l0.6-0.2C396.9,234.2,396.9,234.2,395.7,234.7z"/>
<path class="st0" d="M478.9,36.6l0.1-0.2c0-0.1,0-0.2,0-0.2C479,36.2,478.9,36.4,478.9,36.6z"/>
<path class="st0" d="M150.7,263.2l2.8,0.2L150.7,263.2z"/>
<path class="st0" d="M10.7,225.3c0.9,1.3,1.8,2.5,2.8,3.7c-1.4-1.7-1.8-2.4-2.5-3.3L10.7,225.3z"/>
<path class="st0" d="M0.1,187.4c0-0.7,0-1.4,0-2.1v0.2C0.1,188.4,0.2,190.4,0.1,187.4z"/>
<path class="st0" d="M8.5,221.6c-1.1-1.9-2-3.8-2.9-5.8l0.2,0.5C6.6,218.2,7.5,220,8.5,221.6z"/>
<path class="st0" d="M5.3,215.2c-0.4-0.9-0.8-1.9-1.1-2.8C4.1,212,4.6,213.5,5.3,215.2z"/>
<path class="st0" d="M32.5,243.9c-1.3-0.8-0.8-0.5-1.6-0.9c-0.4-0.2,0,0,0.6,0.4s1.6,0.9,2.3,1.3s1.4,0.6,1.3,0.6
	C34.2,244.8,33.3,244.4,32.5,243.9z"/>
<path class="st0" d="M7.3,219.3l0.5,1l0.9,1.6C8.2,221.1,7.7,220.2,7.3,219.3z"/>
<path class="st0" d="M23.6,238.5c-0.6-0.6-1.4-1-2-1.6s-1.3-1.1-2-1.6c0.1,0-0.4-0.4-1-0.9C20.9,236.5,23.7,238.5,23.6,238.5z"/>
<path class="st0" d="M18.6,234.4c-1.2-1.1-2.3-2.2-2.9-2.9C16.2,232.1,17.6,233.5,18.6,234.4z"/>
<path class="st0" d="M10.8,225.4c0.3,0.4,0.6,0.8,0.9,1.2c0.7,1,1.5,1.9,2.2,2.9C12.9,228.2,11.8,226.8,10.8,225.4z"/>
<path class="st0" d="M75.9,254.9l5.5,0.9c0.6,0.1-0.9-0.2-3-0.5L75.9,254.9z"/>
<path class="st0" d="M59.2,251.7l2.4,0.5h0.2L59.2,251.7z"/>
<path class="st0" d="M75.3,254.7c0.5,0.1,8,1.3,1,0.2C75.8,254.8,70.2,253.8,75.3,254.7z"/>
<polygon class="st0" points="159.4,263.6 158,263.6 158.2,263.6 "/>
<path class="st0" d="M234,263.5l-7.6,0.3c-1.6,0.1,4.9-0.2,3.3-0.1C233.7,263.5,235.8,263.4,234,263.5z"/>
<path class="st0" d="M229.7,263.6l-2,0.1L229.7,263.6z"/>
<path class="st0" d="M69.8,22.2c-0.8,1.2-1.5,2.4-2.1,3.7c0.4-0.8,0.8-1.7,1.3-2.5C69.3,23.1,69.6,22.7,69.8,22.2z"/>
<path class="st0" d="M66.5,29.7l-0.2,1c-0.1,0.8-0.2,1.7-0.3,2.6C66.1,32.1,66.2,30.9,66.5,29.7z"/>
<path class="st0" d="M458,167.6v0.3c0-0.7,0.2-1.6,0.2-3.6C458.2,165.4,458.1,166.5,458,167.6z"/>
<polygon class="st0" points="466.5,114.7 466.4,115.7 466.7,113.8 "/>
<path class="st0" d="M474.1,66.6l-1,6.2C473.8,68.5,474.2,66,474.1,66.6z"/>
<path class="st0" d="M68.7,32.6c-0.1,0.4-0.3,0.9-0.3,1.3C69.1,31.1,68.7,32.7,68.7,32.6z"/>
<path class="st0" d="M90.9,17.2l-0.5,0.1c1.4-0.2,2.8-0.4,4.2-0.5C93.4,16.9,92.1,17,90.9,17.2z"/>
<path class="st0" d="M117.8,17.5c-1.3-0.1-3.7-0.1-6.4-0.3c-2.7-0.4-5.7-0.6-8.1-0.6h-0.8h-2.2C106.1,16.4,113.7,17.6,117.8,17.5z"
	/>
<path class="st0" d="M132.1,18.2c-0.9-0.1,3.1,0.1-3.4-0.1h0.6L132.1,18.2z"/>
<path class="st0" d="M129.4,18.1"/>
<path class="st0" d="M142.5,18.7l-3.7-0.2c0.8,0,4.1,0.2,2.9,0.1C145.5,18.8,144.7,18.8,142.5,18.7z"/>
<path class="st0" d="M146,18.8l-1.9-0.1L146,18.8z"/>
<path class="st0" d="M140,18.6l4.1,0.2l-1.9-0.1C142.5,18.7,141.7,18.6,140,18.6z"/>
<path class="st0" d="M137.7,18.5c-2.1-0.1-4.8-0.2-1-0.1C129.5,18.1,130.5,18.1,137.7,18.5z"/>
<path class="st0" d="M119.2,17.6l-2.8-0.1l-2.4-0.1L119.2,17.6z"/>
<path class="st0" d="M165.7,19.8l-1.5-0.1l-2.8-0.1L165.7,19.8z"/>
<path class="st0" d="M164.2,19.7l4.1,0.2L164.2,19.7z"/>
<polygon class="st0" points="146.7,18.8 139.9,18.5 148,18.9 "/>
<polygon class="st0" points="181.5,20.5 179.2,20.4 183.3,20.5 "/>
<path class="st0" d="M192,20.9c-1.7-0.1,2.4,0.1,0.5,0l7.5,0.3L192,20.9z"/>
<path class="st0" d="M203.6,21.5l-3.7-0.2L203.6,21.5z"/>
<path class="st0" d="M175.4,20.2l3.2,0.2l-1.6-0.1L175.4,20.2z"/>
<path class="st0" d="M176.9,20.2L176.9,20.2l3.6,0.2L176.9,20.2z"/>
<path class="st0" d="M175,20.1h0.4H175z"/>
<path class="st0" d="M157.5,19.3c2.4,0.1,7.5,0.3,2.6,0.1C158.4,19.4,161.2,19.5,157.5,19.3z"/>
<path class="st0" d="M172.9,20l-4.4-0.2c0.1,0,0.9,0.1-0.3,0L172.9,20z"/>
<polygon class="st0" points="175.1,20.1 172.9,20 174.6,20.1 "/>
<path class="st0" d="M196.1,21.1l6.3,0.3l-7.6-0.4C194.5,21,193.5,21,196.1,21.1z"/>
<path class="st0" d="M186.8,20.7h0.4H186.8z"/>
<path class="st0" d="M225.5,22L225.5,22z"/>
<path class="st0" d="M194.5,21l-4.1-0.2l4.5,0.2L194.5,21z"/>
<path class="st0" d="M210,21.6l-3.3-0.1L210,21.6z"/>
<path class="st0" d="M187.9,20.7h-0.3C188.2,20.8,188.1,20.8,187.9,20.7z"/>
<path class="st0" d="M187.9,20.7l2.5,0.1l-3.1-0.1L187.9,20.7z"/>
<path class="st0" d="M232.5,22.2l-9.6-0.2c-4.2-0.1-1.5,0,2.2,0.1l4.5,0.1c-1.5,0-9.6-0.3-6-0.2l7.5,0.2c-2.4-0.1,7.3,0.2,6,0.1
	l-5-0.1C232,22.2,233.9,22.2,232.5,22.2z"/>
<path class="st0" d="M216.8,21.8H215l6.2,0.2l3.8,0.1l-8.8-0.2L216.8,21.8z"/>
<path class="st0" d="M207,21.6c1.4,0,5.7,0.1,3.1,0l-6.8-0.2C211.8,21.6,200.9,21.4,207,21.6c-1.7,0-3.2-0.1-4.6-0.2
	c1.5,0.1,3,0.1,4.4,0.1h-0.2c-0.4,0-0.5,0-0.1,0L207,21.6c2.5,0,0.4,0-0.4,0h-0.1l8.5,0.2L207,21.6z"/>
<path class="st0" d="M164.6,19.6h0.3C165.5,19.6,165.6,19.7,164.6,19.6z"/>
<path class="st0" d="M168.1,19.8l-3.1-0.1c-1.7-0.1,0,0-0.1,0c-1.2,0-4.2-0.2-0.4,0h0.6l7.2,0.4L168.1,19.8z"/>
<path class="st0" d="M187.8,20.7l7,0.3l-3.6-0.2h0.2C187.5,20.7,188.3,20.7,187.8,20.7z"/>
<polygon class="st0" points="226.3,22.1 225.3,22.1 229.4,22.2 "/>
<polygon class="st0" points="235.4,22.3 235.1,22.3 237.5,22.4 "/>
<path class="st0" d="M318.4,248.5l-2,0.4L318.4,248.5z"/>
<path class="st0" d="M333.1,245.7l0.3-0.1C332.8,245.8,332.5,245.8,333.1,245.7z"/>
<path class="st0" d="M456.2,32.3l-0.2,0.6c-0.4,2.8-0.7,5.7-0.7,5.4l0.1-0.9c0.2-1.8,0.4-3.2,0.6-4.4L456.2,32.3z"/>
<path class="st0" d="M435.6,184.6c0.2-0.3,0.3-0.5,0.4-0.8l0.8-1.9c-0.2,0.4-0.4,0.8-0.5,1.3C436.1,183.7,435.9,184.2,435.6,184.6z"
	/>
<path class="st0" d="M434.7,186.5c-0.6,1.2-1.3,2.3-2,3.5C433.4,188.9,434.1,187.7,434.7,186.5z"/>
<path class="st0" d="M236.8,254.2l-2.4,0C238.2,254.2,236.5,254.2,236.8,254.2z"/>
<path class="st0" d="M329.2,24.4l6.5,0.1L329.2,24.4z"/>
<path class="st0" d="M324.2,247.3l-1.7,0.3L324.2,247.3z"/>
<path class="st0" d="M343.2,24.5h-1.4l-6.1-0.1L343.2,24.5z"/>
<path class="st0" d="M28.2,138.1l0.2-0.6L28.2,138.1z"/>
<path class="st0" d="M59.8,57.6l-1.2,3.3C58.8,60.3,59.2,59.3,59.8,57.6z"/>
<path class="st0" d="M272.3,23.4C270.3,23.3,272,23.4,272.3,23.4z"/>
<path class="st0" d="M262.8,23L262.8,23z"/>
<path class="st0" d="M362.6,24.6L362.6,24.6z"/>
<path class="st0" d="M269.4,23.3l2.5,0.1L269.4,23.3z"/>
<path class="st0" d="M269.7,23.3H268H269.7z"/>
<path class="st0" d="M275,23.4l-3.2-0.1h0.4L275,23.4z"/>
<path class="st0" d="M100,238.1l-0.4-0.1L100,238.1z"/>
<path class="st0" d="M450,82.5v-0.2V82.5L450,82.5z"/>
<path class="st0" d="M449.1,89.4c0.4-3,0.6-4.6,0.8-6.9l-0.3,2.3L449.1,89.4z"/>
<path class="st0" d="M434.8,186.2l-0.3,0.5C434.3,187.3,434.2,187.3,434.8,186.2z"/>
<path class="st0" d="M237.3,254.2L237.3,254.2z"/>
<path class="st0" d="M388.8,24.8L388.8,24.8z"/>
<path class="st0" d="M252.2,22.8l4.2,0.1l-3.8-0.1L252.2,22.8z"/>
<path class="st0" d="M215.6,21.7l-1.9-0.1h0.2C216.5,21.8,218.4,21.8,215.6,21.7z"/>
<path class="st0" d="M248.3,22.7l-5.9-0.2h0.5C242,22.5,245.2,22.6,248.3,22.7z"/>
<path class="st0" d="M241.7,22.5l-2.7-0.1L241.7,22.5z"/>
<path class="st0" d="M278.7,23.5H277C275.5,23.5,286.3,23.7,278.7,23.5z"/>
<polygon class="st0" points="245.9,22.5 246.9,22.6 248.6,22.6 "/>
<path class="st0" d="M269.2,23.2l-4.7-0.2h-1.3L269.2,23.2z"/>
<path class="st0" d="M263.2,23l-3.8-0.1L263.2,23z"/>
<polygon class="st0" points="252.3,22.7 253.7,22.8 257,22.9 "/>
<path class="st0" d="M319.8,24.2l5.2,0.1h-2.8L319.8,24.2z"/>
<path class="st0" d="M304.3,24h2.3h0.2H304.3z"/>
<path class="st0" d="M319.3,24.1c0.5,0,7.5,0.1,0.9,0C319.7,24.1,314.5,24.1,319.3,24.1z"/>
<polygon class="st0" points="396.8,24.9 395.4,24.9 395.6,24.9 "/>
<path class="st0" d="M455.8,37c0.5-3.9,0.4-3.3,0.5-4c0.1-0.3,0.2-0.8,0.5-2.2h-0.1l-0.2,0.6c0,0.1-0.1,0.2,0,0.1l-0.1,0.1l0,0
	l0.1-0.1c-0.1,0.1,0-0.1,0-0.2l0.2-0.5h0.1c-0.2,0.7-0.4,1.7-0.5,2.2s-0.1,0.5,0,0.1C455.8,36.7,455.5,38.6,455.8,37z"/>
<path class="st0" d="M456.2,33v-0.1c0.1-0.5,0.3-1.1,0.4-1.7l-0.4,1.7V33z"/>
<polygon class="st0" points="64.7,44.1 66,40.4 65.2,42.8 "/>
<path class="st0" d="M67.2,37l0.3-0.9l0.8-2.2L67.2,37z"/>
<path class="st0" d="M365,236.6l0.3-0.1l-3.2,1L365,236.6z"/>
<polygon class="st0" points="313.5,249.4 314.5,249.3 312.8,249.6 "/>
<path class="st0" d="M269.2,253.9l5.8-0.3C271,253.8,268.7,253.9,269.2,253.9z"/>
<path d="M8.8,202.5c0.9,7.2,1.9,14.3,3.1,21.4c0.6,3.5,1.2,7.1,2,10.6s1.4,7,3.3,9.3c3.8,5.4,9.5,9.8,15.5,13.4
	c2.9,2,6.1,3.4,9.2,5.1c3.2,1.4,6.4,2.9,9.7,4.2c26.5,10.2,55.2,13.9,83.6,15.8c14.3,0.9,28.6,1.2,42.9,0.9
	c14.3-0.1,28.7-0.8,43-1.8c28.6-1.9,57-5.5,85.1-10.7c28-5.3,55.8-12.4,81.6-22.8c6.3-2.5,12.6-5.3,18.6-8.4
	c5.8-3,11.7-6.5,15.2-9.9c0.4-0.3,0.8-0.7,1.1-1.1c0.3-0.3,0.5-0.6,0.7-0.9l0.3-0.3l0.7-1.2l1.3-2.3l5.1-9.2
	c3.3-6.1,5.7-11.3,7.2-17.3c1.7-6.7,3-13.6,3.8-20.5l3.3-21.4c2.4-14.2,4.6-28.5,7.2-42.7c5-28.4,10.5-56.9,17.3-85.2l2.3,0.3
	c-0.1,29.1-1.5,58.2-3.4,87.2c-0.8,14.5-2.1,29-3.1,43.5l-1.9,21.7c-0.5,7.5-1.4,15-2.9,22.4c-1.8,8-4.7,15.7-8.5,23
	c-1.7,3.5-3.5,6.6-5.3,9.9l-1.3,2.4l-0.7,1.2l-1.2,1.9c-1.5,2.2-3.3,4.3-5.3,6.1c-7.1,6.5-14.1,10-21.1,13.6
	c-6.9,3.3-14,6.2-21.3,8.7c-28.6,9.5-57.5,15.3-86.5,19.5c-29,4.2-58.2,6.6-87.4,7.4c-14.6,0.4-29.2,0.5-43.8,0
	c-14.6-0.3-29.2-1.2-43.8-2.7c-29-3.4-58.3-8.7-85.4-20.7c-3.4-1.6-6.7-3.3-10-5c-3.2-2-6.5-3.6-9.5-5.9c-6.1-4.3-12-9.1-16.2-15.8
	c-1.1-1.7-1.9-3.7-2.3-5.7c-0.4-1.9-0.7-3.7-1-5.5c-0.6-3.6-1-7.2-1.4-10.9c-0.8-7.2-1.3-14.5-1.8-21.7L8.8,202.5z"/>
<path class="st0" d="M7.1,202.6c2-0.2,1.3-0.1,1.6-0.2C5.3,202.7,7.2,202.6,7.1,202.6z"/>
<polygon class="st0" points="9.7,235.9 9.6,235.2 10.5,240.2 "/>
<path class="st0" d="M27.4,261c-1.2-0.9-3.5-2.6-6-4.7c-2.4-2.1-4.6-4.5-6.5-7c-0.2-0.2-0.4-0.5-0.6-0.8c-0.5-0.7-1-1.4-1.5-2.1
	c2,3.1,4.4,6,7.1,8.5C22.3,257.1,24.8,259.2,27.4,261z"/>
<path class="st0" d="M41.8,269.8c-0.9-0.5,3.3,1.7-3.5-1.8c0.2,0.1,0.4,0.3,0.6,0.4L41.8,269.8z"/>
<path class="st0" d="M38.9,268.4c-1.5-0.9-1-0.6-0.4-0.2S39.9,268.9,38.9,268.4z"/>
<path class="st0" d="M52.9,275l-4.1-1.7l3.1,1.3c2.1,0.9,2.9,1.2,2.9,1.2l-0.5-0.2L52.9,275z"/>
<path class="st0" d="M56.8,276.6l-2.1-0.8L56.8,276.6z"/>
<path class="st0" d="M50.2,273.9c1.5,0.6,3,1.3,4.5,1.9l-2.1-0.8L50.2,273.9z"/>
<path class="st0" d="M47.7,272.7c-2.2-1.1-5.1-2.5-1.1-0.6C39,268.4,40.1,269,47.7,272.7z"/>
<path class="st0" d="M28.7,261.9c-0.9-0.6-1.8-1.3-2.7-2c-0.8-0.6-1.5-1.1-2.3-1.7C24.9,259.1,28.9,262,28.7,261.9z"/>
<path class="st0" d="M78.8,283.9l-1.7-0.5c-1-0.3-2.1-0.6-3.1-0.9L78.8,283.9z"/>
<path class="st0" d="M77.1,283.4c1.6,0.4,3.1,0.9,4.7,1.3C77.6,283.6,76.9,283.3,77.1,283.4z"/>
<path class="st0" d="M57.5,276.9l-3.7-1.5l-3.7-1.6c1.5,0.6,2.9,1.3,4.4,1.9l4.4,1.7L57.5,276.9z"/>
<path class="st0" d="M97,288.2c-0.9-0.2-1.8-0.4-2.7-0.6c1.6,0.4,3.2,0.7,4.8,1L97,288.2z"/>
<path class="st0" d="M109.1,290.5c-2-0.3,2.8,0.5,0.6,0.1c3.3,0.6,6.1,1,8.7,1.3C115.7,291.5,112.8,291.1,109.1,290.5z"/>
<path class="st0" d="M122.7,292.5l-4.3-0.6L122.7,292.5z"/>
<path class="st0" d="M89.9,286.7c0.4,0.1,1.1,0.3,3.7,0.8l-1.9-0.4C91.2,287,90.5,286.8,89.9,286.7z"/>
<path class="st0" d="M91.7,287.1L91.7,287.1l4.1,0.9L91.7,287.1z"/>
<path class="st0" d="M89.5,286.6l0.5,0.1L89.5,286.6z"/>
<path class="st0" d="M69.5,281.1c2.7,0.8,8.5,2.6,2.9,0.9C70.5,281.4,73.7,282.4,69.5,281.1z"/>
<path class="st0" d="M87.1,286c-1.7-0.4-3.3-0.8-5-1.3c0.1,0,1,0.3-0.4-0.1C83.5,285.1,85.3,285.6,87.1,286z"/>
<polygon class="st0" points="89.6,286.6 87.1,286 89,286.4 "/>
<path class="st0" d="M113.9,291.2c2.2,0.3,4.6,0.7,7.4,1.1c-2.9-0.4-6-0.9-8.8-1.3C112.1,291,110.8,290.8,113.9,291.2z"/>
<path class="st0" d="M103.1,289.4l0.5,0.1L103.1,289.4z"/>
<path class="st0" d="M148.3,295.2h-0.4h-0.1H148.3z"/>
<path class="st0" d="M112,290.9l-4.8-0.8l5.2,0.9C112.6,291,112.7,291,112,290.9z"/>
<path class="st0" d="M130.2,293.5l-3.8-0.5C127.5,293.2,129.8,293.5,130.2,293.5z"/>
<path class="st0" d="M104.3,289.6l-0.3-0.1L104.3,289.6z"/>
<path class="st0" d="M104.3,289.6l2.9,0.5l-3.6-0.6L104.3,289.6z"/>
<path class="st0" d="M156.6,295.7c-0.4,0-6.2-0.4-11.3-0.8s-1.7-0.1,2.6,0.3l5.2,0.4c-1.8-0.1-11.3-0.9-7-0.5l8.8,0.6
	c-2.8-0.2,8.6,0.5,7.1,0.4l-5.9-0.3C156,295.7,158.2,295.8,156.6,295.7z"/>
<path class="st0" d="M138.2,294.4l-2.1-0.2l7.2,0.7l4.5,0.3c-3.5-0.3-6.9-0.6-10.3-0.9L138.2,294.4z"/>
<path class="st0" d="M126.7,293c1.6,0.2,6.6,0.8,3.6,0.4l-8-1c9.9,1.3-2.8-0.4,4.3,0.6l-5.3-0.7l5.1,0.7h-0.2l0,0
	c-0.4-0.1-0.6-0.1-0.1,0h0.2L126.7,293c2.9,0.4,0.5,0.1-0.4,0h-0.1c1.6,0.2,3.3,0.4,5,0.6s3.3,0.4,5,0.5
	C134,294,131.4,293.6,126.7,293z"/>
<path class="st0" d="M77.6,283.5l0.3,0.1L77.6,283.5z"/>
<path class="st0" d="M81.5,284.5c-0.7-0.2-1.3-0.3-3.6-1c-2-0.6,0,0-0.1,0c-1.4-0.4-4.8-1.3-0.5-0.1l0.7,0.2
	c3.9,1.1,8.9,2.3,8.2,2.2C85.1,285.5,84.1,285.2,81.5,284.5z"/>
<path class="st0" d="M104.3,289.6c2.7,0.5,5.5,0.9,8.2,1.4l-4.2-0.7h0.2L104.3,289.6z"/>
<polygon class="st0" points="149.3,295.3 148.2,295.2 153,295.6 "/>
<polygon class="st0" points="160.1,296 159.7,296 162.5,296.1 "/>
<path class="st0" d="M450.8,121l-0.4,2.4C450.5,122.3,450.7,121.6,450.8,121z"/>
<path class="st0" d="M453.8,103.6l0.1-0.4C453.7,104,453.7,104.3,453.8,103.6z"/>
<path class="st0" d="M420.5,259.1c3.2-1.6,6.6-3.6,6.2-3.4l-1,0.5C423.7,257.5,422,258.4,420.5,259.1z"/>
<path class="st0" d="M469.6,93l-0.1,1c0,0.9-0.1,1.7-0.1,2.4C469.5,95.4,469.5,94.2,469.6,93z"/>
<path class="st0" d="M469.7,90.5l0.2-4.7C469.8,86.9,469.8,88.4,469.7,90.5z"/>
<path class="st0" d="M270.6,293.7l7.6-0.7L270.6,293.7z"/>
<path class="st0" d="M451.8,114.2l-0.3,2.1C451.7,114.7,451.8,113.8,451.8,114.2z"/>
<path class="st0" d="M287,292.1l-1.6,0.2c-2.2,0.2-4.5,0.5-7.2,0.8C280.9,292.8,284,292.4,287,292.1z"/>
<path class="st0" d="M97.5,278.5l-0.8-0.1L97.5,278.5z"/>
<path class="st0" d="M13.4,231.8c0.2,1,0.5,2.6,0.8,4.1l-0.3-1.5C13.8,233.7,13.6,232.9,13.4,231.8z"/>
<path class="st0" d="M203.5,297C201.2,297,203.1,297,203.5,297z"/>
<path class="st0" d="M192.4,296.9L192.4,296.9z"/>
<path class="st0" d="M309.7,289h0.2H309.7z"/>
<path class="st0" d="M200.1,297L200.1,297z"/>
<path class="st0" d="M200.5,297L200.5,297z"/>
<path class="st0" d="M206.7,297H203h0.5H206.7z"/>
<path class="st0" d="M284.5,274.5l-0.5,0.1C281.8,274.9,282.8,274.8,284.5,274.5z"/>
<path class="st0" d="M457,214.1l-0.1,0.2L457,214.1L457,214.1z"/>
<path class="st0" d="M459.5,206.3c-0.7,2.6-1.5,5.2-2.5,7.8c0.3-0.8,0.7-1.7,1-2.5C458.5,209.8,459,208,459.5,206.3z"/>
<path class="st0" d="M443.8,162.8l0.9-5.7c-1,6.9-1.8,11.9-1,6.5c0.1-0.4,0.8-6,1.8-11.5s1.8-10.7,1.9-11.5l0.7-3.8l-0.4,2.3
	c1.2-7.3,0.9-5.5,2.5-14.9c0.6-3.3,1-5.6,0.6-3.3l1.2-7.3c0.4-2.1,0.3-1.6-0.1,0.5l2-11.1v0.1c0.3-1.6,0.9-5.2,1.2-7
	c0.5-2.8-0.3,1.4-0.1,0.7l1.1-6.2c0.5-2.5-0.5,2.6-1.2,6.9c1.1-5.7,0.9-5.1,3.3-17.5l-1.1,5.8c0.7-3.8,1.6-8.3,2.9-14.8
	c-0.3,1.6-2.6,13.1-1.3,6.4l1.6-8c0.1-0.5,0.7-3.6,1.6-7.9V62c1-4.7,0.9-4.4,1.5-7.1c1.1-5.3,1.4-6.4,1.7-7.6
	c1.9-8.4-1.3,5.8,0.9-4.2c1.2-5.5,2.2-9.8,3.5-15.3l2.2,0.2c0,0.8,0,1.7,0,2.7c0,5,0-0.9,0,0.9V36c0,1.1,0,0.7,0,0.6
	c0,3.7,0,0.4-0.1,6.2c0,1.6-0.3,12.1-0.5,19.4c-0.1,1.8,0-0.9,0-0.3c-0.3,10-0.3,8.6-0.6,16.8l-0.3,7c0.3-5.1,0,1.4-0.3,7.2
	c0.1-1.8,0.2-3.4,0.2-4.4l-0.5,9.2c-0.1,1.1,0,0.2,0.1-1.3c0,0.6-0.1,1.2-0.1,1.7c-0.2,3.3-0.1,1.6,0-0.8c0.1-1.1,0.1-2.2,0.2-3.3
	c0.1-2.3,0.2-4.4,0.2-3.9s-0.1,1.8-0.2,3c0-0.6,0-1,0-0.7s-0.1,1.3-0.2,2.8l-0.1,2.1v0.5l-0.7,12c-0.5,8.6-1.1,16.1-2,29.7
	c0.2-3.4,0-0.7,0-0.9c0.3-3.8,0.8-10.6,1.3-17.6c-0.3,3.7-0.2,2.9-0.2,1.9l-0.9,12.6c0-0.3-0.2,2.7-0.5,6c0.2-2.5-0.7,9.4-1,14.5
	c0,0.3,0-0.9,0.5-7.2c-0.5,6.9-0.6,8.9-1.2,15.7c0.1-1.5,0.2-2.3,0.2-3c-0.3,3.6-1.1,12.3-0.9,10.2l0.1-1.5
	c-0.2,2.5-0.5,5.7-0.8,9.1s-0.6,7-1,10.3c-0.7,6.6-1.8,12.1-2,12.8c0-0.1,0.2-1.4,0.3-1.9c-1.1,6-2.9,11.9-5.4,17.5
	c0.3-0.7-0.2,0.3-0.3,0.5s0.1-0.3,1.7-4.2c-0.9,2.2-2,5-4.2,9.6c0.7-1.5,1.8-3.7,0.8-1.7c-1.3,2.8-1.9,3.7-2.5,4.8s-1.3,2.4-3.1,5.7
	c1.2-2.2-0.1,0.3-2,3.7c0.3-0.5-0.2,0.3,0.5-1c-1.5,2.9-3.2,5.6-5.2,8.2c1.5-1.9,0.3-0.3-1.2,1.3c-0.9,1-1.9,2-3,2.9
	c-1.7,1.5-3.5,3-5.4,4.3c1.1-0.8,2.2-1.6,3.3-2.5c-2.8,2.3-5.8,4.4-9,6.2c-2.3,1.4-4.7,2.7-9.6,5.1c0.6-0.3,1.3-0.7,1.3-0.7
	s-0.2,0.1-0.8,0.4l-2.4,1.2c-6.3,2.9-12.8,5.5-19.4,7.8l-1.8,0.6c-2.3,0.8-4.7,1.5-7.1,2.2c2.2-0.7,6.4-2,10.8-3.6s9.1-3.4,12.3-4.8
	c-3.8,1.6-1,0.5-6.8,2.7c-2,0.8,3.1-1.2,4.8-1.9c-4.4,1.8-8.9,3.5-13.5,5c0.3-0.1-2.3,0.8-4.9,1.6l-5,1.6c5-1.5,10-3,14.8-4.8
	c0.3-0.1-1.8,0.7-5.2,1.9s-8.2,2.6-13,4c-2.5,0.7,1.8-0.6,1.7-0.5c-1.3,0.4-9.3,2.6-10.2,2.9c1.4-0.4,2.8-0.7,4.2-1.1
	c-5.5,1.5-8.9,2.4-15.5,4c-2.3,0.6-6.8,1.5-7.2,1.6c3.7-0.8,4.5-0.9,2-0.3c-0.8,0.2-12.1,2.6-14.7,3c-1.9,0.4-0.5,0.1,1-0.2
	s3-0.6,1.4-0.3c-0.1,0-2.2,0.5-3.1,0.6l-4.3,0.8c-0.9,0.2-10.7,1.9-2.5,0.5c-5.2,0.9-5.5,1-11.5,2c1.9-0.3-5.5,1-10.6,1.7l-1.4,0.2
	c-10.6,1.5-16.4,2.2-26.3,3.3c-0.9,0.1-5.7,0.6-3.7,0.4l-5.8,0.6c-6,0.5,6.9-0.7,2.3-0.2c-0.4,0-8,0.8-12.3,1.1
	c1.3-0.1,10.1-0.9,14.5-1.3L277,293l-3.8,0.4c-3.2,0.3-7.7,0.7-12.9,1.1c-8.3,0.6-3.6,0.2-5,0.4c-7.8,0.5-11.1,0.7-14.1,0.9
	s-5.7,0.3-12.2,0.6c-5.2,0.2-0.2,0-1.4,0c6.8-0.3,10.4-0.4,15-0.7l-5.7,0.3l9.1-0.5c-2.2,0.1-8.8,0.5-16.3,0.8s-16.1,0.5-22.1,0.6
	c-2.1,0-5.8,0.1-4.1,0.1h3.8c3.5,0-7.2,0.1-2.4,0c-5.1,0-10.9,0.1-18.1,0l-1.4,0c0.1,0,4.7,0.1,6.7,0.1c-3,0-11-0.2-14.3-0.3l5,0.2
	c-5.1-0.2-11.5-0.2-17.9-0.6l6,0.3c-3.9-0.1,16.3,0.5,10,0.3c4.7,0.1,8.1,0.2,14.1,0.2h1.6c2.7,0,11.2-0.1,14.1-0.1
	c3.2,0-1.3,0,0.4,0l4.3-0.1c0.4,0,8.5-0.2,1,0l6.7-0.2c4-0.1,9.4-0.3,12.8-0.5c3.2-0.1,8-0.4,5.3-0.3c3.5-0.2,7-0.4,10.6-0.6h0.1
	c10.4-0.7,21.4-1.6,33.3-2.9c3.5-0.4,7.1-0.8,12.9-1.5l1.1-0.1c4.5-0.6,13.4-1.9,15.3-2.2c2.4-0.4,7.8-1.2,13.6-2.2s11.9-2.2,15.8-3
	l0.3-0.1c5.3-1.1,10.5-2.2,17.1-3.8l-0.4,0.1c5.7-1.4,14.6-3.6,23.5-6.3l-4.4,1.3c5.3-1.5,10.9-3.2,16.3-5.1s10.6-3.9,15.2-5.9
	c2.3-1,3.9-1.8,5.5-2.5l-0.6,0.3c0.2-0.1,0.6-0.3,0.9-0.5l3.1-1.6l-2.6,1.3c1.7-0.9,4.3-2.2,6.8-3.6l1.1-0.6l0.6-0.3
	c2.4-1.5,1.9-1.2,0.7-0.4c1.2-0.7,2.3-1.5,3.2-2s2.5-1.7,4-2.9s3.1-2.6,4.3-3.7c0.7-0.7,1.5-1.5,2.1-2.3c1.1-1.2,2.1-2.6,3-4
	c1-1.5,1.8-3.1,2.5-4.3s1.2-2.2,1.3-2.5c0-0.1,0.5-0.8-0.3,0.5l4.4-8.1c0.2-0.4,0.4-0.8,0.6-1.2c1-2.1,2-4.2,2.9-6.3
	c0.8-1.9,1.4-3.3,1.5-3.7s0,0.2-0.8,2.1c1.1-2.8,2.1-5.6,3-8.5c0.8-2.5,1.4-5.1,1.8-7.6l-0.1,0.4c0.6-3,1.3-7.9,1.5-9.8
	c0.5-3.4,1.2-11.9,2-21.8s1.7-21.1,2.3-29.9c-0.3,3.4,0.6-8.2,0.6-8.9c0.1-1,0.3-3.5,0.1-0.6c0.6-9,1-13.5,1.4-19.8
	c0.1-1-0.1,1.9,0,1c0-0.7,0.2-2.9,0.2-3.8s-0.1,1.3-0.2,2.8c0.6-9.2,0.6-10.1,0.6-10.8c0.3-4.7,0.4-7,0.6-10.4
	c0.1-1.6,0.2-4.4-0.1,1.4c0.1-1.6,0.3-6.5,0.6-11.1s0.4-8.6,0.4-8.9c0-1,0.2-4.5,0.2-5.4c0.2-7.2,0.3-7.9,0.5-15v2
	c0.1-2.9,0.1-5.9,0.2-11.6v0.2c0.2-10.4,0.1-7.9,0.1-12.9l-2.4-0.3c-0.2,0.9-0.5,2-0.8,3.4l0.2-0.7c-0.3,1.2-2.6,11.2-4.2,18.6
	l0.6-2.7c-0.9,4-2.5,11.2-3.3,15.3c-0.2,0.9,0.3-1.4,0.5-2.6c-2.2,10.6-0.3,1.4-1.9,9.3c-0.3,1.1-0.5,2.3-0.7,3.4
	c-0.5,2.6-3,15.4-4.3,22.7c0.3-1.6,0.6-3.2-0.1,0.5c-1,5.6-2.8,15.2-3.7,20.4c-0.1,0.7-0.2,1-0.2,1c-0.7,4.3-2.3,14-2.8,16.7
	c-0.4,2.1-1.5,8.7-2.5,14.9c-0.5,3.1-1,6.1-1.4,8.3c-0.2,1.1-0.3,2-0.4,2.6c0,0.3-0.1,0.5-0.1,0.7c0,0.1,0,0.2,0,0.2l-2,13.3l0-0.4
	c-1.3,8.5-1.7,11.5-2.2,14.5c-0.3,2-0.1,0.5-0.1,0.4c-0.7,4.3-1.7,8.5-3,12.6c-1.1,3.6-2.6,7.2-4.3,10.6l-0.5,1
	c-0.4,0.9-1.5,2.9-3.1,5.7s-3.5,6.3-5.5,9.9c-1.3,1.7-2.8,3.1-4.5,4.4c-1.7,1.3-3.4,2.5-5.2,3.6l1.1-0.7c-6.4,3.9-13.1,7.4-20,10.3
	c-3.3,1.5-6.4,2.7-9,3.7s-4.6,1.8-5.8,2.2c-2.8,1.1-5.7,2.1-8.6,3.1c11.2-3.9-1.7,0.6,3-1c-4.4,1.6-11.5,3.8-6,2l0.8-0.3
	c1-0.3-2.5,0.8-6.2,2s-7.9,2.4-7.7,2.4c-11.2,3.3-22.4,6-33.5,8.5c-5.5,1.2-11,2.3-16.5,3.4s-10.9,2-16.3,2.8l2.5-0.4l-7.5,1.2
	c-2,0.3-2.7,0.4,2.7-0.5l-9.2,1.4c-10.6,1.5,4.1-0.6,0.9-0.1l-4.4,0.6l1-0.1c-3.6,0.5-3.9,0.6-10.4,1.4l-3.7,0.4l-2.5,0.3l-9.5,1.1
	l3.8-0.4c-4.2,0.5-9,0.9-4.6,0.5c-3.2,0.3-12.2,1.2-20.8,1.9s-17,1.1-18.9,1.2c-6,0.3-11.8,0.6-19.1,0.8c1.8,0,2.9,0-3.4,0.1
	c2.3-0.1-11.5,0.2-16.6,0.1c2.3,0-2.2,0-6.4,0s-8-0.1-4.4,0c-5.2-0.1-0.3,0-4.3-0.1c-12.5-0.3-27.5-1.2-42.9-2.9
	c-0.2,0,2.3,0.3-1-0.1c-2.7-0.3-5.4-0.7-8.1-1c-3-0.5-2.8-0.3-8.3-1.3c0.8,0.1,1.9,0.3-0.1,0c-14.9-2.5-30-6.2-44.4-12l-5.3-2.3
	l-2.7-1.2c-0.8-0.5-1.7-0.9-2.6-1.4c-1.7-0.9-3.5-1.8-5.1-2.8s-3.3-2.1-4.9-3.2c-3.2-2.2-6.2-4.6-8.9-7.4c-1.3-1.4-2.5-2.9-3.6-4.5
	c-1-1.7-1.6-3.5-2-5.4c0.5,2,0.6,2.3,0.5,1.8s-0.5-2-0.9-3.5c0.5,2,0,0,0.1,0.4c-0.5-2.1-0.8-4.2-1.2-6.3l-1.1-6.3
	c-0.4-2.4-2-13.5-2.2-15l0.6,4c-0.8-5.4,1,7.5,0.9,6.7c0.2,1.5,0.5,3.2,0.8,5.2s0.7,4,1.1,6.2c0.2,1.1,0.4,2.2,0.6,3.4
	s0.5,2.3,0.8,3.5c0.4,2.4,1.5,4.7,3,6.7c1.3,1.8-1.1-1.5-0.4-0.5c2.2,3,4.8,5.7,7.8,8l-0.5-0.4c2.7,2.2,5.6,4.2,8.6,6
	c2.6,1.7,5.3,2.9,7.9,4.3c6.3,3.1,12.8,5.7,19.4,7.9l-1.2-0.4c3.6,1.2,4.4,1.4,6.1,2c2.1,0.6-0.5-0.2-3.1-1s-5.2-1.8-3.3-1.1
	c2.4,0.9,8.8,2.9,15.2,4.5s12.6,2.8,14.3,3.2l4.1,0.7l1.5,0.3l1.5,0.2c3.8,0.6,5.8,0.9,5.9,0.9l-3.6-0.5c4.9,0.8,14,1.9,15.7,2.1
	l-5.6-0.7c17,2,34,3.2,51.1,3.4h-1.2c5.9,0.1,8.3,0.1,10.8,0.1s5.2,0,11.7-0.1h-0.5c2.6,0,6.1-0.1,9.6-0.2c-3.3,0.1,6.2-0.2,1.9,0
	c6.4-0.2,8-0.3,9.1-0.4l5.8-0.3l2-0.1l9.6-0.6c-5.3,0.4,4.1-0.2-1.8,0.1c13.6-0.9,20.2-1.5,26.5-2.1c3.1-0.3,0.2,0-3.1,0.3
	s-6.9,0.6-5.2,0.5c-2.9,0.2,5.2-0.5,9.4-0.9s7.4-0.7,18.3-2l-2.2,0.3c4.1-0.5,8-1,13-1.7c2.8-0.4,6.5-0.9,7.3-1
	c-3.3,0.5-6.6,1-10,1.4c5.7-0.8,11-1.5,20.2-3l-5.4,0.9l8-1.3c-0.8,0.2-12.1,2-18.1,2.8c2.9-0.4,11.4-1.7,8.4-1.2
	c4.4-0.7,10.7-1.6,18-3l-0.5,0.1l5.7-1l-3.8,0.7c5.9-1.1,11.4-2.2,17-3.4c-11.8,2.5-2.7,0.5-7.7,1.6c7.3-1.5,9.4-2,11.7-2.5
	s4.8-1,13-3c-2.2,0.5-8.2,2-4.8,1.1c3.1-0.7,7.2-1.7,9.1-2.2c10.7-2.8-1.6,0.4,2.9-0.8c3.7-0.9,5.2-1.4,9.9-2.7l0,0
	c6-1.8,6.8-2,7.5-2.2l6.5-2.1l-4.6,1.5l5.6-1.8l-1.2,0.4c6.1-2.1,8-2.7,13.9-4.9c-1.4,0.5,0.8-0.3,6-2.3c3.5-1.4-2,0.8,5.4-2.2
	c-1.6,0.7-3.5,1.5-6.7,2.7l-2,0.8c3.8-1.5,9.6-3.8,12.2-5l-2.8,1.2c3.5-1.5,7-3.1,10.4-4.8c1.6-0.8,0.3-0.2-0.9,0.5
	c2.1-1,3.5-1.8,6.5-3.4c-0.8,0.4-0.6,0.4-4.9,2.6c3.2-1.6,6.5-3.4,9.6-5.3c0.3-0.2,1.5-0.9,2.4-1.6s1.6-1.1,1.1-0.7
	c1-0.7,2-1.5,3.1-2.4c0.5-0.5,1.1-1,1.6-1.5c0.3-0.3,0.5-0.6,0.8-0.8c0.1-0.1,0.3-0.3,0.4-0.5c0,0,0.1-0.1,0.1-0.1l0.1-0.1l0.2-0.2
	c2.3-4,4.7-8.5,7-12.6c0.2-0.4,0.6-1.1,1.4-2.6c1.8-3.3,3.4-6.7,4.7-10.2c0.6-1.8,1.1-3.6,1.6-5.5s1-4,1.4-6.2
	c0.3-1.6,0.7-3.3,0.9-5c1.1-6.9-1.1,6.8,0.7-4.7c1.2-8.2,0.5-3,0.9-5.9l2.8-18.6C444.5,158.5,444.2,160.5,443.8,162.8z M458.6,77.7
	c-0.3,1.6-0.9,4.9-1.2,6.1C457.8,82,458.1,80.5,458.6,77.7L458.6,77.7z M468.8,105.7c0.1-1.2,0.2-3.2,0.3-5.3
	C469,101.9,468.9,103.7,468.8,105.7L468.8,105.7z M228.6,296.4h0.2C232.5,296.2,231.2,296.3,228.6,296.4z M220.9,296.6
	c-0.8,0-0.7,0-0.4,0l4.3-0.1L220.9,296.6z M260.3,277.7l1.5-0.2C258.4,277.9,259.3,277.8,260.3,277.7L260.3,277.7z"/>
<path class="st0" d="M469.6,90.8v-0.7C469.7,89.5,469.7,89.4,469.6,90.8z"/>
<path class="st0" d="M430.7,214.5l-0.1,0.2l-0.2,0.2L430.7,214.5z"/>
<path class="st0" d="M340.1,283.9l3-0.6L340.1,283.9z"/>
<path class="st0" d="M179.8,296.7l5,0.1l-4.5-0.1C180.4,296.8,181.3,296.8,179.8,296.7z"/>
<path class="st0" d="M136.8,294.2l-2.2-0.2h0.2C137.8,294.3,140,294.5,136.8,294.2z"/>
<path class="st0" d="M175.2,296.6l-7-0.2h0.6C167.8,296.3,171.5,296.5,175.2,296.6z"/>
<path class="st0" d="M167.5,296.3l-3.2-0.1L167.5,296.3z"/>
<path class="st0" d="M211,296.9h-2C207.2,297,220.1,296.7,211,296.9z"/>
<polygon class="st0" points="172.4,296.5 173.6,296.5 175.6,296.5 "/>
<path class="st0" d="M199.8,296.9h-7H199.8z"/>
<path class="st0" d="M192.8,296.9l-4.5,0L192.8,296.9z"/>
<polygon class="st0" points="180,296.7 181.6,296.7 185.6,296.8 "/>
<path class="st0" d="M259.5,294.6l6-0.5c0.6-0.1-1,0.1-3.3,0.3L259.5,294.6z"/>
<path class="st0" d="M241.2,295.7l2.7-0.1h0.2L241.2,295.7z"/>
<path class="st0" d="M258.9,294.6c0.6,0,8.8-0.7,1.1-0.1C259.4,294.6,253.3,295,258.9,294.6z"/>
<polygon class="st0" points="349.3,282 347.8,282.4 348,282.3 "/>
<path class="st0" d="M425.3,256.4c-3.1,1.8-3.5,1.9-3.8,2.1s-0.5,0.3-3.4,1.8c-1.5,0.8,4.7-2.4,3.2-1.6
	C425.1,256.6,427,255.4,425.3,256.4z"/>
<path class="st0" d="M421.3,258.6l-2,1L421.3,258.6z"/>
<polygon class="st0" points="10.7,215.1 10,210.5 10.4,213.5 "/>
<path class="st0" d="M9.4,206.3l-0.1-1.1l-0.4-2.7C9,203.5,9.3,205.5,9.4,206.3z"/>
<path class="st0" d="M461.2,65.2l0.1-0.4c-0.1,0.7-0.4,1.8-0.8,3.9L461.2,65.2z"/>
<polygon class="st0" points="449.8,126.8 450,125.7 449.6,127.7 "/>
<path class="st0" d="M441.5,178.7c0.3-2.1,0.7-4.6,1-6.8C441.7,176.6,441.3,179.3,441.5,178.7z"/>
<path d="M377.6,689.5c-2.5-21.7-4.4-43.4-6.7-65.1l-5.8-65.2c-1.8-21.7-5.2-43.4-4.9-65.2c0.2-21.8,0.9-43.7,4.6-65.7l1.7-0.1
	c5.9,21.5,8.8,43.2,11,64.9c2.2,21.7,1.2,43.6,1.5,65.4l0.6,65.4c-0.1,21.8,0,43.6-0.3,65.5L377.6,689.5z"/>
<path class="st0" d="M378.2,689.6c-0.8,0-0.5,0-0.6,0C378.9,689.6,378.2,689.6,378.2,689.6z"/>
<polygon class="st0" points="379.4,677.7 379.4,677.9 379.4,676 "/>
<path class="st0" d="M379.5,665.7c0,1.3,0,4.4,0,6.5v0.3v1C379.5,670.9,379.5,667.5,379.5,665.7z"/>
<path class="st0" d="M379.5,659.3c0,0.4,0-1.4,0,1.5v-0.3C379.5,660.2,379.5,659.9,379.5,659.3z"/>
<path class="st0" d="M379.5,660.5C379.5,661.8,379.5,659.7,379.5,660.5z"/>
<path class="st0" d="M379.6,654.6v1.7c0-0.3,0-1.8,0-1.3C379.6,653.3,379.6,653.7,379.6,654.6z"/>
<path class="st0" d="M379.5,653L379.5,653z"/>
<path class="st0" d="M379.5,655.8v-1.8c0,0.2,0,0.3,0,0.8V655.8z"/>
<path class="st0" d="M379.5,656.8c0,0.9,0,2.1,0,0.5C379.5,660.4,379.5,660,379.5,656.8z"/>
<path class="st0" d="M379.5,665v2.3C379.5,666.8,379.5,665.3,379.5,665z"/>
<path class="st0" d="M379.6,644.2c0-0.1,0,0.6,0,0.7v1.2V644.2z"/>
<path class="st0" d="M379.6,644.9V643C379.6,644.7,379.6,645,379.6,644.9z"/>
<polygon class="st0" points="379.5,652.8 379.5,655.8 379.5,652.2 "/>
<polygon class="st0" points="379.6,637.2 379.7,638.2 379.6,636.4 "/>
<path class="st0" d="M379.7,632.5c0,0.8,0-1.1,0-0.2v-3.3C379.7,630,379.7,631,379.7,632.5z"/>
<path class="st0" d="M379.7,627.3c0,0.5,0,1,0,1.6C379.7,628.4,379.7,627.9,379.7,627.3z"/>
<path class="st0" d="M379.6,639.9c0-0.2,0-0.5,0-1.5v0.7C379.6,639.4,379.6,639.7,379.6,639.9z"/>
<path class="st0" d="M379.6,639.2L379.6,639.2z"/>
<path class="st0" d="M379.6,640.1L379.6,640.1z"/>
<path class="st0" d="M379.6,647.9c0-1.1,0-3.3,0-1.2C379.5,647.5,379.6,646.3,379.6,647.9z"/>
<path class="st0" d="M379.6,641v2c0,0,0-0.4,0,0.2V641z"/>
<polygon class="st0" points="379.6,640 379.6,641 379.6,640.3 "/>
<path class="st0" d="M379.7,630.7v-2.8c0,1.1,0,2.3,0,3.4C379.7,631.4,379.7,631.9,379.7,630.7z"/>
<path class="st0" d="M379.6,634.8v-0.2C379.6,634.8,379.6,634.8,379.6,634.8z"/>
<path class="st0" d="M379.6,617.5L379.6,617.5z"/>
<path class="st0" d="M379.6,631.4L379.6,631.4z"/>
<path class="st0" d="M379.7,624.4c0,0.4,0,0.9,0,1.5V624.4z"/>
<path class="st0" d="M379.6,634.3v0.1C379.7,634.2,379.6,634.2,379.6,634.3z"/>
<path class="st0" d="M379.6,634.3L379.6,634.3z"/>
<path class="st0" d="M379.5,614.4c0,0.2,0,2.4,0,4.3s0,0.7,0.1-1c0-0.1,0-0.1,0-2c0,0.7,0,4.3,0,2.7c0-2.5,0-2.1,0-3.3
	c0,1.1-0.1-3.3-0.1-2.7v2.2C379.5,614.6,379.5,613.8,379.5,614.4z"/>
<path class="st0" d="M379.7,621.4v0.8c0-0.9,0-1.5,0-2.8c0-1.2,0-1.5,0-1.7v3.9V621.4z"/>
<path class="st0" d="M379.7,625.8c0-0.6,0-2.5,0-1.4c0,2.3,0,1.7,0,3C379.7,623.6,379.7,628.5,379.7,625.8c0,0.7,0,1.4,0,2V625.8
	v0.1l0,0c0,0.2,0,0.2,0,0v-0.2C379.7,624.6,379.7,625.5,379.7,625.8L379.7,625.8c0-1.2,0-2.5,0-3.7C379.7,623,379.7,624,379.7,625.8
	z"/>
<path class="st0" d="M379.5,644.7v-0.1C379.5,644.4,379.5,644.3,379.5,644.7z"/>
<path class="st0" d="M379.5,643.2v1.4c0,0.8,0,0,0,0c0,0.5,0,1.9,0,0.2v-0.3c0-1.5,0-2.9,0-3.2C379.6,641.8,379.6,642.2,379.5,643.2
	z"/>
<path class="st0" d="M379.6,634.4v-3.2v1.6v-0.1C379.6,634.5,379.6,634.2,379.6,634.4z"/>
<polygon class="st0" points="379.6,617.2 379.6,617.6 379.6,615.8 "/>
<polygon class="st0" points="379.6,613.1 379.6,613.2 379.6,612.2 "/>
<path class="st0" d="M360.7,471.3v0.9C360.7,471.8,360.7,471.5,360.7,471.3z"/>
<path class="st0" d="M361,464.6v-0.2C361,464.7,361,464.9,361,464.6z"/>
<path class="st0" d="M378.9,512.6c0-1.4-0.1-2.9-0.1-2.7v0.4L378.9,512.6z"/>
<path class="st0" d="M370.5,444.4l0.1,0.4l0.2,0.9L370.5,444.4z"/>
<path class="st0" d="M370.2,443.5l-0.4-1.7C369.9,442.2,370,442.7,370.2,443.5z"/>
<path class="st0" d="M360.5,507.8l0.1,1.1C360.5,507.2,360.5,508,360.5,507.8z"/>
<path class="st0" d="M379.2,571.2c0-1.2,0-2.1,0-2.9C379.2,569.7,379.2,570.7,379.2,571.2z"/>
<path class="st0" d="M360.6,468.6v0.8C360.6,468.9,360.7,468.5,360.6,468.6z"/>
<path class="st0" d="M379.2,564.9v0.6c0,0.8,0,1.7,0,2.8C379.2,567.2,379.2,566.1,379.2,564.9z"/>
<path class="st0" d="M372.6,639.9v0.3C372.6,640.1,372.6,640,372.6,639.9z"/>
<path class="st0" d="M376.4,678.4l-0.2-1.6C376.2,677,376.3,677.5,376.4,678.4z"/>
<path class="st0" d="M379.5,596.6"/>
<path class="st0" d="M379.5,600.8L379.5,600.8z"/>
<path class="st0" d="M379,556.3L379,556.3z"/>
<path class="st0" d="M379.5,597.9c0-0.3,0-0.7,0-1.1V597.9z"/>
<path class="st0" d="M379.5,597.8L379.5,597.8z"/>
<path class="st0" d="M379.5,595.4c0,0.5,0,1,0,1.4c0-0.2,0-0.2,0-0.2V595.4z"/>
<path class="st0" d="M366,569.2v0.2C366.1,570.2,366.1,569.8,366,569.2z"/>
<path class="st0" d="M377.2,490.1L377.2,490.1z"/>
<path class="st0" d="M376.8,487c0.2,1.3,0.2,2.1,0.3,3.1l-0.1-1L376.8,487z"/>
<path class="st0" d="M361.6,454.6c0,0.6-0.1,1.8-0.2,2.4C361.5,456.3,361.5,455.7,361.6,454.6L361.6,454.6z M371.3,449.1
	c-0.1-0.5-0.2-1.2-0.4-2C371,447.7,371.2,448.4,371.3,449.1L371.3,449.1z M379.3,587.1V587C379.3,585.6,379.3,586.1,379.3,587.1
	L379.3,587.1z M379.3,590.1c0,0.3,0,0.3,0,0.2s0-0.9,0-1.6C379.4,588.8,379.4,589.2,379.3,590.1L379.3,590.1z M366.7,578.4v-0.6
	C366.8,579.1,366.8,578.7,366.7,578.4L366.7,578.4z"/>
<path class="st0" d="M370.2,443.6v-0.3C370.1,443.1,370.1,443.1,370.2,443.6z"/>
<path class="st0" d="M360.5,507.6L360.5,507.6z"/>
<path class="st0" d="M378.9,544.6c0-0.6,0-0.9,0-1.2C378.9,543.4,378.9,543.7,378.9,544.6z"/>
<path class="st0" d="M379.5,605.6v-1.9c0,0.9,0,1.2,0,1.7C379.5,605.4,379.5,605,379.5,605.6z"/>
<path class="st0" d="M379.6,621.9c0,0.3,0,0.6,0,0.8v-0.1C379.6,621.5,379.6,620.7,379.6,621.9z"/>
<path class="st0" d="M379.5,607.3c0,0.2,0,1.3,0,2.7v-0.2C379.5,610.2,379.5,608.8,379.5,607.3z"/>
<path class="st0" d="M379.5,610.3c0,0.4,0,0.8,0,1.2C379.5,611.7,379.5,611,379.5,610.3z"/>
<path class="st0" d="M379.5,593.8c0,0.5,0,0.4,0,0.8C379.5,595.2,379.4,590.4,379.5,593.8z"/>
<polygon class="st0" points="379.5,608.4 379.5,608 379.5,607.2 "/>
<path class="st0" d="M379.4,598v2.7C379.5,599.4,379.4,598.2,379.4,598z"/>
<path class="st0" d="M379.5,600.7c0,0.7,0,1.3,0,1.7C379.5,602,379.5,601.2,379.5,600.7z"/>
<polygon class="st0" points="379.4,605.5 379.4,604.9 379.4,603.4 "/>
<path class="st0" d="M379.2,575.4v-2.3c0-0.2,0,0.4,0,1.2C379.2,574.9,379.2,575.8,379.2,575.4z"/>
<path class="st0" d="M379.2,582.3v-1v-0.1V582.3z"/>
<path class="st0" d="M379.1,575.7c0-0.2,0-3.3,0-0.4C379.1,575.5,379.2,577.8,379.1,575.7z"/>
<polygon class="st0" points="379,541 379,541.6 379,541.5 "/>
<path class="st0" d="M378.7,510.6c0.1,2.6,0,0.7,0.1,3.1c0,0.6-0.1-2,0-1.3C378.7,510.6,378.7,509.8,378.7,510.6z"/>
<path class="st0" d="M378.8,512.3c0,0.3,0,0.5,0,0.8C378.8,512.7,378.8,512.4,378.8,512.3z"/>
<polygon class="st0" points="377,684.8 377.2,686.5 377.1,685.4 "/>
<path class="st0" d="M377.4,688.1v0.4l0.1,1C377.5,689.2,377.5,688.4,377.4,688.1z"/>
<path class="st0" d="M362.1,449.8v-0.1c0,0.3-0.1,0.7-0.1,1.5L362.1,449.8z"/>
<polygon class="st0" points="360.6,473.5 360.6,473.1 360.6,473.8 "/>
<path class="st0" d="M360.3,493.4c0-0.8,0-1.8,0-2.6C360.3,492.6,360.2,493.6,360.3,493.4z"/>
</svg>
