<svg xmlns="http://www.w3.org/2000/svg" viewBox="0 0 203.42 222.87"><path d="M125.24,16.85A57.53,57.53,0,0,1,143.57,35a64.13,64.13,0,0,1,9,24.39,79.13,79.13,0,0,1-9.51,50.82,74.75,74.75,0,0,1-17,20.34,72.77,72.77,0,0,1-23.23,13.07A78.87,78.87,0,0,1,50,142.43,85.11,85.11,0,0,1,26.7,129,68.58,68.58,0,0,1,.77,81.85,75,75,0,0,1,3,54.55,82.46,82.46,0,0,1,7.7,41.73l3.16-6.06c1.23-1.9,2.46-3.82,3.73-5.7a95.14,95.14,0,0,1,8.79-10.33A71.88,71.88,0,0,1,34,11.15,68.75,68.75,0,0,1,46,5,72.46,72.46,0,0,1,58.79,1.36a76.07,76.07,0,0,1,13.14-1A78.8,78.8,0,0,1,84.84,1.85L84.7,3a99,99,0,0,0-12.65.62A79.24,79.24,0,0,0,59.87,6.15,65.47,65.47,0,0,0,38.3,17.3a76.86,76.86,0,0,0-8.76,8.26,86.44,86.44,0,0,0-7.13,9.68,71,71,0,0,0-4.14,67.95A60.38,60.38,0,0,0,32.7,121.74a76.62,76.62,0,0,0,20.42,12.67,70.86,70.86,0,0,0,47.53,2.5,66.25,66.25,0,0,0,21.5-11.21,69.12,69.12,0,0,0,16.24-18.31,74.79,74.79,0,0,0,10.83-47.67,61.18,61.18,0,0,0-7.64-23.67,55.7,55.7,0,0,0-17-18.38Z" style="fill:#b39053"/><path d="M78.05,147.94a79.36,79.36,0,0,1-28.16-5.16,85.39,85.39,0,0,1-23.43-13.49A69.23,69.23,0,0,1,.4,81.89,74.92,74.92,0,0,1,2.61,54.45,83.22,83.22,0,0,1,7.36,41.57l3.17-6.07.62-1c1-1.59,2.07-3.2,3.13-4.77a96.21,96.21,0,0,1,8.83-10.38,72.58,72.58,0,0,1,10.63-8.54A69.93,69.93,0,0,1,45.81,4.62,73.5,73.5,0,0,1,58.72,1,77,77,0,0,1,71.93,0a79.53,79.53,0,0,1,13,1.5l.35.07L85,3.33h-.34a98.27,98.27,0,0,0-12.6.61A79.54,79.54,0,0,0,60,6.51,64.57,64.57,0,0,0,38.53,17.6a76.79,76.79,0,0,0-8.71,8.21,86.78,86.78,0,0,0-7.09,9.63A70.33,70.33,0,0,0,18.61,103,59.59,59.59,0,0,0,33,121.46a75.94,75.94,0,0,0,20.32,12.6,70.65,70.65,0,0,0,47.27,2.49,65.89,65.89,0,0,0,21.38-11.14,68.41,68.41,0,0,0,16.15-18.22,74.71,74.71,0,0,0,10.78-47.43,60.53,60.53,0,0,0-7.6-23.53A55.62,55.62,0,0,0,124.37,18l-.34-.23,1.13-1.39.28.17a58.39,58.39,0,0,1,18.45,18.23,64.13,64.13,0,0,1,9.05,24.53,79.89,79.89,0,0,1-9.55,51.07A75,75,0,0,1,126.3,130.8,72.72,72.72,0,0,1,103,143.93,79.28,79.28,0,0,1,78.05,147.94ZM71.12.73a76.45,76.45,0,0,0-12.27,1A72.77,72.77,0,0,0,46.08,5.32a69.69,69.69,0,0,0-11.93,6.14,71.78,71.78,0,0,0-10.51,8.45,95.37,95.37,0,0,0-8.75,10.28c-1.05,1.56-2.08,3.16-3.11,4.75l-.61.93L8,41.9a83.23,83.23,0,0,0-4.7,12.75A74.5,74.5,0,0,0,1.14,81.81a68.55,68.55,0,0,0,25.79,46.9,84.68,84.68,0,0,0,23.22,13.37,78.7,78.7,0,0,0,52.56,1.14,72,72,0,0,0,23.11-13A74,74,0,0,0,142.73,110a79.1,79.1,0,0,0,9.47-50.57,63.24,63.24,0,0,0-8.95-24.25,57.54,57.54,0,0,0-17.93-17.82l-.19.25a56.64,56.64,0,0,1,16.78,18.27,61.27,61.27,0,0,1,7.68,23.82,75.46,75.46,0,0,1-10.88,47.91A69.37,69.37,0,0,1,122.38,126a66.58,66.58,0,0,1-21.62,11.27A71.46,71.46,0,0,1,53,134.76,76.66,76.66,0,0,1,32.46,122a60.15,60.15,0,0,1-14.52-18.66A71.09,71.09,0,0,1,22.09,35a87.16,87.16,0,0,1,7.16-9.72A77.66,77.66,0,0,1,38.06,17,65.41,65.41,0,0,1,59.76,5.79,79.77,79.77,0,0,1,72,3.2a98.47,98.47,0,0,1,12.37-.63l0-.42A78.31,78.31,0,0,0,71.92.73Z" style="fill:#b39053"/><path d="M110.36,138.93s24.43,24.46,34.9,39.13a346.71,346.71,0,0,0,32.34,39c5.41,5.74,14.47,7.39,20.78,2.66,5.63-4.22,8.08-13.71-4-30.58-6.34-8.87-23-25.28-38.68-38.32A283.5,283.5,0,0,1,126,121.47S101.63,127.51,110.36,138.93Z" style="fill:#b39053"/><path d="M189.89,222.83a17.41,17.41,0,0,1-12.56-5.51,350.38,350.38,0,0,1-32.38-39c-10.33-14.48-34.61-38.84-34.86-39.09l0,0c-1.87-2.45-2.41-4.86-1.6-7.17,2.5-7.1,16.87-10.73,17.48-10.88l.22-.06.15.17a286.78,286.78,0,0,0,29.63,29.32c15.89,13.21,32.55,29.71,38.74,38.38,14.32,20,7.52,28.41,3.92,31.1A14.43,14.43,0,0,1,189.89,222.83Zm-79.25-84.15c.78.79,24.68,24.8,34.93,39.16a347.92,347.92,0,0,0,32.3,39c5.52,5.86,14.43,7,20.29,2.62,3.41-2.56,9.84-10.61-4.08-30.06-6.17-8.63-22.77-25.07-38.62-38.25a286.13,286.13,0,0,1-29.56-29.22c-1.83.49-14.53,4.09-16.73,10.35C108.45,134.29,109,136.46,110.64,138.68Z" style="fill:#b39053"/></svg>