<svg id="Layer_1" data-name="Layer 1" xmlns="http://www.w3.org/2000/svg" viewBox="0 0 203.42 222.87"><title>searchicon</title><path d="M375.54,199a57.53,57.53,0,0,1,18.33,18.11,64.1,64.1,0,0,1,9,24.39,79.13,79.13,0,0,1-9.51,50.82,74.76,74.76,0,0,1-17,20.34,72.77,72.77,0,0,1-23.23,13.07,78.89,78.89,0,0,1-52.81-1.15A85.18,85.18,0,0,1,277,311.15,68.55,68.55,0,0,1,251.07,264a75,75,0,0,1,2.2-27.3A83.07,83.07,0,0,1,258,223.88l3.16-6.06c1.23-1.9,2.46-3.82,3.73-5.7a94,94,0,0,1,8.79-10.33,71.88,71.88,0,0,1,10.57-8.49,68.9,68.9,0,0,1,12-6.18,72.46,72.46,0,0,1,12.84-3.61,76.13,76.13,0,0,1,13.14-1A78,78,0,0,1,335.14,184L335,185.1a99,99,0,0,0-12.65.62,79,79,0,0,0-12.18,2.58,65.38,65.38,0,0,0-21.57,11.15,76.86,76.86,0,0,0-8.76,8.26,86.44,86.44,0,0,0-7.13,9.68,71,71,0,0,0-4.14,67.95A60.29,60.29,0,0,0,283,303.89a76.46,76.46,0,0,0,20.42,12.67,70.86,70.86,0,0,0,47.53,2.5,66.34,66.34,0,0,0,21.5-11.21,69.12,69.12,0,0,0,16.24-18.31,74.77,74.77,0,0,0,10.83-47.67,61.24,61.24,0,0,0-7.64-23.67,55.81,55.81,0,0,0-17-18.38Z" transform="translate(-250.3 -182.15)" style="stroke:#000;stroke-miterlimit:10;stroke-width:0.75px"/><path d="M360.66,321.08s24.43,24.46,34.9,39.13a347.11,347.11,0,0,0,32.34,39c5.41,5.74,14.47,7.39,20.78,2.66,5.63-4.22,8.08-13.71-4-30.58-6.34-8.87-23-25.28-38.68-38.32a284.49,284.49,0,0,1-29.67-29.35S351.93,309.66,360.66,321.08Z" transform="translate(-250.3 -182.15)" style="stroke:#000;stroke-miterlimit:10;stroke-width:0.75px"/></svg>