<svg id="Layer_1" data-name="Layer 1" xmlns="http://www.w3.org/2000/svg" viewBox="0 0 478.7 489.86"><title>shareicon</title><circle cx="79.86" cy="255.95" r="68.83" style="fill:#b39053"/><path d="M213.82,308.54a82.06,82.06,0,0,1-19.49,50.71,70.68,70.68,0,0,1-50.71,25,76.89,76.89,0,0,1-55-20.72,79,79,0,0,1-24.83-55,82.49,82.49,0,0,1,21.53-58.26A75.85,75.85,0,0,1,143.62,226c21.81.54,42,12.51,53.86,28.68A86.34,86.34,0,0,1,213.82,308.54Zm-2.74,0a55.06,55.06,0,0,0-24-43.48c-13.56-9.45-29.19-12.3-43.48-11.63a64.25,64.25,0,0,0-39.07,16,55.48,55.48,0,0,0-18.79,39.07,59,59,0,0,0,15.49,42.37,61.12,61.12,0,0,0,42.37,19.61,67.39,67.39,0,0,0,46.63-15.34A58.8,58.8,0,0,0,211.08,308.54Z" transform="translate(-63.76 -52.6)" style="fill:#b39053"/><circle cx="399.69" cy="82.6" r="68.83" style="fill:#b39053"/><path d="M533.65,135.2a82.06,82.06,0,0,1-19.5,50.71,70.6,70.6,0,0,1-50.7,25,76.84,76.84,0,0,1-55-20.71,79,79,0,0,1-24.83-55,82.47,82.47,0,0,1,21.53-58.26,75.85,75.85,0,0,1,58.27-24.28c21.81.55,42,12.52,53.86,28.69A86.34,86.34,0,0,1,533.65,135.2Zm-2.74,0a55.06,55.06,0,0,0-24-43.48c-13.56-9.45-29.19-12.3-43.48-11.63a64.19,64.19,0,0,0-39.07,16,55.47,55.47,0,0,0-18.79,39.07,59,59,0,0,0,15.49,42.37,61,61,0,0,0,42.37,19.6,67.34,67.34,0,0,0,46.63-15.34A58.78,58.78,0,0,0,530.91,135.2Z" transform="translate(-63.76 -52.6)" style="fill:#b39053"/><circle cx="399.69" cy="406.8" r="68.83" style="fill:#b39053"/><path d="M396.62,437.91a82.08,82.08,0,0,1,34.08-42.3,70.57,70.57,0,0,1,55.91-8.26,76.83,76.83,0,0,1,46,36.54,79,79,0,0,1,6.81,59.93,82.45,82.45,0,0,1-38.33,48.88,75.82,75.82,0,0,1-62.9,5.27c-20.6-7.19-36.15-24.76-42.49-43.79A86.29,86.29,0,0,1,396.62,437.91Zm2.61.84a55,55,0,0,0,9.52,48.73c10,13.16,24,20.65,37.83,24.39a64.29,64.29,0,0,0,42.11-3.32,55.46,55.46,0,0,0,29.84-31.44A59,59,0,0,0,516.75,432a61,61,0,0,0-34.33-31.63,67.38,67.38,0,0,0-49.09.33A58.79,58.79,0,0,0,399.23,438.75Z" transform="translate(-63.76 -52.6)" style="fill:#b39053"/><polygon points="140.26 229.57 126.52 205.85 331.73 87.91 345.47 111.63 140.26 229.57" style="fill:#b39053"/><polygon points="377.1 442.12 126.66 301.04 140.12 277.15 390.57 418.23 377.1 442.12" style="fill:#b39053"/></svg>