<svg id="Layer_1" data-name="Layer 1" xmlns="http://www.w3.org/2000/svg" viewBox="0 0 678.2 745.43"><title>showerhead</title><path d="M302.13,335.67C337.59,325,373,314,408.72,302.92l107.57-33.24.38-.11.41.05L842.7,307l21.5,2.47L843,314.16,725.55,340.43l-58.77,13c-19.58,4.39-39.22,8.49-58.83,12.73l-.69.14-.69-.06c-25.75-2.2-51.53-4.7-77.25-7.28l-76.94-7.91L376.64,343C351.67,340.38,326.75,338,302.13,335.67Zm.9-.1c26.1,2.06,51.92,4,77.68,5.7s51.15,3.38,76.45,4.93l75.26,5.11c25,1.76,50,3.6,74.94,5.73l-1.38.09c19.61-4.28,39.18-8.68,58.82-12.81l58.88-12.51L841.49,307l.34,7.2L516.62,273.46l.78-.06L410.71,304.24C375,314.5,339,324.93,303,335.57Z" transform="translate(-186 -176)"/><path d="M302.94,320.87l.63,14.75-1.27-.95c17.72-5.77,35.38-11.76,53.16-17.35l53.3-16.94,53.41-16.54,53.51-16.2.8-.24.86.1c27.12,3.2,54.19,6.86,81.24,10.63l81.18,11.21q40.62,5.45,81.33,10c27.12,3.21,54.29,6,81.46,8.86l-2.7,2.19,1.63-22.06,2.5,3c-27.26-2.31-54.49-4.83-81.73-7.38L680.59,276c-27.22-2.63-54.44-5.3-81.64-8.18S544.57,262,517.38,259l1.79-.17-53.45,15.68C447.86,279.71,430,285,412,290.07L357.8,305.5Zm-.73-.54L355,302.66l53.44-17.61c17.85-5.95,35.9-11.67,53.91-17.48l54.19-17.36.84-.27,1,.09c27.21,2.7,54.44,5.27,81.64,8.17s54.39,5.8,81.57,8.83l81.54,9.11c27.17,3.12,54.34,6.28,81.48,9.64l2.79.35-.29,2.68-2.38,22-.27,2.51L842,313c-27.06-3.68-54.13-7.36-81.24-10.66q-40.63-5.19-81.38-9.54l-81.53-8.32c-27.18-2.74-54.34-5.58-81.45-8.89l1.65-.14-53.63,15.84-53.72,15.5-53.84,15.1c-17.93,5.09-36,9.78-54,14.69l-1.32.36,0-1.31Z" transform="translate(-186 -176)"/><path d="M549.55,257.83a47.07,47.07,0,0,1-3-12.32l-.26-2.22,2.58-1a28.24,28.24,0,0,1,5.66-1.56,36.87,36.87,0,0,1,5.39-.54,33.19,33.19,0,0,1,10.53,1.72c3.51,1,6.85,2.22,10.22,3.26,1.68.57,3.36,1.15,5,1.86a26.4,26.4,0,0,1,2.54,1.18,12.5,12.5,0,0,1,2.64,1.72l.32.29.26,1.3c.32,1.67.68,3.34,1,5s.47,3.34.64,5l.41,4.18-4.94-.1c-3.51-.07-7.08-.2-10.67-.44a77.25,77.25,0,0,1-10.49-1.6c-3.35-.77-6.62-1.59-9.62-2.57A57.47,57.47,0,0,1,549.55,257.83Zm.68-.61c4.16-.52,7.85-.88,11.34-1.17s6.75-.47,9.9-.57a58.35,58.35,0,0,1,9,.4c2.92.43,5.85,1,8.85,1.56l-4.52,4.09c.16-1.67.34-3.34.64-5s.65-3.34,1-5l.57,1.59a6.77,6.77,0,0,0-1.21-1.61,15.64,15.64,0,0,0-1.77-1.54,16.61,16.61,0,0,0-4.3-2.19,19.88,19.88,0,0,0-9.76-.59,84.72,84.72,0,0,1-9.87,1.19l-4.78.12c-1.5.05-3.3.16-4.37.25l2.32-3.22C552.75,248.75,551.5,252.19,550.23,257.22Z" transform="translate(-186 -176)"/><path d="M257.1,911.51c-1.4-6.6-1.56-13-2.06-19.44l-1.12-19.37Q253,853.33,252.49,834c-.75-25.83-1.06-51.66-1.22-77.5-.61-51.66,2.07-103.32,2.87-155s-.64-103.31-1.3-155c-.31-25.83-.37-51.66-.4-77.49l-.05-38.74.27-38.74v-.27l0-.17a99,99,0,0,1,7-26.55,57.78,57.78,0,0,1,7.06-12.28A34.48,34.48,0,0,1,278,242.47a27.62,27.62,0,0,1,3.55-1.59c1.16-.39,2.63-.83,3.58-1.06l6.28-1.59L304,235l25.23-6.52,101-26.07c16.83-4.35,33.71-8.49,50.58-12.69l25.35-6.18,12.73-3,3.21-.7a35.74,35.74,0,0,1,3.67-.61,18.05,18.05,0,0,0,2.79-.41l3.18-.65c8.56-1.75,17.6-3,26.59-1.38a28.13,28.13,0,0,1,12.49,5.51,25.18,25.18,0,0,1,7.79,11.12,47.09,47.09,0,0,1,2.51,13.05l1.07,13,.91,13,.33,6.52.1,3.27v1.65l0,.83,0,.43,0,.23c0,.13.07,0-.17.45l-.65-.65c-.19.28-.05.07-.08.06v-.17l0-.39v-.8l-.05-1.61-.18-3.24-.52-6.48-1.26-13-1.4-13a43.14,43.14,0,0,0-2.81-12.36,22.44,22.44,0,0,0-7.32-9.71,25.09,25.09,0,0,0-11.29-4.47c-8.26-1.22-16.76.32-25.1,2.24l-3.19.74a21.87,21.87,0,0,1-3.64.6l-2.73.59L520,185l-12.57,3.3-25.13,6.86L432,209.13,331.51,236.87l-25.14,6.9-12.61,3.38-6.34,1.67a20.44,20.44,0,0,0-5,1.89c-6.25,3.33-10.82,10.18-13.94,17.58A89.82,89.82,0,0,0,262.36,292l0-.43-.33,38.73-.62,38.74c-.39,25.82-.79,51.64-1.42,77.47-1.3,51.64-3.29,103.29-2.91,154.94s2.79,103.32,2.22,155q-.18,38.73-.73,77.46L258,872.64,257.64,892l0,9.68a72.38,72.38,0,0,0,.35,9.51Z" transform="translate(-186 -176)"/><path d="M553.44,243.47a125.77,125.77,0,0,0-.34-14.79,68.91,68.91,0,0,0-2.53-14.4,20.93,20.93,0,0,0-3-6.28,6.88,6.88,0,0,0-5.17-3,43.9,43.9,0,0,0-7,1l-7.25,1.54c-19.29,4.42-38.56,9.19-57.77,14.08s-38.44,9.83-57.61,14.88-38.34,10.18-57.43,15.5-38.25,10.62-56.69,17.08c-2.28.83-4.55,1.7-6.61,2.63a15.23,15.23,0,0,0-2.28,1.19,1.9,1.9,0,0,0,.2-.22,3.15,3.15,0,0,0,.7-1.92v2.56l-.07,14.89c-.13,9.92-.21,19.84-.51,29.77-.95,39.69-2.6,79.38-2.36,119.08,0,39.69,1.29,79.38,2,119.08s.81,79.39,1.11,119.08c.13,39.69-.39,79.39-1.16,119.08L289,824.05l-.84,29.77c-.51,19.84-1.28,39.69-2.18,59.53h-.91c-.84-19.84-1.55-39.69-2-59.54L282.36,824l-.47-29.77c-.66-39.69-1.05-79.39-.8-119.08.43-39.69.67-79.39,1.48-119.08s2.24-79.38,2.33-119.08c.37-39.69-1.16-79.38-2-119.07-.27-9.93-.32-19.85-.42-29.77l0-14.89v-1.86l0-1.16a4.67,4.67,0,0,1,1.09-2.74,6,6,0,0,1,.86-.88,18.62,18.62,0,0,1,4.2-2.42c2.47-1.11,4.85-2,7.24-2.84,19.07-6.53,38.21-11.64,57.41-16.88q57.65-15.28,115.77-28.33c19.4-4.28,38.78-8.62,58.37-12.18l7.37-1.25a43.33,43.33,0,0,1,7.77-.77,9.77,9.77,0,0,1,7.12,4.44,23.66,23.66,0,0,1,3.15,7.18,65.35,65.35,0,0,1,2,15,128.77,128.77,0,0,1-.45,15Z" transform="translate(-186 -176)"/><path d="M351.09,534.93c4,5.71,7.68,10.74,10.88,15.74l-4.26-.54c12.91-16.47,26.24-32.55,41.68-46.76a239.65,239.65,0,0,0,21.51-22.78c3.33-4,6.5-8.17,9.45-12.42.72-1.07,1.43-2.15,2.08-3.21a17,17,0,0,0,.83-1.5c0-.06.09-.22.07-.21a.31.31,0,0,0-.05.1,2.1,2.1,0,0,0,.05,1.23l-.39-1c-.89-2.55-1.69-4.94-2.65-7.22a31.08,31.08,0,0,0-1.53-3.16A6.83,6.83,0,0,0,428,452c-.11-.11-.25-.33-.27-.26s-.12-.07.18.16c.14.09.19.05.43.15a1.45,1.45,0,0,0,.77.07,1.42,1.42,0,0,0,.9-.31l-.95,1.06-2.5,2.86L416.4,467.58c-6.78,7.92-13.55,15.88-20.7,23.49S381.33,506.24,374,513.65c-3.73,3.67-7.46,7.34-11.29,10.93-1.88,1.83-3.86,3.56-5.79,5.34L354,532.58A24.46,24.46,0,0,1,351.09,534.93Zm-.9-.11c.85-1.46,1.57-2.42,2.31-3.53l2.26-3.22c1.53-2.14,3-4.32,4.57-6.42,3.09-4.24,6.27-8.4,9.46-12.56,6.46-8.24,13-16.41,19.82-24.33s13.86-15.64,21.08-23.24c3.63-3.77,7.24-7.55,11-11.29l2.89-2.82,1.88-1.66a6.36,6.36,0,0,1,2.68-1.05,7.24,7.24,0,0,1,1.74.09,4.39,4.39,0,0,1,1.32.52,5.53,5.53,0,0,1,1.72,1.35,6.91,6.91,0,0,1,1,1.26,14.56,14.56,0,0,1,1.15,2.25,30.43,30.43,0,0,1,1.34,4.13c.69,2.66,1.17,5.34,1.65,7.83l.17.84a3.3,3.3,0,0,1,0,1.72l-.21.55a7,7,0,0,1-.38.66,20.36,20.36,0,0,1-1.33,1.77c-.87,1.07-1.75,2.06-2.64,3.05l-10.52,11.72c-6.95,7.82-13.42,16-19.62,24.52-12.2,17.13-26.75,32.18-41.87,46.7l-2.82,2.71-1.44-3.25C354.53,546.77,352.17,540.45,350.19,534.82Z" transform="translate(-186 -176)"/><path d="M204.57,704.65l1.07.42c.3.13.6.25.88.4.56.29,1.13.6,1.67.95a22.13,22.13,0,0,1,3,2.35,25.15,25.15,0,0,1,4.83,6.09,24.54,24.54,0,0,1,3.22,15.27c-.75,5.09-2.91,9.7-4.76,14.25a34.65,34.65,0,0,1-3.57,6.69,10.89,10.89,0,0,1-3.17,2.9,7.37,7.37,0,0,1-5,.75,12.91,12.91,0,0,1-4.23-2,26.63,26.63,0,0,1-3.13-2.35,29.81,29.81,0,0,1-5.17-6,26.59,26.59,0,0,1-3.54-7.59,18.4,18.4,0,0,1-.3-9.05l.67-2.25c.29-.72.63-1.41,1-2.11.61-1.18,1.09-1.91,1.64-2.93,1-1.92,2-4,3.17-6.07a34.67,34.67,0,0,1,4.08-6.48,10.93,10.93,0,0,1,3.35-2.7A7.34,7.34,0,0,1,204.57,704.65Zm-.23.88a9.13,9.13,0,0,0-2.2,2.08,10.29,10.29,0,0,0-1.16,2.67c-.54,2-.89,4.2-1.35,6.51a55,55,0,0,1-1.81,7.14c-.32,1.17-.94,2.52-1.27,3.49-.11.4-.23.78-.37,1.16l-.24,1.16a17.94,17.94,0,0,0,1.78,10.38,41.08,41.08,0,0,0,3.14,5.38,26.77,26.77,0,0,0,3.49,4.49,2.4,2.4,0,0,0,1.91.43,4.78,4.78,0,0,0,2.35-1.38,12.5,12.5,0,0,0,3.13-5.64c1.21-4.35.41-9.16-.05-13.47-.48-4.16-.8-8.16-2.11-12.19a51.79,51.79,0,0,0-2.24-6.09C206.49,709.66,205.21,707.49,204.34,705.53Z" transform="translate(-186 -176)"/><path d="M209.47,751.85c3.77-.35,7.54-.53,11.32-.8s7.54-.38,11.31-.5,7.56-.77,11.31-.19a36.67,36.67,0,0,1,11.16,3.14l0,.61a37,37,0,0,1-11.38,2.31c-3.77.31-7.5-.62-11.24-1s-7.49-.83-11.24-1.32-7.49-1-11.23-1.63Z" transform="translate(-186 -176)"/><path d="M286.59,706.73c7.53-.94,15.05-1.26,22.56-1.47s15-.19,22.53.22l.59,0,.4.19c5.56,2.6,11.26,5.46,17.17,7a16,16,0,0,0,4.38.56l1-.14c.36,0,.86-.19,1.28-.28a8,8,0,0,1,2.68,0c3.55.74,6.17,3,8.35,5.58l.19.23v.38a101.2,101.2,0,0,1-.59,13.47A42,42,0,0,1,363.67,746a24.46,24.46,0,0,1-1.84,3.2l-1.11,1.54-1.37,1.41a16.21,16.21,0,0,1-3.23,2.44,15.76,15.76,0,0,1-2.07.85l-1.83.47a92.84,92.84,0,0,1-13.58,1.59,259.63,259.63,0,0,1-26.62-.17c-8.85-.45-17.67-1.24-26.48-2.5v-.6c8.84-1,17.66-1.54,26.47-2l26.3-1.2c4.31-.28,8.75-.33,12.74-1,3.39-.19,6-3.09,8-6.47,3.92-7,6-15.93,6.54-24.52l.19.6c-1.67-2.33-4.19-4.51-6.95-4.94a6.64,6.64,0,0,0-2,.05l-1,.27c-.44.12-.9.24-1.35.33a24.35,24.35,0,0,1-5.06-.08,67.89,67.89,0,0,1-9.58-1.88,78.86,78.86,0,0,1-9.24-3l1,.22c-7.51.06-15-.34-22.51-.83s-15-1.25-22.46-2.54Z" transform="translate(-186 -176)"/><path d="M204.46,704.79c4-.39,8-.62,12-.93l12-.63c4-.17,8-.86,12-.32a41.16,41.16,0,0,1,12,3l0,.61A41,41,0,0,1,240.43,709c-4,.35-8-.53-12-.89l-12-1.19c-4-.5-8-.92-12-1.5Z" transform="translate(-186 -176)"/><path d="M440.16,558.11c-4.78,14.82-10.3,29.4-16.06,43.83q-4.34,10.81-9,21.52c-1.5,3.59-3.05,7.15-4.68,10.68s-3.23,7.07-4.93,10.56c-6.76,14-14.43,27.6-21.21,41.59-3.41,7-6.64,14.06-9.88,21.14-1.59,3.56-3.19,7.08-4.95,10.66-.23.46-.46.91-.76,1.4a4.06,4.06,0,0,1-.77,1,2.64,2.64,0,0,1-.65.38L367,721l-.41.08c-.25,0-.4,0-.59,0a18.6,18.6,0,0,1-3.28-.32c-2-.33-4-.75-5.9-1.24a101.55,101.55,0,0,1-11.43-3.6,52.24,52.24,0,0,1-11.07-5.57,18.48,18.48,0,0,1-5.11-5.08,9.35,9.35,0,0,1-1.46-4.53,10.35,10.35,0,0,1,.21-2.28c.12-.75.25-1.14.38-1.69,1-4.06,2.27-7.7,3.51-11.45,5-14.82,10.43-29.4,16.21-43.85s12-28.68,18.56-42.81,13.28-28.15,20.62-41.93l.84.35c-9.09,29.85-19.81,59-31,88l-17.33,43.12c-1.36,3.56-2.8,7.23-3.9,10.63-.12.39-.31.92-.34,1.14l-.15.59a2,2,0,0,0,.24,1,11.52,11.52,0,0,0,2.9,3.28c5.4,4.38,12.58,7.69,19.63,10.3,1.78.63,3.58,1.24,5.37,1.69a16.54,16.54,0,0,0,2.48.47h.13l-.05,0-.1,0a1.16,1.16,0,0,0-.49.29c-.22.22,0,0,.11-.16.23-.32.48-.72.72-1.11,1.95-3.24,3.67-6.76,5.44-10.19q5.15-10.42,9.71-21.16c6.1-14.28,11.11-29.06,17-43.43,1.46-3.6,2.95-7.19,4.53-10.73s3.13-7.11,4.77-10.63q4.81-10.62,9.89-21.1c6.82-14,13.71-27.9,21.65-41.42Z" transform="translate(-186 -176)"/><path d="M435.81,463.33c32.1-1.3,64.38-2.6,96.62-.17,8.06.71,16.11,1.68,24.17,3.06,4,.8,8,1.31,12.24,3a7.83,7.83,0,0,1,1.77,1.05,3.1,3.1,0,0,1,1,1.45,2.69,2.69,0,0,1-.15,1.91,22.94,22.94,0,0,1-1.66,2.84c-1.12,1.75-2.34,3.36-3.49,5-9.46,13.13-19.13,26-29.11,38.78s-20.73,25.06-33.74,35.46a90.48,90.48,0,0,1-10.36,7.29,40.85,40.85,0,0,1-12.55,5.15,18.79,18.79,0,0,1-3.76.45,24.07,24.07,0,0,1-3.32,0c-2-.1-4.11-.18-6.13-.33-4.06-.27-8.1-.55-12.13-.94q-24.15-2.45-48-6.2c-15.93-2.48-31.81-5.36-47.6-8.82l.12-.91c32.28,1,64.37,3.82,96.32,6.27l11.94.92c2,.16,3.95.24,5.92.35a24.26,24.26,0,0,0,2.71.08,10.2,10.2,0,0,0,2.22-.19,32.25,32.25,0,0,0,9.78-3.72,84.32,84.32,0,0,0,9.62-6.2,207.85,207.85,0,0,0,18.06-15.22c5.82-5.4,11.6-10.93,17.16-16.7a263.09,263.09,0,0,0,30.43-37.17c1.11-1.65,2.14-3.37,3.1-5.07a20,20,0,0,0,1.23-2.45l.06-.14a.48.48,0,0,0-.06.16,2,2,0,0,0,0,.44c.15.33.1.27.1.27a4,4,0,0,0-.88-.37A54.27,54.27,0,0,0,556,471.21c-7.94-.4-16-.38-24-.49-16-.26-32.07-1-48.14-1.82-8-.44-16.07-.95-24.11-1.65s-16.09-1.34-24.12-3Z" transform="translate(-186 -176)"/><path d="M569.92,472.79c-1.76-2.67-3.49-5.34-5.31-7.9s-3.78-5.25-5.77-6.6c-.22-.13-.46-.27-.47-.21a3.42,3.42,0,0,0-.71,0l-2.12,0-4.72,0c-3.17.06-6.32,0-9.49,0-6.33.05-12.66-.2-19-.29l-19-.74c-12.65-.62-25.27-1.61-37.88-2.89s-25.21-2.88-37.76-5.38c12.73-1.29,25.43-1.66,38.11-1.71s25.34.23,38,.9c6.32.42,12.64.76,19,1.25s12.63,1,18.94,1.81c3.15.37,6.32.69,9.47,1.14l4.75.71c.74.11,1.66.26,2.6.45a5.58,5.58,0,0,1,3.1,1.55c2.69,2.94,3.81,5.82,5.14,8.82A77.08,77.08,0,0,1,569.92,472.79Z" transform="translate(-186 -176)"/><path d="M339.17,887.32c-.77-13.42-1.44-26.88-1.58-40.36s.19-27,.79-40.5A181.34,181.34,0,0,1,340,786.18a169,169,0,0,1,4.44-19.89c1-3.26,2-6.5,3-9.63a23.46,23.46,0,0,0,1.1-4.3c0-.52.12-.68-.44-1a5.47,5.47,0,0,0-2.23-.36c-6.46,0-13,2.26-18.9,5l.45-.56c-3.54,13.44-6.21,27.16-8.4,40.92s-3.76,27.64-4.75,41.54-1.35,27.87-.93,41.8A343.42,343.42,0,0,0,317,921.29l-.89.14a341.21,341.21,0,0,1-3.89-41.74c-.49-14-.19-28,.71-41.93s2.45-27.86,4.55-41.69,4.73-27.56,8.23-41.15l.11-.4.35-.16c6.19-2.85,12.71-5.18,19.74-5.24l2.77.15a3.2,3.2,0,0,1,1.73.77,4,4,0,0,1,1.06,1.67,16.94,16.94,0,0,1,.54,5.7c-.09,3.49-.43,6.83-.69,10.17-.65,6.66-1.25,13.27-2,19.87s-1.89,13.15-2.86,19.75c-1.85,13.22-3,26.56-4,39.92s-1.88,26.77-2.43,40.2Z" transform="translate(-186 -176)"/></svg>