<svg id="Layer_1" data-name="Layer 1" xmlns="http://www.w3.org/2000/svg" viewBox="0 0 924 483.92"><title>taps</title><path d="M554,427.06c.81,23.72,1.21,47.47,1.44,71.21,0,23.75-.21,47.49-.52,71.23s.06,47.52-2,71.18-4.46,47.31-9.1,70.8l-1.18-.07c-1.85-23.86-1.88-47.59-1.52-71.3s2.88-47.32,4.31-71,2.89-47.32,4.06-71c1.34-23.67,2.52-47.36,3.28-71.07Z" transform="translate(-84 -295.62)" style="fill:#1d1d1b"/><path d="M548.58,343.37c2.87,9.54,4,19.46,5.14,29.3a114.86,114.86,0,0,1,1.17,14.81,77.44,77.44,0,0,1-1.57,14.87h-.44a90.6,90.6,0,0,1-2.42-14.71c-.47-4.91-.21-9.84-.28-14.76s-.25-9.83-.56-14.74a116.44,116.44,0,0,0-1.47-14.67Z" transform="translate(-84 -295.62)" style="fill:#1d1d1b"/><path d="M466.3,714.37l-2.94-94.58L461,525.21c-.75-31.52-1.4-63.05-2.52-94.57-.34-15.77-.72-31.53-.45-47.29s.83-31.53,1.56-47.29l.28-5.88,4.89-1.29a182.48,182.48,0,0,1,20.61-4.29,159.79,159.79,0,0,1,20.89-1.74A82.91,82.91,0,0,1,527.4,325c6.84,1.65,14,4.72,18.41,10.43l-1.25,1.25c-5.29-3.93-11.8-5-18.13-5.31a92.77,92.77,0,0,0-19.26,1.49c-6.4,1.2-12.79,2.55-19.09,4.36s-12.67,3.75-18.51,6l5.17-7.16c.73,15.76,1.32,31.52,1.56,47.29s-.11,31.52-.45,47.29c-1.12,31.52-1.77,63.05-2.52,94.57L471,619.79l-2.95,94.58Z" transform="translate(-84 -295.62)" style="fill:#1d1d1b"/><path d="M551.56,402c2.38-2.56,5.26-3.81,8.07-5.23s5.72-2.54,8.61-3.7q8.68-3.49,17.53-6.39c11.78-3.92,23.68-7.38,35.64-10.57,23.91-6.37,48-12.16,72.34-16.39s48.94-7.29,73.27-11.6l36.49-6.59,9.19-1.6,4.68-.68,2.46-.24c.43,0,.86-.05,1.38,0a4.2,4.2,0,0,1,2.55.71,9.77,9.77,0,0,1,3.77,5.2,19.14,19.14,0,0,1,.92,5.42,40.15,40.15,0,0,1-1,10.14l-.39,1.75-2,.68c-22.15,7.45-44.47,14.3-66.89,20.79s-44.83,13.07-67.48,18.76-45.41,11-68.35,15.59c-11.48,2.29-23,4.3-34.59,6.16-5.79,1-11.62,1.65-17.48,2.24-2.94.28-5.88.52-8.85.62a42.21,42.21,0,0,1-4.49-.07,17.22,17.22,0,0,1-2.3-.33c-.64-.27-1.93-.24-2.18-1.83h1.18c.08.27,2.07.43,3.3.25,1.41-.12,2.82-.37,4.24-.59,2.84-.48,5.67-1.1,8.49-1.76,5.65-1.3,11.25-2.88,16.89-4.29,11.25-2.91,22.44-6.18,33.65-9.32l67.31-18.76c22.47-6.16,45.08-11.81,67.68-17.55s45.2-11.46,67.94-16.72l-2.44,2.44a32.48,32.48,0,0,0,1.52-8.15c.13-2.67-.44-5.2-1.59-6.06.91.4.59.16.34.19s-.59,0-.93-.05l-2.16,0-4.52.31c-3,.26-6.1.56-9.14,1q-18.3,2.4-36.47,6c-24.21,4.71-48.05,11.3-72,17.32s-48.08,10.84-72.16,16l-36.1,7.74c-6,1.38-12,2.65-18,4.11-3,.74-5.94,1.53-8.86,2.43s-6,1.72-8.18,3.39Z" transform="translate(-84 -295.62)" style="fill:#1d1d1b"/><path d="M545.19,336.06c14.17-7.25,28.57-14,43-20.56s29-12.94,43.59-19.19l1.6-.69,1.25,1c2.18,1.76,4.1,3.7,4.65,7.24a7.19,7.19,0,0,1-.17,2.61l-.18.65a5.39,5.39,0,0,1-.76,1.22,2.91,2.91,0,0,1-.66.64l-.45.34a27.74,27.74,0,0,1-3.1,1.87c-3.92,2.08-7.8,3.82-11.71,5.6-7.87,3.4-15.73,6.72-23.7,9.77l-23.94,9.06c-8.07,2.77-16.08,5.71-24.24,8.24,7.65-3.81,15.42-7.3,23.11-11l23.26-10.59,23.16-10.64c3.83-1.79,7.7-3.59,11.28-5.55a21.57,21.57,0,0,0,2.37-1.44l.19-.14c.09-.05.15-.13-.08.11a1.09,1.09,0,0,0-.26.59l0-.12a1.44,1.44,0,0,0,0-.55c0-.76-1.13-2.31-2.23-3.15l2.84.32c-14.66,6.1-29.32,12.19-44.16,17.85S560.27,331,545.19,336.06Z" transform="translate(-84 -295.62)" style="fill:#1d1d1b"/><path d="M166.16,718.42,147,754.26l-1.57-2.69c32.12-1.34,64.25-2.26,96.38-3.17s64.25-1.71,96.39-2.28C402.44,744.7,466.71,743.77,531,744s128.57.77,192.85.09c32.13-.29,64.26-1.08,96.4-1.6l96.38-2.63L914.14,746l-38-36.28,3.19,1.28q-88.87,2.5-177.57,4.23c-59.1,1.48-118.33,2-177.56,2.78q-44.38.68-89,.71l-89.23.39L256.3,719Zm-.6-1L253.75,714l88.71-3,89.11-2.45c29.71-.87,59.49-1.63,89.34-2.12,59.67-1.11,119.33-2.49,179.13-2.9q89.61-1,179.11-1.43h1.92l1.26,1.28,36.87,37.47,6.09,6.19h-8.57l-96.43-.16c-32.13.31-64.27.35-96.41.89-64.26,1-128.52,3.15-192.77,5s-128.53,2.6-192.81,2.84c-32.14.25-64.27.42-96.42.19-32.14-.07-64.28-.17-96.43-.69l-3.17,0,1.59-2.64C151.1,740.54,158.41,728.84,165.56,717.4Z" transform="translate(-84 -295.62)" style="fill:#1d1d1b"/><path d="M84,771l231-1.71,231-1.12c77-.43,154-1.53,231-.54,77,1.3,154,2.37,231,6v1.18c-77,3.17-154,3.8-231,4.66-77,.56-154-1-231-1.83l-231-2.42-231-3Z" transform="translate(-84 -295.62)" style="fill:#1d1d1b"/><path d="M781.37,372.32c.11,2,.38,4.74,1.58,6.54,1.22,2,3.21,2.32,5.58,1.9,4.7-.64,9.42-1.73,14.06-2.84,2.32-.59,4.63-1.22,6.87-1.94s4.72-1.62,5.85-2.52c.07,0,0-.15-.28.49a1.86,1.86,0,0,0,.12,1.29c.2.3-.12-.17-.15-.21l-1.07-1.66-1.87-3.24c-1.18-2.17-2.36-4.3-3.41-6.54l3.63,1.63a114.9,114.9,0,0,1-14.6,4.12C792.59,370.44,787.27,371.42,781.37,372.32Zm-.46-.37a149.43,149.43,0,0,1,13.92-6.77,132.17,132.17,0,0,1,15.62-5.63l2.66-.74,1,2.36,2.74,6.62,1.45,3.21.75,1.48.31.58a2.83,2.83,0,0,1,.2,2.15,3.65,3.65,0,0,1-1.39,1.89c-2.92,1.8-5.11,2.07-7.6,2.77s-4.83,1-7.25,1.44a104.74,104.74,0,0,1-14.62,1.57,9.51,9.51,0,0,1-4-.53,5.8,5.8,0,0,1-2.94-2.83A12.84,12.84,0,0,1,780.91,372Z" transform="translate(-84 -295.62)" style="fill:#1d1d1b"/><path d="M467.21,367c13.65.67,27.33.85,40.92.41,6.79-.32,13.52-1.07,20.22-1.54,6.68-.65,13.34-1.08,19.63-3.7l.27.35a25.32,25.32,0,0,1-9.17,5.23,61.64,61.64,0,0,1-10.21,2.52c-6.9,1.07-13.84.84-20.72.69a352.82,352.82,0,0,1-41-3.52Z" transform="translate(-84 -295.62)" style="fill:#1d1d1b"/></svg>