<svg id="Layer_1" data-name="Layer 1" xmlns="http://www.w3.org/2000/svg" viewBox="0 0 443.12 951"><title>tree1</title><path d="M417.33,316.76c-25.15,24.71-48.78,51.64-65.12,82.8-16.43,30.95-25.1,65.8-22.38,100.16,4,68.95,42,133.7,99.72,170.53,28.55,18.69,61.77,30.89,96.3,33.58,34.34,2.94,70.06-1.59,101.84-16.3,64.16-28,111.61-91.13,120.18-160l1.61-12.85.34-13a91.72,91.72,0,0,0-.11-12.85c-.35-4.23-.42-8.48-1.31-12.63a155.16,155.16,0,0,0-16.12-48C716.45,398,692.76,371.83,671,343.52c-5.47-7.07-10.85-14.3-16-21.74a44.38,44.38,0,0,1-3.93-6.46l-1.9-3.62-1.29-3.49a111.08,111.08,0,0,1-4.15-13.87c-4.12-18.26-5.63-36.21-6.8-54.17s-1.32-35.83-1-53.73c.19-9.47.44-16.74-1.06-24.78-1.08-8-3.67-15.6-6.69-23C615.55,109,586.64,87,554.49,82.64c-16.06-2.55-32.71-.36-48.1,5.09a100.08,100.08,0,0,0-40.23,28.11c-10.75,12.73-18.67,28.22-21.66,45-1.84,8.26-1.73,17-2.46,25.93s-1.27,17.72-2.09,26.56c-1.73,17.66-3.4,35.34-6.33,52.87-1.53,8.74-2.9,17.53-5.28,26.13S423.69,309.77,417.33,316.76Zm-1.27-1.3c5.68-6.36,7.92-15.34,10.15-23.7a224.69,224.69,0,0,0,4.75-26c2.15-17.51,3.55-35.13,4-52.79q.4-13.25.43-26.48c.17-8.67-.52-17.82.9-27a107.78,107.78,0,0,1,20.57-51.11,109,109,0,0,1,43.83-34.83c17.47-7.41,37-10.75,56.05-8.27,38.45,3.91,73.4,30.1,89.11,65.53A107.23,107.23,0,0,1,654,158.62c1.79,9.41,1.45,20,1.25,28.15-.28,17.49-.1,35,.59,52.43s2.06,34.84,5.47,51.19A92.7,92.7,0,0,0,664.49,302l.94,2.76,1.18,2.26a27,27,0,0,0,2.87,4.91c4.8,7.19,9.87,14.25,15.11,21.27,20.9,28,44.51,55.53,60.57,88.69,8,16.47,13.69,34.42,15.52,52.82.73,4.57.63,9.2.79,13.8a102,102,0,0,1-.5,13.68l-1,13.56-2.3,13.4c-12.44,71.67-62.33,133.93-127.55,163.73-64.73,30.51-145.66,28.79-208.58-9.83-31.61-18.62-57.7-46.22-75.85-78.06-4.81-7.82-8.13-16.45-12.15-24.66l-4.48-13a89.78,89.78,0,0,1-3.89-13.15L322,540.83c-1.09-4.44-1.27-9.05-1.93-13.56-.43-4.54-1.34-9-1.37-13.58l-.27-13.64c-.49-36.55,11-72.43,29.63-102.82C366.66,366.63,390.69,340.13,416.06,315.46Z" transform="translate(-318.44 -64.5)" style="fill:#1d1d1b"/><path d="M562.62,1013.9h-.28c-5.65-.16-10.09,4.41-9.94-1.22.07-2.52,6.75-261.8,6.75-339.44,0-66.63-24.62-142.71-50.68-223.24-4-12.2-7.92-24.44-11.8-36.68-29.83-94.08,9.52-227.44,11.2-233.07a10.26,10.26,0,0,1,12.71-6.84c5.41,1.62,5.43,7.31,3.81,12.71-.4,1.32-38,123.14-10.11,211.19,3.87,12.19,9.67,34.24,13.61,46.4,26.58,82.12,51.68,159.68,51.68,229.53,0,77.91,1.27,336.17,1.21,338.69C580.64,1017.47,568.12,1013.9,562.62,1013.9Z" transform="translate(-318.44 -64.5)" style="fill:#1d1d1b"/><path d="M372.85,444.1a521.1,521.1,0,0,1,58.82,31.55c18.84,11.89,37.22,24.7,54.19,39.36s33.71,30,46.23,49c12.25,19,22.1,40.06,24.78,62.46a.46.46,0,0,1-.4.51.49.49,0,0,1-.49-.32,222.5,222.5,0,0,0-31.29-57.39,370.61,370.61,0,0,0-43.64-48.86c-16.05-15.05-33.68-28.45-51.86-41a519.82,519.82,0,0,0-56.72-34.52.44.44,0,0,1-.22-.6A.48.48,0,0,1,372.85,444.1Z" transform="translate(-318.44 -64.5)" style="fill:#1d1d1b"/><path d="M394.46,511.51a170.69,170.69,0,0,1,41.87-8.26c7.16-.36,14.61-1.28,21.82.79s14.28,5.17,19.27,10.89a.49.49,0,0,1-.05.68.51.51,0,0,1-.41.1c-7.29-1.23-13.74-2.08-20.42-2.75s-13.29-2-20.16-2.45a169.38,169.38,0,0,0-20.77.05,196.61,196.61,0,0,0-20.93,1.83.45.45,0,0,1-.52-.37A.47.47,0,0,1,394.46,511.51Z" transform="translate(-318.44 -64.5)" style="fill:#1d1d1b"/><path d="M566.11,623.1a220.77,220.77,0,0,1,40.25-78.63,133.84,133.84,0,0,1,32.76-30.78l9.81-5.66c3.43-1.59,6.93-3,10.45-4.37,6.83-3.13,14.49-4.13,21.68-5.63a.45.45,0,0,1,.31.84l0,0c-13.1,7.08-25.81,13.42-37.09,22.29-11.23,8.64-22.77,17.19-32.36,28a218.94,218.94,0,0,0-25.74,34.87A224,224,0,0,0,567,623.35a.46.46,0,0,1-.57.31A.48.48,0,0,1,566.11,623.1Z" transform="translate(-318.44 -64.5)" style="fill:#1d1d1b"/><path d="M535.87,477.92a198.34,198.34,0,0,1,65.54-46.57c12.34-5.68,25.57-10.09,39.27-11.46l10.28-.67c3.44.21,6.87.29,10.28.65,6.82.25,13.51,2.31,20,4a.46.46,0,0,1-.07.9h-.06c-13.53,1.16-26.45,1.34-39.2,4.15-12.66,2.42-25.52,4.62-37.82,9.21a216.83,216.83,0,0,0-67.58,40.45.45.45,0,0,1-.64,0A.47.47,0,0,1,535.87,477.92Z" transform="translate(-318.44 -64.5)" style="fill:#1d1d1b"/><path d="M595.65,355.25a301.33,301.33,0,0,1-19.4,67.7c-4.65,10.84-9.34,22-17,31.42s-16.71,17.9-27.86,22.55a.46.46,0,0,1-.5-.75,190.21,190.21,0,0,0,21-27.09c6.21-9.41,12.38-19.05,17.8-29.21a286.24,286.24,0,0,0,14-31.72,333.48,333.48,0,0,0,11.09-33.08.45.45,0,0,1,.55-.34A.48.48,0,0,1,595.65,355.25Z" transform="translate(-318.44 -64.5)" style="fill:#1d1d1b"/><path d="M498.72,341.42a808.18,808.18,0,0,1,46.22-69.81c8.31-11.25,16.58-22.7,26.88-32.48a116.65,116.65,0,0,1,16.61-13.47c5.94-3.83,12.77-7.63,20.21-7.52a.46.46,0,0,1,.45.46.44.44,0,0,1-.29.42l-.06,0c-6.43,2.4-11.47,6.92-16.38,11.58s-9.51,9.7-14,14.83c-9.07,10.22-18.7,20.13-27.7,30.67-17.78,21.23-34.74,43.3-51.14,65.8a.45.45,0,0,1-.63.1A.47.47,0,0,1,498.72,341.42Z" transform="translate(-318.44 -64.5)" style="fill:#1d1d1b"/><path d="M430.13,363.16a269.42,269.42,0,0,1,39.75,14c6.42,2.92,13.23,5.51,18.85,10.2,5.46,4.54,11.1,10.49,12.46,18.13a.47.47,0,0,1-.38.55.5.5,0,0,1-.38-.1l-.05,0c-5.47-4.61-11-7.69-16.86-11.12-5.85-3.22-11.09-7.65-17-11.19-11.82-7-24.14-13.55-36.7-19.62a.46.46,0,0,1-.22-.6A.46.46,0,0,1,430.13,363.16Z" transform="translate(-318.44 -64.5)" style="fill:#1d1d1b"/></svg>