<?xml version="1.0" encoding="utf-8"?>
<!-- Generator: Adobe Illustrator 24.0.3, SVG Export Plug-In . SVG Version: 6.00 Build 0)  -->
<svg version="1.1" id="Layer_1" xmlns="http://www.w3.org/2000/svg" xmlns:xlink="http://www.w3.org/1999/xlink" x="0px" y="0px"
	 viewBox="0 0 715.5 555.3" style="enable-background:new 0 0 715.5 555.3;" xml:space="preserve">
<style type="text/css">
	.st0{stroke:#000000;stroke-width:3;stroke-miterlimit:10;}
	.st1{fill:#B39053;}
</style>
<g id="Layer_2_1_">
	<g>
		<path class="st0" d="M544.7-242.7"/>
	</g>
	<g>
		<path class="st1" d="M366.9,181.2c-5.3-14.1-7.3-29.4-7.3-44.9c0.4-15.6,3.5-31.1,9.1-45.7c11.1-29.7,33.6-54.9,61.5-71.1
			c28.2-15.9,62.1-22,94-15.9s61.2,22.9,82.5,46.5l-9.9-3.1c29.4-5.1,57.7-15.2,83.6-29.9l20.1-11.3l-7.3,21.5
			c-11.3,32.9-34.2,60.7-64.4,78l-4.2-12.4C651,90.4,676.8,84,701.3,74l14.8-6.1L707,80.8c-19.1,27.1-42.9,50.5-70.3,69.1l0.8-1.6
			l-0.1,17.6"/>
	</g>
	<g>
		<path class="st1" d="M636.8,164.5c0,0-16.7,197.2-127.7,289S217.8,589.6,80.4,503.1L229,442.9c0,0-111-30.4-134.1-95.1
			c0,0,74.6,0.7,54.8-11.9s-74-34.3-84.6-76s-9.2-49.5-9.2-49.5s42.3,8.6,45.6,8.6s-54.8-64.7-52.8-101.1S67.8,40,67.8,40
			s97.1,92.5,138.7,105.7s145.9,44.6,159.8,34.2"/>
	</g>
</g>
<g id="Layer_1_1_">
	<title>twittericon</title>
	<g>
		<path d="M95.9,503.6c16.5,6.5,33,12.5,49.7,18.2c8.4,2.9,16.8,5.5,25.3,8c4.3,1.2,8.5,2.5,12.9,3.7s8.6,2.2,13,3.3
			c17.4,4.3,35.1,7.9,53.4,11.7v2.6c-18.4,3.6-37.2,4.9-55.9,3.9c-9.4-0.3-18.8-1.5-28.1-2.7c-9.3-1.5-18.6-3.3-27.8-5.5
			c-18.4-4.6-36.1-11.3-53-20c-16.7-8.7-32.9-18.4-48.4-29.1L0,471.9l43.8,6.9c17,2.6,34.3,3.6,51.5,2.9c17.3-0.6,34.5-3,51.4-7.1
			c17.1-3.9,33.7-9.5,49.6-16.7c16.1-7.3,31.5-16.1,46-26.1l1.6,2C202.5,470,151,492.5,96.5,498.3"/>
		<path d="M206.5,556.8c-4.1,0-8.2-0.1-12.3-0.3c-9.6-0.3-19-1.5-28.2-2.7c-10-1.6-19.1-3.4-28-5.5c-18.4-4.6-36.3-11.4-53.3-20.1
			c-17-8.8-33.3-18.7-48.6-29.2l-42.3-29.5l50.2,7.9c17,2.6,34.2,3.6,51.2,2.9c17-0.6,34.2-3,51.1-7.1c16.9-3.9,33.5-9.4,49.3-16.6
			c15.7-7.1,31.1-15.9,45.8-26l1.1-0.8l3.4,4.2l-1.1,0.9c-41.8,36.6-93.1,59-148.2,64.9l-0.3-3c53.3-5.7,102.9-27,143.7-61.6
			c-13.9,9.3-28.3,17.4-43.1,24.1c-16,7.2-32.8,12.9-49.9,16.8c-17,4.1-34.4,6.5-51.7,7.1c-17.1,0.7-34.6-0.3-51.8-2.9l-37.4-5.9
			l31.7,22.1c15.2,10.5,31.4,20.2,48.2,29c16.8,8.7,34.5,15.3,52.7,19.9c8.7,2.1,17.8,3.9,27.7,5.5c9,1.2,18.4,2.4,27.9,2.7
			c18.2,1,36.5-0.3,54.4-3.6v-0.1L245,549c-16.8-3.5-32.7-6.8-48.6-10.7l-3.3-0.8c-3.3-0.8-6.5-1.6-9.8-2.5c-2.4-0.7-4.8-1.4-7.2-2
			c-1.9-0.6-3.8-1.1-5.7-1.7c-9.9-2.9-17.9-5.4-25.4-8c-17.6-6-33.9-12-49.8-18.2l1.1-2.8c15.8,6.2,32,12.2,49.6,18.2
			c7.4,2.6,15.5,5.1,25.2,8c1.9,0.5,3.8,1.1,5.8,1.7c2.3,0.7,4.7,1.4,7.1,2c3.3,0.9,6.4,1.7,9.7,2.5l3.3,0.8
			c15.8,3.9,31.7,7.2,48.4,10.7l6.1,1.3v5.1l-1.2,0.2C236,555.4,221.3,556.8,206.5,556.8z"/>
	</g>
	<g>
		<path d="M250.1,548.5c50.3-2.3,100.2-12.2,145.7-32.3c68.4-29.6,125.8-80,163.9-144c12.6-21,23.9-42.7,33.9-65
			c10.1-22.5,18.5-45.6,25.1-69.3c6.7-24.1,11.9-48.7,15.5-73.4h2.6c3.6,25.4,3.2,51.4-0.3,77.1c-3.5,25.8-9.8,51.1-19,75.5
			s-21.4,47.7-36.3,69.1c-14.9,21.3-31.9,41.2-50.5,59.4c-37.1,36.3-81.3,64.5-129.9,82.7c-48.5,17.6-99.9,24.8-150.6,23
			L250.1,548.5L250.1,548.5z"/>
		<path d="M265.6,553.1c-5.1,0-10.3-0.1-15.4-0.3l-1.4-0.1v-4.2h1.4l0-1.5c53.5-2.4,102.4-13.3,145.2-32.2
			c33.9-14.7,65.2-34.5,92.9-58.9c27.8-24.4,51.4-52.8,70.3-84.5c12.5-20.8,23.8-42.6,33.8-64.8c10.1-22.5,18.5-45.8,25-69.1
			c6.7-24,11.9-48.7,15.5-73.2l0.2-1.3h5.2l0.2,1.3c3.5,24.5,3.4,50.6-0.3,77.5c-3.5,26.1-10,51.6-19.1,75.8
			c-9.3,24.7-21.6,48-36.5,69.4c-14.7,21.1-31.8,41.1-50.7,59.6c-37.6,36.8-81.4,64.7-130.4,83C358.5,545.2,312.9,553.1,265.6,553.1
			z M252.6,549.9c51.7,1.6,101.3-6.2,147.6-23c48.6-18.2,92.1-45.9,129.4-82.4c18.8-18.3,35.7-38.3,50.3-59.2
			c14.8-21.2,26.9-44.3,36.1-68.8c9-24,15.4-49.3,18.9-75.2c3.6-26.2,3.7-51.6,0.5-75.4c-3.6,24.3-8.8,48.6-15.3,72.3
			c-6.5,23.5-15,46.9-25.2,69.5c-10,22.4-21.5,44.3-34,65.2c-19,32-42.9,60.7-70.9,85.3c-28,24.6-59.5,44.6-93.7,59.4
			C353.9,536.3,305.6,547.2,252.6,549.9z"/>
	</g>
	<g>
		<path d="M110.5,353.7c3.2,0,4.7,0.4,16,0.3c11.3-0.2,22.5-1.7,33.5-4.5l54.1-13.7l-55-12.3c-13.7-3.1-26.8-8.4-38.9-15.6
			c-12-7.4-22.8-16.6-31.9-27.3c-9.3-11-16.5-23.3-21.4-36.6c-2.5-6.7-4.4-13.5-5.7-20.5c-0.5-3.5-1.3-7-1.5-10.6l-0.4-5.4
			c-0.1-1.7-0.3-3.9-0.3-4.9l-16.6,9.2c10.2,5.4,21.1,9.4,32.4,12c11.2,2.6,22.7,3.8,34.1,3.5l29.8-0.5L113.8,212
			c-14-8.2-26.3-19.1-36.1-32c-10.1-13-17.4-28.1-21.3-44.1c-4-16.1-4.6-32.9-1.8-49.2c2.9-16.2,9.2-31.6,18.4-45.2l-10.9,0.9
			c15.9,22.2,34.2,43.2,55.2,61.1c5.4,4.4,10.6,9,16.2,12.9c5.6,3.9,11.2,8,17,11.8c6,3.5,11.7,7.3,17.9,10.5s12.1,6.6,18.4,9.6
			c24.8,12,51,20.9,78,26.6c26.9,5.5,54.4,7.8,81.4,6l0.1-2.6c-26.6-4.6-52.5-10.5-77.5-18.9c-24.9-8.1-49.1-18.4-72.2-30.8
			c-5.8-3-11.5-6.2-17.1-9.6s-11-6.9-16.5-10.4s-10.8-7.3-16.2-10.9c-5.2-3.9-10.5-7.8-15.8-11.5c-20.7-15.8-40.8-32.9-58.8-52.3
			l-6.8-7.3l-4.1,8.2c-8,15.9-13.2,33-15.3,50.6c-1.2,8.7-1.5,17.5-1,26.3c0.3,8.8,1.4,17.5,3.3,26c3.8,17.3,10.5,33.8,19.8,48.8
			c9.6,15.2,21.9,28.5,36.3,39.3l4.9-15.2c-10-0.9-19.8-3-29.3-6.1c-9.4-3.1-18.4-7.3-26.9-12.3L37.6,183l-1.1,18.4
			c-0.1,2.9,0,4.6,0,6.8l0.1,6.4c0,4.2,0.8,8.4,1.2,12.7c1.2,8.4,3.1,16.7,5.7,24.8c5.3,16.3,13.4,31.6,23.9,45.1
			c10.4,13.6,15.2,21.6,29.9,30.6l24.9,42.6c7.1,11,15.8,20.9,25.9,29.4c10.2,8.6,21.7,15.8,33.9,21.1c12.6,5.5,26,9.1,39.7,10.8
			v2.6c-14.4,1.1-28.9-0.1-42.9-3.8c-14.3-3.7-27.9-9.7-40.2-17.9c-25.4-16.8-44.6-41.4-54.7-70.1l-6.4-18.4l19.9,3.1"/>
		<path d="M211.4,436.2c-11.3,0-22.3-1.4-33-4.2c-14.6-3.8-28.3-9.9-40.6-18.1c-25.5-16.9-45.1-42-55.3-70.8l-7.2-20.8l14.4,2.3
			c-8.4-6.3-13.1-12.6-19.6-21.3c-1.2-1.6-2.5-3.3-3.9-5.1c-10.6-13.7-18.8-29-24.1-45.5c-2.6-8.1-4.5-16.5-5.8-25.1
			c-0.1-1.5-0.3-3-0.5-4.4c-0.3-2.8-0.7-5.7-0.7-8.5l-0.1-6.4c0-0.7,0-1.4,0-2.1c0-1.4,0-2.8,0-4.8l1.2-20.9l17.6,10.5
			c7.7,4.5,15.6,8.3,23.6,11.1c-3.8-4.7-7.4-9.6-10.6-14.7c-9.4-15.2-16.2-31.8-20-49.3c-1.9-8.5-3-17.4-3.3-26.3
			c-0.5-9-0.2-18,1-26.6c2.1-17.7,7.3-34.9,15.4-51.1L65,24l8.3,8.9c16,17.3,34.7,33.8,58.6,52.1c4.6,3.2,9.6,6.9,15.8,11.5
			c2,1.3,4,2.7,6.1,4.1c3.3,2.2,6.6,4.5,10,6.7l3.6,2.3c4.2,2.7,8.5,5.4,12.9,8.1c5.5,3.4,11.3,6.6,17,9.5
			c22.9,12.3,47.1,22.6,72,30.7c22.6,7.6,47.9,13.8,77.3,18.8l1.3,0.2l-0.2,5.3l-1.3,0.1c-26.2,1.7-53.7-0.3-81.8-6
			c-27.2-5.7-53.6-14.7-78.4-26.7c-4-1.9-7.9-4-11.7-6c-2.2-1.2-4.5-2.4-6.8-3.6c-4.1-2.1-8-4.5-11.8-6.8c-2-1.2-4.1-2.5-6.2-3.7
			c-4.1-2.7-8-5.5-11.9-8.2c-1.8-1.2-3.5-2.5-5.2-3.7c-4.2-2.9-8.2-6.3-12.1-9.5c-1.4-1.2-2.8-2.3-4.2-3.5
			c-17-14.5-33.2-31.9-48.4-51.9C62.2,63.5,58.2,74.9,56.1,87c-2.8,16-2.1,32.8,1.8,48.6c3.8,15.7,11.1,30.8,21,43.5
			c9.7,12.8,21.7,23.5,35.7,31.6l29.5,17.5l-35.1,0.6c-11.5,0.3-23.1-0.9-34.5-3.5c-4.1-0.9-8.1-2-12-3.3c0.1,0.5,0.1,0.9,0.2,1.4
			c1.3,6.8,3.1,13.5,5.6,20.2c4.8,13.1,11.9,25.3,21.1,36.2c8.9,10.5,19.6,19.6,31.5,27c12.1,7.2,25,12.4,38.4,15.4l61.1,13.7
			L160.4,351c-11.1,2.8-22.4,4.3-33.8,4.5c-5.9,0.1-9.1,0-11.4-0.1l8.3,14.3c7,10.9,15.6,20.6,25.6,29c10.2,8.6,21.5,15.7,33.5,20.9
			c12.3,5.4,25.6,9,39.3,10.7l1.3,0.2v5.3l-1.4,0.1C218.3,436.1,214.9,436.2,211.4,436.2z M79.7,326l5.6,16
			c9.9,28.2,29.1,52.8,54.1,69.3c12.1,8,25.4,14,39.7,17.7c13,3.4,26.6,4.7,40.4,3.9c-13.3-1.8-26.2-5.4-38.2-10.7
			c-12.3-5.3-23.8-12.5-34.3-21.3c-10.2-8.6-19-18.6-26.2-29.7l-9.4-16c-0.4,0-0.7,0-1.1,0v-1.8l-14.3-24.5
			c-0.3-0.2-0.5-0.3-0.8-0.5L79.7,326z M113.4,352.3c0.1,0,0.2,0,0.2,0c2.3,0.1,5.4,0.3,12.9,0.2c11.2-0.2,22.3-1.7,33.1-4.5
			l48-12.2L158.8,325c-13.7-3.1-27-8.4-39.3-15.8c-12.3-7.6-23.1-16.9-32.3-27.6c-9.4-11.1-16.7-23.6-21.7-37.1
			c-2.5-6.8-4.5-13.8-5.8-20.7c-0.1-1-0.3-2-0.5-2.9c-6.1-2.2-11.9-4.7-17.6-7.7l-2.4-1.3l21.2-11.8v2.5c0,0.6,0.1,1.7,0.2,2.8
			c0,0.7,0.1,1.4,0.1,2l0.4,5.4c0.1,1.9,0.4,3.9,0.7,5.8c4.3,1.5,8.7,2.7,13.2,3.8c8.9,2.1,17.8,3.2,26.8,3.5
			c-7.5-5.8-14.5-12.3-20.7-19.3c-0.6-0.2-1.1-0.4-1.7-0.5c-9.2-3-18.3-7.2-27.2-12.4L39,185.5l-1,15.9c-0.1,1.9,0,3.3,0,4.6
			c0,0.7,0,1.4,0,2.1l0.1,6.4c0,2.7,0.3,5.4,0.7,8.2c0.2,1.4,0.4,2.9,0.5,4.4c1.2,8.3,3.1,16.5,5.6,24.5
			c5.3,16.2,13.2,31.2,23.7,44.6c1.4,1.8,2.7,3.5,3.9,5.1c7.6,10.1,12.7,16.8,24.1,24.1l1.1,0.2l-0.1,0.5c0.2,0.1,0.3,0.2,0.5,0.3
			l0.3,0.2L113.4,352.3z M110.5,211.8l-4.5,14.1c1,0,1.9,0,2.9,0l24.5-0.4L113,213.3C112.2,212.8,111.3,212.3,110.5,211.8z
			 M86.7,208.1c5.2,5.5,10.8,10.6,16.9,15.3l3.7-11.4C100.5,211.2,93.6,209.9,86.7,208.1z M45.6,211.8c4.2,2.1,8.6,4,13.1,5.7
			c-0.2-1.5-0.4-2.9-0.5-4.5l-0.4-5.4c0-0.6-0.1-1.3-0.1-2c0-0.2,0-0.4,0-0.6L45.6,211.8z M82.9,203.8c7.6,2.3,15.3,4,22.9,4.9
			c-11.2-7.6-21.1-17-29.3-27.8c-10.2-13.1-17.6-28.5-21.6-44.7c-4-16.2-4.6-33.4-1.8-49.8c2.3-12.8,6.6-24.9,12.8-36.3
			c-1.7-2.3-3.4-4.6-5.1-6.9l-1.2-1.6c-6.3,14-10.4,28.8-12.2,43.9c-1.2,8.4-1.5,17.2-1,26c0.3,8.7,1.4,17.4,3.3,25.8
			c3.8,17.2,10.4,33.4,19.6,48.3C73.4,192.1,77.9,198.2,82.9,203.8z M69.5,49.9c15.3,20.3,31.7,37.9,48.8,52.4
			c1.4,1.1,2.8,2.3,4.2,3.5c3.8,3.2,7.8,6.5,11.9,9.3c1.8,1.2,3.5,2.5,5.3,3.7c3.8,2.7,7.7,5.5,11.7,8.1c2,1.2,4.1,2.5,6.1,3.7
			c3.7,2.3,7.6,4.7,11.6,6.7c2.3,1.2,4.6,2.4,6.8,3.6c3.7,2,7.6,4.1,11.5,6c24.6,11.9,50.7,20.8,77.7,26.5
			c27.2,5.6,53.9,7.6,79.4,6.1c-28.9-5.1-53.8-11.2-76.2-18.7c-25-8.1-49.4-18.5-72.4-30.9c-5.8-3-11.6-6.2-17.2-9.6
			c-4.4-2.7-8.7-5.4-12.9-8.1l-3.6-2.3c-3.4-2.2-6.8-4.5-10.1-6.8c-2-1.4-4.1-2.8-6.1-4.2c-6.2-4.7-11.2-8.3-15.8-11.5
			c-21.8-16.6-39.2-31.9-54.3-47.5l-1.6,2.4C72.6,44.8,71,47.4,69.5,49.9z M64.9,43.7c0.9,1.2,1.8,2.4,2.7,3.7
			c0.8-1.4,1.6-2.7,2.5-4.1L64.9,43.7z M65.8,29.2l-3.1,6.3c-0.9,1.9-1.8,3.7-2.7,5.6l15.7-1.3c-1.6-1.6-3.1-3.2-4.6-4.9L65.8,29.2z
			"/>
	</g>
	<g>
		<path d="M634.1,164.5l-0.9-17.4v-1l0.8-0.6c25.6-19.8,47.5-43.8,64.8-71.2l5.7,6.7c-24.9,11.9-51.5,19.9-78.8,23.8l-31,4.4
			l26.7-16.7c26.3-16.5,45.8-42,54.7-71.8l12.8,10.2c-27.2,16.9-57.1,29-88.4,35.8l-5.6,1.2l-4.3-4.4
			c-19.2-19.3-44.2-31.8-71.1-35.5c-6.6-0.9-13.3-1.3-20-1.3c-6.7,0.5-13.3,0.5-19.9,1.8c-13.2,2.1-26,6.1-38,12
			c-23.8,12.1-44.5,31.6-57.3,56.1c-6.5,12.4-11.2,25.7-13.8,39.5c-2.6,14.2-3.1,28.8-1.6,43.2l-2.5,0.6
			c-5.3-14.1-7.3-29.4-7.3-44.9c0.4-15.6,3.5-31.1,9.1-45.7c11.1-29.7,33.6-54.9,61.5-71.1c28.2-15.9,62.1-22,94-15.9
			s61.2,22.9,82.5,46.5l-9.9-3.1c29.4-5.1,57.7-15.2,83.6-29.9L700,4.5L692.7,26c-11.3,32.9-34.2,60.7-64.4,78L624,91.6
			c26.4-2.5,52.2-8.9,76.7-18.9l14.8-6.1l-9.1,12.9c-19.1,27.1-42.9,50.5-70.3,69.1l0.8-1.6l-0.1,17.6h-2.7V164.5z"/>
		<path d="M365.5,181.7l-0.5-1.2c-5-13.2-7.4-28.1-7.4-45.4c0.4-15.8,3.5-31.4,9.2-46.2c11-29.5,33.1-55,62.1-71.9
			c28.8-16.3,63.5-22.1,95-16.1c29.7,5.7,57.5,20.6,78.8,42.1c26.9-5.4,52.6-15,76.4-28.5l23.5-13.2l-8.6,25.2
			C686.4,48.9,673.4,69,656.4,85c14.3-3.2,28.4-7.5,42-13l0.1-0.2l0.1,0.1c0.5-0.2,0.9-0.4,1.4-0.6l19.6-8.1l-12.1,17.1
			c-0.3,0.4-0.5,0.7-0.8,1.1l0.1,0.1l-0.1,0.1c-18.8,26.3-41.8,49-68.4,67.3l-0.1,17.2h-5.7v-1.6l-0.9-17.4l0-1.8l1.4-1
			c20-15.5,37.7-33.5,52.6-53.6c-18.6,7.2-38,12.3-57.9,15.3l-0.3,0.2l0-0.1c-0.5,0.1-1,0.1-1.5,0.2l-38,5.4l32.7-20.5
			c0.5-0.3,0.9-0.6,1.4-0.9l0-0.1l0.1,0c17.2-11.1,31.3-26.1,41.3-43.6c-19.9,9.6-40.8,16.8-62.6,21.5l-6.4,1.4l-4.9-5
			c-18.9-19-43.8-31.4-70.2-35.1c-6.2-0.9-12.9-1.3-19.7-1.3c-1.8,0.1-3.7,0.2-5.5,0.3c-4.9,0.3-9.5,0.5-14.2,1.4
			c-13.2,2.1-25.9,6.1-37.6,11.9c-24.3,12.3-44.4,32-56.6,55.4c-6.5,12.4-11.1,25.6-13.7,39.1c-2.6,13.9-3.1,28.3-1.6,42.8l0.1,1.3
			L365.5,181.7z M499.1,1.5c-23.6,0-47.7,6.2-68.6,18C402,36,380.4,61,369.6,89.8c-5.6,14.5-8.6,29.8-9,45.2
			c0,16.3,2.2,30.3,6.7,42.8c-1.3-14.2-0.7-28.3,1.8-42c2.6-13.8,7.3-27.2,13.9-39.9c12.5-24,33.1-44.1,57.9-56.7
			c12-5.9,25-10,38.4-12.1c4.8-1,9.8-1.2,14.5-1.5c1.8-0.1,3.7-0.2,5.5-0.3l0.1,0c7,0,13.8,0.4,20.2,1.3c27.1,3.7,52.6,16.5,72,35.9
			l3.7,3.8l4.8-1c22.9-5,44.9-12.7,65.7-23.2c3.6-6.9,6.5-14.1,8.8-21.7c-21.8,11.6-45.1,20.1-69.4,25.1c0.7,0.7,1.4,1.5,2.1,2.3
			l3.7,4.1l-21.1-6.6l6.1-1.1c1.1-0.2,2.1-0.4,3.2-0.6c-20.7-20.4-47.3-34.4-75.8-39.9C515.5,2.3,507.3,1.5,499.1,1.5z M634.9,151.2
			l0.4,8l0-8.4L634.9,151.2z M634.7,146.8l0,1.1l0.9-1.9c-0.3,0.2-0.5,0.4-0.8,0.6L634.7,146.8z M638.4,143.9l0,1.3
			c24.1-16.9,45.2-37.3,62.7-60.9c-3.4,1.5-6.8,3-10.2,4.4C676.1,109.4,658.5,127.9,638.4,143.9z M623,93.3
			c-0.3,0.2-0.5,0.3-0.8,0.5l-20.7,13l24-3.4c0.3,0,0.6-0.1,0.9-0.1L623,93.3z M652,89c-5.4,4.7-11.1,9-17.2,12.8
			c18.6-3.3,36.8-8.6,54.2-15.6c2.3-3.3,4.6-6.6,6.7-9.9C681.5,81.7,666.9,86,652,89z M626,92.9l3.1,8.9c5.9-3.5,11.6-7.4,16.9-11.7
			C639.4,91.3,632.7,92.2,626,92.9z M668.1,44.3c-9.4,17.9-23,33.5-39.7,45.3c7.5-0.8,14.9-2,22.3-3.5
			c16.5-14.5,29.5-32.7,37.9-53.3C681.8,37,675,40.8,668.1,44.3z M699,76.8c-1.6,2.4-3.2,4.8-4.8,7.2c2.7-1.1,5.3-2.3,7.9-3.6
			L699,76.8z M700.8,74.3l4.1,4.8c0.1-0.2,0.2-0.3,0.3-0.5l6.1-8.7l-10,4.1C701.1,74.2,700.9,74.2,700.8,74.3z M676.9,23.2
			c-1.8,5.7-4,11.2-6.5,16.5c5.4-2.8,10.7-5.8,15.9-9L676.9,23.2z M676.7,19.3l13.1,10.4c0.5-1.4,1-2.8,1.5-4.2l6-17.8l-16.7,9.4
			C679.3,17.8,678,18.6,676.7,19.3z"/>
	</g>
</g>
</svg>
