<svg id="Layer_1" data-name="Layer 1" xmlns="http://www.w3.org/2000/svg" viewBox="0 0 432.26 768.53"><title>velfacwindows</title><path d="M781.55,203,407,244.89l2.79-2.74,1.85,298.33,1.58,298.33-6-5.71,382.88,30.29L780.62,871c-1.55-55.69-2.31-111.39-3.25-167.09-.52-27.84-.66-55.7-1-83.55l-.67-83.56c-.41-55.7-.24-111.42,0-167.13l.23-41.79.61-41.79.86-41.79c.17-7,.38-13.93.7-20.9l.53-10.45.36-5.23.26-2.63.19-1.33.15-.7a2.65,2.65,0,0,1,.13-.41,1.1,1.1,0,0,1,.18-.33C779.61,202.47,781.13,201,781.55,203Zm-1.61-.49c.31,1.87,1.69.45,1.36.7.05-.07.05-.07,0,0a1.46,1.46,0,0,0-.06.23l-.08.59-.11,1.27-.1,2.58-.06,5.2.09,10.43.42,20.88,1.11,41.76,2.51,83.51,5,167,4.39,167c1.18,55.68,2.63,111.37,3.4,167.06l.12,8.46-9.58-.85L405.94,844.52l-6-.53,0-5.18,1.57-298.33,1.86-298.33v-2.46l2.77-.27L592.4,221.07Z" transform="translate(-365.74 -158.47)"/><path d="M371.67,861.62l-3-313.78L367,390.27l-1.21-158,0-4.54,5.14-1.17L659.55,160.9l10.71-2.43.07,9.72,1.49,187.38.94,93.69.58,93.69c.37,62.46,0,124.92-.62,187.38L671.63,824l-1.53,93.69-.16,9.29-10.1-2.16-73.09-15.6-72.52-15.86Zm1.77-1.23L520,885.33l72.05,12.5,71.47,12.75-10.26,7.13L651.75,824l-1.09-93.69c-.65-62.46-1-124.92-.62-187.38l.58-93.69.94-93.69,1.49-187.38,10.77,7.28L374.23,238l5.11-5.72-1.21,156.38-1.67,156.78Z" transform="translate(-365.74 -158.47)"/><path d="M651.47,189.5,402.26,242.33l1.91-2.1,2,301.08,1.17,150.54c.12,25.09.3,50.18.13,75.27l-.13,37.63-.4,37.64-4-4.47,64.44,14.21c21.5,4.68,42.93,9.58,64.37,14.47s42.9,9.69,64.3,14.7,42.82,10,64.18,15.15l-.27,1c-21.71-3.91-43.35-8.08-65-12.13s-43.26-8.39-64.9-12.57-43.26-8.39-64.83-12.8l-64.76-13.06-4-.8,0-3.66L396,804.75l-.12-37.63c-.17-25.09,0-50.18.13-75.27l1.17-150.54,2-301.08,0-1.73,1.9-.38,250.09-49.57Z" transform="translate(-365.74 -158.47)"/><path d="M430.6,814.74l-8.47-564.62,0-2.53,2.91-.32,342.52-37.63,5-.55v4.38l0,316.36c0,52.73-.56,105.45-.82,158.18l-1.79,158.17-.05,4.46-5-.5q-42.13-4.18-84.15-8.66l-83.84-8.85Zm.84-.66L599.51,828l83.28,7q41.57,3.46,83,7.23l-5.09,3.95L760.28,688c.21-52.73.08-105.45.59-158.18l2.77-316.35,5,3.83L425.81,252.93l2.87-2.86Z" transform="translate(-365.74 -158.47)"/></svg>